<svg width="28" height="31" viewBox="0 0 28 31" fill="none" xmlns="http://www.w3.org/2000/svg">
<g clip-path="url(#clip0_2_871)">
<path d="M20.5803 6.4967V8.55047H18.1641V6.55932C18.1641 5.55603 17.7385 4.65041 17.0477 3.99199C16.3588 3.33544 15.4067 2.92983 14.354 2.92983C12.2506 2.92983 10.5439 4.55462 10.5439 6.55932V8.55047H8.12769V6.4967C8.12769 3.22562 10.9224 0.5625 14.354 0.5625C17.7856 0.5625 20.5803 3.22609 20.5803 6.4967Z" fill="#EBEBEB"/>
<g opacity="0.3">
<path opacity="0.3" d="M20.5803 6.4967V8.55047H18.1641V6.55932C18.1641 5.55603 17.7385 4.65041 17.0477 3.99199C16.3588 3.33544 15.4067 2.92983 14.354 2.92983C12.2506 2.92983 10.5439 4.55462 10.5439 6.55932V8.55047H8.12769V6.4967C8.12769 3.22562 10.9224 0.5625 14.354 0.5625C17.7856 0.5625 20.5803 3.22609 20.5803 6.4967Z" fill="#2E2E2E"/>
</g>
<path d="M20.5803 9.11322H18.1641C17.838 9.11322 17.5743 8.86135 17.5743 8.5506V6.55944C17.5743 5.74027 17.2389 4.9697 16.6304 4.38979C16.023 3.81127 15.2149 3.49258 14.354 3.49258C12.5781 3.49258 11.1337 4.8683 11.1337 6.55944V8.5506C11.1337 8.86135 10.8694 9.11322 10.5439 9.11322H8.12767C7.80162 9.11322 7.53784 8.86135 7.53784 8.5506V6.49636C7.53735 2.91453 10.5953 0 14.354 0C18.1126 0 21.1706 2.91453 21.1706 6.49683V8.55106C21.1706 8.86182 20.9063 9.11369 20.5808 9.11369L20.5803 9.11322ZM18.7539 7.98844H19.99V6.49683C19.99 3.53463 17.4615 1.12478 14.3535 1.12478C11.2455 1.12478 8.71701 3.53463 8.71701 6.49683V7.98844H9.95305V6.55944C9.95305 4.24819 11.927 2.36733 14.3535 2.36733C15.5292 2.36733 16.6344 2.80331 17.4644 3.59398C18.296 4.38651 18.7539 5.43933 18.7539 6.55898V7.98797V7.98844Z" fill="#2E2E2E"/>
<path d="M18.1642 9.11308H10.5434C10.2174 9.11308 9.95361 8.86121 9.95361 8.55046V6.5593C9.95361 4.24806 11.9276 2.36719 14.354 2.36719C15.5298 2.36719 16.6349 2.80318 17.465 3.59384C18.2965 4.38638 18.7545 5.4392 18.7545 6.55884V8.54999C18.7545 8.86074 18.4902 9.11261 18.1647 9.11261L18.1642 9.11308ZM11.1333 7.9883H17.5738V6.5593C17.5738 5.74013 17.2385 4.96956 16.63 4.38965C16.0225 3.81113 15.2145 3.49244 14.3536 3.49244C12.5777 3.49244 11.1333 4.86816 11.1333 6.5593V7.9883Z" fill="#2E2E2E"/>
<path d="M22.9009 28.4357C22.9112 29.4922 22.0144 30.3544 20.9063 30.3544H2.6726C1.56404 30.3544 0.66777 29.4922 0.678066 28.4357L1.87489 10.4345C1.88518 9.39194 2.7736 8.55127 3.86942 8.55127H19.7095C20.8034 8.55127 21.6938 9.39194 21.7041 10.4345L22.9009 28.4357Z" fill="#FCC15B"/>
<g opacity="0.55">
<path opacity="0.55" d="M1.79443 10.0853C2.00232 10.0148 2.22639 9.97551 2.46075 9.97551H18.3008C19.3967 9.97551 20.2851 10.8162 20.2954 11.8587L21.4922 29.8599C21.4942 30.1188 21.4427 30.3655 21.3461 30.5908C22.1257 30.3282 22.6826 29.6146 22.6743 28.7819L21.4775 10.7807C21.4672 9.73813 20.5788 8.89746 19.4829 8.89746H3.64335C2.80641 8.89746 2.09106 9.38953 1.79492 10.0853H1.79443Z" fill="white"/>
</g>
<path d="M27.3218 28.4357C27.3321 29.4922 26.4354 30.3544 25.3273 30.3544H20.9063C22.0149 30.3544 22.9111 29.4922 22.9008 28.4357L21.704 10.4345C21.6937 9.39194 20.8033 8.55127 19.7095 8.55127H23.5137C24.6076 8.55127 25.4979 9.39194 25.5082 10.4345L27.3218 28.4357Z" fill="#FCC15B"/>
<g opacity="0.2">
<path opacity="0.2" d="M27.3218 28.4357C27.3321 29.4922 26.4354 30.3544 25.3273 30.3544H20.9063C22.0149 30.3544 22.9111 29.4922 22.9008 28.4357L21.704 10.4345C21.6937 9.39194 20.8033 8.55127 19.7095 8.55127H23.5137C24.6076 8.55127 25.4979 9.39194 25.5082 10.4345L27.3218 28.4357Z" fill="#2E2E2E"/>
</g>
<path d="M20.906 31H2.67273C1.95444 31 1.28028 30.7317 0.774291 30.2453C0.268302 29.7588 -0.00626536 29.114 0.000108529 28.4294C0.000108529 28.4177 0.000598828 28.406 0.00157943 28.3943L1.19742 10.409C1.22144 9.02628 2.4163 7.9043 3.86955 7.9043H19.7092C21.1629 7.9043 22.3573 9.02628 22.3813 10.409L23.5771 28.3939C23.5776 28.4055 23.5781 28.4172 23.5786 28.4289C23.585 29.1135 23.3104 29.7584 22.8044 30.2453C22.2984 30.7317 21.6243 31 20.906 31ZM1.35628 28.4569C1.35726 28.7883 1.49258 29.0999 1.73773 29.3359C1.98729 29.5757 2.31922 29.7079 2.67273 29.7079H20.906C21.26 29.7079 21.5919 29.5757 21.841 29.3359C22.0861 29.0999 22.2214 28.7883 22.2224 28.4569L21.0271 10.4749C21.0266 10.4632 21.0261 10.4515 21.0256 10.4398C21.0187 9.75433 20.4284 9.19684 19.7092 9.19684H3.86955C3.15028 9.19684 2.55947 9.75433 2.5531 10.4398C2.5531 10.4515 2.55261 10.4632 2.55162 10.4749L1.35628 28.4569Z" fill="#2E2E2E"/>
<path d="M25.3269 30.9999H20.9059C20.5313 30.9999 20.2278 30.7107 20.2278 30.3537C20.2278 29.9967 20.5313 29.7074 20.9059 29.7074C21.2599 29.7074 21.5918 29.5752 21.8409 29.3354C22.0861 29.0995 22.2214 28.7878 22.2224 28.4565L21.027 10.4744C21.0265 10.4627 21.026 10.451 21.0255 10.4394C21.0187 9.75384 20.4284 9.19635 19.7091 9.19635C19.3345 9.19635 19.031 8.90709 19.031 8.55008C19.031 8.19307 19.3345 7.90381 19.7091 7.90381H23.5133C24.9626 7.90381 26.1546 9.01971 26.1855 10.3973L27.9966 28.3728C27.9986 28.3915 27.9996 28.4102 27.9996 28.4289C28.0059 29.1135 27.7314 29.7588 27.2254 30.2453C26.7194 30.7322 26.0452 30.9999 25.3269 30.9999ZM23.2329 29.7074H25.3269C25.6809 29.7074 26.0129 29.5752 26.2619 29.3359C26.5051 29.1023 26.64 28.7938 26.6434 28.4663L24.8327 10.4959C24.8308 10.4772 24.8298 10.4585 24.8298 10.4403C24.8229 9.75477 24.2326 9.19682 23.5133 9.19682H22.0326C22.2474 9.55617 22.3739 9.96926 22.3812 10.4095L23.5771 28.3943C23.5776 28.406 23.578 28.4177 23.5785 28.4293C23.5829 28.8845 23.4628 29.3224 23.2329 29.7079V29.7074Z" fill="#2E2E2E"/>
<path d="M18.164 6.4967V8.55047H15.7478V6.55932C15.7478 5.55603 15.3223 4.65041 14.6314 3.99199C13.9426 3.33544 12.9904 2.92983 11.9377 2.92983C9.83435 2.92983 8.12762 4.55462 8.12762 6.55932V8.55047H5.71143V6.4967C5.71143 3.22562 8.50613 0.5625 11.9377 0.5625C15.3693 0.5625 18.164 3.22609 18.164 6.4967Z" fill="#EBEBEB"/>
<path d="M18.164 9.11322H15.7478C15.4218 9.11322 15.158 8.86135 15.158 8.5506V6.55944C15.158 5.74027 14.8226 4.9697 14.2142 4.38979C13.6067 3.81127 12.7987 3.49258 11.9377 3.49258C10.1619 3.49258 8.71743 4.8683 8.71743 6.55944V8.5506C8.71743 8.86135 8.45316 9.11322 8.1276 9.11322H5.71141C5.38536 9.11322 5.12158 8.86135 5.12158 8.5506V6.49636C5.12109 2.91453 8.17909 0 11.9377 0C15.6963 0 18.7543 2.91453 18.7543 6.49683V8.55106C18.7543 8.86182 18.4901 9.11369 18.1645 9.11369L18.164 9.11322ZM16.3377 7.98844H17.5737V6.49683C17.5737 3.53463 15.0452 1.12478 11.9372 1.12478C8.82922 1.12478 6.30075 3.53463 6.30075 6.49683V7.98844H7.53679V6.55944C7.53679 4.24819 9.51074 2.36733 11.9372 2.36733C13.113 2.36733 14.2181 2.80331 15.0482 3.59398C15.8797 4.38651 16.3377 5.43933 16.3377 6.55898V7.98797V7.98844Z" fill="#2E2E2E"/>
<path d="M15.748 9.13914H8.12729C7.78654 9.13914 7.5105 8.87605 7.5105 8.55128V6.56013C7.5105 4.23439 9.4967 2.34277 11.9379 2.34277C13.121 2.34277 14.2325 2.7811 15.068 3.57737C15.9044 4.37458 16.3653 5.43394 16.3653 6.56059V8.55174C16.3653 8.87652 16.0893 9.1396 15.7485 9.1396L15.748 9.13914ZM8.74409 7.96295H15.1307V6.55966C15.1307 5.7475 14.7983 4.983 14.1947 4.40776C13.5927 3.83392 12.7905 3.51802 11.9374 3.51802C10.1763 3.51802 8.74409 4.88253 8.74409 6.55966V7.96295Z" fill="#2E2E2E"/>
<path d="M15.7479 9.11308H8.12718C7.80113 9.11308 7.53735 8.86121 7.53735 8.55046V6.5593C7.53735 4.24806 9.5113 2.36719 11.9378 2.36719C13.1135 2.36719 14.2187 2.80318 15.0487 3.59384C15.8803 4.38638 16.3382 5.4392 16.3382 6.55884V8.54999C16.3382 8.86074 16.074 9.11261 15.7484 9.11261L15.7479 9.11308ZM8.71701 7.9883H15.1576V6.5593C15.1576 5.74013 14.8222 4.96956 14.2138 4.38965C13.6063 3.81113 12.7983 3.49244 11.9373 3.49244C10.1614 3.49244 8.71701 4.86816 8.71701 6.5593V7.9883Z" fill="#2E2E2E"/>
<g opacity="0.3">
<path opacity="0.3" d="M1.2439 28.4353C1.2336 29.4918 2.13036 30.354 3.23844 30.354H21.4717C10.8572 27.8395 4.06067 21.6366 2.44023 10.4341L1.24341 28.4353H1.2439Z" fill="#2E2E2E"/>
</g>
</g>
<defs>
<clipPath id="clip0_2_871">
<rect width="28" height="31" fill="white"/>
</clipPath>
</defs>
</svg>
