<svg width="24" height="24" viewBox="0 0 24 24" fill="none" xmlns="http://www.w3.org/2000/svg">
<path d="M9.5 18.8145V18.499L9.21523 18.3631C7.02013 17.3163 5.5 15.0835 5.5 12.5C5.5 8.91614 8.41614 6 12 6C15.5839 6 18.5 8.91614 18.5 12.5C18.5 15.0835 16.9799 17.3163 14.7848 18.3631L14.5 18.499V18.8145V21.5C14.5 22.3269 13.8269 23 13 23H11C10.1731 23 9.5 22.3269 9.5 21.5V18.8145ZM12.5 3H11.5V1H12.5V3ZM3.5157 4.72266L4.22266 4.0157L5.63664 5.42969L4.92969 6.13664L3.5157 4.72266ZM18.3634 5.42969L19.7773 4.0157L20.4843 4.72266L19.0703 6.13664L18.3634 5.42969ZM2.5 13H0.5V12H2.5V13ZM23.5 13H21.5V12H23.5V13ZM3.5157 20.2773L4.92969 18.8634L5.63664 19.5703L4.22266 20.9843L3.5157 20.2773ZM18.3634 19.5703L19.0703 18.8634L20.4843 20.2773L19.7773 20.9843L18.3634 19.5703Z" fill="#FCE80D" stroke="black"/>
</svg>
