<svg width="19" height="17" viewBox="0 0 19 17" fill="none" xmlns="http://www.w3.org/2000/svg">
<path d="M17.154 3.28916H14.241L13.547 1.34431C13.499 1.21123 13.4112 1.0962 13.2954 1.01492C13.1796 0.933652 13.0416 0.890103 12.9001 0.890229H6.32879C6.03963 0.890229 5.78046 1.07229 5.68407 1.34431L4.98796 3.28916H2.07497C1.12825 3.28916 0.36145 4.05596 0.36145 5.00268V14.7697C0.36145 15.7165 1.12825 16.4833 2.07497 16.4833H17.154C18.1007 16.4833 18.8675 15.7165 18.8675 14.7697V5.00268C18.8675 4.05596 18.1007 3.28916 17.154 3.28916ZM9.61446 13.0562C7.72102 13.0562 6.18742 11.5226 6.18742 9.62918C6.18742 7.73574 7.72102 6.20214 9.61446 6.20214C11.5079 6.20214 13.0415 7.73574 13.0415 9.62918C13.0415 11.5226 11.5079 13.0562 9.61446 13.0562ZM7.55824 9.62918C7.55824 10.1745 7.77487 10.6975 8.16049 11.0832C8.54611 11.4688 9.06912 11.6854 9.61446 11.6854C10.1598 11.6854 10.6828 11.4688 11.0684 11.0832C11.4541 10.6975 11.6707 10.1745 11.6707 9.62918C11.6707 9.08384 11.4541 8.56083 11.0684 8.17521C10.6828 7.78959 10.1598 7.57296 9.61446 7.57296C9.06912 7.57296 8.54611 7.78959 8.16049 8.17521C7.77487 8.56083 7.55824 9.08384 7.55824 9.62918Z" fill="#439801"/>
</svg>
