<svg width="37" height="45" viewBox="0 0 37 45" fill="none" xmlns="http://www.w3.org/2000/svg">
<path d="M18.0506 8.78815C15.7364 8.78815 13.854 6.90645 13.854 4.59372C13.854 2.28099 15.7366 0.399292 18.0506 0.399292C20.3645 0.399292 22.2473 2.28082 22.2473 4.59372C22.2473 6.90663 20.3647 8.78815 18.0506 8.78815ZM18.0506 1.01403C16.0758 1.01403 14.4689 2.61999 14.4689 4.59372C14.4689 6.56745 16.0756 8.17341 18.0506 8.17341C20.0255 8.17341 21.6322 6.56745 21.6322 4.59372C21.6322 2.61999 20.0255 1.01403 18.0506 1.01403Z" fill="white"/>
<path d="M18.0504 9.18795C15.516 9.18795 13.4541 7.12698 13.4541 4.59376C13.4541 2.06055 15.516 -0.000244141 18.0504 -0.000244141C20.5849 -0.000244141 22.6467 2.06073 22.6467 4.59376C22.6467 7.1268 20.5849 9.18795 18.0504 9.18795ZM18.0504 1.41365C16.2959 1.41365 14.8685 2.84016 14.8685 4.59359C14.8685 6.34701 16.2959 7.7737 18.0504 7.7737C19.8049 7.7737 21.2323 6.34719 21.2323 4.59359C21.2323 2.83999 19.8049 1.41365 18.0504 1.41365Z" fill="#232323"/>
<path d="M19.0979 4.26025H16.9813C16.6625 4.26025 16.4041 4.5187 16.4041 4.8375V5.74362C16.4041 6.06243 16.6625 6.32087 16.9813 6.32087H19.0979C19.4167 6.32087 19.6751 6.06243 19.6751 5.74362V4.8375C19.6751 4.5187 19.4167 4.26025 19.0979 4.26025Z" fill="#F7C714"/>
<g opacity="0.6">
<path opacity="0.6" d="M17.1147 5.29181C17.1147 5.11449 17.2586 4.97058 17.4361 4.97058H19.6751V4.83733C19.6751 4.51859 19.4166 4.26025 19.0977 4.26025H16.9815C16.6626 4.26025 16.4041 4.51859 16.4041 4.83733V5.7438C16.4041 6.06254 16.6626 6.32087 16.9815 6.32087H17.1147V5.29181Z" fill="white"/>
</g>
<path d="M19.0977 6.80966H16.9811C16.3934 6.80966 15.9153 6.33155 15.9153 5.744V4.83788C15.9153 4.25033 16.3934 3.77222 16.9811 3.77222H19.0977C19.6854 3.77222 20.1635 4.25033 20.1635 4.83788V5.744C20.1635 6.33155 19.6854 6.80966 19.0977 6.80966ZM16.9811 4.74904C16.9323 4.74904 16.8923 4.78884 16.8923 4.83788V5.744C16.8923 5.79303 16.9321 5.83283 16.9811 5.83283H19.0977C19.1466 5.83283 19.1865 5.79303 19.1865 5.744V4.83788C19.1865 4.78884 19.1467 4.74904 19.0977 4.74904H16.9811Z" fill="#232323"/>
<path d="M19.0998 6.3208H16.939V9.85803H19.0998V6.3208Z" fill="#F7C714"/>
<path d="M19.0999 10.3466H16.939C16.6692 10.3466 16.4504 10.1279 16.4504 9.85816V6.32093C16.4504 6.05123 16.6692 5.83252 16.939 5.83252H19.0999C19.3697 5.83252 19.5884 6.05123 19.5884 6.32093V9.85816C19.5884 10.1279 19.3697 10.3466 19.0999 10.3466ZM17.4274 9.36957H18.6113V6.80935H17.4274V9.36957Z" fill="#232323"/>
<g opacity="0.3">
<path opacity="0.3" d="M19.1 6.3208H16.9392V9.85803H19.1V6.3208Z" fill="#232323"/>
</g>
<path d="M30.2233 11.4248L32.5114 13.6789C32.7367 13.9008 33.0991 13.8982 33.3212 13.6731L34.4453 12.5333C34.6676 12.308 34.6649 11.9452 34.4394 11.7231L32.1514 9.46904C31.9261 9.24713 31.5637 9.24979 31.3416 9.4749L30.2175 10.6147C29.9952 10.8399 29.9979 11.2027 30.2233 11.4248Z" fill="#F7C714"/>
<g opacity="0.6">
<path opacity="0.6" d="M30.3921 11.5916L31.341 10.6294C31.5631 10.4041 31.9259 10.4016 32.1512 10.6235L34.2699 12.7108L34.4451 12.5331C34.6672 12.3078 34.6647 11.9454 34.4392 11.7233L32.1512 9.46917C31.9259 9.24708 31.5631 9.24975 31.341 9.47503L30.2169 10.6148C29.9948 10.8401 29.9973 11.2025 30.2228 11.4246L30.3921 11.5914V11.5916Z" fill="white"/>
</g>
<path d="M32.9132 14.3933C32.6284 14.3933 32.3436 14.286 32.1252 14.071L29.8374 11.8169C29.6236 11.6064 29.5048 11.3253 29.5025 11.0252C29.5003 10.7253 29.6151 10.4423 29.8258 10.2287L30.9499 9.08879C31.3845 8.64817 32.0966 8.64319 32.5374 9.07742L34.8253 11.3315C35.039 11.5421 35.1579 11.8231 35.1602 12.1232C35.1623 12.4231 35.0475 12.7061 34.8368 12.9197L33.7127 14.0596C33.4935 14.2819 33.2033 14.3935 32.9132 14.3935V14.3933ZM31.7495 9.85436C31.7436 9.85436 31.7377 9.85667 31.7331 9.86112L30.609 11.0009C30.607 11.0028 30.6024 11.0076 30.6024 11.017C30.6024 11.0265 30.6072 11.0311 30.6092 11.0332L32.897 13.2873C32.9059 13.296 32.9205 13.296 32.9294 13.2869L34.0535 12.1472C34.0554 12.1452 34.0601 12.1404 34.0601 12.131C34.0601 12.1216 34.0553 12.117 34.0533 12.1149L31.7654 9.86076C31.761 9.8565 31.7551 9.85419 31.7495 9.85419V9.85436Z" fill="#232323"/>
<path d="M28.1253 14.3284L29.6643 15.8445L32.1473 13.324L30.6083 11.8079L28.1253 14.3284Z" fill="#F7C714"/>
<path d="M29.666 16.3929C29.5266 16.3929 29.3873 16.3403 29.2801 16.2348L27.7412 14.7188C27.6372 14.6164 27.5782 14.4768 27.5772 14.3309C27.5761 14.185 27.6331 14.0447 27.7356 13.9407L30.22 11.4217C30.4334 11.2055 30.7813 11.203 30.9975 11.4162L32.5365 12.9323C32.6404 13.0346 32.6994 13.1743 32.7005 13.3201C32.7015 13.466 32.6445 13.6064 32.542 13.7103L30.0576 16.2293C29.9499 16.3384 29.808 16.3931 29.666 16.3931V16.3929ZM28.9051 14.3213L29.6603 15.0654L31.3724 13.3294L30.6171 12.5853L28.9051 14.3213Z" fill="#232323"/>
<g opacity="0.3">
<path opacity="0.3" d="M28.1253 14.3284L29.6643 15.8445L32.1473 13.324L30.6083 11.8079L28.1253 14.3284Z" fill="#232323"/>
</g>
<path d="M5.66649 11.5393L3.37846 13.7934C3.15317 14.0153 2.79073 14.0127 2.56864 13.7876L1.44452 12.6478C1.22226 12.4225 1.22492 12.0597 1.45039 11.8376L3.73842 9.58354C3.9637 9.36163 4.32615 9.36429 4.54824 9.5894L5.67235 10.7292C5.89462 10.9544 5.89195 11.3172 5.66649 11.5393Z" fill="#F7C714"/>
<g opacity="0.6">
<path opacity="0.6" d="M2.51047 12.7364C2.28839 12.5111 2.29087 12.1486 2.51634 11.9265L4.71607 9.75932L4.54852 9.58947C4.32644 9.36418 3.96363 9.36169 3.73835 9.5836L1.45032 11.8377C1.22486 12.0598 1.22237 12.4222 1.44445 12.6475L2.56857 13.7873C2.79066 14.0126 3.15346 14.015 3.37875 13.7931L3.46705 13.7063L2.51047 12.7364Z" fill="white"/>
</g>
<path d="M2.97651 14.5077C2.68638 14.5077 2.39642 14.3963 2.177 14.1741L1.05288 13.0341C0.842165 12.8206 0.727389 12.5377 0.729521 12.2376C0.731653 11.9377 0.850514 11.6565 1.06425 11.4459L3.3521 9.19185C3.79273 8.75763 4.50501 8.76278 4.93959 9.20322L6.0637 10.3431C6.27442 10.5567 6.38919 10.8396 6.38706 11.1396C6.38493 11.4396 6.26607 11.7208 6.05233 11.9313L3.7643 14.1854C3.54594 14.4004 3.26114 14.5077 2.97633 14.5077H2.97651ZM4.14025 9.9688C4.13438 9.9688 4.1287 9.97093 4.12426 9.97537L1.8364 12.2295C1.83445 12.2314 1.82965 12.2362 1.82965 12.2456C1.82965 12.2551 1.83427 12.2599 1.83623 12.2618L2.96034 13.4017C2.96923 13.4108 2.9838 13.4108 2.99268 13.4019L5.28071 11.1478C5.28284 11.1459 5.28746 11.1412 5.28764 11.1316C5.28764 11.1222 5.28302 11.1174 5.28107 11.1155L4.15695 9.97573C4.15251 9.97129 4.14664 9.96898 4.14078 9.96898L4.14025 9.9688Z" fill="#232323"/>
<path d="M5.27872 11.923L3.73975 13.4391L6.22273 15.9596L7.7617 14.4436L5.27872 11.923Z" fill="#F7C714"/>
<path d="M6.2234 16.5073C6.08144 16.5073 5.93948 16.4526 5.83181 16.3435L3.34746 13.8243C3.24494 13.7204 3.18809 13.5801 3.18898 13.4342C3.19004 13.2883 3.24903 13.1487 3.35296 13.0463L4.89194 11.5303C5.10816 11.3173 5.45622 11.3196 5.66942 11.536L8.15378 14.055C8.25629 14.1589 8.31315 14.2993 8.31226 14.4451C8.31119 14.591 8.25221 14.7305 8.14827 14.833L6.6093 16.349C6.50216 16.4546 6.36269 16.5072 6.2234 16.5072V16.5073ZM4.51706 13.4438L6.22908 15.1798L6.98436 14.4357L5.27233 12.6997L4.51706 13.4438Z" fill="#232323"/>
<g opacity="0.3">
<path opacity="0.3" d="M5.27872 11.9232L3.73975 13.4392L6.22273 15.9597L7.7617 14.4437L5.27872 11.9232Z" fill="#232323"/>
</g>
<path d="M18.0505 44.05C27.7158 44.05 35.551 36.2189 35.551 26.5587C35.551 16.8986 27.7158 9.0675 18.0505 9.0675C8.38528 9.0675 0.550049 16.8986 0.550049 26.5587C0.550049 36.2189 8.38528 44.05 18.0505 44.05Z" fill="#F7C714"/>
<g opacity="0.3">
<path opacity="0.3" d="M2.32544 34.2399C2.35689 34.3042 2.38851 34.3683 2.42067 34.4321C2.38851 34.3683 2.35689 34.304 2.32544 34.2399Z" fill="#232323"/>
</g>
<g opacity="0.3">
<path opacity="0.3" d="M2.16895 33.9128C2.19897 33.9777 2.22971 34.042 2.26045 34.1065C2.22953 34.0422 2.19897 33.9777 2.16895 33.9128Z" fill="#232323"/>
</g>
<g opacity="0.3">
<path opacity="0.3" d="M2.73706 35.0295C2.77171 35.0919 2.80706 35.1537 2.84224 35.2156C2.80689 35.1537 2.77153 35.0919 2.73706 35.0295Z" fill="#232323"/>
</g>
<g opacity="0.3">
<path opacity="0.3" d="M2.48364 34.5551C2.54565 34.6753 2.6089 34.7949 2.67357 34.9136C2.6089 34.7949 2.54565 34.6753 2.48364 34.5551Z" fill="#232323"/>
</g>
<g opacity="0.3">
<path opacity="0.3" d="M2.91626 35.3442C2.95179 35.4054 2.98768 35.4661 3.02393 35.5269C2.98768 35.4663 2.95179 35.4054 2.91626 35.3442Z" fill="#232323"/>
</g>
<g opacity="0.3">
<path opacity="0.3" d="M5.62842 38.8772C5.67248 38.9214 5.71637 38.9657 5.76078 39.0096C5.71637 38.9657 5.6723 38.9214 5.62842 38.8772Z" fill="#232323"/>
</g>
<g opacity="0.3">
<path opacity="0.3" d="M17.533 44.0414C17.5733 44.0426 17.6136 44.0439 17.6541 44.0448C17.6136 44.0439 17.5735 44.0424 17.533 44.0414Z" fill="#232323"/>
</g>
<g opacity="0.3">
<path opacity="0.3" d="M16.7271 44.0002C16.759 44.0026 16.7912 44.0045 16.8232 44.0066C16.7912 44.0045 16.759 44.0026 16.7271 44.0002Z" fill="#232323"/>
</g>
<g opacity="0.3">
<path opacity="0.3" d="M16.25 43.9576C16.2798 43.9607 16.3097 43.9642 16.3397 43.9671C16.3097 43.9642 16.2798 43.9607 16.25 43.9576Z" fill="#232323"/>
</g>
<g opacity="0.3">
<path opacity="0.3" d="M15.8225 43.9086C15.8653 43.9141 15.9081 43.9194 15.9511 43.9246C15.9081 43.9194 15.8653 43.9141 15.8225 43.9086Z" fill="#232323"/>
</g>
<g opacity="0.3">
<path opacity="0.3" d="M5.50554 38.7524C5.4613 38.7069 5.41724 38.6614 5.37354 38.6156C5.41724 38.6614 5.4613 38.7069 5.50554 38.7524Z" fill="#232323"/>
</g>
<g opacity="0.3">
<path opacity="0.3" d="M3.10083 35.6534C3.13796 35.7142 3.17492 35.775 3.21259 35.8352C3.17474 35.775 3.13796 35.7142 3.10083 35.6534Z" fill="#232323"/>
</g>
<g opacity="0.3">
<path opacity="0.3" d="M17.1216 44.0249C17.1651 44.0272 17.2086 44.0292 17.252 44.0311C17.2085 44.0292 17.1649 44.0272 17.1216 44.0249Z" fill="#232323"/>
</g>
<g opacity="0.3">
<path opacity="0.3" d="M35.3721 24.9226C35.374 24.9153 35.376 24.9082 35.378 24.9009C35.376 24.9082 35.374 24.9153 35.3721 24.9226Z" fill="#232323"/>
</g>
<g opacity="0.3">
<path opacity="0.3" d="M35.291 25.202C35.2932 25.1951 35.2951 25.1881 35.2973 25.1812C35.2951 25.1881 35.2932 25.1951 35.291 25.202Z" fill="#232323"/>
</g>
<g opacity="0.3">
<path opacity="0.3" d="M3.26465 35.9169C3.34105 36.0372 3.41886 36.1564 3.4981 36.2747C3.41886 36.1564 3.34105 36.0372 3.26465 35.9169Z" fill="#232323"/>
</g>
<g opacity="0.3">
<path opacity="0.3" d="M5.05396 38.2701C5.11969 38.3428 5.18579 38.4149 5.25259 38.4865C5.18579 38.4149 5.11952 38.3428 5.05396 38.2701Z" fill="#232323"/>
</g>
<g opacity="0.3">
<path opacity="0.3" d="M2.07213 33.0243C4.92319 38.8186 10.887 42.8066 17.7838 42.8066C27.3906 42.8066 35.188 35.0698 35.2822 25.4904C34.1991 28.4365 31.4925 31.75 25.3422 34.3428C13.4275 39.3655 4.36371 33.1392 0.754883 27.2646C0.876587 29.4833 1.41297 31.5914 2.28622 33.5141C2.21266 33.3521 2.14089 33.189 2.07213 33.0243Z" fill="#232323"/>
</g>
<g opacity="0.3">
<path opacity="0.3" d="M4.78369 37.964C4.82598 38.0132 4.86826 38.0624 4.91108 38.1111C4.86826 38.0624 4.82598 38.0132 4.78369 37.964Z" fill="#232323"/>
</g>
<g opacity="0.3">
<path opacity="0.3" d="M15.4319 43.8547C15.472 43.8608 15.5124 43.8663 15.5527 43.8721C15.5124 43.8665 15.472 43.8608 15.4319 43.8547Z" fill="#232323"/>
</g>
<g opacity="0.3">
<path opacity="0.3" d="M35.2014 25.4809C35.2029 25.4766 35.2044 25.4722 35.2058 25.4679C35.2043 25.4722 35.2029 25.4766 35.2014 25.4809Z" fill="#232323"/>
</g>
<g opacity="0.3">
<path opacity="0.3" d="M3.58252 36.4C3.62143 36.4571 3.66087 36.5139 3.70049 36.5704C3.66087 36.5137 3.62143 36.4571 3.58252 36.4Z" fill="#232323"/>
</g>
<g opacity="0.3">
<path opacity="0.3" d="M3.78979 36.6968C3.82977 36.7527 3.86957 36.8085 3.91008 36.864C3.86957 36.8085 3.82959 36.7526 3.78979 36.6968Z" fill="#232323"/>
</g>
<g opacity="0.3">
<path opacity="0.3" d="M4.54834 37.6852C4.59063 37.7362 4.63291 37.7872 4.67573 37.8376C4.63309 37.787 4.59063 37.7362 4.54834 37.6852Z" fill="#232323"/>
</g>
<g opacity="0.3">
<path opacity="0.3" d="M4.32007 37.4034C4.36147 37.4559 4.40357 37.5076 4.44568 37.5594C4.40357 37.5076 4.36164 37.4559 4.32007 37.4034Z" fill="#232323"/>
</g>
<g opacity="0.3">
<path opacity="0.3" d="M4.00244 36.9884C4.07458 37.0852 4.1476 37.1812 4.22151 37.2764C4.14742 37.1812 4.0744 37.0852 4.00244 36.9884Z" fill="#232323"/>
</g>
<g opacity="0.3">
<path opacity="0.3" d="M6.81714 39.9696C6.86085 40.0062 6.90437 40.043 6.94861 40.0792C6.90455 40.043 6.86085 40.0062 6.81714 39.9696Z" fill="#232323"/>
</g>
<g opacity="0.3">
<path opacity="0.3" d="M8.82935 41.4265C8.8743 41.4544 8.9196 41.4821 8.96473 41.5097C8.91942 41.4821 8.8743 41.4544 8.82935 41.4265Z" fill="#232323"/>
</g>
<g opacity="0.3">
<path opacity="0.3" d="M8.51685 41.2281C8.55878 41.2553 8.60106 41.282 8.64317 41.309C8.60106 41.2822 8.55878 41.2555 8.51685 41.2281Z" fill="#232323"/>
</g>
<g opacity="0.3">
<path opacity="0.3" d="M8.11865 40.9606C8.15614 40.9865 8.19345 41.0128 8.23112 41.0384C8.19345 41.0128 8.15614 40.9865 8.11865 40.9606Z" fill="#232323"/>
</g>
<g opacity="0.3">
<path opacity="0.3" d="M7.79639 40.733C7.84116 40.7655 7.88611 40.7981 7.93124 40.83C7.88611 40.7981 7.84116 40.7655 7.79639 40.733Z" fill="#232323"/>
</g>
<g opacity="0.3">
<path opacity="0.3" d="M9.15576 41.6241C9.19787 41.649 9.2398 41.6741 9.28226 41.6988C9.23998 41.6742 9.19787 41.6492 9.15576 41.6241Z" fill="#232323"/>
</g>
<g opacity="0.3">
<path opacity="0.3" d="M9.58716 41.8716C9.61754 41.8885 9.64828 41.9046 9.67884 41.9212C9.64828 41.9045 9.61754 41.8883 9.58716 41.8716Z" fill="#232323"/>
</g>
<g opacity="0.3">
<path opacity="0.3" d="M15.0513 43.7937C15.0605 43.7953 15.0698 43.7967 15.0791 43.7982C15.0698 43.7966 15.0605 43.7953 15.0513 43.7937Z" fill="#232323"/>
</g>
<g opacity="0.3">
<path opacity="0.3" d="M9.91284 42.0471C9.95619 42.0699 9.9999 42.0922 10.0434 42.1148C9.9999 42.0924 9.95619 42.07 9.91284 42.0471Z" fill="#232323"/>
</g>
<g opacity="0.3">
<path opacity="0.3" d="M5.89746 39.1429C5.96 39.2032 6.02272 39.2632 6.08615 39.3226C6.02272 39.2632 5.96 39.2034 5.89746 39.1429Z" fill="#232323"/>
</g>
<g opacity="0.3">
<path opacity="0.3" d="M7.49854 40.5127C7.54313 40.5465 7.58808 40.5799 7.63321 40.6133C7.58826 40.5799 7.54331 40.5465 7.49854 40.5127Z" fill="#232323"/>
</g>
<g opacity="0.3">
<path opacity="0.3" d="M7.18506 40.2698C7.23161 40.3067 7.27869 40.343 7.3256 40.3796C7.27869 40.3432 7.23161 40.3067 7.18506 40.2698Z" fill="#232323"/>
</g>
<g opacity="0.3">
<path opacity="0.3" d="M6.53418 39.7274C6.57931 39.7669 6.62461 39.8061 6.6701 39.845C6.62461 39.8061 6.57931 39.7669 6.53418 39.7274Z" fill="#232323"/>
</g>
<g opacity="0.3">
<path opacity="0.3" d="M6.26123 39.4846C6.30476 39.5244 6.349 39.5635 6.39288 39.6028C6.34882 39.5635 6.30476 39.5242 6.26123 39.4846Z" fill="#232323"/>
</g>
<g opacity="0.3">
<path opacity="0.3" d="M13.3425 43.4086C13.3724 43.4169 13.402 43.4256 13.4319 43.4338C13.402 43.4256 13.3724 43.4169 13.3425 43.4086Z" fill="#232323"/>
</g>
<g opacity="0.3">
<path opacity="0.3" d="M12.9387 43.291C12.9815 43.304 13.0244 43.3171 13.0674 43.3297C13.0244 43.317 12.9815 43.304 12.9387 43.291Z" fill="#232323"/>
</g>
<g opacity="0.3">
<path opacity="0.3" d="M13.7937 43.5283C13.8276 43.5368 13.8619 43.5447 13.896 43.553C13.8619 43.5447 13.8276 43.5368 13.7937 43.5283Z" fill="#232323"/>
</g>
<g opacity="0.3">
<path opacity="0.3" d="M14.1677 43.6171C14.2105 43.6267 14.2534 43.6363 14.2962 43.6455C14.2534 43.6361 14.2105 43.6267 14.1677 43.6171Z" fill="#232323"/>
</g>
<g opacity="0.3">
<path opacity="0.3" d="M12.5718 43.1747C12.6134 43.1884 12.6551 43.2017 12.6969 43.215C12.6551 43.2017 12.6134 43.1884 12.5718 43.1747Z" fill="#232323"/>
</g>
<g opacity="0.3">
<path opacity="0.3" d="M14.5588 43.7004C14.5979 43.7084 14.637 43.7164 14.6763 43.7242C14.637 43.7166 14.5979 43.7084 14.5588 43.7004Z" fill="#232323"/>
</g>
<g opacity="0.3">
<path opacity="0.3" d="M11.7522 42.8816C11.792 42.8969 11.8318 42.9125 11.8718 42.9276C11.8318 42.9125 11.7922 42.8969 11.7522 42.8816Z" fill="#232323"/>
</g>
<g opacity="0.3">
<path opacity="0.3" d="M11.0427 42.5905C11.0807 42.6072 11.1191 42.6231 11.1573 42.6395C11.1191 42.6231 11.0807 42.607 11.0427 42.5905Z" fill="#232323"/>
</g>
<g opacity="0.3">
<path opacity="0.3" d="M10.6172 42.397C10.6499 42.4123 10.6822 42.4281 10.7149 42.4432C10.6822 42.4281 10.6499 42.4123 10.6172 42.397Z" fill="#232323"/>
</g>
<g opacity="0.3">
<path opacity="0.3" d="M11.3889 42.7372C11.4324 42.7551 11.4762 42.7729 11.5199 42.7905C11.4762 42.7729 11.4324 42.7551 11.3889 42.7372Z" fill="#232323"/>
</g>
<g opacity="0.3">
<path opacity="0.3" d="M10.249 42.2189C10.2926 42.2405 10.3361 42.2624 10.38 42.2837C10.3363 42.2624 10.2927 42.2405 10.249 42.2189Z" fill="#232323"/>
</g>
<g opacity="0.3">
<path opacity="0.3" d="M12.2156 43.0538C12.2354 43.0608 12.2552 43.0674 12.275 43.0742C12.2552 43.0672 12.2352 43.0608 12.2156 43.0538Z" fill="#232323"/>
</g>
<g opacity="0.45">
<path opacity="0.45" d="M8.35786 12.3915C8.35786 12.3915 5.73421 13.5055 3.87579 16.2983C2.01736 19.0911 4.30966 19.7981 8.0688 16.2983C11.8279 12.7986 10.0793 11.4835 8.35786 12.3915Z" fill="white"/>
</g>
<g opacity="0.45">
<path opacity="0.45" d="M3.96656 21.1659C4.16845 20.4678 3.95929 19.794 3.49939 19.661C3.03949 19.528 2.503 19.9861 2.30111 20.6842C2.09921 21.3823 2.30837 22.0561 2.76827 22.1891C3.22817 22.3221 3.76466 21.864 3.96656 21.1659Z" fill="white"/>
</g>
<path d="M18.0505 44.5999C8.09748 44.5999 0 36.5067 0 26.5586C0 16.6105 8.09748 8.51733 18.0505 8.51733C28.0036 8.51733 36.1011 16.6105 36.1011 26.5586C36.1011 36.5067 28.0036 44.5999 18.0505 44.5999ZM18.0505 9.61747C8.70404 9.61747 1.10013 17.2173 1.10013 26.5588C1.10013 35.9003 8.70404 43.5002 18.0505 43.5002C27.397 43.5002 35.0009 35.9003 35.0009 26.5588C35.0009 17.2173 27.397 9.61747 18.0505 9.61747Z" fill="#232323"/>
<g opacity="0.6">
<path opacity="0.6" d="M7.07632 15.5257C0.783611 21.6018 1.42287 30.0109 7.45067 36.2468C13.4785 42.4828 21.811 43.0217 28.1035 36.9455C34.3962 30.8694 35.6675 22.2652 30.1689 16.3534C27.0704 13.0221 22.5098 12.127 18.0508 12.1064C14.0097 12.0876 10.0679 12.6368 7.07632 15.5255V15.5257ZM28.6986 35.5464C23.6216 41.59 14.6458 42.4108 8.6503 37.3798C2.65483 32.3487 1.91004 23.3709 6.98695 17.3272C12.0639 11.2836 21.0397 10.4628 27.0352 15.4939C33.0307 20.5249 33.7755 29.5028 28.6987 35.5464H28.6986Z" fill="white"/>
</g>
<path d="M18.0505 41.0108C26.0363 41.0108 32.5101 34.5405 32.5101 26.5588C32.5101 18.5772 26.0363 12.1068 18.0505 12.1068C10.0646 12.1068 3.59082 18.5772 3.59082 26.5588C3.59082 34.5405 10.0646 41.0108 18.0505 41.0108Z" fill="#F7C714"/>
<path d="M18.0506 41.4991C9.80815 41.4991 3.10254 34.7969 3.10254 26.5587C3.10254 18.3205 9.80833 11.6183 18.0506 11.6183C26.2929 11.6183 32.9987 18.3205 32.9987 26.5587C32.9987 34.7969 26.2929 41.4991 18.0506 41.4991ZM18.0506 12.5951C10.3468 12.5951 4.07937 18.8592 4.07937 26.5587C4.07937 34.2582 10.3468 40.5223 18.0506 40.5223C25.7544 40.5223 32.0218 34.2582 32.0218 26.5587C32.0218 18.8592 25.7544 12.5951 18.0506 12.5951Z" fill="#232323"/>
<path d="M18.0506 38.8119C24.8214 38.8119 30.3102 33.326 30.3102 26.5587C30.3102 19.7915 24.8214 14.3055 18.0506 14.3055C11.2798 14.3055 5.79102 19.7915 5.79102 26.5587C5.79102 33.326 11.2798 38.8119 18.0506 38.8119Z" fill="white"/>
<path d="M18.0506 38.856C11.2661 38.856 5.74658 33.3394 5.74658 26.5585C5.74658 19.7775 11.2661 14.2609 18.0506 14.2609C24.8351 14.2609 30.3546 19.7775 30.3546 26.5585C30.3546 33.3394 24.8351 38.856 18.0506 38.856ZM18.0506 14.3497C11.3151 14.3497 5.83542 19.8265 5.83542 26.5585C5.83542 33.2904 11.3151 38.7672 18.0506 38.7672C24.786 38.7672 30.2657 33.2904 30.2657 26.5585C30.2657 19.8265 24.786 14.3497 18.0506 14.3497Z" fill="#232323"/>
<path d="M18.0506 38.8119C24.8214 38.8119 30.3102 33.326 30.3102 26.5587C30.3102 19.7915 24.8214 14.3055 18.0506 14.3055C11.2798 14.3055 5.79102 19.7915 5.79102 26.5587C5.79102 33.326 11.2798 38.8119 18.0506 38.8119Z" fill="white"/>
<path d="M18.0506 38.856C11.2661 38.856 5.74658 33.3394 5.74658 26.5585C5.74658 19.7775 11.2661 14.2609 18.0506 14.2609C24.8351 14.2609 30.3546 19.7775 30.3546 26.5585C30.3546 33.3394 24.8351 38.856 18.0506 38.856ZM18.0506 14.3497C11.3151 14.3497 5.83542 19.8265 5.83542 26.5585C5.83542 33.2904 11.3151 38.7672 18.0506 38.7672C24.786 38.7672 30.2657 33.2904 30.2657 26.5585C30.2657 19.8265 24.786 14.3497 18.0506 14.3497Z" fill="#232323"/>
<g opacity="0.3">
<path opacity="0.3" d="M18.0505 13.8253C11.0145 13.8253 5.31055 19.5262 5.31055 26.5586C5.31055 33.5909 11.0145 39.2918 18.0505 39.2918C25.0866 39.2918 30.7905 33.5909 30.7905 26.5586C30.7905 19.5262 25.0866 13.8253 18.0505 13.8253ZM18.0505 38.2414C11.8506 38.2414 6.82429 32.7553 6.82429 26.5586C6.82429 20.3618 11.8504 14.767 18.0505 14.767C24.2507 14.767 29.2768 20.3618 29.2768 26.5586C29.2768 32.7553 24.2507 38.2414 18.0505 38.2414Z" fill="#232323"/>
</g>
<g opacity="0.3">
<path opacity="0.3" d="M18.0506 12.1067C10.5652 12.1067 4.49707 19.0772 4.49707 26.5585C4.49707 34.0398 10.5652 41.0105 18.0506 41.0105C25.536 41.0105 31.6041 34.04 31.6041 26.5585C31.6041 19.077 25.536 12.1067 18.0506 12.1067ZM18.0506 39.2919C11.0145 39.2919 5.31062 33.5911 5.31062 26.5587C5.31062 19.5264 11.0145 13.8255 18.0506 13.8255C25.0867 13.8255 30.7906 19.5264 30.7906 26.5587C30.7906 33.5911 25.0867 39.2919 18.0506 39.2919Z" fill="#232323"/>
</g>
<path d="M18.0506 39.6737C10.8153 39.6737 4.92896 33.7904 4.92896 26.5588C4.92896 19.3273 10.8153 13.444 18.0506 13.444C25.2858 13.444 31.1722 19.3273 31.1722 26.5588C31.1722 33.7904 25.2858 39.6737 18.0506 39.6737ZM18.0506 14.2431C11.256 14.2431 5.72829 19.7679 5.72829 26.5587C5.72829 33.3494 11.256 38.8742 18.0506 38.8742C24.8452 38.8742 30.3729 33.3494 30.3729 26.5587C30.3729 19.7679 24.8452 14.2431 18.0506 14.2431Z" fill="#232323"/>
<path d="M18.0507 28.1795C18.9464 28.1795 19.6726 27.4537 19.6726 26.5584C19.6726 25.6632 18.9464 24.9374 18.0507 24.9374C17.1549 24.9374 16.4287 25.6632 16.4287 26.5584C16.4287 27.4537 17.1549 28.1795 18.0507 28.1795Z" fill="#C9CCD2"/>
<path d="M18.0506 28.2231C17.6239 28.2231 17.1973 28.0608 16.8723 27.7362C16.5577 27.4215 16.3843 27.0033 16.3843 26.5586C16.3843 26.1138 16.5577 25.6954 16.8723 25.381C17.5221 24.7316 18.579 24.7316 19.229 25.381C19.5436 25.6954 19.717 26.1138 19.717 26.5586C19.717 27.0033 19.5436 27.4217 19.229 27.7362C18.904 28.0609 18.4774 28.2231 18.0506 28.2231ZM18.0506 24.9824C17.6466 24.9824 17.2428 25.1361 16.9352 25.4435C16.6373 25.7413 16.4731 26.1373 16.4731 26.5584C16.4731 26.9795 16.6373 27.3755 16.9352 27.6733C17.5503 28.288 18.5511 28.288 19.1662 27.6733C19.4642 27.3755 19.6284 26.9795 19.6284 26.5584C19.6284 26.1373 19.4642 25.7413 19.1662 25.4435C18.8587 25.1361 18.4548 24.9824 18.0508 24.9824H18.0506Z" fill="#232323"/>
<path d="M18.0505 28.5455C17.5413 28.5455 17.0321 28.3517 16.6444 27.9643C16.2688 27.5889 16.062 27.0897 16.062 26.5588C16.062 26.0279 16.2688 25.5287 16.6444 25.1533C17.4198 24.3784 18.6812 24.3784 19.4566 25.1533C19.8322 25.5287 20.039 26.0279 20.039 26.5588C20.039 27.0897 19.8322 27.5889 19.4566 27.9643C19.0689 28.3518 18.5597 28.5455 18.0505 28.5455ZM18.0505 25.3048C17.7289 25.3048 17.4075 25.427 17.1629 25.6717C16.9258 25.9085 16.7953 26.2235 16.7953 26.5586C16.7953 26.8937 16.9257 27.2085 17.1629 27.4456C17.6523 27.9349 18.4486 27.9349 18.9381 27.4456C19.1751 27.2085 19.3057 26.8937 19.3057 26.5586C19.3057 26.2235 19.1753 25.9087 18.9381 25.6717C18.6935 25.427 18.3719 25.3048 18.0505 25.3048Z" fill="#232323"/>
<path d="M13.7028 21.46L16.1061 23.8579L17.3134 25.0513L18.5123 26.253H17.7456L23.6841 20.3317C23.8921 20.1241 24.2292 20.1245 24.4367 20.3326C24.6442 20.5406 24.6447 20.8764 24.4367 21.0839L18.5121 27.0193C18.3009 27.2309 17.9581 27.2313 17.7464 27.0202L17.7455 27.0193L16.5432 25.8211L15.3492 24.6146L12.95 22.2125C12.7423 22.0046 12.7426 21.6677 12.9507 21.4602C13.1587 21.2527 13.4951 21.2524 13.7026 21.4602L13.7028 21.46Z" fill="#232323"/>
<path d="M25.165 19.8146C25.0711 19.8146 24.9772 19.7788 24.9057 19.7071C24.7625 19.5639 24.7625 19.3317 24.9057 19.1885L26.7873 17.3079C26.9305 17.1647 27.1627 17.1649 27.3057 17.3079C27.4489 17.4511 27.4489 17.6833 27.3057 17.8265L25.4242 19.7071C25.3526 19.7788 25.2588 19.8145 25.165 19.8145V19.8146Z" fill="#232323"/>
<path d="M27.723 24.1586C27.5634 24.1586 27.4167 24.0536 27.3707 23.8926C27.315 23.6979 27.4275 23.495 27.6224 23.4392L30.1807 22.7074C30.3751 22.6516 30.5783 22.7644 30.6339 22.9591C30.6895 23.1539 30.5771 23.3568 30.3822 23.4125L27.8239 24.1444C27.7903 24.154 27.7564 24.1586 27.723 24.1586Z" fill="#232323"/>
<path d="M30.3937 30.007C30.3642 30.007 30.3343 30.0035 30.3046 29.996L27.7229 29.3514C27.5266 29.3024 27.407 29.1034 27.4561 28.9069C27.5051 28.7104 27.7039 28.591 27.9006 28.64L30.4823 29.2846C30.6786 29.3337 30.7982 29.5326 30.7492 29.7292C30.7076 29.8958 30.558 30.007 30.3937 30.007Z" fill="#232323"/>
<path d="M27.0465 35.9162C26.9527 35.9162 26.8589 35.8805 26.7873 35.8089L24.9057 33.9283C24.7625 33.7851 24.7625 33.5528 24.9057 33.4096C25.0489 33.2664 25.281 33.2664 25.4242 33.4096L27.3057 35.2903C27.4489 35.4335 27.4489 35.6657 27.3057 35.8089C27.2341 35.8805 27.1403 35.9164 27.0465 35.9164V35.9162Z" fill="#232323"/>
<path d="M21.2547 39.2309C21.0918 39.2309 20.9431 39.1216 20.9001 38.9565L20.2299 36.3826C20.1789 36.1867 20.2964 35.9864 20.4923 35.9354C20.688 35.8843 20.8886 36.0019 20.9395 36.1979L21.6097 38.7718C21.6607 38.9677 21.5433 39.168 21.3473 39.2189C21.3164 39.2269 21.2853 39.2309 21.2547 39.2309Z" fill="#232323"/>
<path d="M14.643 39.1762C14.6105 39.1762 14.5774 39.172 14.5446 39.1627C14.3495 39.1086 14.2354 38.9064 14.2896 38.7113L15.0024 36.1489C15.0566 35.9538 15.2591 35.8398 15.4539 35.894C15.649 35.9482 15.763 36.1504 15.7088 36.3454L14.996 38.9078C14.9509 39.07 14.8036 39.1762 14.643 39.1762Z" fill="#232323"/>
<path d="M9.05486 35.9163C8.96105 35.9163 8.86706 35.8804 8.79563 35.8088C8.65243 35.6656 8.65243 35.4333 8.79563 35.2901L10.6772 33.4095C10.8204 33.2665 11.0526 33.2665 11.1956 33.4095C11.3388 33.5527 11.3388 33.7849 11.1956 33.9281L9.31408 35.8088C9.24247 35.8804 9.14867 35.9161 9.05486 35.9161V35.9163Z" fill="#232323"/>
<path d="M5.67279 29.8652C5.50684 29.8652 5.35636 29.7516 5.31638 29.5832C5.26966 29.3862 5.39136 29.1886 5.58839 29.1417L8.17722 28.5268C8.37426 28.4799 8.572 28.6017 8.61873 28.7988C8.66546 28.9958 8.54375 29.1934 8.34672 29.2403L5.75789 29.8552C5.72929 29.862 5.70086 29.8652 5.67279 29.8652Z" fill="#232323"/>
<path d="M8.35771 24.2298C8.32519 24.2298 8.29215 24.2255 8.25928 24.2163L5.69568 23.5033C5.5006 23.4491 5.38654 23.2469 5.44072 23.0518C5.49491 22.8567 5.69746 22.7425 5.89218 22.7969L8.45578 23.5099C8.65086 23.564 8.76493 23.7662 8.71074 23.9613C8.66561 24.1235 8.51832 24.2298 8.35771 24.2298Z" fill="#232323"/>
<path d="M10.9366 19.8145C10.8428 19.8145 10.749 19.7788 10.6774 19.7072L8.79588 17.8266C8.65268 17.6834 8.65268 17.4512 8.79588 17.308C8.93908 17.1648 9.17112 17.1648 9.31432 17.308L11.1958 19.1886C11.339 19.3318 11.339 19.564 11.1958 19.7072C11.1242 19.7788 11.0304 19.8147 10.9366 19.8147V19.8145Z" fill="#232323"/>
<path d="M15.3627 17.2352C15.2021 17.2352 15.0546 17.1287 15.0095 16.9663L14.2986 14.4035C14.2444 14.2084 14.3588 14.0062 14.5539 13.9522C14.7495 13.898 14.9512 14.0124 15.0054 14.2075L15.7162 16.7704C15.7704 16.9655 15.656 17.1676 15.4609 17.2217C15.4281 17.2307 15.395 17.2352 15.3627 17.2352Z" fill="#232323"/>
<path d="M20.5351 17.1814C20.5051 17.1814 20.4747 17.1777 20.4444 17.17C20.2482 17.1199 20.1297 16.9204 20.1796 16.7241L20.8368 14.1468C20.8869 13.9507 21.0868 13.832 21.2826 13.8821C21.4789 13.9322 21.5973 14.1317 21.5473 14.328L20.8901 16.9053C20.8478 17.0711 20.6988 17.1814 20.5351 17.1814Z" fill="#232323"/>
<g opacity="0.45">
<path opacity="0.45" d="M12.6163 15.582C11.8541 15.9599 11.1338 16.4098 10.4714 16.9314L28.9582 32.1499C29.3416 31.4044 29.65 30.6143 29.8756 29.7903L12.6163 15.5822V15.582Z" fill="white"/>
</g>
<g opacity="0.45">
<path opacity="0.45" d="M23.1339 37.7083C24.1395 37.2492 25.0733 36.6602 25.9112 35.9597L8.23716 19.2137C7.67839 19.9584 7.20348 20.7694 6.82397 21.6317L23.1337 37.7083H23.1339Z" fill="white"/>
</g>
<g opacity="0.3">
<path opacity="0.3" d="M19.0998 4.59375C19.0998 4.59375 18.6723 6.01689 16.5403 5.83922L16.8068 6.10554H19.4343V4.97059L19.0998 4.59375Z" fill="#232323"/>
</g>
<g opacity="0.3">
<path opacity="0.3" d="M4.21521 9.85828C4.21521 9.85828 4.72032 11.9036 2.63501 13.5773L2.82156 13.8255L5.56887 11.3887L5.65771 10.4121L4.21503 9.85845L4.21521 9.85828Z" fill="#232323"/>
</g>
<g opacity="0.3">
<path opacity="0.3" d="M34.2443 12.1979C34.2443 12.1979 32.5307 12.5872 30.3986 10.8114L30.2654 11.2998L32.6694 13.7888L33.7324 13.256L34.2443 12.1979Z" fill="#232323"/>
</g>
</svg>
