<svg width="37" height="45" viewBox="0 0 37 45" fill="none" xmlns="http://www.w3.org/2000/svg">
<path d="M18.0506 8.78815C15.7364 8.78815 13.854 6.90645 13.854 4.59372C13.854 2.28099 15.7366 0.399292 18.0506 0.399292C20.3645 0.399292 22.2473 2.28082 22.2473 4.59372C22.2473 6.90663 20.3647 8.78815 18.0506 8.78815ZM18.0506 1.01403C16.0758 1.01403 14.4689 2.61999 14.4689 4.59372C14.4689 6.56745 16.0756 8.17341 18.0506 8.17341C20.0255 8.17341 21.6322 6.56745 21.6322 4.59372C21.6322 2.61999 20.0255 1.01403 18.0506 1.01403Z" fill="white"/>
<path d="M18.0504 9.18795C15.516 9.18795 13.4541 7.12698 13.4541 4.59376C13.4541 2.06055 15.516 -0.000244141 18.0504 -0.000244141C20.5849 -0.000244141 22.6467 2.06073 22.6467 4.59376C22.6467 7.1268 20.5849 9.18795 18.0504 9.18795ZM18.0504 1.41365C16.2959 1.41365 14.8685 2.84016 14.8685 4.59359C14.8685 6.34701 16.2959 7.7737 18.0504 7.7737C19.8049 7.7737 21.2323 6.34719 21.2323 4.59359C21.2323 2.83999 19.8049 1.41365 18.0504 1.41365Z" fill="#232323"/>
<path d="M19.0976 4.26025H16.9811C16.6623 4.26025 16.4038 4.5187 16.4038 4.8375V5.74362C16.4038 6.06243 16.6623 6.32087 16.9811 6.32087H19.0976C19.4164 6.32087 19.6749 6.06243 19.6749 5.74362V4.8375C19.6749 4.5187 19.4164 4.26025 19.0976 4.26025Z" fill="#D23030"/>
<g opacity="0.6">
<path opacity="0.6" d="M17.1145 5.29181C17.1145 5.11449 17.2584 4.97058 17.4359 4.97058H19.6749V4.83733C19.6749 4.51859 19.4164 4.26025 19.0975 4.26025H16.9812C16.6623 4.26025 16.4038 4.51859 16.4038 4.83733V5.7438C16.4038 6.06254 16.6623 6.32087 16.9812 6.32087H17.1145V5.29181Z" fill="white"/>
</g>
<path d="M19.0975 6.80966H16.9809C16.3931 6.80966 15.915 6.33155 15.915 5.744V4.83788C15.915 4.25033 16.3931 3.77222 16.9809 3.77222H19.0975C19.6852 3.77222 20.1633 4.25033 20.1633 4.83788V5.744C20.1633 6.33155 19.6852 6.80966 19.0975 6.80966ZM16.9809 4.74904C16.932 4.74904 16.892 4.78884 16.892 4.83788V5.744C16.892 5.79303 16.9318 5.83283 16.9809 5.83283H19.0975C19.1463 5.83283 19.1863 5.79303 19.1863 5.744V4.83788C19.1863 4.78884 19.1465 4.74904 19.0975 4.74904H16.9809Z" fill="#232323"/>
<path d="M19.0993 6.3208H16.9385V9.85803H19.0993V6.3208Z" fill="#D23030"/>
<path d="M19.0996 10.3466H16.9388C16.6689 10.3466 16.4502 10.1279 16.4502 9.85816V6.32093C16.4502 6.05123 16.6689 5.83252 16.9388 5.83252H19.0996C19.3695 5.83252 19.5882 6.05123 19.5882 6.32093V9.85816C19.5882 10.1279 19.3695 10.3466 19.0996 10.3466ZM17.4272 9.36957H18.611V6.80935H17.4272V9.36957Z" fill="#232323"/>
<g opacity="0.3">
<path opacity="0.3" d="M19.0998 6.3208H16.939V9.85803H19.0998V6.3208Z" fill="#232323"/>
</g>
<path d="M30.2231 11.4248L32.5111 13.6789C32.7364 13.9008 33.0989 13.8982 33.3209 13.6731L34.4451 12.5333C34.6673 12.308 34.6647 11.9452 34.4392 11.7231L32.1512 9.46904C31.9259 9.24713 31.5634 9.24979 31.3413 9.4749L30.2172 10.6147C29.995 10.8399 29.9976 11.2027 30.2231 11.4248Z" fill="#D23030"/>
<g opacity="0.6">
<path opacity="0.6" d="M30.3923 11.5916L31.3413 10.6294C31.5634 10.4041 31.9262 10.4016 32.1514 10.6235L34.2702 12.7108L34.4453 12.5331C34.6674 12.3078 34.6649 11.9454 34.4395 11.7233L32.1514 9.46917C31.9262 9.24708 31.5634 9.24975 31.3413 9.47503L30.2172 10.6148C29.9951 10.8401 29.9976 11.2025 30.223 11.4246L30.3923 11.5914V11.5916Z" fill="white"/>
</g>
<path d="M32.9132 14.3933C32.6284 14.3933 32.3436 14.286 32.1252 14.071L29.8374 11.8169C29.6236 11.6064 29.5048 11.3253 29.5025 11.0252C29.5003 10.7253 29.6151 10.4423 29.8258 10.2287L30.9499 9.08879C31.3845 8.64817 32.0966 8.64319 32.5374 9.07742L34.8253 11.3315C35.039 11.5421 35.1579 11.8231 35.1602 12.1232C35.1623 12.4231 35.0475 12.7061 34.8368 12.9197L33.7127 14.0596C33.4935 14.2819 33.2033 14.3935 32.9132 14.3935V14.3933ZM31.7495 9.85436C31.7436 9.85436 31.7377 9.85667 31.7331 9.86112L30.609 11.0009C30.607 11.0028 30.6024 11.0076 30.6024 11.017C30.6024 11.0265 30.6072 11.0311 30.6092 11.0332L32.897 13.2873C32.9059 13.296 32.9205 13.296 32.9294 13.2869L34.0535 12.1472C34.0554 12.1452 34.0601 12.1404 34.0601 12.131C34.0601 12.1216 34.0553 12.117 34.0533 12.1149L31.7654 9.86076C31.761 9.8565 31.7551 9.85419 31.7495 9.85419V9.85436Z" fill="#232323"/>
<path d="M28.1256 14.3284L29.6646 15.8445L32.1475 13.324L30.6086 11.8079L28.1256 14.3284Z" fill="#D23030"/>
<path d="M29.666 16.3929C29.5266 16.3929 29.3873 16.3403 29.2801 16.2348L27.7412 14.7188C27.6372 14.6164 27.5782 14.4768 27.5772 14.3309C27.5761 14.185 27.6331 14.0447 27.7356 13.9407L30.22 11.4217C30.4334 11.2055 30.7813 11.203 30.9975 11.4162L32.5365 12.9323C32.6404 13.0346 32.6994 13.1743 32.7005 13.3201C32.7015 13.466 32.6445 13.6064 32.542 13.7103L30.0576 16.2293C29.9499 16.3384 29.808 16.3931 29.666 16.3931V16.3929ZM28.9051 14.3213L29.6603 15.0654L31.3724 13.3294L30.6171 12.5853L28.9051 14.3213Z" fill="#232323"/>
<g opacity="0.3">
<path opacity="0.3" d="M28.1256 14.3284L29.6646 15.8445L32.1475 13.324L30.6086 11.8079L28.1256 14.3284Z" fill="#232323"/>
</g>
<path d="M5.66673 11.5393L3.3787 13.7934C3.15342 14.0153 2.79097 14.0127 2.56888 13.7876L1.44477 12.6478C1.2225 12.4225 1.22517 12.0597 1.45063 11.8376L3.73866 9.58354C3.96395 9.36163 4.32639 9.36429 4.54848 9.5894L5.6726 10.7292C5.89486 10.9544 5.8922 11.3172 5.66673 11.5393Z" fill="#D23030"/>
<g opacity="0.6">
<path opacity="0.6" d="M2.51072 12.7364C2.28863 12.5111 2.29112 12.1486 2.51658 11.9265L4.71631 9.75932L4.54877 9.58947C4.32668 9.36418 3.96388 9.36169 3.73859 9.5836L1.45056 11.8377C1.2251 12.0598 1.22261 12.4222 1.4447 12.6475L2.56882 13.7873C2.7909 14.0126 3.1537 14.015 3.37899 13.7931L3.46729 13.7063L2.51072 12.7364Z" fill="white"/>
</g>
<path d="M2.97651 14.5077C2.68638 14.5077 2.39642 14.3963 2.177 14.1741L1.05288 13.0341C0.842165 12.8206 0.727389 12.5377 0.729521 12.2376C0.731653 11.9377 0.850514 11.6565 1.06425 11.4459L3.3521 9.19185C3.79273 8.75763 4.50501 8.76278 4.93959 9.20322L6.0637 10.3431C6.27442 10.5567 6.38919 10.8396 6.38706 11.1396C6.38493 11.4396 6.26607 11.7208 6.05233 11.9313L3.7643 14.1854C3.54594 14.4004 3.26114 14.5077 2.97633 14.5077H2.97651ZM4.14025 9.9688C4.13438 9.9688 4.1287 9.97093 4.12426 9.97537L1.8364 12.2295C1.83445 12.2314 1.82965 12.2362 1.82965 12.2456C1.82965 12.2551 1.83427 12.2599 1.83623 12.2618L2.96034 13.4017C2.96923 13.4108 2.9838 13.4108 2.99268 13.4019L5.28071 11.1478C5.28284 11.1459 5.28746 11.1412 5.28764 11.1316C5.28764 11.1222 5.28302 11.1174 5.28107 11.1155L4.15695 9.97573C4.15251 9.97129 4.14664 9.96898 4.14078 9.96898L4.14025 9.9688Z" fill="#232323"/>
<path d="M5.27872 11.923L3.73975 13.4391L6.22273 15.9596L7.7617 14.4436L5.27872 11.923Z" fill="#D23030"/>
<path d="M6.2234 16.5073C6.08144 16.5073 5.93948 16.4526 5.83181 16.3435L3.34746 13.8243C3.24494 13.7204 3.18809 13.5801 3.18898 13.4342C3.19004 13.2883 3.24903 13.1487 3.35296 13.0463L4.89194 11.5303C5.10816 11.3173 5.45622 11.3196 5.66942 11.536L8.15378 14.055C8.25629 14.1589 8.31315 14.2993 8.31226 14.4451C8.31119 14.591 8.25221 14.7305 8.14827 14.833L6.6093 16.349C6.50216 16.4546 6.36269 16.5072 6.2234 16.5072V16.5073ZM4.51706 13.4438L6.22908 15.1798L6.98436 14.4357L5.27233 12.6997L4.51706 13.4438Z" fill="#232323"/>
<g opacity="0.3">
<path opacity="0.3" d="M5.27872 11.9232L3.73975 13.4392L6.22273 15.9597L7.7617 14.4437L5.27872 11.9232Z" fill="#232323"/>
</g>
<path d="M18.0508 44.05C27.716 44.05 35.5512 36.2189 35.5512 26.5587C35.5512 16.8986 27.716 9.0675 18.0508 9.0675C8.38552 9.0675 0.550293 16.8986 0.550293 26.5587C0.550293 36.2189 8.38552 44.05 18.0508 44.05Z" fill="#D23030"/>
<g opacity="0.3">
<path opacity="0.3" d="M2.32568 34.2399C2.35713 34.3042 2.38876 34.3683 2.42091 34.4321C2.38876 34.3683 2.35713 34.304 2.32568 34.2399Z" fill="#232323"/>
</g>
<g opacity="0.3">
<path opacity="0.3" d="M2.16895 33.9128C2.19897 33.9777 2.22971 34.042 2.26045 34.1065C2.22953 34.0422 2.19897 33.9777 2.16895 33.9128Z" fill="#232323"/>
</g>
<g opacity="0.3">
<path opacity="0.3" d="M2.7373 35.0295C2.77195 35.0919 2.80731 35.1537 2.84249 35.2156C2.80713 35.1537 2.77177 35.0919 2.7373 35.0295Z" fill="#232323"/>
</g>
<g opacity="0.3">
<path opacity="0.3" d="M2.48389 34.5551C2.54589 34.6753 2.60915 34.7949 2.67382 34.9136C2.60915 34.7949 2.54589 34.6753 2.48389 34.5551Z" fill="#232323"/>
</g>
<g opacity="0.3">
<path opacity="0.3" d="M2.9165 35.3442C2.95204 35.4054 2.98793 35.4661 3.02417 35.5269C2.98793 35.4663 2.95204 35.4054 2.9165 35.3442Z" fill="#232323"/>
</g>
<g opacity="0.3">
<path opacity="0.3" d="M5.62891 38.8772C5.67297 38.9214 5.71685 38.9657 5.76127 39.0096C5.71685 38.9657 5.67279 38.9214 5.62891 38.8772Z" fill="#232323"/>
</g>
<g opacity="0.3">
<path opacity="0.3" d="M17.5332 44.0414C17.5735 44.0426 17.6139 44.0439 17.6544 44.0448C17.6139 44.0439 17.5737 44.0424 17.5332 44.0414Z" fill="#232323"/>
</g>
<g opacity="0.3">
<path opacity="0.3" d="M16.7275 44.0002C16.7595 44.0026 16.7917 44.0045 16.8237 44.0066C16.7917 44.0045 16.7595 44.0026 16.7275 44.0002Z" fill="#232323"/>
</g>
<g opacity="0.3">
<path opacity="0.3" d="M16.25 43.9576C16.2798 43.9607 16.3097 43.9642 16.3397 43.9671C16.3097 43.9642 16.2798 43.9607 16.25 43.9576Z" fill="#232323"/>
</g>
<g opacity="0.3">
<path opacity="0.3" d="M15.8228 43.9086C15.8656 43.9141 15.9084 43.9194 15.9514 43.9246C15.9084 43.9194 15.8656 43.9141 15.8228 43.9086Z" fill="#232323"/>
</g>
<g opacity="0.3">
<path opacity="0.3" d="M5.50603 38.7524C5.46179 38.7069 5.41773 38.6614 5.37402 38.6156C5.41773 38.6614 5.46179 38.7069 5.50603 38.7524Z" fill="#232323"/>
</g>
<g opacity="0.3">
<path opacity="0.3" d="M3.10107 35.6534C3.13821 35.7142 3.17516 35.775 3.21283 35.8352C3.17499 35.775 3.13821 35.7142 3.10107 35.6534Z" fill="#232323"/>
</g>
<g opacity="0.3">
<path opacity="0.3" d="M17.1221 44.0249C17.1656 44.0272 17.2091 44.0292 17.2525 44.0311C17.209 44.0292 17.1654 44.0272 17.1221 44.0249Z" fill="#232323"/>
</g>
<g opacity="0.3">
<path opacity="0.3" d="M35.3726 24.9226C35.3745 24.9153 35.3765 24.9082 35.3784 24.9009C35.3765 24.9082 35.3745 24.9153 35.3726 24.9226Z" fill="#232323"/>
</g>
<g opacity="0.3">
<path opacity="0.3" d="M35.291 25.202C35.2932 25.1951 35.2951 25.1881 35.2973 25.1812C35.2951 25.1881 35.2932 25.1951 35.291 25.202Z" fill="#232323"/>
</g>
<g opacity="0.3">
<path opacity="0.3" d="M3.26514 35.9169C3.34153 36.0372 3.41935 36.1564 3.49859 36.2747C3.41935 36.1564 3.34153 36.0372 3.26514 35.9169Z" fill="#232323"/>
</g>
<g opacity="0.3">
<path opacity="0.3" d="M5.0542 38.2701C5.11994 38.3428 5.18603 38.4149 5.25283 38.4865C5.18603 38.4149 5.11976 38.3428 5.0542 38.2701Z" fill="#232323"/>
</g>
<g opacity="0.3">
<path opacity="0.3" d="M2.07262 33.0243C4.92368 38.8186 10.8875 42.8066 17.7843 42.8066C27.3911 42.8066 35.1885 35.0698 35.2826 25.4904C34.1996 28.4365 31.493 31.75 25.3427 34.3428C13.428 39.3655 4.3642 33.1392 0.755371 27.2646C0.877075 29.4833 1.41346 31.5914 2.28671 33.5141C2.21315 33.3521 2.14137 33.189 2.07262 33.0243Z" fill="#232323"/>
</g>
<g opacity="0.3">
<path opacity="0.3" d="M4.78418 37.964C4.82647 38.0132 4.86875 38.0624 4.91157 38.1111C4.86875 38.0624 4.82647 38.0132 4.78418 37.964Z" fill="#232323"/>
</g>
<g opacity="0.3">
<path opacity="0.3" d="M15.4321 43.8547C15.4723 43.8608 15.5126 43.8663 15.5529 43.8721C15.5126 43.8665 15.4723 43.8608 15.4321 43.8547Z" fill="#232323"/>
</g>
<g opacity="0.3">
<path opacity="0.3" d="M35.2017 25.4809C35.2032 25.4766 35.2047 25.4722 35.206 25.4679C35.2045 25.4722 35.2032 25.4766 35.2017 25.4809Z" fill="#232323"/>
</g>
<g opacity="0.3">
<path opacity="0.3" d="M3.58252 36.4C3.62143 36.4571 3.66087 36.5139 3.70049 36.5704C3.66087 36.5137 3.62143 36.4571 3.58252 36.4Z" fill="#232323"/>
</g>
<g opacity="0.3">
<path opacity="0.3" d="M3.79004 36.6968C3.83001 36.7527 3.86981 36.8085 3.91032 36.864C3.86981 36.8085 3.82984 36.7526 3.79004 36.6968Z" fill="#232323"/>
</g>
<g opacity="0.3">
<path opacity="0.3" d="M4.54883 37.6852C4.59111 37.7362 4.6334 37.7872 4.67622 37.8376C4.63358 37.787 4.59111 37.7362 4.54883 37.6852Z" fill="#232323"/>
</g>
<g opacity="0.3">
<path opacity="0.3" d="M4.32031 37.4034C4.36171 37.4559 4.40382 37.5076 4.44593 37.5594C4.40382 37.5076 4.36189 37.4559 4.32031 37.4034Z" fill="#232323"/>
</g>
<g opacity="0.3">
<path opacity="0.3" d="M4.00244 36.9884C4.07458 37.0852 4.1476 37.1812 4.22151 37.2764C4.14742 37.1812 4.0744 37.0852 4.00244 36.9884Z" fill="#232323"/>
</g>
<g opacity="0.3">
<path opacity="0.3" d="M6.81738 39.9696C6.86109 40.0062 6.90462 40.043 6.94886 40.0792C6.9048 40.043 6.86109 40.0062 6.81738 39.9696Z" fill="#232323"/>
</g>
<g opacity="0.3">
<path opacity="0.3" d="M8.82959 41.4265C8.87454 41.4544 8.91985 41.4821 8.96497 41.5097C8.91967 41.4821 8.87454 41.4544 8.82959 41.4265Z" fill="#232323"/>
</g>
<g opacity="0.3">
<path opacity="0.3" d="M8.51709 41.2281C8.55902 41.2553 8.60131 41.282 8.64341 41.309C8.60131 41.2822 8.55902 41.2555 8.51709 41.2281Z" fill="#232323"/>
</g>
<g opacity="0.3">
<path opacity="0.3" d="M8.11914 40.9606C8.15663 40.9865 8.19394 41.0128 8.2316 41.0384C8.19394 41.0128 8.15663 40.9865 8.11914 40.9606Z" fill="#232323"/>
</g>
<g opacity="0.3">
<path opacity="0.3" d="M7.79688 40.733C7.84165 40.7655 7.8866 40.7981 7.93173 40.83C7.8866 40.7981 7.84165 40.7655 7.79688 40.733Z" fill="#232323"/>
</g>
<g opacity="0.3">
<path opacity="0.3" d="M9.15576 41.6241C9.19787 41.649 9.2398 41.6741 9.28226 41.6988C9.23998 41.6742 9.19787 41.6492 9.15576 41.6241Z" fill="#232323"/>
</g>
<g opacity="0.3">
<path opacity="0.3" d="M9.5874 41.8716C9.61778 41.8885 9.64852 41.9046 9.67908 41.9212C9.64852 41.9045 9.61778 41.8883 9.5874 41.8716Z" fill="#232323"/>
</g>
<g opacity="0.3">
<path opacity="0.3" d="M15.0513 43.7937C15.0605 43.7953 15.0698 43.7967 15.0791 43.7982C15.0698 43.7966 15.0605 43.7953 15.0513 43.7937Z" fill="#232323"/>
</g>
<g opacity="0.3">
<path opacity="0.3" d="M9.91309 42.0471C9.95644 42.0699 10.0001 42.0922 10.0437 42.1148C10.0001 42.0924 9.95644 42.07 9.91309 42.0471Z" fill="#232323"/>
</g>
<g opacity="0.3">
<path opacity="0.3" d="M5.89795 39.1429C5.96049 39.2032 6.02321 39.2632 6.08663 39.3226C6.02321 39.2632 5.96049 39.2034 5.89795 39.1429Z" fill="#232323"/>
</g>
<g opacity="0.3">
<path opacity="0.3" d="M7.49902 40.5127C7.54362 40.5465 7.58857 40.5799 7.6337 40.6133C7.58875 40.5799 7.5438 40.5465 7.49902 40.5127Z" fill="#232323"/>
</g>
<g opacity="0.3">
<path opacity="0.3" d="M7.18506 40.2698C7.23161 40.3067 7.27869 40.343 7.3256 40.3796C7.27869 40.3432 7.23161 40.3067 7.18506 40.2698Z" fill="#232323"/>
</g>
<g opacity="0.3">
<path opacity="0.3" d="M6.53418 39.7274C6.57931 39.7669 6.62461 39.8061 6.6701 39.845C6.62461 39.8061 6.57931 39.7669 6.53418 39.7274Z" fill="#232323"/>
</g>
<g opacity="0.3">
<path opacity="0.3" d="M6.26172 39.4846C6.30525 39.5244 6.34949 39.5635 6.39337 39.6028C6.34931 39.5635 6.30525 39.5242 6.26172 39.4846Z" fill="#232323"/>
</g>
<g opacity="0.3">
<path opacity="0.3" d="M13.3428 43.4086C13.3726 43.4169 13.4023 43.4256 13.4321 43.4338C13.4023 43.4256 13.3726 43.4169 13.3428 43.4086Z" fill="#232323"/>
</g>
<g opacity="0.3">
<path opacity="0.3" d="M12.939 43.291C12.9818 43.304 13.0246 43.3171 13.0676 43.3297C13.0246 43.317 12.9818 43.304 12.939 43.291Z" fill="#232323"/>
</g>
<g opacity="0.3">
<path opacity="0.3" d="M13.7939 43.5283C13.8279 43.5368 13.8622 43.5447 13.8963 43.553C13.8622 43.5447 13.8279 43.5368 13.7939 43.5283Z" fill="#232323"/>
</g>
<g opacity="0.3">
<path opacity="0.3" d="M14.168 43.6171C14.2108 43.6267 14.2536 43.6363 14.2964 43.6455C14.2536 43.6361 14.2108 43.6267 14.168 43.6171Z" fill="#232323"/>
</g>
<g opacity="0.3">
<path opacity="0.3" d="M12.5723 43.1747C12.6138 43.1884 12.6556 43.2017 12.6973 43.215C12.6556 43.2017 12.6138 43.1884 12.5723 43.1747Z" fill="#232323"/>
</g>
<g opacity="0.3">
<path opacity="0.3" d="M14.5591 43.7004C14.5982 43.7084 14.6373 43.7164 14.6765 43.7242C14.6373 43.7166 14.5982 43.7084 14.5591 43.7004Z" fill="#232323"/>
</g>
<g opacity="0.3">
<path opacity="0.3" d="M11.7524 42.8816C11.7922 42.8969 11.832 42.9125 11.872 42.9276C11.832 42.9125 11.7924 42.8969 11.7524 42.8816Z" fill="#232323"/>
</g>
<g opacity="0.3">
<path opacity="0.3" d="M11.043 42.5905C11.081 42.6072 11.1194 42.6231 11.1576 42.6395C11.1194 42.6231 11.081 42.607 11.043 42.5905Z" fill="#232323"/>
</g>
<g opacity="0.3">
<path opacity="0.3" d="M10.6172 42.397C10.6499 42.4123 10.6822 42.4281 10.7149 42.4432C10.6822 42.4281 10.6499 42.4123 10.6172 42.397Z" fill="#232323"/>
</g>
<g opacity="0.3">
<path opacity="0.3" d="M11.3892 42.7372C11.4327 42.7551 11.4764 42.7729 11.5201 42.7905C11.4764 42.7729 11.4327 42.7551 11.3892 42.7372Z" fill="#232323"/>
</g>
<g opacity="0.3">
<path opacity="0.3" d="M10.249 42.2189C10.2926 42.2405 10.3361 42.2624 10.38 42.2837C10.3363 42.2624 10.2927 42.2405 10.249 42.2189Z" fill="#232323"/>
</g>
<g opacity="0.3">
<path opacity="0.3" d="M12.2158 43.0538C12.2356 43.0608 12.2554 43.0674 12.2752 43.0742C12.2554 43.0672 12.2354 43.0608 12.2158 43.0538Z" fill="#232323"/>
</g>
<g opacity="0.45">
<path opacity="0.45" d="M8.35786 12.3915C8.35786 12.3915 5.73421 13.5055 3.87579 16.2983C2.01736 19.0911 4.30966 19.7981 8.0688 16.2983C11.8279 12.7986 10.0793 11.4835 8.35786 12.3915Z" fill="white"/>
</g>
<g opacity="0.45">
<path opacity="0.45" d="M3.96656 21.1659C4.16845 20.4678 3.95929 19.794 3.49939 19.661C3.03949 19.528 2.503 19.9861 2.30111 20.6842C2.09921 21.3823 2.30837 22.0561 2.76827 22.1891C3.22817 22.3221 3.76466 21.864 3.96656 21.1659Z" fill="white"/>
</g>
<path d="M18.0505 44.5999C8.09748 44.5999 0 36.5067 0 26.5586C0 16.6105 8.09748 8.51733 18.0505 8.51733C28.0036 8.51733 36.1011 16.6105 36.1011 26.5586C36.1011 36.5067 28.0036 44.5999 18.0505 44.5999ZM18.0505 9.61747C8.70404 9.61747 1.10013 17.2173 1.10013 26.5588C1.10013 35.9003 8.70404 43.5002 18.0505 43.5002C27.397 43.5002 35.0009 35.9003 35.0009 26.5588C35.0009 17.2173 27.397 9.61747 18.0505 9.61747Z" fill="#232323"/>
<g opacity="0.6">
<path opacity="0.6" d="M7.07608 15.5257C0.783367 21.6018 1.42262 30.0109 7.45042 36.2468C13.4782 42.4828 21.8108 43.0217 28.1033 36.9455C34.396 30.8694 35.6672 22.2652 30.1687 16.3534C27.0701 13.0221 22.5095 12.127 18.0506 12.1064C14.0095 12.0876 10.0677 12.6368 7.07608 15.5255V15.5257ZM28.6983 35.5464C23.6214 41.59 14.6455 42.4108 8.65005 37.3798C2.65458 32.3487 1.90979 23.3709 6.98671 17.3272C12.0636 11.2836 21.0395 10.4628 27.035 15.4939C33.0304 20.5249 33.7752 29.5028 28.6985 35.5464H28.6983Z" fill="white"/>
</g>
<path d="M18.0505 41.0108C26.0363 41.0108 32.5101 34.5405 32.5101 26.5588C32.5101 18.5772 26.0363 12.1068 18.0505 12.1068C10.0646 12.1068 3.59082 18.5772 3.59082 26.5588C3.59082 34.5405 10.0646 41.0108 18.0505 41.0108Z" fill="#D23030"/>
<path d="M18.0506 41.4991C9.80815 41.4991 3.10254 34.7969 3.10254 26.5587C3.10254 18.3205 9.80833 11.6183 18.0506 11.6183C26.2929 11.6183 32.9987 18.3205 32.9987 26.5587C32.9987 34.7969 26.2929 41.4991 18.0506 41.4991ZM18.0506 12.5951C10.3468 12.5951 4.07937 18.8592 4.07937 26.5587C4.07937 34.2582 10.3468 40.5223 18.0506 40.5223C25.7544 40.5223 32.0218 34.2582 32.0218 26.5587C32.0218 18.8592 25.7544 12.5951 18.0506 12.5951Z" fill="#232323"/>
<path d="M18.0506 38.8119C24.8214 38.8119 30.3102 33.326 30.3102 26.5587C30.3102 19.7915 24.8214 14.3055 18.0506 14.3055C11.2798 14.3055 5.79102 19.7915 5.79102 26.5587C5.79102 33.326 11.2798 38.8119 18.0506 38.8119Z" fill="white"/>
<path d="M18.0506 38.856C11.2661 38.856 5.74658 33.3394 5.74658 26.5585C5.74658 19.7775 11.2661 14.2609 18.0506 14.2609C24.8351 14.2609 30.3546 19.7775 30.3546 26.5585C30.3546 33.3394 24.8351 38.856 18.0506 38.856ZM18.0506 14.3497C11.3151 14.3497 5.83542 19.8265 5.83542 26.5585C5.83542 33.2904 11.3151 38.7672 18.0506 38.7672C24.786 38.7672 30.2657 33.2904 30.2657 26.5585C30.2657 19.8265 24.786 14.3497 18.0506 14.3497Z" fill="#232323"/>
<path d="M18.0506 38.8119C24.8214 38.8119 30.3102 33.326 30.3102 26.5587C30.3102 19.7915 24.8214 14.3055 18.0506 14.3055C11.2798 14.3055 5.79102 19.7915 5.79102 26.5587C5.79102 33.326 11.2798 38.8119 18.0506 38.8119Z" fill="white"/>
<path d="M18.0506 38.856C11.2661 38.856 5.74658 33.3394 5.74658 26.5585C5.74658 19.7775 11.2661 14.2609 18.0506 14.2609C24.8351 14.2609 30.3546 19.7775 30.3546 26.5585C30.3546 33.3394 24.8351 38.856 18.0506 38.856ZM18.0506 14.3497C11.3151 14.3497 5.83542 19.8265 5.83542 26.5585C5.83542 33.2904 11.3151 38.7672 18.0506 38.7672C24.786 38.7672 30.2657 33.2904 30.2657 26.5585C30.2657 19.8265 24.786 14.3497 18.0506 14.3497Z" fill="#232323"/>
<g opacity="0.3">
<path opacity="0.3" d="M18.0505 13.8253C11.0145 13.8253 5.31055 19.5262 5.31055 26.5586C5.31055 33.5909 11.0145 39.2918 18.0505 39.2918C25.0866 39.2918 30.7905 33.5909 30.7905 26.5586C30.7905 19.5262 25.0866 13.8253 18.0505 13.8253ZM18.0505 38.2414C11.8506 38.2414 6.82429 32.7553 6.82429 26.5586C6.82429 20.3618 11.8504 14.767 18.0505 14.767C24.2507 14.767 29.2768 20.3618 29.2768 26.5586C29.2768 32.7553 24.2507 38.2414 18.0505 38.2414Z" fill="#232323"/>
</g>
<g opacity="0.3">
<path opacity="0.3" d="M18.0506 12.1067C10.5652 12.1067 4.49707 19.0772 4.49707 26.5585C4.49707 34.0398 10.5652 41.0105 18.0506 41.0105C25.536 41.0105 31.6041 34.04 31.6041 26.5585C31.6041 19.077 25.536 12.1067 18.0506 12.1067ZM18.0506 39.2919C11.0145 39.2919 5.31062 33.5911 5.31062 26.5587C5.31062 19.5264 11.0145 13.8255 18.0506 13.8255C25.0867 13.8255 30.7906 19.5264 30.7906 26.5587C30.7906 33.5911 25.0867 39.2919 18.0506 39.2919Z" fill="#232323"/>
</g>
<path d="M18.0503 39.6737C10.8151 39.6737 4.92871 33.7904 4.92871 26.5588C4.92871 19.3273 10.8151 13.444 18.0503 13.444C25.2856 13.444 31.172 19.3273 31.172 26.5588C31.172 33.7904 25.2856 39.6737 18.0503 39.6737ZM18.0503 14.2431C11.2557 14.2431 5.72805 19.7679 5.72805 26.5587C5.72805 33.3494 11.2557 38.8742 18.0503 38.8742C24.845 38.8742 30.3726 33.3494 30.3726 26.5587C30.3726 19.7679 24.845 14.2431 18.0503 14.2431Z" fill="#232323"/>
<path d="M18.0507 28.1795C18.9464 28.1795 19.6726 27.4537 19.6726 26.5584C19.6726 25.6632 18.9464 24.9374 18.0507 24.9374C17.1549 24.9374 16.4287 25.6632 16.4287 26.5584C16.4287 27.4537 17.1549 28.1795 18.0507 28.1795Z" fill="#C9CCD2"/>
<path d="M18.0506 28.2231C17.6239 28.2231 17.1973 28.0608 16.8723 27.7362C16.5577 27.4215 16.3843 27.0033 16.3843 26.5586C16.3843 26.1138 16.5577 25.6954 16.8723 25.381C17.5221 24.7316 18.579 24.7316 19.229 25.381C19.5436 25.6954 19.717 26.1138 19.717 26.5586C19.717 27.0033 19.5436 27.4217 19.229 27.7362C18.904 28.0609 18.4774 28.2231 18.0506 28.2231ZM18.0506 24.9824C17.6466 24.9824 17.2428 25.1361 16.9352 25.4435C16.6373 25.7413 16.4731 26.1373 16.4731 26.5584C16.4731 26.9795 16.6373 27.3755 16.9352 27.6733C17.5503 28.288 18.5511 28.288 19.1662 27.6733C19.4642 27.3755 19.6284 26.9795 19.6284 26.5584C19.6284 26.1373 19.4642 25.7413 19.1662 25.4435C18.8587 25.1361 18.4548 24.9824 18.0508 24.9824H18.0506Z" fill="#232323"/>
<path d="M18.0505 28.5455C17.5413 28.5455 17.0321 28.3517 16.6444 27.9643C16.2688 27.5889 16.062 27.0897 16.062 26.5588C16.062 26.0279 16.2688 25.5287 16.6444 25.1533C17.4198 24.3784 18.6812 24.3784 19.4566 25.1533C19.8322 25.5287 20.039 26.0279 20.039 26.5588C20.039 27.0897 19.8322 27.5889 19.4566 27.9643C19.0689 28.3518 18.5597 28.5455 18.0505 28.5455ZM18.0505 25.3048C17.7289 25.3048 17.4075 25.427 17.1629 25.6717C16.9258 25.9085 16.7953 26.2235 16.7953 26.5586C16.7953 26.8937 16.9257 27.2085 17.1629 27.4456C17.6523 27.9349 18.4486 27.9349 18.9381 27.4456C19.1751 27.2085 19.3057 26.8937 19.3057 26.5586C19.3057 26.2235 19.1753 25.9087 18.9381 25.6717C18.6935 25.427 18.3719 25.3048 18.0505 25.3048Z" fill="#232323"/>
<path d="M13.7028 21.46L16.1061 23.8579L17.3134 25.0513L18.5123 26.253H17.7456L23.6841 20.3317C23.8921 20.1241 24.2292 20.1245 24.4367 20.3326C24.6442 20.5406 24.6447 20.8764 24.4367 21.0839L18.5121 27.0193C18.3009 27.2309 17.9581 27.2313 17.7464 27.0202L17.7455 27.0193L16.5432 25.8211L15.3492 24.6146L12.95 22.2125C12.7423 22.0046 12.7426 21.6677 12.9507 21.4602C13.1587 21.2527 13.4951 21.2524 13.7026 21.4602L13.7028 21.46Z" fill="#232323"/>
<path d="M25.165 19.8146C25.0711 19.8146 24.9772 19.7788 24.9057 19.7071C24.7625 19.5639 24.7625 19.3317 24.9057 19.1885L26.7873 17.3079C26.9305 17.1647 27.1627 17.1649 27.3057 17.3079C27.4489 17.4511 27.4489 17.6833 27.3057 17.8265L25.4242 19.7071C25.3526 19.7788 25.2588 19.8145 25.165 19.8145V19.8146Z" fill="#232323"/>
<path d="M27.723 24.1586C27.5634 24.1586 27.4167 24.0536 27.3707 23.8926C27.315 23.6979 27.4275 23.495 27.6224 23.4392L30.1807 22.7074C30.3751 22.6516 30.5783 22.7644 30.6339 22.9591C30.6895 23.1539 30.5771 23.3568 30.3822 23.4125L27.8239 24.1444C27.7903 24.154 27.7564 24.1586 27.723 24.1586Z" fill="#232323"/>
<path d="M30.3939 30.007C30.3644 30.007 30.3346 30.0035 30.3049 29.996L27.7232 29.3514C27.5268 29.3024 27.4073 29.1034 27.4563 28.9069C27.5053 28.7104 27.7042 28.591 27.9008 28.64L30.4826 29.2846C30.6789 29.3337 30.7985 29.5326 30.7494 29.7292C30.7078 29.8958 30.5582 30.007 30.3939 30.007Z" fill="#232323"/>
<path d="M27.0465 35.9162C26.9527 35.9162 26.8589 35.8805 26.7873 35.8089L24.9057 33.9283C24.7625 33.7851 24.7625 33.5528 24.9057 33.4096C25.0489 33.2664 25.281 33.2664 25.4242 33.4096L27.3057 35.2903C27.4489 35.4335 27.4489 35.6657 27.3057 35.8089C27.2341 35.8805 27.1403 35.9164 27.0465 35.9164V35.9162Z" fill="#232323"/>
<path d="M21.2545 39.2309C21.0916 39.2309 20.9428 39.1216 20.8999 38.9565L20.2297 36.3826C20.1787 36.1867 20.2961 35.9864 20.4921 35.9354C20.6877 35.8843 20.8883 36.0019 20.9393 36.1979L21.6095 38.7718C21.6605 38.9677 21.543 39.168 21.3471 39.2189C21.3161 39.2269 21.285 39.2309 21.2545 39.2309Z" fill="#232323"/>
<path d="M14.6427 39.1762C14.6102 39.1762 14.5772 39.172 14.5443 39.1627C14.3492 39.1086 14.2352 38.9064 14.2894 38.7113L15.0022 36.1489C15.0564 35.9538 15.2589 35.8398 15.4536 35.894C15.6487 35.9482 15.7628 36.1504 15.7086 36.3454L14.9958 38.9078C14.9506 39.07 14.8034 39.1762 14.6427 39.1762Z" fill="#232323"/>
<path d="M9.05461 35.9163C8.9608 35.9163 8.86681 35.8804 8.79539 35.8088C8.65219 35.6656 8.65219 35.4333 8.79539 35.2901L10.6769 33.4095C10.8201 33.2665 11.0523 33.2665 11.1954 33.4095C11.3386 33.5527 11.3386 33.7849 11.1954 33.9281L9.31383 35.8088C9.24223 35.8804 9.14842 35.9161 9.05461 35.9161V35.9163Z" fill="#232323"/>
<path d="M5.67303 29.8652C5.50709 29.8652 5.3566 29.7516 5.31663 29.5832C5.2699 29.3862 5.3916 29.1886 5.58864 29.1417L8.17747 28.5268C8.3745 28.4799 8.57225 28.6017 8.61898 28.7988C8.6657 28.9958 8.544 29.1934 8.34696 29.2403L5.75814 29.8552C5.72953 29.862 5.7011 29.8652 5.67303 29.8652Z" fill="#232323"/>
<path d="M8.35771 24.2298C8.32519 24.2298 8.29215 24.2255 8.25928 24.2163L5.69568 23.5033C5.5006 23.4491 5.38654 23.2469 5.44072 23.0518C5.49491 22.8567 5.69746 22.7425 5.89218 22.7969L8.45578 23.5099C8.65086 23.564 8.76493 23.7662 8.71074 23.9613C8.66561 24.1235 8.51832 24.2298 8.35771 24.2298Z" fill="#232323"/>
<path d="M10.9366 19.8145C10.8428 19.8145 10.749 19.7788 10.6774 19.7072L8.79588 17.8266C8.65268 17.6834 8.65268 17.4512 8.79588 17.308C8.93908 17.1648 9.17112 17.1648 9.31432 17.308L11.1958 19.1886C11.339 19.3318 11.339 19.564 11.1958 19.7072C11.1242 19.7788 11.0304 19.8147 10.9366 19.8147V19.8145Z" fill="#232323"/>
<path d="M15.3627 17.2352C15.2021 17.2352 15.0546 17.1287 15.0095 16.9663L14.2986 14.4035C14.2444 14.2084 14.3588 14.0062 14.5539 13.9522C14.7495 13.898 14.9512 14.0124 15.0054 14.2075L15.7162 16.7704C15.7704 16.9655 15.656 17.1676 15.4609 17.2217C15.4281 17.2307 15.395 17.2352 15.3627 17.2352Z" fill="#232323"/>
<path d="M20.5354 17.1814C20.5054 17.1814 20.475 17.1777 20.4446 17.17C20.2484 17.1199 20.1299 16.9204 20.1799 16.7241L20.8371 14.1468C20.8872 13.9507 21.087 13.832 21.2828 13.8821C21.4792 13.9322 21.5975 14.1317 21.5476 14.328L20.8904 16.9053C20.8481 17.0711 20.699 17.1814 20.5354 17.1814Z" fill="#232323"/>
<g opacity="0.45">
<path opacity="0.45" d="M12.6165 15.582C11.8543 15.9599 11.134 16.4098 10.4717 16.9314L28.9584 32.1499C29.3418 31.4044 29.6502 30.6143 29.8759 29.7903L12.6165 15.5822V15.582Z" fill="white"/>
</g>
<g opacity="0.45">
<path opacity="0.45" d="M23.1341 37.7083C24.1397 37.2492 25.0736 36.6602 25.9115 35.9597L8.2374 19.2137C7.67863 19.9584 7.20372 20.7694 6.82422 21.6317L23.134 37.7083H23.1341Z" fill="white"/>
</g>
<g opacity="0.3">
<path opacity="0.3" d="M19.0996 4.59375C19.0996 4.59375 18.6721 6.01689 16.54 5.83922L16.8065 6.10554H19.4341V4.97059L19.0996 4.59375Z" fill="#232323"/>
</g>
<g opacity="0.3">
<path opacity="0.3" d="M4.21545 9.85828C4.21545 9.85828 4.72056 11.9036 2.63525 13.5773L2.82181 13.8255L5.56912 11.3887L5.65795 10.4121L4.21527 9.85845L4.21545 9.85828Z" fill="#232323"/>
</g>
<g opacity="0.3">
<path opacity="0.3" d="M34.2445 12.1979C34.2445 12.1979 32.5309 12.5872 30.3989 10.8114L30.2656 11.2998L32.6697 13.7888L33.7327 13.256L34.2445 12.1979Z" fill="#232323"/>
</g>
</svg>
