<svg width="58" height="58" viewBox="0 0 58 58" fill="none" xmlns="http://www.w3.org/2000/svg">
<path d="M52.0395 34.1961C55.0498 21.331 47.061 8.46133 34.1959 5.45095C21.3308 2.44057 8.46115 10.4294 5.45077 23.2945C2.44039 36.1596 10.4292 49.0293 23.2943 52.0396C36.1595 55.05 49.0291 47.0612 52.0395 34.1961Z" fill="#5470D3"/>
<mask id="mask0_2_4522" style="mask-type:alpha" maskUnits="userSpaceOnUse" x="4" y="4" width="49" height="49">
<path d="M52.0395 34.1961C55.0498 21.331 47.061 8.46133 34.1959 5.45095C21.3308 2.44057 8.46115 10.4294 5.45077 23.2945C2.44039 36.1596 10.4292 49.0293 23.2943 52.0396C36.1595 55.05 49.0291 47.0612 52.0395 34.1961Z" fill="#5470D3"/>
</mask>
<g mask="url(#mask0_2_4522)">
<path d="M30.7636 39.9723C37.3663 43.3319 38.4518 43.2021 41.2853 44.7271C44.1222 46.252 43.2765 62.291 43.0967 64.7649C42.9169 67.2389 42.2343 77.0647 42.6105 79.7284C42.9868 82.3921 44.4552 92.2812 45.1045 93.8028C45.7537 95.3245 46.9957 97.8917 45.0778 99.4133C43.1599 100.935 39.1011 101.98 30.2941 101.411C21.4839 100.842 11.9877 95.4177 11.5682 94.6586C11.1486 93.8961 15.7802 79.9182 15.9733 77.2545C16.1664 74.5907 16.6925 72.5929 16.9722 71.3576C17.2519 70.1223 14.4483 64.3187 14.0021 60.6095C13.556 56.9003 9.52375 46.6682 10.2896 44.7936C11.0521 42.919 18.071 40.8314 22.8524 38.4473C27.6304 36.0633 30.767 39.9723 30.767 39.9723H30.7636Z" fill="white"/>
<path d="M37.3132 44.1309C36.2244 47.7036 34.0136 50.9234 31.0668 53.2208C27.4908 52.3451 23.8548 50.7669 20.928 48.536C24.2011 50.9467 27.7705 52.9744 31.5896 54.3596C34.816 51.7158 36.7306 48.263 37.3132 44.1309Z" fill="#DCEDFF"/>
<path d="M35.9642 42.4297C34.6956 41.8903 33.0674 41.1411 30.7666 39.9724C30.7666 39.9724 27.6334 36.0667 22.8521 38.4474C21.1939 39.2732 19.266 40.0656 17.4247 40.8248C20.2716 45.6694 24.8865 49.4586 30.2106 51.2599C33.0175 49.049 35.0386 45.8792 35.9642 42.4297Z" fill="#FFC5C7"/>
<path d="M23.6019 31.6914C23.5353 35.6604 23.2722 38.3873 22.3932 39.1465C22.3932 39.1465 23.9049 45.7326 29.9448 45.1699C31.9893 44.9801 31.7928 41.5572 30.7673 39.9723L31.3766 35.1043L23.6052 31.6914H23.6019Z" fill="#FFC5C7"/>
<path d="M22.8523 38.4473C23.3684 37.2286 23.5482 34.8579 23.6015 31.6914L31.3729 35.1043L30.9833 38.2275C29.6048 38.8468 22.8523 38.4506 22.8523 38.4506V38.4473Z" fill="#FE8A8B"/>
<path d="M14.8832 61.0158C16.7012 57.4398 17.4304 51.6362 15.7889 48.5795C14.1474 45.5229 11.0508 44.4241 10.2916 44.7904C9.53245 45.1567 7.47472 49.9247 5.54019 52.1223C3.60566 54.3265 -1.67184 60.4964 -1.83166 61.0158C-1.99149 61.5352 1.98079 65.7273 9.45587 68.8072C10.3449 69.1735 14.8799 61.0158 14.8799 61.0158H14.8832Z" fill="white"/>
<path d="M31.8211 32.0477C31.4182 30.4128 31.4249 28.738 31.3283 27.0665C31.2551 25.8146 31.1918 24.6692 30.0564 23.9233C29.2273 23.3773 28.1851 23.2707 27.2095 23.3939C24.5858 23.7269 24.023 26.2841 24.2228 28.7047C24.376 30.5593 25.1019 32.3374 25.8177 34.0422C24.8521 33.9989 23.5336 33.4928 22.9576 32.6903C23.2173 33.7458 23.7067 34.7181 24.4725 35.4639C21.6756 35.4173 19.0818 33.586 17.6001 31.1287C16.1184 28.6714 15.649 25.6714 15.8088 22.7779C15.9952 19.3451 17.0674 15.9055 19.1884 13.2618C23.457 7.94766 31.6846 7.32834 36.6957 11.8933C38.4171 13.4649 39.6658 15.5692 40.2917 17.8501C41.1142 20.8501 41.0975 24.0698 40.4549 27.1065C40.1885 28.3618 40.0687 29.4506 39.9421 30.7092C39.9022 31.0988 39.4294 35.6304 39.7024 35.6138C37.9343 35.7203 35.9066 35.364 34.7112 34.0155C35.2473 34.9412 35.7101 35.8369 36.2462 36.7625C34.0153 36.3929 32.3771 34.3119 31.8178 32.0477H31.8211Z" fill="#372D5B"/>
<path d="M22.6543 25.8746C21.8652 25.4085 20.9162 25.1554 20.1837 25.898C19.1049 26.9901 20.6365 32.0811 22.9606 30.8425C22.9606 30.8425 26.3269 35.5506 28.7975 36.8825C31.2681 38.2144 33.0295 37.5484 33.9551 36.5961C34.8808 35.6439 38.0373 31.7448 38.6033 27.6094C38.8064 26.1344 38.59 23.2342 38.6333 22.6149C38.7732 20.7137 39.4924 19.1521 37.9907 17.6571C36.4757 16.1487 34.3747 15.2364 32.2404 15.1598C29.55 15.0666 26.8596 16.2752 25.0749 18.293C23.1071 20.5239 22.7642 23.0444 22.651 25.8713L22.6543 25.8746Z" fill="#FFC5C7"/>
<path d="M20.5668 27.2861C20.7666 26.3538 21.5623 26.1707 22.155 26.82C22.761 27.4859 22.8642 29.5936 22.7077 29.9066C22.5512 30.2162 21.5091 30.1962 21.3126 29.5503C21.1162 28.9077 21.7222 28.5015 22.3082 28.6946C22.3082 28.6946 22.4713 27.7556 21.9919 27.1496C21.5124 26.5436 21.0163 26.7767 20.8931 26.9332C20.7699 27.0897 20.5668 27.2895 20.5668 27.2895V27.2861Z" fill="#FE8A8B"/>
<path d="M27.0038 23.1606C27.2302 22.9509 27.4666 22.7578 27.7197 22.5713C27.9727 22.3882 28.2391 22.225 28.5254 22.0918C28.8085 21.9586 29.1048 21.8155 29.4178 21.7922C29.7274 21.7655 30.0404 21.7922 30.3268 21.912V21.9553C30.1703 22.0152 30.0271 22.0552 29.8839 22.0952L29.4644 22.2117C29.1914 22.2916 28.9083 22.3149 28.632 22.4081C28.359 22.498 28.0859 22.6179 27.8195 22.7511C27.5498 22.881 27.2901 23.0374 27.0271 23.1939L27.0038 23.1606Z" fill="#3F1751"/>
<path d="M37.5221 22.0952C37.2657 21.9587 36.996 21.8621 36.7163 21.8022C36.4367 21.7389 36.1536 21.709 35.8673 21.7023C35.5809 21.6957 35.2946 21.7556 35.0082 21.7523C34.7219 21.7523 34.4322 21.7623 34.1192 21.729L34.1092 21.689C34.3789 21.4926 34.6853 21.3893 34.9949 21.3294C35.3079 21.2661 35.6176 21.3194 35.9206 21.3627C36.2236 21.406 36.5199 21.4859 36.7963 21.5991C37.0693 21.719 37.3323 21.8655 37.5488 22.0586L37.5221 22.0952Z" fill="#3F1751"/>
<path d="M29.8276 24.8356C29.8176 24.4327 29.6145 24.1264 29.3748 24.1497C29.1351 24.173 28.9486 24.5193 28.9619 24.9222C28.9719 25.3251 29.175 25.6314 29.4147 25.6081C29.6545 25.5848 29.8409 25.2385 29.8276 24.8356Z" fill="#3F1751"/>
<path d="M36.18 24.3263C36.17 23.9234 36.0036 23.6137 35.8071 23.6337C35.6107 23.6537 35.4608 23.9933 35.4708 24.3962C35.4808 24.7991 35.6473 25.1088 35.8437 25.0888C36.0402 25.0688 36.19 24.7292 36.18 24.3263Z" fill="#3F1751"/>
<path d="M31.8149 28.7446C32.3643 29.1275 33.1768 29.1175 33.7761 28.7246C33.7062 29.0343 33.5697 29.3373 33.2667 29.4471C32.9637 29.557 32.6307 29.5237 32.3543 29.3972C32.078 29.2707 31.9881 28.991 31.8116 28.7446H31.8149Z" fill="#FE8A8B"/>
<path d="M29.6114 31.1053C30.9366 31.1253 34.1264 30.8823 35.1686 30.7324C34.7591 32.0776 33.6836 33.4028 32.1819 33.4061C30.8301 33.4061 29.9377 32.2974 29.6114 31.1053Z" fill="#C31F2A"/>
<path d="M30.8301 32.9668C31.3562 32.8036 31.8956 32.8869 32.1087 32.9534C32.1087 32.9534 32.8113 32.464 33.8302 32.7836C33.3673 33.1566 32.8146 33.4029 32.182 33.4029C31.6592 33.4029 31.2097 33.2365 30.8301 32.9634V32.9668Z" fill="#FB8384"/>
<path d="M34.2698 31.8579C32.928 32.2774 31.4596 32.1542 30.1976 31.7014C30.1876 31.5016 30.1743 31.3018 30.1577 31.1021C31.4696 31.0754 33.5906 30.9156 34.726 30.7891C34.6294 31.162 34.4796 31.5249 34.2698 31.8579Z" fill="white"/>
<path d="M23.9797 21.4963C26.144 21.403 28.2916 20.9269 30.2894 20.0945C30.669 19.2154 30.6823 18.433 30.7389 17.4774C31.2816 18.4763 31.6046 19.5917 31.6612 20.7271C32.9198 20.6439 34.1884 20.5773 35.447 20.4974C35.8 19.4985 35.8433 18.4696 35.7867 17.4141C36.2129 18.4063 36.4259 19.6583 36.5725 20.7304C37.3316 20.4607 38.2972 20.8536 39.093 20.9968C40.0786 18.8026 40.012 14.8303 37.931 13.1655C35.9032 11.5439 32.3771 11.1044 29.8998 11.464C24.6257 12.2265 20.4802 16.605 20.8065 22.0623C20.993 25.1755 22.5546 28.1189 24.7921 30.2865C23.4603 27.6295 23.1972 24.3664 23.9797 21.4996V21.4963Z" fill="#372D5B"/>
</g>
</svg>
