<svg width="86" height="92" viewBox="0 0 86 92" fill="none" xmlns="http://www.w3.org/2000/svg">
<path d="M56.2853 78.5128L29.823 78.4723C27.0917 78.4682 24.8699 76.2417 24.8603 73.4989L24.6804 18.8888C24.6711 16.1467 26.878 13.9269 29.6101 13.9306L56.0727 13.9719C58.804 13.9759 61.0258 16.2024 61.0354 18.9453L61.2153 73.5554C61.2246 76.2975 59.0177 78.5173 56.2857 78.5136L56.2853 78.5128Z" fill="#D2E7F9"/>
<path d="M58.4973 78.2328C57.8156 78.5575 57.0653 78.7282 56.2867 78.7267L29.824 78.6853C26.9797 78.6811 24.6579 76.3535 24.6482 73.4979L24.4675 18.8881C24.4582 16.0333 26.7639 13.7124 29.6094 13.717L56.0717 13.7576C57.4497 13.7599 58.7468 14.3001 59.724 15.2799C60.7012 16.2598 61.2427 17.5608 61.2471 18.9443L61.4278 73.5559C61.433 74.939 60.9004 76.239 59.9292 77.2153C59.5063 77.6404 59.0224 77.9827 58.4965 78.2332L58.4973 78.2328ZM56.2858 78.2997C57.5492 78.3006 58.737 77.8087 59.6277 76.9125C60.5184 76.0163 61.0069 74.8235 61.0032 73.5544L60.8226 18.9446C60.8181 17.6758 60.3216 16.4813 59.4246 15.5827C58.5276 14.6841 57.3379 14.1875 56.073 14.1853L29.6107 14.1448C27.0024 14.1419 24.885 16.2688 24.8928 18.8893L25.0735 73.499C25.0821 76.1192 27.2122 78.2538 29.8223 78.2587L56.285 78.3L56.2858 78.2997Z" fill="#000072"/>
<g opacity="0.3">
<path d="M60.8678 18.945L61.0477 73.557C61.0569 76.2991 58.85 78.5189 56.118 78.5152L29.6561 78.4735C27.59 78.4701 25.8173 77.1982 25.069 75.3939C25.8125 75.8377 26.6779 76.0965 27.6092 76.0983L54.0719 76.1396C56.8032 76.1436 59.0105 73.9246 59.0016 71.1814L58.8209 16.5697C58.8188 15.8969 58.6862 15.2588 58.4454 14.676C59.8885 15.5504 60.8609 17.1333 60.867 18.9453L60.8678 18.945Z" fill="#262F6A"/>
<path d="M58.3306 78.2349C57.649 78.5596 56.8975 78.7299 56.1192 78.7291L29.6566 78.6877C27.5585 78.6844 25.6809 77.4237 24.8729 75.4762L24.6269 74.8826L25.1773 75.2118C25.9141 75.6513 26.7551 75.8847 27.6092 75.8863L54.0719 75.9276C56.6821 75.9306 58.7972 73.8029 58.7894 71.1824L58.6083 16.5699C58.6059 15.9399 58.4858 15.3299 58.25 14.758L58.0034 14.159L58.5556 14.4939C60.1307 15.4477 61.0752 17.1122 61.0805 18.9463L61.2611 73.558C61.2656 74.9414 60.7337 76.2411 59.7625 77.2173C59.3396 77.6424 58.8557 77.9848 58.3306 78.2349V78.2349ZM25.5436 75.8779C26.3871 77.3403 27.9411 78.2577 29.6553 78.26L56.118 78.3013C57.381 78.3034 58.5696 77.8112 59.4602 76.9149C60.3509 76.0187 60.8398 74.8267 60.8358 73.5568L60.6552 18.9451C60.6499 17.4749 59.9877 16.1223 58.8554 15.2202C58.9731 15.657 59.033 16.1089 59.0344 16.5707L59.2143 71.1828C59.2187 72.5662 58.6869 73.8658 57.7157 74.8421C56.7445 75.8184 55.4512 76.3558 54.0732 76.3535L27.6097 76.3125C26.8981 76.3113 26.1942 76.1623 25.5436 75.8779Z" fill="#000072"/>
</g>
<g opacity="0.55">
<path d="M60.5205 16.7487C59.8577 16.4229 59.1148 16.2355 58.3319 16.235L31.8693 16.1937C29.138 16.1897 26.9307 18.4087 26.9396 21.1519L27.1202 75.7636C27.1231 76.5545 27.3095 77.2959 27.6363 77.96C25.9999 77.1445 24.8693 75.453 24.8625 73.5011L24.6822 18.8883C24.673 16.1462 26.8799 13.9265 29.6119 13.9301L56.0746 13.9715C58.0188 13.9741 59.7055 15.1069 60.5213 16.7484L60.5205 16.7487Z" fill="white"/>
</g>
<path d="M56.2881 81.1431L56.2873 81.1431L29.8247 81.1017C29.8247 81.1017 29.8246 81.1017 29.8246 81.1017C25.6456 81.0953 22.2497 77.6828 22.2358 73.5019L22.2358 73.5019L22.0551 18.8922L22.0551 18.892C22.0416 14.7057 25.4259 11.2966 29.608 11.3015L29.6086 11.3015L56.0709 11.3421L56.071 11.3421C58.0924 11.3453 59.9994 12.1416 61.429 13.5748C62.8597 15.0078 63.6531 16.9179 63.6597 18.942L63.84 73.5526C63.8505 76.5803 62.0841 79.198 59.5299 80.415L56.2881 81.1431ZM56.2881 81.1431C57.4448 81.1443 58.5451 80.884 59.5291 80.4154L56.2881 81.1431ZM57.9161 75.2066C57.4795 75.6456 56.9044 75.8848 56.2847 75.8838L56.2846 75.8834L29.8219 75.8421L29.8218 75.8421C28.5468 75.8402 27.4909 74.7905 27.4865 73.4955L27.3058 18.8858L27.3058 18.8857C27.3015 17.5957 28.3411 16.5586 29.6106 16.5612L29.6113 16.5612L56.0725 16.6021C56.0726 16.6021 56.0728 16.6021 56.0729 16.6021C56.6948 16.6033 57.2751 16.8439 57.7195 17.2893C58.1647 17.7355 58.4075 18.3199 58.4094 18.9487L58.4094 18.949L58.5893 73.5591L58.5893 73.5599C58.5917 74.1869 58.3533 74.7664 57.9161 75.2066Z" fill="#303030" stroke="white" stroke-width="3"/>
<path d="M55.1218 69.1084L30.9232 69.0709C29.8799 69.0693 29.0312 68.2188 29.0273 67.1706L28.8827 23.2482C28.8791 22.2007 29.7222 21.3528 30.7663 21.354L54.9649 21.3915C56.0082 21.393 56.8569 22.2435 56.8608 23.2917L57.0058 67.2149C57.0093 68.2624 56.1663 69.1103 55.1222 69.1091L55.1218 69.1084Z" fill="#262F6A"/>
<path d="M56.0244 69.1201C55.7465 69.2524 55.4407 69.3223 55.1231 69.3219L30.9245 69.2844C30.3629 69.2837 29.835 69.0632 29.4357 68.6639C29.0372 68.2643 28.8167 67.7343 28.8155 67.1701L28.6705 23.2469C28.6684 22.683 28.8855 22.1541 29.2805 21.7555C29.6763 21.3566 30.2031 21.1379 30.7655 21.1401L54.9641 21.1776C55.5258 21.1783 56.0537 21.3988 56.4526 21.7973C56.8511 22.197 57.0715 22.7269 57.0736 23.2908L57.2174 67.2136C57.2195 67.7775 57.0024 68.3064 56.6074 68.7049C56.4347 68.8782 56.2374 69.0176 56.0232 69.1197L56.0244 69.1201ZM55.1222 68.8949C55.5696 68.895 55.9906 68.721 56.3062 68.403C56.6222 68.0856 56.7949 67.6632 56.7928 67.214L56.649 23.2912C56.6477 22.8416 56.4716 22.4185 56.1532 22.1001C55.8356 21.7813 55.4139 21.6059 54.9665 21.6058L30.7664 21.5671C30.3186 21.5662 29.8972 21.7413 29.582 22.0583C29.266 22.3756 29.0934 22.7981 29.0947 23.2476L29.2408 67.1712C29.2436 68.0986 29.9987 68.8554 30.9236 68.8574L55.1222 68.8949Z" fill="#000072"/>
<path d="M57.0865 23.5169L57.2319 67.4389C57.2338 68.0085 56.9878 68.5143 56.5929 68.8616C56.2608 69.1591 55.8246 69.3346 55.3479 69.3343L31.1492 69.2968C30.1052 69.2956 29.2561 68.4443 29.2529 67.3958L29.1072 23.4729C29.1033 22.4247 29.9471 21.5764 30.9916 21.5783L55.1902 21.6158C56.2343 21.617 57.0833 22.4683 57.0865 23.5169Z" fill="#FF5454"/>
<path d="M42.663 56.8839C43.3568 56.9139 44.0139 56.5717 44.3868 55.9858C44.7597 55.4 44.7917 54.6595 44.4708 54.0436C44.1499 53.4278 43.5247 53.0301 42.8309 53.0001C42.1372 52.9701 41.48 53.3124 41.1072 53.8982C40.7343 54.4841 40.7023 55.2245 41.0232 55.8404C41.3441 56.4562 41.9693 56.8539 42.663 56.8839ZM42.941 50.4555C43.2257 50.4678 43.5039 50.369 43.7168 50.1796C43.9297 49.9902 44.0603 49.7251 44.0809 49.4407L45.0093 36.6003C45.0309 36.305 44.9315 36.0141 44.7345 35.7931C44.5377 35.5722 44.2597 35.4402 43.964 35.4277L43.1713 35.3934C42.8756 35.3804 42.5873 35.4878 42.3722 35.691C42.1568 35.8941 42.0329 36.1757 42.0286 36.4717L41.8454 49.3443C41.8388 49.6392 41.9514 49.9238 42.1574 50.1345C42.3634 50.3449 42.646 50.4638 42.9406 50.4635L42.941 50.4555Z" fill="white"/>
<path d="M44.7832 74.5818C45.3663 73.6182 45.0585 72.3586 44.0958 71.7686C43.1331 71.1785 41.88 71.4814 41.2969 72.4451C40.7139 73.4087 41.0216 74.6683 41.9844 75.2583C42.9471 75.8484 44.2002 75.5455 44.7832 74.5818Z" fill="#303030"/>
<path d="M44.008 75.5599C43.7163 75.6988 43.3899 75.7766 43.0456 75.7757C42.4444 75.7749 41.8783 75.5394 41.4524 75.112C41.0258 74.685 40.7901 74.1169 40.7879 73.5132C40.7834 72.2682 41.7899 71.2552 43.0305 71.2575C44.2706 71.2591 45.2838 72.2749 45.2874 73.5203C45.2904 74.4202 44.7661 75.1978 44.0069 75.5595L44.008 75.5599ZM42.252 71.8596C41.6364 72.1528 41.2109 72.7839 41.2132 73.5144C41.2146 74.0037 41.4065 74.4639 41.7514 74.8104C42.0964 75.1569 42.5566 75.3481 43.044 75.349C44.0496 75.3505 44.8651 74.5299 44.8625 73.5199C44.8591 72.5103 44.0373 71.6868 43.0317 71.6853C42.7526 71.6846 42.4888 71.7477 42.2516 71.8607L42.252 71.8596Z" fill="#303030"/>
<path d="M56.3207 69.7446C55.9522 69.9201 55.5459 70.0122 55.1256 70.0115L30.9269 69.974C29.3886 69.9714 28.1328 68.713 28.128 67.1686L27.9822 23.2457C27.9794 22.4984 28.2679 21.7952 28.7923 21.2668C29.3174 20.7399 30.0171 20.4493 30.7623 20.4497L54.9609 20.4872C55.7053 20.488 56.4072 20.7811 56.9361 21.3101C57.4645 21.8402 57.7571 22.5434 57.7603 23.2915L57.9052 67.2147C57.9081 67.9621 57.6196 68.6653 57.0952 69.1937C56.8667 69.4238 56.6051 69.6081 56.3203 69.7438L56.3207 69.7446ZM55.119 68.2045C55.3829 68.2049 55.6321 68.1013 55.818 67.9142C56.0039 67.7271 56.1063 67.4774 56.1053 67.2125L55.9604 23.2893C55.9594 23.0244 55.8555 22.7744 55.6682 22.5869C55.4809 22.3994 55.2317 22.2953 54.9678 22.295L30.7692 22.2575C30.5053 22.2572 30.2565 22.3596 30.071 22.5474C29.8851 22.7345 29.7823 22.9835 29.7836 23.2492L29.9286 67.1724C29.9295 67.4373 30.0335 67.6872 30.2208 67.8748C30.4081 68.0623 30.6573 68.1663 30.9212 68.1666L55.1198 68.2041L55.119 68.2045Z" fill="#303030"/>
<path d="M46.2342 19.0223C46.1236 19.075 46.0001 19.1044 45.8692 19.1043L39.8576 19.0943C39.3873 19.0937 39.0049 18.71 39.0033 18.2379C39.0012 17.765 39.3822 17.3845 39.8521 17.3844L45.8637 17.3944C46.3339 17.395 46.7163 17.7786 46.718 18.2507C46.7192 18.5913 46.5213 18.8856 46.2342 19.0223V19.0223Z" fill="#303030"/>
</svg>
