<svg width="38" height="33" viewBox="0 0 38 33" fill="none" xmlns="http://www.w3.org/2000/svg">
<path d="M33.1641 9.0443L33.1601 8.44431L32.5601 8.44837L4.48618 8.63829L3.88619 8.64235L3.89025 9.24234L3.98889 23.8228L3.99294 24.4228L4.59293 24.4188L32.6668 24.2288L33.2668 24.2248L33.2628 23.6248L33.1641 9.0443Z" fill="#1DBD67" stroke="#2E2E2E" stroke-width="1.2"/>
<path d="M30.6779 13.1641L30.6738 12.5641L30.0738 12.5682C29.3246 12.5733 28.6089 11.8828 28.6022 10.8946L28.5982 10.2947L27.9982 10.2987L9.06958 10.4255L8.46956 10.4295L8.47361 11.0295C8.48029 12.0185 7.77359 12.7184 7.02246 12.7228L6.42202 12.7263L6.42599 13.3267L6.46801 19.6872L6.47197 20.2874L7.07213 20.2832C7.82406 20.278 8.53928 20.9677 8.54617 21.9573L8.55035 22.5572L9.15019 22.5531L28.079 22.4259L28.679 22.4219L28.6749 21.8219C28.6682 20.8327 29.375 20.1332 30.1246 20.1285L30.7249 20.1247L30.7208 19.5244L30.6779 13.1641Z" fill="#4FEC91" stroke="#2E2E2E" stroke-width="1.2"/>
<path d="M26.9812 17.3979C27.5018 16.607 27.2826 15.5439 26.4918 15.0234C25.7009 14.5029 24.6378 14.722 24.1173 15.5129C23.5968 16.3037 23.8159 17.3668 24.6068 17.8873C25.3976 18.4079 26.4607 18.1887 26.9812 17.3979Z" fill="#1FBC61"/>
<path d="M13.0462 17.4595C13.5453 16.6549 13.2977 15.5981 12.4931 15.099C11.6886 14.5999 10.6318 14.8476 10.1327 15.6521C9.63359 16.4567 9.88123 17.5135 10.6858 18.0126C11.4903 18.5116 12.5472 18.264 13.0462 17.4595Z" fill="#1FBC61"/>
<path d="M20.5237 17.2893C21.2178 16.1704 20.8734 14.7006 19.7545 14.0065C18.6355 13.3124 17.1658 13.6568 16.4716 14.7757C15.7775 15.8947 16.1219 17.3644 17.2409 18.0586C18.3598 18.7527 19.8296 18.4083 20.5237 17.2893Z" fill="#1FBC61"/>
</svg>
