<svg width="20" height="18" viewBox="0 0 20 18" fill="none" xmlns="http://www.w3.org/2000/svg">
<path d="M17.0209 0.590352C17.0209 0.436974 16.96 0.289878 16.8516 0.181423C16.7431 0.0729684 16.596 0.0120392 16.4426 0.0120392H3.71973C3.56635 0.0120392 3.41926 0.0729684 3.3108 0.181423C3.20235 0.289878 3.14142 0.436974 3.14142 0.590352V1.16866H17.0209V0.590352Z" fill="#439801"/>
<path d="M18.1657 2.90369C18.1657 2.75031 18.1048 2.60322 17.9963 2.49476C17.8879 2.38631 17.7408 2.32538 17.5874 2.32538H2.55127C2.3979 2.32538 2.2508 2.38631 2.14235 2.49476C2.03389 2.60322 1.97296 2.75031 1.97296 2.90369V3.48201H18.1657V2.90369Z" fill="#439801"/>
<path d="M18.1658 4.63854H1.83424C1.54589 4.63854 1.26935 4.75309 1.06545 4.95698C0.861556 5.16088 0.747009 5.43742 0.747009 5.72577V16.2742C0.747009 16.5626 0.861556 16.8391 1.06545 17.043C1.26935 17.2469 1.54589 17.3614 1.83424 17.3614H18.1658C18.4542 17.3614 18.7307 17.2469 18.9346 17.043C19.1385 16.8391 19.253 16.5626 19.253 16.2742V5.72577C19.253 5.43742 19.1385 5.16088 18.9346 4.95698C18.7307 4.75309 18.4542 4.63854 18.1658 4.63854ZM4.54074 6.63372C4.88388 6.63372 5.21932 6.73548 5.50462 6.92611C5.78993 7.11675 6.01231 7.38771 6.14362 7.70473C6.27493 8.02175 6.30929 8.37059 6.24235 8.70713C6.1754 9.04368 6.01017 9.35282 5.76753 9.59545C5.5249 9.83809 5.21576 10.0033 4.87921 10.0703C4.54267 10.1372 4.19383 10.1029 3.87681 9.97154C3.55979 9.84022 3.28883 9.61785 3.09819 9.33254C2.90756 9.04724 2.8058 8.7118 2.8058 8.36866C2.8058 7.90853 2.98859 7.46724 3.31396 7.14188C3.63932 6.81651 4.08061 6.63372 4.54074 6.63372ZM16.9398 15.0482H3.06026L7.37448 10.7282C7.45138 10.6519 7.55532 10.6091 7.66364 10.6091C7.77196 10.6091 7.87589 10.6519 7.95279 10.7282L10.081 12.8564L13.013 9.84336C13.0899 9.76708 13.1939 9.72428 13.3022 9.72428C13.4105 9.72428 13.5144 9.76708 13.5913 9.84336L16.9398 13.1918V15.0482Z" fill="#439801"/>
</svg>
