<svg width="34" height="34" viewBox="0 0 34 34" fill="none" xmlns="http://www.w3.org/2000/svg">
<path d="M23.2093 5.58757L25.9143 4.8143C26.2429 3.76278 27.2249 3 28.3847 3C29.8136 3 30.9717 4.15813 30.9717 5.58785H25.7971L23.2093 5.58813L23.2093 5.58757Z" fill="#676767"/>
<path d="M17.0677 27.8678L18.9515 22.6373L19.0249 21.3247C19.065 20.6968 19.5916 20.2347 20.2013 20.2912C20.2151 20.2928 20.2281 20.2967 20.2425 20.2992C20.3746 20.2325 20.5224 20.1912 20.6783 20.1813L20.7232 20.1785C20.6836 20.1536 20.6454 20.1262 20.6085 20.0952C20.1498 19.7062 20.0969 19.0049 20.4906 18.5289L23.746 14.5994C23.7725 14.5277 23.8063 14.4582 23.8492 14.391L26.7781 9.78731C26.9243 9.55724 27.1422 9.40109 27.3839 9.32939C27.5625 9.23996 27.7809 9.16355 28.0531 9.11315C29.2184 8.89914 30.9441 9.10845 31.4485 12.5584C31.58 12.3527 31.7874 12.2187 32.0227 12.2187H32.3815C32.7786 12.2187 33.1003 12.5958 33.1003 13.0601L33.1006 31.4264C33.1006 31.8907 32.7786 32.2674 32.3818 32.2674H32.023C31.626 32.2674 31.3038 31.8909 31.3038 31.4264V30.6739H23.7058V31.4264C23.7058 31.8907 23.3312 32.2674 22.8694 32.2674C22.4073 32.2674 22.0329 31.8909 22.0329 31.4264L22.0332 24.842C21.5711 24.842 21.1968 24.4658 21.1968 24.0007C21.1968 23.5358 21.5711 23.1593 22.0332 23.1593L31.3032 23.159V17.3698C30.7561 19.9238 29.5011 21.8101 28.2184 22.4444C28.0135 22.6778 27.714 22.826 27.3751 22.826L21.3409 22.8248L21.1269 23.4201L20.7991 29.2491C20.7595 29.8771 20.2332 30.34 19.6229 30.2827C19.0856 30.2323 18.6633 29.7948 18.5986 29.2622C18.3452 29.3657 18.0573 29.3873 17.781 29.3007C17.1705 29.1077 16.8522 28.4664 17.0678 27.8679L17.0677 27.8678ZM23.7055 24.842V29.8319H31.3035V24.842H23.7055ZM25.6917 19.8737C25.7714 19.3355 25.904 18.9354 25.904 18.9354C25.904 18.9354 27.6488 16.0774 27.1848 13.2127L25.9591 15.1397C25.9217 15.3147 25.8425 15.4847 25.7202 15.632L22.1528 19.9399C22.1024 20.0003 22.0473 20.0537 21.9883 20.1013L25.6917 19.8737Z" fill="#676767"/>
<path d="M28.6969 8.64104C27.2769 8.8462 25.951 7.87139 25.7347 6.46492C25.7026 6.25533 25.7001 6.04852 25.7181 5.84696L30.8891 5.84668C31.0314 7.20553 30.0748 8.44226 28.6968 8.64107L28.6969 8.64104Z" fill="#676767"/>
<path d="M15.9429 12.5435H9.8345C9.4851 12.5435 9.20117 12.8266 9.20117 13.1768V13.1998L11.7222 16.1487C12.0207 16.4974 12.1652 16.9414 12.1291 17.3993C12.0933 17.8569 11.8815 18.2728 11.5326 18.5708C11.2214 18.8365 10.8254 18.9829 10.4172 18.9829C9.95625 18.9829 9.52349 18.7918 9.2012 18.4659V19.2847C9.2012 19.6341 9.48461 19.918 9.83452 19.918H15.9424C16.2923 19.918 16.5757 19.6346 16.5757 19.2847V13.1768C16.5757 12.8267 16.2928 12.5435 15.9429 12.5435L15.9429 12.5435Z" fill="#676767"/>
<path d="M6.48852 20.8654H7.4554L7.05357 15.4098L9.38913 18.1423C9.65694 18.4551 10.0355 18.6158 10.4169 18.6158C10.7279 18.6158 11.0392 18.5091 11.2944 18.2912C11.8618 17.8067 11.9285 16.9539 11.4433 16.3866L6.7182 10.8591L6.61436 9.45278C6.61436 8.00579 5.35922 6.83276 3.81073 6.83276H3.67057C2.12155 6.83276 0.866419 8.00579 0.866419 9.45278L0.0251239 20.8654H0.992011V20.9611L0.00593757 31.5257C-0.0633803 32.2691 0.482206 32.9271 1.22552 32.997C1.26772 33.0009 1.31018 33.0024 1.35239 33.0024C2.04222 33.0024 2.63076 32.4773 2.69605 31.7772L3.65141 21.5491H3.83072L4.78556 31.7772C4.85078 32.4772 5.43909 33.0024 6.1287 33.0024C6.1709 33.0024 6.21311 33.0009 6.25633 32.9965C6.99888 32.9272 7.54499 32.2691 7.47591 31.5252L6.48859 20.9606L6.48852 20.8654Z" fill="#676767"/>
<path d="M6.92173 2.96477C6.92173 4.60205 5.59424 5.92928 3.95696 5.92928C2.31968 5.92928 0.992188 4.60198 0.992188 2.96477C0.992188 1.32723 2.31968 0 3.95696 0C5.59424 0 6.92173 1.32729 6.92173 2.96477Z" fill="#676767"/>
</svg>
