<svg width="30" height="34" viewBox="0 0 30 34" fill="none" xmlns="http://www.w3.org/2000/svg">
<path d="M15.9423 12.543H9.83388C9.48449 12.543 9.20056 12.8261 9.20056 13.1763V13.1993L11.7216 16.1482C12.0201 16.4969 12.1646 16.9409 12.1285 17.3988C12.0927 17.8564 11.8809 18.2723 11.532 18.5703C11.2207 18.8361 10.8248 18.9824 10.4166 18.9824C9.95564 18.9824 9.52288 18.7913 9.20059 18.4654V19.2842C9.20059 19.6336 9.48399 19.9175 9.83391 19.9175H15.9418C16.2917 19.9175 16.5751 19.6341 16.5751 19.2842V13.1764C16.5751 12.8262 16.2922 12.543 15.9423 12.543L15.9423 12.543Z" fill="#676767"/>
<path d="M6.48852 20.8656H7.4554L7.05357 15.41L9.38913 18.1425C9.65694 18.4554 10.0355 18.616 10.4169 18.616C10.7279 18.616 11.0392 18.5093 11.2944 18.2914C11.8618 17.807 11.9285 16.9542 11.4433 16.3868L6.7182 10.8594L6.61436 9.45302C6.61436 8.00603 5.35922 6.83301 3.81073 6.83301H3.67057C2.12155 6.83301 0.866419 8.00603 0.866419 9.45302L0.0251239 20.8657H0.992011V20.9613L0.00593757 31.526C-0.0633803 32.2693 0.482206 32.9274 1.22552 32.9973C1.26772 33.0011 1.31018 33.0026 1.35239 33.0026C2.04222 33.0026 2.63076 32.4775 2.69605 31.7774L3.65141 21.5493H3.83072L4.78556 31.7774C4.85078 32.4775 5.43909 33.0026 6.1287 33.0026C6.1709 33.0026 6.21311 33.0011 6.25633 32.9967C6.99888 32.9274 7.54499 32.2693 7.47591 31.5255L6.48859 20.9608L6.48852 20.8656Z" fill="#676767"/>
<path d="M6.92203 2.96477C6.92203 4.60205 5.59454 5.92928 3.95726 5.92928C2.31998 5.92928 0.992493 4.60198 0.992493 2.96477C0.992493 1.32723 2.31998 0 3.95726 0C5.59454 0 6.92203 1.32729 6.92203 2.96477Z" fill="#676767"/>
<path d="M28.1929 20.9613V20.8657H29.1598L28.3185 9.45302C28.3185 8.00603 27.0629 6.83301 25.5144 6.83301H25.3742C23.8252 6.83301 22.5706 8.00603 22.5706 9.45302L22.4667 10.8594L17.7416 16.3868C17.2564 16.9542 17.3232 17.807 17.8905 18.2914C18.1453 18.5093 18.4571 18.616 18.7681 18.616C19.1495 18.616 19.5278 18.4554 19.7958 18.1425L22.1314 15.41L21.7295 20.8656H22.6964V20.961L21.7096 31.5257C21.6406 32.269 22.1867 32.9271 22.9292 32.997C22.9722 33.0008 23.0141 33.0023 23.0563 33.0023C23.7456 33.0023 24.3342 32.4772 24.4 31.7771L25.3548 21.549H25.5341L26.489 31.7771C26.5542 32.4772 27.1433 33.0023 27.8326 33.0023C27.8743 33.0023 27.9171 33.0008 27.9595 32.9965C28.7028 32.9271 29.2489 32.269 29.1791 31.5252L28.1929 20.9613Z" fill="#676767"/>
<path d="M28.1927 2.96477C28.1927 4.60205 26.8652 5.92928 25.228 5.92928C23.5907 5.92928 22.2632 4.60198 22.2632 2.96477C22.2632 1.32723 23.5907 0 25.228 0C26.8652 0 28.1927 1.32729 28.1927 2.96477Z" fill="#676767"/>
</svg>
