<svg width="19" height="34" viewBox="0 0 19 34" fill="none" xmlns="http://www.w3.org/2000/svg">
<path d="M16.2554 15.4893H17.3633C17.6463 15.4893 17.876 15.719 17.876 16.0019V17.0299C17.876 17.3129 17.6463 17.5426 17.3633 17.5426H16.2554V15.4893Z" fill="#C9CCD2"/>
<path d="M17.3633 17.8038H16.2555C16.1112 17.8038 15.9941 17.6868 15.9941 17.5424V15.4889C15.9941 15.3446 16.1112 15.2275 16.2555 15.2275H17.3633C17.7902 15.2275 18.1374 15.5748 18.1374 16.0016V17.0296C18.1374 17.4564 17.7902 17.8037 17.3633 17.8037V17.8038ZM16.5168 17.2811H17.3633C17.5019 17.2811 17.6146 17.1683 17.6146 17.0297V16.0018C17.6146 15.8632 17.5019 15.7505 17.3633 15.7505H16.5168V17.2811V17.2811Z" fill="#2E2E2E"/>
<g opacity="0.35">
<path d="M15.5601 15.4888H16.7506C17.0335 15.4888 17.2632 15.7185 17.2632 16.0014V17.0294C17.2632 17.3124 17.0335 17.5421 16.7506 17.5421H15.5601V15.4888Z" fill="#2E2E2E"/>
</g>
<path d="M15.5212 12.7084C15.5212 12.7084 14.0526 9.494 13.6067 7.67615C13.5118 7.28892 13.2061 7.02002 12.8549 7.02002H4.05307C3.70199 7.02002 3.39628 7.28892 3.30121 7.67615C2.85533 9.49387 1.38672 12.7084 1.38672 12.7084L4.42032 10.3593V8.01027H12.4873V10.3593L15.5209 12.7084H15.5212Z" fill="#C9CCD2"/>
<path d="M15.6057 12.8153L12.4547 10.3753V8.04277H4.45291V10.3753L1.30176 12.8153L1.35685 12.6947C1.37158 12.6627 2.8294 9.46234 3.26937 7.66829C3.36772 7.26738 3.68987 6.9873 4.05279 6.9873H12.8546C13.2176 6.9873 13.5398 7.26738 13.638 7.66829C14.0781 9.46234 15.5359 12.6627 15.5505 12.6947L15.6056 12.8153H15.6057ZM12.5199 10.3433L15.4372 12.6022C15.1675 12.0013 13.9676 9.28575 13.5747 7.68394C13.4836 7.31235 13.1875 7.05279 12.8547 7.05279H4.05292C3.72012 7.05279 3.424 7.31235 3.33288 7.68394C2.93999 9.28575 1.74015 12.0013 1.47046 12.6022L4.38769 10.3433V7.97755H12.5201V10.3433H12.5199Z" fill="#2E2E2E"/>
<path d="M1.38581 13.0028C1.32125 13.0028 1.25669 12.9817 1.20317 12.9392C1.09719 12.8552 1.06222 12.7096 1.11836 12.5867C1.13296 12.5547 2.58066 9.37634 3.01484 7.60662C3.14186 7.08842 3.56841 6.72656 4.05216 6.72656H12.8539C13.3377 6.72656 13.7643 7.08842 13.8913 7.60662C14.3254 9.37634 15.7732 12.5548 15.7877 12.5867C15.844 12.7097 15.809 12.8553 15.7029 12.9392C15.5968 13.0232 15.4472 13.024 15.3403 12.9413L12.3067 10.5922C12.2348 10.5365 12.1927 10.4507 12.1927 10.3598V8.3047H4.71368V10.3598C4.71368 10.4507 4.67161 10.5365 4.59968 10.5922L1.56595 12.9413C1.51296 12.9823 1.44945 13.0028 1.38594 13.0028H1.38581ZM4.05216 7.31458C3.84007 7.31458 3.64836 7.49223 3.5859 7.74666C3.29583 8.92941 2.59473 10.6606 2.1211 11.7676L4.12553 10.2155V8.01069C4.12553 7.8483 4.25715 7.71668 4.41954 7.71668H12.4866C12.649 7.71668 12.7806 7.8483 12.7806 8.01069V10.2155L14.785 11.7676C14.3114 10.6605 13.6103 8.92928 13.3202 7.74666C13.2578 7.49223 13.066 7.31458 12.8539 7.31458H4.05216V7.31458Z" fill="#2E2E2E"/>
<path d="M15.5207 20.7397C15.5207 20.7397 14.0521 23.9541 13.6062 25.772C13.5113 26.1592 13.2056 26.4281 12.8544 26.4281H4.05258C3.7015 26.4281 3.39579 26.1592 3.30072 25.772C2.85484 23.9543 1.38623 20.7397 1.38623 20.7397L4.41983 23.0888V25.4379H12.4869V23.0888L15.5204 20.7397H15.5207Z" fill="#C9CCD2"/>
<path d="M12.8541 26.4608H4.0523C3.68925 26.4608 3.3671 26.1808 3.26888 25.7798C2.82879 23.9859 1.37096 20.7855 1.35636 20.7534L1.30127 20.6328L4.45242 23.0729V25.4054H12.4542V23.0729L15.6052 20.6328L15.5501 20.7534C15.5354 20.7855 14.0777 23.9858 13.6376 25.7798C13.5393 26.1808 13.2171 26.4608 12.8542 26.4608H12.8541ZM1.46984 20.8461C1.73953 21.447 2.93937 24.1625 3.33226 25.7643C3.42338 26.1359 3.7195 26.3955 4.0523 26.3955H12.8541C13.1869 26.3955 13.483 26.1359 13.5741 25.7643C13.9671 24.1625 15.1669 21.447 15.4365 20.8461L12.5193 23.105V25.4707H4.38694V23.105L1.46971 20.8461H1.46984Z" fill="#2E2E2E"/>
<path d="M12.854 26.7221H4.05225C3.5685 26.7221 3.14194 26.3602 3.01492 25.842C2.58075 24.0723 1.13304 20.8938 1.11845 20.862C1.06217 20.7389 1.09715 20.5935 1.20326 20.5095C1.30924 20.4253 1.45888 20.4245 1.56591 20.5074L4.59964 22.8564C4.67156 22.9122 4.71364 22.9979 4.71364 23.0889V25.144H12.1926V23.0889C12.1926 22.9979 12.2347 22.9122 12.3066 22.8564L15.3402 20.5074C15.4473 20.4247 15.5968 20.4253 15.7029 20.5095C15.8089 20.5935 15.8438 20.7391 15.7877 20.862C15.7731 20.894 14.3255 24.0723 13.8912 25.842C13.7642 26.3601 13.3377 26.7221 12.8539 26.7221H12.854ZM2.12119 21.6809C2.59481 22.7881 3.29592 24.5193 3.58598 25.7019C3.64844 25.9563 3.84015 26.134 4.05225 26.134H12.854C13.0661 26.134 13.2578 25.9563 13.3203 25.7019C13.6104 24.5191 14.3116 22.7879 14.7851 21.6809L12.7807 23.233V25.4378C12.7807 25.6002 12.649 25.7319 12.4867 25.7319H4.41963C4.25724 25.7319 4.12562 25.6002 4.12562 25.4378V23.233L2.12119 21.6809Z" fill="#2E2E2E"/>
<path d="M8.45371 24.819C12.9238 24.819 16.5476 21.1953 16.5476 16.7252C16.5476 12.2551 12.9238 8.63135 8.45371 8.63135C3.9836 8.63135 0.359863 12.2551 0.359863 16.7252C0.359863 21.1953 3.9836 24.819 8.45371 24.819Z" fill="#C9CCD2"/>
<path d="M8.45361 24.8515C3.97257 24.8515 0.327148 21.206 0.327148 16.7251C0.327148 12.2442 3.9727 8.59863 8.45361 8.59863C12.9345 8.59863 16.5801 12.2442 16.5801 16.7251C16.5801 21.206 12.9345 24.8515 8.45361 24.8515ZM8.45361 8.66398C4.00873 8.66398 0.3925 12.2802 0.3925 16.7251C0.3925 21.17 4.00873 24.7862 8.45361 24.7862C12.8985 24.7862 16.5147 21.17 16.5147 16.7251C16.5147 12.2802 12.8985 8.66398 8.45361 8.66398V8.66398Z" fill="#2E2E2E"/>
<g opacity="0.6">
<path d="M5.58863 9.04549C5.40257 9.12004 5.2223 9.20288 5.04492 9.2894C9.04918 8.01277 13.419 10.0261 15.0078 13.9891C16.5966 17.9521 14.828 22.4265 11.0508 24.2696C11.2389 24.2097 11.4264 24.1451 11.6124 24.0704C15.7615 22.4069 17.7764 17.695 16.1131 13.546C14.4496 9.39696 9.73766 7.38188 5.58863 9.04535V9.04549Z" fill="white"/>
</g>
<g opacity="0.3">
<path d="M1.90857 12.151C2.15498 11.7922 2.4294 11.4541 2.72893 11.1401C1.61574 12.5264 0.949219 14.2864 0.949219 16.2027C0.949219 20.6728 4.57294 24.2966 9.04306 24.2966C11.3433 24.2966 13.4193 23.3368 14.8929 21.796C15.3579 21.2184 15.746 20.5763 16.0398 19.8842C14.5765 21.3378 12.5613 22.2364 10.3359 22.2364C5.86575 22.2364 2.24202 18.6127 2.24202 14.1425C2.24202 13.0218 2.47003 11.9544 2.88185 10.9839C2.52236 11.341 2.1964 11.7319 1.9087 12.1511L1.90857 12.151Z" fill="#2E2E2E"/>
</g>
<path d="M8.45321 25.1778C3.79216 25.1778 0 21.3857 0 16.7247C0 12.0636 3.79203 8.27148 8.45321 8.27148C13.1144 8.27148 16.9064 12.0635 16.9064 16.7247C16.9064 21.3859 13.1144 25.1778 8.45321 25.1778V25.1778ZM8.45321 8.99021C4.18847 8.99021 0.718723 12.4598 0.718723 16.7247C0.718723 20.9896 4.18834 24.4592 8.45321 24.4592C12.7181 24.4592 16.1877 20.9896 16.1877 16.7247C16.1877 12.4598 12.7181 8.99021 8.45321 8.99021V8.99021Z" fill="#2E2E2E"/>
<path d="M8.45359 22.935C11.8838 22.935 14.6645 20.1543 14.6645 16.7241C14.6645 13.2939 11.8838 10.5132 8.45359 10.5132C5.0234 10.5132 2.24268 13.2939 2.24268 16.7241C2.24268 20.1543 5.0234 22.935 8.45359 22.935Z" fill="#6E7A94"/>
<path d="M8.45362 22.9678C5.01082 22.9678 2.20996 20.1669 2.20996 16.7241C2.20996 13.2813 5.01082 10.4805 8.45362 10.4805C11.8964 10.4805 14.6973 13.2813 14.6973 16.7241C14.6973 20.1669 11.8964 22.9678 8.45362 22.9678ZM8.45362 10.546C5.04698 10.546 2.27531 13.3175 2.27531 16.7243C2.27531 20.131 5.04685 22.9026 8.45362 22.9026C11.8604 22.9026 14.6319 20.131 14.6319 16.7243C14.6319 13.3175 11.8604 10.546 8.45362 10.546V10.546Z" fill="#2E2E2E"/>
<path d="M8.4531 22.9355C11.8833 22.9355 14.664 20.1548 14.664 16.7246C14.664 13.2944 11.8833 10.5137 8.4531 10.5137C5.02291 10.5137 2.24219 13.2944 2.24219 16.7246C2.24219 20.1548 5.02291 22.9355 8.4531 22.9355Z" fill="white"/>
<g opacity="0.3">
<path d="M8.4531 10.5137C5.02293 10.5137 2.24219 13.2944 2.24219 16.7246C2.24219 20.1548 5.02293 22.9355 8.4531 22.9355C11.8833 22.9355 14.664 20.1548 14.664 16.7246C14.664 13.2944 11.8833 10.5137 8.4531 10.5137V10.5137ZM8.56671 22.0128C5.63173 22.0128 3.25242 19.6335 3.25242 16.6986C3.25242 13.7636 5.63173 11.3843 8.56671 11.3843C11.5017 11.3843 13.881 13.7636 13.881 16.6986C13.881 19.6335 11.5017 22.0128 8.56671 22.0128V22.0128Z" fill="#2E2E2E"/>
</g>
<path d="M8.45317 23.2296C4.86639 23.2296 1.94824 20.3114 1.94824 16.7247C1.94824 13.1379 4.86639 10.2197 8.45317 10.2197C12.0399 10.2197 14.9581 13.1379 14.9581 16.7247C14.9581 20.3114 12.0399 23.2296 8.45317 23.2296V23.2296ZM8.45317 10.8077C5.19051 10.8077 2.53626 13.4621 2.53626 16.7247C2.53626 19.9872 5.19051 22.6416 8.45317 22.6416C11.7158 22.6416 14.3701 19.9872 14.3701 16.7247C14.3701 13.4621 11.7158 10.8077 8.45317 10.8077V10.8077Z" fill="#2E2E2E"/>
<path d="M8.45338 12.0081C8.34516 12.0081 8.25732 11.9204 8.25732 11.8121V10.5129C8.25732 10.4047 8.34503 10.3169 8.45338 10.3169C8.56172 10.3169 8.64943 10.4046 8.64943 10.5129V11.8121C8.64943 11.9203 8.56172 12.0081 8.45338 12.0081Z" fill="#2E2E2E"/>
<path d="M10.8369 12.6253C10.8047 12.6253 10.7721 12.6174 10.742 12.6006C10.6473 12.5481 10.6133 12.4287 10.6657 12.3341L11.2961 11.1981C11.3486 11.1035 11.4678 11.0693 11.5626 11.1219C11.6573 11.1743 11.6914 11.2937 11.6389 11.3884L11.0085 12.5243C10.9728 12.5889 10.9058 12.6253 10.8369 12.6253Z" fill="#2E2E2E"/>
<path d="M12.6651 14.3918C12.5984 14.3918 12.5336 14.3578 12.4967 14.2966C12.441 14.2037 12.4711 14.0833 12.5639 14.0277L13.6778 13.3591C13.7706 13.3033 13.8911 13.3334 13.9467 13.4262C14.0024 13.5191 13.9723 13.6395 13.8795 13.6951L12.7656 14.3638C12.7341 14.3827 12.6992 14.3918 12.6649 14.3918H12.6651Z" fill="#2E2E2E"/>
<path d="M14.6646 16.9199H13.3655C13.2573 16.9199 13.1694 16.8322 13.1694 16.7239C13.1694 16.6155 13.2571 16.5278 13.3655 16.5278H14.6646C14.7728 16.5278 14.8607 16.6155 14.8607 16.7239C14.8607 16.8322 14.773 16.9199 14.6646 16.9199Z" fill="#2E2E2E"/>
<path d="M13.8098 20.0637C13.7761 20.0637 13.7419 20.0551 13.7108 20.0368L12.5905 19.3792C12.4971 19.3244 12.4658 19.2043 12.5207 19.111C12.5755 19.0177 12.6954 18.9863 12.7889 19.0411L13.9092 19.6987C14.0026 19.7536 14.0338 19.8736 13.979 19.967C13.9425 20.0292 13.8771 20.0637 13.8098 20.0637Z" fill="#2E2E2E"/>
<path d="M11.5086 22.3274C11.4402 22.3274 11.3738 22.2916 11.3378 22.2277L10.6987 21.0966C10.6455 21.0024 10.6787 20.8828 10.773 20.8296C10.8672 20.7763 10.9868 20.8096 11.0401 20.9039L11.6791 22.0349C11.7324 22.1292 11.6991 22.2487 11.6048 22.302C11.5744 22.3192 11.5413 22.3274 11.5086 22.3274Z" fill="#2E2E2E"/>
<path d="M8.45338 23.1307C8.34516 23.1307 8.25732 23.043 8.25732 22.9346V21.6355C8.25732 21.5273 8.34503 21.4395 8.45338 21.4395C8.56172 21.4395 8.64943 21.5272 8.64943 21.6355V22.9346C8.64943 23.0428 8.56172 23.1307 8.45338 23.1307Z" fill="#2E2E2E"/>
<path d="M5.19581 22.2081C5.1607 22.2081 5.1252 22.1987 5.09325 22.1789C5.00107 22.1221 4.97241 22.0014 5.02908 21.9093L5.71033 20.8032C5.76713 20.711 5.88797 20.6823 5.98001 20.7391C6.07219 20.7959 6.10085 20.9166 6.04418 21.0088L5.36293 22.1149C5.32585 22.175 5.26155 22.2081 5.19581 22.2081V22.2081Z" fill="#2E2E2E"/>
<path d="M3.04531 19.9736C2.97693 19.9736 2.91053 19.9377 2.8745 19.874C2.82125 19.7797 2.85452 19.6602 2.9488 19.6069L4.08 18.9683C4.17428 18.915 4.2938 18.9483 4.34706 19.0425C4.40031 19.1368 4.36704 19.2563 4.27277 19.3096L3.14156 19.9482C3.11119 19.9655 3.07805 19.9736 3.04544 19.9736H3.04531Z" fill="#2E2E2E"/>
<path d="M3.54156 16.9199H2.24244C2.13422 16.9199 2.04639 16.8322 2.04639 16.7239C2.04639 16.6155 2.13409 16.5278 2.24244 16.5278H3.54156C3.64977 16.5278 3.73761 16.6155 3.73761 16.7239C3.73761 16.8322 3.6499 16.9199 3.54156 16.9199Z" fill="#2E2E2E"/>
<path d="M4.17816 14.5011C4.14555 14.5011 4.11228 14.493 4.08178 14.4756L2.9511 13.8358C2.85682 13.7825 2.82368 13.6629 2.87707 13.5687C2.93032 13.4746 3.04998 13.4413 3.14425 13.4947L4.27493 14.1345C4.36921 14.1878 4.40235 14.3075 4.34896 14.4016C4.31293 14.4654 4.24653 14.5011 4.17816 14.5011V14.5011Z" fill="#2E2E2E"/>
<path d="M5.94603 12.6966C5.8791 12.6966 5.81401 12.6623 5.77733 12.6006L5.11396 11.4836C5.05861 11.3905 5.08938 11.2703 5.18234 11.215C5.27543 11.1597 5.39575 11.1904 5.45097 11.2835L6.11434 12.4005C6.16969 12.4936 6.13893 12.6138 6.04596 12.6691C6.01454 12.6878 5.98009 12.6966 5.94603 12.6966V12.6966Z" fill="#2E2E2E"/>
<path d="M8.4532 17.658C7.93855 17.658 7.52002 17.2393 7.52002 16.7248C7.52002 16.2103 7.93868 15.7915 8.4532 15.7915C8.96772 15.7915 9.38638 16.2102 9.38638 16.7248C9.38638 17.2395 8.96772 17.658 8.4532 17.658ZM8.4532 16.3207C8.23046 16.3207 8.04913 16.5019 8.04913 16.7248C8.04913 16.9477 8.23046 17.1289 8.4532 17.1289C8.67594 17.1289 8.85727 16.9477 8.85727 16.7248C8.85727 16.5019 8.67594 16.3207 8.4532 16.3207Z" fill="#2E2E2E"/>
<path d="M5.86816 14.27L8.57015 17.5261L9.46362 17.8655L9.12437 16.972L5.86816 14.27Z" fill="white"/>
<path d="M9.46382 18.0617C9.44041 18.0617 9.41688 18.0575 9.39426 18.049L8.50079 17.7096C8.4691 17.6976 8.44122 17.6775 8.41953 17.6515L5.71755 14.3954C5.65285 14.3176 5.65824 14.2032 5.72977 14.1316C5.8013 14.0601 5.9157 14.0547 5.99354 14.1194L9.24962 16.8214C9.27566 16.8429 9.29564 16.871 9.30774 16.9026L9.64712 17.7961C9.67447 17.8683 9.65698 17.9497 9.60241 18.0043C9.56494 18.0417 9.51484 18.0616 9.46382 18.0616V18.0617ZM8.68829 17.3614L9.12589 17.5276L8.95969 17.09L7.36511 15.7668L8.68829 17.3614V17.3614Z" fill="#2E2E2E"/>
<path d="M12.2696 12.7075L7.93697 16.7741L7.43994 17.9814L8.59889 17.3803L12.2696 12.7075Z" fill="#EAEBED"/>
<path d="M7.4402 18.1776C7.3922 18.1776 7.34474 18.16 7.30779 18.1262C7.24717 18.0707 7.22758 17.9831 7.25888 17.907L7.75591 16.6997C7.76656 16.6737 7.7826 16.6505 7.80311 16.6314L12.1357 12.5648C12.2104 12.4946 12.3265 12.494 12.4022 12.5632C12.4778 12.6325 12.4873 12.7483 12.4239 12.8289L8.75326 17.5016C8.7359 17.5236 8.7142 17.5417 8.68935 17.5546L7.5304 18.1558C7.50187 18.1706 7.47097 18.1777 7.4402 18.1777V18.1776ZM8.10225 16.8882L7.82533 17.561L8.47121 17.226L10.5171 14.6217L8.10225 16.8882V16.8882Z" fill="#2E2E2E"/>
<path d="M8.50212 16.8643C8.50212 16.8856 8.48476 16.903 8.46346 16.903C8.44216 16.903 8.4248 16.8856 8.4248 16.8643C8.4248 16.843 8.44216 16.8257 8.46346 16.8257C8.48476 16.8257 8.50212 16.843 8.50212 16.8643Z" fill="#EAEBED"/>
<path d="M8.46368 16.9695C8.40583 16.9695 8.35889 16.9224 8.35889 16.8647C8.35889 16.807 8.40596 16.7598 8.46368 16.7598C8.52141 16.7598 8.56848 16.8068 8.56848 16.8647C8.56848 16.9226 8.52141 16.9695 8.46368 16.9695ZM8.46368 16.8372C8.44856 16.8372 8.4362 16.8496 8.4362 16.8647C8.4362 16.8798 8.44856 16.8922 8.46368 16.8922C8.4788 16.8922 8.49116 16.8798 8.49116 16.8647C8.49116 16.8496 8.4788 16.8372 8.46368 16.8372Z" fill="#2E2E2E"/>
<path d="M8.45316 25.1621H4.90807C4.66363 25.1621 4.48204 25.3879 4.53516 25.6265C4.73056 26.5042 5.10662 28.6275 5.11714 32.0082C5.11753 32.1153 5.16132 32.2186 5.24126 32.2898C5.51936 32.5378 6.34275 33.0394 8.45329 33.0394C10.5638 33.0394 11.3871 32.5378 11.6653 32.2898C11.7451 32.2185 11.7891 32.1152 11.7894 32.0082C11.8 28.6275 12.176 26.5042 12.3714 25.6265C12.4245 25.388 12.2428 25.1621 11.9985 25.1621H8.45342H8.45316Z" fill="#00B2FF"/>
<g opacity="0.6">
<path d="M11.8874 25.1621H11.0936C11.338 25.1621 11.5196 25.3879 11.4665 25.6265C11.2711 26.5042 10.895 28.6275 10.8845 32.0082C10.8841 32.1153 10.8403 32.2186 10.7604 32.2898C10.5004 32.5216 9.76381 32.9748 7.94531 33.0331C8.07233 33.0372 8.20435 33.0394 8.34228 33.0394C10.4527 33.0394 11.2761 32.5378 11.5543 32.2898C11.6341 32.2186 11.678 32.1152 11.6784 32.0082C11.689 28.6275 12.065 26.5042 12.2604 25.6265C12.3135 25.388 12.1318 25.1621 11.8875 25.1621H11.8874Z" fill="white"/>
</g>
<g opacity="0.3">
<path d="M9.4353 32.3663C7.78563 32.3663 7.14225 31.9741 6.92516 31.7804C6.86244 31.7244 6.82865 31.6423 6.82838 31.5582C6.8251 30.5374 6.77921 29.6634 6.7153 28.9356C6.58657 27.4701 7.7425 26.2107 9.21361 26.2107H12.0009C12.0437 25.9777 12.084 25.7817 12.1186 25.6265C12.1717 25.388 11.99 25.1621 11.7457 25.1621H4.65539C4.41108 25.1621 4.2291 25.3874 4.28222 25.6257C4.47761 26.5028 4.85367 28.6254 4.86432 32.0056C4.86472 32.1132 4.90798 32.2178 4.98818 32.2895C5.26602 32.5374 6.08928 33.0393 8.20048 33.0393C10.3117 33.0393 11.1343 32.5376 11.4125 32.2896C11.4865 32.2236 11.528 32.1299 11.5341 32.0314C11.1528 32.2006 10.5075 32.3663 9.43543 32.3663H9.4353Z" fill="#2E2E2E"/>
</g>
<path d="M8.45336 33.399C5.531 33.399 4.87474 32.4482 4.80952 32.3397C4.77586 32.2838 4.7581 32.2198 4.7581 32.1545C4.7581 28.7958 4.40058 26.6806 4.18744 25.7187C4.13787 25.4946 4.19178 25.2636 4.33523 25.0847C4.47882 24.9059 4.69288 24.8032 4.92247 24.8032H11.984C12.2136 24.8032 12.4275 24.9058 12.5712 25.0847C12.7148 25.2636 12.7686 25.4946 12.719 25.7187C12.5059 26.6809 12.1483 28.7966 12.1483 32.1547C12.1483 32.2199 12.1306 32.2839 12.0969 32.3398C12.0317 32.4483 11.3756 33.3991 8.4531 33.3991L8.45336 33.399ZM5.4767 32.0174C5.67143 32.1915 6.40133 32.6802 8.45336 32.6802C10.5054 32.6802 11.245 32.1835 11.43 32.0204C11.4395 28.6714 11.8008 26.5411 12.0174 25.5632C12.0183 25.5593 12.0209 25.5472 12.0108 25.5346C12.0006 25.5218 11.9882 25.5218 11.9841 25.5218H4.9226C4.91852 25.5218 4.90603 25.5218 4.8959 25.5346C4.88578 25.5472 4.88841 25.5593 4.88933 25.5632C5.10576 26.5406 5.4671 28.6692 5.4767 32.0175V32.0174Z" fill="#2E2E2E"/>
<path d="M8.45346 8.23666H4.80909C4.61409 8.23666 4.47037 8.05533 4.51429 7.86533C4.70285 7.04865 5.10902 4.88341 5.11743 1.35607C5.11757 1.27454 5.15004 1.19604 5.20869 1.13937C5.45142 0.904794 6.25258 0.359375 8.45346 0.359375C10.6543 0.359375 11.4555 0.904794 11.6982 1.13937C11.7569 1.19604 11.7892 1.27454 11.7895 1.35607C11.7979 4.88328 12.2041 7.04865 12.3926 7.86533C12.4365 8.05533 12.2927 8.23666 12.0978 8.23666H8.45346V8.23666Z" fill="#00B2FF"/>
<g opacity="0.6">
<path d="M12.1544 7.86533C11.9658 7.04865 11.5596 4.88341 11.5512 1.35607C11.5511 1.27454 11.5186 1.19604 11.46 1.13937C11.2172 0.904794 10.4161 0.359375 8.21519 0.359375C6.01432 0.359375 5.21788 0.901639 4.97266 1.13727C5.47153 0.937273 6.27664 0.753582 7.55367 0.753582C9.75454 0.753582 10.5557 1.299 10.7984 1.53358C10.8571 1.59025 10.8894 1.66875 10.8897 1.75027C10.898 5.24606 11.2969 7.40328 11.4877 8.23653H11.8597C12.0547 8.23653 12.1984 8.0552 12.1545 7.8652L12.1544 7.86533Z" fill="white"/>
</g>
<path d="M11.9392 8.59587H4.96694C4.72684 8.59587 4.50278 8.48871 4.35222 8.30173C4.20193 8.11515 4.145 7.874 4.19601 7.63994C4.40574 6.67823 4.75774 4.56861 4.75774 1.24442C4.75774 1.1792 4.77549 1.11516 4.80915 1.05928C4.87437 0.950802 5.5305 0 8.45299 0C11.3755 0 12.0316 0.950802 12.0968 1.05928C12.1305 1.11516 12.1482 1.1792 12.1482 1.24442C12.1482 4.56848 12.5002 6.6781 12.71 7.63981C12.761 7.87386 12.7041 8.11515 12.5539 8.30173C12.4033 8.48871 12.1793 8.59587 11.9392 8.59587V8.59587ZM5.47633 1.38156C5.46673 4.69444 5.11131 6.81656 4.8983 7.79313C4.89252 7.81969 4.90251 7.83928 4.91198 7.85099C4.92157 7.86295 4.93906 7.87715 4.96694 7.87715H11.9392C11.9672 7.87715 11.9845 7.86295 11.9941 7.85099C12.0036 7.83928 12.0136 7.81969 12.0078 7.79313C11.7948 6.81656 11.4394 4.69444 11.4298 1.38156C11.2351 1.20747 10.5052 0.718723 8.45312 0.718723C6.4011 0.718723 5.6712 1.20747 5.47646 1.38156H5.47633Z" fill="#2E2E2E"/>
<g opacity="0.3">
<path d="M4.51393 7.86533C4.70249 7.04865 5.10866 4.88341 5.11708 1.35607C5.11721 1.27454 5.14969 1.19604 5.20833 1.13937C5.45106 0.904794 6.25223 0.359375 8.4531 0.359375C10.5359 0.359375 11.3648 0.847728 11.6536 1.09887C10.0339 0.935826 8.27191 0.720314 7.25208 1.68242C6.08339 2.78497 5.07408 8.31292 12.2453 7.14424C12.3002 7.44785 12.3514 7.68822 12.3921 7.8652C12.4361 8.0552 12.2922 8.23653 12.0973 8.23653H4.8086C4.6136 8.23653 4.46989 8.0552 4.5138 7.8652L4.51393 7.86533Z" fill="#2E2E2E"/>
</g>
</svg>
