<svg width="28" height="28" viewBox="0 0 28 28" fill="none" xmlns="http://www.w3.org/2000/svg">
<path d="M7.28824 17.1811C9.28831 15.7528 9.38299 14.8948 10.7171 14.8948H15.3832C16.1451 14.8948 16.6213 16.6103 16.1451 16.991C15.6694 17.3728 15.0025 20.1348 15.9546 20.1348H17.0838L16.7987 14.5605L16.2614 14.155C16.1118 14.2533 15.944 14.3239 15.7523 14.3239H10.6217C10.0962 14.3239 9.66921 13.8967 9.66921 13.3714C9.66921 12.8455 10.0964 12.4189 10.6217 12.4189H13.1339L13.1216 12.4158C12.275 12.1538 11.7992 11.2552 12.0616 10.4076L13.3631 6.18413C13.624 5.33637 14.5232 4.86124 15.3704 5.12245L16.074 5.34009C16.8495 5.57886 17.3063 6.35255 17.1783 7.1317C17.7605 8.05829 18.936 9.64224 20.8475 11.0035C20.9464 11.0741 21.0153 11.1666 21.0682 11.268H21.3257C21.6599 10.6098 22.2604 10.1642 23.2626 10.133C23.2626 10.133 24.5018 11.4666 23.2626 12.9894C23.2626 12.9894 22.4997 13.0856 23.2626 14.0383C23.9646 14.9141 25.6709 16.5611 25.9389 18.8606C27.1421 19.3102 28 20.4656 28 21.8253C28 23.5758 26.5826 24.9935 24.8331 24.9935C23.2876 24.9935 22.0018 23.8855 21.7222 22.4205H13.4615C13.1831 23.8853 11.8979 24.9935 10.3518 24.9935C8.80683 24.9935 7.5205 23.8855 7.24203 22.4205H6.33417C5.00116 22.4209 5.28679 18.6113 7.288 17.1808L7.28824 17.1811ZM24.8336 23.615C25.8207 23.615 26.621 22.8141 26.621 21.8254C26.621 20.8378 25.8206 20.0381 24.8336 20.0381C23.8454 20.0381 23.0445 20.8378 23.0445 21.8254C23.0445 22.8142 23.8454 23.615 24.8336 23.615ZM21.4527 16.2776C21.1593 15.174 20.8414 13.6073 21.0152 12.3309H20.0326C19.7644 12.3309 19.5524 12.1306 19.5148 11.8729C18.2435 10.8913 17.2991 9.84503 16.6351 8.96898L15.9703 11.1234L18.567 13.0853L18.6156 13.1218C18.8725 13.318 19.0302 13.6334 19.013 13.9799L18.6981 20.1343H20.8818C20.8816 20.1343 22.0242 18.4192 21.4527 16.2776L21.4527 16.2776ZM10.3526 23.615C11.1313 23.615 11.7923 23.1154 12.0373 22.421H8.66816C8.91282 23.1154 9.57437 23.615 10.3526 23.615Z" fill="url(#paint0_linear_1_442)"/>
<path d="M5.14714 6.42529H8.17327C8.99934 6.42529 9.66895 7.0949 9.66895 7.92097V8.42537H3.65141V7.92097C3.65141 7.0949 4.32139 6.42529 5.14709 6.42529H5.14714Z" fill="url(#paint1_linear_1_442)"/>
<path d="M9.6689 11.876C9.6689 12.7015 8.99929 13.3717 8.17322 13.3717H5.14708C4.32158 13.3717 3.65141 12.7015 3.65141 11.876V9.16699H9.66895L9.6689 11.876Z" fill="url(#paint2_linear_1_442)"/>
<path d="M19.5882 2.84138H18.5969C18.5969 3.85733 17.774 4.68043 16.7585 4.68043C15.744 4.68043 14.9205 3.85751 14.9205 2.84138C14.9205 1.82638 15.744 1.00342 16.7585 1.00342C17.4945 1.00342 18.1245 1.43869 18.4183 2.06312H19.588C19.8031 2.06312 19.9777 2.23701 19.9777 2.45225C19.9777 2.6675 19.8035 2.84138 19.5882 2.84138H19.5882Z" fill="url(#paint3_linear_1_442)"/>
<defs>
<linearGradient id="paint0_linear_1_442" x1="16.7587" y1="5.05078" x2="16.7587" y2="24.9935" gradientUnits="userSpaceOnUse">
<stop stop-color="#F4F4F4"/>
<stop offset="1" stop-color="#F4F4F4" stop-opacity="0.26"/>
</linearGradient>
<linearGradient id="paint1_linear_1_442" x1="6.66018" y1="6.42529" x2="6.66018" y2="8.42537" gradientUnits="userSpaceOnUse">
<stop stop-color="#F4F4F4"/>
<stop offset="1" stop-color="#F4F4F4" stop-opacity="0.26"/>
</linearGradient>
<linearGradient id="paint2_linear_1_442" x1="6.66018" y1="9.16699" x2="6.66018" y2="13.3717" gradientUnits="userSpaceOnUse">
<stop stop-color="#F4F4F4"/>
<stop offset="1" stop-color="#F4F4F4" stop-opacity="0.26"/>
</linearGradient>
<linearGradient id="paint3_linear_1_442" x1="17.4491" y1="1.00342" x2="17.4491" y2="4.68043" gradientUnits="userSpaceOnUse">
<stop stop-color="#F4F4F4"/>
<stop offset="1" stop-color="#F4F4F4" stop-opacity="0.26"/>
</linearGradient>
</defs>
</svg>
