<svg width="25" height="24" viewBox="0 0 25 24" fill="none" xmlns="http://www.w3.org/2000/svg">
    <defs>
        <linearGradient id="paint0_linear_1_14232" x1="13.7587" y1="4.05078" x2="13.7587"
            y2="23.9935" gradientUnits="userSpaceOnUse">
            <stop stop-color="#F4F4F4" />
            <stop offset="1" stop-color="#F4F4F4" stop-opacity="0.26" />
        </linearGradient>
        <linearGradient id="paint1_linear_1_14232" x1="3.66018" y1="5.42578" x2="3.66018"
            y2="7.42585" gradientUnits="userSpaceOnUse">
            <stop stop-color="#F4F4F4" />
            <stop offset="1" stop-color="#F4F4F4" stop-opacity="0.26" />
        </linearGradient>
        <linearGradient id="paint2_linear_1_14232" x1="3.66018" y1="8.16797" x2="3.66018"
            y2="12.3727" gradientUnits="userSpaceOnUse">
            <stop stop-color="#F4F4F4" />
            <stop offset="1" stop-color="#F4F4F4" stop-opacity="0.26" />
        </linearGradient>
        <linearGradient id="paint3_linear_1_14232" x1="14.4492" y1="0.00390625" x2="14.4492"
            y2="3.68092" gradientUnits="userSpaceOnUse">
            <stop stop-color="#F4F4F4" />
            <stop offset="1" stop-color="#F4F4F4" stop-opacity="0.26" />
        </linearGradient>
    </defs>
    <path
        d="M4.28824 16.1811C6.28831 14.7528 6.38299 13.8948 7.71708 13.8948H12.3832C13.1451 13.8948 13.6213 15.6103 13.1451 15.991C12.6694 16.3728 12.0025 19.1348 12.9546 19.1348H14.0838L13.7987 13.5605L13.2614 13.155C13.1118 13.2533 12.944 13.3239 12.7523 13.3239H7.62172C7.0962 13.3239 6.66921 12.8967 6.66921 12.3714C6.66921 11.8455 7.09639 11.4189 7.62172 11.4189H10.1339L10.1216 11.4158C9.27496 11.1538 8.79922 10.2552 9.06156 9.40761L10.3631 5.18413C10.624 4.33637 11.5232 3.86124 12.3704 4.12245L13.074 4.34009C13.8495 4.57886 14.3063 5.35255 14.1783 6.1317C14.7605 7.05829 15.936 8.64224 17.8475 10.0035C17.9464 10.0741 18.0153 10.1666 18.0682 10.268H18.3257C18.6599 9.60982 19.2604 9.16424 20.2626 9.133C20.2626 9.133 21.5018 10.4666 20.2626 11.9894C20.2626 11.9894 19.4997 12.0856 20.2626 13.0383C20.9646 13.9141 22.6709 15.5611 22.9389 17.8606C24.1421 18.3102 25 19.4656 25 20.8253C25 22.5758 23.5826 23.9935 21.8331 23.9935C20.2876 23.9935 19.0018 22.8855 18.7222 21.4205H10.4615C10.1831 22.8853 8.89786 23.9935 7.35178 23.9935C5.80683 23.9935 4.5205 22.8855 4.24203 21.4205H3.33417C2.00116 21.4209 2.28679 17.6113 4.288 16.1808L4.28824 16.1811ZM21.8336 22.615C22.8207 22.615 23.621 21.8141 23.621 20.8254C23.621 19.8378 22.8206 19.0381 21.8336 19.0381C20.8454 19.0381 20.0445 19.8378 20.0445 20.8254C20.0445 21.8142 20.8454 22.615 21.8336 22.615ZM18.4527 15.2776C18.1593 14.174 17.8414 12.6073 18.0152 11.3309H17.0326C16.7644 11.3309 16.5524 11.1306 16.5148 10.8729C15.2435 9.89132 14.2991 8.84503 13.6351 7.96898L12.9703 10.1234L15.567 12.0853L15.6156 12.1218C15.8725 12.318 16.0302 12.6334 16.013 12.9799L15.6981 19.1343H17.8818C17.8816 19.1343 19.0242 17.4192 18.4527 15.2776L18.4527 15.2776ZM7.35263 22.615C8.13127 22.615 8.79227 22.1154 9.03729 21.421H5.66816C5.91282 22.1154 6.57437 22.615 7.35263 22.615V22.615Z"
        fill="url(#paint0_linear_1_14232)" />
    <path
        d="M2.14714 5.42578H5.17327C5.99934 5.42578 6.66895 6.09539 6.66895 6.92146V7.42585H0.65141V6.92146C0.65141 6.09539 1.32139 5.42578 2.14709 5.42578H2.14714Z"
        fill="url(#paint1_linear_1_14232)" />
    <path
        d="M6.6689 10.877C6.6689 11.7025 5.99929 12.3727 5.17322 12.3727H2.14708C1.32158 12.3727 0.651406 11.7025 0.651406 10.877V8.16797H6.66895L6.6689 10.877Z"
        fill="url(#paint2_linear_1_14232)" />
    <path
        d="M16.5883 1.84187H15.597C15.597 2.85781 14.7741 3.68092 13.7585 3.68092C12.744 3.68092 11.9206 2.858 11.9206 1.84187C11.9206 0.826871 12.744 0.00390625 13.7585 0.00390625C14.4945 0.00390625 15.1246 0.439176 15.4183 1.06361H16.5881C16.8032 1.06361 16.9778 1.2375 16.9778 1.45274C16.9778 1.66799 16.8035 1.84187 16.5883 1.84187H16.5883Z"
        fill="url(#paint3_linear_1_14232)" />

</svg>
