<svg width="21" height="22" viewBox="0 0 21 22" fill="none" xmlns="http://www.w3.org/2000/svg">
<path d="M7.49888 0C6.88211 0 6.37385 0.496922 6.37385 1.09994V1.46659H7.12387V1.09994C7.12387 0.890429 7.28459 0.733294 7.49888 0.733294H13.499C13.7133 0.733294 13.874 0.890429 13.874 1.09994V1.46659H14.624V1.09994C14.624 0.496922 14.1158 0 13.499 0H7.49888ZM16.4982 7.33378H19.4998C19.5123 7.33362 19.5247 7.33313 19.5371 7.331C19.729 7.31152 19.8743 7.15291 19.8733 6.96435V3.30002C19.8733 2.697 19.3657 2.19861 18.7489 2.19861L2.24687 2.19877C1.6301 2.19877 1.12335 2.6972 1.12335 3.30018V6.96451C1.12218 7.16731 1.28942 7.33247 1.49685 7.33329H4.4976V5.13554C4.49609 4.73272 4.83862 4.39718 5.25044 4.39865H6.74546C7.15663 4.39734 7.49865 4.73092 7.49831 5.13408V7.33329H13.4967V5.13554C13.4952 4.73272 13.8384 4.39718 14.2504 4.39865H15.7505C16.1596 4.39996 16.4978 4.73289 16.4976 5.13408L16.4982 7.33378ZM6.74886 8.7989V5.1331L5.24951 5.13327V8.79907L6.74886 8.7989ZM15.7482 5.1331H14.2497L14.2482 8.79744V8.80022H14.2512L15.7484 8.79891L15.7482 5.1331ZM2.24705 8.06695V20.8979C2.24705 21.5009 2.75749 22 3.37426 22H17.6254C18.2422 22 18.7489 21.5009 18.7489 20.8979V8.06695H16.4982V8.79748C16.4997 9.19817 16.161 9.53224 15.751 9.5337H14.251C13.839 9.53501 13.4958 9.20029 13.4973 8.79748V8.06695L7.49888 8.06711V8.79764C7.50038 9.20046 7.15785 9.53534 6.74603 9.53387L5.25101 9.5337C4.83901 9.53501 4.4965 9.20029 4.49817 8.79748V8.06695H2.24705ZM1.49703 12.5027C0.644371 12.6742 0 13.4149 0 14.2973V19.432C0 20.0351 0.506754 20.5335 1.12352 20.5335L1.49702 20.5333L1.49703 12.5027ZM19.4991 12.5027V20.5329H19.8735C20.4902 20.5329 21 20.0345 21 19.4315V14.2968C21 13.414 20.3526 12.6739 19.4991 12.5027ZM15.0938 20.0588L17.0625 19.4315C17.2684 19.4322 16.4976 16.298 16.4984 16.4993V16.8674C16.4984 17.6736 15.8229 18.334 14.9984 18.334H5.99905C5.17455 18.334 4.49833 17.6736 4.49833 16.8674V18.7647C4.59375 21.6772 15.0938 20.0588 15.0938 20.0588Z" fill="#D7D7D7"/>
</svg>
