<svg width="18" height="16" viewBox="0 0 18 16" fill="none" xmlns="http://www.w3.org/2000/svg">
<path d="M2.52375 2.28571V0H4.04756V2.28571H6.33328V3.80952H4.04756V6.09524H2.52375V3.80952H0.238037V2.28571H2.52375ZM4.80947 6.85714V4.57143H7.09518V2.28571H12.4285L13.8228 3.80952H16.238C17.0761 3.80952 17.7618 4.49524 17.7618 5.33333V14.4762C17.7618 15.3143 17.0761 16 16.238 16H4.04756C3.20947 16 2.52375 15.3143 2.52375 14.4762V6.85714H4.80947ZM10.1428 13.7143C12.2457 13.7143 13.9523 12.0076 13.9523 9.90476C13.9523 7.8019 12.2457 6.09524 10.1428 6.09524C8.03994 6.09524 6.33328 7.8019 6.33328 9.90476C6.33328 12.0076 8.03994 13.7143 10.1428 13.7143ZM7.7047 9.90476C7.7047 11.2533 8.79423 12.3429 10.1428 12.3429C11.4914 12.3429 12.5809 11.2533 12.5809 9.90476C12.5809 8.55619 11.4914 7.46667 10.1428 7.46667C8.79423 7.46667 7.7047 8.55619 7.7047 9.90476Z" fill="#BFBFBF"/>
</svg>
