<svg width="126" height="111" viewBox="0 0 126 111" fill="none" xmlns="http://www.w3.org/2000/svg">
<g clip-path="url(#clip0_514_9952)">
<path d="M90.2768 93.1541C91.5015 100.81 84.7958 108.231 75.3013 109.729C65.8055 111.226 57.116 106.233 55.8913 98.5775C54.6667 90.9216 89.0534 85.4995 90.2781 93.1554L90.2768 93.1541Z" fill="#FFD400"/>
<path d="M78.2846 89.4994C79.5525 93.333 79.4838 97.6894 78.5568 101.493C77.8179 104.526 76.536 107.402 74.6997 109.796C74.9006 109.77 75.099 109.759 75.3012 109.727C84.797 108.229 91.5014 100.81 90.2768 93.1524C89.8113 90.2431 84.5541 89.2254 78.2846 89.4981V89.4994Z" fill="#FFC000"/>
<path d="M112.074 68.9072L110.818 69.1054L103.705 44.6174C99.1175 29.4861 88.8714 19.5497 75.2579 16.9561C75.338 15.8423 75.3062 14.7046 75.1231 13.5543C73.8259 5.44 66.1512 -0.0920025 57.9818 1.19724C49.8124 2.48522 44.2411 10.107 45.5382 18.2188C45.743 19.4992 46.122 20.7051 46.6217 21.8403C34.5113 28.8926 27.6302 41.8899 28.8103 56.4276L29.5415 81.9221L27.6772 82.2163C21.5909 83.176 17.4413 88.8532 18.4078 94.8966C19.3743 100.94 25.0919 105.06 31.1782 104.101L115.575 90.7915C121.661 89.8318 125.81 84.1546 124.844 78.1112C123.877 72.0678 118.16 67.9475 112.074 68.9072ZM63.22 12.2398C63.2212 12.3156 63.2403 12.5441 63.2289 12.6881C63.2276 12.7045 63.2251 12.7221 63.2212 12.7386C63.1627 13.0088 63.1042 13.279 63.0203 13.5429C63.0101 13.5732 62.9974 13.6023 62.9822 13.6313C62.9593 13.6755 62.7291 14.1339 62.5816 14.3536C62.5727 14.3662 62.5638 14.3788 62.5536 14.3915C62.373 14.62 62.1657 14.8309 61.9508 15.0279C61.9254 15.0506 61.8987 15.0721 61.8694 15.091C61.8631 15.0948 61.858 15.0986 61.8516 15.1024C61.6876 15.2059 61.3417 15.4231 61.1751 15.5204C61.1674 15.5254 61.1598 15.5292 61.1522 15.533C61.1369 15.5418 61.1217 15.5494 61.1051 15.557C61.0886 15.5645 61.0721 15.5709 61.0555 15.5759C60.7821 15.6706 60.5049 15.7514 60.2251 15.8234C60.1895 15.8322 60.1526 15.8386 60.1157 15.8411C60.1094 15.8411 60.103 15.8411 60.0967 15.8411C59.9174 15.8487 59.4532 15.86 59.2726 15.86C59.2637 15.86 59.2548 15.86 59.2446 15.86C59.2256 15.86 59.2077 15.8575 59.1887 15.8562C59.1683 15.8537 59.148 15.8487 59.1264 15.8449C58.9445 15.8032 58.5312 15.7034 58.3519 15.6555C58.3468 15.6555 58.343 15.6529 58.3379 15.6517C58.329 15.6491 58.3188 15.6466 58.3099 15.6428C58.2896 15.6365 58.2705 15.6277 58.2514 15.6188C58.2425 15.6151 58.2324 15.61 58.2235 15.605C58.0492 15.5153 57.7046 15.3272 57.5329 15.2299C57.5278 15.2274 57.5215 15.2236 57.5164 15.2198C57.477 15.1971 57.4401 15.1706 57.407 15.1403C57.1934 14.9534 56.981 14.7627 56.7852 14.5569C56.7674 14.5379 56.7496 14.5177 56.733 14.4975C56.3858 14.0733 56.1671 13.5909 56.0794 13.0505C56.073 12.779 56.0667 12.5087 56.0603 12.2373C56.1226 11.7069 56.3108 11.2258 56.6249 10.7927C56.6529 10.7637 56.6809 10.7346 56.7076 10.7056C56.7572 10.5957 56.8004 10.4833 56.8678 10.3811C57.0281 10.0212 57.2697 9.71938 57.5901 9.47568C57.9017 9.20167 58.2565 9.02488 58.6546 8.94281C59.0412 8.79002 59.4456 8.74456 59.8652 8.80643C59.9046 8.81148 59.9453 8.8178 59.9835 8.82664C60.0013 8.83042 60.0204 8.83421 60.0382 8.83926C60.3052 8.9024 60.5774 8.96427 60.8419 9.03625C60.9004 9.05266 60.9589 9.07287 61.0136 9.09939C61.2704 9.22187 61.5222 9.35951 61.7651 9.50725C61.7842 9.51987 61.8046 9.5325 61.8224 9.54639C62.0436 9.71812 62.2382 9.92268 62.4366 10.1184C62.4519 10.1336 62.4646 10.1487 62.4773 10.1651C62.8537 10.6576 63.1144 11.1627 63.2047 11.7839C63.2251 11.9266 63.2161 12.164 63.2187 12.236L63.22 12.2398Z" fill="#FFD400"/>
<path d="M38.8949 79.9597C33.714 51.0622 38.7461 30.9873 54.4363 24.8252C45.6374 19.0015 48.364 9.55886 52.6242 3.13916C47.5437 6.17097 44.5514 12.0477 45.5382 18.2174C45.743 19.4978 46.122 20.7037 46.6217 21.8389C34.5113 28.8912 27.6302 41.8885 28.8103 56.4262L29.5415 81.9207L27.6772 82.2149C21.5909 83.1746 17.4413 88.8518 18.4078 94.8952C19.3743 100.939 25.0919 105.059 31.1782 104.099L36.6554 103.236C27.2385 102.89 22.2572 89.271 34.0662 84.3552C34.1286 84.3287 38.5515 80.1706 38.8962 79.9597H38.8949Z" fill="#FFDF00"/>
<path d="M112.074 68.9071L110.818 69.1053L103.705 44.6173C99.1175 29.486 88.8714 19.5496 75.2579 16.956C75.338 15.8423 75.3062 14.7046 75.1231 13.5542C74.0727 6.98803 68.8434 2.11517 62.5562 1.17822C63.4514 2.97256 66.9664 4.42722 68.0092 9.35059C69.9117 18.3235 67.9265 21.5132 68.3309 22.5966C68.5548 23.1977 87.2373 23.4414 93.2563 52.8339C94.7212 59.9897 96.5449 70.1016 91.5929 75.8647C100.326 78.9205 103.173 86.8416 97.4847 93.6452L115.572 90.7927C121.658 89.833 125.808 84.1558 124.841 78.1124C123.875 72.069 118.157 67.9487 112.071 68.9084L112.074 68.9071Z" fill="#FFC000"/>
<path d="M112.073 68.9071L110.818 69.1053L110.544 66.4902C109.143 67.1027 57.7146 79.7325 29.5083 78.4217L29.5376 81.8614C39.3474 84.7139 102.323 76.3471 112.072 68.9071H112.073Z" fill="#FF9E00"/>
<path d="M53.1279 30.2638C52.1385 28.8482 50.2767 28.1462 48.5867 28.5161C48.4506 28.5465 48.326 28.6083 48.1912 28.6437C48.1784 28.6437 48.1657 28.6374 48.153 28.6374C46.6155 28.6412 45.3235 29.1425 44.0925 30.0415C42.3706 31.2992 41.0493 33.0897 40.1566 35.0015C39.0718 37.3237 38.7501 40.2873 40.7924 42.1978C42.6911 43.9732 45.6121 43.727 47.8961 42.9441C51.3233 41.7697 54.1999 38.1343 54.2622 34.4939C54.2877 32.9546 54.0283 31.5492 53.1279 30.2625V30.2638Z" fill="#FCF600"/>
<path d="M44.5475 48.1733C44.3224 47.6884 43.9943 47.2881 43.5607 46.9737L42.8752 46.6012C42.3615 46.4042 41.8325 46.3486 41.2869 46.432L40.9435 46.4863C40.5251 46.5368 40.1525 46.6833 39.8232 46.927C39.4684 47.1063 39.1784 47.3639 38.9521 47.6997C38.7015 48.018 38.5451 48.3715 38.4828 48.7617C38.3505 49.1481 38.3264 49.5471 38.4078 49.9562C38.4866 50.2164 38.5642 50.4752 38.643 50.7353C38.8681 51.2202 39.1962 51.6205 39.6299 51.9349L40.3153 52.3074C40.8291 52.5044 41.3581 52.56 41.9037 52.4766L42.247 52.4223C42.6641 52.3731 43.038 52.2254 43.3674 51.9817C43.7222 51.8023 44.0121 51.5447 44.2398 51.2089C44.4903 50.8907 44.6467 50.5371 44.709 50.1469C44.8413 49.7605 44.8655 49.3615 44.7841 48.9524C44.7052 48.6923 44.6276 48.4334 44.5488 48.1733H44.5475Z" fill="#FCF600"/>
<path d="M46.5047 91.9377C40.7477 89.7279 34.117 90.2823 28.079 89.0296C24.3924 88.2657 23.7273 94.1096 27.4254 94.823C33.7203 96.0378 41.1584 97.077 46.7183 93.2699C47.2155 92.9289 47.0222 92.1347 46.5047 91.9364V91.9377Z" fill="#FCF600"/>
<path d="M56.981 89.4667L52.8442 90.0476C50.6543 90.3544 51.2012 93.7992 53.3834 93.4166L57.4973 92.6955C59.5842 92.3293 59.0819 89.1713 56.981 89.4667Z" fill="#FCF600"/>
<path d="M72.4206 111C65.247 111 58.5362 107.086 55.1001 100.652L56.8996 99.7036C60.4171 106.293 67.7739 109.923 75.1853 108.76C82.6057 107.589 88.4568 101.868 89.7463 94.5239L91.753 94.8712C90.3147 103.066 83.7858 109.451 75.5071 110.755C74.4744 110.918 73.4444 110.997 72.4219 110.997L72.4206 111Z" fill="black"/>
<path d="M29.4005 105.251C26.852 105.251 24.3773 104.457 22.2752 102.941C19.6428 101.045 17.912 98.2427 17.402 95.0543C16.3491 88.4704 20.8865 82.2628 27.5171 81.216L28.4976 81.062L27.7918 56.4552C26.6117 41.9314 33.1622 28.8811 45.3502 21.4184C44.9687 20.4094 44.694 19.3892 44.5325 18.3765C43.1489 9.72678 49.1106 1.57209 57.8218 0.199502C66.5367 -1.17813 74.7468 4.74406 76.1291 13.395C76.2716 14.2814 76.3326 15.202 76.3148 16.1389C89.8063 19.0482 100.116 29.2738 104.681 44.3268L111.549 67.9675L111.915 67.9107C118.556 66.8639 124.798 71.3706 125.85 77.9544C126.903 84.5395 122.366 90.7458 115.735 91.7914L31.3386 105.101C30.6913 105.203 30.044 105.253 29.4018 105.253L29.4005 105.251ZM60.3384 2.02162C59.6123 2.02162 58.8798 2.07844 58.1409 2.19461C50.5387 3.3942 45.3349 10.5109 46.5418 18.0595C46.7211 19.1821 47.0619 20.3173 47.5528 21.4348L47.9152 22.2568L47.1357 22.7114C35.1524 29.6905 28.6808 42.2635 29.824 56.3466L30.5832 82.7818L27.8363 83.2137C22.3159 84.085 18.5364 89.2558 19.4126 94.7373C19.8386 97.3941 21.2782 99.7264 23.4706 101.306C25.6605 102.886 28.3374 103.521 31.0169 103.102L115.413 89.7925C118.089 89.3695 120.438 87.9401 122.03 85.7631C123.621 83.5862 124.263 80.9244 123.838 78.2688C122.961 72.7861 117.746 69.0396 112.234 69.9033L110.09 70.243L102.727 44.895C98.23 30.063 88.4061 20.4877 75.066 17.9459L74.1771 17.7767L74.2432 16.8814C74.3221 15.7891 74.2801 14.7234 74.1173 13.7107C73.0262 6.89448 67.0785 2.02162 60.3372 2.02162H60.3384Z" fill="black"/>
<path d="M59.9479 17.4573C57.4528 17.4573 55.2528 15.6541 54.8509 13.1324C54.4046 10.3393 56.3299 7.70775 59.1416 7.26454C61.9432 6.81122 64.6049 8.73182 65.0512 11.525C65.4976 14.3181 63.5722 16.9497 60.7605 17.3929C60.4884 17.4358 60.2162 17.4573 59.9479 17.4573ZM59.953 9.22176C59.7902 9.22176 59.6262 9.23439 59.4596 9.25964C57.7568 9.52861 56.5906 11.1234 56.8602 12.8155C57.1311 14.5063 58.736 15.6554 60.4413 15.3965C62.1441 15.1275 63.3103 13.5327 63.0407 11.8407C62.7965 10.314 61.4625 9.22176 59.953 9.22176Z" fill="black"/>
<path d="M99.1493 13.9885C99.7495 14.3269 100.338 14.6855 100.911 15.0694C101.171 15.2436 101.427 15.4229 101.681 15.606C101.808 15.6982 101.933 15.7929 102.059 15.8851C102.362 16.1086 101.538 15.4697 101.961 15.8131C103.009 16.6604 104.001 17.5658 104.915 18.557C105.36 19.0394 105.753 19.5697 106.194 20.0534C106.011 19.8538 105.842 19.5937 106.118 19.9587C106.212 20.0837 106.305 20.2087 106.397 20.3362C106.598 20.614 106.793 20.8969 106.984 21.1835C107.728 22.3035 108.378 23.4791 108.939 24.6989C109.238 25.3505 110.097 25.9099 110.764 26.093C111.495 26.2925 112.468 26.2028 113.118 25.7874C114.622 24.8239 114.926 23.1862 114.214 21.6381C111.735 16.2475 107.418 11.6714 102.234 8.75322C100.844 7.97033 98.8326 8.38071 98.0556 9.84169C97.29 11.2799 97.6665 13.1551 99.1518 13.991L99.1493 13.9885Z" fill="black"/>
<path d="M108.369 10.2067C109.463 11.3811 110.557 12.5554 111.649 13.7297C111.926 14.0252 112.253 14.2348 112.632 14.3573C112.996 14.5467 113.389 14.6338 113.808 14.6187C114.229 14.6338 114.621 14.548 114.985 14.3573C115.364 14.2348 115.691 14.0265 115.968 13.7297C116.502 13.1514 116.899 12.3925 116.862 11.5856C116.825 11.3167 116.789 11.0477 116.752 10.78C116.607 10.2661 116.345 9.82032 115.966 9.4415C114.873 8.26717 113.779 7.09283 112.687 5.91849C112.41 5.62302 112.083 5.4134 111.704 5.29092C111.34 5.10151 110.947 5.01438 110.527 5.02954C110.106 5.01438 109.715 5.10025 109.351 5.29092C108.972 5.4134 108.645 5.62175 108.368 5.91849C107.834 6.49682 107.437 7.25572 107.474 8.0626C107.511 8.33157 107.547 8.60053 107.583 8.86822C107.728 9.38215 107.99 9.8279 108.369 10.2067Z" fill="black"/>
<path d="M12.6686 39.6397C12.8378 39.1447 13.0247 38.6573 13.2193 38.1724C13.3731 37.7873 13.1392 38.3176 13.1163 38.4161C13.1417 38.31 13.2129 38.1977 13.2587 38.0979C13.3668 37.8605 13.4787 37.6244 13.5944 37.3895C14.0573 36.4526 14.58 35.5434 15.1586 34.6721C15.432 34.2605 15.7207 33.8589 16.0145 33.4612C16.3286 33.0356 15.6762 33.8817 15.9102 33.5912C15.9839 33.5003 16.0552 33.4094 16.1289 33.3185C16.2942 33.1152 16.4621 32.9144 16.6338 32.7174C17.3218 31.927 18.0594 31.1832 18.8402 30.4824C20.0292 29.4167 20.014 27.2624 18.8402 26.1929C17.5698 25.035 15.7894 25.0552 14.5202 26.1929C10.9518 29.3927 8.32323 33.5167 6.77938 38.0272C6.26434 39.5311 7.36945 41.4088 8.91202 41.7573C10.6059 42.1399 12.118 41.2484 12.6686 39.6397Z" fill="black"/>
<path d="M5.69348 32.4469C6.80749 30.924 7.92022 29.4012 9.03423 27.8783C9.25805 27.5298 9.37886 27.1548 9.39667 26.7507C9.48696 26.3479 9.46915 25.9451 9.34198 25.541C9.14741 24.8377 8.59931 24.075 7.93803 23.729C7.22969 23.3578 6.37002 23.1709 5.58411 23.4234C5.34122 23.5257 5.09832 23.6267 4.85416 23.729C4.39507 23.9992 4.0301 24.3616 3.75795 24.8175C2.64394 26.3403 1.53121 27.8632 0.417198 29.386C0.193378 29.7345 0.0725669 30.1096 0.0547632 30.5137C-0.0355275 30.9165 -0.0177237 31.3193 0.109446 31.7233C0.304016 32.4267 0.852119 33.1894 1.5134 33.5354C2.22174 33.9079 3.08141 34.0935 3.86732 33.8409C4.11021 33.7387 4.35311 33.6376 4.59727 33.5354C5.05636 33.2651 5.42134 32.9027 5.69348 32.4469Z" fill="black"/>
</g>
<defs>
<clipPath id="clip0_514_9952">
<rect width="126" height="111" fill="white"/>
</clipPath>
</defs>
</svg>
