<svg width="34" height="34" viewBox="0 0 34 34" fill="none" xmlns="http://www.w3.org/2000/svg">
<path d="M15.6875 18.4167V18.6667H15.9375H18.0625H18.3125V18.4167V9.91673V9.66673H18.0625H15.9375H15.6875V9.91673V18.4167ZM17 22.5626C17.354 22.5626 17.6643 22.4268 17.9205 22.1706C18.1768 21.9144 18.3125 21.604 18.3125 21.2501C18.3125 20.8961 18.1768 20.5858 17.9205 20.3295C17.6643 20.0733 17.354 19.9376 17 19.9376C16.646 19.9376 16.3357 20.0733 16.0795 20.3295C15.8233 20.5858 15.6875 20.8961 15.6875 21.2501C15.6875 21.604 15.8233 21.9144 16.0795 22.1706C16.3357 22.4268 16.646 22.5626 17 22.5626ZM18.3107 30.7066C17.9583 31.0591 17.5269 31.2355 17 31.2355C16.4731 31.2355 16.0417 31.0591 15.6893 30.7066L3.29345 18.3108C2.94099 17.9583 2.76459 17.527 2.76459 17.0001C2.76459 16.4731 2.94099 16.0418 3.29345 15.6893L15.6893 3.29351C16.0417 2.94105 16.4731 2.76465 17 2.76465C17.5269 2.76465 17.9583 2.94105 18.3107 3.29351L30.7066 15.6893C31.059 16.0418 31.2354 16.4731 31.2354 17.0001C31.2354 17.527 31.059 17.9583 30.7066 18.3108L18.3107 30.7066Z" fill="#B92828" stroke="black" stroke-width="0.5"/>
</svg>
