<svg width="46" height="46" viewBox="0 0 46 46" fill="none" xmlns="http://www.w3.org/2000/svg">
<g filter="url(#filter0_d_1576_3241)">
<path d="M23.1064 20.6643C23.4134 20.6643 23.6672 20.5639 23.8679 20.3632C24.0686 20.1625 24.1689 19.9087 24.1689 19.6018V12.7309C24.1689 12.4476 24.0627 12.2056 23.8502 12.0049C23.6377 11.8042 23.3897 11.7038 23.1064 11.7038C22.7995 11.7038 22.5457 11.8042 22.345 12.0049C22.1443 12.2056 22.0439 12.4594 22.0439 12.7663V19.6372C22.0439 19.9205 22.1502 20.1625 22.3627 20.3632C22.5752 20.5639 22.8231 20.6643 23.1064 20.6643ZM23.0002 26.083C23.3307 26.083 23.6081 25.9709 23.8325 25.7466C24.0568 25.5222 24.1689 25.2448 24.1689 24.9143C24.1689 24.5837 24.0568 24.3063 23.8325 24.082C23.6081 23.8577 23.3307 23.7455 23.0002 23.7455C22.6696 23.7455 22.3922 23.8577 22.1679 24.082C21.9436 24.3063 21.8314 24.5837 21.8314 24.9143C21.8314 25.2448 21.9436 25.5222 22.1679 25.7466C22.3922 25.9709 22.6696 26.083 23.0002 26.083ZM23.0002 33.1663C20.9932 33.1663 19.1279 32.8063 17.4043 32.0861C15.6807 31.366 14.1814 30.3684 12.9064 29.0934C11.6314 27.8184 10.6338 26.3191 9.9137 24.5955C9.19357 22.8719 8.8335 21.0066 8.8335 18.9997C8.8335 17.0163 9.19357 15.1629 9.9137 13.4393C10.6338 11.7156 11.6314 10.2163 12.9064 8.94134C14.1814 7.66634 15.6807 6.66287 17.4043 5.93092C19.1279 5.19898 20.9932 4.83301 23.0002 4.83301C24.9835 4.83301 26.837 5.19898 28.5606 5.93092C30.2842 6.66287 31.7835 7.66634 33.0585 8.94134C34.3335 10.2163 35.337 11.7156 36.0689 13.4393C36.8009 15.1629 37.1668 17.0163 37.1668 18.9997C37.1668 21.0066 36.8009 22.8719 36.0689 24.5955C35.337 26.3191 34.3335 27.8184 33.0585 29.0934C31.7835 30.3684 30.2842 31.366 28.5606 32.0861C26.837 32.8063 24.9835 33.1663 23.0002 33.1663Z" fill="url(#paint0_linear_1576_3241)"/>
</g>
<defs>
<filter id="filter0_d_1576_3241" x="0.833496" y="0.833008" width="44.3335" height="44.333" filterUnits="userSpaceOnUse" color-interpolation-filters="sRGB">
<feFlood flood-opacity="0" result="BackgroundImageFix"/>
<feColorMatrix in="SourceAlpha" type="matrix" values="0 0 0 0 0 0 0 0 0 0 0 0 0 0 0 0 0 0 127 0" result="hardAlpha"/>
<feOffset dy="4"/>
<feGaussianBlur stdDeviation="4"/>
<feColorMatrix type="matrix" values="0 0 0 0 1 0 0 0 0 0.225 0 0 0 0 0.225 0 0 0 0.19 0"/>
<feBlend mode="normal" in2="BackgroundImageFix" result="effect1_dropShadow_1576_3241"/>
<feBlend mode="normal" in="SourceGraphic" in2="effect1_dropShadow_1576_3241" result="shape"/>
</filter>
<linearGradient id="paint0_linear_1576_3241" x1="23.0002" y1="4.83301" x2="23.0002" y2="33.1663" gradientUnits="userSpaceOnUse">
<stop stop-color="#F33636"/>
<stop offset="1" stop-color="#AE2B2B"/>
</linearGradient>
</defs>
</svg>
