<svg width="20" height="19" viewBox="0 0 20 19" fill="none" xmlns="http://www.w3.org/2000/svg">
<path d="M18.4372 4.49063L18.3545 4.36088C16.7878 1.90947 14.2424 0.339456 11.3739 0.0534153C11.2393 0.0397816 11.1074 0.0295953 10.9739 0.0219163C6.32098 -0.263611 2.43075 2.25785 0.832047 6.58641C0.741782 6.81176 0.64572 7.11862 0.547619 7.50222C0.51471 7.62117 0.485404 7.74795 0.452809 7.88131C0.450615 7.894 0.446227 7.90513 0.44419 7.91782C-0.0698012 10.1195 -0.139085 12.4672 0.243444 14.7535C0.264913 14.8884 0.288733 15.0256 0.314276 15.16C0.34123 15.3026 0.37022 15.447 0.401251 15.5888L0.909626 17.4582C1.18559 18.4649 2.18024 19.1008 3.20072 18.9384C3.23097 18.9337 3.26137 18.9288 3.29114 18.9221L17.6867 15.9698C18.4918 15.8046 19.1157 15.1778 19.2776 14.3745L19.8003 11.7993C20.3134 9.26493 19.8301 6.66777 18.437 4.49058L18.4372 4.49063ZM1.43523 14.4567C1.09736 12.3474 1.16992 10.189 1.64585 8.16303C1.67296 8.04706 1.69913 7.9394 1.72311 7.84255C1.76511 7.67848 1.8035 7.5423 1.83907 7.42713L11.1918 6.88618C11.9844 6.876 12.7324 7.20963 13.2545 7.80296C13.787 8.40693 14.0265 9.21054 13.9157 10.0077C13.769 11.061 13.0207 11.9346 12.0117 12.2339L1.50597 14.861C1.48043 14.7266 1.45661 14.5918 1.4353 14.4566L1.43523 14.4567Z" fill="#D7D7D7"/>
</svg>
