<svg width="20" height="21" viewBox="0 0 20 21" fill="none" xmlns="http://www.w3.org/2000/svg">
    <defs>
        <linearGradient id="paint0_linear_151_2588" x1="10" y1="0" x2="10" y2="20.0719" gradientUnits="userSpaceOnUse">
            <stop stop-color="#F4F4F4"/>
            <stop offset="1" stop-color="#F4F4F4" stop-opacity="0.26"/>
        </linearGradient>
    </defs>
    <path d="M10.8561 9.64566L14.0621 12.7958C14.2293 12.9631 14.313 13.1629 14.313 13.3952C14.313 13.6275 14.2293 13.8273 14.0621 13.9946C13.8948 14.1618 13.6997 14.2455 13.4766 14.2455C13.2536 14.2455 13.0585 14.1618 12.8912 13.9946L9.43438 10.5935C9.34145 10.5006 9.2764 10.403 9.23923 10.3008C9.20206 10.1986 9.18348 10.0917 9.18348 9.98019V5.21312C9.18348 4.97151 9.26246 4.77172 9.42044 4.61375C9.57841 4.45577 9.7782 4.37679 10.0198 4.37679C10.2614 4.37679 10.4612 4.45577 10.6192 4.61375C10.7771 4.77172 10.8561 4.97151 10.8561 5.21312V9.64566ZM9.88042 20.0719C7.27851 20.0719 5.07153 19.2356 3.25948 17.5629C1.44744 15.8903 0.364855 13.7994 0.0117379 11.2904C-0.0254322 11.0302 0.0256768 10.8072 0.165065 10.6214C0.304453 10.4355 0.504243 10.3333 0.764434 10.3147C0.987455 10.2961 1.1826 10.3658 1.34986 10.5238C1.51713 10.6818 1.61935 10.8723 1.65652 11.0953C1.97246 13.1768 2.88313 14.9145 4.38853 16.3084C5.89392 17.7023 7.72455 18.3992 9.88042 18.3992C12.2407 18.3992 14.2386 17.5722 15.8741 15.9181C17.5096 14.2641 18.3273 12.2569 18.3273 9.89656C18.3273 7.59201 17.5003 5.64522 15.8462 4.0562C14.1922 2.46717 12.2036 1.67266 9.88042 1.67266C8.61663 1.67266 7.43183 1.96073 6.32602 2.53686C5.22021 3.113 4.25843 3.87499 3.44069 4.82283H5.53151C5.77311 4.82283 5.97291 4.90182 6.13088 5.05979C6.28885 5.21776 6.36784 5.41755 6.36784 5.65916C6.36784 5.90077 6.28885 6.10056 6.13088 6.25853C5.97291 6.4165 5.77311 6.49549 5.53151 6.49549H1.37774C1.13614 6.49549 0.936346 6.4165 0.778373 6.25853C0.6204 6.10056 0.541413 5.90077 0.541413 5.65916V1.53327C0.541413 1.29166 0.6204 1.09187 0.778373 0.933901C0.936346 0.775928 1.13614 0.696941 1.37774 0.696941C1.61935 0.696941 1.81914 0.775928 1.97711 0.933901C2.13508 1.09187 2.21407 1.29166 2.21407 1.53327V3.65197C3.1805 2.51828 4.32812 1.6262 5.65696 0.975717C6.98579 0.325239 8.39361 0 9.88042 0C11.2743 0 12.5845 0.260191 13.8112 0.780574C15.0378 1.30096 16.1111 2.01184 17.031 2.91321C17.951 3.81459 18.6758 4.86929 19.2055 6.07732C19.7352 7.28535 20 8.58631 20 9.98019C20 11.3741 19.7352 12.6843 19.2055 13.9109C18.6758 15.1376 17.951 16.2062 17.031 17.1169C16.1111 18.0275 15.0378 18.7477 13.8112 19.2774C12.5845 19.8071 11.2743 20.0719 9.88042 20.0719Z" fill="url(#paint0_linear_151_2588)"/>

</svg>
