<svg width="24" height="21" viewBox="0 0 24 21" fill="none" xmlns="http://www.w3.org/2000/svg">
<path d="M8.80896 0L8.44193 0.157275L4.58801 1.70404L4.45688 1.75653L4.35209 1.86131L0.550654 5.63663L0 6.16093L0.602947 6.63274L4.66665 9.83123L5.11232 10.1983L5.53184 9.80508L5.61047 9.72645V20.9998L6.29207 21H18.0898V9.77906L18.5355 10.2247L19.0073 9.8577L22.9923 6.65921L23.5953 6.18739L23.0446 5.6631L19.2434 1.94012L19.1386 1.86148L19.0075 1.809L15.1274 0.183581L14.7603 0.0263065L14.4458 0.288553C13.7117 0.8915 12.7679 1.23237 11.7979 1.23237C10.8279 1.23237 9.88409 0.891491 9.1237 0.262383L8.80896 0Z" fill="#D7D7D7"/>
</svg>
