<svg width="364" height="266" viewBox="0 0 364 266" fill="none" xmlns="http://www.w3.org/2000/svg">
<path opacity="0.1" d="M172.901 32.3333C116.393 28.4692 96.3484 58.842 67.6281 90.2578C38.9077 121.674 25.6329 154.834 42.3219 202.038C59.0109 249.242 98.4159 261.245 160.263 261.245C222.11 261.245 285.802 267.823 318.057 242.145C350.313 216.468 361.302 157.797 314.567 127.096C287.041 109.014 251.018 37.6757 172.901 32.3333Z" fill="#FFFEF8"/>
<path d="M188.596 111.094C188.596 112.001 188.417 112.9 188.07 113.738C187.724 114.576 187.215 115.338 186.574 115.979C185.933 116.621 185.172 117.13 184.334 117.477C183.497 117.824 182.599 118.003 181.693 118.003C179.861 118.003 178.105 117.275 176.811 115.979C175.516 114.684 174.789 112.926 174.789 111.094V106.3C174.789 104.468 175.516 102.712 176.811 101.416C178.106 100.121 179.862 99.3931 181.693 99.3931C183.523 99.3931 185.279 100.121 186.574 101.416C187.868 102.712 188.596 104.469 188.596 106.3V111.094Z" fill="#DEC598"/>
<path d="M258.934 186.516C257.031 177.211 248.79 152.048 228.714 142.954C208.639 133.861 189.828 141.263 182.856 145.49C175.884 149.717 167.851 166.217 164.259 181.651C160.666 197.085 148.408 196.878 138.899 200.26L143.336 216.334L241.394 216.967L241.606 214.43C267.176 212.948 260.837 195.819 258.934 186.516ZM158.655 211.151C162.565 211.151 179.999 198.04 183.591 198.461C185.386 208.082 185.597 213.159 185.812 213.793C186.027 214.428 159.714 219.08 158.655 211.151Z" fill="#439801"/>
<path d="M193.492 149.934C192.225 155.995 187.011 193.073 195.889 217.461C202.79 218.023 213.075 217.461 213.075 217.461C211.104 204.632 207.158 169.105 215.329 148.805C207.158 148.945 193.492 149.934 193.492 149.934Z" fill="#FFE4B5"/>
<path d="M198 138.936C191.027 139.361 189.406 146.902 192.577 151.555C195.747 156.207 201.733 152.399 202.79 150.075C210.328 157.194 220.12 150.78 222.232 140.206C222.232 139.361 210.259 137.035 198 138.936Z" fill="#FFE4B5"/>
<path d="M217.866 100.715C217.548 93.6787 210.328 80.2518 193.211 81.0104C181.025 81.9482 179.544 93.4995 179.544 93.4995C179.122 94.7958 176.938 97.5397 176.938 97.5397C176.304 92.1272 179.724 77.7854 195.113 77.4011C212.441 76.9709 220.717 90.5383 221.037 100.284C219.662 102.556 217.866 100.715 217.866 100.715Z" fill="#DEC598"/>
<path d="M183.869 87.4022C178.016 91.4173 174.511 98.0917 177.476 104.732C180.442 111.372 181.284 114.3 178.408 119.495C174.36 126.808 172.655 133.627 175.7 139.833C194.056 137.296 202.135 135.231 202.135 135.231C202.135 135.231 195.036 86.6272 183.869 87.4022Z" fill="#31241C"/>
<path d="M211.118 120.845C211.118 120.845 215.658 134.534 216.088 140.318C216.48 145.623 198.942 149.16 197.698 143.601C196.402 136.986 194.473 125.741 194.473 125.741" fill="#C97440"/>
<path d="M212.576 126.562L211.118 120.845L194.474 125.741C194.474 125.741 195.067 129.196 195.827 133.526C198.994 134.144 202.273 133.813 205.252 132.574C208.231 131.335 210.779 129.243 212.576 126.562Z" fill="#AB5D2D"/>
<path d="M182.022 114.194C182.119 116.362 182.641 118.488 183.559 120.454C184.477 122.419 185.773 124.184 187.373 125.648C188.972 127.112 190.845 128.246 192.883 128.986C194.92 129.726 197.084 130.057 199.25 129.961C201.416 129.864 203.542 129.341 205.506 128.423C207.47 127.504 209.234 126.207 210.698 124.606C212.161 123.005 213.294 121.131 214.034 119.091C214.773 117.052 215.104 114.886 215.007 112.719L214.228 95.2675C214.132 93.1003 213.609 90.9733 212.691 89.0081C211.773 87.0429 210.477 85.2779 208.877 83.8139C207.277 82.35 205.404 81.2156 203.366 80.4758C201.328 79.7359 199.164 79.405 196.999 79.5018C194.833 79.5985 192.707 80.1211 190.743 81.0398C188.779 81.9585 187.015 83.2553 185.552 84.8561C184.089 86.4569 182.956 88.3304 182.216 90.3696C181.477 92.4088 181.146 94.5738 181.243 96.7409L182.022 114.194Z" fill="#C97440"/>
<path d="M203.809 96.1245C201.725 95.0046 198.989 94.4855 196.811 95.6098C195.996 96.0299 196.715 97.2588 197.527 96.8379C199.224 95.9618 201.483 96.4895 203.09 97.3527C203.897 97.7865 204.615 96.5583 203.806 96.1245H203.809Z" fill="#31241C"/>
<path d="M183.902 98.4278C184.395 97.9763 184.989 97.6495 185.634 97.4748C186.279 97.3002 186.956 97.2828 187.609 97.4241C188.504 97.6076 188.884 96.2368 187.987 96.0525C187.091 95.8525 186.161 95.8726 185.275 96.1111C184.389 96.3496 183.573 96.7993 182.899 97.4219C182.233 98.0543 183.24 99.0581 183.902 98.4257V98.4278Z" fill="#31241C"/>
<path d="M193.739 111.157C193.607 111.158 193.48 111.11 193.381 111.023L190.164 108.189C190.1 108.132 190.05 108.06 190.019 107.98C189.988 107.9 189.976 107.814 189.985 107.729C189.994 107.643 190.023 107.561 190.07 107.489C190.118 107.418 190.181 107.358 190.256 107.316L193.497 105.491C193.621 105.422 193.767 105.405 193.904 105.444C194.041 105.482 194.157 105.573 194.226 105.697C194.296 105.821 194.314 105.968 194.276 106.105C194.238 106.242 194.148 106.358 194.024 106.428L191.445 107.882L194.096 110.215C194.178 110.288 194.235 110.384 194.261 110.49C194.287 110.596 194.281 110.708 194.242 110.81C194.203 110.912 194.134 111 194.044 111.062C193.954 111.124 193.847 111.157 193.737 111.157H193.739Z" fill="#31241C"/>
<path d="M194.931 115.719C194.086 115.733 193.257 115.495 192.548 115.036C192.433 114.954 192.355 114.831 192.33 114.692C192.306 114.554 192.336 114.411 192.415 114.295C192.495 114.178 192.616 114.098 192.754 114.07C192.892 114.043 193.036 114.071 193.153 114.148C193.682 114.456 194.28 114.625 194.891 114.638C195.503 114.65 196.107 114.506 196.647 114.219C197.091 113.975 197.452 113.604 197.684 113.153C197.916 112.702 198.008 112.193 197.949 111.689C197.943 111.547 197.993 111.407 198.089 111.302C198.186 111.196 198.32 111.133 198.462 111.127C198.605 111.121 198.744 111.171 198.849 111.267C198.955 111.364 199.018 111.498 199.024 111.64C199.091 112.344 198.952 113.051 198.623 113.676C198.294 114.301 197.79 114.816 197.173 115.159C196.484 115.532 195.713 115.724 194.931 115.719Z" fill="#31241C"/>
<path d="M197.348 105.205C197.489 105.576 197.736 105.898 198.059 106.128C198.382 106.359 198.766 106.489 199.162 106.501C199.559 106.513 199.95 106.408 200.287 106.198C200.623 105.987 200.89 105.682 201.053 105.32C201.216 104.959 201.269 104.556 201.204 104.165C201.139 103.773 200.959 103.41 200.687 103.12C200.416 102.831 200.065 102.629 199.678 102.539C199.292 102.449 198.887 102.476 198.516 102.616C198.27 102.709 198.044 102.85 197.851 103.031C197.659 103.211 197.504 103.428 197.396 103.668C197.287 103.909 197.227 104.168 197.219 104.432C197.211 104.696 197.255 104.958 197.348 105.205Z" fill="#1A191F"/>
<path d="M185.352 105.923C185.492 106.295 185.739 106.616 186.061 106.848C186.384 107.079 186.768 107.209 187.164 107.222C187.561 107.235 187.952 107.13 188.289 106.92C188.626 106.71 188.893 106.405 189.057 106.044C189.221 105.682 189.274 105.28 189.209 104.888C189.144 104.496 188.965 104.132 188.693 103.843C188.422 103.553 188.071 103.35 187.684 103.26C187.298 103.17 186.893 103.197 186.522 103.337C186.024 103.525 185.621 103.903 185.402 104.388C185.182 104.873 185.164 105.425 185.352 105.923Z" fill="#1A191F"/>
<path d="M185.87 105.449C185.783 105.449 185.698 105.424 185.625 105.378L183.667 104.177C183.561 104.112 183.484 104.007 183.455 103.885C183.426 103.763 183.446 103.635 183.512 103.528C183.577 103.421 183.682 103.345 183.804 103.316C183.925 103.287 184.054 103.307 184.16 103.372L186.117 104.573C186.205 104.626 186.273 104.707 186.311 104.803C186.349 104.899 186.354 105.005 186.326 105.104C186.298 105.203 186.238 105.29 186.156 105.352C186.073 105.414 185.973 105.448 185.87 105.447V105.449Z" fill="#1A191F"/>
<path d="M200.087 104.743C199.987 104.743 199.889 104.711 199.808 104.651C199.727 104.592 199.667 104.508 199.637 104.412C199.607 104.316 199.608 104.213 199.641 104.117C199.673 104.022 199.736 103.94 199.818 103.883L201.865 102.463C201.968 102.396 202.093 102.372 202.213 102.396C202.334 102.42 202.44 102.49 202.51 102.591C202.58 102.692 202.608 102.816 202.587 102.937C202.567 103.058 202.501 103.166 202.403 103.239L200.355 104.659C200.277 104.714 200.183 104.743 200.087 104.743Z" fill="#1A191F"/>
<path d="M230.707 114.3C227.969 108.396 231.352 104.732 229.892 99.107C228.614 94.1878 222.763 94.3405 219.745 87.3722C215.12 76.6891 191.326 67.0687 182.454 88.7502C192.317 82.0586 202.426 85.5367 206.263 90.4839C214.002 100.46 206.061 104.686 209.048 110.619C211.224 114.941 212.65 117.852 209.836 124.395C207.021 130.937 210.961 137.157 210.961 137.157C220.169 136.138 230.579 135.231 240.036 133.628C240.039 117.662 233.443 120.203 230.707 114.3Z" fill="#31241C"/>
<path d="M188.842 196.031C180.817 196.735 177.714 199.133 170.527 202.939C163.341 206.746 161.793 207.592 163.483 208.297C159.256 208.578 161.721 210.833 164.681 209.845C162.709 210.692 165.456 211.609 169.4 210.132C170.387 211.683 175.459 210.98 178.7 209.146C181.94 207.313 189.688 205.761 196.733 208.159C197.579 203.785 194.902 196.176 194.902 196.176L188.842 196.031Z" fill="#C97440"/>
<path d="M193.95 196.137C198.282 195.186 210.399 194.201 217.585 194.622C218.007 200.26 214.908 211.68 214.908 211.68L195.746 207.449C195.746 207.449 196.699 201.42 193.95 196.137Z" fill="#439801"/>
<path d="M193.587 196.237C202.142 195 210.795 195.023 219.417 194.781C223.573 194.663 227.554 194.181 231.669 193.709C235.582 193.262 240.215 194.111 243.976 195.251C244.021 195.263 244.069 195.267 244.116 195.261C244.162 195.255 244.207 195.24 244.248 195.217C244.289 195.193 244.325 195.162 244.354 195.125C244.383 195.088 244.404 195.045 244.417 195C244.43 194.955 244.433 194.907 244.427 194.86C244.421 194.814 244.406 194.768 244.383 194.727C244.36 194.686 244.329 194.65 244.292 194.621C244.254 194.593 244.212 194.571 244.167 194.559C240.547 193.443 236.78 192.882 232.993 192.895C231.186 193.006 229.387 193.231 227.608 193.568C225.124 193.871 222.624 194.029 220.121 194.042C211.196 194.329 202.256 194.265 193.394 195.547C192.939 195.613 193.133 196.304 193.585 196.239L193.587 196.237Z" fill="#1F0E03"/>
<path d="M231.75 174.275C232.567 180.224 232.987 186.22 233.006 192.225C233.006 192.32 233.044 192.411 233.111 192.479C233.178 192.546 233.269 192.584 233.364 192.584C233.459 192.584 233.55 192.546 233.617 192.479C233.685 192.411 233.722 192.32 233.722 192.225C233.699 186.157 233.271 180.097 232.441 174.085C232.378 173.629 231.688 173.824 231.75 174.276V174.275Z" fill="#1F0E03"/>
<path d="M195.182 207.807C197.773 207.776 200.173 208.925 202.634 209.593C205.554 210.385 208.413 211.378 211.331 212.179C217.257 213.809 223.336 214.814 229.47 215.178C239.186 215.74 250.941 215.264 258.275 207.985C258.34 207.917 258.376 207.827 258.375 207.733C258.374 207.639 258.337 207.549 258.27 207.482C258.204 207.416 258.114 207.378 258.02 207.377C257.926 207.376 257.835 207.413 257.768 207.478C250.101 215.086 237.498 215.094 227.436 214.325C221.387 213.817 215.408 212.684 209.594 210.942C206.993 210.182 204.399 209.386 201.803 208.61C199.617 207.957 197.504 207.062 195.182 207.09C195.087 207.09 194.996 207.128 194.929 207.195C194.862 207.262 194.824 207.353 194.824 207.448C194.824 207.544 194.862 207.635 194.929 207.702C194.996 207.769 195.087 207.807 195.182 207.807Z" fill="#1F0E03"/>
<path d="M180.889 166.896C180.249 168.819 180.44 170.888 180.468 172.887C180.507 175.636 180.709 178.381 180.851 181.126C180.995 183.837 181.075 186.549 181.293 189.255C181.493 191.754 182.439 194.122 182.568 196.597C182.592 197.056 183.308 197.058 183.284 196.597C183.165 194.333 182.298 192.193 182.07 189.929C181.82 187.453 181.742 184.959 181.632 182.472C181.521 179.963 181.349 177.464 181.246 174.958C181.142 172.452 180.777 169.494 181.58 167.083C181.723 166.643 181.034 166.456 180.889 166.892V166.896Z" fill="#1F0E03"/>
<path d="M169.074 210.758C171.331 210.357 173.141 208.943 175.042 207.747C177.661 206.103 180.603 205.159 183.444 203.986C183.864 203.813 183.68 203.118 183.253 203.295C180.908 204.263 178.507 205.081 176.24 206.234C173.776 207.485 171.675 209.569 168.883 210.065C168.429 210.146 168.622 210.836 169.074 210.757V210.758Z" fill="#1F0E03"/>
<path d="M163.947 210.721C169.653 208.31 174.91 204.922 180.766 202.862C181.196 202.709 181.013 202.017 180.576 202.17C174.658 204.249 169.348 207.666 163.585 210.103C163.161 210.282 163.526 210.899 163.947 210.721Z" fill="#1F0E03"/>
<path d="M162.678 209.029C164.931 207.66 167.503 207.022 169.819 205.793C172.112 204.574 174.394 203.324 176.769 202.263C177.191 202.074 176.825 201.457 176.407 201.644C174.034 202.704 171.75 203.951 169.457 205.173C167.14 206.409 164.572 207.038 162.315 208.41C162.233 208.458 162.174 208.537 162.149 208.629C162.125 208.721 162.139 208.819 162.187 208.901C162.235 208.983 162.313 209.043 162.405 209.067C162.497 209.091 162.595 209.077 162.677 209.029H162.678Z" fill="#1F0E03"/>
<path d="M199.838 156.055C200.078 157.327 201.878 157.283 202.461 156.3C202.586 156.034 202.601 155.73 202.502 155.453C202.403 155.177 202.198 154.951 201.933 154.826C201.623 154.637 201.257 154.566 200.899 154.624C200.541 154.682 200.216 154.867 199.981 155.143C199.719 155.525 200.34 155.883 200.6 155.502C200.915 155.045 202.233 155.523 201.77 156.034C201.418 156.424 200.641 156.454 200.529 155.861C200.443 155.407 199.752 155.6 199.838 156.052V156.055Z" fill="#1F0E03"/>
<path d="M198.888 161.36C198.705 162.629 200.178 162.986 201.028 162.279C201.26 162.105 201.42 161.851 201.475 161.565C201.529 161.279 201.475 160.984 201.323 160.736C201.106 160.53 200.831 160.395 200.535 160.349C200.239 160.303 199.937 160.348 199.667 160.478C199.228 160.616 199.416 161.309 199.857 161.169C199.994 161.105 200.142 161.069 200.293 161.064C200.443 161.059 200.593 161.084 200.734 161.139C200.955 161.269 200.658 161.669 200.539 161.757C200.277 161.948 199.502 162.089 199.579 161.551C199.645 161.098 198.954 160.906 198.888 161.36Z" fill="#1F0E03"/>
<path d="M198.452 168.224C198.515 169.662 200.636 169.089 200.848 168.002C201.107 166.676 198.796 165.95 198.571 167.389C198.499 167.841 199.19 168.034 199.262 167.579C199.349 167.026 200.139 167.405 200.149 167.835C200.157 168.174 199.187 168.635 199.169 168.224C199.149 167.764 198.432 167.762 198.452 168.224Z" fill="#1F0E03"/>
<path d="M184.504 207.449C184.398 208.557 184.547 209.676 184.941 210.717C185.109 211.142 185.8 210.957 185.631 210.527C185.258 209.546 185.117 208.493 185.221 207.449C185.268 206.989 184.551 206.994 184.504 207.449Z" fill="#1F0E03"/>
<path d="M193.453 196.34C194.79 197.281 194.896 199.145 195.274 200.597C195.775 202.517 196.147 204.899 195.297 206.777C195.108 207.194 195.727 207.559 195.916 207.135C196.875 205.019 196.475 202.594 195.965 200.403C195.57 198.705 195.335 196.788 193.816 195.719C193.437 195.452 193.08 196.077 193.457 196.337L193.453 196.34Z" fill="#1F0E03"/>
<path d="M176.17 115.228C175.044 123.59 187.389 123.617 192.721 123.364C193.181 123.342 193.184 122.625 192.721 122.647C188.017 122.871 175.829 123.097 176.863 115.419C176.924 114.967 176.233 114.774 176.172 115.228H176.17Z" fill="#1F0E03"/>
<path d="M196.874 122.901C196.874 124.088 195.691 125.052 194.232 125.052C192.773 125.052 191.592 124.089 191.592 122.901C191.592 121.713 192.774 120.75 194.232 120.75C195.69 120.75 196.874 121.714 196.874 122.901Z" fill="#FFBC45"/>
<path d="M195.113 77.4012C186.335 77.6213 181.456 82.3799 178.998 87.4339C179.862 87.5304 180.704 87.765 181.493 88.1287C183.312 84.974 186.763 81.5074 193.211 81.0105C210.328 80.2519 217.548 93.6788 217.866 100.715C217.866 100.715 219.662 102.556 221.037 100.285C220.717 90.5385 212.441 76.9682 195.113 77.4012Z" fill="#DEC598"/>
<path d="M226.601 111.094C226.601 112.926 225.874 114.683 224.58 115.979C223.285 117.275 221.529 118.003 219.698 118.003C218.792 118.003 217.894 117.824 217.056 117.477C216.218 117.13 215.457 116.621 214.816 115.98C214.175 115.338 213.667 114.576 213.32 113.738C212.973 112.9 212.794 112.001 212.795 111.094V106.3C212.794 105.393 212.973 104.495 213.32 103.657C213.667 102.819 214.175 102.057 214.816 101.416C215.458 100.774 216.219 100.266 217.056 99.9185C217.894 99.5714 218.792 99.3929 219.698 99.3931C221.529 99.3933 223.285 100.121 224.579 101.416C225.874 102.712 226.601 104.469 226.601 106.3V111.094Z" fill="#DEC598"/>
<path d="M224.976 110.356C224.947 111.342 224.577 112.286 223.928 113.028C223.28 113.77 222.394 114.263 221.422 114.423C220.45 114.583 219.453 114.4 218.601 113.905C217.75 113.41 217.097 112.633 216.754 111.709C216.242 110.403 216.533 108.555 216.533 107.177C216.533 102.405 223.091 101.584 224.755 105.824C225.267 107.13 224.976 108.979 224.976 110.356C224.976 110.451 225.013 110.543 225.081 110.61C225.148 110.677 225.239 110.715 225.334 110.715C225.429 110.715 225.52 110.677 225.587 110.61C225.654 110.543 225.692 110.451 225.692 110.356C225.692 107.48 225.973 104.704 223.247 102.912C219.943 100.741 216.01 103.655 215.817 107.177C215.664 110.006 215.641 112.899 218.262 114.622C221.566 116.793 225.499 113.878 225.692 110.356C225.717 109.895 225 109.897 224.976 110.356Z" fill="#1F0E03"/>
<path d="M144.181 210.693H199.269C201.806 210.693 202.369 215.768 198.142 215.768H71.766C67.962 208.155 50.9149 161.633 49.2238 157.263C47.5328 152.893 49.0805 147.818 55.9872 147.818H104.452C109.524 147.818 115.159 148.661 118.681 156.417C122.203 164.172 144.181 210.693 144.181 210.693Z" fill="#5F7E91"/>
<path d="M199.443 215.567C199.6 215.51 199.753 215.442 199.899 215.363C199.912 215.358 199.925 215.351 199.937 215.344C202.101 214.131 201.359 210.693 199.269 210.693H144.181L144.138 210.599C144.113 210.547 144.079 210.475 144.032 210.375C143.836 209.961 143.454 209.15 142.914 208.009C138.185 198 121.692 163.046 118.681 156.419C115.159 148.663 109.524 147.82 104.452 147.82H99.9424C105.015 147.82 110.65 148.663 114.173 156.419C117.695 164.174 139.674 210.694 139.674 210.694L141.576 215.632C141.576 215.632 143.951 215.689 147.742 215.77H198.142C198.379 215.77 198.615 215.751 198.849 215.714C198.982 215.69 199.112 215.658 199.241 215.618C199.306 215.599 199.38 215.587 199.443 215.567Z" fill="#49687A"/>
<path d="M98.3946 182.499C99.7854 185.941 98.1374 188.73 94.7145 188.73C91.2916 188.73 87.3872 185.941 85.9971 182.499C84.607 179.058 86.2543 176.266 89.6779 176.266C93.1015 176.266 97.0031 179.057 98.3946 182.499Z" stroke="#E4C5B0" stroke-miterlimit="10"/>
<path d="M263.897 219.704H65.1638V251.226C86.9809 255.874 116.385 259.232 145.344 259.599C184.984 260.1 226.088 259.649 263.901 257.81L263.897 219.704Z" fill="#F5CDB3"/>
<path d="M272.144 218.918C272.144 219.822 271.785 220.688 271.147 221.327C270.508 221.966 269.642 222.325 268.739 222.325H60.32C59.4173 222.325 58.5516 221.966 57.9133 221.327C57.2751 220.688 56.9165 219.822 56.9165 218.918C56.9165 218.015 57.275 217.149 57.9133 216.51C58.5515 215.871 59.4172 215.512 60.32 215.511H268.739C269.642 215.511 270.508 215.87 271.147 216.509C271.785 217.148 272.144 218.015 272.144 218.918Z" fill="#C97440"/>
<path d="M51.0723 130.41C54.354 133.522 57.0339 133.522 57.0282 130.41C57.0224 127.298 57.011 122.208 57.0045 119.097C56.955 117.558 56.3006 116.1 55.1832 115.041C54.0659 113.982 52.576 113.407 51.0372 113.44H39.1255C35.8502 113.44 35.856 115.986 39.1377 119.097L51.0723 130.41Z" fill="#CDA867"/>
<path d="M48.5028 56H101.842C109.136 56 116.132 58.8993 121.289 64.0602C126.447 69.221 129.344 76.2206 129.344 83.5192V91.9C129.344 95.5137 128.633 99.0921 127.251 102.431C125.869 105.77 123.843 108.803 121.289 111.358C118.736 113.914 115.704 115.941 112.367 117.324C109.031 118.707 105.455 119.418 101.843 119.418H48.5021C44.8904 119.418 41.3141 118.707 37.9773 117.324C34.6406 115.941 31.6087 113.913 29.0549 111.358C26.5011 108.803 24.4753 105.769 23.0933 102.43C21.7112 99.091 20.9999 95.5125 21 91.8985V83.5199C21 76.2212 23.8976 69.2214 29.0554 64.0604C34.2131 58.8994 41.2086 56 48.5028 56Z" fill="#CDA867"/>
<path d="M74.1139 74.1982V70.9854H71.3014V74.1982H69.8121V67.001H71.3014V69.7451H74.1139V67.001H75.608V74.1982H74.1139ZM82.0582 71.0537H78.5621V72.9043H82.5465V74.1982H77.0924V67.001H82.3707V68.2754H78.5621V69.8037H82.0582V71.0537ZM83.7184 67.001H85.2223V72.9043H88.7867V74.1982H83.7184V67.001ZM92.8883 71.6104H91.36V74.1982H89.8658V67.001H93.0006C93.7233 67.001 94.2994 67.1865 94.7291 67.5576C95.1588 67.9287 95.3737 68.5033 95.3737 69.2812C95.3737 70.1309 95.1588 70.7314 94.7291 71.083C94.2994 71.4346 93.6858 71.6104 92.8883 71.6104ZM93.5914 70.1113C93.7867 69.9388 93.8844 69.6654 93.8844 69.291C93.8844 68.9167 93.7851 68.6497 93.5865 68.4902C93.3912 68.3307 93.1162 68.251 92.7614 68.251H91.36V70.3701H92.7614C93.1162 70.3701 93.3929 70.2839 93.5914 70.1113ZM98.3668 68.8516L97.9713 72.2109H97.2438L96.8385 68.8516V67.0254H98.3668V68.8516ZM98.3278 72.7871V74.1982H96.8727V72.7871H98.3278Z" fill="#FFF2DB"/>
<path d="M119.103 80.8921H70.1887V84.0748H119.103V80.8921Z" fill="#FFF2DB"/>
<path d="M112.429 88.624H70.1887V91.806H112.429V88.624Z" fill="#FFF2DB"/>
<path d="M98.2067 96.3569H70.1887V99.5389H98.2067V96.3569Z" fill="#FFF2DB"/>
<path d="M115.503 104.087H70.1887V107.271H115.503V104.087Z" fill="#FFF2DB"/>
<path d="M281.512 90H335.005C342.567 90 349.819 93.0059 355.166 98.3565C360.514 103.707 363.518 110.964 363.518 118.531V126.159C363.518 133.726 360.514 140.983 355.166 146.333C349.819 151.684 342.567 154.69 335.005 154.69H281.513C273.951 154.69 266.699 151.684 261.351 146.333C256.004 140.983 253 133.726 253 126.159V118.53C253 110.963 256.004 103.707 261.351 98.3563C266.698 93.0058 273.95 90 281.512 90V90Z" fill="#CDA867"/>
<path d="M275.062 165.903C271.714 169.075 268.98 169.075 268.987 165.903C268.993 162.73 269.004 157.536 269.011 154.363C269.061 152.793 269.729 151.306 270.869 150.226C272.008 149.146 273.528 148.559 275.098 148.593H287.248C290.589 148.593 290.584 151.189 287.236 154.363L275.062 165.903Z" fill="#CDA867"/>
<path d="M273.284 102.405V103.679H271.131V109.602H269.617V103.679H267.454V102.405H273.284ZM278.46 109.602V106.389H275.647V109.602H274.158V102.405H275.647V105.149H278.46V102.405H279.954V109.602H278.46ZM285.608 108.123H282.957L282.459 109.602H280.886L283.455 102.405H285.154L287.703 109.602H286.072L285.608 108.123ZM285.188 106.882L284.29 104.05L283.362 106.882H285.188ZM294.441 109.602H292.937L289.998 104.49V109.602H288.596V102.405H290.174L293.04 107.429V102.405H294.441V109.602ZM302.224 109.602H300.291L298.069 106.458L297.351 107.195V109.602H295.872V102.405H297.351V105.369L300.13 102.405H302.073L299.124 105.369L302.224 109.602ZM305.686 108.562C306.041 108.562 306.329 108.523 306.551 108.445C306.97 108.295 307.18 108.017 307.18 107.61C307.18 107.372 307.076 107.188 306.868 107.058C306.66 106.931 306.332 106.819 305.886 106.721L305.125 106.55C304.376 106.381 303.858 106.197 303.572 105.999C303.087 105.667 302.844 105.147 302.844 104.441C302.844 103.796 303.079 103.261 303.548 102.834C304.016 102.408 304.705 102.195 305.613 102.195C306.372 102.195 307.018 102.397 307.552 102.8C308.089 103.201 308.37 103.783 308.396 104.548H306.951C306.925 104.115 306.736 103.808 306.385 103.625C306.15 103.505 305.859 103.445 305.51 103.445C305.123 103.445 304.814 103.523 304.583 103.679C304.352 103.835 304.236 104.054 304.236 104.333C304.236 104.591 304.35 104.783 304.578 104.91C304.724 104.994 305.037 105.094 305.515 105.208L306.756 105.505C307.299 105.636 307.709 105.81 307.986 106.028C308.416 106.366 308.631 106.856 308.631 107.498C308.631 108.155 308.378 108.702 307.874 109.138C307.372 109.571 306.663 109.788 305.745 109.788C304.807 109.788 304.07 109.574 303.533 109.148C302.996 108.718 302.727 108.129 302.727 107.38H304.163C304.208 107.709 304.298 107.955 304.431 108.118C304.676 108.414 305.094 108.562 305.686 108.562ZM311.609 104.255L311.214 107.615H310.486L310.081 104.255V102.429H311.609V104.255ZM311.57 108.191V109.602H310.115V108.191H311.57Z" fill="#FFF2DB"/>
<path d="M315.868 116.751H265.972V119.997H315.868V116.751Z" fill="#FFF2DB"/>
<path d="M309.06 124.638H265.972V127.886H309.06V124.638Z" fill="#FFF2DB"/>
<path d="M294.551 132.525H265.972V135.772H294.551V132.525Z" fill="#FFF2DB"/>
<path d="M322 138.218C323.845 133.729 330.23 130.521 333.492 130.563H344.508C348.13 130.897 354.156 133.729 356 138.218C351.455 142.566 345.353 145 339 145C332.647 145 326.545 142.566 322 138.218Z" fill="#439801"/>
<g clip-path="url(#clip0_80_1325)">
<path d="M326.09 108.51C326.09 108.51 322.631 117.356 325.618 122.097C328.606 126.837 330.964 122.808 330.964 122.808L327.898 109.218L326.09 108.51Z" fill="#6D6D6D"/>
<path d="M342.597 124.151L342.755 129.206C342.755 129.206 338.354 132.841 335.47 132.683C332.587 132.526 333.007 131.735 333.007 131.735L332.955 128.206C332.955 128.206 339.872 124.204 342.597 124.151Z" fill="#C17638"/>
<path d="M327.468 122.375C327.782 127.747 330.728 129.049 333.244 129.839C335.76 130.628 340.365 128.353 342.032 125.523C342.036 125.512 342.041 125.503 342.048 125.494C342.129 125.352 342.208 125.209 342.277 125.065C343.124 123.232 343.502 121.216 343.377 119.2C343.377 119.2 343.455 117.411 343.364 115.304C343.273 113.196 343.009 110.775 342.33 109.511C340.965 106.983 336.853 106.378 335.045 106.378C333.237 106.378 329.778 107.721 328.363 109.617C326.949 111.514 327.373 120.795 327.468 122.375Z" fill="#E1964F"/>
<path d="M343.344 114.747C343.804 114.802 344.242 114.972 344.619 115.241C344.997 115.511 345.301 115.87 345.505 116.288C346.252 117.749 345.702 121.067 343.109 121.423C340.515 121.779 343.344 114.747 343.344 114.747Z" fill="#E1964F"/>
<path d="M327.505 110.287C329.33 110.734 331.217 110.868 333.086 110.682C334.969 110.62 336.846 110.435 338.706 110.129C338.516 111.478 338.679 112.852 339.178 114.119C340.003 115.896 340.907 115.501 341.143 116.883C341.378 118.265 341.301 119.016 342.007 118.977C342.714 118.937 342.657 115.836 343.088 115.165C343.52 114.493 345.014 115.461 345.152 115.777C345.291 116.093 347.234 110.249 343.482 108.213C343.482 108.213 342.322 105.33 337.33 105.113C332.339 104.895 328.35 106.673 327.505 110.287Z" fill="#151A25"/>
<path d="M338.143 115.434C337.925 115.127 337.633 114.88 337.293 114.719C336.953 114.558 336.578 114.487 336.204 114.513C334.789 114.513 334.658 115.382 334.212 115.303C333.767 115.225 333.951 113.776 335.392 113.486C336.834 113.197 338.169 113.881 338.143 115.434Z" fill="#151A25"/>
<path d="M327.816 115.409C327.983 115.118 328.225 114.879 328.517 114.716C328.809 114.554 329.14 114.475 329.473 114.487C330.682 114.487 330.794 115.356 331.175 115.277C331.555 115.198 331.399 113.749 330.166 113.46C329.877 113.367 329.57 113.349 329.272 113.406C328.975 113.464 328.696 113.596 328.462 113.79C328.228 113.984 328.047 114.234 327.934 114.516C327.821 114.799 327.78 115.106 327.816 115.409Z" fill="#151A25"/>
<path d="M335.287 116.942C335.287 117.39 335.498 117.752 335.758 117.752C336.018 117.752 336.23 117.39 336.23 116.942C336.23 116.494 336.019 116.133 335.758 116.133C335.497 116.133 335.287 116.498 335.287 116.942Z" fill="#151A25"/>
<path d="M329.824 116.903C329.824 117.35 330.035 117.712 330.295 117.712C330.556 117.712 330.768 117.35 330.768 116.903C330.768 116.456 330.556 116.093 330.295 116.093C330.035 116.093 329.824 116.455 329.824 116.903Z" fill="#151A25"/>
<path d="M342.695 117.081L340.612 119.786L340.907 120.023L342.597 117.712L342.695 117.081Z" fill="#EFF5E1"/>
<path d="M325.093 110.301C325.128 115.231 336.774 112.949 339.104 112.446C339.361 112.39 339.506 112.354 339.506 112.354C339.506 112.354 340.082 121.464 341.443 123.622C342.141 124.728 344.279 125.158 346.295 124.255H346.304C348.222 123.389 350.023 121.313 350.354 117.464C351.033 109.565 348.099 102.878 340.607 101.403C333.116 99.9273 325.043 102.452 325.093 110.301Z" fill="#FAD03A"/>
<path d="M339.104 112.443C339.361 112.387 339.506 112.351 339.506 112.351C339.506 112.351 340.082 121.462 341.443 123.62C342.141 124.725 344.279 125.155 346.295 124.252C345.672 124.359 343.968 124.511 343.122 123.146C342.072 121.462 340.555 111.746 340.555 111.746L339.14 111.193L339.104 112.443Z" fill="#6D6D6D"/>
<path d="M340.58 111.9C340.567 111.683 340.495 111.473 340.373 111.293C340.25 111.113 340.082 110.97 339.885 110.879C339.217 110.602 332.693 108.943 329.941 109.102C327.19 109.26 323.965 110.445 323.415 111.511C322.865 112.577 329.782 113.604 334.223 113.407C338.664 113.21 340.58 111.9 340.58 111.9Z" fill="#3D3A3A"/>
<path d="M345.348 115.541C345.348 117.678 346.307 119.411 347.49 119.411C348.673 119.411 349.632 117.677 349.632 115.541C349.632 113.404 348.673 111.67 347.49 111.67C346.307 111.67 345.348 113.403 345.348 115.541Z" fill="#E0BD40"/>
<path d="M340.761 110.189C340.761 110.189 333.073 106.205 325.869 109.517C326.393 107.992 327.288 106.622 328.472 105.532C330.167 104.242 332.855 103.168 336.766 104.756C337.848 105.229 338.788 105.98 339.49 106.934C340.191 107.887 340.63 109.011 340.761 110.189Z" fill="#E0BD40"/>
<path d="M344.011 130.702L342.794 127.883C342.794 127.883 337.343 131.5 335.276 131.661L334.909 132.619L334.486 131.502C334.486 131.502 333.215 131.183 332.898 130.704C332.581 130.225 332.104 132.884 332.104 132.884C332.104 132.884 332.581 134.002 335.756 134.002C338.931 134.002 344.011 130.702 344.011 130.702Z" fill="#152D40"/>
<path d="M332.567 121.809C332.531 121.809 332.496 121.802 332.463 121.787C332.43 121.773 332.401 121.751 332.377 121.725L331.289 120.518C331.262 120.487 331.242 120.451 331.232 120.412C331.222 120.373 331.221 120.332 331.23 120.293C331.239 120.254 331.258 120.217 331.284 120.186C331.31 120.155 331.344 120.131 331.381 120.116L332.689 119.578C332.751 119.555 332.819 119.558 332.879 119.584C332.939 119.61 332.987 119.659 333.012 119.719C333.037 119.779 333.038 119.846 333.014 119.907C332.99 119.967 332.944 120.017 332.884 120.044L331.908 120.446L332.757 121.388C332.79 121.424 332.811 121.469 332.819 121.517C332.826 121.565 332.819 121.615 332.799 121.659C332.779 121.704 332.746 121.741 332.705 121.768C332.664 121.794 332.616 121.808 332.567 121.809L332.567 121.809Z" fill="#31241C"/>
<path d="M332.469 125.269C331.773 125.269 331.298 124.536 331.024 123.027C331.017 122.987 331.02 122.947 331.032 122.908C331.043 122.87 331.064 122.835 331.092 122.806C331.121 122.778 331.156 122.756 331.194 122.743C331.232 122.73 331.273 122.726 331.313 122.732C331.896 122.819 332.485 122.862 333.075 122.859C333.481 122.859 333.92 122.843 334.424 122.81C334.47 122.807 334.516 122.816 334.558 122.837C334.599 122.858 334.634 122.89 334.658 122.929C334.682 122.968 334.696 123.013 334.696 123.059C334.696 123.105 334.684 123.151 334.66 123.19C333.827 124.591 333.109 125.269 332.469 125.269ZM331.595 123.279C331.808 124.228 332.12 124.764 332.469 124.764C332.693 124.764 333.172 124.567 333.967 123.341C333.176 123.391 332.382 123.371 331.595 123.281V123.279Z" fill="#31241C"/>
</g>
<path d="M64 101.218C62.1547 96.7287 55.7703 93.5211 52.5083 93.5629H41.4917C37.8704 93.8974 31.8444 96.7287 30 101.218C34.5455 105.566 40.6468 108 47 108C53.3532 108 59.4545 105.566 64 101.218Z" fill="#439801"/>
<g clip-path="url(#clip1_80_1325)">
<path d="M59.9104 71.5098C59.9104 71.5098 63.3687 80.3557 60.3816 85.0966C57.3945 89.8375 55.0363 85.808 55.0363 85.808L58.1023 72.2184L59.9104 71.5098Z" fill="#6D6D6D"/>
<path d="M43.4031 87.1514L43.2454 92.2065C43.2454 92.2065 47.6463 95.8407 50.5298 95.6831C53.4134 95.5255 52.9925 94.7349 52.9925 94.7349L53.0448 91.2058C53.0448 91.2058 46.128 87.2039 43.4031 87.1514Z" fill="#C17638"/>
<path d="M58.5323 85.3748C58.2178 90.7469 55.2719 92.0489 52.7561 92.8386C50.2402 93.6283 45.6348 91.3532 43.9679 88.5225C43.9642 88.5123 43.9589 88.5027 43.9524 88.494C43.8708 88.3521 43.7919 88.2092 43.7231 88.0646C42.8765 86.232 42.4983 84.2161 42.6229 82.1995C42.6229 82.1995 42.545 80.411 42.6357 78.3036C42.7265 76.1962 42.9915 73.7747 43.67 72.5114C45.0352 69.9829 49.1473 69.3784 50.9554 69.3784C52.7634 69.3784 56.2218 70.721 57.6365 72.6173C59.0513 74.5137 58.6267 83.7955 58.5323 85.3748Z" fill="#E1964F"/>
<path d="M42.6558 77.7471C42.1964 77.8025 41.758 77.9724 41.3806 78.2415C41.0031 78.5106 40.6987 78.8702 40.4948 79.2877C39.7476 80.7492 40.2977 84.0673 42.8915 84.423C45.4853 84.7787 42.6558 77.7471 42.6558 77.7471Z" fill="#E1964F"/>
<path d="M58.4946 73.2874C56.6698 73.7344 54.7828 73.8677 52.9137 73.6818C51.0306 73.6195 49.1535 73.4349 47.2942 73.1289C47.4836 74.4775 47.3209 75.8525 46.8221 77.1188C45.9969 78.8963 45.0928 78.501 44.8572 79.8832C44.6216 81.2654 44.6995 82.0163 43.9926 81.9767C43.2857 81.9371 43.3435 78.8364 42.9116 78.1647C42.4798 77.4929 40.9862 78.4614 40.8478 78.7774C40.7093 79.0935 38.7656 73.2487 42.5183 71.2132C42.5183 71.2132 43.6781 68.33 48.6695 68.1125C53.6609 67.8951 57.6502 69.6725 58.4946 73.2874Z" fill="#151A25"/>
<path d="M47.8572 78.4342C48.0749 78.1266 48.3675 77.8803 48.707 77.719C49.0466 77.5576 49.4217 77.4866 49.7964 77.5128C51.2111 77.5128 51.3422 78.3817 51.7878 78.3034C52.2334 78.225 52.0491 76.7756 50.6078 76.4863C49.1665 76.1969 47.8306 76.8806 47.8572 78.4342Z" fill="#151A25"/>
<path d="M58.1838 78.4086C58.0172 78.118 57.7749 77.8787 57.4829 77.7163C57.191 77.5539 56.8605 77.4747 56.527 77.4871C55.3177 77.4871 55.2058 78.3561 54.8253 78.2768C54.4448 78.1976 54.6007 76.7491 55.8339 76.4597C56.1227 76.3671 56.4301 76.3488 56.7278 76.4065C57.0254 76.4642 57.304 76.596 57.5378 76.79C57.7717 76.9839 57.9533 77.2337 58.0662 77.5165C58.179 77.7993 58.2195 78.106 58.1838 78.4086Z" fill="#151A25"/>
<path d="M50.7133 79.9418C50.7133 80.3897 50.5024 80.7518 50.242 80.7518C49.9816 80.7518 49.7698 80.3897 49.7698 79.9418C49.7698 79.494 49.9807 79.1328 50.242 79.1328C50.5033 79.1328 50.7133 79.4977 50.7133 79.9418Z" fill="#151A25"/>
<path d="M56.1759 79.9032C56.1759 80.3501 55.965 80.7123 55.7046 80.7123C55.4442 80.7123 55.2324 80.3501 55.2324 79.9032C55.2324 79.4563 55.4442 79.0933 55.7046 79.0933C55.965 79.0933 56.1759 79.4554 56.1759 79.9032Z" fill="#151A25"/>
<path d="M43.3049 80.0811L45.3881 82.7864L45.0928 83.0233L43.4031 80.7123L43.3049 80.0811Z" fill="#EFF5E1"/>
<path d="M60.907 73.301C60.8722 78.2308 49.2262 75.9493 46.8964 75.4462C46.6388 75.39 46.4939 75.354 46.4939 75.354C46.4939 75.354 45.9181 84.4644 44.5566 86.6225C43.8588 87.7282 41.7207 88.1576 39.7054 87.2546H39.6963C37.7782 86.3894 35.9765 84.3133 35.6465 80.4644C34.9671 72.5648 37.901 65.8778 45.3927 64.4026C52.8844 62.9273 60.9565 65.4521 60.907 73.301Z" fill="#FAD03A"/>
<path d="M46.8964 75.4433C46.6387 75.3871 46.4939 75.3511 46.4939 75.3511C46.4939 75.3511 45.9181 84.4615 44.5565 86.6196C43.8588 87.7253 41.7207 88.1547 39.7054 87.2517C40.3279 87.3586 42.0324 87.5106 42.8778 86.146C43.9276 84.4625 45.445 74.7457 45.445 74.7457L46.8597 74.1929L46.8964 75.4433Z" fill="#6D6D6D"/>
<path d="M45.4202 74.9004C45.4333 74.6828 45.5048 74.4729 45.6272 74.293C45.7496 74.113 45.9182 73.9698 46.1152 73.8785C46.7827 73.6021 53.3071 71.9435 56.0586 72.102C58.8101 72.2604 62.0347 73.4445 62.5848 74.5106C63.1349 75.5768 56.2181 76.6042 51.7768 76.407C47.3355 76.2098 45.4202 74.9004 45.4202 74.9004Z" fill="#3D3A3A"/>
<path d="M40.6516 78.5405C40.6516 80.6783 39.6926 82.4106 38.5098 82.4106C37.3271 82.4106 36.368 80.6774 36.368 78.5405C36.368 76.4037 37.3271 74.6704 38.5098 74.6704C39.6926 74.6704 40.6516 76.4027 40.6516 78.5405Z" fill="#E0BD40"/>
<path d="M45.2386 73.1893C45.2386 73.1893 52.9274 69.205 60.1312 72.5167C59.6068 70.9916 58.7121 69.6222 57.5282 68.5323C55.833 67.2423 53.1447 66.1679 49.2343 67.7565C48.1516 68.2287 47.212 68.9796 46.5104 69.9336C45.8088 70.8875 45.3701 72.0105 45.2386 73.1893Z" fill="#E0BD40"/>
<path d="M41.9893 93.702L43.206 90.8833C43.206 90.8833 48.6568 94.5 50.7243 94.6613L51.091 95.6186L51.5137 94.5018C51.5137 94.5018 52.7845 94.183 53.1018 93.7039C53.419 93.2247 53.8958 95.884 53.8958 95.884C53.8958 95.884 53.419 97.0017 50.2439 97.0017C47.0688 97.0017 41.9893 93.702 41.9893 93.702Z" fill="#152D40"/>
<path d="M54.0877 84.2349C54.0157 84.2348 53.9452 84.2139 53.8848 84.1747C53.8245 84.1355 53.7767 84.0796 53.7473 84.0138C53.7179 83.948 53.7082 83.8752 53.7192 83.804C53.7303 83.7328 53.7617 83.6663 53.8097 83.6126L54.9962 82.284L53.6348 81.719C53.5895 81.7002 53.5484 81.6726 53.5137 81.6379C53.479 81.6031 53.4516 81.5619 53.4328 81.5165C53.4141 81.4712 53.4045 81.4225 53.4045 81.3734C53.4046 81.3244 53.4143 81.2758 53.4331 81.2304C53.4519 81.1851 53.4795 81.1439 53.5142 81.1092C53.549 81.0745 53.5902 81.0471 53.6355 81.0283C53.6808 81.0096 53.7294 81 53.7785 81C53.8276 81 53.8761 81.0098 53.9214 81.0286L55.7694 81.7958C55.8245 81.8186 55.8734 81.8543 55.9119 81.8999C55.9504 81.9455 55.9774 81.9997 55.9907 82.0579C56.0039 82.1161 56.0031 82.1767 55.9881 82.2345C55.9732 82.2923 55.9446 82.3457 55.9048 82.3901L54.3671 84.1109C54.332 84.1502 54.2889 84.1816 54.2408 84.203C54.1926 84.2244 54.1404 84.2353 54.0877 84.2349Z" fill="#31241C"/>
<path d="M51.8406 88.012C51.7615 88.0117 51.6845 87.9864 51.6207 87.9395C51.5569 87.8927 51.5096 87.8268 51.4857 87.7513C51.4618 87.6759 51.4625 87.5947 51.4876 87.5197C51.5128 87.4446 51.5611 87.3795 51.6256 87.3337C53.096 86.2941 54.4151 85.8754 55.5508 86.0905C55.6481 86.109 55.7341 86.1655 55.7898 86.2474C55.8455 86.3294 55.8664 86.4301 55.8478 86.5275C55.8293 86.6248 55.7729 86.7108 55.691 86.7666C55.6091 86.8223 55.5084 86.8432 55.4111 86.8246C54.4846 86.649 53.3546 87.0247 52.057 87.9438C51.9937 87.9885 51.9181 88.0123 51.8406 88.012Z" fill="#31241C"/>
</g>
<defs>
<clipPath id="clip0_80_1325">
<rect width="27.0612" height="33" fill="white" transform="translate(323.388 101)"/>
</clipPath>
<clipPath id="clip1_80_1325">
<rect width="27.0612" height="33" fill="white" transform="matrix(-1 0 0 1 62.6123 64)"/>
</clipPath>
</defs>
</svg>
