<svg width="24" height="20" viewBox="0 0 24 20" fill="none" xmlns="http://www.w3.org/2000/svg">
<path d="M15.711 19.3811C15.6029 19.3851 15.4951 19.3673 15.394 19.3287C15.2929 19.2901 15.2007 19.2316 15.1228 19.1565C15.0449 19.0815 14.9829 18.9915 14.9406 18.892C14.8982 18.7925 14.8764 18.6854 14.8764 18.5773C14.8764 18.4691 14.8982 18.3621 14.9406 18.2626C14.9829 18.163 15.0449 18.0731 15.1228 17.998C15.2007 17.923 15.2929 17.8644 15.394 17.8258C15.4951 17.7872 15.6029 17.7694 15.711 17.7734H17.4255C18.1214 17.779 18.791 17.5086 19.2877 17.0215C19.7844 16.5343 20.0676 15.8703 20.0751 15.1748V11.3414H17.2489V12.4095C17.248 13.0571 16.99 13.6778 16.5314 14.1353C16.0729 14.5928 15.4514 14.8496 14.8035 14.8493H8.85629C8.2086 14.8493 7.5874 14.5923 7.12911 14.1349C6.67082 13.6775 6.41291 13.0569 6.41203 12.4095V11.3414H3.5869V15.1792C3.59505 15.8728 3.87767 16.535 4.37295 17.0209C4.86823 17.5069 5.53587 17.777 6.22987 17.7723H7.98413C8.09225 17.7683 8.20008 17.7861 8.30115 17.8247C8.40222 17.8633 8.49447 17.9219 8.57239 17.9969C8.6503 18.072 8.71227 18.1619 8.7546 18.2615C8.79693 18.361 8.81875 18.468 8.81875 18.5762C8.81875 18.6843 8.79693 18.7913 8.7546 18.8909C8.71227 18.9904 8.6503 19.0804 8.57239 19.1554C8.49447 19.2305 8.40222 19.289 8.30115 19.3276C8.20008 19.3662 8.09225 19.384 7.98413 19.38H6.22766C5.10322 19.3883 4.02133 18.9508 3.2189 18.1635C2.41646 17.3761 1.95888 16.303 1.94635 15.1792V11.3414H0.803712C0.590554 11.3414 0.386127 11.2568 0.235402 11.1061C0.0846766 10.9555 0 10.7512 0 10.5381C0 10.325 0.0846766 10.1207 0.235402 9.97007C0.386127 9.81942 0.590554 9.73479 0.803712 9.73479H22.8616C23.0748 9.73479 23.2792 9.81942 23.4299 9.97007C23.5807 10.1207 23.6653 10.325 23.6653 10.5381C23.6653 10.7512 23.5807 10.9555 23.4299 11.1061C23.2792 11.2568 23.0748 11.3414 22.8616 11.3414H21.7179V15.1737C21.7059 16.3002 21.2472 17.376 20.4425 18.1649C19.6377 18.9537 18.5527 19.3911 17.4255 19.3811H15.711ZM6.70349 8.10058C6.62718 8.09836 6.55462 8.06707 6.50064 8.01312C6.44666 7.95917 6.41536 7.88664 6.41314 7.81037V6.46969C6.41401 5.82243 6.67196 5.202 7.13028 4.74473C7.5886 4.28746 8.20981 4.03077 8.85739 4.03106H14.808C15.129 4.02961 15.4472 4.09165 15.7442 4.21362C16.0412 4.33559 16.3111 4.51507 16.5384 4.74174C16.7657 4.9684 16.9459 5.23777 17.0686 5.53433C17.1913 5.83088 17.254 6.14877 17.2533 6.46969V7.81037C17.2503 7.88694 17.2182 7.95949 17.1637 8.01336C17.1092 8.06723 17.0363 8.0984 16.9596 8.10058H6.70349ZM20.0751 6.20486V4.20541C20.0673 3.51013 19.784 2.84633 19.2873 2.35944C18.7907 1.87255 18.1212 1.6023 17.4255 1.60789H15.711C15.6041 1.60964 15.4979 1.59025 15.3985 1.55083C15.2991 1.51141 15.2084 1.45273 15.1318 1.37818C15.0552 1.30363 14.994 1.21467 14.9519 1.11642C14.9098 1.01817 14.8875 0.91257 14.8863 0.805685C14.8873 0.698606 14.9095 0.592779 14.9515 0.49428C14.9936 0.395781 15.0546 0.306549 15.1313 0.231705C15.2079 0.156862 15.2986 0.0978805 15.398 0.058147C15.4975 0.0184136 15.6039 -0.00128979 15.711 0.000167921H17.4255C18.5521 -0.00983439 19.6366 0.427368 20.4409 1.2158C21.2453 2.00422 21.7037 3.07944 21.7157 4.20541V6.20486C21.7079 6.41695 21.6181 6.61776 21.4652 6.76505C21.3124 6.91235 21.1083 6.99465 20.896 6.99465C20.6836 6.99465 20.4796 6.91235 20.3267 6.76505C20.1738 6.61776 20.084 6.41695 20.0762 6.20486H20.0751ZM1.94414 6.20486V4.2021C1.95638 3.07768 2.41414 2.00398 3.21708 1.21633C4.02003 0.428678 5.10265 -0.00866084 6.22766 0.000167921H7.98302C8.08973 -0.000851264 8.19559 0.0191476 8.29457 0.0590225C8.39354 0.0988973 8.48368 0.157867 8.55985 0.232565C8.63602 0.307263 8.69673 0.396225 8.7385 0.494372C8.78027 0.592519 8.80229 0.697929 8.8033 0.804582C8.80229 0.911183 8.78026 1.01654 8.73848 1.11463C8.69669 1.21271 8.63597 1.3016 8.55979 1.37621C8.4836 1.45082 8.39345 1.50969 8.29448 1.54944C8.19551 1.58919 8.08968 1.60906 7.98302 1.60789H6.22877C5.53506 1.60347 4.86782 1.87378 4.37295 2.35971C3.87809 2.84565 3.59587 3.50766 3.588 4.201V6.20375C3.58021 6.41613 3.49031 6.61722 3.33723 6.76472C3.18415 6.91221 2.97981 6.99463 2.76718 6.99463C2.55455 6.99463 2.3502 6.91221 2.19712 6.76472C2.04404 6.61722 1.95415 6.41613 1.94635 6.20375L1.94414 6.20486Z" fill="#A8A8A8"/>
<path d="M15.711 19.3811C15.6029 19.3851 15.4951 19.3673 15.394 19.3287C15.2929 19.2901 15.2007 19.2316 15.1228 19.1565C15.0449 19.0815 14.9829 18.9915 14.9406 18.892C14.8982 18.7925 14.8764 18.6854 14.8764 18.5773C14.8764 18.4691 14.8982 18.3621 14.9406 18.2626C14.9829 18.163 15.0449 18.0731 15.1228 17.998C15.2007 17.923 15.2929 17.8644 15.394 17.8258C15.4951 17.7872 15.6029 17.7694 15.711 17.7734H17.4255C18.1214 17.779 18.791 17.5086 19.2877 17.0215C19.7844 16.5343 20.0676 15.8703 20.0751 15.1748V11.3414H17.2489V12.4095C17.248 13.0571 16.99 13.6778 16.5314 14.1353C16.0729 14.5928 15.4514 14.8496 14.8035 14.8493H8.85629C8.2086 14.8493 7.5874 14.5923 7.12911 14.1349C6.67082 13.6775 6.41291 13.0569 6.41203 12.4095V11.3414H3.5869V15.1792C3.59505 15.8728 3.87767 16.535 4.37295 17.0209C4.86823 17.5069 5.53587 17.777 6.22987 17.7723H7.98413C8.09225 17.7683 8.20008 17.7861 8.30115 17.8247C8.40222 17.8633 8.49447 17.9219 8.57239 17.9969C8.6503 18.072 8.71227 18.1619 8.7546 18.2615C8.79693 18.361 8.81875 18.468 8.81875 18.5762C8.81875 18.6843 8.79693 18.7913 8.7546 18.8909C8.71227 18.9904 8.6503 19.0804 8.57239 19.1554C8.49447 19.2305 8.40222 19.289 8.30115 19.3276C8.20008 19.3662 8.09225 19.384 7.98413 19.38H6.22766C5.10322 19.3883 4.02133 18.9508 3.2189 18.1635C2.41646 17.3761 1.95888 16.303 1.94635 15.1792V11.3414H0.803712C0.590554 11.3414 0.386127 11.2568 0.235402 11.1061C0.0846766 10.9555 0 10.7512 0 10.5381C0 10.325 0.0846766 10.1207 0.235402 9.97007C0.386127 9.81942 0.590554 9.73479 0.803712 9.73479H22.8616C23.0748 9.73479 23.2792 9.81942 23.4299 9.97007C23.5807 10.1207 23.6653 10.325 23.6653 10.5381C23.6653 10.7512 23.5807 10.9555 23.4299 11.1061C23.2792 11.2568 23.0748 11.3414 22.8616 11.3414H21.7179V15.1737C21.7059 16.3002 21.2472 17.376 20.4425 18.1649C19.6377 18.9537 18.5527 19.3911 17.4255 19.3811H15.711ZM6.70349 8.10058C6.62718 8.09836 6.55462 8.06707 6.50064 8.01312C6.44666 7.95917 6.41536 7.88664 6.41314 7.81037V6.46969C6.41401 5.82243 6.67196 5.202 7.13028 4.74473C7.5886 4.28746 8.20981 4.03077 8.85739 4.03106H14.808C15.129 4.02961 15.4472 4.09165 15.7442 4.21362C16.0412 4.33559 16.3111 4.51507 16.5384 4.74174C16.7657 4.9684 16.9459 5.23777 17.0686 5.53433C17.1913 5.83088 17.254 6.14877 17.2533 6.46969V7.81037C17.2503 7.88694 17.2182 7.95949 17.1637 8.01336C17.1092 8.06723 17.0363 8.0984 16.9596 8.10058H6.70349ZM20.0751 6.20486V4.20541C20.0673 3.51013 19.784 2.84633 19.2873 2.35944C18.7907 1.87255 18.1212 1.6023 17.4255 1.60789H15.711C15.6041 1.60964 15.4979 1.59025 15.3985 1.55083C15.2991 1.51141 15.2084 1.45273 15.1318 1.37818C15.0552 1.30363 14.994 1.21467 14.9519 1.11642C14.9098 1.01817 14.8875 0.91257 14.8863 0.805685C14.8873 0.698606 14.9095 0.592779 14.9515 0.49428C14.9936 0.395781 15.0546 0.306549 15.1313 0.231705C15.2079 0.156862 15.2986 0.0978805 15.398 0.058147C15.4975 0.0184136 15.6039 -0.00128979 15.711 0.000167921H17.4255C18.5521 -0.00983439 19.6366 0.427368 20.4409 1.2158C21.2453 2.00422 21.7037 3.07944 21.7157 4.20541V6.20486C21.7079 6.41695 21.6181 6.61776 21.4652 6.76505C21.3124 6.91235 21.1083 6.99465 20.896 6.99465C20.6836 6.99465 20.4796 6.91235 20.3267 6.76505C20.1738 6.61776 20.084 6.41695 20.0762 6.20486H20.0751ZM1.94414 6.20486V4.2021C1.95638 3.07768 2.41414 2.00398 3.21708 1.21633C4.02003 0.428678 5.10265 -0.00866084 6.22766 0.000167921H7.98302C8.08973 -0.000851264 8.19559 0.0191476 8.29457 0.0590225C8.39354 0.0988973 8.48368 0.157867 8.55985 0.232565C8.63602 0.307263 8.69673 0.396225 8.7385 0.494372C8.78027 0.592519 8.80229 0.697929 8.8033 0.804582C8.80229 0.911183 8.78026 1.01654 8.73848 1.11463C8.69669 1.21271 8.63597 1.3016 8.55979 1.37621C8.4836 1.45082 8.39345 1.50969 8.29448 1.54944C8.19551 1.58919 8.08968 1.60906 7.98302 1.60789H6.22877C5.53506 1.60347 4.86782 1.87378 4.37295 2.35971C3.87809 2.84565 3.59587 3.50766 3.588 4.201V6.20375C3.58021 6.41613 3.49031 6.61722 3.33723 6.76472C3.18415 6.91221 2.97981 6.99463 2.76718 6.99463C2.55455 6.99463 2.3502 6.91221 2.19712 6.76472C2.04404 6.61722 1.95415 6.41613 1.94635 6.20375L1.94414 6.20486Z" fill="#A8A8A8"/>
</svg>
