<svg width="20" height="27" viewBox="0 0 20 27" fill="none" xmlns="http://www.w3.org/2000/svg">
    <defs>
        <linearGradient id="paint0_linear_1_429" x1="9.99959" y1="0" x2="9.99959" y2="4.27065" gradientUnits="userSpaceOnUse">
            <stop stop-color="#F4F4F4"/>
            <stop offset="1" stop-color="#F4F4F4" stop-opacity="0.26"/>
        </linearGradient>
        <linearGradient id="paint1_linear_1_429" x1="10" y1="12.1548" x2="10" y2="16.8528" gradientUnits="userSpaceOnUse">
            <stop stop-color="#F4F4F4"/>
            <stop offset="1" stop-color="#F4F4F4" stop-opacity="0.26"/>
        </linearGradient>
        <linearGradient id="paint2_linear_1_429" x1="9.97554" y1="4.39648" x2="9.97554" y2="6.37271" gradientUnits="userSpaceOnUse">
            <stop stop-color="#F4F4F4"/>
            <stop offset="1" stop-color="#F4F4F4" stop-opacity="0.26"/>
        </linearGradient>
        <linearGradient id="paint3_linear_1_429" x1="10.0002" y1="5.59863" x2="10.0002" y2="12.1233" gradientUnits="userSpaceOnUse">
            <stop stop-color="#F4F4F4"/>
            <stop offset="1" stop-color="#F4F4F4" stop-opacity="0.26"/>
        </linearGradient>
        <linearGradient id="paint4_linear_1_429" x1="4.36629" y1="14.0039" x2="4.36629" y2="22.482" gradientUnits="userSpaceOnUse">
            <stop stop-color="#F4F4F4"/>
            <stop offset="1" stop-color="#F4F4F4" stop-opacity="0.26"/>
        </linearGradient>
        <linearGradient id="paint5_linear_1_429" x1="15.6337" y1="13.9995" x2="15.6337" y2="22.4819" gradientUnits="userSpaceOnUse">
            <stop stop-color="#F4F4F4"/>
            <stop offset="1" stop-color="#F4F4F4" stop-opacity="0.26"/>
        </linearGradient>
        <linearGradient id="paint6_linear_1_429" x1="10.0001" y1="17.7515" x2="10.0001" y2="21.6467" gradientUnits="userSpaceOnUse">
            <stop stop-color="#F4F4F4"/>
            <stop offset="1" stop-color="#F4F4F4" stop-opacity="0.26"/>
        </linearGradient>
        <linearGradient id="paint7_linear_1_429" x1="10.0005" y1="17.7515" x2="10.0005" y2="27.0001" gradientUnits="userSpaceOnUse">
            <stop stop-color="#F4F4F4"/>
            <stop offset="1" stop-color="#F4F4F4" stop-opacity="0.26"/>
        </linearGradient>
    </defs>
    <path d="M6.70777 3.96008C6.75662 3.94663 6.80548 3.93318 6.85434 3.91952C7.16073 3.83393 7.47132 3.76648 7.77774 3.708C7.83544 3.69903 7.89756 3.68537 7.95526 3.67641C8.26608 3.6224 8.57225 3.57737 8.87866 3.55047C8.92752 3.54599 8.9808 3.54151 9.02965 3.53702C9.34932 3.51013 9.67338 3.49647 9.99748 3.49647H10.0019C10.326 3.49647 10.65 3.50992 10.9741 3.53702L11.1207 3.55047C11.4271 3.57737 11.7333 3.6224 12.0441 3.67641C12.1018 3.68537 12.1639 3.69882 12.2216 3.708C12.5325 3.76648 12.8386 3.83393 13.145 3.91952C13.1939 3.93297 13.2428 3.94642 13.2916 3.96008C13.6113 4.05015 13.9265 4.14898 14.2462 4.26616C14.2506 4.26616 14.255 4.26616 14.2594 4.27065V2.92955C14.2594 1.31421 12.9631 0 11.3736 0H8.62554C7.03609 0 5.73975 1.31399 5.73975 2.92955V4.27065C5.74417 4.26616 5.75301 4.26616 5.75743 4.26616C6.0731 4.14898 6.38833 4.04994 6.70779 3.96008H6.70777Z" fill="url(#paint0_linear_1_429)"/>
<path d="M12.697 12.1548C11.8891 12.7172 10.9568 13.0233 9.99783 13.0233C9.04327 13.0233 8.11102 12.7172 7.30304 12.1548V13.0818L9.79799 16.8528H10.1975L12.6968 13.0818L12.697 12.1548Z" fill="url(#paint1_linear_1_429)"/>
<path d="M12.9768 4.80588C12.6795 4.72477 12.3864 4.65732 12.089 4.59884C12.0402 4.58987 11.9869 4.58091 11.9336 4.57194C11.6361 4.51794 11.3387 4.47738 11.0411 4.45049C11.0011 4.446 10.9567 4.44152 10.9125 4.43704C10.6017 4.41441 10.2955 4.39648 9.98466 4.39648H9.94465C9.63825 4.40097 9.33208 4.41441 9.02124 4.44152C8.99008 4.446 8.9547 4.446 8.92354 4.45049C8.62156 4.48208 8.31981 4.5269 8.02223 4.5809C7.96896 4.58987 7.9201 4.59883 7.87125 4.6078C7.57391 4.66628 7.28078 4.73373 6.98784 4.81484C6.93457 4.82829 6.88571 4.84643 6.83244 4.85988C6.53489 4.94547 6.23755 5.0443 5.93997 5.15679C5.92671 5.16127 5.91344 5.16575 5.89996 5.17023L6.31734 6.09277C6.41063 6.29085 6.62815 6.39885 6.83684 6.35381C7.88472 6.12884 8.92349 6.01187 9.94457 6.01187C10.9745 6.01187 11.9868 6.12884 12.9723 6.36278C13.1633 6.40333 13.3629 6.31774 13.4695 6.14228L14.0511 5.15232C14.0423 5.14784 14.0334 5.14336 14.0246 5.14336C13.7226 5.03087 13.4209 4.93183 13.1189 4.84624C13.0698 4.833 13.0256 4.81956 12.9767 4.8059L12.9768 4.80588Z" fill="url(#paint2_linear_1_429)"/>
<path d="M5.42961 7.72246C5.59828 7.7675 5.72695 7.90688 5.75812 8.07786C5.95354 9.14896 6.45958 10.1434 7.1743 10.8768C7.96018 11.6779 8.96343 12.1233 9.99777 12.1233C10.5173 12.1233 11.0277 12.0108 11.5072 11.7993C11.9867 11.5878 12.435 11.2772 12.8259 10.8768C13.5494 10.1434 14.0378 9.17581 14.2421 8.07782C14.273 7.90685 14.4019 7.76725 14.5662 7.72243C15.0368 7.60097 15.3697 7.14185 15.3697 6.60203C15.3697 6.17898 15.1522 5.79649 14.8237 5.59863L14.2288 6.60673C13.9757 7.02979 13.5317 7.27272 13.0702 7.27272C12.9725 7.27272 12.8703 7.26375 12.7728 7.24113C10.9349 6.80911 9.00365 6.80911 7.01916 7.23665C6.40659 7.36706 5.77607 7.04305 5.51413 6.47165L5.12792 5.62578C4.82595 5.83283 4.63074 6.19718 4.63074 6.6023C4.63053 7.1419 4.95903 7.60548 5.42967 7.72247L5.42961 7.72246Z" fill="url(#paint3_linear_1_429)"/>
<path d="M8.73258 16.8524L6.84577 14.0039L2.13107 16.5465C0.812621 17.2351 0 18.5849 0 20.0745V22.482H2.90347V18.1755C2.90347 17.4466 3.48952 16.8526 4.20866 16.8526L8.73258 16.8524Z" fill="url(#paint4_linear_1_429)"/>
<path d="M17.9445 16.5284L13.1586 13.9995L11.2674 16.8525H15.7913C16.5105 16.8525 17.0965 17.4465 17.0965 18.1754V22.4819H20V20.0159C20 18.5579 19.2141 17.2215 17.9445 16.5284Z" fill="url(#paint5_linear_1_429)"/>
<path d="M8.42315 21.6193L9.70726 20.912C9.77317 20.8757 9.84645 20.8576 9.91931 20.8576C9.98733 20.8576 10.0553 20.8734 10.1183 20.9052L11.5772 21.6467V17.7515H8.4231L8.42315 21.6193Z" fill="url(#paint6_linear_1_429)"/>
<path d="M15.7914 17.7515H12.4653V22.3758C12.4653 22.5318 12.3855 22.6768 12.2545 22.7587C12.1235 22.8405 11.9601 22.8477 11.8222 22.7782L9.92753 21.8151L8.19107 22.7713C8.12473 22.8076 8.05188 22.8258 7.97901 22.8258C7.90047 22.8258 7.82213 22.8046 7.75222 22.7626C7.61745 22.6815 7.53511 22.5344 7.53511 22.3758L7.53532 17.7515H4.2092C3.97988 17.7515 3.79309 17.9406 3.79309 18.1732V26.5784C3.79309 26.811 3.97987 27.0001 4.2092 27.0001H15.7915C16.0208 27.0001 16.2076 26.811 16.2076 26.5784L16.2078 18.1732C16.2078 17.9406 16.0208 17.7515 15.7915 17.7515L15.7914 17.7515Z" fill="url(#paint7_linear_1_429)"/>

</svg>
