<svg width="370" height="399" viewBox="0 0 370 399" fill="none" xmlns="http://www.w3.org/2000/svg">
<path fill-rule="evenodd" clip-rule="evenodd" d="M222.801 180.705C227.755 183.345 232.824 185.819 237.961 188.139C238.339 188.328 238.744 188.501 239.137 188.683C244.088 190.913 252.341 194.173 259.549 196.933C268.082 200.216 277.724 197.678 283.536 190.625C287.384 185.95 291.524 180.861 294.219 177.395C301.447 168.04 307.9 158.124 314.188 147.985C320.485 137.86 321.164 134.314 327.698 124.162C329.608 121.349 337.633 110.251 337.633 110.251C340.152 108.385 338.741 105.406 338.741 105.406C340.814 104.262 339.634 102.01 339.634 102.01C342.101 99.4915 339.417 97.4452 339.417 97.4452C339.417 97.4452 336.473 100.695 336.146 100.321C335.835 99.9411 342.405 89.2897 339.72 89.5953C337.031 89.8864 329.828 100.956 326.126 103.172C322.421 105.39 320.025 102.187 320.025 102.187L317.644 99.4536C317.644 99.4536 316.661 101.473 316.814 103.161C316.961 104.837 317.25 116.117 317.25 116.117C300.702 134.198 287.447 160.767 269.684 177.395C265.088 174.722 239.201 179.703 234.882 177.09C229.091 173.578 236.709 160.293 231 156.741C229.54 160.722 235.266 152.816 233.635 156.741C230.261 164.837 226.657 172.833 222.801 180.705Z" fill="#FFB27D"/>
<path fill-rule="evenodd" clip-rule="evenodd" d="M323.72 107.815C329.101 106.285 331.736 106.306 337.323 106.677C338.14 91.3868 338.818 76.3603 338.129 60.9729C331.108 61.3025 324.119 62.0269 317.092 62.2284C317.943 78.6225 317.218 92.3902 323.72 107.815Z" fill="#52E673"/>
<path fill-rule="evenodd" clip-rule="evenodd" d="M335.373 102.26C337.645 90.2393 335.908 77.5713 335.88 65.3942C334.749 65.324 334.102 64.7125 333.922 63.6003C329.777 63.9103 325.634 64.2644 321.482 64.4732C321.404 65.5925 320.793 66.274 319.679 66.4395C319.779 78.8838 318.795 91.3905 323.922 103.059C325.021 102.847 325.729 103.386 326.263 104.308C328.887 103.396 331.003 103.354 333.723 103.896C333.87 102.936 334.346 102.264 335.373 102.26Z" fill="#4CCB69"/>
<path fill-rule="evenodd" clip-rule="evenodd" d="M321.139 85.1096C321.338 89.0249 324.651 91.385 328.427 91.1524C332.203 90.9166 335.085 88.2049 334.877 84.3605C334.668 80.5172 331.653 77.6458 327.78 77.8348C323.909 78.0259 320.939 81.1943 321.139 85.1096Z" fill="#52E673"/>
<path fill-rule="evenodd" clip-rule="evenodd" d="M325.117 109.449C329.887 106.525 332.429 105.836 337.913 104.689C334.575 89.7457 331.184 75.0888 326.37 60.4568C319.699 62.6654 313.163 65.2468 306.451 67.3336C311.686 82.892 314.698 96.3474 325.117 109.449Z" fill="#52E673"/>
<path fill-rule="evenodd" clip-rule="evenodd" d="M334.842 100.96C333.793 88.7716 328.707 77.0379 325.399 65.3211C324.289 65.5566 323.501 65.1432 323.027 64.1196C319.118 65.5356 315.224 66.9926 311.282 68.3127C311.51 69.4123 311.106 70.2305 310.077 70.6945C313.526 82.6477 315.947 94.9594 324.03 104.815C325.032 104.313 325.858 104.644 326.621 105.388C328.901 103.801 330.927 103.189 333.693 102.98C333.577 102.015 333.854 101.24 334.842 100.96Z" fill="#4CCB69"/>
<path fill-rule="evenodd" clip-rule="evenodd" d="M316.512 88.279C317.759 91.9972 321.585 93.3751 325.158 92.1324C328.735 90.8908 330.779 87.5029 329.543 83.8568C328.305 80.2118 324.624 78.2582 320.949 79.4842C317.272 80.7112 315.266 84.5629 316.512 88.279Z" fill="#52E673"/>
<path fill-rule="evenodd" clip-rule="evenodd" d="M326.903 110.647C330.706 106.545 332.97 105.197 337.94 102.617C330.702 89.1205 323.487 75.9231 314.91 63.1264C309.079 67.0523 303.483 71.3001 297.58 75.1169C306.813 88.6897 313.339 100.838 326.903 110.647Z" fill="#52E673"/>
<path fill-rule="evenodd" clip-rule="evenodd" d="M333.98 99.8516C329.685 88.3958 321.626 78.4675 315.283 68.0741C314.279 68.6006 313.408 68.4158 312.677 67.5564C309.293 69.9737 305.938 72.4255 302.497 74.7586C303.011 75.7576 302.842 76.6559 301.977 77.3768C308.519 87.9618 314.167 99.1611 324.607 106.475C325.439 105.724 326.321 105.818 327.257 106.33C329.025 104.188 330.812 103.053 333.418 102.107C333.045 101.208 333.105 100.387 333.98 99.8516Z" fill="#4CCB69"/>
<path fill-rule="evenodd" clip-rule="evenodd" d="M312.912 92.5784C315.116 95.8226 319.17 96.1176 322.279 93.959C325.384 91.7993 326.441 87.986 324.268 84.8098C322.096 81.6304 318.025 80.7426 314.816 82.9135C311.606 85.0845 310.711 89.3353 312.912 92.5784Z" fill="#52E673"/>
<path fill-rule="evenodd" clip-rule="evenodd" d="M163.488 129.263C163.488 129.263 164.799 142.749 186.836 165.174C208.872 187.599 260.717 218.493 271.621 215.598C282.524 212.703 318.48 170.866 326.085 126.989C326.085 126.989 319.828 113.56 315.501 114.518C315.501 114.518 265.667 175.02 260.147 173.169C256.725 172.022 221.739 120.697 207.407 114.646C193.074 108.594 163.488 129.263 163.488 129.263Z" fill="#439801"/>
<path fill-rule="evenodd" clip-rule="evenodd" d="M146.015 112.267L146.012 113.151L100.866 94.8672C100.866 94.8672 97.0551 96.2792 92.5091 97.7895C91.9857 98.126 91.5175 98.4562 91.1551 98.7643C88.7919 100.786 73.9526 117.961 56.6029 170.713C47.1541 199.443 44.7249 230.458 47.27 235.155C47.5238 235.623 47.8829 236.199 48.3459 236.837C50.7452 240.06 56.0896 245.017 66.2844 247.516C74.468 249.517 91.1803 249.803 98.4452 247.937L152.372 115.922L150.741 114.9C150.741 114.9 148.933 113.886 146.015 112.267Z" fill="#FAC57F"/>
<path fill-rule="evenodd" clip-rule="evenodd" d="M124.973 90.8762C112.101 86.5003 96.158 87.9827 96.158 87.9827L100.345 95.7094L145.903 113.826L145.912 112.938L146.044 101.17C146.044 101.17 137.839 95.2545 124.973 90.8762Z" fill="#DCB075"/>
<path fill-rule="evenodd" clip-rule="evenodd" d="M77.8249 101.567C77.6477 103.119 85.9277 100.66 92.6149 98.4284C97.1125 96.9351 100.883 95.5388 100.883 95.5388L96.7424 87.8971C95.306 87.9414 78.1205 98.9656 77.8249 101.567Z" fill="#DCB075"/>
<path fill-rule="evenodd" clip-rule="evenodd" d="M215.447 228.789L239.842 399H177.606L169.346 346.908L164.825 399H99.5019C99.5019 399 97.7224 266.442 122.377 242.829L215.447 228.789Z" fill="#2B478B"/>
<path fill-rule="evenodd" clip-rule="evenodd" d="M181.072 119.695C173.663 123.599 166.428 123.844 160.155 122.511C154.419 121.305 149.49 118.772 145.984 116.53C142.383 114.228 140.264 112.223 140.264 112.223C140.264 112.223 140.513 111.86 140.938 111.148C143.127 107.402 149.766 93.9344 146.813 72.2957C146.776 72.0121 148.916 72.4147 152.156 73.1796C161.791 75.4614 181.162 80.9557 182.018 81.1994H182.05C182.05 81.1994 182.289 85.7504 183.085 93.9084C183.154 94.627 183.223 95.3791 183.303 96.1573C183.404 97.1133 183.5 98.1289 183.622 99.171C184.519 107.652 181.072 119.695 181.072 119.695Z" fill="#FFB27D"/>
<path fill-rule="evenodd" clip-rule="evenodd" d="M183.084 93.9086C168.701 97.206 147.231 75.9694 147.231 75.9694C148.804 74.8025 150.45 73.8788 152.155 73.1798C161.79 75.4616 181.162 80.9559 182.017 81.1997H182.049C182.049 81.1997 182.288 85.7506 183.084 93.9086Z" fill="#ED975D"/>
<path fill-rule="evenodd" clip-rule="evenodd" d="M228.829 277.527C227.782 291.38 227.703 298.938 218.434 301.302C218.434 301.302 189.911 311.346 155.816 311.617C149.15 311.664 139.707 310.363 131.883 309.051C123.889 307.702 117.557 306.337 117.557 306.337C110.7 304.754 103.133 300.516 104.15 292.702C104.685 288.538 105.076 283.195 105.341 277.007C105.359 276.614 105.377 276.215 105.395 275.812C106.147 257.701 106.026 232.754 106.116 208.87C106.183 194.201 106.327 179.941 106.821 167.911C106.821 167.911 100.09 120.662 107.56 112.909C116.315 103.84 144.604 101.181 145.098 101.097C145.098 101.097 167.454 113.032 183.723 103.902C183.723 103.902 207.45 109.571 214.275 116.788C216.633 119.273 226.035 134.525 226.29 151.275C226.646 174.63 225.732 201.16 225.732 201.165C225.976 204.96 226.385 209.85 226.832 215.432C227.31 221.38 227.835 228.098 228.282 235.105C228.505 238.635 228.712 242.238 228.877 245.841C229.381 256.961 229.54 268.147 228.829 277.527Z" fill="#439801"/>
<path fill-rule="evenodd" clip-rule="evenodd" d="M187.971 80.0506C187.971 80.0506 184.937 85.0926 177.395 86.1066C164.799 84.605 150.868 86.1066 144.432 70.4564C136.763 47.9992 126.963 34.534 149.537 25.3641C161.626 20.4547 169.359 20.1944 174.607 22.0683C179.175 23.6846 181.863 26.9151 183.902 30.1105C188.284 36.9842 193.974 68.4224 187.971 80.0506Z" fill="#FFB27D"/>
<path fill-rule="evenodd" clip-rule="evenodd" d="M171.681 250.436C174.108 254.984 172.212 268.865 172.212 268.865C172.212 268.865 134.012 275.961 104.361 292.331C104.378 291.933 105.376 276.216 105.394 275.812C106.146 257.702 106.15 178.453 106.24 154.57C106.24 154.57 131.25 162.513 124.185 178.339C119.511 188.814 118.369 204.048 121.036 210.353C132.965 238.554 169.445 246.238 171.681 250.436Z" fill="#3F8A04"/>
<path fill-rule="evenodd" clip-rule="evenodd" d="M211.073 120.08C211.03 120.324 211.003 120.453 211.003 120.453C210.971 120.436 210.993 120.309 211.073 120.08Z" fill="#A8D29F"/>
<path fill-rule="evenodd" clip-rule="evenodd" d="M177.562 122.684C177.403 122.729 177.201 122.774 176.945 122.818C177.147 122.769 177.355 122.724 177.562 122.684Z" fill="#95C38B"/>
<path fill-rule="evenodd" clip-rule="evenodd" d="M218.378 164.85C218.364 165.028 218.353 165.121 218.353 165.121C218.353 165.121 218.326 165.029 218.277 164.854C217.865 163.408 215.849 156.269 214.064 148.338C211.598 137.364 209.578 124.872 212.855 123.84C219.069 121.884 219.583 139.296 219.147 152.116C218.934 158.432 218.488 163.631 218.378 164.85Z" fill="#8CDE7A"/>
<path fill-rule="evenodd" clip-rule="evenodd" d="M224.884 150.946C222.492 155.786 220.419 159.856 219.226 162.295C218.71 163.359 218.358 164.112 218.218 164.484C218.348 163.875 218.694 162.243 219.191 159.919L219.191 159.916C219.935 156.436 221.014 151.408 222.198 145.948C225.069 132.678 228.552 116.871 229.316 114.619C230.657 110.649 236.499 102.303 239.964 109.868C242.215 114.784 232.091 136.357 224.884 150.946Z" fill="#8CDE7A"/>
<path fill-rule="evenodd" clip-rule="evenodd" d="M225.079 157.979C222.701 160.316 220.706 162.209 219.592 163.255C218.985 163.828 218.638 164.147 218.638 164.147C218.638 164.147 219.268 162.917 220.339 160.955C221.351 159.101 222.755 156.594 224.388 153.854C229.738 144.874 237.552 133.398 242.119 134.239C247.325 135.198 233.699 149.506 225.079 157.979Z" fill="#8CDE7A"/>
<path fill-rule="evenodd" clip-rule="evenodd" d="M220.667 182.255C216.436 193.009 211.229 204.716 211.229 204.716L200.527 201.091C200.527 201.091 202.082 193.069 204.256 184.158C206.796 173.77 208.41 163.253 212.953 160.664C214.204 159.951 215.538 159.647 216.833 159.598C217.488 159.572 218.137 159.617 218.768 159.724C218.917 159.749 219.065 159.777 219.214 159.809C219.588 159.889 219.955 159.99 220.309 160.109C220.45 160.154 220.586 160.204 220.723 160.257C221.195 160.437 221.651 160.649 222.083 160.888C223.923 161.907 225.38 163.393 225.915 164.962C227.527 169.68 223.867 174.129 220.667 182.255Z" fill="#EA6C2D"/>
<path fill-rule="evenodd" clip-rule="evenodd" d="M214.908 195.409C211.762 203.927 210.583 213.355 211.393 223.487C211.527 225.177 212.413 226.672 213.736 227.617C214.33 228.04 215.006 228.352 215.748 228.524C217.417 228.574 220.817 225.657 222.839 221.852C223.392 220.805 223.846 219.693 224.126 218.554C226.332 209.664 230.213 199.003 234.746 193.645C239.38 188.165 245.591 181.639 253.972 177.297L253.975 177.295C254.783 176.87 273.902 163.959 273.902 163.959C275.826 162.064 273.706 159.79 273.706 159.79C273.706 159.79 271.881 161.279 266.374 164.197C260.862 167.114 251.51 163.134 251.507 163.134C248.892 161.838 245.733 161.848 243.068 163.34C238.953 165.642 233.453 169.308 228.168 174.68C222.22 180.723 217.761 187.698 214.908 195.409Z" fill="#FFB155"/>
<path fill-rule="evenodd" clip-rule="evenodd" d="M224.126 218.554C226.333 209.664 230.213 199.004 234.746 193.646C239.381 188.166 245.592 181.64 253.972 177.297L253.976 177.296C254.122 177.197 259.825 173.296 253.798 169.367C247.898 165.522 222.336 191.701 222.84 221.852C223.392 220.806 223.847 219.693 224.126 218.554Z" fill="#EEA44C"/>
<path fill-rule="evenodd" clip-rule="evenodd" d="M202.812 182.724C201.989 183.92 200.991 185.07 199.824 186.14C195.405 190.196 188.587 193.079 179.959 192.691C179.959 192.691 176.458 189.108 174.859 184.65L174.859 184.649C173.751 181.556 173.018 177.035 175.245 173.778C176.676 171.679 178.459 170.725 180.247 170.252C183.288 169.444 186.344 170.025 187.735 168.733C189.107 167.46 191.032 166.387 193.127 165.805C193.467 165.708 193.814 165.625 194.164 165.559L194.168 165.559C194.311 165.53 194.457 165.504 194.604 165.481L194.611 165.479C197.825 164.969 201.211 165.701 203.481 168.631C204.01 169.309 204.482 170.124 204.869 171.098C206.267 174.565 205.461 178.872 202.812 182.724Z" fill="#ED6363"/>
<path fill-rule="evenodd" clip-rule="evenodd" d="M178.006 173.381C178.006 173.381 175.079 175.517 175.865 178.021C176.65 180.526 178.942 179.464 179.704 177.775C180.471 176.086 179.91 172.617 178.006 173.381Z" fill="#FE8181"/>
<path fill-rule="evenodd" clip-rule="evenodd" d="M203.48 168.629C204.01 169.309 204.478 170.125 204.869 171.098C206.267 174.565 208.033 183.694 205.384 187.547L201.908 190.507C197.485 194.564 188.586 193.078 179.959 192.69C179.959 192.69 176.458 189.107 174.859 184.65L174.859 184.649C174.859 184.649 185.385 189.252 195.757 180.789C200.465 176.945 202.58 172.423 203.48 168.629Z" fill="#CB4F4F"/>
<path fill-rule="evenodd" clip-rule="evenodd" d="M187.358 163.549C185.63 162.436 183.797 163.847 181.697 164.583C179.596 165.32 175.614 165.163 175.614 165.163C175.614 165.163 177.337 162.862 180.104 160.614C182.874 158.366 187.358 163.549 187.358 163.549Z" fill="#539545"/>
<path fill-rule="evenodd" clip-rule="evenodd" d="M187.358 163.549C185.749 162.13 182.712 161.241 181.198 161.8C179.679 162.359 175.614 165.163 175.614 165.163C175.614 165.163 177.337 162.862 180.104 160.614C182.874 158.366 187.358 163.549 187.358 163.549Z" fill="#6BB75B"/>
<path fill-rule="evenodd" clip-rule="evenodd" d="M210.982 154.307H200.771C200.771 153.764 201.195 153.324 201.717 153.324H210.036C210.558 153.324 210.982 153.764 210.982 154.307Z" fill="#2BAADC"/>
<path fill-rule="evenodd" clip-rule="evenodd" d="M217.354 215.676C216.798 216.2 216.447 217.586 207.747 217.833C206.887 217.857 205.947 217.871 204.916 217.871C193.45 217.871 193.574 216.252 193.574 216.252C193.574 216.252 192.963 176.265 194.182 173.03C195.345 169.948 200.035 162.268 200.485 161.533V160.739C200.075 160.684 199.838 160.622 199.838 160.556C199.838 160.486 200.075 160.424 200.485 160.368V159.737H211.157V160.368C211.567 160.424 211.804 160.486 211.804 160.556C211.804 160.622 211.567 160.684 211.157 160.739V161.748C211.888 163.142 215.199 169.504 216.498 172.684C217.962 176.265 217.962 215.097 217.354 215.676Z" fill="#5BCBF5"/>
<path fill-rule="evenodd" clip-rule="evenodd" d="M216.155 215.056C215.656 215.574 215.341 216.945 207.526 217.189C206.754 217.212 205.91 217.226 204.983 217.226C194.684 217.226 194.796 215.625 194.796 215.625C194.796 215.625 194.247 176.082 195.342 172.883C196.387 169.835 200.599 162.241 201.003 161.514V160.728C200.635 160.673 200.422 160.612 200.422 160.547C200.422 160.478 200.635 160.416 201.003 160.361V159.737H210.589V160.361C210.957 160.416 211.171 160.478 211.171 160.547C211.171 160.612 210.957 160.673 210.589 160.728V161.726C211.246 163.104 214.22 169.396 215.386 172.54C216.701 176.082 216.701 214.483 216.155 215.056Z" fill="#B9E5FB"/>
<path fill-rule="evenodd" clip-rule="evenodd" d="M213.733 168.56H197.274C196.444 170.23 195.703 171.829 195.342 172.883C194.247 176.082 194.796 215.625 194.796 215.625C194.796 215.625 194.684 217.226 204.983 217.226C205.91 217.226 206.754 217.213 207.526 217.189C215.341 216.945 215.656 215.574 216.155 215.056C216.701 214.483 216.701 176.082 215.386 172.54C214.99 171.472 214.385 170.04 213.733 168.56Z" fill="#EFF9FE"/>
<path fill-rule="evenodd" clip-rule="evenodd" d="M212.324 159.738H199.428L199.67 154.19H212.05L212.298 159.252L212.324 159.738Z" fill="#008FC8"/>
<path fill-rule="evenodd" clip-rule="evenodd" d="M212.324 159.738H199.428L199.67 154.19H202.549C203.818 155.414 208.117 159.238 212.298 159.252L212.324 159.738Z" fill="#008FC8"/>
<path fill-rule="evenodd" clip-rule="evenodd" d="M196.25 181.899L193.569 181.306C193.414 187.145 193.403 195.047 193.437 201.859C201.298 204.415 209.787 204.595 217.737 202.401C217.743 195.72 217.636 187.784 217.376 181.755L216.726 181.899C209.991 183.387 202.985 183.387 196.25 181.899Z" fill="#008FC8"/>
<path fill-rule="evenodd" clip-rule="evenodd" d="M217.627 190.187C217.609 189.307 217.59 188.436 217.569 187.579C213.504 190.717 208.059 188.58 203.213 186.276C201.558 185.489 199.899 184.579 197.943 184.301C196.456 184.09 194.94 184.281 193.497 184.744C193.484 185.521 193.473 186.32 193.464 187.134C194.8 186.582 196.231 186.302 197.596 186.496C201.438 187.042 210.275 194.151 217.627 190.187Z" fill="#0077C0"/>
<path fill-rule="evenodd" clip-rule="evenodd" d="M216.698 200.428C216.698 205.11 211.772 208.907 205.696 208.907C199.619 208.907 194.694 205.11 194.694 200.428C194.694 195.745 199.619 191.948 205.696 191.948C211.772 191.948 216.698 195.745 216.698 200.428Z" fill="#008FC8"/>
<path fill-rule="evenodd" clip-rule="evenodd" d="M205.695 207.771C200.22 207.771 195.594 204.408 195.594 200.428C195.594 196.447 200.22 193.084 205.695 193.084C211.171 193.084 215.797 196.447 215.797 200.428C215.797 204.408 211.171 207.771 205.695 207.771Z" fill="#EFF8FA"/>
<path fill-rule="evenodd" clip-rule="evenodd" d="M204.54 168.56H198.661C198.721 168.336 198.757 168.213 198.757 168.213C198.757 168.213 200.005 166.729 201.679 166.729C202.387 166.729 203.171 166.995 203.969 167.751C204.178 167.949 204.369 168.224 204.54 168.56Z" fill="#C8EAFC"/>
<path fill-rule="evenodd" clip-rule="evenodd" d="M203.304 182.908C201.793 182.807 200.287 182.633 198.79 182.388C196.084 178.998 198.174 170.394 198.661 168.56H204.54C206.135 171.697 206.021 180.231 203.304 182.908Z" fill="#F2FAFE"/>
<path fill-rule="evenodd" clip-rule="evenodd" d="M201.434 183.723C201.154 183.723 200.858 183.678 200.546 183.584C199.812 183.362 199.236 182.946 198.791 182.387C200.287 182.633 201.794 182.807 203.304 182.908C202.779 183.424 202.159 183.723 201.434 183.723Z" fill="#36A5D0"/>
<path fill-rule="evenodd" clip-rule="evenodd" d="M201.956 197.677C201.911 198.245 201.629 198.969 201.109 199.85C200.59 200.731 200.185 201.171 199.894 201.171C199.427 201.171 198.898 199.408 198.765 198.941C198.388 197.621 198.236 196.999 197.917 196.999C197.741 196.999 197.541 197.074 197.317 197.224C197.628 197.449 197.863 198.409 197.945 198.635C197.319 201.212 196.948 202.43 196.948 202.966C196.948 203.403 197.51 203.274 197.913 203.143C197.5 202.857 197.692 202.519 198.243 199.557C198.435 200.304 198.664 200.891 198.932 201.317C199.453 202.148 200.035 202.282 200.937 201.029C201.382 200.411 201.745 199.663 202.027 198.783C201.84 201.431 201.024 204.594 202.708 203.368C202.115 202.991 202.625 201.019 202.694 199.557C202.85 197.935 203.268 197.223 201.956 197.677Z" fill="#FF4608"/>
<path fill-rule="evenodd" clip-rule="evenodd" d="M205.736 198.381C206.001 198.152 206.185 197.868 206.29 197.529C206.122 197.694 205.889 197.856 205.592 198.015C205.031 198.315 204.876 198.257 204.859 198.26C204.805 198.397 204.778 198.552 204.778 198.724C204.778 199.177 205.404 198.669 205.736 198.381Z" fill="#FF4608"/>
<path fill-rule="evenodd" clip-rule="evenodd" d="M215.394 199.925C215.069 200.492 214.299 201.554 213.824 201.925C212.97 202.592 212.262 201.694 211.652 200.692C212.061 200.27 213.039 199.598 213.585 199.534C213.445 199.205 213.32 199.041 213.209 199.041C213.025 199.041 212.714 199.222 212.276 199.586C211.839 199.95 211.433 200.365 211.06 200.832L211.841 196.674C211.238 196.975 210.546 197.187 210.102 196.726C210.054 196.945 210.031 197.097 210.031 197.183C210.031 197.68 210.555 197.615 211.003 197.448L210.459 200.295C209.919 201.174 209.523 201.76 209.269 202.054C208.982 202.387 208.696 202.553 208.412 202.553C207.808 202.553 207.971 201.71 208.082 201.108L208.905 196.674C208.351 197.057 207.555 197.023 207.007 196.7C207.023 196.714 206.86 197.662 208.064 197.47L207.532 200.255C207.112 200.937 205.888 202.675 205.111 202.675C204.299 202.675 205.083 201.163 205.083 200.013C205.083 199.486 204.747 199.619 204.242 199.74C204.487 200.011 204.321 200.547 204.11 201.72C204.023 202.166 203.964 202.603 204.282 202.955C204.445 203.134 204.658 203.224 204.923 203.224C205.836 203.224 206.821 201.998 207.347 201.221C207.239 201.799 207.153 202.429 207.507 202.891C207.677 203.113 207.901 203.224 208.178 203.224C208.954 203.224 209.818 202.061 210.249 201.393C209.975 202.93 209.714 203.493 210.857 203.099C210.601 202.606 210.96 201.577 211.024 201.027C211.27 201.504 211.602 201.929 212.019 202.301C212.859 203.05 213.38 203.095 214.323 202.098C214.803 201.591 215.258 200.925 215.688 200.102L215.394 199.925Z" fill="#FF4608"/>
<path fill-rule="evenodd" clip-rule="evenodd" d="M211.157 160.739C211.256 160.726 211.345 160.712 211.423 160.698C211.345 160.712 211.256 160.726 211.157 160.739Z" fill="#BFE7F4"/>
<path fill-rule="evenodd" clip-rule="evenodd" d="M211.157 160.739L211.48 160.687C211.462 160.691 211.443 160.694 211.423 160.698C211.345 160.712 211.256 160.726 211.157 160.739Z" fill="#44B8EA"/>
<path fill-rule="evenodd" clip-rule="evenodd" d="M204.915 217.871C193.702 217.871 193.574 216.322 193.574 216.254C193.574 216.322 193.702 217.871 204.915 217.871C205.947 217.871 206.887 217.857 207.747 217.833C216.447 217.587 216.798 216.2 217.354 215.676C217.586 215.456 217.729 209.671 217.736 202.401C217.736 202.401 217.736 202.401 217.736 202.401C217.729 209.671 217.586 215.456 217.354 215.676C216.798 216.2 216.447 217.587 207.747 217.833C206.887 217.857 205.947 217.871 204.915 217.871ZM217.581 188.064C217.581 188.057 217.581 188.05 217.581 188.044C217.581 188.05 217.581 188.058 217.581 188.064ZM217.58 188.016C217.58 188.008 217.58 188.001 217.58 187.994C217.58 188.001 217.58 188.008 217.58 188.016ZM217.579 187.984C217.579 187.973 217.579 187.962 217.579 187.951C217.579 187.962 217.579 187.974 217.579 187.984ZM217.578 187.95C217.574 187.796 217.57 187.643 217.567 187.49C217.567 187.484 217.566 187.477 217.566 187.471C217.566 187.466 217.566 187.46 217.566 187.456C217.566 187.448 217.565 187.438 217.565 187.429C217.565 187.427 217.565 187.426 217.565 187.424C217.565 187.413 217.564 187.401 217.564 187.39C217.564 187.386 217.564 187.382 217.564 187.378C217.418 181.652 217.174 176.617 216.811 174.108C217.186 176.7 217.434 181.988 217.578 187.95ZM216.452 172.571C216.449 172.565 216.447 172.558 216.444 172.552C216.447 172.558 216.449 172.565 216.452 172.571ZM216.428 172.513C216.425 172.507 216.423 172.501 216.42 172.495C216.423 172.501 216.425 172.507 216.428 172.513ZM216.354 172.336C216.348 172.324 216.343 172.311 216.337 172.298C216.343 172.311 216.348 172.324 216.354 172.336ZM216.319 172.254C216.316 172.249 216.314 172.243 216.312 172.238C216.314 172.243 216.316 172.249 216.319 172.254ZM211.83 163.042C211.743 162.873 211.661 162.715 211.585 162.57C211.661 162.715 211.743 162.873 211.83 163.042Z" fill="#BFE7F4"/>
<path fill-rule="evenodd" clip-rule="evenodd" d="M204.916 217.871C193.702 217.871 193.575 216.322 193.574 216.254C193.574 216.254 193.574 216.254 193.574 216.254C193.574 216.254 193.574 216.254 193.574 216.254C193.574 216.253 193.574 216.252 193.574 216.252V216.252C193.574 216.252 193.574 216.252 193.574 216.252C193.574 216.252 193.574 216.252 193.574 216.252V216.251C193.574 216.251 193.574 216.251 193.574 216.251C193.574 216.251 193.574 216.251 193.574 216.251C193.574 216.251 193.574 216.251 193.574 216.251C193.574 216.251 193.574 216.25 193.574 216.25C193.574 216.25 193.574 216.25 193.574 216.25C193.574 216.25 193.574 216.249 193.574 216.249C193.574 216.249 193.574 216.249 193.574 216.249C193.574 216.249 193.574 216.248 193.574 216.248V216.248C193.573 216.186 193.562 215.413 193.545 214.114C193.934 214.075 194.344 214.033 194.776 213.986C194.788 215.033 194.796 215.625 194.796 215.625C194.796 215.625 194.796 215.626 194.796 215.627C194.796 215.627 194.796 215.627 194.796 215.627C194.796 215.627 194.796 215.627 194.796 215.628C194.796 215.695 194.911 217.226 204.983 217.226C205.91 217.226 206.754 217.213 207.527 217.189C215.341 216.945 215.656 215.574 216.156 215.056C216.356 214.846 216.483 209.535 216.498 202.723C216.912 202.622 217.325 202.515 217.737 202.401C217.729 209.671 217.586 215.456 217.354 215.676C216.798 216.2 216.447 217.587 207.747 217.833C206.888 217.857 205.947 217.871 204.916 217.871ZM217.567 187.491C217.567 187.484 217.567 187.478 217.567 187.471C217.567 187.477 217.567 187.485 217.567 187.491ZM217.566 187.456C217.566 187.448 217.566 187.439 217.566 187.43C217.566 187.438 217.566 187.448 217.566 187.456ZM217.565 187.425C217.565 187.414 217.565 187.402 217.565 187.391C217.565 187.401 217.565 187.414 217.565 187.425ZM217.564 187.378C217.513 185.395 217.451 183.496 217.376 181.755L216.726 181.899C216.549 181.938 216.372 181.976 216.194 182.013C216.016 177.203 215.752 173.525 215.386 172.54C215.385 172.537 215.384 172.534 215.383 172.531C215.382 172.528 215.381 172.526 215.38 172.523C215.38 172.522 215.379 172.521 215.379 172.52C215.319 172.357 215.253 172.187 215.184 172.009C215.183 172.007 215.183 172.006 215.183 172.005C215.182 172.003 215.181 172.001 215.18 171.999C215.177 171.99 215.173 171.982 215.17 171.973C215.17 171.973 215.17 171.972 215.17 171.972C214.414 170.038 213.171 167.274 212.153 165.064C211.944 164.132 211.748 163.273 211.585 162.57C211.661 162.715 211.743 162.873 211.83 163.042C211.832 163.045 211.833 163.048 211.835 163.05C211.835 163.052 211.836 163.053 211.837 163.054C212.955 165.215 214.945 169.126 216.108 171.768C216.108 171.769 216.109 171.77 216.109 171.771C216.118 171.792 216.128 171.813 216.137 171.834L216.137 171.834C216.142 171.846 216.148 171.858 216.153 171.87C216.153 171.871 216.153 171.871 216.153 171.871C216.156 171.877 216.158 171.883 216.161 171.889C216.161 171.889 216.161 171.89 216.162 171.89C216.163 171.893 216.164 171.896 216.165 171.898C216.165 171.899 216.165 171.899 216.165 171.899C216.167 171.902 216.168 171.904 216.169 171.907C216.17 171.909 216.17 171.91 216.171 171.911C216.175 171.922 216.18 171.933 216.185 171.944C216.185 171.944 216.185 171.944 216.185 171.944C216.186 171.947 216.187 171.949 216.189 171.952C216.189 171.953 216.189 171.954 216.19 171.955C216.191 171.957 216.191 171.959 216.192 171.961C216.193 171.962 216.193 171.963 216.194 171.964C216.198 171.974 216.202 171.984 216.207 171.994C216.208 171.996 216.208 171.998 216.209 172C216.21 172.002 216.211 172.005 216.212 172.007C216.212 172.007 216.213 172.007 216.213 172.008C216.214 172.01 216.215 172.012 216.215 172.014C216.216 172.016 216.217 172.018 216.218 172.02C216.218 172.021 216.219 172.022 216.219 172.023C216.22 172.025 216.221 172.027 216.222 172.029C216.223 172.031 216.223 172.032 216.224 172.033C216.224 172.035 216.225 172.037 216.226 172.039C216.227 172.041 216.227 172.042 216.228 172.043C216.228 172.044 216.229 172.045 216.229 172.045C216.231 172.05 216.233 172.055 216.235 172.06C216.236 172.061 216.236 172.061 216.236 172.062C216.237 172.064 216.237 172.065 216.238 172.067C216.239 172.069 216.24 172.07 216.24 172.072C216.241 172.073 216.242 172.075 216.243 172.077C216.243 172.078 216.244 172.079 216.244 172.081C216.245 172.083 216.246 172.085 216.247 172.087C216.247 172.088 216.248 172.089 216.248 172.091C216.249 172.093 216.25 172.095 216.251 172.097C216.251 172.097 216.252 172.098 216.252 172.098C216.253 172.101 216.254 172.104 216.255 172.106C216.256 172.107 216.256 172.108 216.256 172.109C216.259 172.116 216.262 172.123 216.265 172.13C216.266 172.131 216.266 172.132 216.267 172.134C216.268 172.135 216.268 172.137 216.269 172.138C216.27 172.14 216.271 172.142 216.271 172.144C216.272 172.145 216.272 172.146 216.273 172.148C216.274 172.15 216.275 172.152 216.275 172.153C216.276 172.154 216.277 172.156 216.277 172.157C216.278 172.159 216.279 172.162 216.28 172.164C216.28 172.165 216.281 172.166 216.281 172.166C216.282 172.169 216.283 172.171 216.284 172.173C216.284 172.174 216.285 172.175 216.286 172.177C216.286 172.178 216.286 172.179 216.287 172.179C216.288 172.183 216.29 172.186 216.291 172.19C216.292 172.192 216.293 172.194 216.294 172.196C216.294 172.196 216.294 172.197 216.294 172.198C216.296 172.201 216.297 172.203 216.298 172.206C216.298 172.207 216.299 172.207 216.299 172.208C216.3 172.21 216.301 172.212 216.302 172.214C216.302 172.216 216.303 172.217 216.304 172.219C216.304 172.221 216.305 172.222 216.306 172.224C216.306 172.226 216.307 172.227 216.308 172.229C216.308 172.23 216.309 172.232 216.31 172.234C216.31 172.235 216.311 172.237 216.312 172.238C216.314 172.243 216.316 172.248 216.318 172.253C216.32 172.257 216.321 172.26 216.323 172.264C216.323 172.264 216.323 172.265 216.323 172.265C216.324 172.268 216.325 172.27 216.326 172.273C216.327 172.273 216.327 172.274 216.327 172.274C216.328 172.276 216.328 172.278 216.329 172.279C216.33 172.282 216.331 172.284 216.332 172.286C216.332 172.287 216.333 172.287 216.333 172.288C216.334 172.29 216.335 172.293 216.336 172.295C216.336 172.296 216.337 172.297 216.337 172.298C216.343 172.311 216.348 172.323 216.353 172.336C216.354 172.337 216.354 172.338 216.355 172.339C216.356 172.341 216.356 172.343 216.357 172.345C216.358 172.346 216.358 172.347 216.358 172.348C216.359 172.35 216.36 172.352 216.361 172.354C216.362 172.356 216.362 172.357 216.363 172.359C216.363 172.36 216.364 172.361 216.364 172.362C216.365 172.364 216.366 172.366 216.367 172.368C216.367 172.369 216.367 172.37 216.368 172.37C216.369 172.374 216.371 172.379 216.373 172.383C216.374 172.384 216.374 172.385 216.374 172.386C216.375 172.388 216.376 172.389 216.377 172.391C216.377 172.392 216.377 172.393 216.378 172.394C216.379 172.396 216.379 172.398 216.38 172.399C216.381 172.401 216.382 172.403 216.382 172.405C216.383 172.406 216.383 172.407 216.383 172.408C216.384 172.41 216.385 172.412 216.386 172.414C216.387 172.415 216.387 172.416 216.388 172.417C216.388 172.419 216.389 172.421 216.39 172.423C216.39 172.425 216.391 172.426 216.392 172.428C216.392 172.428 216.392 172.428 216.392 172.429C216.393 172.431 216.394 172.434 216.395 172.436C216.396 172.437 216.397 172.439 216.397 172.44C216.398 172.443 216.4 172.447 216.401 172.45C216.402 172.451 216.402 172.452 216.403 172.454C216.404 172.456 216.405 172.458 216.406 172.461C216.406 172.461 216.406 172.462 216.406 172.462C216.407 172.464 216.408 172.467 216.409 172.469C216.41 172.47 216.41 172.47 216.41 172.471C216.411 172.473 216.412 172.475 216.413 172.478C216.413 172.479 216.414 172.479 216.414 172.481C216.415 172.482 216.415 172.484 216.416 172.485C216.417 172.487 216.418 172.489 216.419 172.491C216.419 172.492 216.419 172.494 216.42 172.495C216.422 172.501 216.425 172.507 216.427 172.513C216.428 172.513 216.428 172.514 216.428 172.514C216.429 172.517 216.43 172.52 216.431 172.522C216.432 172.523 216.432 172.524 216.433 172.526C216.433 172.527 216.434 172.528 216.434 172.53C216.435 172.531 216.436 172.533 216.437 172.535C216.437 172.537 216.438 172.539 216.439 172.541C216.439 172.541 216.44 172.542 216.44 172.543C216.441 172.546 216.442 172.548 216.443 172.551C216.443 172.551 216.444 172.552 216.444 172.552C216.446 172.558 216.449 172.564 216.451 172.57C216.452 172.571 216.452 172.572 216.452 172.573C216.453 172.575 216.454 172.577 216.455 172.579C216.456 172.58 216.456 172.581 216.456 172.583C216.457 172.584 216.458 172.586 216.459 172.588C216.459 172.589 216.46 172.591 216.46 172.592C216.461 172.594 216.462 172.595 216.462 172.597C216.463 172.598 216.463 172.6 216.464 172.601C216.464 172.602 216.465 172.604 216.466 172.605C216.467 172.607 216.467 172.609 216.468 172.61C216.469 172.612 216.469 172.614 216.47 172.616C216.471 172.617 216.471 172.618 216.471 172.618C216.472 172.62 216.472 172.622 216.473 172.623C216.474 172.626 216.476 172.629 216.477 172.632C216.477 172.634 216.478 172.635 216.478 172.636C216.479 172.638 216.48 172.639 216.48 172.641C216.481 172.642 216.481 172.643 216.482 172.644C216.482 172.646 216.483 172.648 216.484 172.649C216.484 172.651 216.485 172.652 216.486 172.654C216.486 172.655 216.487 172.656 216.487 172.658C216.488 172.659 216.489 172.661 216.489 172.662C216.49 172.664 216.49 172.665 216.491 172.667C216.492 172.668 216.492 172.67 216.493 172.672C216.494 172.673 216.494 172.674 216.494 172.675C216.496 172.678 216.497 172.681 216.498 172.684C216.611 172.96 216.715 173.446 216.811 174.108C217.174 176.617 217.418 181.652 217.564 187.378Z" fill="#44B8EA"/>
<path fill-rule="evenodd" clip-rule="evenodd" d="M216.194 182.013C216.016 177.203 215.752 173.525 215.387 172.54C215.385 172.537 215.384 172.534 215.383 172.531C215.384 172.534 215.385 172.537 215.387 172.54C215.752 173.525 216.016 177.203 216.194 182.013ZM215.181 172C215.177 171.991 215.174 171.982 215.171 171.973C215.174 171.982 215.177 171.991 215.181 172ZM215.17 171.972C214.785 170.989 214.275 169.791 213.733 168.56H212.909C212.665 167.386 212.401 166.174 212.153 165.064C213.172 167.274 214.414 170.038 215.17 171.972Z" fill="#8BD0F0"/>
<path fill-rule="evenodd" clip-rule="evenodd" d="M204.983 217.226C194.911 217.226 194.796 215.695 194.796 215.627C194.796 215.627 194.796 215.627 194.796 215.627C194.796 215.627 194.796 215.627 194.796 215.627C194.796 215.626 194.796 215.625 194.796 215.625C194.796 215.625 194.788 215.033 194.775 213.986C196.669 213.782 198.981 213.5 201.806 213.115C204.879 212.696 207.221 210.998 208.996 208.519C212.501 207.67 215.251 205.506 216.27 202.777C216.346 202.759 216.421 202.741 216.498 202.723C216.482 209.535 216.356 214.846 216.155 215.056C215.656 215.574 215.34 216.945 207.526 217.189C206.754 217.213 205.909 217.226 204.983 217.226ZM214.279 182.372C214.221 177.668 213.863 174.025 213.723 172.999C213.572 171.889 213.263 170.266 212.909 168.56H213.733C214.275 169.791 214.785 170.989 215.17 171.972C215.17 171.972 215.17 171.973 215.17 171.973C215.173 171.982 215.177 171.99 215.18 171.999C215.181 172.001 215.182 172.003 215.183 172.005C215.183 172.006 215.184 172.007 215.184 172.009C215.254 172.187 215.319 172.357 215.379 172.52C215.38 172.521 215.38 172.522 215.38 172.523C215.381 172.526 215.382 172.528 215.383 172.531C215.384 172.534 215.386 172.537 215.387 172.54C215.752 173.525 216.016 177.203 216.195 182.013C215.558 182.146 214.92 182.266 214.279 182.372Z" fill="#B3E2F3"/>
<path fill-rule="evenodd" clip-rule="evenodd" d="M216.27 202.777C216.548 202.031 216.698 201.243 216.698 200.427C216.698 198.144 215.527 196.072 213.623 194.547C213.767 193.472 213.883 192.39 213.975 191.315C215.213 191.179 216.439 190.827 217.627 190.187C217.706 194.271 217.741 198.544 217.736 202.401C217.737 202.401 217.737 202.401 217.737 202.401C217.325 202.514 216.912 202.622 216.498 202.722C216.422 202.741 216.346 202.759 216.27 202.777ZM217.621 189.891C217.605 189.112 217.588 188.339 217.569 187.579C216.508 188.398 215.352 188.858 214.137 189.049C214.272 186.708 214.304 184.436 214.279 182.372C214.92 182.265 215.558 182.146 216.195 182.013C216.372 181.976 216.549 181.938 216.726 181.898L217.376 181.755C217.451 183.496 217.513 185.395 217.564 187.378C217.564 187.382 217.564 187.386 217.564 187.39C217.565 187.401 217.565 187.413 217.565 187.424C217.565 187.426 217.565 187.427 217.565 187.429C217.565 187.438 217.566 187.447 217.566 187.456C217.566 187.46 217.566 187.466 217.566 187.471C217.566 187.477 217.567 187.483 217.567 187.49C217.571 187.643 217.574 187.796 217.578 187.95V187.95C217.578 187.962 217.579 187.972 217.579 187.984C217.579 187.987 217.579 187.99 217.579 187.993C217.579 188.001 217.579 188.008 217.58 188.015C217.58 188.024 217.58 188.034 217.58 188.043C217.58 188.05 217.581 188.057 217.581 188.063C217.595 188.666 217.609 189.276 217.621 189.891Z" fill="#0082BF"/>
<path fill-rule="evenodd" clip-rule="evenodd" d="M213.975 191.316C214.041 190.555 214.094 189.799 214.137 189.049C215.352 188.858 216.508 188.399 217.569 187.579C217.588 188.34 217.605 189.112 217.621 189.892C217.623 189.99 217.625 190.089 217.627 190.187C216.439 190.828 215.213 191.179 213.975 191.316Z" fill="#006CB8"/>
<path fill-rule="evenodd" clip-rule="evenodd" d="M208.996 208.519C209.323 208.062 209.63 207.58 209.92 207.073C213.355 205.886 215.797 203.32 215.797 200.427C215.797 198.681 214.907 197.054 213.445 195.777C213.508 195.368 213.567 194.958 213.623 194.547C215.527 196.072 216.698 198.144 216.698 200.427C216.698 201.243 216.548 202.031 216.27 202.777C215.251 205.506 212.501 207.67 208.996 208.519Z" fill="#0082BF"/>
<path fill-rule="evenodd" clip-rule="evenodd" d="M209.92 207.073C210.743 205.634 211.419 204.004 211.973 202.258C211.988 202.273 212.004 202.287 212.019 202.301C212.42 202.658 212.748 202.855 213.084 202.855C213.453 202.855 213.83 202.619 214.323 202.098C214.803 201.591 215.258 200.925 215.689 200.102L215.394 199.925C215.07 200.492 214.299 201.554 213.825 201.925C213.62 202.085 213.423 202.155 213.234 202.155C212.862 202.155 212.521 201.884 212.204 201.496C212.352 200.988 212.491 200.471 212.62 199.946C212.968 199.733 213.325 199.565 213.585 199.534C213.446 199.205 213.32 199.041 213.209 199.041C213.109 199.041 212.971 199.094 212.796 199.202C213.05 198.083 213.265 196.936 213.445 195.777C214.907 197.054 215.797 198.681 215.797 200.428C215.797 203.32 213.356 205.886 209.92 207.073Z" fill="#B3E1EF"/>
<path fill-rule="evenodd" clip-rule="evenodd" d="M213.085 202.855C212.748 202.855 212.42 202.658 212.02 202.301C212.004 202.287 211.988 202.273 211.973 202.258C212.053 202.006 212.13 201.753 212.204 201.496C212.521 201.884 212.863 202.155 213.234 202.155C213.423 202.155 213.62 202.085 213.825 201.925C214.299 201.554 215.07 200.492 215.394 199.925L215.689 200.102C215.258 200.926 214.803 201.591 214.323 202.098C213.83 202.619 213.453 202.856 213.085 202.855ZM212.62 199.946C212.681 199.7 212.74 199.451 212.796 199.202C212.971 199.094 213.109 199.041 213.209 199.041C213.32 199.041 213.446 199.205 213.585 199.534C213.326 199.565 212.968 199.733 212.62 199.946Z" fill="#BF3F08"/>
<path fill-rule="evenodd" clip-rule="evenodd" d="M217.354 215.676C217.193 215.865 217.053 216.073 216.864 216.249C213.413 219.284 193.735 218.454 193.574 216.252C194.012 218.126 211.6 217.581 214.696 216.947C215.684 216.76 216.678 216.443 217.354 215.676Z" fill="#0C6D84"/>
<path fill-rule="evenodd" clip-rule="evenodd" d="M186.393 170.747C185.354 168.213 186.072 165.14 186.862 163.009C187.486 161.313 188.655 159.035 189.227 157.952C189.348 157.723 189.683 157.759 189.756 158.007L189.946 158.665C190.139 159.324 190.036 160.034 189.66 160.608C188.506 162.373 186.162 166.511 187.028 170.017C187.126 170.412 186.578 171.201 186.393 170.747Z" fill="#41603B"/>
<path fill-rule="evenodd" clip-rule="evenodd" d="M245.531 185.888L252.673 254.334C253.561 262.824 246.734 270.136 238.205 269.833L223.801 269.322C216.526 269.064 211.087 262.546 212.135 255.343L222.472 192.275L245.531 185.888Z" fill="#FCECDB"/>
<path fill-rule="evenodd" clip-rule="evenodd" d="M195.318 184.106C195.318 184.106 218.215 192.803 245.53 185.888L234.583 269.63L184.128 267.84L195.318 184.106Z" fill="#FCECDB"/>
<path fill-rule="evenodd" clip-rule="evenodd" d="M195.318 184.106L202.465 252.553C203.348 261.042 196.522 268.354 187.993 268.052L173.588 267.541C166.313 267.282 160.875 260.764 161.923 253.561L171.276 183.253C171.276 183.253 174.627 184.03 182.835 184.321C190.961 184.609 195.318 184.106 195.318 184.106Z" fill="#EFCBAB"/>
<path fill-rule="evenodd" clip-rule="evenodd" d="M237.632 196.641C237.632 195.721 236.895 194.975 235.983 194.975C235.075 194.975 234.334 195.721 234.334 196.641C234.334 197.256 234.667 197.792 235.157 198.08C235.856 203.687 234.752 208.27 232.003 211.078C229.501 213.63 225.706 214.576 221.031 213.813C216.921 213.143 214.213 208.545 212.667 204.807C211.557 202.118 210.871 199.47 210.518 197.898C210.864 197.592 211.087 197.143 211.087 196.641C211.087 195.721 210.347 194.975 209.438 194.975C208.527 194.975 207.79 195.721 207.79 196.641C207.79 197.261 208.125 197.801 208.622 198.088C209.51 202.198 212.791 214.398 220.733 215.693C221.888 215.882 222.999 215.975 224.058 215.975C227.866 215.975 231.037 214.77 233.34 212.417C236.497 209.198 237.786 204.089 237.035 197.922C237.399 197.617 237.632 197.156 237.632 196.641Z" fill="#9D9D9D"/>
<path fill-rule="evenodd" clip-rule="evenodd" d="M163.687 260.984C163.687 260.984 181.911 273.007 188.943 273.777C193.729 274.303 212.633 273.528 212.739 271.143C212.888 267.764 201.192 264.201 198.164 262.845C195.131 261.489 192.762 259.926 192.784 258.62C192.805 257.312 204.501 261.64 203.237 258.787C201.978 255.935 191.169 250.968 188.561 250.49C185.948 250.013 177.529 252.87 174.257 251.357C170.985 249.844 163.687 260.984 163.687 260.984Z" fill="#FFB27D"/>
<path fill-rule="evenodd" clip-rule="evenodd" d="M113.876 108.516C113.876 108.516 101.395 113.788 86.5592 141.508C71.7231 169.228 57.69 227.926 63.7042 237.471C69.7185 247.015 120.372 268.863 164.521 263.041C164.521 263.041 175.474 253.065 173.269 249.22C173.269 249.22 100.662 219.69 100.783 213.869C100.858 210.261 139.419 161.564 140.922 146.08C142.425 130.595 113.876 108.516 113.876 108.516Z" fill="#439801"/>
<path fill-rule="evenodd" clip-rule="evenodd" d="M136.112 102.954C141.849 112.031 146.4 128.494 138.168 158.846C130.661 186.537 111.744 209.029 104.612 217.901C102.25 216.118 101.301 216.328 104.612 211.27C100.749 215.223 105.165 206.849 104.06 207.401C102.954 207.954 113.998 198.885 125.43 162.197C136.867 125.511 126.888 104.473 126.888 104.473L136.112 102.954Z" fill="#FAC57F"/>
<path fill-rule="evenodd" clip-rule="evenodd" d="M142.189 57.1819L147.701 62.638C148.303 65.4134 148.45 57.5494 148.281 56.6504L146.228 45.7587C146.228 45.7587 155.152 47.6535 151.557 35.3778C151.557 35.3778 177.952 15.7349 186.79 37.3136C186.79 37.3136 194.974 32.3891 189.101 25.1974C189.101 25.1974 198.988 13.3082 184.646 5.02375C170.308 -3.26315 144.889 5.81174 135.887 19.3229C135.887 19.3229 109.814 27.2177 137.217 57.6155L142.189 57.1819Z" fill="#030907"/>
<path fill-rule="evenodd" clip-rule="evenodd" d="M147.357 58.5354C149.259 63.2177 148.021 68.1962 144.591 69.6495C141.16 71.1052 136.836 68.4874 134.934 63.8051C133.03 59.119 134.268 54.1448 137.699 52.6891C141.131 51.2353 145.453 53.8517 147.357 58.5354Z" fill="#FFB27D"/>
<path fill-rule="evenodd" clip-rule="evenodd" d="M168.082 49.5356C167.798 50.7026 168.272 51.939 169.144 52.2978C170.014 52.6565 170.949 52.0036 171.235 50.8366C171.517 49.6695 171.041 48.4331 170.173 48.0744C169.303 47.7132 168.366 48.3685 168.082 49.5356Z" fill="#030907"/>
<path fill-rule="evenodd" clip-rule="evenodd" d="M183.737 47.6003C183.706 48.7822 184.185 49.965 184.81 50.2425C185.433 50.5201 185.962 49.7896 185.994 48.6075C186.024 47.4258 185.544 46.2431 184.922 45.9653C184.299 45.6853 183.768 46.4184 183.737 47.6003Z" fill="#030907"/>
<path d="M174.632 67.8962L187.759 66.048C187.759 66.048 185.74 71.4074 182.529 72.1448C178.957 72.9654 174.632 67.8962 174.632 67.8962Z" fill="white" stroke="black" stroke-width="0.7"/>
<path fill-rule="evenodd" clip-rule="evenodd" d="M180.81 52.0092L184.235 57.8882L184.325 58.309L184.137 58.6173L181.724 59.9892C181.521 60.1058 181.241 59.9808 181.1 59.7119C180.958 59.4409 181.009 59.1275 181.213 59.0132L183.234 57.8629L180.103 52.4892C179.952 52.228 179.985 51.9067 180.179 51.7754C180.375 51.6433 180.657 51.7488 180.81 52.0092Z" fill="black"/>
<path fill-rule="evenodd" clip-rule="evenodd" d="M166.913 43.4036C166.913 43.4036 170.921 42.3941 171.223 43.6459C171.223 43.6459 171.394 44.4998 167.887 45.3292C164.379 46.1573 163.416 46.1302 162.929 45.3885C162.441 44.647 165.012 43.7647 166.913 43.4036Z" fill="#030907"/>
<path fill-rule="evenodd" clip-rule="evenodd" d="M182.73 40.5758C182.73 40.5758 186.081 39.9354 186.269 41.208C186.269 41.208 186.369 42.0729 183.439 42.5796C180.509 43.085 179.717 42.9706 179.352 42.1886C178.985 41.4067 181.146 40.7624 182.73 40.5758Z" fill="#030907"/>
</svg>
