<svg width="55" height="39" viewBox="0 0 55 39" fill="none" xmlns="http://www.w3.org/2000/svg">
<path d="M15.9429 17.5435H9.8345C9.4851 17.5435 9.20117 17.8266 9.20117 18.1768V18.1998L11.7222 21.1487C12.0207 21.4974 12.1652 21.9414 12.1291 22.3993C12.0933 22.8569 11.8815 23.2728 11.5326 23.5708C11.2214 23.8365 10.8254 23.9829 10.4172 23.9829C9.95625 23.9829 9.52349 23.7918 9.2012 23.4659V24.2847C9.2012 24.6341 9.48461 24.918 9.83452 24.918H15.9424C16.2923 24.918 16.5757 24.6346 16.5757 24.2847V18.1768C16.5757 17.8267 16.2928 17.5435 15.9429 17.5435L15.9429 17.5435Z" fill="#676767"/>
<path d="M6.48852 25.8654H7.4554L7.05357 20.4098L9.38913 23.1423C9.65694 23.4551 10.0355 23.6158 10.4169 23.6158C10.7279 23.6158 11.0392 23.5091 11.2944 23.2912C11.8618 22.8067 11.9285 21.9539 11.4433 21.3866L6.7182 15.8591L6.61436 14.4528C6.61436 13.0058 5.35922 11.8328 3.81073 11.8328H3.67057C2.12155 11.8328 0.866419 13.0058 0.866419 14.4528L0.0251239 25.8654H0.992011V25.9611L0.00593757 36.5257C-0.0633803 37.2691 0.482206 37.9271 1.22552 37.997C1.26772 38.0009 1.31018 38.0024 1.35239 38.0024C2.04222 38.0024 2.63076 37.4773 2.69605 36.7772L3.65141 26.5491H3.83072L4.78556 36.7772C4.85078 37.4772 5.43909 38.0024 6.1287 38.0024C6.1709 38.0024 6.21311 38.0009 6.25633 37.9965C6.99888 37.9272 7.54499 37.2691 7.47591 36.5252L6.48859 25.9606L6.48852 25.8654Z" fill="#676767"/>
<path d="M6.92173 7.96477C6.92173 9.60205 5.59424 10.9293 3.95696 10.9293C2.31968 10.9293 0.992188 9.60198 0.992188 7.96477C0.992188 6.32723 2.31968 5 3.95696 5C5.59424 5 6.92173 6.32729 6.92173 7.96477Z" fill="#676767"/>
<path d="M20.622 0.457701V4.46447C20.622 6.61223 19.3078 9.28882 17.9454 11.9976C17.8012 12.2702 18.0416 12.6706 18.3622 12.6706H32.8352V14.4817H30.9439C30.7357 14.5139 30.5593 14.7221 30.5754 14.9303V18.0878C30.5754 18.3282 30.7836 18.5364 31.0241 18.5364H40.977C41.2171 18.5368 41.4257 18.3285 41.4257 18.0881V14.9307C41.4257 14.6902 41.2174 14.482 40.977 14.482H39.1659V12.6709H53.6389C53.9755 12.6709 54.1999 12.238 54.0235 11.9657C52.2446 9.30517 51.3791 6.66049 51.3791 4.41684V0.457975C51.3791 0.121312 50.9462 -0.119111 50.6739 0.0733564C49.3112 0.970669 48.0611 1.80401 46.4261 1.80401H25.5905C23.9397 1.80401 22.6896 0.970749 21.3272 0.0730332C20.9108 -0.119434 20.6703 0.0891249 20.6221 0.457652L20.622 0.457701ZM21.4552 5.42624H24.5647L22.9779 11.7572H19.0673C20.1414 9.60941 21.1829 7.4459 21.4555 5.42624H21.4552ZM25.4942 5.42624H28.2187L27.0326 11.7572H23.9074L25.4942 5.42624ZM29.1325 5.42624H31.8731L31.0717 11.7572H27.9465L29.1325 5.42624ZM32.7708 5.42624H35.5436V11.7572H31.9854L32.7708 5.42624ZM36.457 5.42624H39.2137L40.0152 11.7572H36.457L36.457 5.42624ZM40.1272 5.42624H42.8679L44.0539 11.7572H40.9126L40.1272 5.42624ZM43.7655 5.42624H46.5061L48.0768 11.7572H44.9516L43.7655 5.42624ZM47.4357 5.42624H50.5291C50.7373 7.42982 51.5227 9.59334 52.8532 11.7572H49.0227L47.4357 5.42624ZM33.7325 12.6706H38.2523V14.4817H33.7325V12.6706ZM20.0454 13.1196C19.805 13.1518 19.6125 13.3922 19.6447 13.6324C19.6769 13.8728 19.9331 14.0492 20.1735 14.017H20.6222V33.9236H20.0773C19.8368 33.9397 19.6444 34.1801 19.6766 34.4205C19.6927 34.661 19.9331 34.8534 20.1735 34.8212H25.5907C25.8311 34.8373 26.0554 34.613 26.0554 34.3726C26.0554 34.1321 25.8311 33.9239 25.5907 33.9239H25.142V14.0173H25.5907C25.8311 14.0334 26.0554 13.809 26.0554 13.5686C26.0554 13.3282 25.8311 13.1199 25.5907 13.1199H20.0451L20.0454 13.1196ZM46.2822 13.1196C46.0418 13.1518 45.8493 13.3922 45.8815 13.6324C45.9137 13.8728 46.1699 14.0492 46.3942 14.017H46.859V33.9236H46.3141C46.0737 33.9397 45.8812 34.1801 45.9134 34.4205C45.9295 34.661 46.1699 34.8534 46.3942 34.8212H51.8276C52.068 34.8373 52.2923 34.613 52.2923 34.3726C52.2923 34.1321 52.068 33.9239 51.8276 33.9239H51.3789V14.0173H51.8276C52.068 14.0334 52.2923 13.809 52.2923 13.5686C52.2923 13.3282 52.068 13.1199 51.8276 13.1199H46.282L46.2822 13.1196ZM17.8976 35.2855V36.1831H54.0874V35.2855H17.8976ZM17 37.0966V37.9942H55.0007V37.0966H17Z" fill="#676767"/>
</svg>
