<svg width="14" height="14" viewBox="0 0 14 14" fill="none" xmlns="http://www.w3.org/2000/svg">
<path d="M13.723 0.053004C13.6535 0.0181489 13.5767 0 13.4989 0C13.4211 0 13.3444 0.0181489 13.2749 0.053004L0.276175 6.55234C0.18238 6.59932 0.10573 6.6746 0.0570683 6.76753C0.00840666 6.86047 -0.00980276 6.96635 0.00501605 7.0702C0.0198348 7.17405 0.0669317 7.27061 0.139644 7.34622C0.212356 7.42184 0.307002 7.47267 0.410194 7.49154L5.56989 8.4302L6.50855 13.5899C6.52734 13.693 6.57801 13.7875 6.65342 13.8602C6.72883 13.9329 6.82516 13.9801 6.92883 13.9952C6.95227 13.9985 6.97592 14.0001 6.99959 14C7.09254 14 7.18365 13.9742 7.26272 13.9253C7.34179 13.8764 7.40567 13.8065 7.44721 13.7234L13.9471 0.723094C14.0061 0.604496 14.0156 0.467337 13.9736 0.341712C13.9316 0.216087 13.8415 0.112257 13.723 0.053004Z" fill="white"/>
</svg>
