<svg width="23" height="25" viewBox="0 0 23 25" fill="none" xmlns="http://www.w3.org/2000/svg">
<g clip-path="url(#clip0_709_7469)">
<path d="M16.9052 5.23926V6.89552H14.9205V5.28976C14.9205 4.48066 14.5709 3.75032 14.0034 3.21933C13.4376 2.68985 12.6554 2.36275 11.7907 2.36275C10.063 2.36275 8.661 3.67306 8.661 5.28976V6.89552H6.67627V5.23926C6.67627 2.60129 8.97192 0.453613 11.7907 0.453613C14.6096 0.453613 16.9052 2.60167 16.9052 5.23926Z" fill="#EBEBEB"/>
<g opacity="0.3">
<path opacity="0.3" d="M16.9052 5.23926V6.89552H14.9205V5.28976C14.9205 4.48066 14.5709 3.75032 14.0034 3.21933C13.4376 2.68985 12.6554 2.36275 11.7907 2.36275C10.063 2.36275 8.661 3.67306 8.661 5.28976V6.89552H6.67627V5.23926C6.67627 2.60129 8.97192 0.453613 11.7907 0.453613C14.6096 0.453613 16.9052 2.60167 16.9052 5.23926Z" fill="#2E2E2E"/>
</g>
<path d="M16.9053 7.34937H14.9206C14.6528 7.34937 14.4361 7.14625 14.4361 6.89564V5.28987C14.4361 4.62925 14.1606 4.00782 13.6608 3.54015C13.1618 3.07361 12.4981 2.81659 11.7909 2.81659C10.3321 2.81659 9.14563 3.92605 9.14563 5.28987V6.89564C9.14563 7.14625 8.92855 7.34937 8.66113 7.34937H6.6764C6.40857 7.34937 6.19189 7.14625 6.19189 6.89564V5.239C6.19149 2.35043 8.70342 0 11.7909 0C14.8783 0 17.3902 2.35043 17.3902 5.23938V6.89602C17.3902 7.14663 17.1732 7.34975 16.9057 7.34975L16.9053 7.34937ZM15.4051 6.44229H16.4204V5.23938C16.4204 2.85051 14.3435 0.907083 11.7905 0.907083C9.23746 0.907083 7.1605 2.85051 7.1605 5.23938V6.44229H8.17582V5.28987C8.17582 3.42596 9.79727 1.90913 11.7905 1.90913C12.7562 1.90913 13.664 2.26074 14.3459 2.89837C15.0289 3.53751 15.4051 4.38656 15.4051 5.2895V6.44191V6.44229Z" fill="#2E2E2E"/>
<path d="M14.9206 7.34942H8.66077C8.39295 7.34942 8.17627 7.14629 8.17627 6.89569V5.28992C8.17627 3.42601 9.79772 1.90918 11.7909 1.90918C12.7567 1.90918 13.6645 2.26078 14.3463 2.89842C15.0294 3.53756 15.4056 4.38661 15.4056 5.28954V6.89531C15.4056 7.14592 15.1885 7.34904 14.9211 7.34904L14.9206 7.34942ZM9.14528 6.44233H14.4357V5.28992C14.4357 4.6293 14.1603 4.00787 13.6605 3.5402C13.1615 3.07365 12.4977 2.81664 11.7905 2.81664C10.3318 2.81664 9.14528 3.92609 9.14528 5.28992V6.44233Z" fill="#2E2E2E"/>
<path d="M18.8116 22.9318C18.8201 23.7839 18.0835 24.4792 17.1733 24.4792H2.19557C1.28496 24.4792 0.548743 23.7839 0.557201 22.9318L1.5403 8.41471C1.54876 7.57395 2.27854 6.896 3.17867 6.896H16.1902C17.0887 6.896 17.8201 7.57395 17.8285 8.41471L18.8116 22.9318Z" fill="#FCC15B"/>
<g opacity="0.55">
<path opacity="0.55" d="M1.47412 8.13325C1.64489 8.07635 1.82894 8.04469 2.02145 8.04469H15.0329C15.9331 8.04469 16.6629 8.72265 16.6713 9.56341L17.6544 24.0805C17.656 24.2893 17.6137 24.4883 17.5344 24.6699C18.1748 24.4581 18.6323 23.8827 18.6254 23.2111L17.6423 8.69401C17.6339 7.85325 16.9041 7.17529 16.004 7.17529H2.99287C2.30539 7.17529 1.71778 7.57212 1.47452 8.13325H1.47412Z" fill="white"/>
</g>
<path d="M22.443 22.9318C22.4514 23.7839 21.7148 24.4792 20.8046 24.4792H17.173C18.0836 24.4792 18.8199 23.7839 18.8114 22.9318L17.8283 8.41471C17.8199 7.57395 17.0885 6.896 16.1899 6.896H19.3148C20.2134 6.896 20.9448 7.57395 20.9532 8.41471L22.443 22.9318Z" fill="#FCC15B"/>
<g opacity="0.2">
<path opacity="0.2" d="M22.443 22.9318C22.4514 23.7839 21.7148 24.4792 20.8046 24.4792H17.173C18.0836 24.4792 18.8199 23.7839 18.8114 22.9318L17.8283 8.41471C17.8199 7.57395 17.0885 6.896 16.1899 6.896H19.3148C20.2134 6.896 20.9448 7.57395 20.9532 8.41471L22.443 22.9318Z" fill="#2E2E2E"/>
</g>
<path d="M17.1728 25.0001H2.19546C1.60543 25.0001 1.05166 24.7837 0.636025 24.3914C0.220391 23.9991 -0.00514654 23.4791 8.91485e-05 22.927C8.91485e-05 22.9176 0.000491894 22.9081 0.00129739 22.8987L0.983594 8.39444C1.00333 7.27933 1.98482 6.37451 3.17856 6.37451H16.1897C17.3838 6.37451 18.3649 7.27933 18.3846 8.39444L19.3669 22.8984C19.3673 22.9078 19.3677 22.9172 19.3681 22.9266C19.3734 23.4787 19.1478 23.9988 18.7322 24.3914C18.3166 24.7837 17.7628 25.0001 17.1728 25.0001ZM1.11408 22.9492C1.11489 23.2164 1.22605 23.4678 1.42742 23.6581C1.63242 23.8514 1.90508 23.9581 2.19546 23.9581H17.1728C17.4635 23.9581 17.7362 23.8514 17.9408 23.6581C18.1422 23.4678 18.2533 23.2164 18.2541 22.9492L17.2722 8.44758C17.2718 8.43815 17.2714 8.42873 17.271 8.41931C17.2654 7.86647 16.7805 7.41689 16.1897 7.41689H3.17856C2.58773 7.41689 2.10242 7.86647 2.09719 8.41931C2.09719 8.42873 2.09678 8.43815 2.09598 8.44758L1.11408 22.9492Z" fill="#2E2E2E"/>
<path d="M20.8045 24.9999H17.1729C16.8652 24.9999 16.6159 24.7667 16.6159 24.4788C16.6159 24.1908 16.8652 23.9576 17.1729 23.9576C17.4637 23.9576 17.7364 23.8509 17.9409 23.6576C18.1423 23.4673 18.2535 23.2159 18.2543 22.9487L17.2724 8.44709C17.272 8.43767 17.2716 8.42824 17.2712 8.41882C17.2655 7.86598 16.7806 7.4164 16.1898 7.4164C15.8821 7.4164 15.6328 7.18313 15.6328 6.89521C15.6328 6.60729 15.8821 6.37402 16.1898 6.37402H19.3147C20.5052 6.37402 21.4843 7.27395 21.5097 8.38491L22.9974 22.8813C22.999 22.8964 22.9998 22.9114 22.9998 22.9265C23.0051 23.4786 22.7795 23.999 22.3639 24.3913C21.9483 24.784 21.3945 24.9999 20.8045 24.9999ZM19.0843 23.9576H20.8045C21.0953 23.9576 21.3679 23.8509 21.5725 23.658C21.7723 23.4695 21.883 23.2208 21.8858 22.9566L20.3985 8.46442C20.3969 8.44935 20.3961 8.43427 20.3961 8.41958C20.3904 7.86673 19.9055 7.41677 19.3147 7.41677H18.0984C18.2748 7.70657 18.3787 8.03971 18.3848 8.3947L19.3671 22.8986C19.3675 22.908 19.3679 22.9175 19.3683 22.9269C19.3719 23.2939 19.2732 23.647 19.0843 23.9579V23.9576Z" fill="#2E2E2E"/>
<path d="M14.9203 5.23926V6.89552H12.9356V5.28976C12.9356 4.48066 12.586 3.75032 12.0186 3.21933C11.4527 2.68985 10.6706 2.36275 9.80587 2.36275C8.07809 2.36275 6.67614 3.67306 6.67614 5.28976V6.89552H4.69141V5.23926C4.69141 2.60129 6.98706 0.453613 9.80587 0.453613C12.6247 0.453613 14.9203 2.60167 14.9203 5.23926Z" fill="#EBEBEB"/>
<path d="M14.9205 7.34937H12.9357C12.6679 7.34937 12.4512 7.14625 12.4512 6.89564V5.28987C12.4512 4.62925 12.1758 4.00782 11.6759 3.54015C11.1769 3.07361 10.5132 2.81659 9.806 2.81659C8.34726 2.81659 7.16077 3.92605 7.16077 5.28987V6.89564C7.16077 7.14625 6.94369 7.34937 6.67626 7.34937H4.69153C4.42371 7.34937 4.20703 7.14625 4.20703 6.89564V5.239C4.20663 2.35043 6.71855 0 9.806 0C12.8934 0 15.4054 2.35043 15.4054 5.23938V6.89602C15.4054 7.14663 15.1883 7.34975 14.9209 7.34975L14.9205 7.34937ZM13.4202 6.44229H14.4356V5.23938C14.4356 2.85051 12.3586 0.907083 9.8056 0.907083C7.25259 0.907083 5.17563 2.85051 5.17563 5.23938V6.44229H6.19096V5.28987C6.19096 3.42596 7.81241 1.90913 9.8056 1.90913C10.7714 1.90913 11.6792 2.26074 12.361 2.89837C13.0441 3.53751 13.4202 4.38656 13.4202 5.2895V6.44191V6.44229Z" fill="#2E2E2E"/>
<path d="M12.936 7.3701H6.67609C6.39618 7.3701 6.16943 7.15793 6.16943 6.89602V5.29025C6.16943 3.41466 7.80096 1.88916 9.80623 1.88916C10.7781 1.88916 11.6911 2.24265 12.3774 2.8848C13.0644 3.52771 13.443 4.38204 13.443 5.29063V6.89639C13.443 7.15831 13.2163 7.37047 12.9364 7.37047L12.936 7.3701ZM7.18274 6.42156H12.4289V5.28987C12.4289 4.6349 12.1558 4.01837 11.6601 3.55447C11.1655 3.0917 10.5066 2.83694 9.80582 2.83694C8.35916 2.83694 7.18274 3.93735 7.18274 5.28987V6.42156Z" fill="#2E2E2E"/>
<path d="M12.9358 7.34942H6.67591C6.40808 7.34942 6.19141 7.14629 6.19141 6.89569V5.28992C6.19141 3.42601 7.81286 1.90918 9.80605 1.90918C10.7718 1.90918 11.6796 2.26078 12.3615 2.89842C13.0445 3.53756 13.4207 4.38661 13.4207 5.28954V6.89531C13.4207 7.14592 13.2036 7.34904 12.9362 7.34904L12.9358 7.34942ZM7.16041 6.44233H12.4509V5.28992C12.4509 4.6293 12.1754 4.00787 11.6756 3.5402C11.1766 3.07365 10.5129 2.81664 9.80565 2.81664C8.3469 2.81664 7.16041 3.92609 7.16041 5.28992V6.44233Z" fill="#2E2E2E"/>
<g opacity="0.3">
<path opacity="0.3" d="M1.02189 22.9317C1.01343 23.7837 1.75005 24.479 2.66026 24.479H17.6376C8.91852 22.4512 3.33566 17.4488 2.00459 8.41455L1.02148 22.9317H1.02189Z" fill="#2E2E2E"/>
</g>
</g>
<defs>
<clipPath id="clip0_709_7469">
<rect width="23" height="25" fill="white"/>
</clipPath>
</defs>
</svg>
