<svg width="69" height="68" viewBox="0 0 69 68" fill="none" xmlns="http://www.w3.org/2000/svg">
<circle cx="34.4158" cy="34" r="34" fill="#A2FFC9"/>
<path d="M41.989 45.0439C45.4207 48.4756 45.4207 54.0395 41.989 57.4712C38.5573 60.9029 32.9934 60.9029 29.5617 57.4712C26.13 54.0395 26.13 48.4756 29.5617 45.0439C32.9934 41.6122 38.5573 41.6122 41.989 45.0439Z" fill="#F1C526" stroke="black" stroke-width="1.2"/>
<g opacity="0.3">
<path opacity="0.3" d="M45.0243 52.8854C44.7908 54.2217 44.2705 55.4915 43.4993 56.6075C42.728 57.7234 41.7239 58.6589 40.5564 59.3496C39.3889 60.0402 38.0855 60.4697 36.7361 60.6083C35.3866 60.7469 34.0232 60.5914 32.7396 60.1525C31.456 59.7136 30.2828 59.0017 29.3008 58.0659C28.3187 57.1301 27.5512 55.9925 27.0509 54.7316C26.5507 53.4707 26.3297 52.1163 26.4032 50.7617C26.4766 49.4072 26.8428 48.0847 27.4764 46.8852C27.0952 49.0869 27.5116 51.3524 28.6508 53.2747C29.79 55.197 31.5773 56.6501 33.6917 57.373C35.806 58.0959 38.1088 58.0411 40.1865 57.2186C42.2641 56.3961 43.9803 54.8597 45.0268 52.8854H45.0243Z" fill="#000072"/>
</g>
<g opacity="0.55">
<path opacity="0.55" d="M44.7888 53.8816C44.8323 51.607 44.0484 49.394 42.5828 47.6538C41.1173 45.9137 39.0698 44.7649 36.8208 44.421C34.5719 44.077 32.2747 44.5613 30.356 45.7838C28.4373 47.0063 27.0278 48.8839 26.3894 51.0676C26.4159 49.7306 26.7276 48.4147 27.3039 47.208C27.8801 46.0013 28.7074 44.9316 29.7305 44.0706C30.7536 43.2095 31.9489 42.5769 33.2362 42.2152C34.5236 41.8535 35.8734 41.7709 37.1952 41.9731C38.5171 42.1753 39.7805 42.6575 40.9009 43.3875C42.0213 44.1174 42.9728 45.0784 43.6918 46.2059C44.4107 47.3334 44.8805 48.6014 45.0697 49.9252C45.2589 51.249 45.1631 52.5979 44.7888 53.8816Z" fill="white"/>
</g>
<path d="M10.29 55.0093L0.76555 28.0382L53.7441 9.32954L63.2686 36.3007L10.29 55.0093Z" fill="#1DBD67" stroke="black" stroke-width="1.2"/>
<path d="M46.1972 15.9426C47.2206 18.095 49.4762 19.3732 51.6794 18.9141L55.6354 30.117C53.6315 31.1426 52.6769 33.5533 53.2327 35.8733L17.8211 48.3766C16.7963 46.221 14.5402 44.9446 12.3338 45.4058L8.37951 34.2026C10.3863 33.1771 11.3414 30.7655 10.7855 28.4451L46.1972 15.9426Z" fill="#4FEC91" stroke="black" stroke-width="1.2"/>
<path d="M48.8999 28.4285C49.3776 26.5532 48.2445 24.6457 46.3691 24.168C44.4938 23.6903 42.5862 24.8234 42.1086 26.6987C41.6309 28.5741 42.7639 30.4816 44.6393 30.9593C46.5147 31.4369 48.4222 30.3039 48.8999 28.4285Z" fill="#1FBC61"/>
<path d="M22.0159 37.8447C22.443 35.9571 21.2591 34.0808 19.3716 33.6537C17.484 33.2266 15.6077 34.4105 15.1806 36.298C14.7535 38.1855 15.9374 40.0619 17.8249 40.489C19.7124 40.9161 21.5888 39.7322 22.0159 37.8447Z" fill="#1FBC61"/>
<path d="M56.1015 35.5131C59.5332 38.9448 59.5332 44.5087 56.1015 47.9404C52.6698 51.3721 47.1059 51.3721 43.6742 47.9404C40.2425 44.5087 40.2425 38.9448 43.6742 35.5131C47.1059 32.0814 52.6698 32.0814 56.1015 35.5131Z" fill="#F1C526" stroke="black" stroke-width="1.2"/>
<g opacity="0.3">
<path opacity="0.3" d="M57.0347 47.8178C56.1555 48.85 55.0631 49.6795 53.8327 50.2492C52.6023 50.8189 51.2632 51.1153 49.9073 51.118C48.5514 51.1208 47.211 50.8297 45.9784 50.265C44.7457 49.7002 43.65 48.8752 42.7666 47.8465C41.8833 46.8179 41.2332 45.6101 40.8612 44.3062C40.4892 43.0024 40.4041 41.6334 40.6116 40.2935C40.8192 38.9536 41.3146 37.6746 42.0636 36.5444C42.8127 35.4142 43.7977 34.4597 44.9509 33.7466C43.5059 35.451 42.716 37.6147 42.7231 39.8492C42.7302 42.0837 43.5338 44.2424 44.9895 45.9376C46.4453 47.6328 48.4578 48.7533 50.6656 49.098C52.8733 49.4426 55.1316 48.9887 57.0347 47.8178Z" fill="#000072"/>
</g>
<g opacity="0.55">
<path opacity="0.55" d="M47.9713 33.6616C47.1879 33.6894 46.4164 33.8091 45.6714 34.0144C46.5273 33.5461 47.4569 33.2226 48.4226 33.059C49.6567 32.8499 50.9213 32.9069 52.1317 33.2261C53.3421 33.5454 54.4703 34.1195 55.4408 34.91C56.4113 35.7006 57.2017 36.6894 57.7592 37.8102C58.3166 38.931 58.6282 40.1579 58.673 41.4089C58.7081 42.3877 58.5793 43.3636 58.2937 44.2965C58.3442 43.5253 58.3053 42.7455 58.1741 41.9727C57.769 39.5864 56.5113 37.4283 54.6346 35.8997C52.758 34.371 50.3902 33.5757 47.9713 33.6616Z" fill="white" stroke="black" stroke-width="1.2"/>
</g>
<path d="M34.4673 28.1654L34.5649 29.6313L28.0166 31.8272L27.9259 30.3589L34.4673 28.1654ZM33.6538 36.8662L28.9771 34.0235L28.5719 32.8384L30.2038 32.2911C30.5834 32.1638 30.8711 31.985 31.0668 31.7546C31.2625 31.5241 31.3786 31.2638 31.4151 30.9734C31.4501 30.6784 31.4156 30.3758 31.3116 30.0657C31.2029 29.7416 31.0511 29.4732 30.8562 29.2605C30.6612 29.0477 30.4178 28.9131 30.1259 28.8565C29.8324 28.7952 29.4819 28.8329 29.0745 28.9695L27.269 29.575L27.1315 27.8057L28.5273 27.3376C29.3606 27.0582 30.097 26.9503 30.7363 27.014C31.3757 27.0777 31.9134 27.2991 32.3495 27.6782C32.7841 28.0526 33.1131 28.5732 33.3367 29.2398C33.5323 29.8231 33.6112 30.3657 33.5735 30.8676C33.5358 31.3695 33.3637 31.8315 33.0572 32.2536C32.7492 32.671 32.2858 33.0479 31.6673 33.384L35.8989 36.0052L35.9315 36.1025L33.6538 36.8662ZM33.6313 25.6261L33.7196 27.0874L28.2962 28.9061L28.2079 27.4448L33.6313 25.6261Z" fill="#17A653"/>
<path d="M52.9103 39.3744L52.9819 40.4494L48.1797 42.0597L48.1132 40.983L52.9103 39.3744ZM52.3137 45.755L48.8841 43.6703L48.587 42.8013L49.7837 42.4C50.0621 42.3066 50.273 42.1754 50.4165 42.0065C50.56 41.8375 50.6452 41.6465 50.672 41.4336C50.6976 41.2173 50.6723 40.9954 50.596 40.7679C50.5164 40.5303 50.405 40.3335 50.2621 40.1775C50.1191 40.0215 49.9406 39.9227 49.7265 39.8812C49.5113 39.8363 49.2543 39.8639 48.9556 39.9641L47.6315 40.4081L47.5307 39.1106L48.5543 38.7674C49.1654 38.5625 49.7053 38.4834 50.1742 38.5301C50.6431 38.5768 51.0374 38.7392 51.3572 39.0171C51.6759 39.2917 51.9172 39.6734 52.0811 40.1623C52.2246 40.5901 52.2825 40.988 52.2548 41.356C52.2272 41.7241 52.101 42.0629 51.8762 42.3724C51.6503 42.6786 51.3105 42.9549 50.8569 43.2014L53.9601 45.1236L53.984 45.1949L52.3137 45.755ZM52.2972 37.5123L52.362 38.5839L48.3848 39.9176L48.32 38.8459L52.2972 37.5123Z" fill="black"/>
</svg>
