<svg width="53" height="46" viewBox="0 0 53 46" fill="none" xmlns="http://www.w3.org/2000/svg">
<path d="M45.5369 13.3683L7.32983 12.6426L7.04355 32.3773L45.2506 33.103L45.5369 13.3683Z" fill="#1DBD67"/>
<g opacity="0.55">
<path opacity="0.55" d="M45.2469 33.1059L7.03883 32.3773L7.05781 31.0849L41.8766 31.7493C42.9791 31.77 43.8857 30.8983 43.902 29.8021L44.1416 13.3433L45.5341 13.3694L45.2471 33.1053L45.2469 33.1059Z" fill="white"/>
</g>
<path d="M7.59379 32.996C6.85099 32.7196 6.32527 32.001 6.33767 31.1697L6.59003 13.8227C6.5971 13.3127 6.80404 12.837 7.17215 12.4832C7.54027 12.1294 8.0251 11.9397 8.53824 11.9499L44.3447 12.6317C45.404 12.6534 46.2527 13.5254 46.2373 14.5783L45.9847 31.9259C45.9769 32.4362 45.7705 32.9121 45.4026 33.2654C45.0345 33.6192 44.5496 33.8088 44.0365 33.7987L8.23028 33.1163C8.007 33.1121 7.79237 33.0699 7.59379 32.996ZM44.4829 14.0942C44.433 14.0756 44.3796 14.0649 44.3237 14.0641L8.51747 13.3817C8.38936 13.3796 8.26798 13.4266 8.17587 13.5149C8.08375 13.6032 8.03211 13.7223 8.03052 13.8497L7.77796 31.1972C7.77416 31.4603 7.98671 31.6789 8.25125 31.6839L44.0575 32.3663C44.1856 32.3684 44.307 32.3214 44.3991 32.2331C44.4912 32.1449 44.5428 32.0258 44.5446 31.8978L44.797 14.5508C44.8002 14.3433 44.6686 14.1633 44.4829 14.0942Z" fill="#2E2E2E"/>
<path d="M42.0377 18.8476L41.9122 27.4562C40.3639 27.4266 39.0875 28.7862 39.0625 30.4938L13.3014 30.0033C13.3264 28.2957 12.0899 26.888 10.539 26.8588L10.6645 18.2502C12.2152 18.28 13.4923 16.9201 13.5173 15.2125L39.2782 15.7036C39.2532 17.4111 40.4897 18.8188 42.038 18.8484L42.0377 18.8476Z" fill="#4FEC91"/>
<path d="M13.1018 30.5406C12.879 30.4577 12.7219 30.2428 12.7257 29.993C12.7357 29.3094 12.5055 28.665 12.0781 28.1783C11.6651 27.7086 11.116 27.4436 10.531 27.4328C10.3783 27.4294 10.2322 27.3671 10.1259 27.2572C10.0193 27.1478 9.96107 27.0005 9.96307 26.849L10.0888 18.2399C10.091 18.0879 10.154 17.9433 10.2635 17.8378C10.373 17.7323 10.5202 17.6749 10.6731 17.6778C11.2579 17.6891 11.815 17.445 12.241 16.9914C12.6822 16.5217 12.9309 15.8862 12.9408 15.2026C12.9454 14.8864 13.2072 14.6344 13.5252 14.6404L39.2862 15.1309C39.4386 15.1336 39.585 15.1966 39.6913 15.3066C39.7979 15.416 39.8561 15.5632 39.8541 15.7147C39.8442 16.3984 40.0743 17.0427 40.501 17.5297C40.914 17.9995 41.4624 18.2648 42.0461 18.2757C42.1982 18.279 42.3441 18.3417 42.4512 18.4513C42.5578 18.5608 42.616 18.708 42.614 18.8595L42.4885 27.4681C42.4839 27.7842 42.222 28.0363 41.9041 28.0302C41.3206 28.0187 40.7641 28.263 40.3386 28.7168C39.8974 29.1866 39.6493 29.8223 39.6393 30.5059C39.6371 30.658 39.5741 30.8026 39.4646 30.908C39.3551 31.0135 39.2079 31.0709 39.055 31.068L13.2931 30.5766C13.2258 30.5752 13.1613 30.5628 13.1018 30.5406ZM11.5949 26.4849C12.1021 26.6737 12.5636 26.9934 12.9443 27.4269C13.4371 27.9876 13.7477 28.688 13.845 29.4413L38.5356 29.912C38.6549 29.1629 38.9855 28.4748 39.4944 27.9331C40.0059 27.3876 40.6481 27.0411 41.344 26.9263L41.4543 19.3586C40.7625 19.2177 40.1307 18.8467 39.6352 18.2819C39.1431 17.7209 38.8322 17.021 38.7349 16.2677L14.044 15.7962C13.9247 16.5454 13.5934 17.2338 13.085 17.7757C12.5729 18.321 11.93 18.6678 11.2331 18.7822L11.1227 26.3499C11.2834 26.383 11.4414 26.4278 11.5944 26.4847L11.5949 26.4849Z" fill="#2E2E2E"/>
<path d="M25.7684 27.2744L25.7826 26.2969C25.0897 26.2526 24.4197 26.0548 24.0297 25.8205L24.3581 24.6226C24.7894 24.8675 25.3964 25.0951 26.0699 25.1079C26.6595 25.1192 27.0666 24.9006 27.0726 24.4885C27.0782 24.0975 26.7509 23.8441 25.9883 23.5718C24.8864 23.18 24.138 22.651 24.1525 21.653C24.1659 20.7467 24.8183 20.0492 25.9285 19.8538L25.9427 18.8763L26.9565 18.8956L26.9434 19.8013C27.6363 19.8456 28.1006 19.9983 28.4395 20.1699L28.1223 21.3277C27.8549 21.2088 27.3823 20.9632 26.6367 20.949C25.9645 20.9361 25.7425 21.2206 25.7385 21.509C25.7336 21.8488 26.0925 22.0715 26.9676 22.4177C28.1923 22.8735 28.6814 23.4492 28.6677 24.3759C28.6544 25.2919 27.9904 26.0616 26.7979 26.2451L26.7824 27.2949L25.768 27.2754L25.7684 27.2744Z" fill="#1FBC61"/>
<path d="M37.7083 24.4778C38.4394 23.4258 38.1719 21.9795 37.1107 21.2474C36.0496 20.5153 34.5967 20.7746 33.8656 21.8266C33.1344 22.8786 33.402 24.3249 34.4631 25.057C35.5242 25.7891 36.9772 25.5298 37.7083 24.4778Z" fill="#1FBC61"/>
<path d="M18.7411 24.0646C19.4434 22.9933 19.1369 21.5545 18.0565 20.8509C16.9761 20.1474 15.5309 20.4455 14.8286 21.5168C14.1262 22.5881 14.4327 24.0269 15.5131 24.7305C16.5935 25.434 18.0387 25.1359 18.7411 24.0646Z" fill="#1FBC61"/>
</svg>
