<svg width="33" height="25" viewBox="0 0 33 25" fill="none" xmlns="http://www.w3.org/2000/svg">
<path d="M29.7 12.7933V19.4987C28.9022 19.9614 28.2346 20.628 27.7729 21.4259H22.3966C23.6848 19.9872 24.42 18.1107 24.42 16.1458C24.42 14.1809 23.6848 12.3044 22.3966 10.8658H27.7729C28.2346 11.6631 28.9022 12.3307 29.7 12.7933ZM3.30034 12.7933V19.4987C4.09816 19.9614 4.76482 20.628 5.22752 21.4259H10.6037C9.31558 19.9872 8.5804 18.1107 8.5804 16.1458C8.5804 14.1809 9.31562 12.3044 10.6037 10.8658L5.22752 10.8662C4.76484 11.6641 4.09822 12.3307 3.30034 12.7934V12.7933ZM33 8.22592V24.0657C33 24.4299 32.7044 24.7259 32.3398 24.7259H0.660182C0.296031 24.7259 0 24.4304 0 24.0657V8.22592C0 7.86177 0.29556 7.56574 0.660182 7.56574H32.3398C32.704 7.56621 32.9995 7.86176 32.9995 8.22592H33ZM9.90026 16.1457C9.90026 14.0022 10.9518 11.984 12.7136 10.7456C12.9484 10.5798 13.0501 10.281 12.9631 10.0062C12.8761 9.73275 12.622 9.54584 12.3343 9.54584H4.83014C4.57555 9.54584 4.34353 9.69224 4.23396 9.92196C3.8431 10.7423 3.17647 11.408 2.35699 11.7989C2.1268 11.909 1.9804 12.141 1.9804 12.3951V19.8961C1.9804 20.1506 2.1268 20.3827 2.35653 20.4922C3.17691 20.8831 3.84257 21.5497 4.2335 22.3692C4.34307 22.5994 4.57555 22.7458 4.82968 22.7458H12.3338C12.6215 22.7458 12.8761 22.5589 12.9636 22.285C13.0501 22.0106 12.9489 21.7113 12.7141 21.5456C10.9518 20.3081 9.90026 18.2898 9.90026 16.1459V16.1457ZM15.1803 14.8259C15.1803 14.4622 15.4768 14.1657 15.8405 14.1657H18.4802C18.8453 14.1657 19.1404 13.8701 19.1404 13.5055C19.1404 13.1413 18.8453 12.8453 18.4802 12.8453H17.1604V12.1851C17.1604 11.821 16.8648 11.5249 16.5002 11.5249C16.136 11.5249 15.84 11.8205 15.84 12.1851V12.8453C14.7485 12.8453 13.8599 13.7338 13.8599 14.8254C13.8599 15.9169 14.7484 16.8055 15.84 16.8055H17.1599C17.524 16.8055 17.8201 17.102 17.8201 17.4657C17.8201 17.8294 17.5245 18.1259 17.1599 18.1259H14.5201C14.156 18.1259 13.86 18.4214 13.86 18.786C13.86 19.1502 14.1555 19.4462 14.5201 19.4462H15.84V20.1064C15.84 20.4706 16.1356 20.7666 16.5002 20.7666C16.8643 20.7666 17.1604 20.471 17.1604 20.1064V19.4462C18.2519 19.4462 19.1405 18.5577 19.1405 17.4661C19.1405 16.3746 18.2519 15.486 17.1604 15.486H15.8405C15.4764 15.486 15.1803 15.1896 15.1803 14.8259ZM31.0201 12.3951C31.0201 12.1405 30.8737 11.9085 30.644 11.7989C29.8241 11.408 29.157 10.7414 28.767 9.92192C28.6575 9.69265 28.425 9.54579 28.1709 9.54579H20.6667C20.3786 9.54579 20.1244 9.7327 20.0379 10.0066C19.9509 10.281 20.0517 10.5803 20.2874 10.746C22.0483 11.9839 23.1003 14.0022 23.1003 16.1457C23.1003 18.2891 22.0483 20.3074 20.2869 21.5458C20.0521 21.7115 19.9504 22.0103 20.0374 22.2852C20.1235 22.5591 20.3785 22.7455 20.6667 22.7455H28.1708C28.4254 22.7455 28.6575 22.5991 28.767 22.3694C29.157 21.5495 29.8245 20.8834 30.644 20.4924C30.8737 20.3829 31.0201 20.1504 31.0201 19.8967L31.0201 12.3951ZM31.6803 4.4173C31.6803 3.99973 31.2996 3.68668 30.8899 3.77047C28.3072 4.29714 19.7713 5.96648 10.9027 6.90602H31.6807L31.6803 4.4173ZM30.3605 0.661115C30.3605 0.186015 29.8784 -0.132113 29.4415 0.0538873C21.1203 3.60618 11.2199 6.20631 11.2199 6.20631C19.5531 5.30213 27.5476 3.76953 30.3596 3.20335L30.3605 0.661115Z" fill="#4A4A4A"/>
</svg>
