<svg width="34" height="33" viewBox="0 0 34 33" fill="none" xmlns="http://www.w3.org/2000/svg">
<path d="M1.06029 0.00141467C0.779505 0.00187502 0.510576 0.11029 0.311852 0.302715C0.113122 0.495141 0.000947084 0.75616 0 1.02867V9.09078C0 9.45952 0.202525 9.80017 0.531691 9.98455C0.860621 10.1689 1.26617 10.1689 1.5951 9.98455C1.92426 9.80018 2.12679 9.45952 2.12679 9.09078V2.06398H9.3647C9.73869 2.05592 10.0809 1.85774 10.2654 1.54194C10.4501 1.22614 10.4501 0.839439 10.2654 0.52366C10.0809 0.207858 9.73869 0.00967594 9.3647 0.00162091L1.06029 0.00141467ZM24.5334 0.00141467C24.1599 0.0269639 23.8277 0.241027 23.6586 0.565344C23.4897 0.88966 23.5087 1.27633 23.7089 1.58339C23.909 1.89067 24.2607 2.07297 24.6352 2.06376H31.8731V9.09056C31.8731 9.4593 32.0756 9.79995 32.4048 9.98433C32.7337 10.1687 33.1393 10.1687 33.4682 9.98433C33.7973 9.79996 33.9999 9.4593 33.9999 9.09056V1.02845C33.9989 0.754775 33.8858 0.493066 33.6859 0.300435C33.4857 0.10778 33.2151 5.35037e-05 32.9334 0.00120843H24.6355C24.6015 -0.000402811 24.5676 -0.000402811 24.5337 0.00120843L24.5334 0.00141467ZM5.8285 4.59137C5.54676 4.59045 5.27617 4.69794 5.07623 4.8906C4.87608 5.08325 4.7632 5.34519 4.76201 5.61861V12.7061C4.76082 12.9809 4.87299 13.2449 5.07315 13.4392C5.27354 13.6337 5.54531 13.7423 5.82845 13.7414H12.4228C12.705 13.7407 12.9752 13.6314 13.1741 13.4371C13.3731 13.2428 13.4843 12.98 13.4831 12.7061V5.6186C13.4819 5.34608 13.3698 5.08528 13.1713 4.89265C12.9725 4.70022 12.7034 4.59204 12.4228 4.59135L5.8285 4.59137ZM15.3097 4.59137C14.9362 4.61692 14.6039 4.83121 14.4351 5.1553C14.266 5.47962 14.2849 5.86629 14.4851 6.17335C14.6853 6.48063 15.0372 6.66293 15.4114 6.65372H17.4201V13.6045C17.4137 13.8819 17.5228 14.15 17.7227 14.3484C17.9226 14.5468 18.1965 14.6587 18.4826 14.6587C18.7686 14.6587 19.0422 14.5468 19.2422 14.3484C19.4421 14.15 19.5514 13.8819 19.545 13.6045V5.619C19.5438 5.34693 19.4319 5.08614 19.2339 4.89393C19.0356 4.7015 18.7669 4.59286 18.4866 4.59171H15.4115C15.3776 4.5901 15.3436 4.5901 15.3097 4.59171L15.3097 4.59137ZM21.6387 4.59137H21.639C21.3587 4.59252 21.09 4.70117 20.8917 4.89359C20.6937 5.08579 20.5817 5.34658 20.5805 5.61866V12.7061C20.5796 12.9796 20.6903 13.2422 20.8888 13.4365C21.0873 13.6306 21.357 13.7404 21.6389 13.7415H28.2436C28.5254 13.7404 28.7952 13.6306 28.9935 13.4365C29.192 13.2423 29.303 12.9796 29.3018 12.7061V5.61866C29.3009 5.34659 29.1889 5.0858 28.9907 4.89359C28.7924 4.70117 28.524 4.59252 28.2436 4.59137H21.6387ZM6.88729 6.65374H11.3569V11.6787H6.88729V6.65374ZM22.7054 6.65374H27.1774V11.6789H22.7057L22.7054 6.65374ZM5.65669 15.3788H5.65692C5.28341 15.4043 4.95116 15.6186 4.78233 15.9427C4.61324 16.267 4.63245 16.6537 4.83237 16.9607C5.03252 17.268 5.38446 17.4503 5.75869 17.4411H14.4804V27.3741C14.4794 27.6489 14.5913 27.9129 14.7915 28.1074C14.9919 28.3017 15.2637 28.4103 15.547 28.4094H19.0125H19.0123C19.2983 28.4156 19.5746 28.3095 19.779 28.1154C19.9834 27.9214 20.0987 27.6556 20.0987 27.3782C20.0987 27.1006 19.9834 26.8347 19.779 26.6407C19.5746 26.4466 19.2983 26.3408 19.0123 26.347H16.6052V16.4057C16.6041 16.1337 16.4924 15.8729 16.2941 15.6807C16.0958 15.4883 15.8274 15.3796 15.5471 15.3785H5.75869C5.72478 15.3768 5.69087 15.3768 5.65696 15.3785L5.65669 15.3788ZM18.7465 15.5601H18.7467C18.4645 15.5606 18.1944 15.6702 17.9954 15.8642C17.7965 16.0585 17.6852 16.3216 17.6864 16.5952V21.3686C17.6862 21.6425 17.7981 21.9051 17.9976 22.0987C18.197 22.2926 18.4676 22.4014 18.7498 22.4014C19.0321 22.4014 19.3026 22.2925 19.5021 22.0987C19.7015 21.9052 19.8135 21.6425 19.8135 21.3686V17.6246H28.2443C28.6243 17.6246 28.9752 17.4278 29.1652 17.1083C29.3552 16.789 29.3552 16.3954 29.1652 16.0762C28.9752 15.7567 28.6243 15.5601 28.2443 15.5601L18.7465 15.5601ZM21.6395 19.2457C21.3575 19.2469 21.0879 19.3566 20.8894 19.5507C20.6909 19.7447 20.5801 20.0076 20.5811 20.2811V27.3662C20.5747 27.6438 20.6838 27.9119 20.8839 28.1104C21.0839 28.3088 21.3575 28.4206 21.6435 28.4206C21.9295 28.4206 22.2035 28.3088 22.4034 28.1104C22.6033 27.9119 22.7124 27.6438 22.706 27.3662V21.3081H27.1777V27.3662C27.1715 27.6438 27.2806 27.9119 27.4805 28.1104C27.6805 28.3088 27.9544 28.4206 28.2402 28.4206C28.5262 28.4206 28.8001 28.3088 29 28.1104C29.1999 27.9119 29.309 27.6438 29.3026 27.3662V20.2811C29.3038 20.0076 29.1928 19.7448 28.9943 19.5507C28.7961 19.3566 28.5262 19.2469 28.2444 19.2457H21.6395ZM5.71934 19.2597V19.26C5.45681 19.2853 5.21374 19.4048 5.03708 19.5944C4.86016 19.7843 4.76246 20.0311 4.76269 20.287V27.3745C4.76151 27.6493 4.87368 27.9134 5.07384 28.1078C5.27423 28.3021 5.546 28.4107 5.82913 28.4098H12.4235C12.7057 28.4091 12.9758 28.2998 13.1748 28.1055C13.3738 27.9115 13.485 27.6484 13.4838 27.3745V20.287C13.4826 20.0145 13.3705 19.7537 13.172 19.5613C12.9732 19.3689 12.7041 19.2605 12.4235 19.26H5.82914C5.79262 19.2582 5.75586 19.2582 5.71934 19.26V19.2597ZM6.88753 21.3224H11.3571V26.3473H6.88753V21.3224ZM1.04414 22.8691C0.76383 22.8737 0.4968 22.9861 0.30141 23.181C0.105758 23.376 -0.00237997 23.6381 0.000467353 23.9102V31.9647C-0.000718384 32.2383 0.110506 32.5014 0.309472 32.6954C0.508202 32.8897 0.778558 32.9993 1.06077 32.9997H9.36536C9.65136 33.006 9.92764 32.9001 10.1321 32.706C10.3365 32.512 10.4518 32.2461 10.4518 31.9685C10.4518 31.6909 10.3365 31.4251 10.1321 31.231C9.92765 31.037 9.65137 30.9311 9.36536 30.9373H2.12745V23.9105C2.1303 23.6318 2.0167 23.3639 1.81275 23.1678C1.6088 22.9717 1.33157 22.864 1.0444 22.8695L1.04414 22.8691ZM32.9172 22.8691C32.6369 22.8737 32.3698 22.9861 32.1744 23.181C31.9788 23.376 31.8707 23.6381 31.8735 23.9102V30.937H24.6356C24.2616 30.9451 23.9194 31.1432 23.7349 31.4591C23.5501 31.7749 23.5501 32.1616 23.7349 32.4773C23.9194 32.7931 24.2616 32.9913 24.6356 32.9994H32.9335C33.2167 33.0005 33.4887 32.8917 33.6888 32.6974C33.8892 32.5029 34.0011 32.2391 34 31.9643V23.9099C34.0028 23.6311 33.8892 23.3632 33.6852 23.1671C33.4813 22.971 33.2041 22.8633 32.9169 22.8688L32.9172 22.8691Z" fill="#696969"/>
</svg>
