<svg width="141" height="140" viewBox="0 0 141 140" fill="none" xmlns="http://www.w3.org/2000/svg">
<rect x="37.4148" y="34.978" width="67.1706" height="67.1706" rx="33.5853" fill="#26BC26"/>
<path d="M56.2561 68.85L65.9507 78.5447L85.744 58.7515" stroke="white" stroke-width="5" stroke-linecap="round" stroke-linejoin="round"/>
<path d="M105.097 107.24C106.928 107.441 110.829 109.53 112.368 111.839C113.907 114.148 114.782 118.144 114.91 119.94" stroke="#BAE0DB" stroke-width="2" stroke-linecap="round" stroke-linejoin="round"/>
<path d="M31.9789 84.3428C29.8623 86.78 24.3208 91.1541 19.0871 89.153C12.5449 86.6517 12.7373 82.8034 14.8539 81.2641C16.9705 79.7248 19.8567 82.2263 20.4339 84.3428C21.0112 86.4593 20.0491 93.5787 14.8539 96.2725C9.65869 98.9663 2.73174 97.6194 1 96.2725" stroke="#EFE0FF" stroke-width="2" stroke-linecap="round" stroke-linejoin="round"/>
<path d="M115.391 16.2278C112.89 15.9071 107.656 17.3822 106.732 25.8485C105.809 34.3148 98.3945 36.0466 94.8027 35.8542" stroke="#26BC26" stroke-width="2" stroke-linecap="round" stroke-linejoin="round"/>
<circle cx="21.1074" cy="51.1087" r="4.61793" fill="#FCE80D"/>
<circle cx="49.032" cy="14.8809" r="3.84817" fill="#FFE7EE"/>
<circle cx="60.7696" cy="22.18" r="2.29619" fill="#FFE7EE"/>
<circle cx="122.125" cy="65.759" r="4.13688" fill="#EFE0FF"/>
<circle cx="36.1156" cy="112.708" r="4.13688" fill="#FFE7EE"/>
<circle cx="87.6833" cy="124.83" r="4.13688" fill="#F9D2DD"/>
<circle cx="74.8873" cy="120.693" r="2.29623" fill="#26BC26"/>
</svg>
