<svg width="73" height="74" viewBox="0 0 73 74" fill="none" xmlns="http://www.w3.org/2000/svg">
<path d="M61.5738 36.2762C61.6885 35.2293 61.8726 34.1919 62.125 33.1717C62.4367 32.1703 63.7548 30.2676 63.7548 30.2676C63.7548 30.2676 64.282 31.4443 63.515 32.4205C63.5411 33.1215 63.5332 33.8233 63.4912 34.5235C63.4912 34.5235 65.9826 32.2989 66.4619 32.075L67.5895 31.136C69.2431 29.7591 70.3455 30.1847 70.2017 30.2846C70.103 30.3537 68.2104 31.9513 67.0411 32.9426L67.194 33.1717L68.9555 31.704C70.6094 30.3271 71.7118 30.7527 71.568 30.8529C71.4477 30.9367 68.6792 33.2797 67.7765 34.043L68.0431 34.4417L69.8662 32.9223C71.5201 31.5454 72.6226 31.971 72.4787 32.0712C72.3554 32.1579 69.455 34.6116 68.6258 35.3136L68.9082 35.7363C69.5392 35.1341 70.2033 34.5707 70.897 34.0491C71.9275 33.2979 72.6704 33.6486 72.6704 33.6486L72.2152 34.0742C71.7597 34.4998 69.3869 36.4525 69.3869 36.4525C69.3869 36.4525 65.7638 39.8327 64.8556 40.1577L63.9689 41.0411L60.7075 37.353L61.5738 36.2762Z" fill="#FF996A"/>
<path d="M35.4957 59.6213C37.4408 62.5505 40.1612 64.3593 43.7777 63.5911C53.4629 61.5347 64.8989 41.8961 64.8989 41.8961L64.3234 41.2453L60.0548 36.4205L45.1995 50.5217L40.5606 43.5068L36.0295 36.6569L33.7893 33.2715C33.7893 33.2715 32.4777 35.4383 31.6525 42.3234C31.138 46.6403 32.2261 54.7068 35.4957 59.6213Z" fill="#D3AA7D"/>
<path d="M35.4957 59.6212C37.4408 62.5504 40.1612 64.3592 43.7776 63.591C53.4629 61.5346 64.8989 41.896 64.8989 41.896L64.3234 41.2451L63.9685 41.0394C63.9685 41.0394 50.3407 60.6231 44.5977 57.7092C41.0468 55.9082 40.4768 48.7286 40.5597 43.5067L36.0286 36.6567L35.4957 59.6212Z" fill="#C1966B"/>
<path d="M20.0636 57.7104L20.9461 73.9428H24.3682L23.0229 57.7104H20.0636Z" fill="#649176"/>
<path d="M21.4899 27.1747C21.4899 27.1747 16.1426 26.2776 8.94872 34.0506L7.28929 73.9417H37.3549C37.3549 73.9417 40.6378 47.0294 36.8112 37.4591C32.9845 27.8889 26.1111 26.7468 21.4899 27.1747Z" fill="#FFD294"/>
<path d="M31.9791 5.54009L30.659 3.6521L19.405 7.58814L19.5027 12.0038H18.7595C18.4006 12.0037 18.0452 12.0775 17.7136 12.221C17.382 12.3644 17.0807 12.5747 16.8269 12.8398C16.5732 13.1048 16.3718 13.4196 16.2345 13.7659C16.0971 14.1123 16.0264 14.4835 16.0264 14.8584C16.0264 15.6156 16.3144 16.3418 16.8269 16.8772C17.3395 17.4126 18.0346 17.7134 18.7595 17.7134H19.6291L19.7615 23.7067V28.9746L27.9093 30.1449L28.109 26.6223L28.2147 24.7716L29.397 24.1822C31.0553 23.3556 32.4557 22.0554 33.436 20.4321C34.4164 18.8087 34.9367 16.9286 34.9368 15.0092C34.937 11.6051 33.9012 8.28905 31.9791 5.54009Z" fill="#FF996A"/>
<path d="M28.2148 24.7706L28.1092 26.6213C27.8097 26.584 27.496 26.5346 27.1705 26.4737C22.1369 25.5154 20.168 20.764 20.3724 18.3162C20.3724 18.3162 22.0691 24.2035 28.2148 24.7706Z" fill="#D37A57"/>
<path d="M18.6756 14.0409C18.8996 14.2006 19.0665 14.4337 19.1499 14.7033C19.0236 14.7537 18.9135 14.8404 18.8324 14.9534C18.7513 15.0664 18.7025 15.201 18.6916 15.3418C18.6924 15.4936 18.7364 15.6416 18.818 15.7672C18.8996 15.8927 19.0152 15.99 19.1499 16.0467C19.0516 16.2261 18.8902 16.3583 18.7001 16.4154C18.51 16.4725 18.306 16.4499 18.1316 16.3524C17.4954 15.9933 17.6005 14.74 18.2333 14.4774C18.2333 14.4774 17.2277 14.3575 16.8585 14.7432C16.8434 14.601 16.8669 14.4573 16.9263 14.3284C16.9857 14.1996 17.0785 14.0907 17.1943 14.0143C17.4097 13.8482 17.6715 13.7608 17.9392 13.7656C18.207 13.7704 18.4657 13.8671 18.6756 14.0409Z" fill="#D37A57"/>
<path d="M31.979 5.5402C31.979 5.5402 30.4551 8.28017 28.4862 9.16653C26.5173 10.0529 24.412 8.76206 22.4431 9.93993C20.4742 11.1178 21.7309 13.3239 21.2884 14.385C20.8459 15.4462 20.3575 15.5869 20.3575 15.5869C20.3575 15.5869 20.0928 12.5724 19.5023 12.0044C19.5023 12.0044 17.7342 11.9885 17.1838 12.5271C17.1838 12.5271 16.1959 10.4441 16.0261 8.81262C15.8563 7.18118 17.5879 6.6493 17.5879 6.6493C17.5879 6.6493 17.9953 2.7491 22.5786 1.29417C27.162 -0.160749 30.6587 2.14529 32.4921 1.29417C34.3255 0.443061 35.9888 1.72001 36.0906 3.65279C36.1923 5.58556 34.9364 6.29453 34.9364 6.29453C35.1837 6.52895 35.3626 6.83146 35.4527 7.16731C35.5427 7.50316 35.5403 7.85874 35.4456 8.19321C35.3403 8.53132 35.1571 8.83723 34.9121 9.08407C34.6671 9.33091 34.3679 9.51111 34.0406 9.60884C34.0406 9.60884 32.7866 6.69091 31.979 5.5402Z" fill="#3F2D1F"/>
<path d="M31.0664 19.5615L26.3998 19.3223C26.3998 19.3223 27.4801 21.0779 29.0178 21.0609C30.4339 21.0453 31.0664 19.5615 31.0664 19.5615Z" fill="white"/>
<path d="M25.7025 11.6222C25.7631 11.6221 25.8218 11.5999 25.8685 11.5596C26.1384 11.3184 26.4764 11.1761 26.831 11.1545C27.1856 11.1328 27.5372 11.233 27.8321 11.4397C27.86 11.4609 27.8916 11.4762 27.9252 11.4847C27.9587 11.4933 27.9935 11.4948 28.0276 11.4892C28.0617 11.4837 28.0945 11.4711 28.1239 11.4524C28.1534 11.4336 28.1791 11.409 28.1994 11.3799C28.2198 11.3507 28.2344 11.3177 28.2426 11.2827C28.2507 11.2476 28.2522 11.2113 28.2469 11.1756C28.2415 11.14 28.2296 11.1058 28.2116 11.075C28.1936 11.0442 28.17 11.0175 28.1422 10.9962C27.7539 10.7151 27.2874 10.5763 26.8156 10.6016C26.3439 10.6268 25.8934 10.8147 25.5347 11.1357C25.493 11.1717 25.463 11.2201 25.4487 11.2745C25.4343 11.3289 25.4363 11.3866 25.4545 11.4397C25.4726 11.4929 25.5059 11.5389 25.55 11.5715C25.594 11.6042 25.6466 11.6219 25.7006 11.6222H25.7025Z" fill="#3F2D1F"/>
<path d="M31.506 11.6222C31.5666 11.6221 31.6253 11.6 31.6719 11.5596C31.9418 11.3184 32.2799 11.1761 32.6344 11.1545C32.989 11.1328 33.3406 11.233 33.6356 11.4397C33.6635 11.4609 33.6951 11.4762 33.7286 11.4847C33.7622 11.4933 33.797 11.4948 33.8311 11.4892C33.8652 11.4837 33.8979 11.4711 33.9274 11.4524C33.9569 11.4336 33.9825 11.409 34.0029 11.3799C34.0232 11.3507 34.0379 11.3177 34.0461 11.2827C34.0542 11.2476 34.0556 11.2113 34.0503 11.1756C34.045 11.14 34.033 11.1058 34.0151 11.075C33.9971 11.0442 33.9735 11.0175 33.9456 10.9962C33.5574 10.7151 33.0909 10.5763 32.6191 10.6016C32.1473 10.6268 31.6968 10.8147 31.3381 11.1357C31.2965 11.1717 31.2665 11.2201 31.2521 11.2745C31.2378 11.3289 31.2398 11.3866 31.2579 11.4397C31.276 11.4929 31.3094 11.5389 31.3534 11.5715C31.3975 11.6042 31.45 11.6219 31.5041 11.6222H31.506Z" fill="#3F2D1F"/>
<path d="M18.2672 27.5909L19.7441 25.5845L25.6099 27.7435L26.5596 29.4656L27.2021 27.9191L28.093 26.903L29.0178 28.7653C29.0178 28.7653 28.9902 30.6328 26.7273 31.1288C24.4643 31.6249 19.5206 29.6985 18.2672 27.5909Z" fill="#649176"/>
<path d="M17.1843 12.5265C17.4934 12.4296 17.8219 12.4219 18.1349 12.5043C18.4479 12.5866 18.7337 12.7559 18.9621 12.9942C19.828 13.8257 19.5346 14.6427 19.5346 14.6427C19.5346 14.6427 19.1347 13.6575 18.2776 13.765C17.4204 13.8725 16.7973 16.2912 17.9423 16.7436C19.0874 17.196 20.5496 16.5064 20.4984 14.6427C20.4473 12.779 19.7929 11.7248 18.714 11.5644C18.3907 11.5035 18.0572 11.5676 17.7757 11.7446C17.4943 11.9216 17.284 12.1995 17.1843 12.5265Z" fill="#444444"/>
<path d="M25.2822 21.8951C25.3408 21.8951 25.3973 21.8723 25.4407 21.8311C25.484 21.7899 25.511 21.7333 25.5165 21.6723C25.522 21.6114 25.5056 21.5505 25.4704 21.5016C25.4352 21.4526 25.3838 21.4192 25.3262 21.4077C20.8897 20.5165 19.3868 16.1523 19.3722 16.1084C19.3517 16.0468 19.3086 15.9962 19.2525 15.9677C19.1963 15.9393 19.1316 15.9353 19.0726 15.9567C19.0137 15.9781 18.9652 16.0231 18.938 16.0817C18.9108 16.1404 18.907 16.208 18.9274 16.2696C18.9429 16.3164 20.5282 20.9449 25.2374 21.8908C25.2522 21.8937 25.2672 21.8951 25.2822 21.8951Z" fill="#444444"/>
<path d="M26.2717 21.7335C26.2717 21.9386 26.2135 22.1391 26.1044 22.3097C25.9953 22.4803 25.8402 22.6132 25.6587 22.6917C25.4773 22.7702 25.2776 22.7907 25.085 22.7507C24.8924 22.7106 24.7155 22.6118 24.5767 22.4667C24.4378 22.3217 24.3433 22.1368 24.305 21.9356C24.2667 21.7344 24.2864 21.5259 24.3616 21.3364C24.4368 21.1468 24.5641 20.9849 24.7274 20.8709C24.8907 20.757 25.0827 20.6962 25.2791 20.6963C25.4095 20.6963 25.5386 20.7231 25.659 20.7752C25.7795 20.8274 25.8889 20.9038 25.9811 21.0001C26.0733 21.0964 26.1464 21.2107 26.1962 21.3366C26.2461 21.4624 26.2718 21.5973 26.2717 21.7335Z" fill="#444444"/>
<path d="M18.3893 14.2117C18.3893 14.2117 18.5151 15.3572 18.2742 15.9699C18.0333 16.5827 17.6561 16.2655 17.5828 15.5215C17.5095 14.7776 18.2217 13.7338 18.3893 14.2117Z" fill="#649176"/>
<path d="M27.8289 13.8273C27.8289 13.8273 27.8269 14.8963 26.4869 15.074C25.1469 15.2516 24.903 13.8273 24.903 13.8273C25.3882 13.3784 26.0014 13.1088 26.6479 13.06C27.6314 13.0381 27.8289 13.8273 27.8289 13.8273Z" fill="white"/>
<path d="M33.9502 13.8273C33.9502 13.8273 33.9485 14.8963 32.6373 15.0739C31.3261 15.2516 31.151 13.8285 31.151 13.8285C31.5931 13.375 32.1764 13.1023 32.7947 13.06C33.0423 13.0301 33.2922 13.0901 33.5026 13.2298C33.713 13.3695 33.871 13.5804 33.9502 13.8273Z" fill="white"/>
<path d="M31.151 13.8285C31.151 13.8285 31.8529 13.0227 32.6047 12.878C33.3564 12.7332 33.8719 13.1158 33.9502 13.8285C33.8826 13.6354 33.7601 13.4686 33.5992 13.3504C33.4382 13.2322 33.2464 13.1682 33.0497 13.1672C32.2979 13.095 31.151 13.8285 31.151 13.8285Z" fill="#3F2D1F"/>
<path d="M24.903 13.8274C24.903 13.8274 25.637 12.9853 26.4225 12.8342C27.2079 12.6831 27.7467 13.0823 27.8289 13.8274C27.7583 13.6258 27.6303 13.4516 27.4623 13.3281C27.2942 13.2045 27.094 13.1377 26.8885 13.1363C26.1008 13.0609 24.903 13.8274 24.903 13.8274Z" fill="#3F2D1F"/>
<path d="M29.8638 13.8582L30.4819 17.7546C30.8854 17.7592 31.2852 17.6738 31.6545 17.5041C31.6545 17.5041 30.0405 14.2958 29.8638 13.8582Z" fill="#D37A57"/>
<path d="M26.5425 15.2122C26.0783 15.2122 25.702 14.7148 25.702 14.1013C25.702 13.4878 26.0783 12.9905 26.5425 12.9905C27.0067 12.9905 27.3831 13.4878 27.3831 14.1013C27.3831 14.7148 27.0067 15.2122 26.5425 15.2122Z" fill="#3F2D1F"/>
<path d="M31.5956 14.136C31.5956 14.7303 31.9626 15.2119 32.4153 15.2119C32.8681 15.2119 33.2351 14.7303 33.2351 14.136C33.2351 13.5417 32.8681 13.0598 32.4153 13.0598C31.9626 13.0598 31.5956 13.5417 31.5956 14.136Z" fill="#3F2D1F"/>
<path d="M0.686417 64.0384C1.45811 66.4874 2.94078 68.6245 4.92848 70.1528C6.14422 71.0878 7.50436 71.7982 8.94984 72.2532C14.7216 74.0816 36.0979 73.9415 36.0979 73.9415L35.2936 67.1959L11.3574 61.5758C11.3574 61.5758 14.4536 51.3157 14.3167 43.0282C14.1931 35.3144 11.9905 32.1339 9.50935 33.6359C9.3119 33.7583 9.12464 33.8979 8.94956 34.0531C8.94956 34.0531 5.16993 39.9366 1.26971 52.0197C-0.325558 56.9606 -0.29652 60.9362 0.686417 64.0384Z" fill="#E5BC89"/>
<path d="M37.7247 68.0924L42.8032 67.1257C43.4359 67.039 44.0793 67.1268 44.6695 67.3805C45.6029 67.802 46.6622 69.857 46.6622 69.857C46.1392 69.8523 45.6328 69.6645 45.224 69.3237C44.9084 69.0635 44.6789 68.7064 44.568 68.3027L42.7047 68.4544L42.6715 68.9059C43.778 69.1414 44.867 69.4592 45.9301 69.857C46.9894 70.3314 47.5444 71.7805 47.5444 71.7805C47.5444 71.7805 46.1571 71.5696 45.4508 70.6737L42.5664 70.332L42.5457 70.6133C43.4579 70.6708 44.3546 70.8872 45.1985 71.2536C46.6868 71.9385 47.1409 72.8607 47.1409 72.8607C47.1409 72.8607 45.6527 72.8607 44.6059 72.0174L43.9011 71.9565C44.5976 72.4228 45.1985 73.5454 45.1985 73.5454C45.1985 73.5454 44.896 73.6243 44.2151 73.3082C43.8683 73.1825 43.5683 72.9457 43.3577 72.6316L41.373 72.7868C40.3425 72.9405 38.7835 73.0916 37.8926 72.7813L35.9948 73.0864L35.3993 68.0921L37.7247 68.0924Z" fill="#FF996A"/>
<path d="M8.94986 72.2527C14.7216 74.0812 36.0979 73.9411 36.0979 73.9411L8.47913 66.2643C7.08505 65.8774 5.87793 64.964 5.09139 63.7009C4.30486 62.4378 3.99483 60.9149 4.22131 59.4268C5.43518 51.4565 7.78466 37.156 9.50964 33.6343C9.31219 33.7567 9.12493 33.8963 8.94986 34.0515C8.94986 34.0515 5.17022 39.935 1.27 52.0181C-2.63022 64.1013 3.17531 70.4274 8.94986 72.2527Z" fill="#D3AA7D"/>
<path d="M18.842 28.3101C18.842 28.3101 13.6455 30.1559 11.0864 33.3208" stroke="#E5BC89" stroke-linecap="round" stroke-linejoin="round"/>
<path d="M29.8656 28.7936C29.8656 28.7936 30.9567 31.9911 26.3998 32.3835C21.843 32.7758 16.8481 28.106 16.8481 28.106" stroke="#E5BC89" stroke-linecap="round" stroke-linejoin="round"/>
<path d="M36.0979 68.0921L37.1638 72.8977L35.9939 73.0858L35.3982 68.0918L36.0979 68.0921Z" fill="#D37A57"/>
<path d="M26.7273 31.1284C26.7273 31.1284 28.0783 35.15 29.0178 45.5505" stroke="#E5BC89" stroke-linecap="round" stroke-linejoin="round"/>
<path d="M18.0006 6.69314C18.0006 6.69314 20.1302 6.16675 22.0552 6.94073" stroke="#543E2F" stroke-linecap="round" stroke-linejoin="round"/>
<path d="M31.9791 5.54028C31.9791 5.54028 32.1938 8.79595 28.2507 9.26137" stroke="#543E2F" stroke-linecap="round" stroke-linejoin="round"/>
<path d="M17.6497 4.54688C17.6497 4.54688 17.1908 5.84059 17.5883 6.64866" stroke="#543E2F" stroke-linecap="round" stroke-linejoin="round"/>
<path d="M35.5086 3.22632C35.5387 3.82869 35.3819 4.42513 35.0615 4.92699C34.7412 5.42885 34.2744 5.80935 33.7305 6.01194" stroke="#543E2F" stroke-linecap="round" stroke-linejoin="round"/>
<path d="M34.7971 6.94092C34.7971 6.94092 35.1605 8.43744 33.8084 9.08199" stroke="#543E2F" stroke-linecap="round" stroke-linejoin="round"/>
<path d="M28.4856 1.83317C28.4856 1.83317 25.9635 0.677552 22.3814 2.35955C19.1499 3.8763 18.8412 5.7643 18.8412 5.7643" stroke="#543E2F" stroke-linecap="round" stroke-linejoin="round"/>
<path d="M17.6497 7.4978C17.4181 7.63972 17.229 7.84614 17.1034 8.09396C16.9779 8.34179 16.9208 8.62123 16.9386 8.90101C16.9696 9.63564 17.1351 10.3572 17.4262 11.0268" stroke="#543E2F" stroke-linecap="round" stroke-linejoin="round"/>
<path d="M29.4932 7.12646C29.4932 7.12646 28.9898 8.51928 26.0559 8.67413C23.122 8.82898 22.174 8.82869 21.3738 9.81934C21.1411 10.1007 20.9722 10.4334 20.8798 10.7926C20.7874 11.1517 20.7739 11.528 20.8403 11.8934" stroke="#543E2F" stroke-linecap="round" stroke-linejoin="round"/>
</svg>
