<svg width="26" height="25" viewBox="0 0 26 25" fill="none" xmlns="http://www.w3.org/2000/svg">
<path d="M17.0367 16.8114C18.4269 18.2016 18.4269 20.4556 17.0367 21.8459C15.6464 23.2361 13.3924 23.2361 12.0022 21.8459C10.6119 20.4556 10.6119 18.2016 12.0022 16.8114C13.3924 15.4211 15.6464 15.4211 17.0367 16.8114Z" fill="#F1C526" stroke="black" stroke-width="0.5"/>
<g opacity="0.3">
<path opacity="0.3" d="M18.273 19.9875C18.1783 20.5298 17.9671 21.0452 17.6541 21.4981C17.341 21.951 16.9336 22.3307 16.4597 22.611C15.9859 22.8913 15.4569 23.0656 14.9092 23.1218C14.3615 23.1781 13.8082 23.115 13.2872 22.9368C12.7663 22.7587 12.2901 22.4698 11.8916 22.09C11.493 21.7102 11.1815 21.2485 10.9784 20.7367C10.7754 20.225 10.6857 19.6753 10.7155 19.1256C10.7454 18.5758 10.894 18.0391 11.1511 17.5522C10.9964 18.4458 11.1654 19.3653 11.6278 20.1455C12.0901 20.9256 12.8155 21.5154 13.6736 21.8088C14.5317 22.1022 15.4664 22.0799 16.3096 21.7461C17.1528 21.4123 17.8493 20.7887 18.2741 19.9875H18.273Z" fill="#000072"/>
</g>
<g opacity="0.55">
<path opacity="0.55" d="M18.1774 20.3911C18.1951 19.4679 17.877 18.5698 17.2821 17.8635C16.6873 17.1573 15.8563 16.691 14.9436 16.5514C14.0309 16.4118 13.0985 16.6084 12.3198 17.1046C11.5411 17.6007 10.9691 18.3628 10.71 19.249C10.7207 18.7064 10.8472 18.1723 11.0811 17.6826C11.315 17.1928 11.6507 16.7587 12.066 16.4092C12.4812 16.0598 12.9663 15.803 13.4888 15.6562C14.0113 15.5094 14.5591 15.4759 15.0956 15.558C15.632 15.64 16.1448 15.8357 16.5995 16.132C17.0542 16.4283 17.4404 16.8182 17.7322 17.2758C18.024 17.7334 18.2147 18.2481 18.2915 18.7854C18.3682 19.3226 18.3294 19.8701 18.1774 20.3911Z" fill="white"/>
</g>
<path d="M4.18022 20.842L0.318979 9.90786L21.8083 2.31917L25.6696 13.2533L4.18022 20.842Z" fill="#1DBD67" stroke="black" stroke-width="0.5"/>
<path d="M18.7462 5.00397C19.163 5.87488 20.0764 6.39282 20.9703 6.20941L22.5721 10.7455C21.7609 11.1638 21.3745 12.1403 21.5973 13.0807L7.23628 18.1514C6.81893 17.2792 5.90532 16.762 5.01012 16.9462L3.40904 12.41C4.22143 11.9917 4.608 11.0149 4.38519 10.0743L18.7462 5.00397Z" fill="#4FEC91" stroke="black" stroke-width="0.5"/>
<path d="M19.8461 10.0627C20.04 9.30156 19.5801 8.52738 18.819 8.33352C18.0578 8.13965 17.2837 8.59951 17.0898 9.36063C16.8959 10.1218 17.3558 10.8959 18.1169 11.0898C18.878 11.2837 19.6522 10.8238 19.8461 10.0627Z" fill="#1FBC61"/>
<path d="M8.93519 13.8837C9.10853 13.1177 8.62803 12.3561 7.86197 12.1828C7.09591 12.0094 6.33437 12.4899 6.16103 13.256C5.98769 14.0221 6.46818 14.7836 7.23424 14.9569C8.00031 15.1303 8.76184 14.6498 8.93519 13.8837Z" fill="#1FBC61"/>
<path d="M22.7647 12.9422C24.1549 14.3325 24.1549 16.5865 22.7647 17.9767C21.3744 19.367 19.1204 19.367 17.7302 17.9767C16.3399 16.5865 16.3399 14.3325 17.7302 12.9422C19.1204 11.552 21.3744 11.552 22.7647 12.9422Z" fill="#F1C526" stroke="black" stroke-width="0.5"/>
<g opacity="0.3">
<path opacity="0.3" d="M23.1478 17.9321C22.791 18.351 22.3476 18.6876 21.8483 18.9189C21.3489 19.1501 20.8054 19.2704 20.2551 19.2715C19.7048 19.2726 19.1608 19.1545 18.6605 18.9253C18.1602 18.6961 17.7155 18.3612 17.357 17.9437C16.9985 17.5262 16.7347 17.0361 16.5837 16.5069C16.4327 15.9777 16.3982 15.4221 16.4824 14.8783C16.5667 14.3345 16.7677 13.8154 17.0717 13.3567C17.3757 12.898 17.7755 12.5106 18.2435 12.2212C17.6571 12.9129 17.3365 13.7911 17.3394 14.698C17.3422 15.6048 17.6684 16.481 18.2592 17.169C18.85 17.857 19.6668 18.3118 20.5628 18.4516C21.4589 18.5915 22.3754 18.4073 23.1478 17.9321Z" fill="#000072"/>
</g>
<g opacity="0.55">
<path opacity="0.55" d="M19.4695 12.1806C19.17 12.1913 18.8747 12.2349 18.5886 12.3096C18.9217 12.1341 19.2812 12.0121 19.6539 11.9489C20.1539 11.8642 20.6662 11.8873 21.1566 12.0167C21.6469 12.146 22.104 12.3786 22.4971 12.6988C22.8903 13.0191 23.2105 13.4197 23.4364 13.8737C23.6622 14.3278 23.7884 14.8248 23.8066 15.3316C23.8201 15.7095 23.7734 16.0862 23.6688 16.4479C23.6841 16.1526 23.6671 15.8546 23.617 15.5591C23.4523 14.5891 22.941 13.7118 22.1782 13.0904C21.4153 12.469 20.4528 12.1457 19.4695 12.1806Z" fill="white" stroke="black" stroke-width="0.5"/>
</g>
<path d="M14.3097 10.5506L14.3488 11.137L11.7294 12.0153L11.6932 11.428L14.3097 10.5506ZM13.9843 14.0309L12.1136 12.8938L11.9516 12.4198L12.6043 12.2009C12.7562 12.15 12.8712 12.0784 12.9495 11.9862C13.0278 11.8941 13.0742 11.7899 13.0888 11.6738C13.1028 11.5558 13.089 11.4348 13.0474 11.3107C13.004 11.1811 12.9432 11.0737 12.8653 10.9886C12.7873 10.9035 12.6899 10.8497 12.5731 10.827C12.4557 10.8025 12.3156 10.8176 12.1526 10.8722L11.4304 11.1144L11.3754 10.4067L11.9337 10.2195C12.267 10.1077 12.5616 10.0646 12.8173 10.09C13.0731 10.1155 13.2882 10.2041 13.4626 10.3557C13.6364 10.5055 13.7681 10.7137 13.8575 10.9803C13.9357 11.2137 13.9673 11.4307 13.9522 11.6315C13.9371 11.8322 13.8683 12.017 13.7457 12.1859C13.6225 12.3528 13.4371 12.5036 13.1897 12.638L14.8824 13.6865L14.8954 13.7254L13.9843 14.0309ZM13.9753 9.53487L14.0106 10.1194L11.8413 10.8469L11.806 10.2623L13.9753 9.53487Z" fill="#17A653"/>
</svg>
