<svg width="149" height="206" viewBox="0 0 149 206" fill="none" xmlns="http://www.w3.org/2000/svg">
<path d="M69.6322 26.2489C70.4102 26.3213 70.8507 26.3512 70.8507 26.3512C70.8507 26.3512 65.9887 49.4718 68.3455 55.9572C69.5534 59.2804 75.3696 62.1082 81.7862 61.5227C79.927 61.2759 74.9371 60.2504 73.4916 56.1621C71.6883 51.113 74.2872 25.71 74.2872 25.71L70.6309 23.1708L69.6322 26.2489Z" fill="#6D6D6D"/>
<path d="M113.516 38.4044L110.32 83.4308C109.801 90.7839 103.652 96.4798 96.2403 96.4798C88.0809 96.4798 81.6214 89.6195 82.1556 81.5225C82.4373 77.2373 82.6947 73.725 82.6947 73.725C82.6947 73.725 71.7378 72.0293 71.6018 61.1302C71.5241 54.8352 72.6168 40.5494 73.5493 29.6069C74.1807 22.2103 80.4072 16.5289 87.8721 16.5289H94.4919C105.891 17.1908 114.492 27.0802 113.511 38.3996L113.516 38.4044Z" fill="#FFBE9D"/>
<path d="M82.6805 73.5704C82.6805 73.5704 89.6063 74.1309 96.9644 69.5316C96.9644 69.5316 93.5889 77.3774 82.6562 76.3918L82.6805 73.5656V73.5704Z" fill="#AA6550"/>
<path d="M109.825 46.5835C110.009 46.5014 117.353 44.3709 117.115 51.8205C116.877 59.2702 109.402 57.4971 109.397 57.2797C109.393 57.0672 109.825 46.5835 109.825 46.5835Z" fill="#FFBE9D"/>
<path d="M111.778 54.5308C111.812 54.5067 111.904 54.6274 112.122 54.7337C112.336 54.84 112.7 54.9173 113.099 54.7869C113.9 54.5212 114.604 53.294 114.687 51.951C114.726 51.2746 114.604 50.6224 114.381 50.0813C114.172 49.5306 113.827 49.1344 113.434 49.0523C113.04 48.946 112.749 49.1779 112.652 49.3856C112.545 49.5885 112.589 49.7431 112.55 49.7528C112.53 49.7721 112.394 49.6224 112.462 49.318C112.496 49.1731 112.594 48.9991 112.773 48.859C112.958 48.7189 113.225 48.6513 113.502 48.69C114.08 48.7479 114.58 49.2938 114.828 49.8881C115.105 50.4871 115.26 51.2167 115.211 51.98C115.114 53.4776 114.298 54.8593 113.206 55.1396C112.676 55.2603 112.239 55.0864 112.02 54.9028C111.792 54.7096 111.758 54.5453 111.787 54.5308H111.778Z" fill="#AA6550"/>
<path d="M113.992 46.3323C112.85 46.057 110.874 47.1053 110.388 48.1682C109.902 49.231 109.796 50.4388 109.31 51.5017C108.824 52.5645 107.727 53.5308 106.58 53.2602C105.794 53.0766 105.225 52.3375 105.021 51.5596C104.812 50.7818 104.9 49.9557 104.997 49.1586C105.439 45.6801 106.172 42.2258 106.313 38.7233C106.454 35.2207 105.954 31.578 104.103 28.5923C102.253 25.6067 98.8531 23.4085 95.3417 23.6935C93.0153 23.8819 90.8783 25.0897 88.5664 25.4086C85.8223 25.7902 82.9228 24.8288 80.9655 22.8819C80.713 22.6307 79.5425 21.8673 79.5425 21.8673C79.5425 21.6886 79.7125 20.1281 80.3293 19.5629C84.919 15.3404 93.1852 14.1616 99.2465 15.6786C105.308 17.1956 110.99 21.4519 113.598 27.1043C116.206 32.7519 115.434 40.6122 113.997 46.3275" fill="#263238"/>
<path d="M76.9578 43.1547C76.8771 44.0321 77.5508 44.8295 78.4681 44.9372C79.3862 45.0377 80.1983 44.4165 80.2799 43.5319C80.3606 42.6544 79.6868 41.857 78.7696 41.7494C77.8524 41.6417 77.0385 42.2772 76.9578 43.1547Z" fill="#263238"/>
<path d="M75.2274 38.5195C75.421 38.7474 76.741 37.8905 78.539 37.9998C80.3327 38.087 81.6007 39.0862 81.8083 38.8827C81.9076 38.7876 81.7226 38.3875 81.1695 37.9311C80.6297 37.4838 79.6878 37.019 78.5695 36.9568C77.4513 36.8946 76.4797 37.2491 75.9146 37.6433C75.3352 38.0355 75.1252 38.4192 75.2203 38.5185L75.2274 38.5195Z" fill="#263238"/>
<path d="M85.1023 54.551C85.1156 54.4517 84.0096 54.1889 82.2134 53.8487C81.7541 53.7731 81.3288 53.6587 81.2701 53.3404C81.1849 53.0041 81.4009 52.5202 81.6581 51.9983C82.156 50.9164 82.6766 49.7725 83.225 48.5818C85.4036 43.7158 87.0134 39.7055 86.8152 39.6214C86.617 39.5372 84.6931 43.4118 82.5145 48.2778C81.9863 49.4785 81.4871 50.6252 81.0025 51.7161C80.7968 52.2303 80.4611 52.7994 80.6561 53.5042C80.7607 53.8575 81.0791 54.1238 81.3696 54.2202C81.6582 54.3308 81.9155 54.3507 82.1435 54.3738C83.9576 54.5792 85.0882 54.6574 85.1023 54.551Z" fill="#263238"/>
<path d="M93.7888 44.3119C93.7081 45.1894 94.3819 45.9867 95.2991 46.0944C96.2173 46.1949 97.0293 45.5737 97.111 44.6891C97.1917 43.8116 96.5179 43.0142 95.6007 42.9066C94.6825 42.806 93.8695 43.4344 93.7888 44.3119Z" fill="#263238"/>
<path d="M92.4332 39.8998C92.6229 40.1561 94.1379 39.4623 96.0797 39.793C98.0173 40.1015 99.2928 41.2606 99.5411 41.077C99.6598 40.9989 99.4999 40.5732 98.9411 40.0511C98.3956 39.538 97.4253 38.9611 96.2105 38.7561C95.0019 38.5591 93.9168 38.7902 93.2679 39.1082C92.6048 39.4243 92.3409 39.7792 92.4332 39.8998Z" fill="#263238"/>
<path d="M80.9626 60.403C81.0898 60.5881 82.2955 59.7598 83.8792 60.2162C85.4628 60.6727 86.2124 62.0655 86.3968 61.9549C86.4851 61.921 86.4319 61.5033 86.0697 60.9451C85.5907 60.2202 84.871 59.688 84.0392 59.4436C83.2408 59.1999 82.3808 59.277 81.6415 59.6586C81.1053 59.9842 80.898 60.3244 80.9626 60.403Z" fill="#263238"/>
<path d="M66.5071 83.1023L75.6233 81.1022L79.3339 80.1795L82.4229 75.416C82.4229 75.416 83.8945 83.9333 89.4118 88.5181C90.9125 89.7645 92.9281 90.2138 94.8417 89.8128C96.0899 89.5519 97.5566 89.2282 98.6446 88.9432C98.8777 88.8804 99.1302 88.7983 99.4022 88.7016C103.414 87.2668 106.697 84.3391 108.79 80.6433C110.019 78.4789 111.054 76.2566 110.699 75.4111L115.027 84.3246L136 96L144.5 103L140.525 136.5L126.95 139.434L126.076 168.406L131.36 204.949L51.9853 205.002L54.7974 123.699" fill="#FCE80D"/>
<path d="M87.027 114.577C87.027 114.577 87.2019 114.592 87.5273 114.587C87.8818 114.577 88.3529 114.568 88.9406 114.553C90.1888 114.51 91.9178 114.447 93.9868 114.374H94.0839V114.273C94.1713 112.094 94.2733 109.514 94.385 106.756C94.5162 102.78 94.6376 99.1853 94.725 96.5426C94.7542 95.2624 94.7784 94.2092 94.7979 93.4459C94.7979 93.1029 94.8027 92.8227 94.8027 92.6052C94.8027 92.412 94.7979 92.3105 94.7882 92.3105C94.7784 92.3105 94.7687 92.412 94.7542 92.6004C94.7396 92.8178 94.7202 93.098 94.7007 93.441C94.6619 94.2044 94.6085 95.2527 94.5453 96.533C94.4385 99.1756 94.2928 102.77 94.1325 106.741C94.0354 109.5 93.9479 112.08 93.8751 114.263L93.9771 114.162C91.9129 114.273 90.1839 114.365 88.9357 114.432C88.3529 114.471 87.8818 114.5 87.5273 114.524C87.2019 114.548 87.0319 114.568 87.0319 114.577H87.027Z" fill="#263238"/>
<path d="M91.3545 102.833C91.3545 102.833 91.238 102.741 90.9757 102.712C90.7232 102.678 90.32 102.731 89.9315 103.002C89.7421 103.137 89.5478 103.326 89.4215 103.577C89.2953 103.828 89.2321 104.142 89.2855 104.456C89.373 105.074 89.8489 105.727 90.5823 105.91C91.3205 106.079 92.0345 105.736 92.4279 105.253C92.8456 104.76 92.8844 104.132 92.7776 103.693C92.6707 103.239 92.4376 102.925 92.2531 102.746C92.0685 102.567 91.9325 102.509 91.9276 102.524C91.9131 102.543 92.0248 102.625 92.1802 102.813C92.3308 103.002 92.525 103.306 92.6027 103.727C92.6805 104.137 92.6222 104.683 92.2531 105.103C91.8985 105.519 91.2623 105.809 90.6455 105.664C90.0335 105.514 89.6012 104.949 89.5187 104.417C89.4167 103.871 89.7081 103.388 90.0432 103.142C90.3783 102.881 90.7426 102.809 90.9806 102.809C91.2234 102.809 91.3545 102.857 91.3643 102.833H91.3545Z" fill="#263238"/>
<path d="M92.2047 92.6245C92.2047 92.6245 92.0833 92.5134 91.8065 92.4458C91.5296 92.3782 91.0877 92.3782 90.6214 92.6197C90.3931 92.7405 90.16 92.9192 89.9852 93.1801C89.8103 93.4362 89.7035 93.7744 89.7229 94.1222C89.7423 94.8082 90.2037 95.586 91.0051 95.8373C91.8113 96.0643 92.6224 95.6827 93.0353 95.1319C93.2538 94.8565 93.3607 94.528 93.3849 94.2237C93.4044 93.9145 93.3461 93.6294 93.249 93.3927C93.0547 92.9096 92.7293 92.6149 92.4864 92.4748C92.2387 92.3298 92.0785 92.3057 92.0785 92.3202C92.0688 92.3395 92.2145 92.3975 92.433 92.5569C92.6467 92.7163 92.9236 93.011 93.0838 93.4555C93.2441 93.8903 93.249 94.5135 92.8507 94.9918C92.4816 95.4653 91.7531 95.7938 91.078 95.5957C90.4029 95.388 89.9852 94.7116 89.956 94.1125C89.9075 93.4941 90.3009 93.0014 90.7088 92.7743C91.1217 92.5376 91.5296 92.5086 91.7919 92.5424C92.059 92.5762 92.1999 92.6487 92.2096 92.6245H92.2047Z" fill="#263238"/>
<path d="M67.1436 82.856C66.7259 83.4792 57.3425 84.5179 55.0453 86.7982C52.748 89.0785 29.8045 106.509 29.8045 106.509L46.1476 128.438L56.7111 126.124L67.1436 82.856Z" fill="#FCE80D"/>
<path d="M32.568 104.408L50.9121 127.394L46.1476 128.438L29.8045 106.509L32.568 104.408Z" fill="#0AAD0A"/>
<path d="M62.1409 105.683C62.1409 105.683 62.2234 105.417 62.3303 104.92C62.3886 104.673 62.4468 104.369 62.4905 104.012C62.5391 103.654 62.6071 103.248 62.6314 102.794C62.6702 102.34 62.7042 101.847 62.7042 101.311C62.7237 100.775 62.6897 100.209 62.6605 99.6056C62.5683 98.4075 62.3837 97.0982 62.0534 95.7503C61.7086 94.4072 61.2569 93.1608 60.7712 92.0593C60.5138 91.5182 60.2758 90.9964 60.0039 90.5327C59.7562 90.0592 59.489 89.6389 59.2413 89.2572C59.0082 88.8659 58.7508 88.5422 58.542 88.2475C58.3331 87.9528 58.1389 87.7113 57.9737 87.518C57.6483 87.1315 57.4589 86.9189 57.4443 86.9334C57.4298 86.9431 57.59 87.175 57.896 87.5808C58.0514 87.7789 58.236 88.0301 58.4303 88.3296C58.6294 88.6292 58.8674 88.9577 59.0908 89.349C59.3239 89.7355 59.5813 90.1558 59.8193 90.6293C60.0816 91.0931 60.305 91.61 60.5575 92.1463C61.0238 93.2381 61.4658 94.4749 61.8057 95.8034C62.1311 97.1369 62.3206 98.4316 62.4226 99.6152C62.4565 100.209 62.5003 100.77 62.4857 101.301C62.5003 101.833 62.4711 102.321 62.4468 102.77C62.4371 103.219 62.374 103.625 62.3448 103.978C62.3157 104.335 62.2671 104.64 62.2283 104.886C62.1506 105.384 62.1166 105.664 62.136 105.669L62.1409 105.683Z" fill="#263238"/>
<path d="M54.7973 123.694C54.8604 123.723 55.7686 121.723 56.8274 119.235C57.8862 116.747 58.6876 114.708 58.6244 114.679C58.5613 114.65 57.6531 116.645 56.5943 119.138C55.5404 121.626 54.7341 123.665 54.7973 123.694Z" fill="#263238"/>
<path d="M126.95 107.78C126.989 107.799 127.382 107.084 128.125 105.992C128.863 104.905 129.99 103.466 131.437 102.065C132.885 100.668 134.366 99.5911 135.483 98.8905C136.6 98.1852 137.334 97.818 137.314 97.7745C137.304 97.7601 137.115 97.8374 136.78 97.9968C136.44 98.1514 135.964 98.4026 135.391 98.7408C134.245 99.4123 132.729 100.475 131.262 101.886C129.801 103.301 128.684 104.775 127.979 105.896C127.625 106.456 127.358 106.92 127.192 107.253C127.023 107.582 126.94 107.77 126.955 107.78H126.95Z" fill="#263238"/>
<g opacity="0.2">
<path opacity="0.2" d="M114.298 85.3923C113.87 89.1606 113.404 93.0497 111.534 96.3542C109.66 99.6587 105.993 102.263 102.219 101.707C99.7032 101.335 97.571 99.6635 95.8566 97.789C94.1421 95.9194 92.7094 93.7888 90.8347 92.0738C89.6593 93.2429 88.4742 94.4217 87.0658 95.301C85.6573 96.1803 83.9914 96.7359 82.3401 96.5426C80.6936 96.3445 79.7806 95.6972 79.2609 94.127C81.0191 94.6729 81.9904 94.5908 83.7389 94.2526C85.5893 93.8951 87.3863 93.127 89.0425 91.8274C90.0721 91.0206 90.4412 89.808 91.7526 89.8853C92.9619 89.9529 93.909 90.9095 94.7055 91.8129C95.9246 93.1994 97.469 94.7068 98.9164 95.8518C100.369 96.9967 101.782 97.7697 103.637 97.7311C106.692 97.6634 109.198 95.2768 110.884 92.7405C112.433 90.407 113.589 87.8127 114.278 85.1024" fill="black"/>
</g>
<path d="M78.5325 80.6916C78.5325 80.6916 78.5083 80.7834 78.4791 80.9621C78.4548 81.1409 78.416 81.4018 78.3868 81.74C78.314 82.4163 78.2411 83.4019 78.212 84.6193C78.1488 87.0494 78.3334 90.436 79.1202 94.0787L79.1348 94.156L79.1494 94.2333L79.2271 94.2527C81.0629 94.7068 82.9037 94.5474 84.4578 94.1174C86.0217 93.6874 87.3379 93.0159 88.3336 92.3105C89.3292 91.6052 90.0383 90.9047 90.4511 90.3636C90.6794 90.1124 90.8057 89.8756 90.9125 89.7307C91.0097 89.5809 91.0582 89.5036 91.0534 89.4988C91 89.4457 90.252 90.8129 88.2364 92.1656C87.2456 92.842 85.9392 93.4845 84.3996 93.8952C82.8697 94.3058 81.0726 94.4507 79.2902 94.0111L79.3825 94.1077L79.3679 94.0304C78.586 90.4119 78.3723 87.0494 78.3917 84.629C78.3965 83.4164 78.4451 82.4356 78.484 81.7593C78.5034 81.4453 78.518 81.1844 78.5325 80.9766C78.5423 80.7979 78.5423 80.7013 78.5325 80.7013V80.6916Z" fill="#263238"/>
<path d="M93.2873 90.2235C93.2873 90.2235 93.331 90.3249 93.4427 90.5134C93.5544 90.6969 93.7293 90.9627 93.9818 91.2863C94.4772 91.9386 95.2883 92.8082 96.3714 93.7937C96.9105 94.2865 97.5176 94.8131 98.1733 95.3638C98.5035 95.6392 98.8338 95.9291 99.2029 96.2141C99.572 96.4943 99.9751 96.7504 100.407 96.9823C101.267 97.4412 102.268 97.7843 103.336 97.8664C104.405 97.9582 105.551 97.7263 106.542 97.161C107.537 96.6055 108.343 95.8325 109.053 95.0547C109.757 94.272 110.388 93.47 110.942 92.6777C112.054 91.0931 112.851 89.5326 113.419 88.1847C113.977 86.832 114.312 85.6967 114.507 84.9044C114.609 84.5082 114.672 84.199 114.711 83.9865C114.75 83.7739 114.769 83.6628 114.759 83.6628C114.75 83.6628 114.716 83.7691 114.662 83.9768C114.609 84.1845 114.531 84.4889 114.414 84.8802C114.191 85.658 113.832 86.7837 113.254 88.1123C112.671 89.4408 111.865 90.9771 110.752 92.5424C110.199 93.3251 109.567 94.1126 108.868 94.8856C108.164 95.6489 107.372 96.4025 106.415 96.9388C105.463 97.4799 104.38 97.7021 103.351 97.6152C102.321 97.5379 101.354 97.2142 100.514 96.7697C100.092 96.5475 99.6983 96.2963 99.3389 96.0305C98.9843 95.7552 98.6444 95.4653 98.3093 95.1948C97.6487 94.6488 97.0368 94.1319 96.4928 93.6488C95.4 92.6826 94.5792 91.8419 94.0595 91.2139C93.7973 90.9047 93.6127 90.6486 93.4864 90.4747C93.365 90.3008 93.297 90.209 93.2873 90.2138V90.2235Z" fill="#263238"/>
<path d="M146 128.031C146 128.031 138.682 156.185 129.595 166.924C120.798 177.319 107.051 173.475 102.28 160.015C97.5083 146.566 89 115.837 89 115.837L99.4435 107.863L117.533 144.405L129.595 119.268L145.989 128.042L146 128.031Z" fill="#FFBE9D"/>
<path d="M89.8494 118.001L82.2162 106.945C82.2162 106.945 79.6792 106.358 78.9591 105.937C78.095 105.427 77.2419 101.04 77.2641 100.176C77.2862 99.3227 75.7795 97.3175 76.3889 96.7525C76.9982 96.1874 79.0367 96.1431 78.9259 95.3233C78.9037 95.1461 77.4081 93.3181 78.5935 91.9665C79.0256 91.479 80.7428 91.058 80.7428 91.058L80.6209 86.8371C80.6209 86.8371 82.9031 81.8517 85.2296 83.6575C85.2296 83.6575 94.015 90.4044 94.9013 91.479C95.7875 92.5537 99.1665 106.612 99.7648 109.249" fill="#FFBE9D"/>
<path d="M99.7756 109.238C99.7756 109.238 99.7534 108.972 99.6537 108.496C99.5429 107.964 99.3879 107.255 99.1995 106.38C98.7896 104.552 98.1692 101.904 97.3383 98.6358C96.9173 97.0073 96.452 95.2236 95.8648 93.3181C95.7097 92.8417 95.5546 92.3653 95.3552 91.8668C95.1669 91.3129 94.7016 90.9362 94.3249 90.5927C93.5273 89.8837 92.6853 89.1968 91.8101 88.4989C90.0707 87.0919 88.2317 85.6406 86.304 84.145C85.8055 83.7905 85.3955 83.3363 84.6976 83.0814C83.9886 82.8488 83.2352 83.1479 82.7145 83.5578C81.651 84.3998 80.9752 85.5298 80.3769 86.7152L80.3548 86.7706V86.8371C80.3659 87.247 80.3769 87.6901 80.3991 88.1333C80.4323 89.1193 80.4545 90.1053 80.4877 91.0581L80.6871 90.7922C80.1554 90.9362 79.6457 91.0913 79.1361 91.3129C78.8813 91.4347 78.6265 91.5455 78.3828 91.8003C78.2055 92.033 78.0283 92.2878 77.9618 92.5758C77.7845 93.1519 77.9064 93.7502 78.0947 94.2598C78.1944 94.5146 78.3163 94.7583 78.4382 94.9799L78.6376 95.3122L78.6819 95.3787C78.6819 95.3787 78.6819 95.3344 78.6819 95.3676C78.6819 95.3898 78.6819 95.423 78.6708 95.4341C78.6487 95.5338 78.4382 95.6557 78.2388 95.7443C78.0283 95.8329 77.7956 95.8994 77.5519 95.977C77.3192 96.0545 77.0755 96.121 76.8318 96.2207C76.588 96.3315 76.3332 96.3869 76.1006 96.7303C75.9233 97.0959 76.023 97.3839 76.0784 97.6277C76.1449 97.8825 76.2446 98.1151 76.3332 98.3367C76.5216 98.7799 76.7321 99.2119 76.8983 99.6218C76.9758 99.8323 77.0312 100.021 77.0312 100.209C77.0312 100.475 77.0644 100.696 77.0977 100.929C77.1641 101.394 77.2528 101.838 77.3414 102.281C77.5408 103.167 77.7513 104.02 78.0615 104.829C78.2277 105.239 78.3606 105.638 78.7262 106.003C79.1472 106.324 79.5239 106.38 79.9116 106.524C80.6871 106.768 81.4405 106.956 82.1717 107.122L82.0498 107.045C84.4096 110.39 86.3262 113.127 87.6999 115.077C88.3535 115.985 88.8742 116.705 89.262 117.248C89.6276 117.746 89.827 118.001 89.8381 117.979C89.8492 117.957 89.683 117.691 89.3506 117.17C88.985 116.616 88.4865 115.863 87.8772 114.932C86.5366 112.96 84.6644 110.191 82.3711 106.801L82.3268 106.734L82.2492 106.712C81.5291 106.535 80.7758 106.335 80.0335 106.092C79.679 105.97 79.2358 105.837 79.0032 105.649C78.7816 105.438 78.6154 105.017 78.4714 104.652C78.1834 103.876 77.984 103.034 77.7956 102.17C77.707 101.738 77.6294 101.295 77.563 100.852C77.5408 100.63 77.5076 100.397 77.5076 100.198C77.5076 99.9209 77.43 99.6551 77.3525 99.4335C77.1863 98.9793 76.9758 98.5472 76.7875 98.1151C76.6988 97.9046 76.6102 97.6831 76.5548 97.4726C76.4994 97.2732 76.4773 97.0294 76.5327 96.9519C76.5659 96.8743 76.7985 96.7414 76.998 96.6749C77.2084 96.5863 77.4411 96.5198 77.6848 96.4533C77.9175 96.3758 78.1612 96.3093 78.416 96.2096C78.6487 96.0988 78.9589 95.9991 79.1361 95.6114C79.1804 95.5117 79.1915 95.4119 79.1915 95.3122C79.1915 95.279 79.1804 95.1904 79.1472 95.1128L79.0918 95.0131L78.9035 94.6918C78.7816 94.4813 78.6708 94.2598 78.5933 94.0382C78.4271 93.5951 78.3385 93.1187 78.4714 92.6977C78.5268 92.4872 78.6487 92.2989 78.7927 92.1216C78.9035 91.9997 79.1361 91.8668 79.3577 91.7671C79.8119 91.5677 80.3215 91.4126 80.809 91.2796L81.0195 91.2242V91.0137C80.9863 90.0499 80.953 89.075 80.9309 88.089C80.9198 87.6458 80.9087 87.2027 80.8976 86.7928L80.8755 86.9146C81.4294 85.7957 82.1274 84.6878 83.0469 83.9567C83.5122 83.6021 84.055 83.4027 84.5536 83.5689C85.0189 83.724 85.5063 84.1782 85.9938 84.5327C87.9215 86.0173 89.7716 87.4575 91.5109 88.8534C92.3862 89.5514 93.2281 90.2382 94.0147 90.9251C94.4135 91.2796 94.8013 91.5787 94.9453 92.0219C95.1447 92.4761 95.2888 92.9525 95.4549 93.4178C96.0532 95.3012 96.5406 97.0737 96.9838 98.7023C97.8258 101.915 98.5126 104.53 99.0001 106.402C99.2327 107.266 99.41 107.964 99.554 108.496C99.687 108.972 99.7534 109.216 99.7756 109.216V109.238Z" fill="#EB996E"/>
<path d="M80.7534 91.047C80.7534 91.1356 81.6397 91.0691 83.0356 91.2021C83.7336 91.2575 84.4869 91.5123 85.4397 91.756C86.4146 91.9665 87.4781 91.8557 88.5417 91.7782C90.6799 91.4901 92.4746 92.3875 93.4384 93.3624C94.4244 94.3373 94.5241 95.279 94.6239 95.2458C94.6682 95.2679 94.7125 94.2487 93.7265 93.1076C93.239 92.5537 92.53 91.9997 91.6215 91.6341C90.7242 91.2242 89.5942 91.1467 88.5085 91.2464C87.4227 91.3239 86.4146 91.4347 85.5394 91.2685C84.6642 91.0802 83.8 90.8254 83.0689 90.8254C81.6176 90.7922 80.7534 90.9916 80.7645 91.047H80.7534Z" fill="#EB996E"/>
<path d="M83.8666 90.8143C83.9996 90.8808 84.3541 90.3712 84.3098 89.64C84.2655 88.9088 83.8556 88.4435 83.7337 88.521C83.6008 88.5986 83.7337 89.0861 83.7669 89.6732C83.8113 90.2604 83.7226 90.7589 83.8666 90.8143Z" fill="#EB996E"/>
<path d="M78.6595 95.4784C78.6595 95.6114 81.6618 95.7443 85.2735 94.9577C86.1708 94.7583 87.0017 94.5146 87.7107 94.6475C88.4087 94.7694 88.9516 95.2458 89.2839 95.6889C89.9486 96.6195 90.0594 97.395 90.1481 97.3618C90.1924 97.3618 90.2367 96.5641 89.5941 95.4673C89.2618 94.9466 88.6746 94.3484 87.7994 94.1601C86.9242 93.9606 86.0268 94.2487 85.1516 94.4259C81.6064 95.2014 78.6484 95.3122 78.6484 95.4784H78.6595Z" fill="#EB996E"/>
<path d="M77.4964 99.4667C77.4964 99.5332 78.1279 99.5997 79.125 99.4667C80.1221 99.3559 81.4626 99.0125 82.925 98.7244C83.6561 98.5915 84.3541 98.4807 84.9745 98.525C85.5949 98.5583 86.1045 98.7577 86.448 99.0568C87.1681 99.6661 87.0905 100.353 87.1681 100.342C87.2013 100.342 87.2789 100.198 87.2567 99.8988C87.2345 99.5997 87.0905 99.1676 86.7028 98.7798C86.3372 98.381 85.7057 98.093 85.0077 98.0265C84.3098 97.9489 83.5675 98.0597 82.8142 98.1927C81.3075 98.4918 80.0002 98.8906 79.0474 99.09C78.0947 99.3116 77.4854 99.3781 77.4854 99.4556L77.4964 99.4667Z" fill="#EB996E"/>
<path d="M80.1111 102.635C80.0225 102.702 80.7648 103.488 82.1385 103.477L81.8726 103.245C81.8948 103.488 81.928 103.71 81.9502 103.954C82.1496 105.516 82.4266 106.768 82.5817 106.745C82.7257 106.723 82.6924 105.449 82.493 103.898L82.3933 103.2L82.3601 102.956H82.1274C80.9753 103.045 80.1887 102.535 80.1222 102.646L80.1111 102.635Z" fill="#EB996E"/>
<path d="M137.5 98C137.5 98 149.031 100.429 149 119.226C148.969 137.949 141.345 148 141.345 148L119 133.091L123.594 119.226L137.5 98Z" fill="#FCE80D"/>
<path d="M121.172 134.84L141.666 149.539L143 145L122.672 130.84L121.172 134.84Z" fill="#0AAD0A"/>
<path d="M46.147 128.438C45.9284 128.143 21.2024 143.125 21.2024 143.125L13.2761 179.044L1.86748 183.209C1.86748 183.209 -1.69256 143.236 1.01754 137.013C3.72763 130.791 31.2026 108.408 31.2026 108.408L46.147 128.443V128.438Z" fill="#FFBE9D"/>
<path d="M15.8016 140.366C15.7482 140.4 16.5496 141.492 17.9435 142.376C19.3325 143.27 20.6633 143.545 20.673 143.482C20.6973 143.405 19.4297 143.033 18.0843 142.163C16.7293 141.303 15.8599 140.313 15.8016 140.366Z" fill="#AA6550"/>
<path d="M84.8706 163.759C84.7492 164.42 81.398 195.644 81.398 195.644L22.587 191.576L12.6354 190.253L17.2251 161.174L24.2577 159.502L84.8755 163.759H84.8706Z" fill="#FFE581"/>
<path opacity="0.4" d="M24.2529 159.497L84.8706 163.754C84.7492 164.416 81.398 195.639 81.398 195.639L20.1683 191.402L24.2529 159.493V159.497Z" fill="#D5A147"/>
<path d="M25.3123 176.151L38.4976 177.395L37.391 188.996L24.2057 187.751L25.3123 176.151Z" fill="#FAFAFA"/>
<path d="M24.2143 187.765C24.2143 187.765 24.2288 187.687 24.2483 187.542C24.2677 187.383 24.292 187.175 24.3211 186.914C24.3794 186.349 24.4668 185.557 24.5737 184.552C24.7825 182.513 25.0739 179.634 25.4285 176.17L25.3119 176.266C29.1099 176.629 33.6365 177.064 38.4932 177.527C38.5175 177.556 38.2796 177.266 38.3815 177.392V177.44L38.3718 177.489L38.3621 177.585L38.3427 177.783L38.3038 178.175C38.2796 178.436 38.2553 178.696 38.231 178.957C38.1824 179.474 38.1338 179.991 38.0853 180.499C37.9881 181.518 37.8959 182.518 37.8036 183.489C37.6239 185.436 37.449 187.281 37.2888 188.987L37.4102 188.885C33.5005 188.538 30.2221 188.248 27.8957 188.045C26.7495 187.948 25.8364 187.871 25.1953 187.818C24.8942 187.794 24.6562 187.774 24.4717 187.765C24.3065 187.755 24.2191 187.75 24.2143 187.755C24.2143 187.755 24.2871 187.769 24.4425 187.789C24.6174 187.808 24.8505 187.837 25.1419 187.866C25.7782 187.934 26.6815 188.03 27.8132 188.146C30.1541 188.378 33.4519 188.711 37.3859 189.108L37.4976 189.117L37.5073 189.006C37.6725 187.301 37.8521 185.455 38.0416 183.508C38.1338 182.537 38.231 181.537 38.3281 180.518C38.3767 180.011 38.4253 179.494 38.4738 178.977C38.4981 178.716 38.5224 178.455 38.5467 178.194L38.5855 177.803L38.605 177.605L38.6147 177.508V177.436L38.6244 177.421V177.411C38.7264 177.532 38.4884 177.242 38.5078 177.271C33.651 176.822 29.1245 176.402 25.3216 176.049L25.2148 176.039L25.2051 176.146C24.8942 179.639 24.6368 182.547 24.4523 184.605C24.3697 185.6 24.3017 186.388 24.258 186.948C24.2385 187.199 24.224 187.402 24.2143 187.557C24.2045 187.692 24.2046 187.76 24.2094 187.76L24.2143 187.765Z" fill="#263238"/>
<path d="M26.3517 178.948C26.3468 179.015 28.6489 179.315 31.4999 179.614C34.3508 179.914 36.6675 180.098 36.6724 180.03C36.6772 179.962 34.3751 179.663 31.5242 179.363C28.6732 179.064 26.3565 178.88 26.3517 178.948Z" fill="#263238"/>
<path d="M26.4293 180.914C26.4244 180.948 26.9635 181.088 27.8475 181.262C28.7314 181.436 29.9602 181.639 31.325 181.798C32.6897 181.958 33.9331 182.044 34.8364 182.073C35.735 182.107 36.2935 182.093 36.2983 182.059C36.2983 182.02 35.7447 181.972 34.851 181.895C33.9574 181.817 32.7189 181.701 31.359 181.547C29.999 181.387 28.7703 181.214 27.8815 181.083C26.9927 180.953 26.439 180.875 26.4341 180.909L26.4293 180.914Z" fill="#263238"/>
<path d="M25.8707 185.223C25.8658 185.257 26.4049 185.397 27.2889 185.571C28.1728 185.745 29.4016 185.948 30.7664 186.108C32.1311 186.267 33.3745 186.354 34.2778 186.383C35.1764 186.417 35.7349 186.402 35.7397 186.368C35.7397 186.33 35.1861 186.281 34.2924 186.204C33.3988 186.127 32.1603 186.011 30.8004 185.856C29.4405 185.697 28.2117 185.523 27.3229 185.392C26.4341 185.262 25.8804 185.185 25.8755 185.219L25.8707 185.223Z" fill="#263238"/>
<path d="M26.5355 183.016C26.5258 183.083 28.6774 183.446 31.3438 183.827C34.0102 184.204 36.1763 184.455 36.186 184.388C36.1957 184.32 34.0442 183.958 31.3778 183.576C28.7114 183.199 26.5452 182.948 26.5355 183.016Z" fill="#263238"/>
<path d="M14.8943 200.983C14.8943 200.983 4.03934 193.842 3.20397 190.185C2.3686 186.533 1.86835 183.209 1.86835 183.209L13.4664 178.431L12.3153 182.586C12.3153 182.586 16.4727 185.045 16.9001 188.025C17.1818 190.011 22.5583 193.412 22.5583 193.412C23.4714 192.315 24.8605 191.726 26.2884 191.823L30.8052 192.142L27.7551 198.992L14.8991 200.987L14.8943 200.983Z" fill="#FFBE9D"/>
<path d="M10.6539 191.19C10.6539 191.19 10.8288 191.291 11.1687 191.398C11.5087 191.509 12.0138 191.62 12.6063 191.813C13.2086 191.997 13.84 192.378 14.4908 192.9C15.1367 193.417 15.8944 193.997 16.8123 194.364C18.6336 195.147 20.5035 195.093 21.7371 194.775C22.0431 194.692 22.3345 194.625 22.5628 194.47C22.7911 194.33 22.9125 194.064 22.8639 193.871C22.8348 193.678 22.7134 193.557 22.6211 193.523C22.5239 193.489 22.4705 193.509 22.4705 193.514C22.4705 193.523 22.5239 193.523 22.5968 193.567C22.6696 193.61 22.7522 193.721 22.7668 193.881C22.7911 194.045 22.6939 194.229 22.4851 194.349C22.286 194.475 22.0043 194.533 21.6983 194.596C20.4841 194.862 18.6773 194.881 16.9143 194.127C16.0255 193.77 15.3019 193.224 14.6365 192.712C13.976 192.2 13.2912 191.803 12.6646 191.639C12.0478 191.46 11.5427 191.378 11.1979 191.296C10.853 191.219 10.6636 191.166 10.6588 191.185L10.6539 191.19Z" fill="#AA6550"/>
<path d="M18.173 196.731C18.1924 196.765 18.7315 196.451 19.6543 196.069C20.5771 195.692 21.903 195.277 23.4183 195.137C23.7972 195.098 24.1711 195.084 24.5305 195.079H24.5985L24.6325 195.021C25.3028 193.968 26.0701 193.171 26.653 192.649C27.2358 192.122 27.6292 191.852 27.6049 191.823C27.5952 191.813 27.4883 191.866 27.3038 191.977C27.1192 192.093 26.8569 192.277 26.5461 192.523C25.9244 193.021 25.1231 193.813 24.4237 194.881L24.5257 194.823C24.1566 194.828 23.7777 194.837 23.3892 194.881C21.8399 195.026 20.4945 195.475 19.5766 195.9C19.1152 196.108 18.7607 196.316 18.5227 196.465C18.2847 196.62 18.1584 196.712 18.1681 196.726L18.173 196.731Z" fill="#AA6550"/>
<path d="M15.2438 194.77C15.2195 194.842 15.9772 195.113 16.832 195.596C17.6868 196.074 18.3133 196.581 18.3619 196.528C18.4104 196.485 17.8422 195.876 16.9582 195.378C16.0743 194.876 15.2584 194.707 15.2438 194.77Z" fill="#AA6550"/>
<path d="M9.36211 181.924C9.37183 182.001 10.1149 181.909 10.9843 182.141C11.8536 182.358 12.4608 182.803 12.5045 182.74C12.553 182.697 11.9799 182.136 11.0474 181.895C10.1149 181.648 9.34269 181.861 9.36211 181.924Z" fill="#AA6550"/>
<path d="M33.1911 116.18L62.557 118.475L64.6497 161.841L24.1025 158.672L33.1911 116.18Z" fill="#EECA6A"/>
<path d="M62.5571 118.475L65.9507 118.74L72.6132 162.463L64.6498 161.841L62.5571 118.475Z" fill="#EECA6A"/>
<path opacity="0.3" d="M62.5571 118.475L65.9507 118.74L72.6132 162.463L64.6498 161.841L62.5571 118.475Z" fill="black"/>
<path d="M72.6127 162.463C72.5758 162.501 72.0718 162.074 71.277 161.366C70.4822 160.658 69.4043 159.655 68.2267 158.536C68.0241 158.343 67.8215 158.151 67.6319 157.966L67.892 157.945C67.008 159.073 66.2163 160.066 65.6382 160.762C65.0601 161.458 64.6878 161.871 64.6561 161.841C64.6244 161.812 64.9255 161.352 65.459 160.619C65.9924 159.885 66.7519 158.87 67.6228 157.734L67.7437 157.58L67.8829 157.713C68.0725 157.898 68.2756 158.084 68.4782 158.277C69.6558 159.396 70.7113 160.424 71.4613 161.183C72.2114 161.942 72.6565 162.426 72.6262 162.464L72.6127 162.463Z" fill="#263238"/>
<path d="M64.3412 118.614C64.4369 118.608 65.2817 127.38 66.2238 138.213C67.1658 149.047 67.853 157.833 67.7505 157.839C67.6548 157.845 66.8101 149.073 65.868 138.24C64.9259 127.406 64.2388 118.62 64.3412 118.614Z" fill="#263238"/>
<path d="M34.3205 140.614C34.2035 139.643 33.3615 138.956 32.4087 138.975C32.4087 138.975 32.4092 138.969 32.4083 138.963C32.4072 138.957 32.4077 138.954 32.4077 138.954C33.3919 138.994 33.4759 138.139 33.4759 138.139C33.0161 138.046 32.4817 138.285 32.3632 138.686C32.3018 138.458 32.1152 138.245 31.9453 138.084C31.8974 138.039 31.7781 137.992 31.701 138.069C31.625 138.145 31.6523 138.244 31.7171 138.298C32.0072 138.542 32.1269 138.998 32.12 138.999C31.2033 139.155 30.4714 140.005 30.5815 141.086C30.6872 142.122 31.642 142.857 32.6716 142.733C33.7012 142.609 34.4452 141.648 34.3203 140.614L34.3205 140.614ZM32.4818 140.193C32.3044 140.346 32.0909 140.434 31.8793 140.526C31.853 140.537 31.8283 140.548 31.8045 140.559C31.2886 140.803 31.1713 141.026 31.1683 141.257C31.1869 141.227 31.2103 141.199 31.2391 141.173C31.3602 141.064 31.5042 141.004 31.6536 140.952C31.8951 140.866 32.1441 140.808 32.3917 140.745C32.4334 140.734 32.4448 140.745 32.4442 140.789C32.4415 141.036 32.3051 141.19 32.0958 141.292C31.9398 141.369 31.7675 141.39 31.6009 141.431C31.5345 141.447 31.467 141.459 31.4031 141.483C31.3106 141.518 31.2631 141.572 31.2571 141.651C31.3522 141.856 31.5059 142.038 31.6188 142.131C31.6899 142.19 31.7711 142.236 31.8468 142.289C31.8619 142.3 31.8876 142.32 31.8911 142.33C31.8923 142.334 31.8883 142.338 31.8843 142.338C31.5704 142.291 31.2446 142.017 31.1314 141.886C31.0083 141.743 30.8782 141.511 30.8321 141.162C30.8261 141.122 30.8222 141.084 30.82 141.045C30.8198 141.043 30.8196 141.041 30.8196 141.039C30.8196 141.039 30.8196 141.038 30.8196 141.038C30.8109 140.86 30.8428 140.689 30.9089 140.521C31.0506 140.161 31.3176 139.913 31.6409 139.721C31.9642 139.529 32.3142 139.441 32.6926 139.483C32.7433 139.488 32.7668 139.5 32.7699 139.558C32.7841 139.821 32.6756 140.026 32.4816 140.193L32.4818 140.193Z" fill="#151515"/>
<path d="M58.8555 140.15C57.5579 140.046 56.4217 141.013 56.3172 142.311C56.2128 143.608 57.1797 144.744 58.4768 144.849C59.774 144.953 60.9103 143.986 61.0147 142.689C61.1191 141.391 60.1527 140.255 58.8555 140.15ZM58.5686 143.715C57.9184 143.663 57.4343 143.091 57.4868 142.438C57.5393 141.786 58.1087 141.299 58.7589 141.351C59.4086 141.403 59.8928 141.975 59.8402 142.628C59.7877 143.28 59.2183 143.767 58.5686 143.715Z" fill="#151515"/>
<path d="M46.953 139.192L45.8755 139.105L45.8456 139.475C45.4931 139.208 45.0562 139.037 44.5656 139C43.3438 138.908 42.1994 139.863 42.0954 141.155C41.9915 142.446 42.9454 143.599 44.3101 143.7C44.6498 143.725 45.1961 143.659 45.5567 143.295L45.5229 143.798L46.5723 143.877C46.5791 143.845 46.6356 143.139 46.6844 142.516L46.6852 142.516L46.9528 139.192L46.953 139.192ZM44.3781 142.594C43.7183 142.541 43.2259 141.969 43.2785 141.316C43.331 140.663 43.9084 140.177 44.5683 140.23C45.2283 140.283 45.7205 140.856 45.668 141.508C45.6154 142.161 45.0381 142.647 44.3781 142.594Z" fill="#151515"/>
<path d="M52.0189 139.6L50.9416 139.513L50.9117 139.883C50.559 139.616 50.1217 139.445 49.6318 139.408C48.4099 139.316 47.2653 140.271 47.1613 141.563C47.0574 142.854 48.0115 144.007 49.3763 144.108C49.7156 144.133 50.2619 144.067 50.6226 143.703L50.5887 144.206L51.6384 144.285C51.6452 144.253 51.7016 143.547 51.7504 142.924L51.7513 142.924L52.0189 139.6ZM49.4441 143.002C48.7841 142.949 48.292 142.377 48.3445 141.724C48.3971 141.071 48.9744 140.585 49.6344 140.638C50.2944 140.691 50.7865 141.264 50.734 141.916C50.6814 142.569 50.1042 143.055 49.4441 143.002Z" fill="#151515"/>
<path d="M52.4043 139.631L56.3238 139.946L56.243 140.95L53.8038 143.365L56.0342 143.544L55.9461 144.639L52.0265 144.324L52.0996 143.416L54.5058 140.979L52.31 140.802L52.4043 139.631Z" fill="#151515"/>
<path d="M40.7818 139.061L40.8111 138.697L39.7393 138.611L39.4731 141.918L39.474 141.918L39.3624 143.304L40.5888 143.403C40.5888 143.403 40.7395 141.089 40.7933 140.862C40.8539 140.607 40.9691 140.442 41.0968 140.31C41.4668 139.925 41.9923 139.952 41.9923 139.952L42.085 138.8C41.5596 138.758 41.1266 138.878 40.7818 139.061Z" fill="#151515"/>
<path d="M35.6366 139.689C35.5931 139.831 35.3556 142.852 35.3556 142.852L35.3415 142.986L36.5898 143.087L36.6967 141.461L38.6692 141.62L38.7541 140.564L36.7958 140.407C36.7958 140.407 36.8119 140.318 36.8148 140.29C36.8899 139.565 37.6105 139.624 37.6105 139.624L39.244 139.753L39.3385 138.579L37.2138 138.41C36.2547 138.333 35.6897 139.025 35.6362 139.689L35.6366 139.689Z" fill="#151515"/>
<path d="M35.6404 145.241C35.8056 145.254 35.912 145.195 35.9509 145.172C35.9772 145.156 35.9903 145.142 35.9925 145.114L36.0144 144.842C36.0162 144.819 36.0017 144.803 35.9781 144.801L35.6777 144.777C35.6541 144.775 35.6387 144.787 35.6368 144.809L35.6354 144.827C35.6336 144.85 35.647 144.864 35.6706 144.865L35.9067 144.884L35.8897 145.096C35.8566 145.113 35.7842 145.16 35.6531 145.149C35.4629 145.134 35.3247 144.98 35.3402 144.788C35.3554 144.6 35.5139 144.467 35.7041 144.483C35.7749 144.488 35.84 144.515 35.8921 144.558C35.9106 144.573 35.9369 144.575 35.9552 144.56L35.9694 144.549C35.9877 144.535 35.9895 144.512 35.9722 144.497C35.8993 144.435 35.8152 144.397 35.7129 144.389C35.4571 144.369 35.252 144.539 35.2327 144.779C35.2133 145.019 35.3912 145.221 35.6404 145.241ZM36.8005 144.675C36.7786 144.668 36.7644 144.665 36.7342 144.662C36.6555 144.656 36.5961 144.689 36.5558 144.747L36.5601 144.694C36.5619 144.671 36.5499 144.656 36.5276 144.655L36.5014 144.652C36.4791 144.651 36.4648 144.663 36.463 144.686L36.4175 145.251C36.4158 145.273 36.4277 145.289 36.45 145.291L36.4828 145.293C36.5064 145.295 36.5194 145.281 36.5211 145.26L36.5473 144.935C36.5564 144.821 36.6209 144.742 36.7179 144.75C36.7337 144.751 36.7479 144.755 36.7632 144.761C36.7825 144.768 36.8024 144.767 36.8123 144.742L36.8192 144.723C36.8308 144.693 36.8185 144.682 36.8005 144.675ZM37.1921 145.06L37.6984 145.101C37.7246 145.103 37.7443 145.088 37.7462 145.064C37.7535 144.975 37.7261 144.888 37.6667 144.823C37.6146 144.765 37.5384 144.727 37.4453 144.72C37.2564 144.704 37.1033 144.836 37.0879 145.027C37.0711 145.235 37.2293 145.369 37.409 145.383C37.4877 145.39 37.6011 145.375 37.6857 145.308C37.6999 145.296 37.7105 145.279 37.6924 145.257L37.6802 145.245C37.6658 145.227 37.649 145.223 37.6238 145.24C37.5484 145.291 37.4737 145.301 37.416 145.296C37.2967 145.286 37.1927 145.2 37.1921 145.06ZM37.4383 144.807C37.5052 144.812 37.5585 144.838 37.5933 144.882C37.6223 144.914 37.6398 144.96 37.6435 145.013L37.2001 144.977C37.2264 144.863 37.3189 144.797 37.4383 144.807ZM38.2166 145.143L38.7229 145.184C38.7491 145.186 38.7688 145.171 38.7707 145.147C38.7779 145.057 38.7505 144.971 38.6912 144.905C38.639 144.847 38.5629 144.809 38.4698 144.802C38.2809 144.787 38.1277 144.918 38.1124 145.109C38.0956 145.318 38.2538 145.451 38.4335 145.466C38.5122 145.472 38.6256 145.457 38.7102 145.39C38.7243 145.378 38.7349 145.361 38.7169 145.34L38.7047 145.327C38.6903 145.31 38.6734 145.306 38.6483 145.323C38.5729 145.374 38.4982 145.383 38.4405 145.378C38.3211 145.369 38.2172 145.283 38.2166 145.143ZM38.4627 144.889C38.5296 144.895 38.583 144.921 38.6178 144.964C38.6468 144.997 38.6642 145.043 38.6679 145.095L38.2246 145.06C38.2509 144.946 38.3434 144.88 38.4627 144.889ZM39.5243 144.887C39.4273 144.879 39.3496 144.91 39.2988 144.967L39.303 144.915C39.3048 144.892 39.2928 144.877 39.2705 144.875L39.2443 144.873C39.222 144.871 39.2077 144.884 39.2059 144.907L39.1604 145.472C39.1587 145.494 39.1706 145.51 39.1929 145.512L39.2257 145.514C39.2493 145.516 39.2623 145.502 39.264 145.48L39.2913 145.142C39.3003 145.03 39.3861 144.965 39.4989 144.974C39.6104 144.983 39.6754 145.061 39.6664 145.172L39.6392 145.511C39.6374 145.532 39.6493 145.548 39.6716 145.55L39.7044 145.553C39.728 145.555 39.741 145.54 39.7428 145.519L39.7708 145.171C39.7832 145.017 39.6896 144.9 39.5243 144.887ZM41.4018 145.047L41.3756 145.045C41.3533 145.043 41.3403 145.056 41.3385 145.079L41.3345 145.128C41.2854 145.066 41.2084 145.022 41.11 145.015C40.9224 144.999 40.7769 145.119 40.7633 145.287C40.7498 145.455 40.8744 145.596 41.0607 145.611C41.1551 145.619 41.2365 145.591 41.2947 145.541L41.2874 145.632C41.2763 145.77 41.1753 145.826 41.0494 145.816C40.9406 145.807 40.8767 145.764 40.8258 145.691C40.8092 145.668 40.7891 145.672 40.7725 145.682L40.7613 145.689C40.7363 145.705 40.7348 145.723 40.7503 145.744C40.8218 145.84 40.9127 145.892 41.0412 145.902C41.2117 145.916 41.3736 145.84 41.3902 145.634L41.4343 145.086C41.4361 145.064 41.4241 145.049 41.4018 145.047ZM41.0757 145.523C40.9406 145.512 40.8584 145.418 40.8683 145.295C40.8781 145.173 40.9758 145.091 41.1082 145.102C41.2407 145.113 41.3267 145.209 41.3167 145.333C41.307 145.454 41.2094 145.534 41.0757 145.523ZM42.2364 145.113C42.2145 145.106 42.2003 145.102 42.1701 145.1C42.0914 145.094 42.0319 145.127 41.9916 145.185L41.9959 145.132C41.9977 145.109 41.9857 145.094 41.9634 145.092L41.9372 145.09C41.9149 145.088 41.9007 145.101 41.8989 145.124L41.8534 145.689C41.8516 145.71 41.8635 145.727 41.8858 145.728L41.9186 145.731C41.9422 145.733 41.9553 145.719 41.957 145.697L41.9831 145.372C41.9923 145.259 42.0567 145.18 42.1538 145.188C42.1695 145.189 42.1837 145.193 42.1991 145.199C42.2183 145.206 42.2382 145.205 42.2481 145.18L42.255 145.16C42.2666 145.131 42.2543 145.119 42.2364 145.113ZM42.8449 145.821C43.0455 145.837 43.2054 145.705 43.2204 145.518C43.2355 145.331 43.0989 145.175 42.8982 145.158C42.6975 145.142 42.5377 145.274 42.5226 145.462C42.5076 145.649 42.6442 145.805 42.8449 145.821ZM42.8521 145.731C42.7091 145.72 42.6164 145.609 42.6276 145.47C42.6387 145.331 42.7493 145.237 42.891 145.248C43.0339 145.26 43.1267 145.37 43.1155 145.509C43.1043 145.648 42.995 145.743 42.8521 145.731ZM43.9142 145.907C43.9942 145.913 44.0887 145.903 44.1762 145.833C44.1905 145.82 44.2011 145.803 44.1829 145.782L44.1696 145.767C44.1538 145.751 44.1372 145.744 44.1132 145.763C44.0319 145.822 43.9699 145.821 43.9227 145.817C43.7732 145.805 43.6858 145.694 43.6968 145.557C43.708 145.417 43.8173 145.323 43.9616 145.334C44.0088 145.338 44.0701 145.347 44.1409 145.419C44.1616 145.441 44.1791 145.436 44.1973 145.423L44.2129 145.411C44.2341 145.393 44.2264 145.374 44.2143 145.36C44.1392 145.276 44.0475 145.251 43.9675 145.245C43.7655 145.228 43.607 145.361 43.5919 145.548C43.5769 145.735 43.7122 145.891 43.9142 145.907ZM44.6678 145.662L45.1741 145.703C45.2004 145.705 45.22 145.69 45.222 145.666C45.2292 145.576 45.2018 145.49 45.1424 145.424C45.0903 145.367 45.0142 145.329 44.921 145.321C44.7322 145.306 44.579 145.438 44.5636 145.628C44.5468 145.837 44.7051 145.971 44.8848 145.985C44.9635 145.991 45.0769 145.976 45.1615 145.909C45.1756 145.898 45.1862 145.881 45.1682 145.859L45.156 145.847C45.1416 145.829 45.1247 145.825 45.0996 145.842C45.0242 145.893 44.9495 145.902 44.8918 145.898C44.7724 145.888 44.6685 145.802 44.6678 145.662ZM44.914 145.409C44.9809 145.414 45.0343 145.44 45.069 145.483C45.0981 145.516 45.1155 145.562 45.1192 145.615L44.6759 145.579C44.7022 145.465 44.7947 145.399 44.914 145.409ZM45.9947 145.415C45.9728 145.409 45.9586 145.405 45.9285 145.402C45.8498 145.396 45.7903 145.429 45.75 145.487L45.7543 145.434C45.7561 145.411 45.7441 145.396 45.7218 145.395L45.6956 145.393C45.6733 145.391 45.6591 145.404 45.6572 145.426L45.6117 145.991C45.61 146.013 45.6219 146.029 45.6442 146.031L45.677 146.034C45.7006 146.035 45.7136 146.021 45.7154 146L45.7415 145.675C45.7507 145.561 45.8151 145.482 45.9121 145.49C45.9279 145.491 45.9421 145.495 45.9574 145.501C45.9767 145.508 45.9966 145.507 46.0065 145.482L46.0134 145.463C46.025 145.433 46.0127 145.422 45.9947 145.415ZM46.9082 145.49L46.8701 145.487C46.8465 145.485 46.8337 145.497 46.8227 145.519L46.5881 145.957L46.4266 145.487C46.4192 145.464 46.4085 145.45 46.3848 145.448L46.3402 145.444C46.3193 145.443 46.3061 145.458 46.3125 145.478L46.5226 146.066L46.4608 146.177C46.4268 146.239 46.4034 146.251 46.364 146.248C46.3483 146.247 46.3303 146.24 46.3164 146.233C46.2899 146.218 46.2683 146.224 46.2587 146.244L46.2525 146.255C46.2414 146.279 46.2562 146.291 46.2699 146.301C46.2912 146.316 46.3233 146.327 46.3587 146.33C46.4492 146.337 46.4957 146.302 46.5558 146.195L46.9289 145.527C46.9396 145.509 46.9292 145.492 46.9082 145.49ZM48.4829 145.352L48.4547 145.356C48.4303 145.361 48.4191 145.371 48.4176 145.39L48.3932 145.694C48.3401 145.632 48.2615 145.59 48.1659 145.583C47.9692 145.567 47.822 145.702 47.8071 145.887C47.7924 146.07 47.9158 146.229 48.1126 146.245C48.2124 146.253 48.2967 146.219 48.3581 146.164L48.3542 146.212C48.3525 146.234 48.3644 146.25 48.3864 146.252L48.4169 146.254C48.4389 146.256 48.4532 146.242 48.455 146.22L48.5218 145.39C48.524 145.363 48.5135 145.347 48.4829 145.352ZM48.1301 146.156C47.9844 146.144 47.9015 146.027 47.912 145.895C47.9226 145.764 48.0233 145.661 48.169 145.673C48.295 145.683 48.3973 145.772 48.3842 145.933C48.3713 146.094 48.2575 146.166 48.1301 146.156ZM49.0125 146.012L49.5189 146.053C49.5451 146.055 49.5647 146.04 49.5666 146.016C49.5739 145.926 49.5464 145.84 49.4871 145.774C49.4352 145.716 49.359 145.679 49.2658 145.671C49.077 145.656 48.9236 145.787 48.9082 145.978C48.8914 146.187 49.0499 146.32 49.2293 146.335C49.308 146.341 49.4215 146.326 49.5061 146.259C49.5202 146.248 49.531 146.231 49.5129 146.209L49.5007 146.196C49.4861 146.179 49.4695 146.175 49.4445 146.192C49.3687 146.243 49.2944 146.252 49.2364 146.248C49.1174 146.238 49.013 146.152 49.0125 146.012ZM49.2588 145.758C49.3258 145.764 49.3788 145.79 49.414 145.833C49.4429 145.866 49.4604 145.912 49.4638 145.964L49.0206 145.929C49.0468 145.815 49.1393 145.749 49.2588 145.758ZM49.9927 146.381L50.0255 146.384C50.048 146.385 50.0623 146.371 50.064 146.35L50.1309 145.519C50.133 145.493 50.1225 145.477 50.0929 145.482L50.0647 145.486C50.0408 145.49 50.0282 145.501 50.0267 145.52L49.9605 146.341C49.9588 146.363 49.9707 146.379 49.9927 146.381ZM50.6456 145.674C50.6901 145.678 50.7293 145.646 50.7329 145.602C50.7364 145.559 50.7027 145.521 50.6582 145.517C50.6137 145.514 50.5738 145.546 50.5704 145.589C50.5668 145.633 50.6011 145.67 50.6456 145.674ZM50.5675 146.427L50.6003 146.43C50.6228 146.432 50.6371 146.418 50.6388 146.396L50.6843 145.831C50.6861 145.808 50.6741 145.793 50.6517 145.792L50.6189 145.789C50.5968 145.787 50.5826 145.8 50.5808 145.823L50.5353 146.388C50.5336 146.409 50.5455 146.425 50.5675 146.427ZM51.6846 145.875L51.6504 145.872C51.6269 145.87 51.6142 145.882 51.6016 145.904L51.3549 146.344L51.1819 145.87C51.1734 145.846 51.1637 145.833 51.1402 145.831L51.1046 145.828C51.0826 145.826 51.0696 145.842 51.077 145.861L51.3058 146.462C51.3148 146.485 51.3244 146.495 51.3413 146.496L51.3441 146.496C51.361 146.497 51.3725 146.489 51.3845 146.469L51.7051 145.912C51.716 145.894 51.7056 145.876 51.6846 145.875ZM52.1126 146.262L52.619 146.302C52.6452 146.304 52.6648 146.289 52.6668 146.265C52.674 146.176 52.6465 146.09 52.5872 146.024C52.5353 145.966 52.4591 145.928 52.3659 145.921C52.1771 145.905 52.0237 146.037 52.0083 146.228C51.9915 146.436 52.15 146.57 52.3295 146.584C52.4082 146.591 52.5216 146.576 52.6062 146.509C52.6203 146.497 52.6311 146.48 52.6131 146.458L52.6009 146.446C52.5862 146.428 52.5696 146.424 52.5442 146.441C52.4689 146.493 52.3941 146.502 52.3365 146.497C52.217 146.487 52.1131 146.402 52.1126 146.262ZM52.3589 146.008C52.4259 146.013 52.479 146.039 52.5136 146.083C52.5431 146.116 52.5601 146.161 52.5639 146.214L52.1208 146.178C52.1469 146.065 52.2394 145.998 52.3589 146.008ZM53.4394 146.015C53.4178 146.008 53.4035 146.004 53.3731 146.002C53.2944 145.995 53.2351 146.029 53.1946 146.087L53.1989 146.033C53.2007 146.011 53.1887 145.996 53.1667 145.994L53.1405 145.992C53.118 145.99 53.1037 146.003 53.1019 146.026L53.0564 146.591C53.0547 146.612 53.0666 146.628 53.0891 146.63L53.1219 146.633C53.1453 146.635 53.1582 146.621 53.1599 146.599L53.1861 146.274C53.1953 146.16 53.2601 146.082 53.357 146.089C53.3725 146.091 53.3868 146.094 53.4023 146.101C53.4216 146.107 53.4415 146.106 53.4515 146.082L53.4582 146.062C53.4696 146.032 53.4573 146.021 53.4394 146.015ZM53.8309 146.4L54.3372 146.441C54.3635 146.443 54.3831 146.428 54.385 146.404C54.3922 146.314 54.3652 146.228 54.3055 146.162C54.2535 146.104 54.1774 146.066 54.0841 146.059C53.8954 146.044 53.7424 146.175 53.727 146.366C53.7102 146.575 53.8683 146.708 54.0482 146.723C54.1268 146.729 54.2403 146.714 54.3249 146.647C54.339 146.635 54.3493 146.618 54.3313 146.597L54.3191 146.584C54.3049 146.567 54.2878 146.563 54.2629 146.58C54.1876 146.631 54.1128 146.64 54.0552 146.635C53.9357 146.626 53.8318 146.54 53.8309 146.4ZM54.0771 146.146C54.1441 146.152 54.1977 146.177 54.2323 146.221C54.2613 146.254 54.2788 146.3 54.2826 146.352L53.839 146.317C53.8656 146.203 53.9577 146.137 54.0771 146.146ZM55.4256 145.911L55.3974 145.915C55.3735 145.92 55.3618 145.93 55.3603 145.949L55.3359 146.253C55.2828 146.191 55.2046 146.149 55.1086 146.141C54.9119 146.126 54.7652 146.261 54.7503 146.446C54.7355 146.629 54.8585 146.788 55.0553 146.804C55.1551 146.812 55.2398 146.778 55.3008 146.723L55.297 146.771C55.2952 146.793 55.3071 146.809 55.3296 146.811L55.3596 146.813C55.3821 146.815 55.3964 146.801 55.3981 146.779L55.465 145.949C55.4671 145.922 55.4562 145.906 55.4256 145.911ZM55.0733 146.715C54.9276 146.703 54.8446 146.586 54.8552 146.454C54.8658 146.323 54.9665 146.22 55.1122 146.232C55.2377 146.242 55.3404 146.331 55.3274 146.492C55.3145 146.653 55.2002 146.725 55.0733 146.715ZM56.8953 146.05C56.8675 146.032 56.8302 146.022 56.7908 146.019C56.6807 146.01 56.5611 146.066 56.5486 146.222L56.5451 146.266L56.4729 146.26C56.4495 146.258 56.434 146.27 56.4322 146.291L56.431 146.306C56.4293 146.328 56.4428 146.342 56.4662 146.344L56.5384 146.349L56.4966 146.868C56.4949 146.889 56.5068 146.905 56.5293 146.907L56.5621 146.91C56.5855 146.912 56.5989 146.897 56.6006 146.876L56.6423 146.358L56.8086 146.371C56.8311 146.373 56.8467 146.361 56.8484 146.34L56.8496 146.325C56.8513 146.303 56.8378 146.29 56.8154 146.288L56.6491 146.274L56.6526 146.23C56.6603 146.135 56.7211 146.099 56.7881 146.105C56.8115 146.107 56.8295 146.112 56.8511 146.125C56.8673 146.134 56.8867 146.139 56.9034 146.114L56.9111 146.099C56.9264 146.074 56.9115 146.06 56.8953 146.05ZM57.5472 146.345C57.5255 146.339 57.5112 146.335 57.4808 146.332C57.4021 146.326 57.3428 146.359 57.3023 146.417L57.3066 146.364C57.3084 146.341 57.2964 146.326 57.2744 146.325L57.2482 146.323C57.2257 146.321 57.2115 146.334 57.2096 146.356L57.1642 146.921C57.1624 146.943 57.1743 146.959 57.1968 146.961L57.2296 146.964C57.253 146.965 57.266 146.951 57.2677 146.93L57.2938 146.605C57.303 146.491 57.3678 146.412 57.4648 146.42C57.4802 146.421 57.4945 146.425 57.5101 146.431C57.5293 146.438 57.5492 146.437 57.5592 146.412L57.566 146.393C57.5773 146.363 57.565 146.352 57.5472 146.345ZM57.9391 146.731L58.445 146.771C58.4712 146.773 58.4913 146.758 58.4932 146.734C58.5004 146.645 58.4729 146.559 58.4136 146.493C58.3612 146.435 58.2851 146.397 58.1919 146.39C58.0031 146.374 57.8501 146.506 57.8348 146.697C57.818 146.905 57.976 147.039 58.1559 147.053C58.2346 147.06 58.348 147.045 58.4326 146.978C58.4467 146.966 58.4571 146.949 58.439 146.927L58.4268 146.915C58.4127 146.897 58.3955 146.893 58.3706 146.91C58.2953 146.962 58.2205 146.971 58.1629 146.966C58.0435 146.957 57.9396 146.871 57.9391 146.731ZM58.1848 146.477C58.2518 146.482 58.3054 146.508 58.3401 146.552C58.369 146.585 58.3865 146.63 58.3903 146.683L57.9467 146.647C57.9733 146.534 58.0659 146.467 58.1848 146.477ZM59.0675 147.127C59.208 147.138 59.3078 147.075 59.3166 146.966C59.3269 146.838 59.2249 146.793 59.1158 146.738C59.0461 146.701 58.9955 146.673 58.9996 146.623C59.0035 146.575 59.0511 146.545 59.1204 146.551C59.1757 146.555 59.2096 146.573 59.2547 146.623C59.2751 146.645 59.2954 146.637 59.3111 146.625L59.3212 146.617C59.344 146.597 59.3374 146.579 59.3227 146.562C59.2712 146.499 59.2009 146.471 59.1301 146.465C58.9962 146.454 58.9025 146.517 58.894 146.623C58.8857 146.725 58.9758 146.772 59.0661 146.816C59.1459 146.856 59.2174 146.887 59.2116 146.959C59.2071 147.015 59.1494 147.046 59.0693 147.039C59.0038 147.034 58.9484 147.001 58.9086 146.951C58.8892 146.928 58.8719 146.932 58.8525 146.945L58.8424 146.953C58.8175 146.969 58.824 146.989 58.8358 147.006C58.8894 147.078 58.9836 147.12 59.0675 147.127ZM60.0881 146.542C59.9963 146.535 59.9215 146.562 59.8697 146.614L59.8945 146.305C59.8967 146.279 59.8862 146.263 59.8565 146.268L59.8284 146.272C59.8045 146.276 59.7918 146.287 59.7903 146.306L59.7242 147.127C59.7224 147.149 59.7343 147.165 59.7563 147.167L59.7891 147.17C59.8116 147.171 59.826 147.157 59.8277 147.136L59.855 146.797C59.8639 146.686 59.9498 146.62 60.0622 146.629C60.1737 146.638 60.2391 146.716 60.2302 146.827L60.2029 147.166C60.2012 147.187 60.2131 147.204 60.2351 147.205L60.2679 147.208C60.2904 147.21 60.3047 147.196 60.3064 147.174L60.3344 146.827C60.3468 146.672 60.253 146.556 60.0881 146.542Z" fill="#151515"/>
<path d="M69.1857 23.3044C67.5074 35.0251 95.9819 33.7667 101.695 33.404C102.327 33.3626 102.684 33.329 102.684 33.329C102.684 33.329 100.797 55.172 103.26 60.7838C104.522 63.6592 109.446 65.4428 114.555 64.018L114.577 64.0213C119.442 62.6515 124.462 58.3645 126.621 49.3412C131.056 30.8221 126.477 13.8923 109.211 7.71239C91.9452 1.53245 71.8719 4.64531 69.1857 23.3044Z" fill="#FAD03A"/>
<path d="M101.695 33.3974C102.327 33.3559 102.684 33.3223 102.684 33.3223C102.684 33.3223 100.797 55.1654 103.26 60.7771C104.522 63.6525 109.447 65.4361 114.556 64.0114C113.039 64.0428 108.937 63.795 107.416 60.2519C105.525 55.8786 105.392 32.2592 105.392 32.2592L102.229 30.4407L101.695 33.3974Z" fill="#6D6D6D"/>
<path d="M105.458 32.7564C105.465 32.2329 105.33 31.7175 105.069 31.2649C104.808 30.8123 104.429 30.4396 103.973 30.1863C102.423 29.4066 87.0874 24.2849 80.4689 24.18C73.8504 24.0751 65.9181 26.3435 64.4127 28.8003C62.9073 31.257 79.294 34.936 89.9668 35.2457C100.64 35.5554 105.458 32.7564 105.458 32.7564Z" fill="#E0BD40"/>
<path d="M115.422 42.9837C114.659 48.061 116.317 52.5179 119.126 52.9404C121.936 53.3629 124.832 49.589 125.596 44.5139C126.359 39.4389 124.701 34.9798 121.891 34.5573C119.082 34.1348 116.186 37.9065 115.422 42.9837Z" fill="#E0BD40"/>
</svg>
