<svg width="64" height="64" viewBox="0 0 64 64" fill="none" xmlns="http://www.w3.org/2000/svg">
<rect width="64" height="64" rx="32" fill="#FE1D0F"/>
<path d="M29.325 17H35.625L35.625 39.95H29.325L29.325 17ZM29.1 46.025C29.1 45.125 29.415 44.33 30.045 43.64C30.645 42.98 31.455 42.65 32.475 42.65C33.495 42.65 34.32 42.98 34.95 43.64C35.55 44.33 35.85 45.125 35.85 46.025C35.85 46.925 35.55 47.705 34.95 48.365C34.32 49.055 33.495 49.4 32.475 49.4C31.485 49.4 30.675 49.055 30.045 48.365C29.415 47.705 29.1 46.925 29.1 46.025Z" fill="white"/>
</svg>
