<svg width="18" height="29" viewBox="0 0 18 29" fill="none" xmlns="http://www.w3.org/2000/svg">
<path d="M4.18564 4.21889V5.09468C4.18564 5.09468 3.47307 5.77329 2.93933 7.32783L2.45898 6.9799C2.5065 6.85639 2.55579 6.73411 2.60687 6.61471C2.86224 6.01565 3.16676 5.46698 3.52962 4.97706C3.72967 4.70566 3.94821 4.45221 4.18578 4.21875L4.18564 4.21889Z" fill="#E2E3F2"/>
<path d="M2.95592 7.3818L2.41943 6.99306L2.42847 6.96951C2.47804 6.84039 2.52802 6.71715 2.57676 6.60323C2.83871 5.9887 3.15035 5.43551 3.50322 4.959C3.70601 4.68405 3.92797 4.42758 4.16266 4.19686L4.21839 4.14209V5.11003L4.20826 5.11975C4.20114 5.12646 3.49486 5.81233 2.97029 7.3399L2.95592 7.3818ZM2.49871 6.96965L2.92292 7.27691C3.41695 5.86149 4.06435 5.17247 4.15294 5.08251V4.29915C3.94125 4.51275 3.74065 4.74758 3.55593 4.99803C3.20608 5.47043 2.8969 6.01923 2.63701 6.62897C2.59155 6.73523 2.545 6.8497 2.49871 6.96951V6.96965Z" fill="#2E2E2E"/>
<path d="M4.18643 7.02147V8.66036C4.10331 8.68706 4.01362 8.70198 3.92106 8.70198C3.8285 8.70198 3.74702 8.68897 3.66692 8.66392C3.31543 8.5552 3.06006 8.22808 3.06006 7.84098C3.06006 7.45389 3.31543 7.12663 3.66692 7.01805C3.74702 6.99313 3.8326 6.97998 3.92106 6.97998C4.00952 6.97998 4.10331 6.99477 4.18643 7.02161V7.02147Z" fill="#F9123E"/>
<path d="M2.58959 27.1177H15.5547C16.1422 27.1177 16.6191 27.5946 16.6191 28.182V28.5428H1.52539V28.182C1.52539 27.5946 2.00231 27.1177 2.58973 27.1177H2.58959Z" fill="#CBCCE1"/>
<g opacity="0.8">
<path d="M15.5554 27.1177H2.59026C2.1829 27.1177 1.82922 27.3469 1.65039 27.6831C1.84223 27.4956 2.10431 27.3798 2.39377 27.3798H15.3589C15.9467 27.3798 16.4232 27.8563 16.4232 28.4441V28.5428H16.6199V28.182C16.6199 27.5942 16.1434 27.1177 15.5555 27.1177H15.5554Z" fill="white"/>
</g>
<path d="M15.5549 27.1164C16.1426 27.1164 16.6191 27.5929 16.6191 28.1808V28.5416H1.5256V28.1808C1.5256 27.5929 2.00211 27.1164 2.58994 27.1164H15.5551H15.5549ZM15.5551 26.6577H2.58994C1.75016 26.6577 1.06689 27.3408 1.06689 28.1806V28.5414C1.06689 28.7947 1.27229 29.0001 1.5256 29.0001H16.6193C16.8726 29.0001 17.078 28.7947 17.078 28.5414V28.1806C17.078 27.3408 16.3949 26.6577 15.5551 26.6577Z" fill="#2E2E2E"/>
<path d="M6.36591 1.97266H12.209C13.2675 1.97266 14.1267 2.83188 14.1267 3.89033V26.6593H4.44824V3.89033C4.44824 2.83188 5.30746 1.97266 6.36591 1.97266Z" fill="#F9123E"/>
<g opacity="0.55">
<path d="M14.3235 3.75564V26.9182H13.8414V3.81151C13.8414 2.95105 13.1437 2.25409 12.2833 2.25409H5.72035C5.57548 2.25409 5.43471 2.27367 5.30176 2.31105C5.63846 2.01652 6.08019 1.83838 6.563 1.83838H12.4057C13.465 1.83838 14.3236 2.69692 14.3236 3.75564H14.3235Z" fill="white"/>
</g>
<g opacity="0.3">
<path d="M7.2569 1.96924C6.19763 1.96924 5.33896 2.82778 5.33896 3.8865V26.6559H4.44824V3.8865C4.44824 2.82778 5.30678 1.96924 6.36619 1.96924H7.2569Z" fill="#2E2E2E"/>
</g>
<g opacity="0.3">
<path d="M4.31735 7.02161V8.66049C4.23424 8.68719 4.14455 8.70212 4.05199 8.70212C3.95943 8.70212 3.87795 8.68911 3.79785 8.66405V7.01805C3.87795 6.99313 3.96353 6.97998 4.05199 6.97998C4.14044 6.97998 4.23424 6.99477 4.31735 7.02161Z" fill="#2E2E2E"/>
</g>
<g opacity="0.55">
<path d="M13.4228 3.68684V26.7839H12.9661V3.83349C12.9661 3.44516 12.6515 3.13105 12.2637 3.13105H5.77142C5.74294 3.13105 5.71446 3.13283 5.68652 3.13639C5.86877 2.85021 6.18891 2.66016 6.55287 2.66016H12.3956C12.962 2.66016 13.4228 3.12092 13.4228 3.68684Z" fill="white"/>
</g>
<path d="M12.2089 1.96845C13.2679 1.96845 14.1265 2.82698 14.1265 3.88612V26.6551H4.44794V3.88612C4.44794 2.82698 5.30647 1.96845 6.36561 1.96845H12.2087H12.2089ZM12.2087 1.55287H6.36561C5.07904 1.55287 4.03223 2.59955 4.03223 3.88626V26.6553C4.03223 26.8849 4.21831 27.0709 4.44794 27.0709H14.1265C14.356 27.0709 14.5422 26.8848 14.5422 26.6553V3.88612C14.5422 2.59955 13.4954 1.55273 12.2089 1.55273L12.2087 1.55287Z" fill="#2E2E2E"/>
<path d="M12.2093 2.86229C12.7757 2.86229 13.2365 3.32305 13.2365 3.88897V26.6584H5.33934V3.88897C5.33934 3.32305 5.8001 2.86229 6.36657 2.86229H12.2093ZM12.2093 2.56543H6.36657C5.63647 2.56543 5.04248 3.15915 5.04248 3.88897V26.6584C5.04248 26.8224 5.17544 26.9553 5.33934 26.9553H13.2365C13.4004 26.9553 13.5334 26.8223 13.5334 26.6584V3.88897C13.5334 3.15915 12.9394 2.56543 12.2093 2.56543Z" fill="#2E2E2E"/>
<path d="M7.2386 3.9668H11.3356C11.6141 3.9668 11.8403 4.193 11.8403 4.47151V11.4781C11.8403 11.7566 11.6141 11.9828 11.3356 11.9828H7.2386C6.96009 11.9828 6.73389 11.7566 6.73389 11.4781V4.47151C6.73389 4.193 6.96009 3.9668 7.2386 3.9668Z" fill="#E2E3F2"/>
<path d="M11.3356 12.0151H7.23861C6.94216 12.0151 6.70117 11.7739 6.70117 11.4776V4.47104C6.70117 4.17472 6.9423 3.93359 7.23861 3.93359H11.3356C11.6321 3.93359 11.8731 4.17472 11.8731 4.47104V11.4776C11.8731 11.7739 11.6319 12.0151 11.3356 12.0151ZM7.23861 3.99904C6.97845 3.99904 6.76662 4.21074 6.76662 4.47104V11.4776C6.76662 11.7379 6.97831 11.9496 7.23861 11.9496H11.3356C11.5958 11.9496 11.8076 11.7379 11.8076 11.4776V4.47104C11.8076 4.21087 11.5959 3.99904 11.3356 3.99904H7.23861Z" fill="#2E2E2E"/>
<g opacity="0.3">
<path d="M11.371 11.9771C11.3621 12.2473 11.1395 12.464 10.8669 12.464H6.76985C6.49079 12.464 6.26514 12.2378 6.26514 11.9593V4.9527C6.26514 4.68556 6.47231 4.46702 6.7348 4.44922C6.73425 4.45511 6.73425 4.46113 6.73425 4.46702V11.4736C6.73425 11.7521 6.96046 11.9783 7.23897 11.9783H11.336C11.3479 11.9783 11.3591 11.9778 11.371 11.9771Z" fill="#2E2E2E"/>
</g>
<g opacity="0.3">
<path d="M11.8373 11.5361C11.807 11.7862 11.5938 11.9803 11.3361 11.9803H7.23909C6.96058 11.9803 6.73438 11.7541 6.73438 11.4756V4.46901C6.73438 4.1994 6.94689 3.97854 7.21294 3.96484C7.21061 3.98442 7.20938 4.00524 7.20938 4.02537V10.0218C7.20938 10.8585 7.88744 11.5365 8.72476 11.5365H11.8112C11.8201 11.5365 11.8285 11.5365 11.8374 11.536L11.8373 11.5361Z" fill="#2E2E2E"/>
</g>
<g opacity="0.85">
<path d="M11.8409 4.46942V11.476C11.8409 11.7159 11.6729 11.9172 11.4478 11.9683V4.62511C11.4478 4.4493 11.3047 4.30621 11.1283 4.30621H6.76172C6.82936 4.10793 7.01764 3.96484 7.23905 3.96484H11.3361C11.6146 3.96484 11.8408 4.19105 11.8408 4.46956L11.8409 4.46942Z" fill="white"/>
</g>
<path d="M11.336 12.1575H7.23901C6.86246 12.1575 6.55615 11.8512 6.55615 11.4746V4.46801C6.55615 4.09146 6.86246 3.78516 7.23901 3.78516H11.336C11.7126 3.78516 12.0189 4.09146 12.0189 4.46801V11.4746C12.0189 11.8512 11.7126 12.1575 11.336 12.1575ZM7.23901 4.14144C7.05895 4.14144 6.91244 4.28795 6.91244 4.46801V11.4746C6.91244 11.6547 7.05895 11.8012 7.23901 11.8012H11.336C11.5161 11.8012 11.6626 11.6547 11.6626 11.4746V4.46801C11.6626 4.28795 11.5161 4.14144 11.336 4.14144H7.23901Z" fill="#2E2E2E"/>
<path d="M10.5544 0.208008H8.021V1.31575H10.5544V0.208008Z" fill="#CBCCE1"/>
<path d="M10.5872 1.34814H7.98828V0.174805H10.5872V1.34814ZM8.05373 1.28255H10.5216V0.240257H8.05373V1.28255Z" fill="#2E2E2E"/>
<path d="M10.5543 1.52359H8.02084C7.9061 1.52359 7.81299 1.43049 7.81299 1.31574V0.207857C7.81299 0.0931116 7.90596 0 8.02084 0H10.5543C10.669 0 10.7621 0.0931116 10.7621 0.207857V1.31574C10.7621 1.43049 10.6692 1.52359 10.5543 1.52359ZM8.2287 1.10788H10.3466V0.415712H8.2287V1.10788Z" fill="#2E2E2E"/>
<path d="M11.3159 13.2173H7.35732C7.01301 13.2173 6.73389 13.4964 6.73389 13.8407V16.7304C6.73389 17.0748 7.01301 17.3539 7.35732 17.3539H11.3159C11.6602 17.3539 11.9393 17.0748 11.9393 16.7304V13.8407C11.9393 13.4964 11.6602 13.2173 11.3159 13.2173Z" fill="#E2E3F2"/>
<path d="M11.3158 17.3861H7.35733C6.99543 17.3861 6.70117 17.0917 6.70117 16.73V13.8402C6.70117 13.4783 6.99557 13.1841 7.35733 13.1841H11.3158C11.6777 13.1841 11.9719 13.4785 11.9719 13.8402V16.73C11.9719 17.0919 11.6775 17.3861 11.3158 17.3861ZM7.35733 13.2495C7.03158 13.2495 6.76662 13.5145 6.76662 13.8402V16.73C6.76662 17.0557 7.03158 17.3207 7.35733 17.3207H11.3158C11.6415 17.3207 11.9065 17.0557 11.9065 16.73V13.8402C11.9065 13.5145 11.6415 13.2495 11.3158 13.2495H7.35733Z" fill="#2E2E2E"/>
<g opacity="0.3">
<path d="M11.4071 17.3485C11.3281 17.6021 11.0917 17.7856 10.8121 17.7856H6.85341C6.50904 17.7856 6.22998 17.5065 6.22998 17.1621V14.2723C6.22998 13.9587 6.46152 13.6992 6.76318 13.6553C6.74483 13.714 6.7347 13.777 6.7347 13.8418V16.7316C6.7347 17.076 7.01375 17.3551 7.35813 17.3551H11.3168C11.3477 17.3551 11.3774 17.3527 11.4071 17.3485Z" fill="#2E2E2E"/>
</g>
<g opacity="0.3">
<path d="M11.9394 16.749C11.9311 17.0863 11.6556 17.3564 11.3165 17.3564H7.35781C7.01343 17.3564 6.73438 17.0774 6.73438 16.733V13.8431C6.73438 13.5433 6.94634 13.2927 7.22841 13.2334C7.22786 13.2387 7.22786 13.2441 7.22786 13.2494V15.5621C7.22786 16.2254 7.76517 16.7627 8.42844 16.7627H11.81C11.8545 16.7627 11.8972 16.7579 11.9394 16.749Z" fill="#2E2E2E"/>
</g>
<g opacity="0.85">
<path d="M11.9394 13.8462V16.7361C11.9394 17.0009 11.7743 17.2278 11.5409 17.3173V13.845C11.5409 13.7037 11.4263 13.5891 11.285 13.5891H6.78955C6.88691 13.3729 7.10421 13.2227 7.35725 13.2227H11.316C11.6603 13.2227 11.9394 13.5017 11.9394 13.8461V13.8462Z" fill="white"/>
</g>
<path d="M11.3162 17.5334H7.35773C6.91573 17.5334 6.55615 17.1738 6.55615 16.7318V13.8421C6.55615 13.4001 6.91573 13.0405 7.35773 13.0405H11.3162C11.7582 13.0405 12.1177 13.4001 12.1177 13.8421V16.7318C12.1177 17.1738 11.7582 17.5334 11.3162 17.5334ZM7.35773 13.3968C7.11222 13.3968 6.91244 13.5966 6.91244 13.8421V16.7318C6.91244 16.9773 7.11222 17.1771 7.35773 17.1771H11.3162C11.5617 17.1771 11.7615 16.9773 11.7615 16.7318V13.8421C11.7615 13.5966 11.5617 13.3968 11.3162 13.3968H7.35773Z" fill="#2E2E2E"/>
<path d="M3.92098 8.87858C3.34794 8.87858 2.88184 8.41248 2.88184 7.83944C2.88184 7.2664 3.34794 6.80029 3.92098 6.80029C4.0297 6.80029 4.13733 6.81714 4.24084 6.85041C4.3345 6.88053 4.38612 6.9809 4.35586 7.07442C4.32574 7.16808 4.22523 7.2197 4.13185 7.18958C4.06352 7.16767 3.99259 7.15658 3.92098 7.15658C3.54443 7.15658 3.23812 7.46289 3.23812 7.83944C3.23812 8.21599 3.54443 8.5223 3.92098 8.5223C3.99273 8.5223 4.06366 8.5112 4.13185 8.4893C4.22551 8.45931 4.32588 8.51066 4.35586 8.60445C4.38599 8.69811 4.3345 8.79848 4.24084 8.82847C4.13746 8.86174 4.02984 8.87858 3.92098 8.87858Z" fill="#2E2E2E"/>
<path d="M2.52349 7.97392L2.33056 8.55285L2.85006 8.70128L2.73135 9.36935H1.97427V10.8091L2.31563 10.9725V11.5383H1.18749V9.68579L0.964844 9.33964V8.70128H1.46956L2.31563 6.87549L3.14158 7.47331L3.0597 8.03335L2.52349 7.97392Z" fill="#E2E3F2"/>
<path d="M2.34837 11.5712H1.15477V9.69542L0.932129 9.34926V8.66859H1.44862L2.30264 6.82568L3.17692 7.45856L3.08751 8.0694L2.54623 8.00942L2.37233 8.53084L2.88746 8.67804L2.75875 9.40211H2.00701V10.7886L2.34837 10.9519V11.5712ZM1.22022 11.5056H2.28278V10.9931L1.94142 10.8299V9.33653H2.7037L2.81242 8.7246L2.2884 8.57493L2.50063 7.9385L3.03164 7.99724L3.10613 7.48828L2.32838 6.92523L1.49025 8.73404H0.997307V9.32995L1.21995 9.67611V11.5056H1.22022Z" fill="#2E2E2E"/>
<g opacity="0.85">
<path d="M1.97403 10.8082L2.31539 10.9715V11.5373H1.98882V11.0755L1.64746 10.9121V9.47217H1.97403V10.8082Z" fill="white"/>
</g>
<g opacity="0.85">
<path d="M2.33097 8.54922L2.85047 8.69765L2.73175 9.36572H2.42353L2.5239 8.80158L2.00439 8.65315L2.19733 8.07422L2.47871 8.10571L2.33097 8.54922Z" fill="white"/>
</g>
<g opacity="0.85">
<path d="M3.14187 7.47673L3.05999 8.03677L2.75354 8.00281L2.8153 7.58066L2.19775 7.13359L2.31592 6.87891L3.14187 7.47673Z" fill="white"/>
</g>
<path d="M2.31569 11.716H1.18755C1.08923 11.716 1.0094 11.6361 1.0094 11.5378V9.73762L0.814964 9.43542C0.796479 9.40667 0.786621 9.37326 0.786621 9.33902V8.70067C0.786621 8.60222 0.86645 8.52253 0.964764 8.52253H1.35569L2.15398 6.79997C2.1763 6.75164 2.21916 6.7159 2.27064 6.70248C2.32185 6.6892 2.3769 6.69933 2.42003 6.73055L3.24598 7.32852C3.29979 7.3674 3.32745 7.43299 3.31773 7.49858L3.23571 8.05848C3.22174 8.15337 3.13466 8.22033 3.0399 8.20965L2.64678 8.1661L2.55819 8.43202L2.89887 8.52937C2.98664 8.55443 3.04127 8.64193 3.02525 8.73189L2.90653 9.39982C2.89147 9.48485 2.81753 9.54675 2.73113 9.54675H2.1522V10.6963L2.39237 10.8111C2.45426 10.8407 2.49356 10.9033 2.49356 10.9719V11.5378C2.49356 11.6363 2.41373 11.716 2.31542 11.716H2.31569ZM1.36569 11.3597H2.13755V11.0842L1.89738 10.9693C1.83549 10.9397 1.79619 10.8771 1.79619 10.8085V9.3686C1.79619 9.27015 1.87602 9.19046 1.97433 9.19046H2.58215L2.64665 8.82774L2.2816 8.72353C2.2349 8.71012 2.19561 8.67835 2.17301 8.63535C2.15028 8.59236 2.14631 8.54197 2.16165 8.49596L2.35472 7.91703C2.38128 7.83734 2.45988 7.78695 2.54327 7.79626L2.90845 7.83666L2.94994 7.55376L2.38648 7.14585L1.63133 8.77557C1.60216 8.83855 1.53918 8.87881 1.46975 8.87881H1.14318V9.28658L1.33762 9.58878C1.3561 9.61754 1.36596 9.65095 1.36596 9.68518V11.3597H1.36569Z" fill="#2E2E2E"/>
<path d="M2.93999 7.50353C2.92082 7.50353 2.90124 7.50038 2.8822 7.49381C2.78909 7.4619 2.73952 7.36058 2.77156 7.26746C3.23356 5.92174 3.82536 5.21615 4.00816 5.0198V4.66392C3.44525 5.30392 2.99092 6.08592 2.62587 7.04099C2.59082 7.13287 2.48785 7.17901 2.39583 7.14368C2.30396 7.10849 2.25795 7.00552 2.293 6.91364C2.74021 5.74414 3.31859 4.82029 4.06129 4.08924C4.1125 4.03898 4.18877 4.0242 4.25504 4.05186C4.32131 4.07965 4.36431 4.14442 4.36431 4.21617V5.09196C4.36431 5.1407 4.34445 5.1874 4.30913 5.22094C4.30255 5.22724 3.61915 5.89559 3.10854 7.38303C3.08321 7.45697 3.01406 7.50339 2.94012 7.50339L2.93999 7.50353Z" fill="#2E2E2E"/>
<path d="M1.82976 26.1261C1.59425 26.1261 1.36188 26.0697 1.14348 25.956C0.416808 25.5771 0 24.6504 0 23.4134C0 23.4049 0.000274925 23.3966 0.00109649 23.3882C0.144871 21.6993 0.368473 20.619 0.627404 19.3679C0.869355 18.1988 1.14348 16.8739 1.42761 14.7225C1.5633 13.6951 1.42706 11.5804 1.42569 11.5592L2.01818 11.5203C2.02393 11.6094 2.15962 13.7147 2.01626 14.8002C1.72926 16.973 1.4528 18.3093 1.20894 19.4882C0.954524 20.7176 0.734754 21.7797 0.593855 23.426C0.596457 24.4131 0.904134 25.1617 1.41802 25.4297C1.74227 25.5986 2.11238 25.5577 2.46073 25.3144C3.14153 24.8388 3.76524 23.5342 3.47783 21.298C2.78333 18.2049 2.3568 15.8346 2.37666 13.584C2.43416 9.40172 3.00858 8.39968 3.07389 8.29932L3.57176 8.62288C3.56984 8.62644 3.02542 9.59534 2.97037 13.5908C2.9512 15.786 3.37321 18.1229 4.06032 21.1813C4.06223 21.1902 4.06388 21.1991 4.06497 21.2082C4.3417 23.338 3.86917 25.055 2.80086 25.8013C2.49181 26.0171 2.15798 26.1265 1.8299 26.1265L1.82976 26.1261Z" fill="#CBCCE1"/>
<path d="M2.92832 12.0259V11.3924C3.34902 11.3833 3.75692 11.2073 4.03621 10.8897V12.7072L2.92832 12.0259Z" fill="#BC1A39" stroke="#2E2E2E" stroke-width="0.3"/>
<path d="M7.37276 14.0697C7.45269 14.0697 7.51749 14.0049 7.51749 13.925C7.51749 13.8451 7.45269 13.7803 7.37276 13.7803C7.29283 13.7803 7.22803 13.8451 7.22803 13.925C7.22803 14.0049 7.29283 14.0697 7.37276 14.0697Z" fill="#2E2E2E"/>
<path d="M11.2024 14.0697C11.2823 14.0697 11.3471 14.0049 11.3471 13.925C11.3471 13.8451 11.2823 13.7803 11.2024 13.7803C11.1224 13.7803 11.0576 13.8451 11.0576 13.925C11.0576 14.0049 11.1224 14.0697 11.2024 14.0697Z" fill="#2E2E2E"/>
<path d="M7.37276 16.8886C7.45269 16.8886 7.51749 16.8238 7.51749 16.7439C7.51749 16.6639 7.45269 16.5991 7.37276 16.5991C7.29283 16.5991 7.22803 16.6639 7.22803 16.7439C7.22803 16.8238 7.29283 16.8886 7.37276 16.8886Z" fill="#2E2E2E"/>
<path d="M11.2024 16.8886C11.2823 16.8886 11.3471 16.8238 11.3471 16.7439C11.3471 16.6639 11.2823 16.5991 11.2024 16.5991C11.1224 16.5991 11.0576 16.6639 11.0576 16.7439C11.0576 16.8238 11.1224 16.8886 11.2024 16.8886Z" fill="#2E2E2E"/>
<path d="M10.1386 7.80664H8.43642C8.3189 7.80664 8.22363 7.90191 8.22363 8.01943V8.41529C8.22363 8.5328 8.3189 8.62807 8.43642 8.62807H10.1386C10.2561 8.62807 10.3514 8.5328 10.3514 8.41529V8.01943C10.3514 7.90191 10.2561 7.80664 10.1386 7.80664Z" fill="#2E2E2E"/>
<path d="M10.1386 9.41895H8.43642C8.3189 9.41895 8.22363 9.51421 8.22363 9.63173V10.0276C8.22363 10.1451 8.3189 10.2404 8.43642 10.2404H10.1386C10.2561 10.2404 10.3514 10.1451 10.3514 10.0276V9.63173C10.3514 9.51421 10.2561 9.41895 10.1386 9.41895Z" fill="#2E2E2E"/>
<path d="M7.55331 7.80664H7.68202C7.74898 7.80664 7.8032 7.861 7.8032 7.92782V8.50675C7.8032 8.57371 7.74884 8.62793 7.68202 8.62793H7.55331C7.48635 8.62793 7.43213 8.57357 7.43213 8.50675V7.92782C7.43213 7.86086 7.48649 7.80664 7.55331 7.80664Z" fill="#2E2E2E"/>
<path d="M9.28758 6.35055C9.60686 6.35055 9.86569 6.09173 9.86569 5.77244C9.86569 5.45316 9.60686 5.19434 9.28758 5.19434C8.9683 5.19434 8.70947 5.45316 8.70947 5.77244C8.70947 6.09173 8.9683 6.35055 9.28758 6.35055Z" fill="#2E2E2E"/>
<g opacity="0.3">
<path d="M12.5384 25.2589V26.6559H5.33887V14.7578C5.73596 21.7848 8.26104 24.3508 12.2985 24.9781C12.4367 24.9996 12.5384 25.119 12.5384 25.2588V25.2589Z" fill="#2E2E2E"/>
</g>
<g opacity="0.3">
<path d="M4.18564 4.21875V5.09454C4.18564 5.09454 3.47307 5.77315 2.93933 7.32769L2.45898 6.97976C2.5065 6.85625 2.55579 6.73397 2.60687 6.61457C2.627 6.61156 2.64781 6.60978 2.66917 6.60869C3.80978 6.53447 3.52949 4.97706 3.52949 4.97706C3.72954 4.70567 3.94807 4.45221 4.18564 4.21875Z" fill="#281A71"/>
<path d="M2.95592 7.38166L2.41943 6.99292L2.42847 6.96937C2.47804 6.84025 2.52802 6.71702 2.57676 6.60309L2.58388 6.58625L2.60209 6.58365C2.62318 6.5805 2.64495 6.57858 2.66727 6.57735C2.93182 6.5601 3.13899 6.45822 3.2829 6.27446C3.64151 5.8163 3.49883 4.99241 3.49733 4.9842L3.49473 4.97037L3.50322 4.959C3.70601 4.68391 3.92797 4.42758 4.16266 4.19686L4.21839 4.14209V5.11003L4.20826 5.11975C4.20114 5.12646 3.49486 5.81233 2.97029 7.3399L2.95592 7.3818V7.38166ZM2.49871 6.96951L2.92292 7.27677C3.04848 6.91679 3.18417 6.60364 3.31795 6.33553C3.16309 6.52162 2.94565 6.625 2.67138 6.6428C2.65714 6.64362 2.64317 6.64458 2.62975 6.64609C2.58662 6.74741 2.54267 6.856 2.49871 6.96937V6.96951ZM3.56429 4.9868C3.57894 5.07758 3.64672 5.55806 3.50815 5.98021C3.82513 5.42743 4.09776 5.13851 4.15294 5.08251V4.29915C3.9444 4.5096 3.74654 4.7406 3.56429 4.9868Z" fill="#2E2E2E"/>
</g>
</svg>
