<svg width="57" height="56" viewBox="0 0 57 56" fill="none" xmlns="http://www.w3.org/2000/svg">
<g filter="url(#filter0_d_1_4286)">
<path fill-rule="evenodd" clip-rule="evenodd" d="M30.4146 39.6947C38.1953 38.7346 43.7582 31.9218 42.8397 24.478C41.9212 17.0342 34.869 11.778 27.0883 12.7381C19.3075 13.6982 13.7446 20.511 14.6631 27.9548C15.5817 35.3987 22.6338 40.6548 30.4146 39.6947Z" fill="#4ABD4A"/>
</g>
<path d="M28.0738 20.7255C25.7649 21.0104 23.5923 23.0441 23.95 25.9426C24.2885 28.6866 29.0444 32.4549 29.2639 32.624C29.3517 32.6916 29.4347 32.7206 29.5521 32.7061C29.6695 32.6917 29.743 32.6433 29.8118 32.5564C29.9836 32.339 33.6855 27.5663 33.3421 24.7837C32.9845 21.8851 30.3827 20.4406 28.0738 20.7255Z" fill="white"/>
<defs>
<filter id="filter0_d_1_4286" x="0.563965" y="0.625" width="56.375" height="55.1829" filterUnits="userSpaceOnUse" color-interpolation-filters="sRGB">
<feFlood flood-opacity="0" result="BackgroundImageFix"/>
<feColorMatrix in="SourceAlpha" type="matrix" values="0 0 0 0 0 0 0 0 0 0 0 0 0 0 0 0 0 0 127 0" result="hardAlpha"/>
<feOffset dy="2"/>
<feGaussianBlur stdDeviation="7"/>
<feColorMatrix type="matrix" values="0 0 0 0 0.14902 0 0 0 0 0.737255 0 0 0 0 0.14902 0 0 0 0.5 0"/>
<feBlend mode="normal" in2="BackgroundImageFix" result="effect1_dropShadow_1_4286"/>
<feBlend mode="normal" in="SourceGraphic" in2="effect1_dropShadow_1_4286" result="shape"/>
</filter>
</defs>
</svg>
