<svg width="169" height="138" viewBox="0 0 169 138" fill="none" xmlns="http://www.w3.org/2000/svg">
<path d="M5.32792 70.4143H0C0 63.3778 3.00132 56.1834 8.23453 50.6748C13.7431 44.8775 20.89 41.6848 28.3588 41.6848C43.5987 41.6848 54.2425 52.238 54.2425 67.3479H48.9146C48.9146 55.0209 40.6537 46.739 28.3588 46.739C16.3052 46.7401 5.32792 58.0242 5.32792 70.4143Z" fill="#2B302B"/>
<path d="M8.24993 69.0085C9.10129 69.022 9.791 69.0903 9.79064 69.1609C9.79027 69.2316 9.09946 69.29 8.24774 69.2911C7.39602 69.2921 6.70703 69.2239 6.70776 69.1386C6.7085 69.0534 7.39894 68.9952 8.24993 69.0085Z" fill="#808486"/>
<path d="M11.9282 57.9297C12.6405 58.3717 13.1529 58.8283 13.0724 58.9486C12.992 59.069 12.3381 58.8251 11.6122 58.4029C10.8863 57.9807 10.3739 57.5249 10.4679 57.384C10.5619 57.2432 11.2154 57.4881 11.9282 57.9297Z" fill="#808486"/>
<path d="M21.144 50.2931C21.4888 51.032 21.66 51.6786 21.5261 51.7376C21.3923 51.7966 20.9816 51.2554 20.6086 50.5293C20.2355 49.8032 20.0644 49.1569 20.2264 49.0854C20.3884 49.014 20.8013 49.5552 21.144 50.2931Z" fill="#808486"/>
<path d="M33.2853 49.3853C33.0728 50.1676 32.785 50.7757 32.6416 50.7438C32.4983 50.7119 32.5294 50.0454 32.7104 49.2559C32.8914 48.4663 33.1796 47.8588 33.3537 47.898C33.5277 47.9372 33.4967 48.6037 33.2853 49.3853Z" fill="#808486"/>
<path d="M43.2038 55.9964C42.4947 56.4435 41.8507 56.7138 41.7695 56.6003C41.6883 56.4869 42.1788 56.0106 42.8666 55.5377C43.5545 55.0649 44.1985 54.794 44.3009 54.9338C44.4033 55.0736 43.9129 55.5482 43.2038 55.9964Z" fill="#808486"/>
<path d="M46.4703 66.8956C45.6185 66.8956 44.9281 66.8357 44.9277 66.7637C44.9274 66.6916 45.6171 66.6244 46.4684 66.614C47.3198 66.6036 48.0102 66.6624 48.0106 66.7459C48.011 66.8294 47.3213 66.8966 46.4703 66.8956Z" fill="#808486"/>
<path d="M26.9049 68.3934C26.6419 68.3936 26.3864 68.3105 26.1789 68.1572L17.2251 61.5602C17.0997 61.4706 16.9944 61.3583 16.9153 61.2297C16.8361 61.1011 16.7847 60.9589 16.764 60.8113C16.7433 60.6638 16.7537 60.5137 16.7947 60.37C16.8357 60.2263 16.9063 60.0917 17.0026 59.9741C17.0989 59.8566 17.2188 59.7583 17.3555 59.6851C17.4922 59.6119 17.6428 59.5651 17.7986 59.5477C17.9545 59.5302 18.1125 59.5422 18.2634 59.5832C18.4143 59.6241 18.5551 59.6931 18.6776 59.7861L26.8361 65.7974L38.1202 55.9697C38.2338 55.8677 38.3676 55.7881 38.5138 55.7355C38.66 55.6828 38.8157 55.6582 38.972 55.6629C39.1283 55.6677 39.2821 55.7018 39.4244 55.7632C39.5668 55.8246 39.6949 55.9122 39.8013 56.0209C39.9078 56.1295 39.9905 56.2571 40.0448 56.3962C40.099 56.5354 40.1236 56.6833 40.1172 56.8316C40.1108 56.9798 40.0735 57.1253 40.0075 57.2598C39.9415 57.3943 39.8481 57.5151 39.7326 57.6151L27.7112 68.0919C27.4923 68.2855 27.2042 68.3932 26.9049 68.3934Z" fill="#2B302B"/>
<path d="M32.9769 34.2563H22.7098C22.5498 34.2563 22.4202 34.3794 22.4202 34.5311V38.0575C22.4202 38.2092 22.5498 38.3323 22.7098 38.3323H32.9769C33.1369 38.3323 33.2665 38.2092 33.2665 38.0575V34.5311C33.2665 34.3794 33.1369 34.2563 32.9769 34.2563Z" fill="#2B302B"/>
<path d="M30.6466 36.2942H25.04V41.1156H30.6466V36.2942Z" fill="#2B302B"/>
<path d="M4.70051 46.7316L0.490814 51.6789C0.326939 51.8715 0.35867 52.1536 0.561687 52.3091L3.43986 54.513C3.64288 54.6684 3.9403 54.6383 4.10418 54.4457L8.31387 49.4985C8.47775 49.3059 8.44601 49.0237 8.243 48.8683L5.36482 46.6644C5.16181 46.5089 4.86438 46.539 4.70051 46.7316Z" fill="#2B302B"/>
<path d="M32.9784 38.3327C32.9784 38.3898 30.6792 38.4371 27.8439 38.4371C25.0086 38.4371 22.7087 38.3908 22.7087 38.3327C22.7087 38.2746 25.0072 38.2283 27.8439 38.2283C30.6807 38.2283 32.9784 38.2753 32.9784 38.3327Z" fill="#808486"/>
<path d="M4.60669 53.5948C4.54927 53.6569 3.77398 53.0956 2.81474 52.4122C1.85551 51.7288 1.07546 51.1741 1.12264 51.1047C1.16981 51.0353 2.03251 51.4863 3.00016 52.1801C3.9678 52.8739 4.66191 53.5359 4.60669 53.5948Z" fill="#808486"/>
<path d="M5.49756 52.3498C5.44014 52.4119 4.66485 51.8506 3.70561 51.1671C2.74638 50.4837 1.96633 49.9294 2.01351 49.8596C2.06068 49.7899 2.92338 50.2412 3.89102 50.9351C4.85867 51.6289 5.55278 52.2908 5.49756 52.3498Z" fill="#808486"/>
<path d="M6.59387 51.3062C6.53646 51.3683 5.76117 50.807 4.80193 50.1236C3.84269 49.4402 3.06375 48.8848 3.11092 48.8154C3.1581 48.746 4.02079 49.197 4.98844 49.8908C5.95609 50.5846 6.64946 51.2472 6.59387 51.3062Z" fill="#808486"/>
<path d="M7.65381 50.061C7.59639 50.1231 6.8211 49.5622 5.86186 48.8784C4.90263 48.1946 4.12258 47.6406 4.16976 47.5712C4.21693 47.5018 5.07963 47.9528 6.04728 48.6449C7.01493 49.337 7.70939 50.0021 7.65381 50.061Z" fill="#808486"/>
<path d="M53.615 48.3003L49.0836 43.6138C48.9072 43.4313 48.6083 43.4191 48.4159 43.5864L45.6894 45.9588C45.4971 46.1261 45.4842 46.4097 45.6606 46.5921L50.1921 51.2787C50.3685 51.4611 50.6674 51.4733 50.8597 51.306L53.5862 48.9337C53.7785 48.7663 53.7914 48.4828 53.615 48.3003Z" fill="#2B302B"/>
<path d="M46.4756 47.1906C46.4193 47.1275 47.1196 46.4833 47.975 45.6861C48.8303 44.8888 49.5237 44.238 49.5892 44.2925C49.6546 44.347 49.0571 45.0904 48.1911 45.8945C47.3251 46.6987 46.529 47.2513 46.4756 47.1906Z" fill="#808486"/>
<path d="M47.6416 48.2114C47.5853 48.1482 48.2856 47.504 49.141 46.7065C49.9964 45.9089 50.6894 45.2588 50.7548 45.3132C50.8203 45.3677 50.2231 46.1112 49.3567 46.9153C48.4904 47.7195 47.6939 48.2717 47.6416 48.2114Z" fill="#808486"/>
<path d="M48.5664 49.3947C48.5104 49.3316 49.2104 48.6874 50.0658 47.8902C50.9211 47.0929 51.6145 46.4421 51.68 46.4966C51.7454 46.5511 51.1479 47.2945 50.2819 48.0986C49.4159 48.9028 48.6198 49.4554 48.5664 49.3947Z" fill="#808486"/>
<path d="M49.707 50.5734C49.651 50.5106 50.351 49.8664 51.2064 49.0689C52.0617 48.2713 52.7551 47.6208 52.8206 47.6753C52.886 47.7298 52.2885 48.4732 51.4225 49.2777C50.5565 50.0822 49.7604 50.6342 49.707 50.5734Z" fill="#808486"/>
<path d="M23.8626 38.3275C23.7774 38.3275 23.7083 37.4276 23.7083 36.3178C23.7083 35.208 23.7774 34.3081 23.8626 34.3081C23.9478 34.3081 24.0165 35.2077 24.0165 36.3178C24.0165 37.4279 23.9474 38.3275 23.8626 38.3275Z" fill="#808486"/>
<path d="M25.8717 38.3275C25.7865 38.3275 25.7178 37.4276 25.7178 36.3178C25.7178 35.208 25.7865 34.3081 25.8717 34.3081C25.9569 34.3081 26.0261 35.2077 26.0261 36.3178C26.0261 37.4279 25.9569 38.3275 25.8717 38.3275Z" fill="#808486"/>
<path d="M27.8811 38.3275C27.7959 38.3275 27.7268 37.4276 27.7268 36.3178C27.7268 35.208 27.7959 34.3081 27.8811 34.3081C27.9663 34.3081 28.0351 35.2077 28.0351 36.3178C28.0351 37.4279 27.966 38.3275 27.8811 38.3275Z" fill="#808486"/>
<path d="M29.8904 38.3275C29.8052 38.3275 29.7361 37.4276 29.7361 36.3178C29.7361 35.208 29.8052 34.3081 29.8904 34.3081C29.9756 34.3081 30.0444 35.2077 30.0444 36.3178C30.0444 37.4279 29.9756 38.3275 29.8904 38.3275Z" fill="#808486"/>
<path d="M31.8996 38.3275C31.8147 38.3275 31.7456 37.4276 31.7456 36.3178C31.7456 35.208 31.8147 34.3081 31.8996 34.3081C31.9844 34.3081 32.0539 35.2077 32.0539 36.3178C32.0539 37.4279 31.9848 38.3275 31.8996 38.3275Z" fill="#808486"/>
<path d="M29.0772 68.6826C30.1253 67.6883 30.1253 66.0763 29.0772 65.082C28.0291 64.0877 26.3297 64.0877 25.2816 65.082C24.2335 66.0763 24.2335 67.6883 25.2816 68.6826C26.3297 69.6769 28.0291 69.6769 29.0772 68.6826Z" fill="#2B302B"/>
<path d="M29.863 66.8827C29.8359 66.8827 29.8407 66.6559 29.7273 66.2732C29.5641 65.7357 29.2186 65.2643 28.7443 64.932C28.3629 64.662 27.9098 64.498 27.4358 64.4582C26.9617 64.4185 26.4853 64.5046 26.0599 64.707C25.6345 64.9094 25.2768 65.22 25.0269 65.6042C24.7769 65.9884 24.6445 66.4309 24.6445 66.8824C24.6445 67.3339 24.7769 67.7764 25.0269 68.1606C25.2768 68.5448 25.6345 68.8554 26.0599 69.0578C26.4853 69.2602 26.9617 69.3463 27.4358 69.3066C27.9098 69.2668 28.3629 69.1028 28.7443 68.8328C29.2187 68.5007 29.5643 68.0294 29.7273 67.4919C29.8407 67.1103 29.837 66.8814 29.863 66.8827C29.8725 66.8827 29.8791 66.9386 29.882 67.0465C29.8855 67.2046 29.8685 67.3625 29.8312 67.5166C29.6987 68.0968 29.3557 68.6146 28.862 68.9795C28.4939 69.2532 28.0587 69.434 27.5971 69.5052C27.1354 69.5764 26.6623 69.5357 26.2217 69.3868C25.6765 69.203 25.2048 68.8635 24.8711 68.4152C24.5375 67.9668 24.3584 67.4314 24.3584 66.8826C24.3584 66.3337 24.5375 65.7984 24.8711 65.35C25.2048 64.9016 25.6765 64.5622 26.2217 64.3784C26.6623 64.2295 27.1354 64.1887 27.5971 64.2599C28.0587 64.3311 28.4939 64.512 28.862 64.7856C29.3557 65.1506 29.6987 65.6683 29.8312 66.2486C29.8685 66.4027 29.8855 66.5606 29.882 66.7187C29.8791 66.8265 29.8725 66.8827 29.863 66.8827Z" fill="#808486"/>
<path d="M138.655 36.405L143.243 35.7171C146.248 38.016 150.05 39.1656 153.903 38.9399C157.756 38.7142 161.38 37.1295 164.064 34.4973C166.748 31.8651 168.296 28.3759 168.405 24.7155C168.515 21.0551 167.177 17.4884 164.654 14.7164C162.132 11.9445 158.608 10.1679 154.774 9.7358C150.941 9.30373 147.076 10.2475 143.939 12.3815C140.803 14.5156 138.621 17.6855 137.823 21.2683C137.025 24.851 137.668 28.5874 139.627 31.7428L139.621 31.7369L138.655 36.405Z" fill="white"/>
<path d="M138.656 36.4049C138.656 36.4049 138.671 36.3081 138.71 36.1097C138.75 35.9047 138.808 35.6094 138.884 35.2216C139.043 34.4237 139.276 33.2535 139.579 31.7295C139.58 31.7245 139.582 31.7197 139.585 31.7154C139.588 31.7111 139.591 31.7075 139.596 31.7046C139.6 31.7017 139.605 31.6997 139.61 31.6987C139.616 31.6977 139.621 31.6977 139.626 31.6987C139.634 31.7002 139.642 31.7038 139.648 31.7091L139.654 31.715L139.59 31.7621C138.278 29.6684 137.537 27.2977 137.432 24.8641C137.4 24.1062 137.43 23.3471 137.524 22.5939C137.633 21.7876 137.807 20.9905 138.043 20.2092C139.139 16.5733 141.678 13.4819 145.126 11.5849C147.06 10.516 149.215 9.85546 151.442 9.64837C153.868 9.43227 156.314 9.76192 158.58 10.6106C160.846 11.4592 162.87 12.8029 164.486 14.5326L165.108 15.2264C165.301 15.4675 165.477 15.7204 165.662 15.9657C166.023 16.4587 166.352 16.9725 166.646 17.5039C166.807 17.761 166.912 18.0448 167.046 18.3126C167.166 18.5866 167.318 18.8486 167.412 19.131C167.627 19.6823 167.807 20.2455 167.95 20.8177C168.513 23.0415 168.533 25.3582 168.006 27.5901C167.3 30.4918 165.683 33.1221 163.368 35.1336C161.053 37.1451 158.149 38.4431 155.04 38.8562C154.187 38.9669 153.325 39.015 152.463 39.0002C151.662 38.9643 150.864 38.8826 150.073 38.7556C147.558 38.3111 145.2 37.2767 143.214 35.7468L143.245 35.7548L139.816 36.2457L138.942 36.3681C138.747 36.3952 138.651 36.4056 138.651 36.4056C138.651 36.4056 138.757 36.3858 138.956 36.3539L139.838 36.2131L143.233 35.6805C143.238 35.6798 143.244 35.6801 143.249 35.6815C143.255 35.6829 143.26 35.6852 143.264 35.6885C145.249 37.1936 147.596 38.2077 150.095 38.6397C150.88 38.7624 151.672 38.8402 152.467 38.8729C153.321 38.8845 154.175 38.834 155.021 38.7219C158.094 38.3018 160.961 37.0102 163.247 35.0168C165.532 33.0233 167.129 30.421 167.828 27.5513C168.346 25.3452 168.325 23.0561 167.767 20.8589C167.626 20.2941 167.448 19.738 167.235 19.1937C167.143 18.9145 166.993 18.6564 166.875 18.3854C166.741 18.1207 166.638 17.8408 166.479 17.5875C166.188 17.0627 165.863 16.5553 165.506 16.0684C165.323 15.8255 165.15 15.5761 164.958 15.3399L164.341 14.6554C162.745 12.9468 160.746 11.619 158.508 10.7795C156.269 9.94005 153.854 9.61256 151.457 9.82357C148.397 10.0976 145.494 11.2384 143.127 13.0978C140.759 14.9571 139.035 17.449 138.18 20.2498C137.943 21.0234 137.768 21.8129 137.657 22.6116C137.561 23.3581 137.527 24.1107 137.556 24.8623C137.649 27.2793 138.371 29.637 139.656 31.7257C139.659 31.7301 139.661 31.7349 139.662 31.7399C139.663 31.7449 139.662 31.7501 139.661 31.755C139.66 31.7599 139.658 31.7646 139.654 31.7687C139.651 31.7727 139.647 31.7762 139.643 31.7788C139.635 31.7831 139.626 31.7849 139.617 31.7838C139.608 31.7827 139.599 31.7789 139.593 31.7729L139.587 31.7673L139.655 31.7472C139.332 33.2556 139.084 34.415 138.915 35.2035C138.83 35.5944 138.765 35.893 138.721 36.0993C138.682 36.2984 138.656 36.4049 138.656 36.4049Z" fill="#263238"/>
<path d="M157.632 24.7261C157.632 24.4319 157.724 24.1444 157.896 23.8997C158.068 23.6551 158.313 23.4644 158.6 23.3518C158.886 23.2392 159.201 23.2097 159.505 23.2671C159.81 23.3244 160.089 23.466 160.308 23.674C160.528 23.882 160.677 24.147 160.737 24.4355C160.798 24.724 160.767 25.023 160.648 25.2948C160.53 25.5666 160.329 25.7989 160.071 25.9623C159.813 26.1257 159.51 26.213 159.2 26.213C158.784 26.213 158.385 26.0563 158.091 25.7775C157.797 25.4987 157.632 25.1205 157.632 24.7261Z" fill="#263238"/>
<path d="M151.358 24.7261C151.358 24.4319 151.45 24.1444 151.622 23.8997C151.794 23.6551 152.039 23.4644 152.326 23.3518C152.612 23.2392 152.927 23.2097 153.232 23.2671C153.536 23.3244 153.815 23.466 154.034 23.674C154.254 23.882 154.403 24.147 154.464 24.4355C154.524 24.724 154.493 25.023 154.374 25.2948C154.256 25.5666 154.055 25.7989 153.797 25.9623C153.539 26.1257 153.236 26.213 152.926 26.213C152.51 26.213 152.111 26.0563 151.817 25.7775C151.523 25.4987 151.358 25.1205 151.358 24.7261Z" fill="#263238"/>
<path d="M145.102 25.4697C144.947 25.2149 144.875 24.9223 144.895 24.6288C144.915 24.3353 145.027 24.054 145.216 23.8207C145.404 23.5873 145.662 23.4123 145.955 23.3177C146.249 23.2232 146.566 23.2133 146.865 23.2894C147.165 23.3656 147.434 23.5242 147.638 23.7454C147.843 23.9665 147.973 24.2402 148.014 24.5319C148.054 24.8235 148.003 25.12 147.865 25.3838C147.728 25.6476 147.512 25.8669 147.243 26.014C146.883 26.2112 146.455 26.2646 146.054 26.1626C145.652 26.0605 145.31 25.8112 145.102 25.4697Z" fill="#263238"/>
<path d="M27.5397 78.0893C26.575 77.655 24.9564 76.7506 23.9558 76.3957C22.9652 75.9935 21.86 75.9225 20.8214 76.1945C20.2293 76.3822 19.6412 76.828 19.6372 77.4202L23.5696 80.1552L27.5397 79.1648V78.0893Z" fill="#FF9A6C"/>
<path d="M23.2383 78.0512C23.2383 78.0512 16.1744 76.599 15.0118 76.0239C13.8493 75.4487 7.68061 72.52 6.65774 72.52C5.63487 72.52 4.75096 72.7847 4.56519 73.755L5.90878 74.7458L6.07956 75.252L8.37617 76.3867L8.79637 77.1184L14.6399 80.0803C14.6399 80.0803 20.7775 83.0354 21.8004 83.2119C22.8233 83.3885 27.9383 83.7854 30.1238 85.5498L38.9006 82.1327C38.9006 82.1327 36.3645 78.7156 34.4142 77.876C32.6738 77.1267 29.7519 77.125 27.7058 77.9187L23.2383 78.0512Z" fill="#FFBF9D"/>
<path d="M29.1118 83.6518C29.1118 83.6518 40.284 106.763 42.0818 111.392C42.0818 111.392 54.5709 109.445 54.9988 102.868L38.9006 82.0557L29.1118 83.6518Z" fill="#FFBF9D"/>
<path d="M18.7342 78.5751C18.7342 78.581 18.6929 78.5799 18.6146 78.572C18.5008 78.56 18.3884 78.5385 18.2786 78.5078C17.8783 78.3911 17.4892 78.2422 17.1156 78.0627C16.6402 77.8445 16.0884 77.5569 15.4809 77.2343C15.1767 77.074 14.8592 76.9033 14.525 76.7389C14.1907 76.5744 13.8301 76.4364 13.4644 76.283C12.7801 75.9904 12.0735 75.7468 11.3507 75.5545C10.6884 75.3984 10.0513 75.2794 9.57227 75.432C9.38642 75.5033 9.21784 75.6098 9.07681 75.745C8.93578 75.8801 8.82526 76.0411 8.752 76.2182C8.69742 76.3529 8.63516 76.4846 8.56549 76.6129C8.55891 76.6112 8.56549 76.5727 8.58305 76.5005C8.60809 76.3947 8.64184 76.2909 8.68398 76.1901C8.74779 76.0272 8.83518 75.8735 8.94363 75.7335C9.09085 75.5415 9.29433 75.3948 9.52875 75.3117C9.81224 75.2221 10.1133 75.194 10.4097 75.2295C10.7422 75.2599 11.0717 75.3145 11.3953 75.3928C12.1302 75.5784 12.8478 75.8208 13.5409 76.1176C13.9066 76.2702 14.2745 76.41 14.6139 76.5824C14.9532 76.7548 15.2681 76.9252 15.5702 77.0899C16.1728 77.4206 16.7144 77.7182 17.1793 77.9489C17.5425 78.1359 17.9181 78.3003 18.3038 78.4412C18.5755 78.5359 18.7368 78.5564 18.7342 78.5751Z" fill="#FF9A6C"/>
<path d="M11.9978 75.2521C11.6554 75.184 11.3236 75.0747 11.0104 74.927C10.2572 74.5873 9.48189 74.2936 8.68926 74.0476C8.25503 73.9324 7.80187 73.8957 7.35335 73.9393C7.1747 73.9444 6.99901 73.9839 6.83699 74.0555C6.67497 74.1271 6.53 74.2292 6.41093 74.3556C6.26694 74.5437 6.17206 74.7615 6.1341 74.9912C6.13106 75.0802 6.11316 75.1683 6.08107 75.2521C6.05627 75.1645 6.0492 75.0733 6.06022 74.9832C6.07216 74.7315 6.15638 74.4878 6.30378 74.2783C6.4157 74.1354 6.56071 74.0189 6.72763 73.9376C6.91833 73.851 7.12308 73.7957 7.33323 73.7738C7.80489 73.7181 8.28353 73.7521 8.74119 73.8738C9.54438 74.1195 10.3228 74.433 11.0671 74.8104C11.3858 74.941 11.6965 75.0884 11.9978 75.2521Z" fill="#FF9A6C"/>
<path d="M29.6093 77.3994C29.521 77.4532 29.4242 77.4934 29.3226 77.5184C29.1342 77.5857 28.8563 77.6672 28.5089 77.7539C26.6874 78.1993 24.7877 78.2779 22.9323 77.9846C22.5779 77.9267 22.2938 77.8684 22.1003 77.8171C21.9968 77.8004 21.8967 77.7683 21.8037 77.722C21.8103 77.6936 22.2447 77.7754 22.9517 77.858C24.7942 78.0785 26.6628 78.0013 28.4782 77.6297C29.1744 77.4889 29.5998 77.3716 29.6093 77.3994Z" fill="#FF9A6C"/>
<path d="M133.648 63.6757L117.377 60.4841L113.378 57.6213L91.9084 61.5488C91.5657 62.1441 88.086 66.74 88.086 66.74L79.6328 69.4643C76.0382 70.3622 72.8302 72.3055 70.4592 75.0212C68.21 77.6637 66.3673 80.5954 64.9861 83.7288C61.1828 92.1956 55.6925 101.979 55.6925 101.979L52.2508 96.7218L37.7493 103.199C37.7493 103.199 46.2445 119.448 49.0572 121.768C52.1836 124.346 59.37 124.643 64.341 119.834C67.3372 116.936 75.9941 105.472 77.7988 102.602L80.459 114.605L82.9216 128.3L78.9424 137.724H137.016L134.613 128.818C134.613 128.818 136.981 105.596 137.633 101.276C139.174 91.0796 133.648 63.6757 133.648 63.6757Z" fill="#F6E30E"/>
<path d="M133.648 63.6758C133.648 63.6758 145.278 66.771 147.838 77.7345C149.389 84.3793 154.655 103.316 156.507 118.908C157.608 128.176 157.574 136.743 157.608 137.723H139.762L132.196 66.7703L133.648 63.6758Z" fill="#F6E30E"/>
<path d="M103.822 73.0916C103.811 73.1314 103.794 73.1697 103.773 73.2054L103.607 73.5249C103.463 73.8041 103.254 74.2138 103.004 74.7391C102.492 75.784 101.882 77.326 100.904 79.0488L100.854 79.1369L100.773 79.0714C99.5659 78.0965 98.256 76.924 96.9033 75.657C94.5105 73.4021 92.4106 71.3029 90.8582 69.8146L89.0147 68.0568L88.5104 67.5812C88.4487 67.5288 88.3927 67.4707 88.3433 67.4077C88.4129 67.4508 88.4777 67.5006 88.5367 67.5562L89.0659 68.0072C89.5186 68.4058 90.1678 68.989 90.9533 69.7258C92.5317 71.1922 94.6469 73.2786 97.0375 75.5297C98.3884 76.7952 99.6914 77.9696 100.884 78.9492L100.753 78.9714C101.737 77.2716 102.37 75.7354 102.911 74.6995C103.175 74.1792 103.399 73.774 103.559 73.5016C103.634 73.3778 103.697 73.2765 103.748 73.1936C103.767 73.1564 103.792 73.1221 103.822 73.0916Z" fill="black"/>
<path d="M117.623 60.874C117.619 60.9559 117.607 61.0372 117.587 61.1169C117.55 61.2927 117.507 61.5224 117.451 61.8079C117.319 62.4053 117.098 63.265 116.785 64.3144C116.155 66.4136 115.131 69.2694 113.874 72.3763C113.207 74.0211 112.549 75.5735 111.935 76.9525L111.889 77.0566L111.798 76.9806C110.14 75.5929 108.656 74.5019 107.649 73.6877C107.143 73.2839 106.748 72.9592 106.483 72.7295L106.184 72.4648C106.148 72.4363 106.115 72.4033 106.088 72.3666C106.13 72.3877 106.168 72.414 106.203 72.4447L106.52 72.6896L107.716 73.611C108.739 74.4023 110.239 75.475 111.913 76.8574L111.776 76.8869C112.379 75.5069 113.032 73.9531 113.698 72.3101C114.954 69.2066 115.996 66.3622 116.658 64.2769C116.987 63.2337 117.226 62.3824 117.38 61.7909L117.551 61.1085C117.567 61.0283 117.591 60.9498 117.623 60.874Z" fill="black"/>
<path d="M80.0022 113.07C79.9877 113.045 79.9768 113.018 79.97 112.991L79.894 112.755C79.8267 112.532 79.7349 112.228 79.6186 111.842C79.4946 111.447 79.3718 110.956 79.2258 110.385C79.073 109.817 78.923 109.166 78.7651 108.442C77.9577 104.678 77.3885 100.871 77.0605 97.0417C76.6487 92.5571 76.5577 88.4802 76.5778 85.5328C76.5902 84.0591 76.6202 82.8664 76.663 82.0432L76.7124 81.0954C76.7193 80.9962 76.7252 80.915 76.7299 80.8487C76.7297 80.8204 76.7339 80.7923 76.7424 80.7651C76.7488 80.7929 76.7512 80.8214 76.7493 80.8498C76.7493 80.916 76.7493 80.9972 76.7493 81.0964C76.7459 81.3277 76.7414 81.644 76.7358 82.0453C76.7157 82.8685 76.7062 84.0605 76.7109 85.5331C76.7252 88.4774 76.8378 92.5481 77.2489 97.0261C77.5786 100.849 78.1279 104.651 78.8945 108.417C79.0441 109.139 79.1845 109.792 79.3271 110.36C79.4632 110.93 79.5751 111.423 79.6881 111.82C79.7895 112.209 79.8697 112.516 79.9287 112.741L79.9869 112.982C79.9966 113.01 80.0018 113.04 80.0022 113.07Z" fill="black"/>
<path d="M134.613 75.8396C134.634 75.8691 134.65 75.9009 134.663 75.9343L134.792 76.2195C134.907 76.4831 135.068 76.8529 135.272 77.3233C135.373 77.5638 135.494 77.8288 135.611 78.1244L135.958 79.0957C136.083 79.4459 136.215 79.8188 136.356 80.2145L136.724 81.4912C137.813 85.0623 138.366 90.2255 138.053 95.8785C137.731 101.533 137.036 106.615 136.605 110.298C136.381 112.129 136.2 113.615 136.072 114.657C136.008 115.161 135.957 115.559 135.921 115.841L135.877 116.149C135.89 116.152 135.902 116.16 135.909 116.172C135.917 116.183 135.92 116.197 135.917 116.21C135.915 116.223 135.907 116.235 135.896 116.243C135.885 116.251 135.87 116.255 135.856 116.253C135.842 116.252 135.829 116.246 135.82 116.236C135.811 116.226 135.805 116.213 135.805 116.2C135.806 116.186 135.811 116.174 135.821 116.164C135.83 116.154 135.843 116.148 135.857 116.147L135.883 115.838C135.91 115.553 135.949 115.155 135.999 114.649C136.102 113.618 136.263 112.126 136.471 110.283C136.868 106.598 137.541 101.513 137.861 95.8698C138.174 90.2286 137.644 85.0915 136.592 81.5238C136.468 81.0765 136.351 80.6511 136.239 80.2475L135.857 79.1301C135.738 78.7811 135.628 78.456 135.526 78.1549C135.416 77.8586 135.299 77.5922 135.203 77.3497C135.013 76.8748 134.863 76.5012 134.757 76.2347C134.71 76.114 134.674 76.0179 134.645 75.9426C134.63 75.9095 134.619 75.875 134.613 75.8396Z" fill="black"/>
<path d="M55.7741 113.799C55.7218 113.799 55.6604 111.153 55.6373 107.891C55.6143 104.628 55.6373 101.981 55.6911 101.981C55.7448 101.981 55.8048 104.625 55.8278 107.889C55.8509 111.153 55.8282 113.798 55.7741 113.799Z" fill="black"/>
<path d="M108.545 129.807C108.544 129.759 108.548 129.71 108.556 129.662C108.568 129.558 108.585 129.419 108.606 129.238C108.656 128.857 108.727 128.311 108.818 127.612C108.867 127.259 108.92 126.867 108.976 126.438C109.024 126.007 109.076 125.54 109.133 125.038C109.239 124.032 109.386 122.89 109.482 121.622C109.537 120.988 109.594 120.325 109.654 119.632C109.713 118.941 109.746 118.219 109.795 117.473C109.905 115.981 109.95 114.385 110.015 112.704C110.096 109.343 110.083 105.645 109.899 101.769C109.698 97.8923 109.345 94.2091 108.932 90.8693C108.702 89.2041 108.499 87.6159 108.243 86.1405C108.119 85.4019 108.015 84.6866 107.888 84.0028L107.521 82.0379C107.302 80.7831 107.041 79.6591 106.835 78.6679L106.541 77.2879C106.441 76.8664 106.35 76.4806 106.268 76.133C106.108 75.4454 105.983 74.9081 105.896 74.5331C105.856 74.3565 105.826 74.2181 105.803 74.1168C105.791 74.0696 105.783 74.0216 105.779 73.9731C105.797 74.0181 105.812 74.0646 105.822 74.1119L105.932 74.5251C106.028 74.8984 106.164 75.4333 106.339 76.1178C106.426 76.4647 106.523 76.8487 106.628 77.2699C106.724 77.6938 106.828 78.153 106.939 78.6475C107.154 79.6376 107.423 80.7609 107.653 82.015C107.775 82.6411 107.902 83.296 108.034 83.9799C108.164 84.6633 108.272 85.379 108.4 86.1176C108.663 87.5937 108.872 89.1812 109.107 90.8495C109.53 94.1917 109.889 97.8794 110.09 101.761C110.273 105.642 110.281 109.344 110.191 112.709C110.122 114.391 110.071 115.989 109.955 117.482C109.901 118.229 109.865 118.951 109.802 119.643C109.74 120.335 109.677 120.999 109.618 121.633C109.513 122.902 109.357 124.045 109.24 125.049C109.178 125.551 109.12 126.018 109.067 126.449C109.004 126.877 108.946 127.268 108.893 127.622C108.787 128.319 108.704 128.864 108.646 129.244L108.577 129.665C108.57 129.713 108.56 129.761 108.545 129.807Z" fill="black"/>
<path d="M116.277 92.3599C116.301 92.3537 116.325 92.3498 116.35 92.3481L116.578 92.3218L117.477 92.2271L120.9 91.8802L133.098 90.6826L133.189 90.6736L133.191 90.7603C133.286 94.2642 133.392 98.2225 133.506 102.424V102.461L133.479 102.488L132.007 103.987C130.166 105.861 128.38 107.68 126.681 109.41L126.634 109.458L126.573 109.429L117.587 105.197L117.548 105.178L117.544 105.138C117.153 101.269 116.829 98.0691 116.603 95.8267C116.495 94.7228 116.411 93.8548 116.352 93.2536C116.325 92.9661 116.305 92.7425 116.29 92.5827C116.277 92.4318 116.275 92.3579 116.275 92.3579C116.275 92.3579 116.29 92.4415 116.309 92.5965C116.328 92.7596 116.355 92.9874 116.39 93.28C116.458 93.8843 116.557 94.7564 116.682 95.8659C116.927 98.0951 117.277 101.278 117.699 105.123L117.656 105.064L126.654 109.271L126.545 109.29L131.87 103.865L133.342 102.366L133.317 102.429C133.211 98.2277 133.111 94.2676 133.024 90.7648L133.117 90.8425L120.965 91.9547L117.518 92.2607L116.601 92.3381L116.363 92.3561C116.334 92.3592 116.305 92.3605 116.277 92.3599Z" fill="black"/>
<path d="M133.212 94.8038C133.005 94.8572 132.793 94.8953 132.579 94.9179C132.17 94.981 131.576 95.0598 130.841 95.1493C129.371 95.329 127.334 95.533 125.084 95.7366L119.324 96.2709L117.579 96.4443C117.367 96.4748 117.152 96.4898 116.937 96.4891C117.144 96.4352 117.356 96.3969 117.57 96.3746C117.979 96.3115 118.573 96.2327 119.308 96.1435C120.778 95.9635 122.815 95.7595 125.066 95.5559L130.825 95.0216L132.57 94.8482C132.782 94.8176 132.997 94.8028 133.212 94.8038Z" fill="black"/>
<g opacity="0.3">
<g opacity="0.3">
<path opacity="0.3" d="M136.744 108.448L137.359 115.537C138.714 109.465 140.846 102.94 140.515 96.7417C140.186 90.5839 139.569 84.6194 135.89 79.0105C137.487 83.2333 138.219 87.7067 138.047 92.1902C137.712 99.4424 136.744 108.448 136.744 108.448Z" fill="black"/>
</g>
</g>
<path d="M53.3539 95.2552C53.1572 94.8277 52.8074 94.48 52.3665 94.2737C51.8545 94.1058 51.2997 94.3407 50.8137 94.5703C46.3902 96.6592 41.9666 98.7485 37.5431 100.838C36.6724 101.25 35.7256 101.74 35.3953 102.607C34.973 103.717 35.7431 104.888 36.4756 105.843C37.6985 107.438 39.1602 109.169 41.2254 109.395L52.6353 101.971C54.0304 101.776 54.8979 100.303 54.8438 98.9668C54.7896 97.6301 54.0619 96.4121 53.3539 95.2552Z" fill="#F6E30E"/>
<path d="M54.7945 99.791C54.7989 99.7955 54.758 99.8375 54.6782 99.9124L54.3191 100.235C54.0057 100.513 53.5409 100.904 52.9576 101.378C51.7917 102.325 50.1336 103.583 48.2199 104.866C46.3062 106.15 44.4993 107.209 43.1685 107.935C42.5029 108.298 41.9591 108.582 41.5777 108.767L41.1388 108.981C41.0891 109.009 41.0353 109.031 40.979 109.044C41.0211 109.006 41.0686 108.974 41.1202 108.949L41.5429 108.706L43.1012 107.823C44.4126 107.071 46.2009 105.995 48.1113 104.717C50.0217 103.438 51.6868 102.198 52.8724 101.278C53.4451 100.828 53.9176 100.458 54.2712 100.18L54.6537 99.8833C54.6957 99.8463 54.7432 99.8152 54.7945 99.791Z" fill="black"/>
<g opacity="0.3">
<g opacity="0.3">
<path opacity="0.3" d="M117.451 61.6687C115.889 66.5907 113.701 72.1528 111.855 76.9205C110.281 75.6529 108.079 73.9776 106.505 72.71C107.861 75.2627 109.49 77.6768 111.365 79.9144C111.582 80.1731 111.877 80.4573 112.218 80.3948C112.542 80.3359 112.709 80.0011 112.825 79.7083C113.786 77.3 114.746 74.8918 115.705 72.4838C117.05 69.1118 118.351 65.1715 117.451 61.6687Z" fill="black"/>
</g>
</g>
<path d="M92.7648 8.15139C97.5058 6.85289 101.965 8.16249 106.351 10.3092C110.737 12.4559 114.271 16.0281 116.562 20.1748C118.975 24.5421 120.041 29.6334 119.168 34.4937C118.295 39.354 115.401 43.9322 111.06 46.6451C105.133 50.3502 96.9652 50.1569 90.858 46.7259C84.7508 43.2949 80.739 36.9686 79.6712 30.312C78.9357 25.7261 79.534 20.8894 81.7922 16.7743C84.0505 12.6592 88.0384 9.33715 92.7663 8.15139" fill="#263238"/>
<path d="M108.373 22.2706C107.457 20.5919 107.495 18.6041 106.996 16.7748C105.891 12.7464 102.022 9.83651 97.8089 8.67226C93.8904 7.58919 89.359 8.40375 85.0166 10.2681C82.0402 11.5475 79.3292 13.5117 77.5534 16.1139C76.388 17.8567 75.6789 19.8385 75.4851 21.8941C75.2914 23.9496 75.6186 26.0193 76.4394 27.9306L98.1582 22.5083C100.419 23.9091 102.733 25.3318 105.349 25.9674C106.109 26.1932 106.917 26.228 107.695 26.0683C108.082 25.9821 108.435 25.7922 108.711 25.5211C108.987 25.25 109.175 24.9092 109.252 24.5395C109.359 23.7246 108.771 22.9992 108.373 22.2706Z" fill="#263238"/>
<path d="M113.555 58.801L107.948 21.3952C107.7 19.626 106.856 17.8248 104.976 17.907L85.2342 16.103C79.0487 16.374 76.1454 24.071 76.6932 29.9224C77.3018 36.4229 78.3151 44.3371 79.8928 49.0249C83.0645 58.451 91.0676 58.5498 91.0676 58.5498C91.0646 58.5151 91.5543 60.4232 92.1628 63.927L104.962 72.0015L113.555 58.801Z" fill="#FFBF9D"/>
<path d="M81.4584 37.0345C81.5071 37.3579 81.687 37.6505 81.9597 37.85C82.2325 38.0494 82.5765 38.14 82.9186 38.1023C83.0868 38.0908 83.2509 38.0474 83.4011 37.9748C83.5514 37.9022 83.6848 37.8018 83.7935 37.6795C83.9023 37.5573 83.9841 37.4156 84.0343 37.2629C84.0844 37.1102 84.1019 36.9495 84.0856 36.7903C84.0368 36.467 83.857 36.1745 83.5845 35.975C83.3119 35.7754 82.9681 35.6846 82.6261 35.7218C82.4578 35.7332 82.2936 35.7766 82.1432 35.8492C81.9928 35.9218 81.8592 36.0222 81.7504 36.1446C81.6416 36.2669 81.5597 36.4087 81.5095 36.5615C81.4594 36.7144 81.442 36.8752 81.4584 37.0345Z" fill="#263238"/>
<path d="M79.154 33.7582C79.3416 33.897 80.2193 33.0588 81.6254 32.8583C83.0268 32.6394 84.1685 33.1761 84.295 32.9908C84.3587 32.9076 84.1462 32.6401 83.6477 32.3948C82.9752 32.0829 82.2175 31.9761 81.4784 32.0889C80.7472 32.1923 80.0697 32.5138 79.5438 33.0068C79.162 33.3842 79.0626 33.6975 79.154 33.7582Z" fill="#263238"/>
<path d="M94.4506 35.0314C94.4992 35.3548 94.6791 35.6474 94.9519 35.8469C95.2247 36.0463 95.5688 36.1367 95.9109 36.0989C96.079 36.0874 96.243 36.044 96.3933 35.9715C96.5435 35.8989 96.6769 35.7985 96.7856 35.6763C96.8943 35.554 96.9761 35.4124 97.0263 35.2597C97.0764 35.107 97.0938 34.9464 97.0774 34.7872C97.0288 34.4638 96.8491 34.1712 96.5765 33.9717C96.3039 33.7721 95.96 33.6813 95.6179 33.7187C95.4496 33.7301 95.2854 33.7735 95.1351 33.8461C94.9847 33.9187 94.8512 34.0191 94.7424 34.1415C94.6336 34.2638 94.5517 34.4056 94.5016 34.5584C94.4515 34.7113 94.4342 34.8721 94.4506 35.0314Z" fill="#263238"/>
<path d="M92.5193 31.9928C92.7077 32.1316 93.5864 31.2931 94.9915 31.0932C96.3925 30.874 97.5346 31.4107 97.6611 31.2254C97.724 31.1422 97.5148 30.8743 97.0131 30.6294C96.3408 30.3172 95.583 30.2103 94.8441 30.3234C94.1129 30.4268 93.4353 30.7483 92.9095 31.2414C92.5274 31.6185 92.4283 31.9321 92.5193 31.9928Z" fill="#263238"/>
<path d="M89.4989 42.6323C89.4934 42.5556 88.5971 42.5389 87.1537 42.5722C86.788 42.5889 86.4387 42.5722 86.3407 42.3471C86.2164 42.1129 86.3074 41.7244 86.4179 41.3032C86.6227 40.4304 86.8373 39.515 87.0619 38.557C87.9396 34.6529 88.5203 31.4633 88.3543 31.4314C88.1882 31.3995 87.3402 34.5373 86.4603 38.4415C86.2521 39.4032 86.0532 40.3216 85.8635 41.1967C85.7903 41.6033 85.6269 42.0761 85.8924 42.5597C85.9638 42.6723 86.0612 42.7679 86.1774 42.8393C86.2935 42.9108 86.4253 42.9562 86.5627 42.9722C86.7695 42.9945 86.9784 42.9919 87.1844 42.9643C88.6212 42.8307 89.5059 42.7086 89.4989 42.6323Z" fill="#263238"/>
<path d="M91.0674 58.5491C95.8737 57.924 100.403 56.0456 104.15 53.123C104.15 53.123 100.958 60.7014 91.707 61.4646L91.0674 58.5491Z" fill="#FF9A6C"/>
<path d="M90.6108 45.7594C90.8268 45.4013 91.1354 45.1012 91.5074 44.8875C91.8794 44.6738 92.3027 44.5535 92.7373 44.5379C93.0516 44.5196 93.3666 44.5616 93.6634 44.6615C93.9602 44.7614 94.2327 44.9171 94.4645 45.1193C94.6881 45.3143 94.8432 45.5697 94.9086 45.8511C94.974 46.1325 94.9466 46.4261 94.8302 46.6922C94.5325 47.2532 93.7587 47.4846 93.0591 47.401C92.3594 47.2742 91.6932 47.017 91.099 46.6443C90.9233 46.5608 90.7656 46.4467 90.6342 46.3082C90.5708 46.242 90.5297 46.1595 90.5159 46.0711C90.5021 45.9827 90.5163 45.8925 90.5566 45.8117" fill="#FF9A6C"/>
<path d="M93.7836 42.9552C93.5532 42.9757 93.7836 44.4234 92.6426 45.6397C91.5016 46.856 89.8526 46.9319 89.8735 47.1359C89.8669 47.2299 90.2809 47.3649 90.9706 47.2827C91.8662 47.1654 92.6894 46.7521 93.2954 46.1156C93.8767 45.504 94.1847 44.7021 94.1544 43.8791C94.1145 43.2657 93.8867 42.932 93.7836 42.9552Z" fill="#263238"/>
<path d="M92.1253 28.0094C92.322 28.3518 93.6978 27.9768 95.3764 27.9265C97.0553 27.8443 98.4581 28.1096 98.6249 27.753C98.698 27.5834 98.4106 27.276 97.8163 27.003C97.0295 26.6767 96.1747 26.5247 95.3168 26.5586C94.4588 26.5924 93.6202 26.8112 92.8647 27.1983C92.296 27.5171 92.0371 27.846 92.1253 28.0094Z" fill="#263238"/>
<path d="M78.6233 27.8693C78.9192 28.1361 79.8367 27.6816 81.0004 27.4981C82.1553 27.2764 83.1833 27.3902 83.3592 27.0408C83.4341 26.8726 83.2297 26.5919 82.7528 26.3675C82.1189 26.1077 81.4179 26.0324 80.7388 26.1513C80.0597 26.2701 79.4331 26.5777 78.9386 27.0349C78.5754 27.4051 78.4906 27.7371 78.6233 27.8693Z" fill="#263238"/>
<path d="M111.57 19.0649C108.907 13.7103 99.2742 7.0592 93.1604 8.24877L84.0935 15.1035C84.6394 16.6575 85.6171 18.0431 86.9237 19.114C88.2303 20.185 89.8172 20.9018 91.5173 21.1887C93.3308 21.4718 95.4486 21.3445 96.6847 22.635C97.9467 23.9533 97.6256 26.1444 98.8211 27.5168C100.478 29.4189 104.194 28.8482 105.534 30.963C106.119 31.8872 106.051 33.0882 106.653 34.002C107.458 35.2197 111.146 36.4252 112.516 35.8143C113.886 35.2034 113.565 32.8915 113.862 31.6218C114.371 29.4515 113.891 28.4208 113.465 27.2986C112.458 24.6405 112.84 21.6199 111.57 19.0649Z" fill="#263238"/>
<path d="M108.455 37.4921C108.342 36.7726 108.945 34.9496 109.676 34.73C111.628 34.1447 115.258 33.7749 116.067 38.5884C117.173 45.1683 109.981 44.8644 109.937 44.6774C109.902 44.5314 108.849 39.9771 108.455 37.4921Z" fill="#FFBF9D"/>
<path d="M111.637 41.8642C111.664 41.8385 111.771 41.9259 111.99 41.9839C112.297 42.0568 112.622 42.0142 112.896 41.8649C113.586 41.4989 114.018 40.3038 113.852 39.1111C113.775 38.5442 113.565 38.0008 113.238 37.5208C113.139 37.3251 112.99 37.1553 112.806 37.026C112.622 36.8967 112.408 36.8119 112.181 36.7788C112.037 36.7646 111.891 36.7991 111.771 36.8761C111.65 36.9531 111.562 37.0678 111.521 37.2003C111.459 37.3987 111.525 37.5232 111.49 37.5399C111.473 37.5597 111.323 37.4525 111.333 37.1725C111.344 37.0035 111.416 36.8433 111.537 36.7184C111.705 36.5528 111.935 36.4564 112.177 36.4499C112.718 36.4044 113.277 36.7968 113.611 37.2794C114.001 37.8042 114.251 38.4115 114.338 39.0486C114.516 40.3815 114.008 41.7299 113.052 42.157C112.875 42.2362 112.681 42.2767 112.484 42.2754C112.288 42.2741 112.095 42.2312 111.919 42.1497C111.676 42.0213 111.615 41.8794 111.637 41.8642Z" fill="#FF9A6C"/>
<path d="M85.8807 12.8857C85.5604 15.6475 81.6576 19.5639 80.0141 21.8639C76.8779 26.252 76.3242 27.6574 77.4264 36.5953C75.3518 33.6903 73.6842 30.8039 73.3993 27.3056C73.1144 23.8073 74.051 20.1706 76.3055 17.3887C78.5601 14.6068 82.1835 12.7765 85.8807 12.8857Z" fill="#263238"/>
<path d="M102.449 3.47592C103.923 1.94429 106.026 0.948293 108.219 0.428614C111.348 -0.31205 114.779 -0.111878 117.627 1.1783C120.475 2.46848 122.673 4.88196 123.258 7.66318C123.542 9.08876 123.41 10.5608 122.876 11.9203C122.342 13.2798 121.427 14.4751 120.229 15.3772C121.856 16.8738 123.84 17.976 126.012 18.5903C125.419 19.4326 124.324 19.9266 123.221 20.1036C122.111 20.2348 120.988 20.2276 119.88 20.0821C120.636 21.1545 121.768 21.938 123.075 22.2933C121.275 22.6885 119.398 22.6311 117.629 22.1268C115.9 21.6281 114.245 20.9228 112.704 20.0279C107.354 17.0792 104.403 14.5005 100.789 9.9504C100.304 8.01253 100.975 5.00789 102.449 3.47592Z" fill="#263238"/>
<path d="M113.981 17.3797C110.056 11.9401 105.058 9.02638 100.532 8.12231L113.981 17.3797Z" fill="#263238"/>
<path d="M100.532 8.12012C100.74 8.19754 100.955 8.25914 101.173 8.30433C101.586 8.41534 102.182 8.58603 102.898 8.84448C104.764 9.52827 106.518 10.4578 108.11 11.6056C109.7 12.7565 111.149 14.0728 112.431 15.5299C112.915 16.0957 113.308 16.554 113.559 16.8828C113.686 17.059 113.827 17.225 113.982 17.3793C113.878 17.1913 113.759 17.0114 113.625 16.8416C113.392 16.4946 113.016 16.0235 112.544 15.4435C111.287 13.948 109.839 12.6057 108.235 11.447C106.63 10.2868 104.848 9.36528 102.95 8.71404C102.375 8.51929 101.789 8.3571 101.195 8.22836C100.977 8.17505 100.756 8.13885 100.532 8.12012Z" fill="#455A64"/>
<path d="M118.665 22.0171C118.634 22.0219 118.604 22.031 118.576 22.0441L118.322 22.1412C118.103 22.2325 117.77 22.3494 117.341 22.4934C116.121 22.879 114.856 23.1236 113.574 23.2219C111.672 23.3587 109.76 23.2446 107.891 22.883C105.604 22.4282 103.369 21.7678 101.214 20.9107C98.9099 20.0181 96.7394 19.103 94.8045 18.2031C93.0864 17.4153 91.4328 16.5068 89.8576 15.485C88.7982 14.7925 87.7979 14.0221 86.8658 13.1808C86.5312 12.8869 86.2899 12.641 86.1216 12.4783L85.9282 12.2951C85.9068 12.2725 85.8822 12.2529 85.855 12.2368C85.8521 12.2392 85.8711 12.2635 85.9103 12.3083L86.0891 12.5053C86.2478 12.6767 86.4804 12.932 86.8073 13.2356C87.7216 14.1023 88.7126 14.8929 89.7695 15.5988C91.3418 16.6419 92.9975 17.5671 94.7215 18.3658C96.6597 19.2778 98.828 20.1978 101.138 21.0932C103.305 21.9552 105.555 22.6144 107.857 23.0613C109.743 23.4178 111.673 23.5187 113.589 23.361C114.88 23.2497 116.15 22.9824 117.369 22.5655C117.797 22.4108 118.125 22.2807 118.34 22.1773L118.586 22.0625C118.614 22.0512 118.641 22.0359 118.665 22.0171Z" fill="#455A64"/>
<path d="M97.9427 54.6863L97.2756 53.451C97.3221 53.4288 101.914 51.1912 103.68 49.7837C107.842 46.4669 111.669 41.1688 111.708 41.1157L112.915 41.897C112.754 42.1204 108.938 47.4046 104.619 50.8474C102.728 52.3547 98.1369 54.5916 97.9427 54.6863Z" fill="#455A64"/>
<path d="M101.362 50.854C101.362 50.854 95.0803 53.5089 95.0803 54.0987C95.0803 54.6885 96.0754 55.868 96.8214 55.8097C97.5675 55.7514 99.7251 54.5996 100.098 54.1278C100.471 53.656 101.173 52.4432 101.919 51.8531L101.362 50.854Z" fill="#263238"/>
<path d="M112.87 33.0001L111.407 32.9345C111.463 28.9245 110.736 24.9392 109.263 21.1804C106.09 13.4244 99.9876 9.26138 91.1314 8.80207C90.325 8.7694 89.5172 8.82164 88.7229 8.95783L89.3632 8.38542C89.6735 8.10764 90.034 7.88518 90.4274 7.72871C90.9669 7.51515 91.553 7.42908 92.1353 7.47789C103.32 8.39652 108.372 15.1402 110.644 20.7186C112.194 24.6432 112.949 28.8099 112.87 33.0001Z" fill="#455A64"/>
<path d="M112.139 45.6061C114.699 45.6061 116.774 42.7768 116.774 39.2867C116.774 35.7966 114.699 32.9673 112.139 32.9673C109.58 32.9673 107.504 35.7966 107.504 39.2867C107.504 42.7768 109.58 45.6061 112.139 45.6061Z" fill="#455A64"/>
<path d="M116.773 39.2867C116.765 39.2582 116.761 39.2288 116.761 39.1992C116.756 39.1298 116.749 39.0466 116.742 38.9429C116.735 38.7174 116.695 38.3878 116.632 37.9635C116.445 36.7684 115.954 35.6344 115.202 34.6591C114.95 34.3434 114.657 34.0581 114.332 33.8096C113.978 33.5442 113.579 33.3391 113.152 33.2031C112.694 33.0626 112.21 33.0187 111.733 33.0748C111.228 33.1463 110.746 33.3174 110.316 33.5771C109.404 34.1747 108.699 35.015 108.29 35.992C107.834 37.0364 107.599 38.1559 107.599 39.2865C107.599 40.4171 107.834 41.5366 108.29 42.581C108.699 43.5582 109.404 44.3987 110.316 44.9965C110.746 45.2562 111.229 45.4273 111.733 45.4989C112.21 45.555 112.695 45.511 113.152 45.3702C113.58 45.2344 113.979 45.0292 114.332 44.7637C114.658 44.5153 114.95 44.23 115.203 43.9142C115.955 42.939 116.445 41.8049 116.632 40.6098C116.695 40.1865 116.735 39.8559 116.742 39.6304C116.75 39.5264 116.756 39.4424 116.761 39.3741C116.75 39.3718 116.74 39.3656 116.733 39.3568C116.726 39.3479 116.723 39.3369 116.724 39.326C116.725 39.3151 116.731 39.305 116.739 39.2976C116.748 39.2903 116.759 39.2862 116.771 39.2862C116.782 39.2862 116.793 39.2903 116.802 39.2976C116.811 39.305 116.816 39.3151 116.817 39.326C116.818 39.3369 116.815 39.3479 116.809 39.3568C116.802 39.3656 116.792 39.3718 116.78 39.3741V39.6315C116.777 39.9621 116.753 40.2921 116.707 40.6198C116.546 41.8365 116.066 42.9956 115.311 43.9915C115.055 44.3186 114.758 44.6145 114.425 44.8727C114.06 45.1518 113.646 45.3682 113.203 45.5124C112.723 45.6635 112.215 45.7125 111.713 45.656C111.184 45.5839 110.676 45.4066 110.223 45.1356C109.278 44.5233 108.546 43.6579 108.12 42.6496C107.651 41.5835 107.41 40.4398 107.41 39.2846C107.41 38.1293 107.651 36.9856 108.12 35.9195C108.546 34.9116 109.278 34.0466 110.223 33.4345C110.675 33.1638 111.183 32.9865 111.713 32.9142C112.214 32.8579 112.723 32.9071 113.202 33.0581C113.646 33.2022 114.059 33.4186 114.425 33.6975C114.757 33.9557 115.054 34.2516 115.311 34.5787C116.065 35.5745 116.545 36.7336 116.707 37.9503C116.752 38.278 116.777 38.6081 116.78 38.9387V39.1965C116.782 39.2266 116.78 39.257 116.773 39.2867Z" fill="#263238"/>
<path d="M112.853 42.9543C114.482 42.9543 115.803 41.1533 115.803 38.9315C115.803 36.7098 114.482 34.9087 112.853 34.9087C111.223 34.9087 109.902 36.7098 109.902 38.9315C109.902 41.1533 111.223 42.9543 112.853 42.9543Z" fill="#455A64"/>
<path d="M115.803 38.9314C115.782 38.9314 115.789 38.6278 115.7 38.0912C115.576 37.3343 115.262 36.6168 114.784 35.9996C114.459 35.578 114.008 35.2591 113.489 35.0848C113.201 34.9972 112.898 34.9702 112.598 35.0057C112.282 35.0512 111.979 35.1591 111.709 35.3224C111.135 35.7007 110.691 36.2318 110.434 36.8489C109.852 38.1835 109.852 39.6827 110.434 41.0174C110.691 41.6344 111.135 42.1655 111.71 42.5438C111.98 42.7071 112.282 42.815 112.599 42.8606C112.898 42.8964 113.202 42.8694 113.489 42.7815C114.008 42.6073 114.46 42.2883 114.784 41.8663C115.262 41.2492 115.576 40.5319 115.7 39.7751C115.789 39.2384 115.782 38.9345 115.803 38.9349C115.815 39.0076 115.819 39.0813 115.814 39.1548C115.815 39.3657 115.801 39.5763 115.774 39.7855C115.675 40.5639 115.372 41.3063 114.891 41.944C114.556 42.3937 114.084 42.7356 113.538 42.924C113.229 43.022 112.901 43.0542 112.577 43.0184C112.235 42.9725 111.908 42.8587 111.616 42.6847C111.007 42.2921 110.536 41.7365 110.262 41.0889C109.962 40.4064 109.807 39.6739 109.807 38.9342C109.807 38.1944 109.962 37.462 110.262 36.7795C110.536 36.1318 111.007 35.5763 111.616 35.1837C111.908 35.0094 112.235 34.8957 112.577 34.8499C112.901 34.814 113.229 34.8462 113.538 34.9443C114.084 35.1325 114.556 35.4743 114.891 35.924C115.372 36.5616 115.676 37.304 115.774 38.0825C115.802 38.2917 115.815 38.5023 115.815 38.7132C115.819 38.7861 115.815 38.8593 115.803 38.9314Z" fill="#263238"/>
<path d="M113.056 41.8255C114.229 41.8255 115.179 40.5299 115.179 38.9316C115.179 37.3333 114.229 36.0376 113.056 36.0376C111.884 36.0376 110.934 37.3333 110.934 38.9316C110.934 40.5299 111.884 41.8255 113.056 41.8255Z" fill="#455A64"/>
<path d="M115.179 38.9312C115.16 38.9312 115.161 38.713 115.094 38.3283C115.002 37.7868 114.774 37.2742 114.43 36.833C114.198 36.5337 113.876 36.3075 113.507 36.184C113.297 36.1212 113.075 36.104 112.857 36.1336C112.639 36.1632 112.43 36.2389 112.247 36.355C111.453 36.8525 111.031 37.8929 111.029 38.9308C111.027 39.9688 111.453 41.0103 112.247 41.5077C112.43 41.6239 112.639 41.6995 112.857 41.729C113.075 41.7586 113.297 41.7413 113.507 41.6784C113.877 41.5552 114.198 41.329 114.43 41.0293C114.774 40.5884 115.002 40.0758 115.094 39.5345C115.161 39.1497 115.16 38.9308 115.179 38.9312C115.191 38.9831 115.196 39.0365 115.192 39.0897C115.195 39.2417 115.187 39.3937 115.168 39.5445C115.1 40.1071 114.884 40.6443 114.538 41.1057C114.295 41.433 113.952 41.6821 113.556 41.8196C113.331 41.8913 113.092 41.915 112.855 41.889C112.606 41.8558 112.367 41.7731 112.153 41.6462C111.711 41.3618 111.368 40.9589 111.169 40.4888C110.951 39.9949 110.839 39.4647 110.839 38.9291C110.839 38.3936 110.951 37.8634 111.169 37.3694C111.368 36.8994 111.711 36.4964 112.153 36.2121C112.366 36.0852 112.605 36.0024 112.855 35.9692C113.091 35.9432 113.33 35.9669 113.556 36.0386C113.952 36.1762 114.294 36.4253 114.537 36.7526C114.883 37.2139 115.1 37.7511 115.167 38.3137C115.186 38.4647 115.195 38.6168 115.192 38.7688C115.196 38.8233 115.192 38.878 115.179 38.9312Z" fill="#263238"/>
</svg>
