<svg width="112" height="159" viewBox="0 0 112 159" fill="none" xmlns="http://www.w3.org/2000/svg">
<path d="M73.0273 21.221C72.6588 21.2702 72.4497 21.2923 72.4497 21.2923C72.4497 21.2923 75.8089 33.2378 74.9736 36.6437C74.5455 38.389 71.8936 39.9451 68.8019 39.736C69.6791 39.5801 72.017 38.973 72.5243 36.8266C73.1595 34.1754 70.7792 21.0099 70.7792 21.0099L72.4122 19.6359L73.0273 21.221Z" fill="#B09123"/>
<path d="M84.428 77.0249C84.5339 78.1008 89.6933 87.0258 93.0596 97.2713L98.0804 71.5721H107.975C107.975 71.5721 106.435 97.4913 104.723 105.479C102.645 115.203 96.0101 118.047 90.5003 115.879C84.9985 113.703 79.6272 102.488 79.6272 102.488L74.8835 91.0849L84.428 77.0249Z" fill="#FFBE9D"/>
<path d="M96.5808 45.0985C96.5808 45.0985 94.0051 43.9085 94.6002 46.6553C95.1952 49.4021 97.4937 57.5446 97.4937 57.5446L98.2598 76.2587L107.323 72.8109C108.302 72.436 108.97 71.5231 109.019 70.4798L109.312 64.8395C109.312 64.8395 111.994 60.0062 111.448 59.1748C110.902 58.3434 110.364 58.5227 110.364 58.5227C110.364 58.5227 110.413 56.9741 109.793 55.6618C109.174 54.3496 107.967 54.7652 107.266 55.2543C106.565 55.7433 105.922 57.4957 105.922 57.4957L104.984 56.3383C104.984 56.3383 107.193 44.5931 107.014 44.3649C106.834 44.1449 105.579 42.637 104.715 44.748C103.851 46.859 102.474 55.1157 101.871 55.4744C101.267 55.833 100.143 55.7515 100.037 54.7897C99.9307 53.8279 96.5889 45.0985 96.5889 45.0985H96.5808Z" fill="#FFBE9D"/>
<path d="M110.184 58.5309C110.233 58.5309 110.298 59.3133 110.07 60.5523C109.948 61.1717 109.752 61.889 109.418 62.6633C109.239 63.0382 109.002 63.4865 108.497 63.7229C108.244 63.8288 107.934 63.837 107.674 63.7229C107.413 63.6169 107.201 63.4295 107.054 63.2012C106.736 62.7366 106.72 62.2068 106.728 61.7504C106.744 61.3103 106.769 60.8783 106.785 60.4626C106.826 59.6883 106.867 58.9547 106.907 58.2864C106.989 57.0474 107.07 56.2894 107.128 56.2894C107.185 56.2894 107.209 57.0556 107.209 58.2945C107.201 58.9629 107.193 59.6883 107.176 60.4707C107.168 60.8864 107.16 61.3103 107.144 61.7504C107.144 62.1742 107.176 62.6225 107.405 62.9567C107.633 63.299 108.024 63.4702 108.342 63.3317C108.668 63.2012 108.904 62.8345 109.067 62.4921C109.402 61.7667 109.63 61.0658 109.776 60.4789C110.078 59.2889 110.119 58.5227 110.184 58.5309Z" fill="#6F4439"/>
<path d="M109.385 64.538C109.385 64.6602 108.912 64.6602 108.66 64.2119C108.407 63.7636 108.66 63.3561 108.766 63.4295C108.872 63.4784 108.872 63.7473 109.035 64.0082C109.173 64.2771 109.401 64.4239 109.385 64.538Z" fill="#6F4439"/>
<path d="M98.4959 67.7331C99.3191 65.353 101.072 63.3969 102.987 61.7586C104.902 60.1203 107.03 58.7265 108.904 57.0475C109.353 57.5039 109.483 58.2049 109.385 58.8406C109.287 59.4764 108.986 60.0551 108.66 60.6093C107.763 62.158 106.687 63.6006 105.481 64.9129C107.038 66.9424 107.478 69.7789 106.606 72.1833" fill="#FFBE9D"/>
<path d="M106.622 72.1833C106.565 72.167 106.875 71.4498 106.94 70.1212C106.997 68.8252 106.736 66.8283 105.351 65.0189L105.261 64.8966L105.359 64.7825C106.158 63.8941 106.981 62.8671 107.739 61.7097C108.114 61.131 108.497 60.5115 108.823 59.8758C109.133 59.24 109.337 58.5227 109.133 57.8462C109.059 57.5854 108.929 57.3572 108.758 57.186H109.051C107.454 58.6124 105.807 59.7535 104.381 60.862C102.946 61.9623 101.74 63.0464 100.852 64.0652C99.9551 65.0759 99.3764 66.0051 99.0259 66.6735C98.6754 67.3418 98.5287 67.7331 98.4961 67.7249C98.4798 67.7249 98.5043 67.6189 98.5613 67.4233C98.6184 67.2277 98.7162 66.9506 98.8792 66.6001C99.1889 65.8991 99.7432 64.9292 100.632 63.8696C101.512 62.81 102.718 61.6852 104.145 60.5523C105.563 59.4112 107.209 58.2619 108.774 56.8681L108.929 56.7377L109.068 56.8844C109.288 57.1127 109.459 57.4061 109.548 57.724C109.793 58.5472 109.54 59.3867 109.206 60.0551C108.864 60.7316 108.473 61.3429 108.09 61.9297C107.299 63.1034 106.459 64.1386 105.636 65.0189V64.7906C107.071 66.7142 107.274 68.8008 107.152 70.1212C107.095 70.7977 106.957 71.3194 106.842 71.6617C106.72 72.004 106.639 72.1752 106.622 72.167V72.1833Z" fill="#6F4439"/>
<path d="M4.31451 76.3729C4.31451 76.3729 12.7179 123.003 14.4948 129.695C16.2716 136.378 19.1325 143.062 28.0005 141.701L35.5073 139.655C35.5073 139.655 39.33 112.782 39.599 112.236C39.868 111.69 36.8685 87.5393 36.8685 87.5393L30.3968 71.4825V65.3694L4.31451 76.3729Z" fill="#263238"/>
<path d="M23.02 96.1546L25.3919 98.1923L30.2823 117.648L25.1962 148.71C25.1962 148.71 31.0077 154.367 37.5446 155.622C44.0896 156.877 57.6606 161.303 68.1913 156.445C81.0124 150.528 82.5121 144.032 85.4219 141.88L81.1835 137.079C81.1835 137.079 79.3741 94.7771 79.1948 86.1292C79.0154 77.4813 67.2866 59.9491 67.2866 59.9491L46.0458 58.8488L29.7688 64.4646L23.0118 96.1465L23.02 96.1546Z" fill="#FCE80D"/>
<path d="M29.777 64.4727C29.777 64.4727 22.311 67.3255 20.2733 71.2052C18.2356 75.0768 4.1593 93.8398 4.1593 93.8398L23.7373 105.259C23.5825 105.031 33.4041 94.6712 35.1565 87.7186C36.9496 80.6193 33.7301 69.3632 32.915 67.5293C32.1 65.6954 29.777 64.4727 29.777 64.4727Z" fill="#FCE80D"/>
<path d="M35.3605 62.5411C35.3605 62.5411 44.9295 70.3902 46.8368 75.9816C48.744 81.573 57.9788 108.519 57.9788 108.519C57.9788 108.519 46.9346 124.568 40.6504 126.443C34.3662 128.317 25.4085 130.665 25.4085 130.665L26.7615 137.405C26.7615 137.405 50.4394 129.442 56.316 121.935C62.2009 114.429 62.046 108.878 62.046 108.878C62.046 108.878 54.3517 76.87 51.6212 70.594C48.8907 64.3179 42.851 59.9491 42.851 59.9491C39.9249 59.9247 37.3738 60.5115 35.3605 62.5411Z" fill="#263238"/>
<path d="M35.3605 90.0008C35.4094 90.0334 34.8226 90.9381 33.8037 92.3482C32.7849 93.7583 31.3341 95.6737 29.7121 97.7603C28.1145 99.798 26.6719 101.64 25.5226 103.099C24.4467 104.46 23.7784 105.3 23.7295 105.267C23.6806 105.234 24.2674 104.33 25.2862 102.92C26.3051 101.51 27.7559 99.5942 29.3779 97.5076C30.9754 95.4699 32.4181 93.6279 33.5674 92.1689C34.6433 90.8077 35.3116 89.9682 35.3605 90.0008Z" fill="#263238"/>
<path d="M68.1345 61.0739C68.1345 61.0739 77.1248 62.3536 81.518 69.1105C85.5852 75.3621 91.8368 92.12 91.8368 92.12L79.2521 99.1378L70.8813 73.1614L68.1345 61.0821V61.0739Z" fill="#FCE80D"/>
<path d="M66.537 59.7046C66.537 59.7046 70.8732 57.3979 74.8426 68.8252C76.8558 74.6286 82.5369 86.2922 82.5206 94.9646C82.5124 99.4394 80.3688 117.477 80.3688 117.477L79.57 98.6813C79.244 93.1062 73.3999 72.2975 66.5451 59.6964L66.537 59.7046Z" fill="#263238"/>
<path d="M36.4277 74.6693C36.3625 74.6938 36.1016 73.9928 35.5066 72.974C34.9198 71.947 33.9336 70.6266 32.5561 69.461C31.1786 68.3036 29.7033 67.5537 28.5948 67.1462C27.4863 66.7305 26.7528 66.6001 26.7691 66.5267C26.7691 66.486 27.5271 66.5104 28.6926 66.8609C29.85 67.2033 31.3987 67.9368 32.8251 69.135C34.2433 70.3413 35.2295 71.7432 35.7675 72.8272C36.3054 73.9113 36.4684 74.653 36.4277 74.6693Z" fill="#263238"/>
<path d="M78.7222 78.7528C78.7222 78.7528 78.82 79.1033 78.9341 79.7635C79.0319 80.4156 79.1542 81.3692 79.2683 82.5429C79.4965 84.8985 79.6677 88.1506 79.7573 91.7532C79.847 95.3558 79.8389 98.6161 79.8144 100.972C79.7981 102.154 79.7818 103.107 79.7492 103.767C79.7248 104.428 79.7003 104.794 79.6677 104.794C79.6351 104.794 79.6106 104.428 79.5862 103.767L79.5128 100.972C79.4639 98.5265 79.3987 95.3151 79.3335 91.7614C79.2439 88.1669 79.1216 84.9148 78.9667 82.5592C78.8852 81.4507 78.82 80.5215 78.7711 79.7798C78.7141 79.1196 78.6978 78.761 78.7304 78.7528H78.7222Z" fill="#263238"/>
<path d="M54.9382 149.713C54.9382 149.713 55.3784 149.737 56.1608 149.827C56.9433 149.917 58.0844 150.006 59.4863 149.99C62.282 149.974 66.2107 149.395 70.066 147.537C71.9977 146.608 73.7582 145.548 75.2417 144.448C76.7251 143.339 77.9477 142.182 78.8524 141.114C80.6782 138.978 81.3792 137.348 81.4688 137.397C81.4851 137.397 81.4444 137.503 81.3629 137.699C81.2732 137.886 81.1591 138.172 80.9635 138.522C80.5967 139.223 79.9854 140.209 79.0888 141.318C78.2004 142.426 76.9778 143.624 75.4862 144.774C73.9865 145.907 72.2096 146.991 70.2534 147.928C66.3166 149.827 62.3146 150.365 59.4863 150.3C58.0681 150.275 56.9189 150.137 56.1364 150.006C55.3539 149.868 54.9301 149.754 54.9382 149.729V149.713Z" fill="#263238"/>
<g opacity="0.3">
<path opacity="0.3" d="M30.0302 118.83L28.3593 128.937C31.9782 129.923 36.347 130.233 40.0882 130.494C43.8375 130.754 47.7254 130.225 50.9776 128.358C54.2297 126.483 56.7401 123.117 56.9683 119.376C47.8966 125.391 38.7596 125.35 30.0384 118.838L30.0302 118.83Z" fill="black"/>
</g>
<path d="M60.2118 104.917C60.008 104.917 53.3652 105.748 52.2567 106.302C51.1482 106.857 50.6673 108.307 50.3168 108.862C49.9745 109.416 46.9994 115.504 46.9994 115.504L45.084 116.531L44.4564 125.53C44.4564 125.53 49.5669 126.834 51.4986 125.53C53.4385 124.226 55.4599 121.112 55.4599 121.112C55.4599 121.112 59.3804 120.696 59.8613 119.938C60.3422 119.18 60.2036 117.933 60.2036 117.933C60.2036 117.933 62.1435 117.73 62.3473 116.963C62.551 116.205 62.0049 114.958 62.0049 114.958C62.0049 114.958 63.1134 114.266 63.1786 113.019C63.2438 111.771 62.5592 110.598 62.5592 110.598C62.5592 110.598 62.0783 106.791 61.5892 105.821C61.1083 104.851 60.2036 104.925 60.2036 104.925L60.2118 104.917Z" fill="#FFBE9D"/>
<path d="M55.639 109.546C55.639 109.44 57.204 109.343 59.0868 109.734C60.9696 110.117 62.3715 110.826 62.3308 110.924C62.2819 111.038 60.8392 110.524 59.0053 110.149C57.1714 109.766 55.639 109.669 55.6472 109.546H55.639Z" fill="#6F4439"/>
<path d="M57.1227 112.815C57.1227 112.709 58.4187 112.684 59.8858 113.271C61.3529 113.85 62.2821 114.763 62.2088 114.844C62.1273 114.942 61.1329 114.217 59.7309 113.671C58.3372 113.108 57.1146 112.945 57.1227 112.815Z" fill="#6F4439"/>
<path d="M56.2834 116.662C56.2997 116.548 57.3104 116.605 58.4597 117.078C59.6089 117.542 60.3751 118.211 60.3017 118.3C60.2284 118.398 59.397 117.909 58.2967 117.469C57.2045 117.02 56.259 116.784 56.2834 116.662Z" fill="#6F4439"/>
<path d="M47.0563 121.332C46.9422 121.332 46.7954 120.061 46.7384 118.48C46.6813 116.898 46.7221 115.619 46.8444 115.61C46.9585 115.61 47.1052 116.882 47.1622 118.463C47.2193 120.044 47.1785 121.324 47.0563 121.332Z" fill="#6F4439"/>
<path d="M60.448 108.275C60.5132 108.364 59.9834 108.878 59.1764 109.294C58.3777 109.709 57.6523 109.856 57.6197 109.75C57.5789 109.636 58.2147 109.318 58.9808 108.919C59.747 108.519 60.3746 108.185 60.448 108.275Z" fill="#6F4439"/>
<path d="M60.0898 110.109C60.0002 110.182 59.7312 110.003 59.5845 109.66C59.4296 109.318 59.4867 108.992 59.6008 108.984C59.7149 108.968 59.8453 109.204 59.9757 109.489C60.098 109.775 60.1876 110.035 60.098 110.109H60.0898Z" fill="#6F4439"/>
<path d="M18.0969 104.379L19.2217 102.61L6.11535 94.9647C6.11535 94.9647 -0.951323 102.431 0.108271 108.951C0.621767 112.13 13.9971 124.886 44.4482 125.522L45.0758 116.523C45.0758 116.523 18.5615 104.843 18.0888 104.371L18.0969 104.379Z" fill="#FFBE9D"/>
<path d="M8.95148 107.541C8.95148 107.541 9.28566 107.052 10.0274 106.473C10.7691 105.895 11.902 105.218 13.2795 104.77C14.657 104.322 15.9692 104.199 16.9066 104.232C17.8521 104.265 18.4145 104.411 18.4063 104.452C18.4063 104.591 16.0752 104.281 13.4099 105.169C10.7283 106.025 9.03298 107.647 8.95148 107.541Z" fill="#6F4439"/>
<path d="M74.1823 44.1367C73.9541 39.8494 73.2939 32.8317 72.1283 24.8929C70.8731 16.359 63.3093 10.2216 54.7591 10.7921L53.9115 10.8492C44.7827 11.9984 42.4516 20.6789 43.8453 29.8322L46.1357 58.8569L67.0667 65.8828L66.5451 55.2869C66.5451 55.2869 74.6632 53.021 74.1823 44.1449V44.1367Z" fill="#FFBE9D"/>
<path d="M66.5455 55.2706C66.5455 55.2706 60.9378 55.833 54.7759 52.4912C54.7759 52.4912 57.9302 59.2318 66.6759 57.8544L66.5455 55.2787V55.2706Z" fill="#6F4439"/>
<path d="M70.2374 33.2637C70.3026 33.932 69.7973 34.5352 69.1045 34.6248C68.4117 34.7064 67.8004 34.2336 67.7352 33.5734C67.67 32.905 68.1753 32.3019 68.86 32.2122C69.5528 32.1307 70.1641 32.6035 70.2374 33.2718V33.2637Z" fill="#263238"/>
<path d="M71.4687 29.7997C71.322 29.979 70.3276 29.327 68.9664 29.4248C67.6134 29.4981 66.6679 30.2643 66.5049 30.1094C66.4315 30.0442 66.5701 29.7345 66.9776 29.384C67.3852 29.0417 68.0861 28.683 68.9338 28.6341C69.7815 28.5852 70.5069 28.8461 70.9389 29.1395C71.379 29.4329 71.5339 29.7263 71.4687 29.7997Z" fill="#263238"/>
<path d="M58.7946 33.9158C58.8598 34.5841 58.3544 35.1873 57.6616 35.2769C56.9688 35.3585 56.3575 34.8857 56.2923 34.2255C56.2271 33.5571 56.7324 32.954 57.4171 32.8643C58.1099 32.7828 58.7212 33.2556 58.7946 33.9239V33.9158Z" fill="#263238"/>
<path d="M59.3157 30.4679C59.169 30.6472 58.1664 29.9952 56.8134 30.093C55.4604 30.1663 54.5149 30.9325 54.3519 30.7776C54.2785 30.7124 54.4089 30.4027 54.8246 30.0522C55.2322 29.7099 55.9331 29.3513 56.7808 29.3024C57.6285 29.2534 58.3539 29.5143 58.7859 29.8077C59.226 30.1011 59.3809 30.3945 59.3157 30.4679Z" fill="#263238"/>
<path d="M62.8122 40.2651C62.804 40.1918 63.6354 39.988 64.9884 39.719C65.3307 39.662 65.6568 39.5723 65.6975 39.3278C65.7627 39.0751 65.5916 38.7083 65.3959 38.309C65.0129 37.4857 64.6135 36.6299 64.1978 35.7252C62.5269 32.0492 61.2961 29.0171 61.4428 28.9519C61.5895 28.8867 63.0648 31.8128 64.7357 35.4888C65.1351 36.3935 65.5264 37.2575 65.8931 38.0889C66.048 38.472 66.3088 38.9121 66.1621 39.4419C66.0887 39.7109 65.8442 39.9147 65.6242 39.988C65.4041 40.0695 65.2166 40.0858 65.0455 40.1103C63.6761 40.2733 62.8285 40.3385 62.8203 40.2651H62.8122Z" fill="#263238"/>
<path d="M71.0116 20.8827C71.0116 20.8827 68.3219 15.4869 65.5751 14.3703C62.2496 13.0173 61.1003 16.6606 57.9705 16.0004C54.8406 15.3402 51.67 14.0361 48.6868 16.6362C45.4265 19.4726 47.1545 21.2006 47.2034 25.1537C47.399 41.1535 44.7989 45.8565 43.4785 38.3986C43.3318 37.5835 41.017 37.0782 40.4546 33.6223C39.721 29.1394 39.183 23.6784 39.9737 20.4181C40.642 17.6632 42.044 15.6988 44.6522 13.4655C48.7683 9.93628 54.702 9.47169 58.7692 9.61841C62.8283 9.75697 70.922 13.9138 71.0116 20.8909V20.8827Z" fill="#263238"/>
<path d="M45.1498 38.04C45.0031 36.6788 43.7641 35.6763 42.4111 35.8963C40.781 36.1653 39.0123 37.2249 39.3465 40.6319C39.9415 46.6797 45.8507 44.8377 45.8426 44.6665C45.8426 44.5443 45.4106 40.5749 45.1416 38.0481L45.1498 38.04Z" fill="#FFBE9D"/>
<path d="M44.3181 42.5147C44.3181 42.5147 44.2203 42.5962 44.0492 42.694C43.8861 42.7918 43.5927 42.8734 43.2667 42.7837C42.6065 42.6125 41.9707 41.6507 41.8403 40.5667C41.7751 40.0206 41.8403 39.4826 41.987 39.0262C42.1256 38.5616 42.3783 38.2274 42.6961 38.1378C43.0059 38.0318 43.2504 38.203 43.34 38.366C43.4379 38.529 43.4134 38.6513 43.446 38.6594C43.4623 38.6757 43.5683 38.5453 43.4949 38.3008C43.4542 38.1867 43.3726 38.0481 43.2178 37.9422C43.0629 37.8362 42.8429 37.7955 42.6228 37.8444C42.1663 37.9259 41.7833 38.3905 41.6202 38.8876C41.4246 39.393 41.3431 39.9961 41.4246 40.6074C41.5795 41.8219 42.3131 42.8978 43.2096 43.069C43.6416 43.1423 43.984 42.9793 44.1551 42.8163C44.3263 42.6451 44.3426 42.5066 44.3263 42.4984L44.3181 42.5147Z" fill="#6F4439"/>
<path d="M50.7494 10.3601C50.7629 10.3601 50.7738 10.2652 50.7738 10.1482C50.7738 10.0312 50.7629 9.93628 50.7494 9.93628C50.7359 9.93628 50.7249 10.0312 50.7249 10.1482C50.7249 10.2652 50.7359 10.3601 50.7494 10.3601Z" fill="#455A64"/>
<path d="M65.1631 43.5114C64.2339 43.0631 64.0383 43.0468 63.0357 42.7778C62.7097 42.6881 62.3348 42.6148 62.0413 42.7778C61.6257 43.0223 61.5931 43.6092 61.6583 44.0901C61.7887 45.1171 62.1473 46.2337 63.0439 46.7553C63.8753 47.2362 64.9919 47.0569 65.7418 46.4538C66.4916 45.8588 66.9155 44.9133 67.054 43.9596L65.1549 43.5032L65.1631 43.5114Z" fill="#6F4439"/>
<path d="M65.7741 46.4619C65.7741 46.4619 65.2769 46.9836 64.1848 46.9754C63.655 46.9673 62.9947 46.7961 62.4323 46.3315C61.8781 45.8669 61.4543 45.1334 61.3809 44.2938C61.3483 43.87 61.3809 43.4706 61.5358 43.0712C61.6173 42.8838 61.7721 42.6637 62.0248 42.5822C62.2856 42.5007 62.4894 42.5822 62.6443 42.6229C63.2474 42.7941 63.818 42.9653 64.3641 43.1201C65.3422 43.4136 65.9372 43.6255 65.9209 43.6825C65.9046 43.7396 65.2851 43.6336 64.2907 43.4136C63.7365 43.2831 63.1578 43.1446 62.5465 43.006C62.196 42.9001 62.0574 42.9327 61.9189 43.2342C61.8129 43.5195 61.7721 43.8944 61.8047 44.2449C61.8699 44.9622 62.2286 45.6061 62.6932 46.0218C63.1659 46.4375 63.7283 46.6168 64.2092 46.6657C65.1873 46.7553 65.7578 46.3804 65.7823 46.4538L65.7741 46.4619Z" fill="#263238"/>
<path d="M73.1527 16.3011C75.0106 24.4578 54.7442 25.2488 50.6719 25.3298C50.2213 25.3379 49.9663 25.3352 49.9663 25.3352C49.9663 25.3352 52.5487 40.6094 51.1218 44.7072C50.3904 46.8068 46.9993 48.3532 43.2948 47.6506L43.2796 47.6542C39.7515 46.9759 35.9467 44.2521 33.9016 38.0236C29.7009 25.2408 29.9148 13.2767 41.8081 7.90674C53.7014 2.53678 64.6302 4.64642 73.1527 16.3011Z" fill="#FAD03A"/>
<path d="M50.6697 25.3254C50.2191 25.3334 49.9641 25.3308 49.9641 25.3308C49.9641 25.3308 52.5466 40.6049 51.1196 44.7027C50.3882 46.8024 46.9971 48.3488 43.2926 47.6461C44.3701 47.579 47.2656 47.1628 48.1419 44.5776C49.2346 41.3858 47.9834 24.7414 47.9834 24.7414L50.1227 23.2743L50.6697 25.3254Z" fill="#B09123"/>
<path d="M47.9653 25.0954C47.9306 24.7272 47.9965 24.3562 48.1562 24.022C48.3158 23.6878 48.5632 23.403 48.8719 23.1977C49.9269 22.5573 60.5115 18.0464 65.1995 17.5826C69.8875 17.1189 75.6424 18.2493 76.85 19.8911C78.0577 21.5329 66.6455 25.0894 59.0937 25.9363C51.542 26.7832 47.9653 25.0954 47.9653 25.0954Z" fill="#DDB730"/>
<path d="M41.4811 32.8862C42.3119 36.4175 41.3892 39.6544 39.421 40.1175C37.4529 40.5806 35.1834 38.093 34.3529 34.5633C33.5225 31.0336 34.4447 27.7951 36.4129 27.3321C38.3811 26.869 40.6502 29.355 41.4811 32.8862Z" fill="#E0BD40"/>
<path d="M66.5956 57.9299C66.5956 57.9299 68.1163 64.6825 66.2599 65.777C64.2223 65.3694 64.0192 65.4332 62.5921 64.717C58.7675 62.8091 45.8832 58.4412 45.8832 58.4412L46.2907 61.2941C46.2907 61.2941 57.3836 71.7539 59.2068 71.4947C60.4065 71.3266 62.1371 69.9848 63.2162 69.0546C63.8046 68.5481 64.3152 67.9588 64.7317 67.3052L67.075 66.1845C69.1366 66.9477 69.8804 66.9902 71.1414 68.4615C71.1414 68.4615 71.2563 64.3808 70.1267 62.648C68.9972 60.9151 66.7965 57.9607 66.7965 57.9607L66.5956 57.9299Z" fill="#0AAD0A"/>
</svg>
