<svg xmlns="http://www.w3.org/2000/svg" width="140.079" height="89.653" viewBox="0 0 140.079 89.653">
  <g id="Frame_1040" data-name="Frame 1040" transform="translate(-1.615 -0.061)">
    <g id="Rood">
      <g id="Hand">
        <g id="Group">
          <path id="Vector" d="M.027,1.8a1,1,0,0,0,.015.227C.224,3.115,1.581,7.708,2.2,7.746c.69.045,2.168-.758,2.107-1.395S2.43.628,2.43.628,2.089-.16.664.029C-.223.143.035,1.8.035,1.8Z" transform="matrix(0.364, -0.931, 0.931, 0.364, 7.547, 59.978)" fill="#ffbe9d"/>
          <path id="Vector-2" data-name="Vector" d="M.027,1.8a1,1,0,0,0,.015.227C.224,3.115,1.581,7.708,2.2,7.746c.69.045,2.168-.758,2.107-1.395S2.43.628,2.43.628,2.089-.16.664.029C-.223.143.035,1.8.035,1.8Z" transform="matrix(0.364, -0.931, 0.931, 0.364, 6.127, 56.948)" fill="#ffbe9d"/>
          <path id="Vector-3" data-name="Vector" d="M.027,1.8a1,1,0,0,0,.015.227C.224,3.115,1.581,7.708,2.2,7.746,2.885,7.792,4.363,7,4.3,6.351S2.43.628,2.43.628,2.089-.16.664.029C-.223.143.035,1.8.035,1.8Z" transform="matrix(0.364, -0.931, 0.931, 0.364, 5.551, 54.07)" fill="#ffbe9d"/>
          <path id="Vector-4" data-name="Vector" d="M.027,1.8a1,1,0,0,0,.015.227C.224,3.115,1.581,7.708,2.2,7.746,2.885,7.792,4.363,7,4.3,6.351S2.43.628,2.43.628,2.089-.16.664.029C-.223.143.035,1.8.035,1.8Z" transform="matrix(0.364, -0.931, 0.931, 0.364, 5.034, 51.206)" fill="#ffbe9d"/>
          <path id="Vector-5" data-name="Vector" d="M1.4,4.427A9.5,9.5,0,0,1,.562,2.244,8.53,8.53,0,0,1,.016,0,9.5,9.5,0,0,1,.858,2.183,8.53,8.53,0,0,1,1.4,4.427Z" transform="matrix(0.364, -0.931, 0.931, 0.364, 9.008, 57.819)" fill="#eb996e"/>
          <path id="Vector-6" data-name="Vector" d="M2.013,6.322A19,19,0,0,1,.868,3.207,18.026,18.026,0,0,1,.011,0,19,19,0,0,1,1.156,3.116a17.85,17.85,0,0,1,.857,3.206Z" transform="matrix(0.364, -0.931, 0.931, 0.364, 7.321, 54.891)" fill="#eb996e"/>
          <g id="Group-2" data-name="Group" opacity="0.78">
            <path id="Vector-7" data-name="Vector" d="M2.013,6.322A19,19,0,0,1,.868,3.207,18.026,18.026,0,0,1,.011,0,19,19,0,0,1,1.156,3.116,17.85,17.85,0,0,1,2.013,6.322Z" transform="matrix(0.364, -0.931, 0.931, 0.364, 7.377, 52.016)" fill="#eb996e" opacity="0.78"/>
          </g>
        </g>
        <g id="Group-3" data-name="Group">
          <path id="Vector-8" data-name="Vector" d="M2.494,9.589C2.418,9.316,0,.015,0,.015L11.75,0c.44.728,1.236,8.2,1.236,8.2l-.614,2.456s-8.088,3.6-8.3,3.616A39.569,39.569,0,0,1,2.494,9.589Z" transform="matrix(0.364, -0.931, 0.931, 0.364, 8.504, 60.355)" fill="#ffbe9d"/>
          <path id="Vector-9" data-name="Vector" d="M8.1,9.915,9.521,6.223a6.717,6.717,0,0,0-.076-5L8.937,0,0,3.009S1.69,6.019,4.018,4.722l-2,3.07L8.111,9.907Z" transform="matrix(0.364, -0.931, 0.931, 0.364, 8.116, 57.64)" fill="#ffbe9d"/>
          <path id="Vector-10" data-name="Vector" d="M3.123,8.057c.053,0,.023-.447.243-1.175a4.315,4.315,0,0,1,1.872-2.4l.849-.508-.978.167c-.7.121-1.455.25-2.259.387H2.9a2.574,2.574,0,0,1-2.358-1.4A.972.972,0,0,1,.47,2.91l-.152.258c2.562-.743,4.867-1.448,6.5-2.054C7.641.818,8.293.552,8.74.355A2.472,2.472,0,0,0,9.415.007,26.193,26.193,0,0,0,6.724.818C5.071,1.348,2.767,2,.2,2.743L0,2.8.045,3a1.425,1.425,0,0,0,.1.288,2.584,2.584,0,0,0,1.19,1.266,3.7,3.7,0,0,0,1.554.387h.045c.8-.159,1.554-.3,2.251-.44l-.129-.341A4.292,4.292,0,0,0,3.169,6.821a2.344,2.344,0,0,0-.045,1.228Z" transform="matrix(0.364, -0.931, 0.931, 0.364, 8.099, 58.081)" fill="#eb996e"/>
          <path id="Vector-11" data-name="Vector" d="M3.439,2.653c-.083,0,.015.478-.182,1.076a.8.8,0,0,1-.735.576,1.22,1.22,0,0,1-.932-.788C1.165,2.555.718,1.676.468,1.046A4.645,4.645,0,0,0,.028,0,2.255,2.255,0,0,0,.18,1.145,21.059,21.059,0,0,0,1.2,3.722a1.559,1.559,0,0,0,1.319.993,1.127,1.127,0,0,0,1.039-.887,1.977,1.977,0,0,0,0-.879c-.045-.2-.091-.3-.114-.3Z" transform="matrix(0.364, -0.931, 0.931, 0.364, 8.685, 60.432)" fill="#eb996e"/>
        </g>
        <path id="Vector-12" data-name="Vector" d="M15.187,0l-.068,3.388S13.746,29.585,13.83,33.5,27.05,59.9,27.05,59.9L20.409,73.192,6.947,38.759c-.743-1.334-1.821-4.618-2.974-7.607L5.87,1.479,7.362,2.753" transform="matrix(0.364, -0.931, 0.931, 0.364, 16.832, 66.764)" fill="#ffbe9d"/>
        <g id="Group-4" data-name="Group">
          <g id="Group-5" data-name="Group">
            <g id="Group-6" data-name="Group">
              <path id="Vector-13" data-name="Vector" d="M1.7,0H21.225a1.7,1.7,0,0,1,1.7,1.7V9.483a1.7,1.7,0,0,1-1.7,1.7H1.7A1.7,1.7,0,0,1,0,9.483V1.7A1.7,1.7,0,0,1,1.7,0Z" transform="matrix(-0.116, -0.993, 0.993, -0.116, 10.02, 64.172)" fill="#595959"/>
              <path id="Vector-14" data-name="Vector" d="M22.711,7.489,22,6.155a.372.372,0,0,0-.508-.144l-.243.129A.369.369,0,0,1,20.74,6L19.36,3.4a.366.366,0,0,1,.167-.5l.243-.129a.374.374,0,0,0,.167-.5l-.25-.47L19.064.629A1.2,1.2,0,0,0,17.457.136L.629,9.089A1.2,1.2,0,0,0,.136,10.7l3.646,6.868a1.2,1.2,0,0,0,1.607.493L22.218,9.1A1.2,1.2,0,0,0,22.711,7.489Z" transform="matrix(0.364, -0.931, 0.931, 0.364, 1.615, 59.404)" fill="#f9f9f9"/>
            </g>
          </g>
        </g>
        <g id="Group-7" data-name="Group">
          <path id="Vector-15" data-name="Vector" d="M6.026,10.036,9.1,7.55a6.694,6.694,0,0,0,2.441-4.366l.167-1.311L2.464,0S1.6,2.8,5.079,3.494C1.994,4.829.841,7.618,0,10.65l6.026-.614Z" transform="matrix(0.364, -0.931, 0.931, 0.364, 13.053, 58.105)" fill="#ffbe9d"/>
          <path id="Vector-16" data-name="Vector" d="M.216,6.1c.045.023.243-.379.8-.894A4.3,4.3,0,0,1,3.847,4.071l.993-.015-.932-.341c-.667-.243-1.387-.515-2.153-.8l.045.023A2.576,2.576,0,0,1,.458.546,1.392,1.392,0,0,1,.5.326L.246.47C2.839,1.107,5.189,1.653,6.9,1.948c.857.152,1.554.25,2.039.3a2.518,2.518,0,0,0,.758.038,24.706,24.706,0,0,0-2.737-.637C5.264,1.281,2.945.7.345.053L.14,0,.079.2A2.147,2.147,0,0,0,.019.5a2.55,2.55,0,0,0,.394,1.69A3.741,3.741,0,0,0,1.565,3.305l.023.015h.023c.766.273,1.5.523,2.168.758l.061-.356A4.348,4.348,0,0,0,.868,5.079,2.373,2.373,0,0,0,.216,6.125Z" transform="matrix(0.364, -0.931, 0.931, 0.364, 13.551, 56.146)" fill="#eb996e"/>
        </g>
      </g>
      <path id="Path_64" data-name="Path 64" d="M0,1.447c.343-.065.537-.107.537-.107S1.3,11.883,3.119,14.38c.93,1.28,3.781,1.776,6.467.731-.83.124-3.1.3-4.229-1.28C3.958,11.884,1.935.64,1.935.64L.049,0Z" transform="translate(79.35 16.641) rotate(11.778)" fill="#6d6d6d"/>
      <path id="Path_64-2" data-name="Path 64" d="M0,1.447c.343-.065.537-.107.537-.107S1.3,11.883,3.119,14.38c.93,1.28,3.781,1.776,6.467.731-.83.124-3.1.3-4.229-1.28C3.958,11.884,1.935.64,1.935.64L.049,0Z" transform="translate(79.35 16.641) rotate(11.778)" fill="#6d6d6d"/>
      <g id="Rider">
        <g id="Rider-2" data-name="Rider">
          <g id="Group_10121" data-name="Group 10121">
            <path id="Vector-17" data-name="Vector" d="M27.583,14.378l-2.1,29.609a9.208,9.208,0,0,1-2.931,6.1,9.309,9.309,0,0,1-6.328,2.477h0a9.3,9.3,0,0,1-6.788-2.914,9.2,9.2,0,0,1-2.493-6.921c.189-2.818.357-5.125.357-5.125S.106,36.491,0,29.325C-.051,25.186.667,15.795,1.284,8.6A9.379,9.379,0,0,1,4.312,2.473,9.481,9.481,0,0,1,10.711,0h4.355a13.37,13.37,0,0,1,9.311,4.561,13.219,13.219,0,0,1,3.206,9.817Z" transform="matrix(0.997, -0.073, 0.073, 0.997, 79.077, 9.27)" fill="#ffbe9d"/>
            <path id="Vector-18" data-name="Vector" d="M.128,2.758A17.475,17.475,0,0,0,9.512,0S7.189,5.214,0,4.568Z" transform="matrix(0.997, -0.073, 0.073, 0.997, 88.796, 43.498)" fill="#eb996e"/>
            <path id="Vector-19" data-name="Vector" d="M.017,1.076C.142,1.21.924.635,2.03.639s1.92.554,2.038.419C4.129,1,4,.76,3.643.5A2.845,2.845,0,0,0,2.009,0,2.737,2.737,0,0,0,.41.508C.067.777-.047,1.019.017,1.076Z" transform="matrix(0.997, -0.073, 0.073, 0.997, 82.797, 23.952)" fill="#263238"/>
            <path id="Vector-20" data-name="Vector" d="M0,.93a1.023,1.023,0,0,0,.286.716,1.034,1.034,0,0,0,.707.316.989.989,0,0,0,.732-.235.978.978,0,0,0,.338-.687A1.023,1.023,0,0,0,1.779.322,1.034,1.034,0,0,0,1.071,0,.989.989,0,0,0,.337.241.978.978,0,0,0,0,.93Z" transform="matrix(0.997, -0.073, 0.073, 0.997, 94.872, 24.48)" fill="#263238"/>
            <path id="Vector-21" data-name="Vector" d="M0,.93a1.019,1.019,0,0,0,.285.717,1.031,1.031,0,0,0,.708.315.992.992,0,0,0,.731-.237.981.981,0,0,0,.34-.686A1.023,1.023,0,0,0,1.779.322,1.034,1.034,0,0,0,1.071,0,.989.989,0,0,0,.337.241.978.978,0,0,0,0,.93Z" transform="matrix(0.997, -0.073, 0.073, 0.997, 83.915, 25.286)" fill="#263238"/>
            <path id="Vector-22" data-name="Vector" d="M.017,1.076C.142,1.21.923.635,2.03.639s1.92.554,2.038.419C4.129,1,4,.76,3.643.5A2.845,2.845,0,0,0,2.012,0a2.737,2.737,0,0,0-1.6.508C.07.777-.047,1.019.017,1.076Z" transform="matrix(0.997, -0.073, 0.073, 0.997, 93.545, 23.161)" fill="#263238"/>
            <path id="Vector-23" data-name="Vector" d="M2.809,9.162a7.578,7.578,0,0,0-1.785-.323c-.286-.028-.553-.082-.6-.277a1.392,1.392,0,0,1,.189-.831L1.449,5.6A36.14,36.14,0,0,0,3.327,0,36.876,36.876,0,0,0,1,5.438L.186,7.579a1.607,1.607,0,0,0-.146,1.1A.713.713,0,0,0,.5,9.094a2.171,2.171,0,0,0,.482.067A7.09,7.09,0,0,0,2.809,9.162Z" transform="matrix(0.997, -0.073, 0.073, 0.997, 86.757, 23.742)" fill="#263238"/>
            <path id="Vector-24" data-name="Vector" d="M3.531,0c-.182,0-.182,1.185-1.214,2.034S.011,2.744,0,2.918c-.018.075.286.231.825.245A2.98,2.98,0,0,0,2.76,2.5,2.588,2.588,0,0,0,3.716.8C3.745.288,3.613-.007,3.531,0Z" transform="matrix(0.997, -0.073, 0.073, 0.997, 90.016, 33.453)" fill="#263238"/>
            <path id="Vector-25" data-name="Vector" d="M.006.832c.111.3,1.217.156,2.5.312s2.349.508,2.523.241C5.1,1.254,4.921.974,4.5.676A4.426,4.426,0,0,0,.659.257C.2.456-.041.69.006.832Z" transform="matrix(0.997, -0.073, 0.073, 0.997, 93.023, 19.856)" fill="#263238"/>
            <path id="Vector-26" data-name="Vector" d="M.028,1.141c.2.252.957,0,1.874-.021s1.7.167,1.874-.092C3.855.9,3.733.648,3.394.413A2.718,2.718,0,0,0,.375.506C.05.761-.057,1.02.028,1.141Z" transform="matrix(0.997, -0.073, 0.073, 0.997, 82.703, 20.733)" fill="#263238"/>
            <path id="Vector-27" data-name="Vector" d="M.282.226C.4.172,5.233-1.23,5.076,3.668S0,7.4,0,7.246.282.226.282.226Z" transform="matrix(0.997, -0.073, 0.073, 0.997, 105.311, 26.928)" fill="#ffbe9d"/>
            <path id="Vector-28" data-name="Vector" d="M0,3.849c.025,0,.086.064.228.135a.868.868,0,0,0,.642.032A2.115,2.115,0,0,0,1.918,2.152a2.793,2.793,0,0,0-.2-1.228A.992.992,0,0,0,1.094.246.436.436,0,0,0,.58.466C.508.6.537.7.508.707S.408.622.455.42a.529.529,0,0,1,.2-.3.652.652,0,0,1,.478-.11A1.2,1.2,0,0,1,2.007.8a2.882,2.882,0,0,1,.253,1.377A2.222,2.222,0,0,1,.94,4.25a.918.918,0,0,1-.778-.156C.012,3.969-.013,3.87,0,3.849Z" transform="matrix(0.997, -0.073, 0.073, 0.997, 106.984, 28.411)" fill="#eb996e"/>
            <path id="Vector-29" data-name="Vector" d="M22.64,20.567a2.59,2.59,0,0,0-2.374,1.21c-.321.7-.389,1.491-.714,2.19a1.742,1.742,0,0,1-1.785,1.157,1.5,1.5,0,0,1-1.028-1.118,4.123,4.123,0,0,1,0-1.579c.289-2.289.775-4.557.867-6.861A11.715,11.715,0,0,0,16.151,8.9,6.484,6.484,0,0,0,10.39,5.681C8.859,5.805,7.453,6.6,5.932,6.81a6.05,6.05,0,0,1-2.691-.256,6.024,6.024,0,0,1-2.306-1.4A10.839,10.839,0,0,0,0,4.482,2.821,2.821,0,0,1,.518,2.97C3.537.194,8.977-.58,12.96.414A14.367,14.367,0,0,1,22.4,7.928c1.717,3.716,1.206,8.873.261,12.639" transform="matrix(0.997, -0.073, 0.073, 0.997, 84.244, 7.913)" fill="#263238"/>
            <path id="Vector-30" data-name="Vector" d="M.682,3.1a4.7,4.7,0,0,0,3.926,2.52,12.8,12.8,0,0,0,4.808-.71,36.865,36.865,0,0,1,7.4-1.086c.246,0,.539,0,.667-.2.171-.273-.1-.6-.357-.8C14.987,1.147,9.791.121,7.064.008A8.067,8.067,0,0,0,0,3.34" transform="matrix(0.997, -0.073, 0.073, 0.997, 79.213, 13.477)" fill="#263238"/>
          </g>
          <g id="Group-8" data-name="Group">
            <path id="Vector-31" data-name="Vector" d="M33.5,3.333,17.381,7.775,0,20.352l4.638,7.939,81.966.141S83.617,17.463,82.634,14.1c-1.481-5.08-3.488-6.517-5.325-8.371A8.679,8.679,0,0,0,74.382,4c-3.237-.709-18.244-4.08-21.165-4,0,0,.1,11.344-9.55,8.878-7.417,9.295-10.175-5.551-10.175-5.551Z" transform="translate(55.09 46.113)" fill="#fce80d"/>
            <path id="Vector-32" data-name="Vector" d="M.005,9.1c.05.015.2-.663.678-1.653A13.5,13.5,0,0,1,3.167,3.971,30.7,30.7,0,0,1,6.425,1.142,11.217,11.217,0,0,0,7.815,0,9.818,9.818,0,0,0,6.3.972,23.7,23.7,0,0,0,2.957,3.76a11.974,11.974,0,0,0-2.464,3.6A7.524,7.524,0,0,0,.076,8.619,1.5,1.5,0,0,0,.005,9.1Z" transform="translate(121.803 53.228)" fill="#263238"/>
            <path id="Vector-33" data-name="Vector" d="M.9,11.592A9.117,9.117,0,0,0,.952,9.884C.942,8.829.887,7.376.762,5.774s-.286-3.05-.437-4.1A8.722,8.722,0,0,0,.014,0,10.82,10.82,0,0,0,.119,1.7c.1,1.141.216,2.543.346,4.09.105,1.553.2,2.955.276,4.1a10.1,10.1,0,0,0,.156,1.7Z" transform="translate(71.96 59.45)" fill="#263238"/>
            <g id="Group-9" data-name="Group" opacity="0.3">
              <path id="Vector-34" data-name="Vector" d="M3.885,5.658A8.471,8.471,0,0,0,7.544,3.789,3.48,3.48,0,0,0,8.467,0,11.894,11.894,0,0,0,19.444,6.834L0,7.075A16.609,16.609,0,0,1,3.89,5.653Z" transform="translate(64.14 67.47)" opacity="0.3"/>
            </g>
          </g>
          <g id="Group-10" data-name="Group" opacity="0.3">
            <path id="Vector-35" data-name="Vector" d="M4.984,7.567,5.31,0,0,7.557Z" transform="translate(115.328 66.942)" opacity="0.3"/>
          </g>
          <path id="Vector-36" data-name="Vector" d="M.032,8.949A39.112,39.112,0,0,1,.147,4.467,38.858,38.858,0,0,1,.524,0,39.112,39.112,0,0,1,.408,4.482,38.858,38.858,0,0,1,.032,8.949Z" transform="translate(120.282 65.56)" fill="#263238"/>
          <path id="Vector-37" data-name="Vector" d="M4.243,3.308s-.714,6.822,1.6,7.883c2.6,1.193,5.193.025,6.782-.987C16.878,7.507,23.21,0,23.21,0l4.283,5.53S16.711,18.421,14.54,18.336c-1.428-.053-3.619-1.42-5-2.382a9.362,9.362,0,0,1-1.988-1.871l-1.867-2.36A14.061,14.061,0,0,0,.174,16.21s-.625-4.774.493-6.943,3.344-5.9,3.344-5.9Z" transform="matrix(0.991, -0.132, 0.132, 0.991, 84.614, 45.44)" fill="#0aad0a"/>
        </g>
      </g>
      <g id="Group_12178" data-name="Group 12178">
        <path id="Path_59" data-name="Path 59" d="M0,13.688c.052,7.257,17.323,3.9,20.778,3.158.382-.083.6-.136.6-.136s.854,13.411,2.873,16.588c1.035,1.628,4.206,2.26,7.194.931h.014c2.844-1.274,5.516-4.33,6.006-10C38.469,12.6,34.118,2.761,23.008.589S-.073,2.134,0,13.688Z" transform="translate(77.618 0.061) rotate(1.276)" fill="#fad03a"/>
        <path id="Path_60" data-name="Path 60" d="M0,1.841c.382-.083.6-.136.6-.136S1.451,15.116,3.47,18.293c1.035,1.628,4.206,2.26,7.194.931-.923.157-3.451.381-4.7-1.628C4.4,15.118,2.152.814,2.152.814L.054,0Z" transform="translate(98.057 15.521) rotate(1.276)" fill="#6d6d6d"/>
        <path id="Path_61" data-name="Path 61" d="M25.5,4.135a1.774,1.774,0,0,0-1.031-1.5C23.479,2.224,13.8-.218,9.724.016S.862,1.992.046,3.562,9.487,6.644,16.073,6.353,25.5,4.135,25.5,4.135Z" transform="matrix(0.999, -0.053, 0.054, 0.999, 74.582, 13.903)" fill="#e0bd40"/>
        <path id="Path_62" data-name="Path 62" d="M0,5.7c0,3.147,1.422,5.7,3.176,5.7S6.353,8.843,6.353,5.7,4.93,0,3.176,0,0,2.55,0,5.7Z" transform="translate(107.3 16.43) rotate(1.276)" fill="#e0bd40"/>
        <path id="Path_63" data-name="Path 63" d="M22.086,9.167S10.683,3.3,0,8.177A14.275,14.275,0,0,1,3.86,2.312c2.514-1.9,6.5-3.481,12.3-1.142a9.926,9.926,0,0,1,5.926,8Z" transform="translate(78.672 4.442) rotate(1.276)" fill="#e0bd40"/>
      </g>
      <g id="Group_12181" data-name="Group 12181">
        <g id="Group_12178-2" data-name="Group 12178">
          <path id="Path_59-2" data-name="Path 59" d="M0,13.688c.052,7.257,17.323,3.9,20.778,3.158.382-.083.6-.136.6-.136s.854,13.411,2.873,16.588c1.035,1.628,4.206,2.26,7.194.931h.014c2.844-1.274,5.516-4.33,6.006-10C38.469,12.6,34.118,2.761,23.008.589S-.073,2.134,0,13.688Z" transform="translate(77.618 0.061) rotate(1.276)" fill="#fce80d"/>
          <path id="Path_60-2" data-name="Path 60" d="M0,1.841c.382-.083.6-.136.6-.136S1.451,15.116,3.47,18.293c1.035,1.628,4.206,2.26,7.194.931-.923.157-3.451.381-4.7-1.628C4.4,15.118,2.152.814,2.152.814L.054,0Z" transform="translate(98.057 15.521) rotate(1.276)" fill="#6d6d6d"/>
          <path id="Path_61-2" data-name="Path 61" d="M25.5,4.135a1.774,1.774,0,0,0-1.031-1.5C23.479,2.224,13.8-.218,9.724.016S.862,1.992.046,3.562,9.487,6.644,16.073,6.353,25.5,4.135,25.5,4.135Z" transform="matrix(0.999, -0.053, 0.054, 0.999, 74.582, 13.903)" fill="#decd11"/>
          <path id="Path_62-2" data-name="Path 62" d="M0,5.7c0,3.147,1.422,5.7,3.176,5.7S6.353,8.843,6.353,5.7,4.93,0,3.176,0,0,2.55,0,5.7Z" transform="translate(107.3 16.43) rotate(1.276)" fill="#decd11"/>
        </g>
      </g>
    </g>
  </g>
</svg>
