<svg width="68" height="44" viewBox="0 0 68 44" fill="none" xmlns="http://www.w3.org/2000/svg">
<path d="M3.19764 27.9593C3.29337 27.2278 3.59642 26.66 4.38183 26.482C4.84759 26.3759 5.31657 26.2803 5.78376 26.181C5.97778 26.1397 6.17242 26.1014 6.36589 26.0623C5.97413 26.7538 6.0411 27.4629 6.2812 28.1795C6.30465 28.3752 6.32142 28.5633 6.50466 28.7039C6.59256 28.771 6.65255 28.8823 6.42023 28.9095C6.10132 28.947 5.78988 29.0576 5.47552 29.1355C5.40085 29.1544 5.34806 29.1909 5.34171 29.2749L5.07433 29.3318C5.03617 29.2804 5.1275 29.15 4.97577 29.1671C4.86541 29.1795 4.77292 29.2143 4.78544 29.3538C4.16412 29.4163 3.74366 29.1042 3.41695 28.6208C3.38739 28.5767 3.3935 28.5058 3.31361 28.5096L3.19688 27.9605L3.19764 27.9593Z" fill="#0F2128"/>
<path d="M29.2392 13.0841C29.347 13.1359 29.4558 13.1874 29.5637 13.2391C29.6281 13.3666 29.7775 13.3672 29.8735 13.4486C29.9282 13.7154 29.7975 13.6938 29.6278 13.6027C29.4204 13.4905 29.2514 13.2984 28.9055 13.2327C29.1932 13.5468 29.4299 13.7396 29.7432 13.8607C29.9839 13.9537 30.1198 13.9329 30.1967 13.6826C30.2145 13.6858 30.2237 13.696 30.2265 13.7136C30.2365 13.9364 30.3381 14.0298 30.5617 13.952L30.5593 13.9505C30.5602 14.1682 30.6592 14.2541 30.8745 14.1851L30.8851 14.1919C30.9091 14.2907 30.9354 14.386 31.0727 14.3487C31.1359 14.6127 31.3006 14.7512 31.5762 14.7522L31.5813 14.7571C31.6704 15.0912 32.3352 15.6793 32.6858 15.7338C32.6963 15.7357 32.708 15.7291 32.7196 15.7267C32.7712 15.7228 32.8217 15.7181 32.8733 15.7142C32.9119 15.7392 32.9535 15.7879 32.9891 15.7844C33.7364 15.7072 34.4983 15.8126 35.2366 15.6123C36.7912 15.4836 38.3497 15.4398 39.9073 15.363C39.9504 15.4758 39.6858 15.6027 39.9224 15.7047C40.0802 15.7731 40.1851 15.7205 40.248 15.5609C40.2932 15.4464 40.4242 15.469 40.5103 15.4184L40.5096 15.4155C40.517 15.4644 40.5322 15.4884 40.5687 15.4322C41.6 16.0361 42.1342 17.0019 42.5015 18.0889C42.5751 18.4354 42.6487 18.7819 42.7214 19.1286C42.7904 19.2824 42.6669 19.4368 42.6846 19.5581C42.8004 20.3546 43.0985 21.1255 43.0301 21.948C43.0072 22.2151 43.0952 22.5011 42.9165 22.7469C42.8621 22.5859 42.8936 22.3926 42.752 22.2674C42.6935 22.2152 42.5957 22.116 42.5403 22.273C42.4604 22.4998 42.6751 22.7649 42.9155 22.7471C43.0292 22.964 42.7797 23.1905 42.9325 23.4062L42.9331 23.4091C42.6793 23.5437 42.697 23.7649 42.746 23.9956L42.7438 23.9991C42.5201 24.0244 42.45 24.1362 42.5497 24.344L42.5335 24.3343L42.5487 24.3442C42.3665 24.4313 42.2641 24.6044 42.125 24.7379L41.9807 24.7948C41.9597 24.7861 41.9341 24.7654 41.9181 24.7708C41.3377 24.9688 40.7513 25.1529 40.1815 25.377C39.9534 25.4668 39.695 25.5328 39.5312 25.7492C38.1605 26.2827 36.7916 26.8198 35.4179 27.3438C35.235 27.4139 35.1405 27.5197 35.0638 27.6904C34.8151 28.2436 34.5655 28.7969 34.2842 29.3339C33.944 29.9832 33.5709 30.6153 33.2123 31.2544C32.3205 32.4648 31.3986 33.6523 30.2875 34.6713C29.1402 35.7242 27.8679 36.6069 26.4517 37.263C25.9033 37.5168 25.3265 37.708 24.7606 37.922C24.6999 37.945 24.6246 37.9278 24.5563 37.9292C24.5021 37.6169 24.3931 37.3082 24.4972 36.9865C24.7832 36.8651 24.5835 36.6615 24.5587 36.5114C24.4521 35.8582 24.5492 35.6933 25.1832 35.5575C25.2179 35.5501 25.2526 35.5468 25.2855 35.5358C25.4106 35.493 25.5824 35.5322 25.6258 35.3474C25.6347 35.3082 25.6242 35.2308 25.6069 35.2254C25.4481 35.1804 25.3246 35.245 25.1979 35.3466C24.9347 35.5559 24.6008 35.5562 24.394 35.3712L24.3756 35.3751C24.3798 35.352 24.384 35.3289 24.3872 35.3061L24.7293 35.2354C25.3215 35.1781 25.8374 34.9333 26.3155 34.5956L26.4542 34.5268C26.5673 34.5794 26.6651 34.5364 26.7397 34.46C26.9519 34.2434 27.2467 34.1303 27.4592 33.9389C27.6624 33.7555 28.0092 33.707 28.0683 33.3727C28.4807 33.1105 28.8346 32.7962 28.9919 32.3118L28.9917 32.3109C29.3454 32.1187 29.4999 31.759 29.6911 31.443C29.8509 31.179 30.107 30.941 30.0665 30.5845L30.0691 30.5778C30.203 30.4768 30.3133 30.3645 30.2609 30.1749C30.2697 30.1307 30.2709 30.0841 30.2886 30.044C30.5229 29.4898 30.7586 28.9373 30.743 28.3183C30.887 27.9134 31.0526 27.511 30.8376 27.0786C31.152 26.9008 31.4663 26.723 31.7804 26.5443C31.9139 26.5079 32.1127 26.513 32.167 26.4268C32.3703 26.1062 32.7312 26.1051 33.0082 25.9414C33.1185 25.8766 33.3367 26.0582 33.336 25.8414C33.3353 25.6388 33.4091 25.5586 33.5696 25.4831C33.721 25.4126 33.6762 25.2728 33.6495 25.1473C33.8117 25.0796 33.7667 24.9913 33.6876 24.88C33.5688 24.9718 33.6509 25.0633 33.6495 25.1473C33.3995 25.0532 33.3818 24.9178 33.5662 24.7313C33.704 24.592 33.837 24.4437 33.644 24.2477C33.8319 23.7508 33.9234 23.232 33.9905 22.7074C34.1065 22.6696 34.1117 22.5847 34.0902 22.4834C33.9657 21.9026 33.842 21.3206 33.7195 20.7394C33.6977 20.6371 33.6577 20.5629 33.5358 20.5777C32.8305 19.2438 31.7336 18.4117 30.2843 18.0106C29.819 17.8815 29.3322 17.9124 28.8715 17.7763C28.9386 17.532 28.7821 17.3797 28.6422 17.2198C28.6281 17.0442 28.4177 16.975 28.4107 16.7949C28.387 16.693 28.3926 16.5677 28.3344 16.4933C28.0268 16.0997 27.7012 15.7211 27.3866 15.333C27.302 15.2289 27.1981 15.2056 27.0765 15.2123C26.9562 15.1067 26.8334 15.0037 26.7144 14.8948C26.0357 14.2745 25.2378 13.8429 24.4142 13.452C24.4021 13.4193 24.4012 13.3721 24.3776 13.3559C24.0343 13.1172 23.5673 13.1418 23.2551 12.8309C23.2423 12.8185 23.1757 12.8326 23.1648 12.8521C23.0698 13.0175 22.94 12.9291 22.8264 12.8978C22.0233 12.67 21.2103 12.6754 20.3859 12.7366C20.1237 12.7561 19.8599 12.8485 19.5925 12.7772C19.2882 12.0197 18.9838 11.2613 18.6795 10.5039C18.9352 10.4586 19.1995 10.4488 19.4366 10.3258C19.4751 10.3216 19.5145 10.3173 19.554 10.3129C19.8993 10.4897 20.2381 10.3562 20.5793 10.2907C20.619 10.2873 20.6598 10.2847 20.6994 10.2813C20.7724 10.3778 20.8831 10.3764 20.9861 10.3818C21.4982 10.4081 22.0062 10.4676 22.5158 10.5156C22.769 10.5394 23.0218 10.7177 23.2891 10.5752C23.4123 10.5994 23.5346 10.6239 23.6575 10.6472C23.9963 10.8788 24.4002 10.918 24.7847 10.9947C24.9543 11.0282 25.0916 11.2331 25.2935 11.1054C25.3136 11.1193 25.3335 11.1322 25.3536 11.1461C25.728 11.4266 26.1264 11.6446 26.6124 11.6432C26.875 11.9293 27.2599 12.0028 27.5735 12.1964C27.7837 12.3263 27.9359 12.5582 28.2319 12.4368L28.2296 12.4353C28.3182 12.6484 28.4922 12.7123 28.7066 12.7051L28.707 12.707C28.7322 12.9205 28.8772 12.9381 29.0471 12.9162L29.0445 12.9137C29.0476 13.0421 29.163 13.0438 29.2417 13.0866L29.2392 13.0841ZM35.9094 26.6895C35.7229 26.7614 35.4903 26.6878 35.3382 26.8644C35.3082 26.899 35.3425 26.9654 35.3911 26.9712C35.6167 26.9979 35.7876 26.9 35.9094 26.6895V26.6895ZM40.3044 15.8929C40.4603 15.9808 40.5781 16.0697 40.7213 15.9747C40.7647 15.9463 40.7417 15.8524 40.6963 15.8237C40.5658 15.7415 40.4497 15.7934 40.3044 15.8929ZM42.2382 24.2266C42.0581 24.2195 41.9345 24.2074 41.8443 24.3194C41.8188 24.3511 41.83 24.4183 41.8831 24.4352C42.0327 24.4841 42.1208 24.3958 42.2382 24.2266V24.2266Z" fill="#FDDD16"/>
<path d="M33.2111 31.2535C33.5697 30.6144 33.9428 29.9823 34.283 29.333C34.5643 28.7961 34.8139 28.2427 35.0626 27.6895C35.1393 27.5189 35.2338 27.413 35.4167 27.3429C36.7904 26.8189 38.1603 26.2816 39.53 25.7483C40.3508 25.4427 41.1778 25.1519 41.9795 24.7939C42.0278 24.7746 42.0754 24.7564 42.1238 24.737C42.3664 24.7157 42.5041 24.5805 42.5476 24.3433L42.5323 24.3334L42.5483 24.3421C42.6712 24.2605 42.7101 24.1302 42.7426 23.9982L42.7448 23.9947C42.8656 23.8177 42.9213 23.6193 42.9329 23.408L42.9323 23.4051C43.2507 22.5395 43.217 21.6499 43.1176 20.7551C43.1006 20.6417 43.0847 20.5291 43.0676 20.4157C43.0392 19.8024 42.8978 19.2131 42.6888 18.6381C42.6474 18.4482 42.6247 18.2513 42.5014 18.0888C42.1342 17.0018 41.6002 16.037 40.5677 15.4323C40.5522 15.4114 40.5327 15.4054 40.5077 15.4158L40.5083 15.4187C40.3222 15.2504 40.1101 15.349 39.907 15.3619C38.3495 15.4387 36.791 15.4825 35.2366 15.6122C34.4463 15.5865 33.6605 15.6678 32.8733 15.7141L32.7195 15.7266C32.3304 15.4148 32.0043 15.0292 31.5812 14.757L31.5762 14.752C31.4426 14.5746 31.2677 14.4494 31.0727 14.3486C31.0367 14.2645 30.9751 14.212 30.885 14.1918L30.8745 14.185C30.7879 14.0813 30.6929 13.9906 30.5593 13.9504L30.5597 13.9523C30.4785 13.8314 30.3684 13.7499 30.2255 13.7137C30.2228 13.6961 30.2135 13.6859 30.1957 13.6827C30.1132 13.5701 29.9918 13.5111 29.8726 13.4487C29.7775 13.367 29.6271 13.3667 29.5627 13.2392C29.9144 13.0192 30.3134 12.9929 30.7032 13.023C33.5721 13.2444 36.4417 13.4737 39.3089 13.7157C39.8853 13.7646 40.4235 13.9801 40.9279 14.2602C41.0468 14.3257 41.1415 14.3964 41.277 14.3313L41.2717 14.3445C41.283 14.4975 41.3411 14.6092 41.5103 14.6317C41.6755 14.6541 41.806 14.7505 41.9406 14.8379C42.0748 15.0706 42.2771 15.2344 42.4935 15.3841C42.6308 15.6313 42.8832 15.7794 43.0455 15.9971C43.2318 16.247 43.3746 16.6009 43.5606 16.7733C43.9681 17.1527 44.0278 17.6615 44.1807 18.091C44.5573 19.1508 44.6625 20.2865 44.777 21.4091C44.7801 21.4427 44.7823 21.4816 44.7697 21.5125C44.5619 21.9965 44.7314 22.5234 44.5878 23.03C44.5227 23.2597 44.3643 23.5113 44.4283 23.7842C44.2585 24.0008 44.2054 24.2734 44.0805 24.5117C43.9903 24.6853 44.1479 24.9615 43.8533 25.0564C43.84 25.0602 43.8655 25.1849 43.8729 25.2529C43.8082 25.2808 43.7435 25.3087 43.6788 25.3366C43.6156 25.3338 43.5649 25.3608 43.5293 25.4117C42.914 26.2809 42.0565 26.8364 41.1322 27.3294C38.9917 28.4703 36.8653 29.6395 34.7361 30.8003C34.2579 31.0613 33.7507 31.2145 33.2085 31.2551L33.2111 31.2535Z" fill="#623A11"/>
<path d="M51.4512 9.10305C51.6629 9.12159 51.8698 9.08367 52.0763 9.03977C54.6656 8.48638 57.2529 7.92431 59.8455 7.38637C60.8677 7.17412 61.7187 7.53696 62.3521 8.33843C62.5522 8.59146 62.6824 8.92391 62.7532 9.26191C63.5827 13.1881 64.418 17.1131 65.2475 21.0394C65.5313 22.3792 64.6581 23.7057 63.3231 23.9894C60.5392 24.5812 57.756 25.1758 54.9725 25.7695C54.9643 25.7641 54.955 25.7581 54.9468 25.7527L54.9193 25.7989L54.9225 25.7952C54.8984 25.8003 54.8748 25.8033 54.8507 25.8085L54.7779 25.8078C54.7213 25.8027 54.6626 25.7829 54.6095 25.7942C53.4483 26.041 52.2881 26.2926 51.1277 26.5433C50.5115 26.5301 49.9232 26.4392 49.4798 25.9484C49.5715 25.938 49.6645 26.0766 49.7341 25.9912C49.8232 25.8835 49.6689 25.8507 49.6232 25.7828C49.5913 25.7371 49.5893 25.6709 49.5582 25.6241C49.4219 25.415 49.3259 25.1671 49.0402 25.0382C49.04 25.2652 49.0694 25.4223 49.2348 25.5597C49.3485 25.6535 49.5054 25.7553 49.4814 25.9511C49.4243 25.9148 49.3604 25.885 49.3125 25.8397C48.8684 25.4116 48.659 24.868 48.5502 24.2758C48.5453 24.2526 48.5387 24.2308 48.5328 24.2079L48.3974 23.59C48.2127 22.6972 48.0338 21.8032 47.843 20.9106C47.346 18.5772 46.8442 16.2447 46.3443 13.9118L46.1986 13.2407C46.0869 12.753 46.0286 12.2509 46.1354 11.7662C46.3664 10.7265 47.0553 10.1181 48.0844 9.8903C49.0787 9.66988 50.0751 9.46413 51.0707 9.24949C51.2039 9.22118 51.3558 9.23328 51.4512 9.10305ZM63.3052 23.0037C63.4074 22.986 63.5078 22.9646 63.4858 22.8231C63.732 22.7092 63.8969 22.5218 63.9376 22.2529C63.9731 22.0164 64.2257 21.9324 64.2627 21.6653C64.3398 21.1022 64.1802 20.5985 64.0619 20.0658C63.3962 17.057 62.7681 14.0402 62.1283 11.0259C62.051 10.662 62.0888 10.2797 61.964 9.92497C61.8478 9.59661 61.7623 9.24659 61.4262 9.05171C61.2681 8.80591 61.0276 8.68554 60.7539 8.61763C60.6968 8.4633 60.5651 8.47012 60.4366 8.47322C60.217 8.2657 59.9458 8.2951 59.6929 8.34886C55.9473 9.13895 52.2022 9.93097 48.4608 10.7404C48.0172 10.8367 47.6576 11.1764 47.4571 11.5479C47.0509 12.2999 47.038 13.1218 47.2207 13.9626C47.889 17.0354 48.538 20.1123 49.1829 23.1891C49.2919 23.7066 49.4694 24.1762 49.7695 24.6199C50.1289 25.1527 51.0222 25.6912 51.8028 25.4667C52.6785 25.215 53.5814 25.0483 54.4799 24.8947C54.8353 24.8343 55.1833 24.7058 55.5517 24.7254C55.6636 24.8105 55.7782 24.7468 55.8873 24.7236C57.2468 24.4367 58.6055 24.1459 59.9646 23.857C60.0804 23.8324 60.1963 23.8077 60.3111 23.7833C60.9299 23.6518 61.5476 23.5205 62.1664 23.389L62.372 23.3453C62.5844 23.3001 62.7971 23.2569 63.0102 23.2106C63.1193 23.1874 63.2503 23.1868 63.2398 23.0186C63.261 23.0141 63.2833 23.0093 63.3045 23.0048L63.3052 23.0037Z" fill="#FBC725"/>
<path d="M17.4919 31.6058C16.8661 30.8975 16.2404 30.1893 15.8359 29.321C15.7582 29.1549 15.6798 28.99 15.6012 28.8241C15.6266 28.621 15.7787 28.511 15.9164 28.3849C16.0447 28.2668 16.2001 28.1914 16.325 28.062C16.7316 27.6447 16.8732 27.1193 17.0018 26.5805C17.3098 25.2955 16.8577 24.2558 15.986 23.3395C15.7016 23.0409 15.3213 22.8988 14.9846 22.6909C14.8566 22.6112 14.8713 22.4285 14.7137 22.4085C14.6334 22.4912 14.7741 22.6217 14.627 22.7034C14.5053 22.5154 14.2505 22.6835 14.1108 22.5105C14.198 22.4697 14.2111 22.3984 14.2124 22.3093C14.2178 21.3004 14.3764 20.3185 14.7382 19.3721C14.7789 19.2646 14.791 19.146 14.8163 19.0327C15.2163 18.5552 15.4307 17.9549 15.8437 17.4868C16.2798 17.0037 16.7196 16.5239 17.2961 16.1986C17.3966 16.2872 17.2284 16.3027 17.2491 16.3619C17.3748 16.7114 17.2276 17.0675 17.2867 17.4262C17.3378 17.7331 17.2424 18.063 17.2679 18.3774C17.3045 18.8155 17.3453 19.2587 17.3671 19.6939C17.4305 20.9746 17.5999 22.2369 17.8463 23.4908C18.0026 24.2878 18.1067 25.0959 18.3536 25.8726C18.4258 26.0983 18.3363 26.3372 18.447 26.5588C18.6147 26.8924 18.7204 27.2472 18.7937 27.6159C18.973 28.5069 19.3158 29.3459 19.6106 30.2012C19.901 31.0453 20.2923 31.8468 20.6574 32.6579C20.7477 32.8596 20.7941 33.111 20.991 33.2639C20.3124 33.1801 19.6912 32.9157 19.0676 32.6589C18.542 32.3076 18.0166 31.9573 17.4909 31.606L17.4919 31.6058Z" fill="#C9181E"/>
<path d="M6.28217 28.1791C6.04111 27.4627 5.9751 26.7534 6.36686 26.0619C6.69259 25.5297 7.14313 25.1716 7.76497 25.0404C8.77217 24.8284 9.77793 24.6096 10.7833 24.3938C10.8248 24.385 10.8673 24.376 10.9098 24.367C10.9561 24.3571 11.003 24.3451 11.0491 24.3343C11.1947 24.4496 11.0952 24.5938 11.0849 24.7211C10.9994 25.861 11.2064 26.9397 11.7616 27.9424C12.0463 28.4559 12.057 28.4496 11.558 28.6696C10.6304 28.8668 9.70295 29.065 8.77649 29.2629C8.70544 29.2134 8.64676 29.2269 8.6008 29.3002C8.00943 29.3896 7.4745 29.232 6.97269 28.9311C6.74187 28.6806 6.51202 28.4298 6.2812 28.1793L6.28217 28.1791Z" fill="#C9181E"/>
<path d="M51.4512 9.10323C51.3558 9.23346 51.2039 9.22136 51.0707 9.24967C50.0751 9.46431 49.0787 9.67006 48.0844 9.89048C47.0553 10.1183 46.3664 10.7267 46.1354 11.7664C46.0276 12.2513 46.0869 12.7532 46.1986 13.2409C44.7256 13.554 43.2523 13.8611 41.7814 14.1838C41.6117 14.2209 41.4031 14.1654 41.2744 14.343L41.2797 14.3298C41.3468 13.7436 41.5634 13.2295 41.9012 12.735C42.1389 12.3869 42.3504 12.0242 42.6442 11.7166C43.7158 10.5971 45.0321 9.88863 46.4952 9.42935C48.1209 8.91837 49.7722 8.80341 51.4502 9.10343L51.4512 9.10323Z" fill="#C9181E"/>
<path d="M48.5503 24.2758C48.659 24.8681 48.8684 25.4117 49.3125 25.8398C49.3606 25.886 49.4252 25.9147 49.4814 25.9511L49.4787 25.9477C49.921 26.4387 50.5103 26.5294 51.1256 26.5428C51.1814 26.5491 51.2412 26.5697 51.2934 26.5586C52.4544 26.3108 53.6156 26.059 54.7758 25.8073C54.8 25.8072 54.8241 25.8071 54.8485 25.808C54.8498 25.8279 54.8517 25.8466 54.8549 25.8661C54.3059 26.3732 53.6226 26.6476 52.9482 26.916C51.3396 27.5545 49.6651 27.7742 47.9461 27.5566C46.4572 27.3677 45.096 26.8732 44.0208 25.7682C43.8916 25.6353 43.7661 25.5005 43.6794 25.3344C43.744 25.3065 43.8087 25.2786 43.8734 25.2508C43.9231 25.2422 43.9725 25.2327 44.022 25.2232L44.144 25.1993C45.4774 24.9129 46.8117 24.6262 48.1449 24.3388C48.166 24.3474 48.1843 24.3435 48.2 24.3271L48.3505 24.2951L48.5479 24.2743L48.5503 24.2758Z" fill="#C9181E"/>
<path d="M16.0441 11.2151C16.3978 11.2035 16.7481 11.2612 17.1062 11.1709C17.3868 11.1002 17.5862 11.0225 17.5627 10.6936C17.8384 11.4259 18.1143 12.1591 18.39 12.8913C17.7595 13.0627 17.3196 13.6747 17.3996 14.2932C17.4344 14.5612 17.3692 14.805 17.2562 15.0328C17.0453 15.4599 16.584 15.5015 16.2757 15.1333C16.2054 15.0494 16.1343 14.9807 16.0182 14.9802C15.5209 14.9427 15.0226 14.9053 14.5253 14.8678C14.0938 14.4562 14.2657 13.9263 14.304 13.4562C14.3427 12.993 14.3564 12.5352 14.3383 12.075C14.3252 11.762 14.3661 11.4749 14.6039 11.2458C15.0791 11.0178 15.564 11.2012 16.0447 11.213L16.0441 11.2151Z" fill="#FAC78C"/>
<path d="M23.391 38.0284C23.3542 37.8173 23.2548 37.7578 23.0301 37.8116C22.5963 37.9159 22.1413 37.9541 21.8528 38.3624C21.6967 38.3351 21.5902 38.4465 21.4718 38.511C21.1555 38.6842 20.8528 38.8837 20.4835 38.9259C19.9654 38.6769 19.9855 38.0926 19.7103 37.6951C19.4306 37.2905 19.2887 36.8315 19.1035 36.3876C18.9969 36.1329 18.8535 35.89 18.9847 35.6009C19.2999 35.4269 19.6195 35.2601 19.9297 35.0772C20.041 35.0122 20.2139 34.9996 20.2186 34.813C20.3895 34.81 20.3976 34.668 20.4546 34.5561C20.6703 34.133 21.0893 34.0681 21.415 34.4135C21.5883 34.5976 21.7347 34.7974 21.8275 35.0491C22.1074 35.8107 22.8352 36.0544 23.3626 35.5883C23.3112 35.8494 23.2888 36.1093 23.3084 36.3775C23.3495 36.9266 23.3658 37.478 23.3929 38.028L23.391 38.0284Z" fill="#FAC78C"/>
<path d="M14.1116 22.5094C14.2515 22.6834 14.5061 22.5143 14.6278 22.7023C14.7749 22.6206 14.6343 22.491 14.7144 22.4074C14.8722 22.4284 14.8576 22.611 14.9853 22.6898C15.3223 22.8986 15.7024 23.0398 15.9868 23.3384C16.8587 24.2556 17.3108 25.2954 17.0026 26.5795C16.873 27.1184 16.7312 27.6428 16.3257 28.0609C16.1997 28.1896 16.0454 28.2658 15.9172 28.3838C15.7795 28.5099 15.6283 28.6197 15.6019 28.823C15.5379 28.7448 15.458 28.6872 15.3652 28.7584C14.8621 29.1397 14.2789 29.2202 13.6732 29.2279C13.6715 29.1819 13.6481 29.1193 13.6704 29.0914C14.1305 28.4983 14.0941 27.8332 13.9532 27.156C13.7756 26.297 13.5894 25.4398 13.408 24.5816C13.259 23.8809 13.0299 23.2346 12.3104 22.9063C12.2958 22.8994 12.3047 22.842 12.3026 22.8081C12.8744 22.5222 13.4766 22.4174 14.1104 22.5086L14.1116 22.5094ZM15.9525 27.762C16.2296 27.6325 16.421 27.2942 16.3612 27.0033C16.1424 25.9502 15.9348 24.8928 15.6805 23.8484C15.5991 23.5126 15.403 23.1881 14.9722 23.1597C14.8231 22.9281 14.5553 23.0637 14.3632 22.9623C14.0352 22.7909 13.6807 22.8461 13.3335 22.8644C13.138 22.8747 13.0184 22.9243 13.1911 23.1579C13.4855 23.5554 13.6518 24.0153 13.7519 24.5004C13.9147 25.2899 14.0748 26.0811 14.2578 26.8663C14.3921 27.441 14.4445 28.0149 14.3314 28.5938C14.2811 28.8506 14.4221 28.8257 14.5597 28.7661C14.8792 28.6266 15.2056 28.4917 15.4968 28.3047C15.6921 28.1794 15.8919 28.018 15.9544 27.7616L15.9525 27.762Z" fill="#ED1D23"/>
<path d="M12.3038 22.8089C12.3059 22.8427 12.2971 22.9011 12.3115 22.9071C13.031 23.2353 13.2602 23.8816 13.4091 24.5823C13.5915 25.4403 13.7768 26.2977 13.9543 27.1567C14.0943 27.8341 14.1317 28.499 13.6716 29.0921C13.6502 29.1198 13.6727 29.1826 13.6744 29.2287C13.1844 29.2158 12.7627 29.0311 12.4107 28.6994C12.2608 28.5587 12.1125 28.559 11.9353 28.6078C11.8131 28.6408 11.6851 28.6508 11.5601 28.6704C12.0592 28.4503 12.0484 28.4566 11.7637 27.9432C11.2086 26.9404 11.0005 25.8619 11.0871 24.7218C11.0964 24.5948 11.1959 24.4505 11.0513 24.335C11.1948 24.2319 11.218 24.0656 11.275 23.9162C11.47 23.4098 11.794 23.0211 12.3055 22.8075L12.3038 22.8089ZM13.343 25.9753C13.158 25.2187 13.07 24.4345 12.6817 23.7373C12.5773 23.5497 12.4656 23.3232 12.2367 23.3477C12.0146 23.3707 11.8865 23.5845 11.7726 23.7842C11.3836 24.4651 11.3886 25.1863 11.5155 25.926C11.6612 26.7726 11.8551 27.604 12.4592 28.2583C12.7069 28.5265 13.0446 28.9096 13.3824 28.7521C13.7358 28.5872 13.6874 28.0891 13.6469 27.6992C13.5859 27.118 13.4811 26.5442 13.3432 25.9763L13.343 25.9753Z" fill="#EF582B"/>
<path d="M14.5248 14.8701C15.0221 14.9076 15.5203 14.945 16.0174 14.9815C15.9695 15.5011 16.1251 16.0531 15.7755 16.5249C15.4635 16.7092 15.1407 16.7425 14.8064 16.5887C14.6673 16.3237 14.5179 16.1143 14.182 16.0152C13.6568 15.8606 13.3912 15.4227 13.3997 14.8883C13.4188 13.6869 13.4785 12.4869 13.5229 11.2862C13.5279 11.1388 13.5593 10.9778 13.7439 10.992C13.9488 11.007 13.9005 11.1877 13.8947 11.3221C13.8522 12.4176 13.8075 13.5125 13.7629 14.6084C13.7361 15.2556 13.9558 15.5822 14.5195 15.6994C14.5215 15.4195 14.5236 15.1447 14.5256 14.8689L14.5248 14.8701Z" fill="#353D43"/>
<path d="M20.2167 34.8134C20.212 35.0001 20.0389 35.0116 19.9278 35.0776C19.6176 35.2605 19.2991 35.4281 18.9828 35.6013C18.8925 35.4137 18.801 35.2253 18.7116 35.0375C18.5816 34.7625 18.4969 34.7533 18.3139 35.0081C18.1139 35.2866 18.0788 35.5917 18.2279 35.8989C18.7126 36.9025 19.2054 37.9013 19.6956 38.9027C19.7365 38.9858 19.783 39.0667 19.8127 39.1542C19.8478 39.2577 19.9247 39.3775 19.7544 39.445C19.5953 39.5081 19.5391 39.3767 19.4922 39.2838C19.1793 38.6614 18.8785 38.0343 18.5712 37.4097C18.3299 36.9203 18.0448 36.4523 17.8781 35.9289C17.7029 35.38 17.8163 34.9121 18.2886 34.5615C18.5275 34.3847 18.4577 34.1322 18.4863 33.9012C18.7334 33.6398 19.0669 33.6093 19.3944 33.5649C19.8908 33.8356 19.9782 34.3749 20.2152 34.8158L20.2167 34.8134Z" fill="#353D43"/>
<path d="M18.3902 12.8924C18.1145 12.1602 17.8386 11.427 17.5629 10.6947L17.5661 10.691C17.5887 10.669 17.6122 10.6469 17.6348 10.6249C17.9684 10.5571 18.3009 10.4884 18.6345 10.4205C18.6496 10.4486 18.6646 10.4767 18.6795 10.5038C18.9837 11.2612 19.2882 12.0196 19.5925 12.7771C19.6012 12.8136 19.6102 12.851 19.6199 12.8873C19.4634 12.9246 19.3077 12.9607 19.1511 12.998C18.9874 12.935 18.8407 12.9803 18.7014 13.0704L18.6102 13.0777C18.5332 13.0194 18.4969 12.9151 18.3909 12.8913L18.3902 12.8924Z" fill="#0AAD0A"/>
<path d="M23.391 38.0284C23.3639 37.4783 23.3476 36.927 23.3065 36.3779C23.2869 36.1097 23.3093 35.8497 23.3607 35.5886L23.3651 35.5857L24.3749 35.3761L24.3932 35.3722C24.428 35.9105 24.4615 36.4481 24.4962 36.9865C24.3921 37.3082 24.5011 37.6169 24.5554 37.9292C24.2449 38.1061 23.8874 38.1044 23.5548 38.1963C23.4186 38.2343 23.4137 38.1164 23.391 38.0284V38.0284Z" fill="#0AAD0A"/>
<path d="M16.0442 11.2151C15.5634 11.2033 15.0785 11.0199 14.6034 11.248C14.5537 10.9478 14.564 10.645 14.5924 10.3465C14.63 9.95415 14.9425 9.68196 15.3204 9.6803C15.6814 9.67923 16.0004 9.93625 16.0409 10.312C16.0729 10.6098 16.0458 10.9141 16.0451 11.2149L16.0442 11.2151Z" fill="#353D43"/>
<path d="M20.4827 38.9271C20.8528 38.8838 21.1557 38.6852 21.471 38.5123C21.5895 38.4478 21.6959 38.3364 21.8521 38.3637C21.9408 38.5769 22.026 38.7928 22.1183 39.0041C22.2847 39.3834 22.1493 39.7572 21.7618 39.9706C21.4746 40.1285 21.0416 40.0138 20.8605 39.7032C20.7161 39.4555 20.6076 39.1871 20.4827 38.9271V38.9271Z" fill="#353D43"/>
<path d="M14.8066 16.5896C15.1411 16.7444 15.4628 16.7104 15.7757 16.5258C15.8341 16.8433 15.7462 17.1706 15.8433 17.4849C15.4305 17.9539 15.2159 18.5534 14.8159 19.0308C14.7831 18.2166 14.7534 17.4028 14.8063 16.5886L14.8066 16.5896Z" fill="#676C74"/>
<path d="M19.3959 33.5625C19.0684 33.6069 18.7349 33.6375 18.4878 33.8988C18.1557 33.1341 17.8237 32.3695 17.4919 31.6058C18.0175 31.957 18.543 32.3074 19.0686 32.6587C19.1068 32.9854 19.3082 33.2543 19.3951 33.5637L19.3959 33.5625Z" fill="#676C74"/>
<path d="M6.28219 28.1792C6.51301 28.4298 6.74286 28.6805 6.97368 28.931C6.43002 29.0456 5.88616 29.1592 5.3425 29.2737C5.34905 29.1906 5.40164 29.1532 5.47631 29.1343C5.79067 29.0564 6.10211 28.9458 6.42102 28.9083C6.65334 28.8811 6.59335 28.7698 6.50545 28.7027C6.32221 28.5621 6.30543 28.374 6.28199 28.1783L6.28219 28.1792Z" fill="#0F2128"/>
<path d="M23.287 10.5745C23.0206 10.7169 22.7671 10.5397 22.5136 10.5149C22.0048 10.4657 21.496 10.4074 20.9839 10.3811C20.8809 10.3758 20.7702 10.3771 20.6972 10.2806C21.2072 10.1833 21.7068 10.3172 22.2088 10.3578C22.5721 10.3865 22.9441 10.4184 23.286 10.5747L23.287 10.5745Z" fill="#FAC78C"/>
<path d="M28.2297 12.436C27.9339 12.5584 27.7817 12.3265 27.5713 12.1957C27.2578 12.0021 26.8729 11.9285 26.6103 11.6424C27.1949 11.8157 27.7541 12.0398 28.2297 12.436Z" fill="#F8DD27"/>
<path d="M25.2916 11.1058C25.0899 11.2344 24.9525 11.0296 24.7827 10.9951C24.3982 10.9184 23.9944 10.8792 23.6556 10.6476C24.2219 10.7249 24.7912 10.7925 25.2916 11.1058Z" fill="#FAC78C"/>
<path d="M26.6103 11.6424C26.1243 11.6439 25.7259 11.4259 25.3515 11.1454C25.803 11.229 26.2359 11.3619 26.6103 11.6424Z" fill="#F8DD27"/>
<path d="M20.5782 10.2899C20.2379 10.3552 19.8981 10.4889 19.5528 10.3122C19.8932 10.2287 20.2352 10.2619 20.5782 10.2899Z" fill="#FAC78C"/>
<path d="M18.6795 10.5039C18.6644 10.4758 18.6494 10.4477 18.6346 10.4206C18.8928 10.3112 19.1651 10.325 19.4357 10.326C19.1985 10.449 18.9344 10.4598 18.6787 10.505L18.6795 10.5039Z" fill="#FAC78C"/>
<path d="M28.7043 12.7035C28.4909 12.7105 28.3169 12.6466 28.2272 12.4336C28.4018 12.4954 28.5898 12.5351 28.7043 12.7035Z" fill="#F8DD27"/>
<path d="M4.78524 29.3528C4.77273 29.2132 4.86521 29.1784 4.97558 29.166C5.12731 29.1489 5.03521 29.2805 5.07434 29.3317C4.98122 29.3777 4.88613 29.405 4.78524 29.3528Z" fill="#0F2128"/>
<path d="M29.0457 12.9143C28.8752 12.9363 28.729 12.9198 28.7055 12.7042C28.8496 12.7252 28.9619 12.7965 29.0457 12.9143V12.9143Z" fill="#F8DD27"/>
<path d="M29.2397 13.084C29.1607 13.0411 29.0451 13.0404 29.0418 12.9105C29.1574 12.9112 29.2186 12.9752 29.2397 13.084Z" fill="#F8DD27"/>
<path d="M8.60199 29.301C8.64831 29.2284 8.70621 29.2151 8.77826 29.2636C8.71918 29.2761 8.66107 29.2885 8.60199 29.301Z" fill="#EF582B"/>
<path d="M10.9104 24.3678C10.8678 24.3769 10.8252 24.3859 10.7835 24.3948C10.8181 24.348 10.8609 24.3399 10.9104 24.3678Z" fill="#EF582B"/>
<path d="M54.856 25.8669C54.8529 25.8473 54.8507 25.8276 54.8497 25.8085C54.8739 25.8034 54.8976 25.8004 54.9218 25.7953C54.9196 25.8372 54.905 25.8687 54.856 25.8669V25.8669Z" fill="#EF582B"/>
<path d="M17.6348 10.6237C17.6122 10.6457 17.5886 10.6679 17.5659 10.6899C17.5624 10.6401 17.59 10.6221 17.6348 10.6237Z" fill="#FAC78C"/>
<path d="M54.9193 25.7991L54.9469 25.7527C54.9551 25.7581 54.9645 25.7642 54.9727 25.7695C54.9573 25.7829 54.9392 25.7928 54.9193 25.7991Z" fill="#EF582B"/>
<path d="M18.073 19.4833C21.4713 18.7589 24.8699 18.0355 28.267 17.3104C28.3925 17.2837 28.5166 17.2503 28.6424 17.2205C28.7821 17.3795 28.9386 17.5318 28.8717 17.777C28.7451 17.8887 28.595 17.8661 28.4405 17.8657C27.9355 17.863 27.4468 17.9558 26.98 18.1519C26.9378 18.1669 26.8948 18.1831 26.8526 18.1981C26.7526 18.2073 26.6469 18.2035 26.5878 18.3099C26.1831 18.3707 25.9127 18.6985 25.5439 18.8334C24.4749 19.0112 23.4585 19.3412 22.5121 19.8723C21.4122 20.4884 20.7985 21.3794 20.8026 22.6899C20.8062 23.7604 20.9919 24.7811 21.4403 25.742C21.9433 26.8223 22.7956 27.5046 23.9838 27.703C25.1292 27.8943 26.2645 27.777 27.384 27.4856C27.6424 27.5528 27.9062 27.5502 28.17 27.5476C28.2497 27.5901 28.325 27.674 28.416 27.5659L28.5309 27.5465C28.6862 27.6315 28.8455 27.5835 29.0054 27.5667C29.6415 27.4981 30.2325 27.2645 30.8374 27.0774C31.0532 27.5087 30.8877 27.912 30.7428 28.3171C30.6266 28.3257 30.5071 28.3188 30.3959 28.3464C28.5938 28.7961 26.7674 29.1318 24.9538 29.5274C23.4814 29.8484 22.0044 30.1473 20.5286 30.4569C20.4731 30.4001 20.3952 30.3703 20.368 30.2802C20.184 29.6566 19.8852 29.0675 19.7242 28.443C19.4745 27.4722 19.1713 26.5158 18.9436 25.5393C18.664 24.3378 18.4972 23.1164 18.2807 21.9035C18.1513 21.1805 18.1411 20.4493 18.0115 19.7304C17.998 19.6525 17.9583 19.5419 18.072 19.4835L18.073 19.4833Z" fill="#353D43"/>
<path d="M26.98 18.152C27.4468 17.956 27.9355 17.8632 28.4405 17.8658C28.595 17.8662 28.7441 17.889 28.8717 17.7772C29.3322 17.9123 29.8192 17.8824 30.2845 18.0115C31.7338 18.4126 32.8307 19.2447 33.536 20.5786C33.8337 21.2578 33.9526 21.9739 33.9907 22.7083C33.9234 23.232 33.8321 23.7517 33.6442 24.2486C33.1948 25.1531 32.5871 25.9299 31.7794 26.5444C31.4651 26.7222 31.1517 26.8998 30.8367 27.0787C30.2318 27.2658 29.641 27.5003 29.0046 27.568C28.8438 27.585 28.6843 27.6321 28.5302 27.5478C28.9275 27.3806 29.3686 27.4009 29.7459 27.0826C30.1224 26.7655 30.6305 26.6262 30.9753 26.212C31.3088 25.8113 31.6752 25.4227 31.897 24.9619C32.4536 23.8067 32.6011 22.6072 32.1333 21.365C31.8974 20.7393 31.5698 20.1663 31.111 19.707C30.682 19.2787 30.1838 18.8903 29.5895 18.6908C29.4177 18.6325 29.3365 18.3976 29.1484 18.4477C28.6614 18.5774 28.2665 18.2145 27.7859 18.2269C27.5401 18.2337 27.2382 18.2706 26.9802 18.153L26.98 18.152Z" fill="#0AAD0A"/>
<path d="M31.7792 26.5434C32.5869 25.9289 33.1934 25.1513 33.644 24.2475C33.836 24.4438 33.7031 24.5921 33.5652 24.7313C33.3806 24.9168 33.3985 25.0532 33.6486 25.1474C33.6752 25.2728 33.7201 25.4126 33.5686 25.4831C33.4081 25.5586 33.3343 25.6388 33.335 25.8415C33.3357 26.0582 33.1175 25.8766 33.0072 25.9414C32.7303 26.1052 32.3691 26.1053 32.1661 26.4268C32.1118 26.513 31.912 26.5081 31.7794 26.5443L31.7792 26.5434ZM33.3465 25.0694L33.3671 25.0337L33.3418 25.0663C33.2936 25.0866 33.2348 25.0991 33.2577 25.174C33.2594 25.1817 33.2758 25.1923 33.2835 25.1907C33.3598 25.1795 33.3485 25.1214 33.3455 25.0696L33.3465 25.0694Z" fill="#FBC725"/>
<path d="M24.4134 13.4531C23.8682 13.347 23.3582 13.1165 22.8088 13.0144C22.1439 12.8904 21.4765 12.8406 20.8041 12.8433C20.4091 12.8456 20.014 12.871 19.6197 12.8862C19.611 12.8498 19.602 12.8123 19.5933 12.7759C19.8606 12.8471 20.1254 12.7545 20.3867 12.7353C21.2111 12.6741 22.0251 12.6685 22.8272 12.8965C22.941 12.9288 23.0705 13.0162 23.1655 12.8508C23.1765 12.8313 23.2433 12.8181 23.2558 12.8296C23.5671 13.1407 24.035 13.1159 24.3783 13.3546C24.402 13.3708 24.4029 13.418 24.4149 13.4507L24.4134 13.4531Z" fill="#F8DD27"/>
<path d="M43.1168 20.7562C43.2162 21.651 43.25 22.5406 42.9305 23.4064C42.7787 23.1906 43.0272 22.9642 42.9135 22.7473C43.0923 22.5015 43.0043 22.2156 43.0272 21.9484C43.0965 21.1257 42.7975 20.355 42.6817 19.5585C42.664 19.4372 42.7887 19.2836 42.7185 19.1291C42.8185 18.9585 42.6865 18.803 42.6861 18.6396C42.8951 19.2146 43.0365 19.8039 43.065 20.4172C43.0221 20.2155 42.9792 20.0138 42.9363 19.8121C42.9723 20.1333 42.9332 20.4714 43.1147 20.7557L43.1168 20.7562Z" fill="#FBC725"/>
<path d="M24.4953 36.9868C24.4605 36.4485 24.4268 35.9099 24.3921 35.3716C24.5989 35.5566 24.9329 35.5572 25.196 35.347C25.3236 35.2452 25.4462 35.1808 25.605 35.2257C25.6221 35.2302 25.6327 35.3086 25.6239 35.3478C25.5812 35.5314 25.4085 35.4924 25.2836 35.5361C25.2506 35.5472 25.215 35.5507 25.1813 35.5579C24.5471 35.6927 24.45 35.8576 24.5567 36.5118C24.5816 36.6618 24.7822 36.8653 24.4953 36.9868V36.9868Z" fill="#F8DD27"/>
<path d="M28.4109 16.7957C28.0545 16.6142 27.9558 16.2115 27.6916 15.9418C27.4749 15.7196 27.1921 15.5285 27.0757 15.2133C27.1974 15.2066 27.3012 15.2299 27.3859 15.334C27.7004 15.7221 28.0261 16.1007 28.3337 16.4943C28.3921 16.5697 28.3862 16.694 28.4099 16.7959L28.4109 16.7957Z" fill="#FAC78C"/>
<path d="M41.9799 24.7958C41.1792 25.1536 40.3522 25.4444 39.5304 25.7502C39.6933 25.534 39.9526 25.4678 40.1807 25.378C40.7505 25.154 41.3369 24.9698 41.9173 24.7718C41.9333 24.7664 41.9589 24.7872 41.9799 24.7958V24.7958Z" fill="#FBC725"/>
<path d="M26.4531 34.5259C26.855 34.1147 27.3742 33.857 27.8151 33.496C27.8992 33.4549 27.984 33.4127 28.0681 33.3716C28.0092 33.7069 27.6614 33.7556 27.459 33.9378C27.2465 34.1293 26.9527 34.2422 26.7395 34.459C26.6649 34.5354 26.5661 34.5785 26.454 34.5257L26.4531 34.5259Z" fill="#F8DD27"/>
<path d="M28.9913 32.3088C29.3493 31.7334 29.7081 31.1578 30.0661 30.5824C30.1065 30.939 29.8502 31.176 29.6906 31.441C29.4995 31.757 29.3438 32.1159 28.9923 32.3086L28.9913 32.3088Z" fill="#FAC78C"/>
<path d="M29.8735 13.4486C29.9927 13.5111 30.1132 13.5702 30.1967 13.6826C30.1197 13.9329 29.9849 13.9535 29.7432 13.8607C29.4301 13.7406 29.1934 13.5478 28.9055 13.2327C29.2514 13.2984 29.4204 13.4905 29.6278 13.6027C29.7975 13.6938 29.9273 13.7156 29.8735 13.4486V13.4486Z" fill="#F8DD27"/>
<path d="M28.0669 33.3707C27.9828 33.4118 27.898 33.454 27.8139 33.4951C27.8121 33.4723 27.7989 33.4388 27.81 33.4294C28.2025 33.0544 28.5967 32.6831 28.9906 32.3099C28.8332 32.7943 28.4791 33.1076 28.0669 33.3707V33.3707Z" fill="#FAC78C"/>
<path d="M24.7272 35.2346C25.2427 34.9879 25.7437 34.7059 26.3134 34.5949C25.8353 34.9325 25.3193 35.1774 24.7272 35.2346Z" fill="#F8DD27"/>
<path d="M32.8735 15.7149C33.6607 15.6686 34.4465 15.5873 35.2368 15.613C34.4987 15.8143 33.7378 15.7087 32.9893 15.7851C32.9537 15.7886 32.9119 15.739 32.8735 15.7149Z" fill="#FBC725"/>
<path d="M31.5815 14.758C32.0036 15.0305 32.3307 15.4159 32.7198 15.7276C32.7082 15.73 32.6963 15.7356 32.686 15.7348C32.3356 15.6811 31.6706 15.0921 31.5815 14.758Z" fill="#FBC725"/>
<path d="M39.9063 15.363C40.1103 15.3499 40.3213 15.2506 40.5085 15.4196C40.4224 15.4701 40.2925 15.4473 40.2472 15.5619C40.1841 15.7205 40.0792 15.7731 39.9216 15.7057C39.686 15.6035 39.9506 15.4766 39.9065 15.3639L39.9063 15.363Z" fill="#F8DD27"/>
<path d="M33.9895 22.7074C33.9515 21.973 33.8323 21.2559 33.5348 20.5777C33.6558 20.5631 33.6968 20.6371 33.7185 20.7394C33.841 21.3206 33.9647 21.9026 34.0892 22.4834C34.1107 22.5847 34.1065 22.6694 33.9895 22.7074V22.7074Z" fill="#FBC725"/>
<path d="M42.9135 22.7473C42.6734 22.7661 42.4575 22.5003 42.5384 22.2733C42.5938 22.1163 42.6915 22.2155 42.75 22.2676C42.8917 22.3929 42.8592 22.5864 42.9145 22.7471L42.9135 22.7473Z" fill="#F8DD27"/>
<path d="M35.9093 26.6894C35.7876 26.8999 35.6167 26.9978 35.3911 26.9711C35.3434 26.9651 35.3082 26.8989 35.3382 26.8643C35.4893 26.6879 35.7229 26.7614 35.9093 26.6894V26.6894Z" fill="#F8DD27"/>
<path d="M40.3046 15.8937C40.4499 15.7942 40.566 15.7423 40.6965 15.8246C40.7419 15.8532 40.7659 15.947 40.7215 15.9756C40.5783 16.0706 40.4595 15.9818 40.3046 15.8937Z" fill="#F8DD27"/>
<path d="M31.073 14.3495C31.2679 14.4503 31.4428 14.5756 31.5764 14.7529C31.3008 14.752 31.1361 14.6135 31.073 14.3495Z" fill="#FBC725"/>
<path d="M42.9322 23.4091C42.9208 23.6214 42.8649 23.8189 42.7441 23.9958C42.6949 23.7642 42.6771 23.543 42.9322 23.4091Z" fill="#FBC725"/>
<path d="M42.2382 24.2266C42.1208 24.3958 42.0327 24.4841 41.8831 24.4352C41.8298 24.4173 41.8188 24.3511 41.8443 24.3194C41.9345 24.2074 42.0581 24.2195 42.2382 24.2266V24.2266Z" fill="#F8DD27"/>
<path d="M42.6873 18.6405C42.6879 18.8048 42.8187 18.9595 42.7197 19.1299C42.646 18.7834 42.5724 18.4369 42.4997 18.0902C42.623 18.2527 42.6457 18.4496 42.6871 18.6395L42.6873 18.6405Z" fill="#F8DD27"/>
<path d="M23.3651 35.5857C23.6751 35.3827 24.0409 35.3806 24.3862 35.3062C24.3821 35.3292 24.3789 35.3521 24.3747 35.3752C24.0374 35.4449 23.7013 35.5153 23.3649 35.5848L23.3651 35.5857Z" fill="#FAC78C"/>
<path d="M42.548 24.3454C42.5055 24.5823 42.3676 24.7166 42.1242 24.7391C42.2633 24.6056 42.3657 24.4325 42.548 24.3454Z" fill="#FBC725"/>
<path d="M30.0687 30.5759C30.0062 30.3814 30.0918 30.2573 30.2605 30.173C30.3129 30.3626 30.2016 30.475 30.0687 30.5759Z" fill="#FAC78C"/>
<path d="M42.742 24.0003C42.7098 24.1332 42.6716 24.2624 42.5478 24.3442C42.4474 24.1375 42.5184 24.0256 42.742 24.0003Z" fill="#FBC725"/>
<path d="M30.2265 13.7134C30.3693 13.7496 30.4795 13.8311 30.5616 13.9519C30.3381 14.0297 30.2355 13.9365 30.2265 13.7134Z" fill="#FBC725"/>
<path d="M30.5601 13.9491C30.6942 13.9895 30.7895 14.0805 30.8764 14.1845C30.6612 14.2535 30.5612 14.1685 30.5601 13.9491Z" fill="#FBC725"/>
<path d="M33.6483 25.1465C33.6497 25.0622 33.5674 24.9704 33.6865 24.8783C33.7659 24.9899 33.811 25.0785 33.6483 25.1465Z" fill="#FBC725"/>
<path d="M30.8849 14.1911C30.9751 14.2104 31.0371 14.264 31.0732 14.3484C30.9354 14.3858 30.908 14.2904 30.8849 14.1911Z" fill="#FBC725"/>
<path d="M40.5069 15.4168C40.5311 15.4066 40.5515 15.4124 40.5671 15.4333C40.5295 15.4899 40.5153 15.4656 40.5069 15.4168Z" fill="#F8DD27"/>
<path d="M46.3445 13.9129C46.8444 16.2457 47.3462 18.5782 47.8432 20.9117C48.0328 21.8035 48.2127 22.6973 48.3976 23.5911C46.9596 23.8978 45.5205 24.2047 44.0825 24.5113C44.2074 24.273 44.2594 24.0006 44.4303 23.7837C45.0718 23.6504 45.7117 23.5093 46.3548 23.3878C46.606 23.3404 46.6828 23.2364 46.6275 22.9808C46.0655 20.3656 45.5094 17.7491 44.959 15.1314C44.9133 14.9161 44.8237 14.8746 44.6209 14.9218C43.9139 15.0842 43.2036 15.2311 42.4947 15.3848C42.2782 15.2351 42.076 15.0713 41.9417 14.8386C43.4088 14.5308 44.8757 14.222 46.3428 13.9142L46.3445 13.9129Z" fill="#676C74"/>
<path d="M42.4964 15.3834C43.2055 15.2306 43.9154 15.0818 44.6226 14.9203C44.8247 14.8744 44.915 14.9147 44.9607 15.1299C45.5111 17.7476 46.0663 20.3643 46.6292 22.9793C46.6838 23.2361 46.6068 23.3392 46.3565 23.3863C45.7135 23.5079 45.0736 23.6489 44.432 23.7823C44.3681 23.5104 44.5265 23.2588 44.5915 23.0281C44.735 22.5215 44.5655 21.9947 44.7734 21.5107C44.7862 21.4807 44.784 21.4418 44.7807 21.4072C44.6671 20.2844 44.5619 19.1488 44.1844 18.0891C44.0315 17.6596 43.9718 17.1508 43.5643 16.7714C43.3783 16.5991 43.2355 16.2451 43.0492 15.9952C42.8867 15.7765 42.6354 15.6292 42.4972 15.3822L42.4964 15.3834Z" fill="#353D43"/>
<path d="M46.3445 13.913C44.8774 14.2208 43.4106 14.5295 41.9435 14.8373C41.8089 14.7499 41.6784 14.6536 41.5133 14.6312C41.344 14.6087 41.2848 14.4962 41.2746 14.344C41.4034 14.1663 41.6119 14.2219 41.7816 14.1848C43.2525 13.8621 44.7256 13.554 46.1988 13.2418C46.2474 13.4656 46.2959 13.6893 46.3445 13.913V13.913Z" fill="#353D43"/>
<path d="M44.0823 24.5104C45.5203 24.2037 46.9594 23.8969 48.3974 23.5902C48.4423 23.7965 48.4879 24.0017 48.5328 24.208C48.4672 24.227 48.3895 24.2223 48.3523 24.2988C48.3021 24.3095 48.2519 24.3202 48.2017 24.3308C48.1957 24.3261 48.1863 24.315 48.1826 24.3167C48.1699 24.3235 48.158 24.3341 48.1467 24.3425C46.8133 24.629 45.479 24.9156 44.1458 25.203C44.0937 25.1526 44.0527 25.1593 44.0228 25.2272C43.9733 25.2367 43.9237 25.2452 43.8743 25.2547C43.8669 25.1867 43.8414 25.062 43.8547 25.0581C44.1493 24.9632 43.9927 24.6868 44.0819 24.5135L44.0823 24.5104Z" fill="#353D43"/>
<path d="M43.1168 20.7564C42.9354 20.4721 42.9745 20.134 42.9385 19.8128C42.9814 20.0145 43.0242 20.2162 43.0671 20.4179C43.0841 20.5313 43.1 20.6439 43.1171 20.7573L43.1168 20.7564Z" fill="#F8DD27"/>
<path d="M55.5526 24.7254C55.1843 24.7058 54.8361 24.8333 54.4809 24.8947C53.5814 25.0485 52.6785 25.2152 51.8038 25.4667C51.0232 25.6912 50.1309 25.1525 49.7705 24.6198C49.4702 24.1753 49.2928 23.7066 49.1838 23.1891C48.5387 20.1113 47.8888 17.0346 47.2217 13.9626C47.0389 13.1218 47.0519 12.2999 47.458 11.5478C47.6585 11.1764 48.0172 10.8369 48.4617 10.7404C52.2032 9.93096 55.9483 9.13895 59.6939 8.34886C59.9468 8.2951 60.2182 8.26667 60.4376 8.47321C60.4487 8.87638 60.1107 8.78177 59.9397 8.75054C59.4124 8.6528 58.9208 8.78452 58.4282 8.90639C57.9884 9.016 57.5367 9.11706 57.1208 9.27709C56.8391 9.38538 56.5352 9.49336 56.2432 9.64319C56.6413 9.74114 56.6031 10.0408 56.6527 10.4448C56.5045 10.2463 56.3761 10.1264 56.2866 10.3128C56.1863 10.5198 56.3969 10.4377 56.4726 10.4902C56.6295 10.597 56.6726 10.7715 56.5203 10.8946C56.2835 11.0862 56.3957 10.674 56.1842 10.7139C56.35 10.9621 55.842 11.406 56.4756 11.5104C56.4882 11.5128 56.4887 11.558 56.5046 11.5708C56.7316 11.7465 56.5718 11.9963 56.6179 12.2084C57.2741 15.2102 57.9083 18.2176 58.5433 21.2239C58.5802 21.3976 58.6843 21.5742 58.5538 21.7623C58.5129 21.8214 58.5477 21.8806 58.65 21.8922C58.8661 21.9168 58.9845 22.1983 58.8428 22.3717C58.7123 22.5316 58.593 22.6538 58.8462 22.8057C59.0568 22.9325 58.6611 23.1215 58.9121 23.3102C59.2174 23.5409 60.1767 23.6779 60.5056 23.4073C60.7975 23.1667 60.927 23.3016 61.0545 23.5549C60.8113 23.6449 60.524 23.589 60.3129 23.7822C60.197 23.8068 60.0812 23.8314 59.9663 23.8558C59.8408 23.7685 59.7163 23.8424 59.5966 23.8678C58.2485 24.1513 56.9011 24.4387 55.5536 24.7252L55.5526 24.7254Z" fill="#FEDD15"/>
<path d="M61.0535 23.555C60.926 23.3016 60.7965 23.1668 60.5046 23.4073C60.1759 23.679 59.2164 23.5409 58.9111 23.3103C58.6611 23.1213 59.0558 22.9325 58.8452 22.8058C58.592 22.6538 58.7113 22.5316 58.8418 22.3718C58.9835 22.1984 58.8642 21.9171 58.649 21.8922C58.5467 21.8807 58.5119 21.8215 58.5528 21.7624C58.6833 21.5742 58.5792 21.3976 58.5423 21.2239C57.9073 18.2177 57.2731 15.2102 56.6169 12.2085C56.5708 11.9964 56.7296 11.7467 56.5036 11.5709C56.4878 11.5581 56.487 11.5118 56.4746 11.5104C55.8401 11.4062 56.349 10.9622 56.1832 10.7139C56.3947 10.674 56.2825 11.0862 56.5193 10.8947C56.6717 10.7715 56.6285 10.5971 56.4716 10.4902C56.3949 10.4379 56.1855 10.5208 56.2856 10.3129C56.3753 10.1274 56.5035 10.2464 56.6517 10.4449C56.6021 10.0408 56.6405 9.74216 56.2422 9.64324C56.534 9.49245 56.8381 9.38544 57.1198 9.27715C57.5357 9.11711 57.9874 9.01606 58.4272 8.90644C58.9196 8.78361 59.4112 8.65189 59.9387 8.7506C60.11 8.78279 60.4477 8.87644 60.4366 8.47327C60.5653 8.47113 60.697 8.46432 60.7538 8.61768C60.7025 8.64171 60.62 8.69051 60.6782 8.73161C60.9058 8.89103 61.1488 9.02801 61.3857 9.17436C61.3991 9.13317 61.4128 9.09295 61.4262 9.05176C61.7622 9.24664 61.8477 9.59666 61.9639 9.92502C62.09 10.2805 62.0522 10.6628 62.1283 11.0259C62.768 14.0402 63.3962 17.057 64.0619 20.0658C64.1804 20.5995 64.3397 21.1023 64.2627 21.6654C64.2256 21.9325 63.9741 22.0162 63.9376 22.253C63.8969 22.5219 63.7327 22.7081 63.4858 22.8231C63.384 22.8427 63.2844 22.8629 63.3052 23.0037C63.284 23.0082 63.2618 23.0129 63.2406 23.0175C62.9748 23.077 62.7083 23.1336 62.4438 23.1989C62.3795 23.2146 62.3718 23.2828 62.3737 23.3439C62.3052 23.3585 62.2366 23.3731 62.1681 23.3877C61.7787 23.3211 61.4281 23.5137 61.0543 23.5538L61.0535 23.555ZM59.4016 22.5423C59.3179 22.6327 59.1759 22.3491 59.1318 22.5734C59.0964 22.7534 58.951 22.9568 59.1311 23.1253C59.3149 23.2971 59.5433 23.3797 59.8036 23.3183C59.8872 23.2985 59.966 23.2706 59.9568 23.1657C59.9484 23.0737 59.9346 22.9565 59.8095 22.971C59.4726 23.0093 59.4345 22.7824 59.4016 22.5423C59.9083 22.8946 60.4418 23.1736 61.0893 23.0541C61.4922 22.9795 61.4123 21.7787 61.8099 21.6791C62.6525 21.4667 62.3502 22.457 62.1706 21.6024C61.4535 18.191 62.1777 13.8591 61.4567 10.4484C61.2891 9.65488 60.436 8.95457 59.6663 8.95476C59.2354 8.95455 58.8308 9.05368 58.4203 9.13991C57.1442 9.40612 56.4829 10.4011 56.75 11.6718C57.3683 14.614 57.9951 17.5534 58.6212 20.494C58.7748 21.2168 58.8457 21.9725 59.4018 22.5432L59.4016 22.5423ZM57.1316 9.47536C57.1118 9.51489 57.0864 9.54248 57.0894 9.56606C57.0932 9.59349 57.1194 9.63633 57.139 9.63822C57.1937 9.64375 57.2134 9.5992 57.2005 9.55252C57.1942 9.52763 57.163 9.50905 57.1316 9.47536ZM56.7126 9.64917C56.708 9.67032 56.6946 9.69738 56.7022 9.70987C56.7109 9.72215 56.7419 9.72062 56.7628 9.72424C56.7674 9.70309 56.7818 9.67582 56.7731 9.66354C56.7645 9.65126 56.7335 9.65279 56.7124 9.64821L56.7126 9.64917Z" fill="#F8DD27"/>
<path d="M55.5526 24.7253C56.9002 24.4389 58.2475 24.1515 59.5956 23.868C59.7153 23.8425 59.8399 23.7686 59.9654 23.8559C58.6062 24.1448 57.2475 24.4357 55.888 24.7226C55.7789 24.7458 55.6646 24.8105 55.5524 24.7243L55.5526 24.7253Z" fill="#FDDD16"/>
<path d="M54.7779 25.8078C53.6175 26.0585 52.4563 26.3103 51.2955 26.5591C51.2434 26.5702 51.1833 26.5486 51.1277 26.5433C52.2881 26.2926 53.4485 26.0419 54.6095 25.7941C54.6626 25.7829 54.7213 25.8027 54.7779 25.8078V25.8078Z" fill="#EF582B"/>
<path d="M49.4824 25.9509C49.5064 25.7551 49.3505 25.6531 49.2357 25.5595C49.0694 25.4223 49.0412 25.2659 49.0412 25.0379C49.3266 25.1659 49.4217 25.414 49.5592 25.6239C49.5893 25.6709 49.5921 25.7359 49.6242 25.7825C49.6708 25.8503 49.8249 25.8821 49.7351 25.991C49.6645 26.0766 49.5724 25.9378 49.4808 25.9482L49.4836 25.9516L49.4824 25.9509Z" fill="#FDDD16"/>
<path d="M61.4253 9.05206C61.4118 9.09325 61.3982 9.13348 61.3848 9.17467C61.148 9.02929 60.9048 8.89134 60.6772 8.73191C60.6191 8.69082 60.7025 8.64182 60.7529 8.61798C61.0266 8.6859 61.2671 8.80627 61.4253 9.05206Z" fill="#FEDD15"/>
<path d="M62.373 23.3451C62.3711 23.284 62.3797 23.2156 62.443 23.2001C62.7076 23.1348 62.974 23.0782 63.2398 23.0186C63.2503 23.1869 63.1191 23.1865 63.0102 23.2107C62.7981 23.2568 62.5855 23.3009 62.372 23.3453L62.373 23.3451Z" fill="#FDDD16"/>
<path d="M61.0535 23.555C61.4274 23.5149 61.7779 23.3223 62.1673 23.3889C61.5486 23.5204 60.9308 23.6517 60.3121 23.7832C60.5232 23.59 60.8106 23.646 61.0537 23.556L61.0535 23.555Z" fill="#FDDD16"/>
<path d="M63.3052 23.0039C63.2843 22.8626 63.3852 22.8421 63.4864 22.8226C63.5085 22.9647 63.4077 22.9861 63.3052 23.0039Z" fill="#FDDD16"/>
<path d="M48.3531 24.2975C48.3904 24.2208 48.4674 24.2257 48.5341 24.2064C48.5391 24.2296 48.5458 24.2515 48.5517 24.2745C48.4855 24.2825 48.4192 24.2895 48.3541 24.2973L48.3531 24.2975Z" fill="#623A11"/>
<path d="M20.5284 30.456C20.469 30.7178 20.6337 30.9228 20.7247 31.1375C20.9907 31.7669 21.2845 32.3854 21.6211 32.9816C21.6761 33.0789 21.7819 33.1825 21.6938 33.295C21.6126 33.397 21.4775 33.3501 21.3654 33.3355C21.2398 33.3189 21.1171 33.2875 20.9928 33.2624C20.7958 33.1096 20.7494 32.8582 20.6592 32.6565C20.2941 31.8454 19.9027 31.0439 19.6123 30.1998C19.3175 29.3445 18.9745 28.5045 18.7955 27.6145C18.7214 27.2469 18.6165 26.891 18.4487 26.5574C18.3371 26.336 18.4277 26.0979 18.3553 25.8711C18.1085 25.0944 18.0041 24.2854 17.848 23.4894C17.6017 22.2354 17.4322 20.9732 17.3689 19.6925C17.347 19.2573 17.3062 18.8141 17.2696 18.376C17.243 18.0609 17.3395 17.7317 17.2884 17.4248C17.2283 17.0663 17.3766 16.71 17.2508 16.3605C17.229 16.3005 17.3984 16.2857 17.2978 16.1971C17.3348 16.1005 17.4236 16.0625 17.5061 16.0238C17.6664 15.9473 17.8189 15.7202 17.9961 15.8561C18.1444 15.9698 18.0619 16.2082 18.0447 16.3884C17.9445 17.4215 17.9207 18.4535 18.0749 19.4829C17.9612 19.5413 18.0007 19.651 18.0144 19.7298C18.144 20.4487 18.1541 21.1799 18.2836 21.9029C18.5001 23.1158 18.6669 24.3372 18.9465 25.5387C19.1742 26.5152 19.4774 27.4716 19.7271 28.4424C19.8879 29.0659 20.1859 29.6562 20.3708 30.2796C20.3971 30.3699 20.476 30.3995 20.5315 30.4563L20.5284 30.456Z" fill="#ED1D23"/>
<path d="M44.0231 25.2239C44.0524 25.1569 44.0943 25.1491 44.1465 25.1997C44.1059 25.2083 44.0648 25.215 44.0231 25.2239Z" fill="#623A11"/>
<path d="M48.1463 24.3405C48.1586 24.3318 48.1696 24.3214 48.1823 24.3147C48.1862 24.3138 48.1954 24.324 48.2015 24.3288C48.1858 24.3453 48.1672 24.3482 48.1463 24.3405V24.3405Z" fill="#623A11"/>
<path d="M15.9515 27.7621C15.889 28.0185 15.6883 28.1802 15.4939 28.3052C15.2027 28.4922 14.8763 28.6272 14.5569 28.7667C14.4192 28.8262 14.2782 28.8511 14.3285 28.5943C14.4425 28.0153 14.3892 27.4415 14.2549 26.8668C14.0719 26.0816 13.912 25.2914 13.749 24.5009C13.6489 24.0158 13.4826 23.5559 13.1882 23.1585C13.0157 22.9258 13.1353 22.8762 13.3306 22.8649C13.6778 22.8466 14.0312 22.7907 14.3603 22.9628C14.5532 23.063 14.8212 22.9284 14.9693 23.1602C15.1816 24.719 15.5124 26.2515 15.9505 27.7623L15.9515 27.7621Z" fill="#EF582B"/>
<path d="M15.9515 27.7621C15.5143 26.2511 15.1835 24.7186 14.9703 23.16C15.402 23.1883 15.5972 23.513 15.6786 23.8487C15.9331 24.8941 16.1405 25.9506 16.3593 27.0036C16.4201 27.2943 16.2277 27.6328 15.9505 27.7623L15.9515 27.7621Z" fill="#EE3820"/>
<path d="M13.3421 25.9755C13.4799 26.5434 13.5848 27.1173 13.6458 27.6985C13.686 28.0874 13.7346 28.5865 13.3812 28.7513C13.0425 28.9091 12.7048 28.5259 12.4581 28.2576C11.8539 27.6032 11.66 26.7719 11.5144 25.9252C11.3874 25.1856 11.3824 24.4644 11.7714 23.7835C11.8853 23.5838 12.0134 23.3699 12.2355 23.3469C12.4636 23.3237 12.5751 23.5491 12.6805 23.7365C13.0688 24.4338 13.1569 25.218 13.3419 25.9746L13.3421 25.9755Z" fill="#E0D7D8"/>
<path d="M19.1502 12.9981C19.0057 13.059 18.8594 13.1063 18.7005 13.0705C18.8397 12.9803 18.9865 12.935 19.1502 12.9981Z" fill="#FAC78C"/>
<path d="M18.6107 13.0775C18.4276 13.1448 18.4209 13.0035 18.3908 12.8905C18.4969 12.9135 18.5345 13.0189 18.6107 13.0775Z" fill="#FAC78C"/>
<path d="M26.98 18.152C27.238 18.2697 27.5399 18.2327 27.7856 18.2259C28.2663 18.2135 28.6622 18.5762 29.1482 18.4467C29.3363 18.3966 29.4167 18.6327 29.5893 18.6899C30.1835 18.8894 30.6827 19.2776 31.1108 19.7061C31.5696 20.1654 31.8981 20.7381 32.1331 21.364C32.6009 22.6062 32.4533 23.8057 31.8968 24.961C31.6749 25.4217 31.3086 25.8103 30.9751 26.211C30.6303 26.6253 30.1222 26.7645 29.7457 27.0816C29.3684 27.3999 28.9272 27.3797 28.53 27.5468C28.4919 27.5529 28.4531 27.5601 28.415 27.5662C28.3389 27.4785 28.2543 27.5126 28.1692 27.5489C27.9054 27.5515 27.6417 27.5541 27.3832 27.4869C27.2617 27.3947 27.1147 27.4482 26.979 27.4175C24.9962 26.9745 23.3111 25.2405 23.2411 23.1744C23.203 22.0456 23.5141 21.0363 24.191 20.1198C24.5709 19.6052 25.0311 19.1977 25.5431 18.8347C25.9112 18.701 26.1813 18.3722 26.587 18.3112C26.7276 18.3983 26.8351 18.4057 26.8518 18.1994C26.894 18.1844 26.937 18.1682 26.9792 18.1532L26.98 18.152ZM30.3336 22.4194C30.2193 21.7728 29.9352 21.3379 29.4874 20.9065C28.8884 20.3288 28.1966 20.1449 27.4516 20.1005C26.6455 20.053 25.8931 20.3198 25.2209 20.7835C24.735 21.1178 24.398 21.5828 24.1902 22.1142C23.8681 22.9392 24.0429 23.7282 24.4391 24.5055C24.792 25.1971 25.3847 25.5271 26.067 25.7563C27.1287 26.1137 28.1133 25.862 29.0507 25.3359C29.5131 25.0763 29.884 24.6615 30.1 24.2252C30.3766 23.6661 30.5891 23.0187 30.3324 22.4186L30.3336 22.4194Z" fill="#0DA30D"/>
<path d="M25.5439 18.8334C25.0309 19.1966 24.5717 19.6039 24.1918 20.1184C23.5149 21.035 23.2038 22.0443 23.2419 23.173C23.3119 25.2392 24.9968 26.9722 26.9798 27.4162C27.1143 27.4461 27.2623 27.3924 27.384 27.4856C26.2646 27.777 25.1293 27.8943 23.9839 27.703C22.7966 27.5044 21.9443 26.8221 21.4403 25.7419C20.9917 24.7801 20.8062 23.7604 20.8026 22.6898C20.7975 21.3796 21.4122 20.4883 22.5121 19.8722C23.4585 19.3412 24.4761 19.0119 25.5439 18.8334V18.8334Z" fill="#FDDD16"/>
<path d="M26.8534 18.1976C26.8367 18.4046 26.7288 18.3972 26.5878 18.3098C26.6469 18.2021 26.7531 18.2068 26.8534 18.1976Z" fill="#C9181E"/>
<path d="M28.1699 27.5474C28.2553 27.511 28.3404 27.4777 28.4166 27.5648C28.3264 27.674 28.2497 27.5891 28.1699 27.5474Z" fill="#C9181E"/>
<path d="M33.3467 25.0689C33.3489 25.122 33.3611 25.1792 33.2845 25.1904C33.2768 25.192 33.2603 25.1814 33.2587 25.1736C33.2356 25.0985 33.2949 25.087 33.343 25.0656L33.3477 25.0687L33.3467 25.0689Z" fill="#FDDD16"/>
<path d="M33.3418 25.0664L33.3677 25.033C33.3609 25.0448 33.3534 25.0577 33.3466 25.0695L33.3418 25.0664Z" fill="#FDDD16"/>
<path d="M59.4016 22.5423C58.8455 21.9715 58.7747 21.2159 58.621 20.493C57.9959 17.5523 57.3682 14.6131 56.7498 11.6709C56.4828 10.4001 57.1449 9.40499 58.4201 9.13898C58.8308 9.05371 59.2353 8.95362 59.6661 8.95383C60.4358 8.95364 61.2889 9.65395 61.4566 10.4475C62.1765 13.8583 62.9088 17.2656 63.6268 20.6768C63.8065 21.5314 63.1317 22.5766 62.29 22.7888C61.8927 22.8894 61.4922 22.9796 61.0891 23.0531C60.4426 23.1724 59.9093 22.8944 59.4014 22.5413L59.4016 22.5423ZM60.2709 12.1602C60.3542 12.1011 60.3297 12.0569 60.2513 12.0201C60.2055 12.0137 60.1596 12.0063 60.1138 11.9999C59.7359 11.8835 59.7344 11.8858 59.812 12.2698C59.7715 12.3117 59.73 12.3538 59.6897 12.3967C59.6553 12.2113 59.5725 12.1301 59.3923 12.2602L59.2185 12.1831C59.0994 12.0118 58.8564 12.136 58.7307 11.9812C58.7962 11.9239 58.8607 11.8668 58.926 11.8085L58.9764 11.7514L59.0363 11.7104L59.0981 11.6499C59.1034 11.6276 59.1174 11.6125 59.138 11.6051L59.2208 11.5391C59.2272 11.5216 59.2403 11.5117 59.2582 11.5109C59.5499 11.5448 59.8281 11.534 60.0308 11.2771L60.0495 11.2701C60.147 11.2353 60.1469 11.1637 60.115 11.0847C60.0845 11.0075 60.0213 11.0048 59.9517 11.0236C59.9136 11.0297 59.8763 11.0346 59.8383 11.0406C59.798 10.9554 59.7238 10.839 59.6451 10.8911C59.4098 11.047 59.13 10.8886 58.9007 11.0251L58.8019 10.9875C58.7656 10.7976 58.5929 10.8252 58.4699 10.7969C58.3437 10.7682 58.163 10.7058 58.1125 10.891C58.0673 11.058 58.106 11.2636 58.221 11.3824C58.3584 11.5257 58.4566 11.3373 58.559 11.2591C58.5859 11.2382 58.6214 11.2297 58.6535 11.2148C58.6767 11.2099 58.6978 11.2144 58.7177 11.2274C58.752 11.3411 58.787 11.4537 58.8213 11.5675L58.8162 11.5766C58.6898 11.5753 58.5626 11.5609 58.4384 11.5742C58.2164 11.5982 58.1247 11.7882 58.0374 11.952C57.9986 12.0258 58.0425 12.2273 58.1259 12.2166C58.3975 12.1841 58.4455 12.4291 58.6005 12.5364C58.5939 12.5812 58.5863 12.6262 58.5795 12.67C58.4036 12.8869 58.5101 13.065 58.6594 13.2361L58.6902 13.3617C58.4334 13.6725 58.4466 13.711 58.8509 13.8521L58.8269 13.8672C58.7178 13.8904 58.7168 13.933 58.805 13.9919C58.8142 14.0354 58.8236 14.0798 58.8338 14.123C58.7385 14.2724 58.8204 14.4204 58.8609 14.554C58.9187 14.7455 58.8723 14.8451 58.6464 14.8548C58.8175 15 58.9541 15.1163 59.092 15.2332L59.1035 15.3538C59.0519 15.4193 58.9073 15.4561 58.9777 15.5591C59.0362 15.6445 59.1486 15.7225 59.2775 15.6739C59.4054 15.6256 59.529 15.566 59.6535 15.5113L59.7739 15.5271C59.859 15.6805 59.9802 15.5912 60.0908 15.5747C60.1481 15.5787 60.2109 15.5704 60.2634 15.5895C60.3509 15.6213 60.5021 15.5115 60.5216 15.6748C60.5343 15.782 60.402 15.8001 60.3263 15.8475C60.0491 16.0194 59.7703 16.1886 59.4905 16.358C59.4038 16.4107 59.3289 16.4852 59.3842 16.5843C59.4606 16.7204 59.5399 16.6047 59.6114 16.5613C60.0181 16.3104 60.4235 16.0578 60.8302 15.8069C60.9203 15.7515 61.0224 15.7096 60.9954 15.5731C60.9692 15.4405 60.866 15.4251 60.7586 15.4086C60.3553 15.348 59.9524 15.2844 59.5498 15.2227C59.4377 15.1224 59.3417 14.9794 59.5559 14.9379C59.8021 14.8906 60.0261 14.7391 60.2818 14.7695C60.4754 14.7929 60.6111 14.7146 60.7329 14.5848L60.759 14.5702C60.8656 14.1935 60.7477 13.8574 60.5652 13.5351L60.546 13.516C60.5062 13.3953 60.4667 13.2756 60.4269 13.1549C60.4333 13.1374 60.4453 13.1278 60.4641 13.1258C60.5874 13.0129 60.4962 12.8497 60.5713 12.757C60.3919 12.5158 59.9235 13.2549 59.919 12.5215L59.9192 12.5224C60.1155 12.4777 60.3539 12.4744 60.27 12.1604L60.2687 12.1637L60.2709 12.1602ZM61.3387 21.4174C61.5549 21.3714 61.7721 21.3253 61.9883 21.2793C62.08 21.2598 62.1668 21.2454 62.1801 21.1185C62.2111 20.8133 61.9263 20.2091 61.6839 20.0891C61.3354 19.9161 60.7676 20.0216 60.4845 20.3128C60.2898 20.5126 60.2324 21.2107 60.4251 21.4764C60.6002 21.7166 60.8264 21.4799 61.03 21.479C61.1327 21.4783 61.2354 21.4393 61.3375 21.4166L61.3387 21.4174ZM59.9632 19.3412C59.9802 19.4213 60.0004 19.4786 60.0036 19.5364C60.0219 19.8503 60.1718 19.9334 60.4661 19.8325C60.6533 19.7685 60.8543 19.746 61.0483 19.7047C61.6056 19.5863 61.8111 19.2494 61.6648 18.6941C61.6425 18.608 61.646 18.4772 61.5165 18.4996C61.3462 18.5288 61.4479 18.6655 61.4519 18.7555C61.4559 18.8363 61.4811 18.9167 61.5047 18.9944C61.5648 19.1965 61.6155 19.3542 61.3033 19.4185C61.021 19.4765 60.9722 19.3749 60.9206 19.1418C60.8877 18.9964 60.9517 18.6903 60.7283 18.7358C60.5291 18.7761 60.6996 19.0324 60.7088 19.1898C60.7175 19.3494 60.8517 19.5155 60.5509 19.5764C60.2937 19.6291 60.2409 19.5374 60.1822 19.3179C60.1384 19.1547 60.2169 18.8122 59.9602 18.8668C59.7623 18.9088 59.99 19.1873 59.963 19.3403L59.9632 19.3412ZM60.6176 18.3336L60.617 18.3307C60.7203 18.3088 60.8226 18.287 60.9259 18.2651C61.5391 18.1408 61.5459 18.1393 61.4177 17.522C61.3853 17.3695 61.4179 17.072 61.2117 17.1179C61.0027 17.1643 61.1567 17.4191 61.2015 17.5679C61.2869 17.8514 61.2029 17.9732 60.9113 18.016C60.5767 18.0649 60.2473 18.1531 59.9159 18.2265C59.8329 18.2442 59.7506 18.2748 59.7742 18.3858C59.797 18.4929 59.8769 18.4941 59.9655 18.4742C60.1823 18.4261 60.4009 18.3817 60.6181 18.3355L60.6176 18.3336ZM60.3772 16.9937L60.3758 16.9869C60.6046 16.9383 60.8339 16.8925 61.0617 16.8391C61.151 16.8181 61.2609 16.7937 61.2246 16.6612C61.1942 16.5466 61.0948 16.5819 61.0193 16.5969C60.5602 16.6915 60.1028 16.7897 59.6447 16.8891C59.5501 16.9092 59.4506 16.9344 59.4868 17.0669C59.5176 17.1784 59.6104 17.1546 59.6888 17.139C59.9182 17.0932 60.1473 17.0415 60.376 16.9929L60.3772 16.9937Z" fill="#FCFCFB"/>
<path d="M59.4007 22.5426C59.4335 22.7828 59.4717 23.0097 59.8086 22.9714C59.9327 22.9571 59.9474 23.074 59.9559 23.166C59.9653 23.272 59.8865 23.2998 59.8027 23.3186C59.5423 23.38 59.3139 23.2974 59.1301 23.1257C58.95 22.9572 59.0954 22.7538 59.1308 22.5737C59.175 22.3495 59.3179 22.6328 59.4007 22.5426V22.5426Z" fill="#FDDD16"/>
<path d="M57.1308 9.47494C57.1625 9.50971 57.1935 9.52739 57.1999 9.55236C57.2127 9.59822 57.193 9.6439 57.1382 9.63835C57.1185 9.63645 57.092 9.5925 57.0884 9.56594C57.0854 9.54229 57.1111 9.51557 57.1308 9.47494Z" fill="#FEDD15"/>
<path d="M56.7116 9.64907C56.7329 9.65366 56.7637 9.65115 56.7726 9.66444C56.7813 9.67677 56.7669 9.70412 56.7623 9.72534C56.741 9.72075 56.7102 9.72325 56.7015 9.71093C56.6928 9.69861 56.707 9.67029 56.7116 9.64907Z" fill="#FEDD15"/>
<path d="M30.3334 22.4183C30.5901 23.0184 30.3776 23.6658 30.101 24.225C29.885 24.6613 29.5141 25.076 29.0517 25.3357C28.1143 25.8618 27.1296 26.1134 26.068 25.756C25.3855 25.5259 24.7927 25.1959 24.4401 24.5052C24.0439 23.728 23.8691 22.939 24.1911 22.114C24.399 21.5826 24.736 21.1175 25.2219 20.7832C25.8943 20.3205 26.6465 20.0527 27.4526 20.1003C28.1966 20.1449 28.8894 20.3285 29.4884 20.9063C29.935 21.3369 30.2194 21.7728 30.3346 22.4191L30.3334 22.4183Z" fill="#0AAD0A"/>
<path d="M60.4275 13.1528C60.4672 13.2734 60.5068 13.3931 60.5466 13.5138C60.4082 13.4988 60.3512 13.5533 60.3831 13.6938C60.4114 13.8179 60.4275 13.9456 60.4617 14.0685C60.5194 14.2782 60.5065 14.412 60.2388 14.4629C59.9878 14.5112 59.9118 14.4194 59.858 14.1998C59.8202 14.0455 59.8509 13.7343 59.6767 13.7784C59.4478 13.8361 59.65 14.0897 59.6674 14.2525C59.6987 14.5464 59.6052 14.6762 59.3253 14.6409C59.0983 14.6125 59.1627 14.3981 59.1038 14.2633C59.0377 14.1139 59.1477 13.8576 58.8495 13.8503C58.4452 13.7093 58.4318 13.6698 58.6888 13.3599C58.7681 13.5055 58.887 13.4762 59.0191 13.4471C59.4876 13.3445 59.9577 13.2496 60.4284 13.1526L60.4275 13.1528Z" fill="#E0D7D8"/>
<path d="M61.3379 21.4186C61.2356 21.4403 61.1331 21.4803 61.0304 21.4809C60.8268 21.4818 60.5997 21.7187 60.4255 21.4784C60.2319 21.2129 60.2902 20.5145 60.4849 20.3148C60.768 20.0236 61.3356 19.9171 61.6843 20.0911C61.9258 20.2113 62.2115 20.8153 62.1805 21.1204C62.1672 21.2474 62.0804 21.2618 61.9887 21.2813C61.7725 21.3272 61.5553 21.3734 61.3391 21.4193L61.3379 21.4186ZM61.2724 21.1864L61.2728 21.1883C61.3761 21.1663 61.4777 21.1316 61.5812 21.1248C61.9355 21.1019 61.9331 20.9007 61.8342 20.6443C61.6851 20.2563 61.2832 20.1451 60.8333 20.3688C60.5578 20.5061 60.4603 20.8113 60.5914 21.1576C60.7033 21.4516 60.907 21.2136 61.066 21.2262C61.1329 21.2322 61.2027 21.2002 61.2713 21.1856L61.2724 21.1864Z" fill="#EF582B"/>
<path d="M60.4275 13.1528C59.9579 13.2506 59.4866 13.3447 59.0181 13.4473C58.8868 13.4752 58.7681 13.5055 58.6878 13.3601C58.6778 13.3179 58.6678 13.2756 58.6569 13.2336C58.6876 13.0364 58.5989 12.8565 58.5769 12.6675C58.5835 12.6227 58.5911 12.5777 58.598 12.5339C58.7378 12.2994 58.9555 12.2037 59.2164 12.1826C59.2744 12.2086 59.3321 12.2336 59.3901 12.2596C59.4969 12.2874 59.5079 12.5241 59.6866 12.3963C59.7271 12.3544 59.7686 12.3123 59.8089 12.2695C59.9457 12.2202 60.0386 12.1208 60.1107 11.9995C60.1564 12.006 60.2024 12.0133 60.2484 12.0207C60.2553 12.0677 60.2611 12.1138 60.2681 12.1608L60.2694 12.1575C60.1527 12.2781 60.0352 12.3989 59.9186 12.5195L59.9183 12.5186C59.7409 12.6047 59.6345 12.7353 59.7151 12.934C59.8023 13.1495 59.9742 12.9949 60.1072 12.9939C60.2461 12.9926 60.4161 12.8808 60.4635 13.1229C60.4447 13.1249 60.4329 13.1355 60.4263 13.152L60.4275 13.1528ZM59.4891 12.858C59.4438 12.6023 59.3536 12.3723 59.0451 12.4399C58.7146 12.5132 58.8102 12.7824 58.8338 13.0124C58.8671 13.3351 59.0781 13.2076 59.2495 13.1833C59.4454 13.1557 59.6082 13.105 59.4881 12.8582L59.4891 12.858Z" fill="#EE3820"/>
<path d="M58.8497 13.8512C59.1469 13.8586 59.0379 14.1148 59.104 14.2642C59.1629 14.3989 59.0985 14.6134 59.3255 14.6418C59.6063 14.6769 59.6988 14.5473 59.6676 14.2533C59.6502 14.0906 59.449 13.8368 59.6768 13.7793C59.8521 13.7349 59.8215 14.0471 59.8582 14.2007C59.912 14.4203 59.9878 14.5111 60.239 14.4637C60.5067 14.4129 60.5194 14.278 60.4619 14.0693C60.4277 13.9465 60.4116 13.8188 60.3833 13.6947C60.3512 13.5532 60.4082 13.4987 60.5468 13.5147L60.566 13.5338C60.6303 13.8792 60.6947 14.2246 60.7598 14.5689L60.7336 14.5835C60.4357 14.6438 60.1404 14.7117 59.8414 14.7621C59.5804 14.8065 59.2858 14.9821 59.0686 14.8618C58.8741 14.7538 58.9468 14.4126 58.8642 14.185C58.8566 14.1634 58.8432 14.1431 58.8328 14.1231C58.8236 14.0796 58.8142 14.0352 58.804 13.992C58.8112 13.9501 58.8187 13.9092 58.8259 13.8673L58.8499 13.8521L58.8497 13.8512Z" fill="#EF582B"/>
<path d="M59.9614 19.3427C59.9877 19.1909 59.7608 18.9113 59.9587 18.8692C60.2154 18.8146 60.1369 19.1571 60.1807 19.3203C60.2394 19.5398 60.292 19.6306 60.5494 19.5789C60.8502 19.518 60.716 19.3518 60.7073 19.1922C60.6988 19.0337 60.5276 18.7785 60.7268 18.7382C60.9492 18.6929 60.8862 18.9989 60.9191 19.1442C60.9716 19.3772 61.0204 19.4787 61.3017 19.421C61.6139 19.3566 61.5633 19.1989 61.5032 18.9969C61.4796 18.9192 61.4554 18.8386 61.4504 18.7579C61.4454 18.6682 61.3437 18.5314 61.515 18.5021C61.6444 18.4796 61.6408 18.6095 61.6633 18.6965C61.8094 19.2512 61.6039 19.5881 61.0468 19.7072C60.8518 19.7486 60.6508 19.7712 60.4646 19.835C60.1693 19.9361 60.0194 19.8529 60.0021 19.5388C59.9989 19.481 59.9789 19.4248 59.9616 19.3437L59.9614 19.3427Z" fill="#EE3820"/>
<path d="M59.7735 15.5252C59.733 15.5196 59.6936 15.5149 59.6531 15.5094C59.4756 15.4382 59.2658 15.4767 59.1033 15.3529C59.0997 15.3123 59.0954 15.2729 59.0918 15.2323C59.2443 15.2281 59.3979 15.2247 59.5504 15.2205C59.9531 15.2832 60.3559 15.3459 60.7592 15.4064C60.8666 15.4229 60.9697 15.4383 60.9959 15.571C61.0231 15.7084 60.9208 15.7493 60.8307 15.8048C60.424 16.0557 60.0187 16.3083 59.6119 16.5592C59.5404 16.6026 59.4613 16.7193 59.3848 16.5822C59.3294 16.483 59.4034 16.4088 59.491 16.3559C59.7698 16.1867 60.0496 16.0172 60.3268 15.8453C60.4025 15.798 60.5349 15.7799 60.5222 15.6727C60.5026 15.5094 60.3514 15.6192 60.2639 15.5873C60.2114 15.5682 60.1496 15.5763 60.0913 15.5726C59.9924 15.5109 59.8834 15.52 59.7745 15.5249L59.7735 15.5252Z" fill="#EF582B"/>
<path d="M60.6167 18.3338C60.3995 18.3799 60.1811 18.4254 59.9641 18.4725C59.8744 18.4916 59.7958 18.4921 59.7728 18.384C59.7492 18.273 59.8307 18.2436 59.9145 18.2248C60.246 18.1513 60.5753 18.0632 60.9099 18.0142C61.2024 17.9712 61.2856 17.8496 61.2001 17.5662C61.1555 17.4183 61.0015 17.1636 61.2104 17.1161C61.4165 17.0703 61.3847 17.3666 61.4163 17.5202C61.5447 18.1385 61.5377 18.139 60.9245 18.2633C60.821 18.2843 60.7189 18.307 60.6156 18.329L60.6162 18.3319L60.6167 18.3338Z" fill="#EF582B"/>
<path d="M60.3764 16.9948C60.1477 17.0435 59.9183 17.0942 59.6892 17.1409C59.61 17.1577 59.517 17.1805 59.4872 17.0689C59.451 16.9363 59.5505 16.9111 59.6451 16.891C60.1034 16.7926 60.5608 16.6944 61.0197 16.5989C61.095 16.5829 61.1935 16.5478 61.225 16.6631C61.2603 16.7959 61.1514 16.82 61.0621 16.841C60.8343 16.8945 60.6049 16.9402 60.3762 16.9888L60.3776 16.9956L60.3764 16.9948Z" fill="#EF582B"/>
<path d="M59.2175 12.1834C58.9565 12.2036 58.7389 12.3003 58.5991 12.5348C58.4443 12.4285 58.3961 12.1825 58.1245 12.215C58.0409 12.2247 57.9972 12.0242 58.036 11.9504C58.1223 11.7868 58.2141 11.5968 58.437 11.5726C58.5612 11.5593 58.6894 11.5734 58.8148 11.575C58.7433 11.6467 58.6763 11.7255 58.5979 11.7886C58.498 11.8693 58.3571 11.9658 58.4551 12.0852C58.561 12.213 58.6183 11.9749 58.7297 11.9815C58.8556 12.1373 59.0984 12.012 59.2175 12.1834Z" fill="#E0D7D8"/>
<path d="M58.7297 11.9814C58.6183 11.9748 58.561 12.213 58.4551 12.0852C58.3571 11.9658 58.498 11.8693 58.5979 11.7885C58.6763 11.7254 58.7433 11.6466 58.8148 11.575L58.8199 11.5658C58.9121 11.4917 59.0695 11.4633 59.019 11.2874L59.0319 11.2675C59.2089 11.35 59.3861 11.4293 59.561 11.255C59.4846 11.1471 59.3706 11.247 59.2972 11.1819C59.4778 11.1344 59.6582 11.086 59.8388 11.0385C59.8769 11.0325 59.9142 11.0276 59.9522 11.0215C59.9847 11.1033 60.0175 11.1862 60.049 11.2682L60.0304 11.2752C59.7713 11.3474 59.4786 11.3088 59.2578 11.509C59.2391 11.511 59.227 11.5206 59.2204 11.5372C59.1928 11.5592 59.1652 11.5812 59.1376 11.6032C59.1162 11.6118 59.1032 11.6266 59.0977 11.648C59.0768 11.6686 59.0567 11.688 59.0359 11.7085C59.0155 11.7219 58.9963 11.7361 58.976 11.7495L58.9256 11.8066L58.7302 11.9793L58.7297 11.9814Z" fill="#EF582B"/>
<path d="M59.5504 15.2206C59.3979 15.2248 59.2443 15.2282 59.0918 15.2324C58.9551 15.1162 58.8172 14.9992 58.6461 14.854C58.8719 14.8433 58.9185 14.7447 58.8607 14.5532C58.8199 14.4186 58.7373 14.2717 58.8336 14.1221C58.8441 14.1431 58.8573 14.1625 58.8649 14.1841C58.9468 14.4128 58.8751 14.7539 59.0693 14.8609C59.2866 14.9811 59.5812 14.8055 59.8421 14.7612C60.1411 14.7107 60.4374 14.6427 60.7344 14.5826C60.6126 14.7124 60.4769 14.7907 60.2833 14.7673C60.0267 14.7371 59.8026 14.8886 59.5574 14.9357C59.343 14.9762 59.4402 15.12 59.5513 15.2204L59.5504 15.2206Z" fill="#E0D7D8"/>
<path d="M60.4656 13.1234C60.4172 12.8815 60.2483 12.9931 60.1093 12.9944C59.9763 12.9954 59.8054 13.1498 59.7172 12.9345C59.6366 12.7358 59.7438 12.604 59.9205 12.5191C59.9243 13.2536 60.3925 12.5136 60.5729 12.7546C60.4985 12.8461 60.5889 13.0105 60.4656 13.1234V13.1234Z" fill="#E0D7D8"/>
<path d="M58.6523 11.2139C58.6212 11.2286 58.5847 11.2374 58.5578 11.2582C58.4545 11.3367 58.3572 11.5248 58.2198 11.3815C58.1058 11.2625 58.0661 11.0571 58.1114 10.8901C58.162 10.7059 58.3427 10.7683 58.4687 10.796C58.5917 10.8243 58.7644 10.7967 58.8008 10.9867C58.7778 10.9876 58.7549 10.9894 58.7317 10.9893C58.5529 10.988 58.2759 10.7765 58.2357 10.9151C58.1638 11.1655 58.5309 11.0743 58.6526 11.2149L58.6523 11.2139Z" fill="#E0D7D8"/>
<path d="M58.6523 11.2139C58.5307 11.0734 58.1636 11.1645 58.2355 10.9142C58.2757 10.7755 58.5526 10.987 58.7315 10.9883C58.7547 10.9884 58.7775 10.9866 58.8006 10.9857C58.8334 10.9979 58.8665 11.0111 58.8993 11.0232C58.948 11.0623 58.9965 11.1004 59.0451 11.1395C59.0049 11.1783 59.0039 11.2209 59.0317 11.2664L59.0188 11.2863C58.9177 11.2665 58.8174 11.2454 58.7164 11.2255C58.6965 11.2126 58.6753 11.208 58.6521 11.213L58.6523 11.2139Z" fill="#EF582B"/>
<path d="M59.0453 11.1405C58.9967 11.1014 58.948 11.0624 58.8995 11.0242C59.1288 10.8877 59.4086 11.0462 59.6439 10.8902C59.7226 10.8382 59.7977 10.9544 59.8371 11.0398C59.6565 11.0873 59.4761 11.1357 59.2955 11.1832C59.2146 11.154 59.1185 11.2097 59.0446 11.1417L59.0453 11.1405Z" fill="#E0D7D8"/>
<path d="M59.1033 15.3529C59.2658 15.4768 59.4755 15.4382 59.6531 15.5094C59.5276 15.5644 59.404 15.6239 59.2771 15.6721C59.1484 15.7216 59.0357 15.6427 58.9772 15.5573C58.9071 15.4552 59.0514 15.4174 59.1031 15.352L59.1033 15.3529Z" fill="#E0D7D8"/>
<path d="M59.2569 11.5092C59.4774 11.308 59.7701 11.3466 60.0294 11.2754C59.8268 11.5323 59.5486 11.543 59.2569 11.5092Z" fill="#E0D7D8"/>
<path d="M60.1128 12.0001C60.0409 12.1223 59.9479 12.2208 59.811 12.27C59.7332 11.8851 59.735 11.8837 60.1128 12.0001Z" fill="#E0D7D8"/>
<path d="M60.7596 14.5681C60.6952 14.2227 60.6311 13.8782 60.5658 13.533C60.7485 13.8563 60.8661 14.1914 60.7596 14.5681Z" fill="#E0D7D8"/>
<path d="M58.5781 12.6683C58.601 12.8571 58.6897 13.037 58.658 13.2344C58.5087 13.0634 58.4024 12.8862 58.5781 12.6683Z" fill="#E0D7D8"/>
<path d="M58.7166 11.2265C58.8176 11.2464 58.918 11.2674 59.019 11.2873C59.0695 11.4632 58.9121 11.4916 58.8199 11.5657C58.7859 11.4529 58.7506 11.3393 58.7164 11.2255L58.7166 11.2265Z" fill="#E0D7D8"/>
<path d="M59.9207 12.52C60.0373 12.3994 60.1549 12.2786 60.2715 12.1579C60.3556 12.473 60.1172 12.4762 59.9207 12.52Z" fill="#E0D7D8"/>
<path d="M59.6895 12.3967C59.5093 12.5251 59.4993 12.2874 59.3921 12.2596C59.5731 12.13 59.6551 12.2107 59.6895 12.3967Z" fill="#E0D7D8"/>
<path d="M60.0482 11.2683C60.0156 11.1862 59.9827 11.1031 59.9511 11.0207C60.02 11.002 60.0843 11.0046 60.1149 11.082C60.147 11.1613 60.147 11.2331 60.0492 11.2681L60.0482 11.2683Z" fill="#E0D7D8"/>
<path d="M59.7735 15.5252C59.8824 15.5202 59.9917 15.5121 60.0903 15.5729C59.9796 15.5883 59.8584 15.6776 59.7735 15.5252Z" fill="#E0D7D8"/>
<path d="M58.8259 13.8659C58.8187 13.908 58.8112 13.949 58.8039 13.9911C58.7156 13.9329 58.7167 13.8902 58.8259 13.8659Z" fill="#E0D7D8"/>
<path d="M60.2702 12.1614C60.2632 12.1143 60.2574 12.0679 60.2504 12.0208C60.3291 12.0578 60.3537 12.1021 60.2702 12.1614Z" fill="#E0D7D8"/>
<path d="M59.0352 11.7097C59.0561 11.6891 59.0762 11.6696 59.0972 11.649C59.0762 11.6696 59.0561 11.6891 59.0352 11.7097Z" fill="#E0D7D8"/>
<path d="M58.925 11.8086L58.9756 11.7513L58.925 11.8086Z" fill="#E0D7D8"/>
<path d="M59.1368 11.6042C59.1645 11.5822 59.1922 11.5601 59.2199 11.538C59.1922 11.5601 59.1645 11.5822 59.1368 11.6042Z" fill="#E0D7D8"/>
<path d="M61.2724 21.1864C61.2039 21.2009 61.1338 21.232 61.0672 21.227C60.9079 21.2134 60.7033 21.4516 60.5925 21.1584C60.4614 20.812 60.559 20.5068 60.8345 20.3696C61.2843 20.1458 61.6861 20.2561 61.8353 20.6451C61.9342 20.9014 61.9366 21.1027 61.5823 21.1255C61.4789 21.1324 61.3763 21.1673 61.274 21.1891L61.2736 21.1871L61.2724 21.1864Z" fill="#FCFCFB"/>
<path d="M59.4902 12.8588C59.6103 13.1056 59.4466 13.1566 59.2516 13.1839C59.0802 13.2082 58.8693 13.3358 58.836 13.013C58.8125 12.7839 58.7167 12.5138 59.0472 12.4405C59.3555 12.372 59.4459 12.6029 59.4912 12.8586L59.4902 12.8588Z" fill="#E0D7D8"/>
<path d="M59.0453 11.1405C59.1193 11.2085 59.2154 11.1528 59.2963 11.182C59.3706 11.2469 59.4846 11.147 59.561 11.2549C59.3861 11.4292 59.2091 11.3508 59.0319 11.2674C59.0041 11.2219 59.0049 11.1784 59.0453 11.1405Z" fill="#ED1D23"/>
<path d="M60.2921 23.3996C59.0967 23.6536 57.9217 22.8906 57.6676 21.6952L55.5921 11.9306C55.338 10.7353 56.1011 9.56027 57.2964 9.30618L59.1211 8.91834C60.3165 8.66426 61.4915 9.42732 61.7456 10.6227L63.8211 20.3873C64.0752 21.5826 63.3121 22.7576 62.1167 23.0117L60.2921 23.3996Z" fill="#FEDD15"/>
<path d="M54.7973 11.8045C52.4279 12.8231 51.3156 15.4275 52.073 17.7767C52.073 17.7767 52.0574 17.78 52.0431 17.7866C52.0283 17.7939 52.0212 17.7949 52.0212 17.7949C51.3882 15.3239 49.1629 15.7567 49.1629 15.7567C49.2703 16.967 50.2706 18.1139 51.3751 18.1065C50.8445 18.4297 50.4443 19.0524 50.1627 19.5949C50.0832 19.7478 50.0542 20.0787 50.3056 20.2125C50.5539 20.3442 50.7843 20.202 50.874 20.0004C51.2741 19.0982 52.3405 18.4586 52.3486 18.475C53.4238 20.6324 56.1208 21.8098 58.7733 20.7259C61.3174 19.6861 62.4688 16.7657 61.3884 14.3046C60.3081 11.8437 57.3219 10.7193 54.7974 11.805L54.7973 11.8045ZM55.1011 16.6814C55.6197 17.0068 56.0012 17.4706 56.3904 17.9267C56.4387 17.9834 56.4852 18.0364 56.5307 18.0871C57.5329 19.1836 58.1832 19.3077 58.7713 19.1415C58.6812 19.1178 58.5919 19.0811 58.5046 19.0291C58.1391 18.8104 57.8813 18.498 57.6364 18.167C57.2403 17.6321 56.9091 17.0576 56.5636 16.4912C56.5056 16.3958 56.5245 16.3592 56.6366 16.3277C57.2646 16.1489 57.7553 16.3719 58.17 16.8143C58.4797 17.1438 58.6623 17.5551 58.8893 17.9379C58.9796 18.0904 59.0596 18.2492 59.1682 18.3895C59.326 18.5926 59.4981 18.6699 59.701 18.6258C60.1492 18.2361 60.4959 17.718 60.6476 17.3682C60.7432 17.1478 60.7992 16.9117 60.8775 16.6842C60.8936 16.6385 60.9262 16.5594 60.9496 16.543C60.9588 16.537 60.9718 16.544 60.973 16.5546C61.0876 17.3685 60.6371 18.382 60.3892 18.7615C60.1188 19.1741 59.6297 19.6705 58.7794 20.0471C58.6847 20.0915 58.5889 20.1304 58.4926 20.1649C58.4878 20.1669 58.4829 20.1689 58.4776 20.1705C58.4771 20.1706 58.476 20.1709 58.4755 20.171C58.0322 20.3261 57.5748 20.3753 57.101 20.3374C56.0853 20.2557 55.2567 19.7802 54.5312 19.122C53.8056 18.4637 53.3219 17.6618 53.1461 16.6917C53.1227 16.5616 53.1347 16.4947 53.2795 16.4433C53.9344 16.2108 54.5345 16.326 55.1012 16.6819L55.1011 16.6814Z" fill="#0AAD0A"/>
</svg>
