<svg width="156" height="206" viewBox="0 0 156 206" fill="none" xmlns="http://www.w3.org/2000/svg">
<path d="M69.6322 26.2489C70.4102 26.3213 70.8507 26.3512 70.8507 26.3512C70.8507 26.3512 65.9887 49.4718 68.3455 55.9572C69.5534 59.2804 75.3696 62.1082 81.7862 61.5227C79.927 61.2759 74.9371 60.2504 73.4916 56.1621C71.6883 51.113 74.2872 25.71 74.2872 25.71L70.6309 23.1708L69.6322 26.2489Z" fill="#6D6D6D"/>
<path d="M113.516 38.4043L110.32 83.4307C109.801 90.7838 103.652 96.4797 96.2406 96.4797C88.0812 96.4797 81.6216 89.6195 82.1558 81.5224C82.4375 77.2372 82.695 73.7249 82.695 73.7249C82.695 73.7249 71.738 72.0292 71.602 61.1301C71.5243 54.8351 72.6171 40.5493 73.5496 29.6068C74.181 22.2103 80.4074 16.5288 87.8723 16.5288H94.4921C105.891 17.1907 114.492 27.0801 113.511 38.3995L113.516 38.4043Z" fill="#FFBE9D"/>
<path d="M82.6807 73.5701C82.6807 73.5701 89.6065 74.1305 96.9646 69.5312C96.9646 69.5312 93.5891 77.3771 82.6565 76.3915L82.6807 73.5653V73.5701Z" fill="#AA6550"/>
<path d="M76.9648 42.7767C76.9357 43.598 77.6107 44.3033 78.4753 44.3468C79.3349 44.3903 80.0586 43.7671 80.0877 42.9458C80.1169 42.1245 79.4418 41.4191 78.5821 41.3756C77.7176 41.3273 76.9988 41.9602 76.9697 42.7815L76.9648 42.7767Z" fill="#263238"/>
<path d="M75.4443 40.5396C75.6385 40.7425 76.8236 39.8681 78.5089 39.8729C80.1894 39.8536 81.4279 40.7135 81.6076 40.5106C81.695 40.4188 81.5007 40.0517 80.9616 39.6652C80.4322 39.2787 79.5289 38.9019 78.4798 38.9019C77.4307 38.9067 76.5468 39.2932 76.0417 39.6845C75.522 40.0807 75.3471 40.4478 75.4443 40.5396Z" fill="#263238"/>
<path d="M93.3945 42.7762C93.3653 43.5975 94.0404 44.298 94.905 44.3463C95.7646 44.3946 96.4883 43.7666 96.5174 42.9453C96.5465 42.124 95.8715 41.4186 95.0118 41.3752C94.1473 41.3268 93.4285 41.9597 93.3993 42.781L93.3945 42.7762Z" fill="#263238"/>
<path d="M91.996 40.8536C92.1903 41.0565 93.3754 40.1821 95.0607 40.1869C96.7411 40.1676 97.9796 41.0275 98.1593 40.8246C98.2467 40.7328 98.0525 40.3656 97.5134 39.9791C96.984 39.5927 96.0806 39.2158 95.0315 39.2158C93.9825 39.2207 93.0985 39.6071 92.5934 39.9985C92.0786 40.3946 91.8989 40.7618 91.996 40.8536Z" fill="#263238"/>
<path d="M85.8866 53.2746C85.8964 53.178 84.8473 52.9992 83.1523 52.7818C82.72 52.7383 82.3169 52.6514 82.2441 52.3615C82.1421 52.0523 82.3218 51.5934 82.5306 51.0957C82.9337 50.0619 83.3563 48.9749 83.8031 47.8395C85.571 43.2016 86.8483 39.3898 86.6589 39.3222C86.4695 39.2546 84.8861 42.9552 83.1183 47.5932C82.6957 48.7381 82.2878 49.8251 81.8992 50.8687C81.7389 51.3566 81.4573 51.9074 81.6758 52.5451C81.7924 52.8639 82.1081 53.0958 82.3849 53.1683C82.6617 53.2504 82.9046 53.2553 83.1134 53.2698C84.8181 53.3616 85.8769 53.3664 85.8866 53.2698V53.2746Z" fill="#263238"/>
<path d="M90.8402 54.4339C90.5682 54.4194 90.5633 56.236 88.9994 57.5259C87.4355 58.8206 85.488 58.6177 85.4734 58.8689C85.4491 58.9849 85.9056 59.2216 86.7313 59.2458C87.5375 59.2748 88.7177 59.0139 89.6745 58.2264C90.6265 57.4341 91.0393 56.3809 91.1024 55.6321C91.1704 54.8736 90.9664 54.4194 90.845 54.4339H90.8402Z" fill="#263238"/>
<path d="M109.825 46.5837C110.01 46.5015 117.353 44.371 117.115 51.8206C116.877 59.2703 109.403 57.4973 109.398 57.2799C109.393 57.0673 109.825 46.5837 109.825 46.5837Z" fill="#FFBE9D"/>
<path d="M111.778 54.5308C111.812 54.5067 111.904 54.6274 112.123 54.7337C112.336 54.84 112.701 54.9173 113.099 54.7869C113.9 54.5212 114.605 53.294 114.687 51.951C114.726 51.2746 114.605 50.6224 114.381 50.0813C114.172 49.5306 113.827 49.1344 113.434 49.0523C113.041 48.946 112.749 49.1779 112.652 49.3856C112.545 49.5885 112.589 49.7431 112.55 49.7528C112.531 49.7721 112.395 49.6224 112.463 49.318C112.497 49.1731 112.594 48.9991 112.774 48.859C112.958 48.7189 113.225 48.6513 113.502 48.69C114.08 48.7479 114.58 49.2938 114.828 49.8881C115.105 50.4871 115.26 51.2167 115.212 51.98C115.115 53.4776 114.299 54.8593 113.206 55.1396C112.676 55.2603 112.239 55.0864 112.021 54.9028C111.792 54.7096 111.758 54.5453 111.788 54.5308H111.778Z" fill="#AA6550"/>
<path d="M113.992 46.3323C112.851 46.0569 110.874 47.1053 110.388 48.1681C109.903 49.231 109.796 50.4388 109.31 51.5016C108.824 52.5645 107.727 53.5307 106.581 53.2602C105.794 53.0766 105.226 52.3374 105.022 51.5596C104.813 50.7818 104.9 49.9557 104.997 49.1585C105.439 45.6801 106.173 42.2258 106.313 38.7232C106.454 35.2206 105.954 31.5779 104.104 28.5923C102.253 25.6066 98.8534 23.4084 95.3419 23.6935C93.0155 23.8819 90.8785 25.0897 88.5667 25.4085C85.8226 25.7902 82.9231 24.8288 80.9658 22.8818C80.7132 22.6306 79.5427 21.8673 79.5427 21.8673C79.5427 21.6886 79.7127 20.1281 80.3295 19.5628C84.9192 15.3404 93.1855 14.1616 99.2468 15.6786C105.308 17.1956 110.991 21.4518 113.599 27.1043C116.207 32.7519 115.435 40.6122 113.997 46.3275" fill="#263238"/>
<path d="M66.5069 83.1023L75.6231 81.1022L79.3337 80.1795L82.4226 75.416C82.4226 75.416 83.8942 83.9333 89.4116 88.5181C90.9123 89.7645 92.9279 90.2138 94.8415 89.8128C96.0897 89.5519 97.5564 89.2282 98.6443 88.9432C98.8775 88.8804 99.13 88.7983 99.402 88.7016C103.414 87.2668 106.697 84.3391 108.79 80.6433C110.019 78.4789 111.053 76.2566 110.699 75.4111L115.026 84.3246L140.525 96.0064L155.003 131.177L126.95 139.434L126.076 168.406L131.36 204.949L51.985 205.002L54.7971 123.699" fill="#FCE80D"/>
<path d="M87.0268 114.577C87.0268 114.577 87.2016 114.592 87.527 114.587C87.8816 114.577 88.3527 114.568 88.9403 114.553C90.1885 114.51 91.9176 114.447 93.9865 114.374H94.0837V114.273C94.1711 112.094 94.2731 109.514 94.3848 106.756C94.5159 102.78 94.6374 99.1853 94.7248 96.5426C94.7539 95.2624 94.7782 94.2092 94.7976 93.4459C94.7976 93.1029 94.8025 92.8227 94.8025 92.6052C94.8025 92.412 94.7976 92.3105 94.7879 92.3105C94.7782 92.3105 94.7685 92.412 94.7539 92.6004C94.7393 92.8178 94.7199 93.098 94.7005 93.441C94.6616 94.2044 94.6082 95.2527 94.5451 96.533C94.4382 99.1756 94.2925 102.77 94.1323 106.741C94.0351 109.5 93.9477 112.08 93.8748 114.263L93.9768 114.162C91.9127 114.273 90.1837 114.365 88.9355 114.432C88.3527 114.471 87.8816 114.5 87.527 114.524C87.2016 114.548 87.0316 114.568 87.0316 114.577H87.0268Z" fill="#263238"/>
<path d="M91.3543 102.833C91.3543 102.833 91.2377 102.741 90.9755 102.712C90.7229 102.678 90.3198 102.731 89.9313 103.002C89.7418 103.137 89.5476 103.326 89.4213 103.577C89.295 103.828 89.2319 104.142 89.2853 104.456C89.3727 105.074 89.8487 105.727 90.5821 105.91C91.3203 106.079 92.0343 105.736 92.4277 105.253C92.8453 104.76 92.8842 104.132 92.7773 103.693C92.6705 103.239 92.4374 102.925 92.2528 102.746C92.0682 102.567 91.9323 102.509 91.9274 102.524C91.9128 102.543 92.0245 102.625 92.18 102.813C92.3305 103.002 92.5248 103.306 92.6025 103.727C92.6802 104.137 92.6219 104.683 92.2528 105.103C91.8983 105.519 91.262 105.809 90.6452 105.664C90.0332 105.514 89.601 104.949 89.5184 104.417C89.4164 103.872 89.7078 103.388 90.043 103.142C90.3781 102.881 90.7423 102.809 90.9803 102.809C91.2232 102.809 91.3543 102.857 91.364 102.833H91.3543Z" fill="#263238"/>
<path d="M92.2045 92.6244C92.2045 92.6244 92.0831 92.5133 91.8062 92.4457C91.5294 92.378 91.0874 92.378 90.6212 92.6196C90.3929 92.7404 90.1598 92.9191 89.9849 93.18C89.8101 93.4361 89.7032 93.7742 89.7227 94.1221C89.7421 94.8081 90.2035 95.5859 91.0049 95.8371C91.8111 96.0642 92.6222 95.6825 93.035 95.1318C93.2536 94.8564 93.3604 94.5279 93.3847 94.2235C93.4041 93.9143 93.3459 93.6293 93.2487 93.3926C93.0544 92.9095 92.729 92.6148 92.4862 92.4747C92.2385 92.3297 92.0782 92.3056 92.0782 92.3201C92.0685 92.3394 92.2142 92.3974 92.4328 92.5568C92.6465 92.7162 92.9233 93.0109 93.0836 93.4554C93.2439 93.8902 93.2487 94.5134 92.8505 94.9917C92.4813 95.4651 91.7528 95.7937 91.0777 95.5956C90.4026 95.3878 89.9849 94.7115 89.9558 94.1124C89.9072 93.494 90.3006 93.0013 90.7086 92.7742C91.1214 92.5375 91.5294 92.5085 91.7917 92.5423C92.0588 92.5761 92.1996 92.6486 92.2094 92.6244H92.2045Z" fill="#263238"/>
<path d="M67.1433 82.856C66.7256 83.4792 57.3423 84.5179 55.045 86.7982C52.7477 89.0785 29.8042 106.509 29.8042 106.509L46.1473 128.438L56.7109 126.124L67.1433 82.856Z" fill="#FCE80D"/>
<path d="M32.5677 104.408L50.9119 127.394L46.1473 128.438L29.8042 106.509L32.5677 104.408Z" fill="#0AAD0A"/>
<path d="M62.1406 105.683C62.1406 105.683 62.2232 105.417 62.33 104.92C62.3883 104.673 62.4466 104.369 62.4903 104.011C62.5389 103.654 62.6069 103.248 62.6311 102.794C62.67 102.34 62.704 101.847 62.704 101.311C62.7234 100.775 62.6894 100.209 62.6603 99.6055C62.568 98.4073 62.3834 97.0981 62.0532 95.7502C61.7084 94.4071 61.2567 93.1607 60.771 92.0592C60.5136 91.5181 60.2756 90.9963 60.0036 90.5325C59.7559 90.0591 59.4888 89.6388 59.2411 89.2571C59.008 88.8658 58.7506 88.5421 58.5417 88.2474C58.3329 87.9527 58.1386 87.7111 57.9735 87.5179C57.6481 87.1314 57.4587 86.9188 57.4441 86.9333C57.4295 86.943 57.5898 87.1749 57.8958 87.5807C58.0512 87.7788 58.2357 88.03 58.43 88.3295C58.6291 88.6291 58.8671 88.9576 59.0905 89.3489C59.3237 89.7354 59.5811 90.1557 59.8191 90.6292C60.0813 91.0929 60.3047 91.6099 60.5573 92.1461C61.0235 93.238 61.4655 94.4748 61.8055 95.8033C62.1309 97.1367 62.3203 98.4315 62.4223 99.6151C62.4563 100.209 62.5 100.77 62.4854 101.301C62.5 101.833 62.4709 102.321 62.4466 102.77C62.4369 103.219 62.3737 103.625 62.3446 103.978C62.3155 104.335 62.2669 104.64 62.228 104.886C62.1503 105.384 62.1163 105.664 62.1358 105.669L62.1406 105.683Z" fill="#263238"/>
<path d="M54.797 123.694C54.8602 123.723 55.7684 121.723 56.8272 119.235C57.886 116.747 58.6873 114.708 58.6242 114.679C58.5611 114.65 57.6528 116.645 56.5941 119.138C55.5401 121.626 54.7339 123.665 54.797 123.694Z" fill="#263238"/>
<path d="M126.949 107.78C126.988 107.799 127.382 107.084 128.125 105.993C128.863 104.905 129.99 103.466 131.437 102.065C132.884 100.669 134.366 99.5912 135.483 98.8907C136.6 98.1853 137.333 97.8182 137.314 97.7747C137.304 97.7602 137.115 97.8375 136.78 97.9969C136.44 98.1515 135.964 98.4027 135.391 98.7409C134.244 99.4124 132.729 100.475 131.262 101.886C129.8 103.302 128.683 104.775 127.979 105.896C127.625 106.456 127.357 106.92 127.192 107.253C127.022 107.582 126.94 107.77 126.954 107.78H126.949Z" fill="#263238"/>
<path d="M155.003 131.177L153.876 128.438L122.836 136.844L124.065 140.279L155.003 131.177Z" fill="#0AAD0A"/>
<g opacity="0.2">
<path opacity="0.2" d="M114.298 85.3924C113.87 89.1607 113.404 93.0498 111.534 96.3543C109.659 99.6588 105.992 102.263 102.219 101.707C99.7029 101.335 97.5708 99.6637 95.8563 97.7892C94.1419 95.9195 92.7091 93.789 90.8344 92.0739C89.6591 93.243 88.474 94.4219 87.0655 95.3011C85.6571 96.1804 83.9912 96.736 82.3399 96.5427C80.6934 96.3446 79.7803 95.6973 79.2607 94.1271C81.0188 94.6731 81.9902 94.5909 83.7386 94.2528C85.5891 93.8953 87.3861 93.1271 89.0422 91.8275C90.0719 91.0207 90.441 89.8081 91.7523 89.8854C92.9617 89.953 93.9088 90.9096 94.7053 91.813C95.9243 93.1996 97.4688 94.7069 98.9161 95.8519C100.368 96.9969 101.782 97.7698 103.637 97.7312C106.692 97.6636 109.198 95.277 110.883 92.7406C112.433 90.4072 113.589 87.8128 114.278 85.1025" fill="black"/>
</g>
<path d="M78.5323 80.6914C78.5323 80.6914 78.508 80.7832 78.4789 80.962C78.4546 81.1407 78.4157 81.4016 78.3866 81.7398C78.3137 82.4161 78.2409 83.4017 78.2117 84.6191C78.1486 87.0492 78.3332 90.4359 79.12 94.0786L79.1345 94.1559L79.1491 94.2332L79.2268 94.2525C81.0627 94.7066 82.9034 94.5472 84.4576 94.1172C86.0215 93.6872 87.3377 93.0157 88.3333 92.3104C89.329 91.605 90.0381 90.9045 90.4509 90.3634C90.6792 90.1122 90.8054 89.8755 90.9123 89.7305C91.0094 89.5807 91.058 89.5035 91.0531 89.4986C90.9997 89.4455 90.2518 90.8127 88.2362 92.1654C87.2454 92.8418 85.9389 93.4843 84.3993 93.895C82.8694 94.3056 81.0724 94.4506 79.29 94.0109L79.3822 94.1075L79.3677 94.0302C78.5857 90.4117 78.372 87.0492 78.3914 84.6288C78.3963 83.4162 78.4449 82.4355 78.4837 81.7591C78.5031 81.4451 78.5177 81.1842 78.5323 80.9765C78.542 80.7977 78.542 80.7011 78.5323 80.7011V80.6914Z" fill="#263238"/>
<path d="M93.2871 90.2233C93.2871 90.2233 93.3308 90.3248 93.4425 90.5132C93.5542 90.6968 93.729 90.9625 93.9816 91.2862C94.477 91.9384 95.2881 92.808 96.3711 93.7935C96.9102 94.2863 97.5173 94.8129 98.173 95.3637C98.5033 95.639 98.8335 95.9289 99.2027 96.2139C99.5718 96.4942 99.9749 96.7502 100.407 96.9821C101.267 97.4411 102.267 97.7841 103.336 97.8662C104.404 97.958 105.551 97.7261 106.541 97.1609C107.537 96.6053 108.343 95.8323 109.052 95.0545C109.756 94.2718 110.388 93.4698 110.942 92.6775C112.054 91.0929 112.85 89.5325 113.419 88.1846C113.977 86.8318 114.312 85.6965 114.506 84.9042C114.608 84.508 114.672 84.1989 114.71 83.9863C114.749 83.7737 114.769 83.6626 114.759 83.6626C114.749 83.6626 114.715 83.7689 114.662 83.9766C114.608 84.1844 114.531 84.4887 114.414 84.88C114.191 85.6579 113.831 86.7835 113.253 88.1121C112.671 89.4407 111.864 90.977 110.752 92.5423C110.198 93.3249 109.567 94.1124 108.868 94.8854C108.163 95.6487 107.372 96.4024 106.415 96.9386C105.463 97.4797 104.38 97.7019 103.35 97.615C102.321 97.5377 101.354 97.214 100.514 96.7695C100.091 96.5473 99.6981 96.2961 99.3387 96.0304C98.9841 95.755 98.6441 95.4651 98.309 95.1946C97.6485 94.6487 97.0365 94.1317 96.4926 93.6486C95.3998 92.6824 94.579 91.8417 94.0593 91.2137C93.797 90.9045 93.6125 90.6484 93.4862 90.4745C93.3648 90.3006 93.2968 90.2088 93.2871 90.2136V90.2233Z" fill="#263238"/>
<path d="M103.749 145.733L100.004 140.308C100.004 140.308 97.4301 131.404 97.7798 130.163C98.1295 128.921 99.266 124.278 98.9988 124.225C98.7317 124.172 95.9293 123.133 94.4092 126.853C93.4621 129.172 93.1512 132.221 93.0541 134.197C93.0007 135.235 92.039 135.979 91.0142 135.767C88.4256 135.24 84.1176 134.433 83.0977 134.675C81.6115 135.028 80.2807 136.917 80.1496 137.545C80.0185 138.173 81.0481 139.603 81.0481 139.603C81.0481 139.603 79.7853 140.245 79.3968 141.216C79.3434 141.347 79.2996 141.477 79.2608 141.603C79.0131 142.395 79.2219 143.255 79.7805 143.869L80.1739 144.299C80.1739 144.299 78.6003 144.728 78.406 145.627C78.2117 146.526 78.4594 147.608 78.4594 147.608L79.9359 149.125C79.9359 149.125 79.2462 149.734 79.1685 150.565C79.0908 151.395 81.3104 153.439 81.3104 153.439L90.8345 156.835L94.6131 157.792L103.749 145.733Z" fill="#FFBE9D"/>
<path d="M81.0194 139.608C81.0096 139.68 82.4958 139.946 84.3171 140.318C86.1433 140.685 87.6149 141.018 87.6343 140.946C87.644 140.912 87.2846 140.786 86.697 140.622C86.1093 140.458 85.2836 140.255 84.3706 140.071C83.4575 139.888 82.6221 139.753 82.0102 139.675C81.403 139.598 81.0242 139.574 81.0194 139.608Z" fill="#AA6550"/>
<path d="M80.1451 144.294C80.1256 144.361 81.2524 144.762 82.6657 145.192C84.0791 145.622 85.2398 145.912 85.2593 145.849C85.2787 145.782 84.1519 145.381 82.7386 144.951C81.3253 144.521 80.1645 144.231 80.1451 144.294Z" fill="#AA6550"/>
<path d="M79.5763 148.917C79.5472 148.98 80.7468 149.565 82.2524 150.217C83.758 150.874 85.0013 151.352 85.0305 151.289C85.0596 151.226 83.86 150.642 82.3544 149.99C80.8488 149.333 79.6054 148.854 79.5763 148.917Z" fill="#AA6550"/>
<path d="M125.697 179.291L90.6696 155.918L99.5042 139.994L131.472 156.348L127.844 139.163L149.539 132.781L154.954 162.184C155.79 175.266 145.246 185.827 132.526 182.392C130.092 181.735 127.785 180.687 125.692 179.291H125.697Z" fill="#FFBE9D"/>
<path d="M136.1 165.575C136.1 165.575 136.163 165.425 136.221 165.135C136.28 164.85 136.333 164.425 136.343 163.903C136.372 162.86 136.163 161.381 135.439 159.937C134.716 158.492 133.647 157.439 132.797 156.83C132.37 156.526 132.001 156.313 131.734 156.188C131.471 156.062 131.316 156.004 131.311 156.019C131.292 156.057 131.879 156.338 132.691 156.971C133.502 157.599 134.512 158.642 135.216 160.043C135.92 161.444 136.149 162.874 136.168 163.898C136.192 164.927 136.061 165.56 136.105 165.57L136.1 165.575Z" fill="#AA6550"/>
<path d="M46.1472 128.438C45.9287 128.143 21.2027 143.124 21.2027 143.124L13.2764 179.044L1.86772 183.209C1.86772 183.209 -1.69232 143.236 1.01778 137.013C3.72788 130.79 31.2028 108.408 31.2028 108.408L46.1472 128.443V128.438Z" fill="#FFBE9D"/>
<path d="M15.8019 140.366C15.7485 140.4 16.5498 141.491 17.9437 142.376C19.3328 143.269 20.6635 143.545 20.6732 143.482C20.6975 143.405 19.4299 143.033 18.0846 142.163C16.7295 141.303 15.8602 140.313 15.8019 140.366Z" fill="#AA6550"/>
<path d="M84.8709 163.758C84.7495 164.42 81.3983 195.644 81.3983 195.644L22.5872 191.576L12.6357 190.252L17.2253 161.174L24.258 159.502L84.8757 163.758H84.8709Z" fill="#FFE581"/>
<path opacity="0.4" d="M24.2531 159.497L84.8708 163.753C84.7494 164.415 81.3982 195.639 81.3982 195.639L20.1685 191.402L24.2531 159.492V159.497Z" fill="#D5A147"/>
<path d="M25.3125 176.151L38.4978 177.395L37.3913 188.996L24.206 187.751L25.3125 176.151Z" fill="#FAFAFA"/>
<path d="M24.2145 187.764C24.2145 187.764 24.2291 187.687 24.2485 187.542C24.2679 187.383 24.2922 187.175 24.3214 186.914C24.3796 186.349 24.4671 185.556 24.5739 184.552C24.7828 182.513 25.0742 179.633 25.4287 176.169L25.3121 176.266C29.1102 176.628 33.6367 177.063 38.4935 177.527C38.5178 177.556 38.2798 177.266 38.3818 177.392V177.44L38.3721 177.488L38.3624 177.585L38.3429 177.783L38.3041 178.174C38.2798 178.435 38.2555 178.696 38.2312 178.957C38.1827 179.474 38.1341 179.991 38.0855 180.498C37.9884 181.518 37.8961 182.518 37.8038 183.489C37.6241 185.436 37.4493 187.281 37.289 188.987L37.4104 188.885C33.5007 188.537 30.2224 188.247 27.896 188.044C26.7498 187.948 25.8367 187.871 25.1956 187.817C24.8945 187.793 24.6565 187.774 24.4719 187.764C24.3068 187.755 24.2194 187.75 24.2145 187.755C24.2145 187.755 24.2874 187.769 24.4428 187.788C24.6176 187.808 24.8507 187.837 25.1422 187.866C25.7784 187.933 26.6818 188.03 27.8134 188.146C30.1544 188.378 33.4521 188.711 37.3861 189.107L37.4978 189.117L37.5076 189.006C37.6727 187.3 37.8524 185.455 38.0418 183.508C38.1341 182.537 38.2312 181.537 38.3284 180.518C38.3769 180.01 38.4255 179.493 38.4741 178.976C38.4984 178.716 38.5226 178.455 38.5469 178.194L38.5858 177.802L38.6052 177.604L38.6149 177.508V177.435L38.6246 177.421V177.411C38.7266 177.532 38.4886 177.242 38.5081 177.271C33.6513 176.822 29.1247 176.401 25.3219 176.049L25.215 176.039L25.2053 176.145C24.8945 179.638 24.6371 182.547 24.4525 184.605C24.3699 185.6 24.3019 186.387 24.2582 186.948C24.2388 187.199 24.2242 187.402 24.2145 187.557C24.2048 187.692 24.2048 187.759 24.2097 187.759L24.2145 187.764Z" fill="#263238"/>
<path d="M26.3519 178.948C26.3471 179.015 28.6492 179.315 31.5001 179.614C34.3511 179.914 36.6677 180.097 36.6726 180.03C36.6775 179.962 34.3753 179.663 31.5244 179.363C28.6735 179.064 26.3568 178.88 26.3519 178.948Z" fill="#263238"/>
<path d="M26.4295 180.914C26.4247 180.947 26.9638 181.088 27.8477 181.261C28.7317 181.435 29.9604 181.638 31.3252 181.798C32.69 181.957 33.9333 182.044 34.8367 182.073C35.7352 182.107 36.2937 182.092 36.2986 182.059C36.2986 182.02 35.7449 181.972 34.8513 181.894C33.9576 181.817 32.7191 181.701 31.3592 181.547C29.9993 181.387 28.7705 181.213 27.8817 181.083C26.9929 180.952 26.4392 180.875 26.4344 180.909L26.4295 180.914Z" fill="#263238"/>
<path d="M25.8709 185.223C25.8661 185.257 26.4052 185.397 27.2891 185.571C28.1731 185.745 29.4018 185.948 30.7666 186.107C32.1314 186.267 33.3747 186.354 34.2781 186.383C35.1766 186.417 35.7351 186.402 35.74 186.368C35.74 186.33 35.1863 186.281 34.2927 186.204C33.399 186.127 32.1605 186.011 30.8006 185.856C29.4407 185.697 28.2119 185.523 27.3231 185.392C26.4343 185.262 25.8806 185.185 25.8758 185.218L25.8709 185.223Z" fill="#263238"/>
<path d="M26.5358 183.015C26.5261 183.083 28.6776 183.445 31.344 183.827C34.0104 184.204 36.1765 184.455 36.1862 184.387C36.196 184.32 34.0444 183.957 31.378 183.576C28.7116 183.199 26.5455 182.948 26.5358 183.015Z" fill="#263238"/>
<path d="M14.8945 200.982C14.8945 200.982 4.03958 193.842 3.20421 190.185C2.36884 186.533 1.86859 183.209 1.86859 183.209L13.4666 178.431L12.3156 182.585C12.3156 182.585 16.473 185.045 16.9004 188.025C17.1821 190.011 22.5586 193.412 22.5586 193.412C23.4716 192.315 24.8607 191.726 26.2886 191.823L30.8054 192.141L27.7553 198.992L14.8994 200.987L14.8945 200.982Z" fill="#FFBE9D"/>
<path d="M10.6542 191.19C10.6542 191.19 10.829 191.291 11.169 191.398C11.509 191.509 12.0141 191.62 12.6066 191.813C13.2088 191.997 13.8402 192.378 14.491 192.9C15.137 193.417 15.8946 193.997 16.8126 194.364C18.6339 195.147 20.5037 195.094 21.7374 194.775C22.0434 194.693 22.3348 194.625 22.563 194.47C22.7913 194.33 22.9127 194.065 22.8642 193.871C22.835 193.678 22.7136 193.557 22.6213 193.523C22.5242 193.49 22.4708 193.509 22.4708 193.514C22.4708 193.523 22.5242 193.523 22.597 193.567C22.6699 193.61 22.7525 193.722 22.767 193.881C22.7913 194.045 22.6942 194.229 22.4853 194.35C22.2862 194.475 22.0045 194.533 21.6985 194.596C20.4843 194.862 18.6776 194.881 16.9146 194.127C16.0258 193.77 15.3021 193.224 14.6367 192.712C13.9762 192.2 13.2914 191.804 12.6649 191.639C12.0481 191.461 11.543 191.378 11.1981 191.296C10.8533 191.219 10.6639 191.166 10.659 191.185L10.6542 191.19Z" fill="#AA6550"/>
<path d="M18.1732 196.731C18.1927 196.765 18.7318 196.451 19.6546 196.069C20.5774 195.692 21.9033 195.277 23.4186 195.137C23.7974 195.098 24.1714 195.083 24.5308 195.079H24.5988L24.6328 195.021C25.303 193.967 26.0704 193.17 26.6532 192.649C27.236 192.122 27.6294 191.851 27.6051 191.822C27.5954 191.813 27.4886 191.866 27.304 191.977C27.1195 192.093 26.8572 192.277 26.5464 192.523C25.9247 193.021 25.1233 193.813 24.4239 194.881L24.5259 194.823C24.1568 194.827 23.778 194.837 23.3894 194.881C21.8401 195.025 20.4948 195.475 19.5769 195.9C19.1155 196.108 18.7609 196.315 18.5229 196.465C18.2849 196.62 18.1587 196.712 18.1684 196.726L18.1732 196.731Z" fill="#AA6550"/>
<path d="M15.244 194.77C15.2198 194.842 15.9774 195.113 16.8322 195.596C17.687 196.074 18.3135 196.581 18.3621 196.528C18.4107 196.485 17.8424 195.876 16.9585 195.379C16.0745 194.876 15.2586 194.707 15.244 194.77Z" fill="#AA6550"/>
<path d="M9.36236 181.923C9.37207 182.001 10.1152 181.909 10.9845 182.141C11.8539 182.358 12.461 182.803 12.5047 182.74C12.5533 182.696 11.9802 182.136 11.0477 181.894C10.1152 181.648 9.34293 181.861 9.36236 181.923Z" fill="#AA6550"/>
<path d="M33.1913 116.179L62.5573 118.475L64.6499 161.841L24.1027 158.672L33.1913 116.179Z" fill="#EECA6A"/>
<path d="M62.5574 118.475L65.951 118.74L72.6134 162.463L64.65 161.841L62.5574 118.475Z" fill="#EECA6A"/>
<path opacity="0.3" d="M62.5574 118.475L65.951 118.74L72.6134 162.463L64.65 161.841L62.5574 118.475Z" fill="black"/>
<path d="M72.613 162.463C72.576 162.5 72.0721 162.073 71.2772 161.365C70.4824 160.657 69.4045 159.654 68.2269 158.535C68.0243 158.343 67.8217 158.15 67.6322 157.965L67.8922 157.945C67.0083 159.073 66.2166 160.065 65.6385 160.761C65.0603 161.457 64.688 161.87 64.6563 161.841C64.6246 161.811 64.9258 161.352 65.4592 160.618C65.9927 159.884 66.7521 158.869 67.6231 157.733L67.7439 157.579L67.8831 157.713C68.0727 157.898 68.2758 158.084 68.4784 158.276C69.656 159.395 70.7115 160.423 71.4616 161.182C72.2116 161.941 72.6567 162.425 72.6265 162.464L72.613 162.463Z" fill="#263238"/>
<path d="M64.3417 118.614C64.4374 118.608 65.2822 127.379 66.2243 138.213C67.1663 149.046 67.8535 157.833 67.751 157.839C67.6553 157.845 66.8106 149.073 65.8685 138.239C64.9264 127.406 64.2393 118.619 64.3417 118.614Z" fill="#263238"/>
<path d="M34.3205 140.613C34.2035 139.643 33.3615 138.956 32.4087 138.975C32.4087 138.975 32.4092 138.969 32.4083 138.963C32.4072 138.957 32.4077 138.954 32.4077 138.954C33.3919 138.993 33.4759 138.139 33.4759 138.139C33.0161 138.046 32.4817 138.284 32.3632 138.686C32.3018 138.458 32.1152 138.245 31.9453 138.084C31.8974 138.039 31.7781 137.992 31.701 138.069C31.625 138.144 31.6523 138.244 31.7171 138.298C32.0072 138.541 32.1269 138.998 32.12 138.999C31.2033 139.154 30.4714 140.005 30.5815 141.085C30.6872 142.122 31.642 142.857 32.6716 142.733C33.7012 142.609 34.4452 141.647 34.3203 140.613L34.3205 140.613ZM32.4818 140.193C32.3044 140.346 32.0909 140.434 31.8793 140.525C31.853 140.537 31.8283 140.548 31.8045 140.559C31.2886 140.803 31.1713 141.026 31.1683 141.257C31.1869 141.227 31.2103 141.198 31.2391 141.172C31.3602 141.064 31.5042 141.004 31.6536 140.951C31.8951 140.866 32.1441 140.808 32.3917 140.744C32.4334 140.734 32.4448 140.745 32.4442 140.789C32.4415 141.036 32.3051 141.19 32.0958 141.292C31.9398 141.369 31.7675 141.39 31.6009 141.431C31.5345 141.447 31.467 141.459 31.4031 141.483C31.3106 141.518 31.2631 141.572 31.2571 141.651C31.3522 141.856 31.5059 142.038 31.6188 142.131C31.6899 142.189 31.7711 142.235 31.8468 142.289C31.8619 142.299 31.8876 142.32 31.8911 142.33C31.8923 142.334 31.8883 142.338 31.8843 142.337C31.5704 142.29 31.2446 142.017 31.1314 141.885C31.0083 141.742 30.8782 141.511 30.8321 141.161C30.8261 141.122 30.8222 141.083 30.82 141.045C30.8198 141.043 30.8196 141.041 30.8196 141.038C30.8196 141.038 30.8196 141.038 30.8196 141.038C30.8109 140.86 30.8428 140.689 30.9089 140.521C31.0506 140.161 31.3176 139.912 31.6409 139.721C31.9642 139.529 32.3142 139.441 32.6926 139.482C32.7433 139.488 32.7668 139.5 32.7699 139.558C32.7841 139.821 32.6756 140.026 32.4816 140.193L32.4818 140.193Z" fill="#151515"/>
<path d="M58.8553 140.15C57.5577 140.046 56.4214 141.013 56.317 142.31C56.2125 143.608 57.1794 144.744 58.4766 144.849C59.7738 144.953 60.91 143.986 61.0145 142.688C61.1189 141.391 60.1525 140.254 58.8553 140.15ZM58.5684 143.715C57.9181 143.662 57.434 143.091 57.4866 142.438C57.5391 141.785 58.1084 141.298 58.7586 141.351C59.4084 141.403 59.8925 141.975 59.84 142.627C59.7874 143.28 59.2181 143.767 58.5684 143.715Z" fill="#151515"/>
<path d="M46.9527 139.192L45.8752 139.105L45.8454 139.475C45.4928 139.208 45.0559 139.037 44.5654 139C43.3435 138.908 42.1991 139.863 42.0952 141.155C41.9912 142.446 42.9452 143.599 44.3099 143.7C44.6496 143.725 45.1959 143.659 45.5565 143.295L45.5227 143.798L46.5721 143.877C46.5789 143.845 46.6354 143.139 46.6842 142.516L46.6849 142.516L46.9525 139.192L46.9527 139.192ZM44.3778 142.594C43.7181 142.541 43.2257 141.969 43.2782 141.316C43.3308 140.663 43.9082 140.177 44.5681 140.23C45.2281 140.283 45.7203 140.856 45.6677 141.508C45.6152 142.161 45.0378 142.647 44.3778 142.594Z" fill="#151515"/>
<path d="M52.0186 139.6L50.9413 139.513L50.9115 139.883C50.5587 139.616 50.1215 139.444 49.6315 139.407C48.4096 139.315 47.2651 140.271 47.1611 141.562C47.0571 142.854 48.0113 144.007 49.376 144.108C49.7153 144.133 50.2617 144.067 50.6224 143.703L50.5885 144.206L51.6382 144.285C51.6449 144.253 51.7013 143.547 51.7501 142.923L51.7511 142.923L52.0186 139.6ZM49.4439 143.002C48.7838 142.949 48.2918 142.376 48.3443 141.724C48.3968 141.071 48.9741 140.585 49.6342 140.638C50.2942 140.691 50.7863 141.263 50.7337 141.916C50.6812 142.569 50.1039 143.055 49.4439 143.002Z" fill="#151515"/>
<path d="M52.4043 139.631L56.3238 139.946L56.243 140.95L53.8038 143.365L56.0342 143.544L55.9461 144.639L52.0265 144.324L52.0996 143.416L54.5058 140.979L52.31 140.802L52.4043 139.631Z" fill="#151515"/>
<path d="M40.782 139.061L40.8113 138.697L39.7395 138.611L39.4733 141.917L39.4743 141.917L39.3627 143.304L40.589 143.403C40.589 143.403 40.7398 141.089 40.7936 140.862C40.8542 140.607 40.9694 140.442 41.0971 140.309C41.4671 139.924 41.9926 139.951 41.9926 139.951L42.0853 138.8C41.5598 138.757 41.1268 138.877 40.782 139.061Z" fill="#151515"/>
<path d="M35.6368 139.689C35.5934 139.831 35.3559 142.852 35.3559 142.852L35.3417 142.986L36.59 143.087L36.6969 141.461L38.6694 141.619L38.7544 140.564L36.796 140.406C36.796 140.406 36.8122 140.318 36.815 140.29C36.8902 139.565 37.6108 139.624 37.6108 139.624L39.2442 139.753L39.3387 138.578L37.2141 138.41C36.255 138.333 35.69 139.024 35.6365 139.689L35.6368 139.689Z" fill="#151515"/>
<path d="M35.6404 145.241C35.8056 145.254 35.912 145.195 35.9509 145.172C35.9772 145.156 35.9903 145.142 35.9925 145.114L36.0144 144.842C36.0162 144.82 36.0017 144.803 35.9781 144.801L35.6777 144.777C35.6541 144.775 35.6387 144.787 35.6368 144.809L35.6354 144.827C35.6336 144.85 35.647 144.864 35.6706 144.866L35.9067 144.885L35.8897 145.096C35.8566 145.113 35.7842 145.16 35.6531 145.149C35.4629 145.134 35.3247 144.98 35.3402 144.788C35.3554 144.6 35.5139 144.467 35.7041 144.483C35.7749 144.488 35.84 144.515 35.8921 144.558C35.9106 144.573 35.9369 144.575 35.9552 144.56L35.9694 144.549C35.9877 144.535 35.9895 144.512 35.9722 144.497C35.8993 144.435 35.8152 144.398 35.7129 144.389C35.4571 144.369 35.252 144.539 35.2327 144.779C35.2133 145.02 35.3912 145.221 35.6404 145.241ZM36.8005 144.675C36.7786 144.668 36.7644 144.665 36.7342 144.662C36.6555 144.656 36.5961 144.689 36.5558 144.747L36.5601 144.694C36.5619 144.671 36.5499 144.656 36.5276 144.655L36.5014 144.653C36.4791 144.651 36.4648 144.664 36.463 144.686L36.4175 145.251C36.4158 145.273 36.4277 145.289 36.45 145.291L36.4828 145.293C36.5064 145.295 36.5194 145.281 36.5211 145.26L36.5473 144.935C36.5564 144.821 36.6209 144.742 36.7179 144.75C36.7337 144.751 36.7479 144.755 36.7632 144.761C36.7825 144.768 36.8024 144.767 36.8123 144.742L36.8192 144.723C36.8308 144.693 36.8185 144.682 36.8005 144.675ZM37.1921 145.061L37.6984 145.101C37.7246 145.103 37.7443 145.088 37.7462 145.064C37.7535 144.975 37.7261 144.888 37.6667 144.823C37.6146 144.765 37.5384 144.727 37.4453 144.72C37.2564 144.704 37.1033 144.836 37.0879 145.027C37.0711 145.235 37.2293 145.369 37.409 145.383C37.4877 145.39 37.6011 145.375 37.6857 145.308C37.6999 145.296 37.7105 145.279 37.6924 145.257L37.6802 145.245C37.6658 145.227 37.649 145.223 37.6238 145.24C37.5484 145.291 37.4737 145.301 37.416 145.296C37.2967 145.286 37.1927 145.201 37.1921 145.061ZM37.4383 144.807C37.5052 144.812 37.5585 144.838 37.5933 144.882C37.6223 144.914 37.6398 144.96 37.6435 145.013L37.2001 144.977C37.2264 144.864 37.3189 144.797 37.4383 144.807ZM38.2166 145.143L38.7229 145.184C38.7491 145.186 38.7688 145.171 38.7707 145.147C38.7779 145.057 38.7505 144.971 38.6912 144.905C38.639 144.847 38.5629 144.81 38.4698 144.802C38.2809 144.787 38.1277 144.918 38.1124 145.109C38.0956 145.318 38.2538 145.451 38.4335 145.466C38.5122 145.472 38.6256 145.457 38.7102 145.39C38.7243 145.379 38.7349 145.362 38.7169 145.34L38.7047 145.327C38.6903 145.31 38.6734 145.306 38.6483 145.323C38.5729 145.374 38.4982 145.383 38.4405 145.379C38.3211 145.369 38.2172 145.283 38.2166 145.143ZM38.4627 144.889C38.5296 144.895 38.583 144.921 38.6178 144.964C38.6468 144.997 38.6642 145.043 38.6679 145.095L38.2246 145.06C38.2509 144.946 38.3434 144.88 38.4627 144.889ZM39.5243 144.887C39.4273 144.879 39.3496 144.91 39.2988 144.967L39.303 144.915C39.3048 144.892 39.2928 144.877 39.2705 144.875L39.2443 144.873C39.222 144.872 39.2077 144.884 39.2059 144.907L39.1604 145.472C39.1587 145.494 39.1706 145.51 39.1929 145.512L39.2257 145.514C39.2493 145.516 39.2623 145.502 39.264 145.48L39.2913 145.142C39.3003 145.03 39.3861 144.965 39.4989 144.974C39.6104 144.983 39.6754 145.061 39.6664 145.172L39.6392 145.511C39.6374 145.532 39.6493 145.548 39.6716 145.55L39.7044 145.553C39.728 145.555 39.741 145.541 39.7428 145.519L39.7708 145.171C39.7832 145.017 39.6896 144.9 39.5243 144.887ZM41.4018 145.047L41.3756 145.045C41.3533 145.043 41.3403 145.056 41.3385 145.079L41.3345 145.128C41.2854 145.066 41.2084 145.023 41.11 145.015C40.9224 144.999 40.7769 145.119 40.7633 145.287C40.7498 145.455 40.8744 145.596 41.0607 145.611C41.1551 145.619 41.2365 145.591 41.2947 145.541L41.2874 145.632C41.2763 145.77 41.1753 145.826 41.0494 145.816C40.9406 145.808 40.8767 145.764 40.8258 145.691C40.8092 145.668 40.7891 145.672 40.7725 145.682L40.7613 145.689C40.7363 145.705 40.7348 145.724 40.7503 145.744C40.8218 145.84 40.9127 145.892 41.0412 145.902C41.2117 145.916 41.3736 145.84 41.3902 145.634L41.4343 145.086C41.4361 145.064 41.4241 145.049 41.4018 145.047ZM41.0757 145.523C40.9406 145.512 40.8584 145.418 40.8683 145.295C40.8781 145.173 40.9758 145.092 41.1082 145.102C41.2407 145.113 41.3267 145.209 41.3167 145.333C41.307 145.454 41.2094 145.534 41.0757 145.523ZM42.2364 145.113C42.2145 145.106 42.2003 145.102 42.1701 145.1C42.0914 145.094 42.0319 145.127 41.9916 145.185L41.9959 145.132C41.9977 145.109 41.9857 145.094 41.9634 145.092L41.9372 145.09C41.9149 145.088 41.9007 145.101 41.8989 145.124L41.8534 145.689C41.8516 145.71 41.8635 145.727 41.8858 145.728L41.9186 145.731C41.9422 145.733 41.9553 145.719 41.957 145.697L41.9831 145.372C41.9923 145.259 42.0567 145.18 42.1538 145.188C42.1695 145.189 42.1837 145.193 42.1991 145.199C42.2183 145.206 42.2382 145.205 42.2481 145.18L42.255 145.16C42.2666 145.131 42.2543 145.119 42.2364 145.113ZM42.8449 145.821C43.0455 145.837 43.2054 145.705 43.2204 145.518C43.2355 145.331 43.0989 145.175 42.8982 145.159C42.6975 145.142 42.5377 145.275 42.5226 145.462C42.5076 145.649 42.6442 145.805 42.8449 145.821ZM42.8521 145.731C42.7091 145.72 42.6164 145.609 42.6276 145.47C42.6387 145.331 42.7493 145.237 42.891 145.248C43.0339 145.26 43.1267 145.37 43.1155 145.509C43.1043 145.648 42.995 145.743 42.8521 145.731ZM43.9142 145.907C43.9942 145.913 44.0887 145.903 44.1762 145.833C44.1905 145.82 44.2011 145.803 44.1829 145.782L44.1696 145.767C44.1538 145.751 44.1372 145.744 44.1132 145.763C44.0319 145.822 43.9699 145.821 43.9227 145.817C43.7732 145.805 43.6858 145.694 43.6968 145.557C43.708 145.417 43.8173 145.323 43.9616 145.334C44.0088 145.338 44.0701 145.347 44.1409 145.419C44.1616 145.441 44.1791 145.436 44.1973 145.423L44.2129 145.411C44.2341 145.393 44.2264 145.374 44.2143 145.36C44.1392 145.276 44.0475 145.251 43.9675 145.245C43.7655 145.228 43.607 145.361 43.5919 145.548C43.5769 145.735 43.7122 145.891 43.9142 145.907ZM44.6678 145.662L45.1741 145.703C45.2004 145.705 45.22 145.69 45.222 145.666C45.2292 145.576 45.2018 145.49 45.1424 145.424C45.0903 145.367 45.0142 145.329 44.921 145.321C44.7322 145.306 44.579 145.438 44.5636 145.628C44.5468 145.837 44.7051 145.971 44.8848 145.985C44.9635 145.991 45.0769 145.976 45.1615 145.909C45.1756 145.898 45.1862 145.881 45.1682 145.859L45.156 145.847C45.1416 145.829 45.1247 145.825 45.0996 145.842C45.0242 145.893 44.9495 145.903 44.8918 145.898C44.7724 145.888 44.6685 145.802 44.6678 145.662ZM44.914 145.409C44.9809 145.414 45.0343 145.44 45.069 145.483C45.0981 145.516 45.1155 145.562 45.1192 145.615L44.6759 145.579C44.7022 145.465 44.7947 145.399 44.914 145.409ZM45.9947 145.415C45.9728 145.409 45.9586 145.405 45.9285 145.402C45.8498 145.396 45.7903 145.43 45.75 145.487L45.7543 145.434C45.7561 145.411 45.7441 145.397 45.7218 145.395L45.6956 145.393C45.6733 145.391 45.6591 145.404 45.6572 145.426L45.6117 145.991C45.61 146.013 45.6219 146.029 45.6442 146.031L45.677 146.034C45.7006 146.036 45.7136 146.021 45.7154 146L45.7415 145.675C45.7507 145.561 45.8151 145.482 45.9121 145.49C45.9279 145.491 45.9421 145.495 45.9574 145.501C45.9767 145.508 45.9966 145.507 46.0065 145.483L46.0134 145.463C46.025 145.433 46.0127 145.422 45.9947 145.415ZM46.9082 145.49L46.8701 145.487C46.8465 145.485 46.8337 145.497 46.8227 145.519L46.5881 145.957L46.4266 145.487C46.4192 145.464 46.4085 145.45 46.3848 145.448L46.3402 145.445C46.3193 145.443 46.3061 145.458 46.3125 145.478L46.5226 146.066L46.4608 146.177C46.4268 146.239 46.4034 146.251 46.364 146.248C46.3483 146.247 46.3303 146.24 46.3164 146.233C46.2899 146.218 46.2683 146.224 46.2587 146.245L46.2525 146.256C46.2414 146.279 46.2562 146.291 46.2699 146.301C46.2912 146.316 46.3233 146.327 46.3587 146.33C46.4492 146.338 46.4957 146.302 46.5558 146.195L46.9289 145.528C46.9396 145.509 46.9292 145.492 46.9082 145.49ZM48.4829 145.352L48.4547 145.356C48.4303 145.361 48.4191 145.371 48.4176 145.39L48.3932 145.694C48.3401 145.632 48.2615 145.59 48.1659 145.583C47.9692 145.567 47.822 145.702 47.8071 145.887C47.7924 146.07 47.9158 146.229 48.1126 146.245C48.2124 146.253 48.2967 146.219 48.3581 146.164L48.3542 146.212C48.3525 146.234 48.3644 146.25 48.3864 146.252L48.4169 146.254C48.4389 146.256 48.4532 146.242 48.455 146.22L48.5218 145.39C48.524 145.363 48.5135 145.347 48.4829 145.352ZM48.1301 146.156C47.9844 146.144 47.9015 146.027 47.912 145.895C47.9226 145.764 48.0233 145.661 48.169 145.673C48.295 145.683 48.3973 145.772 48.3842 145.933C48.3713 146.094 48.2575 146.166 48.1301 146.156ZM49.0125 146.012L49.5189 146.053C49.5451 146.055 49.5647 146.04 49.5666 146.016C49.5739 145.926 49.5464 145.84 49.4871 145.774C49.4352 145.717 49.359 145.679 49.2658 145.671C49.077 145.656 48.9236 145.787 48.9082 145.978C48.8914 146.187 49.0499 146.32 49.2293 146.335C49.308 146.341 49.4215 146.326 49.5061 146.259C49.5202 146.248 49.531 146.231 49.5129 146.209L49.5007 146.196C49.4861 146.179 49.4695 146.175 49.4445 146.192C49.3687 146.243 49.2944 146.252 49.2364 146.248C49.1174 146.238 49.013 146.152 49.0125 146.012ZM49.2588 145.758C49.3258 145.764 49.3788 145.79 49.414 145.833C49.4429 145.866 49.4604 145.912 49.4638 145.964L49.0206 145.929C49.0468 145.815 49.1393 145.749 49.2588 145.758ZM49.9927 146.381L50.0255 146.384C50.048 146.385 50.0623 146.371 50.064 146.35L50.1309 145.519C50.133 145.493 50.1225 145.477 50.0929 145.482L50.0647 145.486C50.0408 145.491 50.0282 145.501 50.0267 145.52L49.9605 146.342C49.9588 146.363 49.9707 146.379 49.9927 146.381ZM50.6456 145.674C50.6901 145.678 50.7293 145.646 50.7329 145.602C50.7364 145.559 50.7027 145.521 50.6582 145.517C50.6137 145.514 50.5738 145.546 50.5704 145.589C50.5668 145.633 50.6011 145.67 50.6456 145.674ZM50.5675 146.427L50.6003 146.43C50.6228 146.432 50.6371 146.418 50.6388 146.396L50.6843 145.831C50.6861 145.808 50.6741 145.793 50.6517 145.792L50.6189 145.789C50.5968 145.787 50.5826 145.8 50.5808 145.823L50.5353 146.388C50.5336 146.409 50.5455 146.426 50.5675 146.427ZM51.6846 145.875L51.6504 145.872C51.6269 145.87 51.6142 145.882 51.6016 145.904L51.3549 146.344L51.1819 145.87C51.1734 145.846 51.1637 145.833 51.1402 145.831L51.1046 145.828C51.0826 145.826 51.0696 145.842 51.077 145.861L51.3058 146.463C51.3148 146.485 51.3244 146.495 51.3413 146.496L51.3441 146.496C51.361 146.498 51.3725 146.49 51.3845 146.469L51.7051 145.912C51.716 145.894 51.7056 145.876 51.6846 145.875ZM52.1126 146.262L52.619 146.302C52.6452 146.304 52.6648 146.29 52.6668 146.266C52.674 146.176 52.6465 146.09 52.5872 146.024C52.5353 145.966 52.4591 145.928 52.3659 145.921C52.1771 145.905 52.0237 146.037 52.0083 146.228C51.9915 146.436 52.15 146.57 52.3295 146.584C52.4082 146.591 52.5216 146.576 52.6062 146.509C52.6203 146.497 52.6311 146.48 52.6131 146.458L52.6009 146.446C52.5862 146.428 52.5696 146.424 52.5442 146.441C52.4689 146.493 52.3941 146.502 52.3365 146.497C52.217 146.488 52.1131 146.402 52.1126 146.262ZM52.3589 146.008C52.4259 146.013 52.479 146.039 52.5136 146.083C52.5431 146.116 52.5601 146.162 52.5639 146.214L52.1208 146.178C52.1469 146.065 52.2394 145.998 52.3589 146.008ZM53.4394 146.015C53.4178 146.008 53.4035 146.004 53.3731 146.002C53.2944 145.995 53.2351 146.029 53.1946 146.087L53.1989 146.034C53.2007 146.011 53.1887 145.996 53.1667 145.994L53.1405 145.992C53.118 145.99 53.1037 146.003 53.1019 146.026L53.0564 146.591C53.0547 146.612 53.0666 146.628 53.0891 146.63L53.1219 146.633C53.1453 146.635 53.1582 146.621 53.1599 146.599L53.1861 146.274C53.1953 146.16 53.2601 146.082 53.357 146.09C53.3725 146.091 53.3868 146.094 53.4023 146.101C53.4216 146.107 53.4415 146.107 53.4515 146.082L53.4582 146.062C53.4696 146.032 53.4573 146.021 53.4394 146.015ZM53.8309 146.4L54.3372 146.441C54.3635 146.443 54.3831 146.428 54.385 146.404C54.3922 146.314 54.3652 146.228 54.3055 146.162C54.2535 146.104 54.1774 146.067 54.0841 146.059C53.8954 146.044 53.7424 146.175 53.727 146.366C53.7102 146.575 53.8683 146.708 54.0482 146.723C54.1268 146.729 54.2403 146.714 54.3249 146.647C54.339 146.635 54.3493 146.619 54.3313 146.597L54.3191 146.584C54.3049 146.567 54.2878 146.563 54.2629 146.58C54.1876 146.631 54.1128 146.64 54.0552 146.636C53.9357 146.626 53.8318 146.54 53.8309 146.4ZM54.0771 146.146C54.1441 146.152 54.1977 146.178 54.2323 146.221C54.2613 146.254 54.2788 146.3 54.2826 146.352L53.839 146.317C53.8656 146.203 53.9577 146.137 54.0771 146.146ZM55.4256 145.911L55.3974 145.915C55.3735 145.92 55.3618 145.93 55.3603 145.949L55.3359 146.253C55.2828 146.191 55.2046 146.149 55.1086 146.141C54.9119 146.126 54.7652 146.261 54.7503 146.446C54.7355 146.629 54.8585 146.788 55.0553 146.804C55.1551 146.812 55.2398 146.778 55.3008 146.723L55.297 146.771C55.2952 146.793 55.3071 146.809 55.3296 146.811L55.3596 146.813C55.3821 146.815 55.3964 146.801 55.3981 146.779L55.465 145.949C55.4671 145.922 55.4562 145.906 55.4256 145.911ZM55.0733 146.715C54.9276 146.703 54.8446 146.586 54.8552 146.454C54.8658 146.323 54.9665 146.22 55.1122 146.232C55.2377 146.242 55.3404 146.331 55.3274 146.492C55.3145 146.653 55.2002 146.725 55.0733 146.715ZM56.8953 146.05C56.8675 146.032 56.8302 146.022 56.7908 146.019C56.6807 146.01 56.5611 146.066 56.5486 146.222L56.5451 146.266L56.4729 146.26C56.4495 146.258 56.434 146.27 56.4322 146.291L56.431 146.306C56.4293 146.328 56.4428 146.342 56.4662 146.344L56.5384 146.349L56.4966 146.868C56.4949 146.889 56.5068 146.905 56.5293 146.907L56.5621 146.91C56.5855 146.912 56.5989 146.898 56.6006 146.876L56.6423 146.358L56.8086 146.371C56.8311 146.373 56.8467 146.362 56.8484 146.34L56.8496 146.325C56.8513 146.303 56.8378 146.29 56.8154 146.288L56.6491 146.274L56.6526 146.23C56.6603 146.135 56.7211 146.1 56.7881 146.105C56.8115 146.107 56.8295 146.112 56.8511 146.125C56.8673 146.134 56.8867 146.14 56.9034 146.114L56.9111 146.1C56.9264 146.074 56.9115 146.06 56.8953 146.05ZM57.5472 146.345C57.5255 146.339 57.5112 146.335 57.4808 146.332C57.4021 146.326 57.3428 146.359 57.3023 146.417L57.3066 146.364C57.3084 146.341 57.2964 146.326 57.2744 146.325L57.2482 146.323C57.2257 146.321 57.2115 146.334 57.2096 146.356L57.1642 146.921C57.1624 146.943 57.1743 146.959 57.1968 146.961L57.2296 146.964C57.253 146.965 57.266 146.951 57.2677 146.93L57.2938 146.605C57.303 146.491 57.3678 146.412 57.4648 146.42C57.4802 146.421 57.4945 146.425 57.5101 146.431C57.5293 146.438 57.5492 146.437 57.5592 146.413L57.566 146.393C57.5773 146.363 57.565 146.352 57.5472 146.345ZM57.9391 146.731L58.445 146.771C58.4712 146.773 58.4913 146.759 58.4932 146.735C58.5004 146.645 58.4729 146.559 58.4136 146.493C58.3612 146.435 58.2851 146.397 58.1919 146.39C58.0031 146.374 57.8501 146.506 57.8348 146.697C57.818 146.905 57.976 147.039 58.1559 147.053C58.2346 147.06 58.348 147.045 58.4326 146.978C58.4467 146.966 58.4571 146.949 58.439 146.927L58.4268 146.915C58.4127 146.897 58.3955 146.893 58.3706 146.91C58.2953 146.962 58.2205 146.971 58.1629 146.966C58.0435 146.957 57.9396 146.871 57.9391 146.731ZM58.1848 146.477C58.2518 146.482 58.3054 146.508 58.3401 146.552C58.369 146.585 58.3865 146.631 58.3903 146.683L57.9467 146.647C57.9733 146.534 58.0659 146.467 58.1848 146.477ZM59.0675 147.127C59.208 147.138 59.3078 147.075 59.3166 146.966C59.3269 146.839 59.2249 146.793 59.1158 146.738C59.0461 146.701 58.9955 146.673 58.9996 146.623C59.0035 146.575 59.0511 146.545 59.1204 146.551C59.1757 146.555 59.2096 146.573 59.2547 146.623C59.2751 146.645 59.2954 146.638 59.3111 146.625L59.3212 146.617C59.344 146.597 59.3374 146.579 59.3227 146.562C59.2712 146.499 59.2009 146.471 59.1301 146.465C58.9962 146.454 58.9025 146.517 58.894 146.623C58.8857 146.725 58.9758 146.772 59.0661 146.816C59.1459 146.856 59.2174 146.887 59.2116 146.959C59.2071 147.015 59.1494 147.046 59.0693 147.039C59.0038 147.034 58.9484 147.001 58.9086 146.951C58.8892 146.928 58.8719 146.932 58.8525 146.945L58.8424 146.953C58.8175 146.969 58.824 146.989 58.8358 147.006C58.8894 147.078 58.9836 147.12 59.0675 147.127ZM60.0881 146.542C59.9963 146.535 59.9215 146.562 59.8697 146.614L59.8945 146.305C59.8967 146.279 59.8862 146.263 59.8565 146.268L59.8284 146.272C59.8045 146.276 59.7918 146.287 59.7903 146.306L59.7242 147.128C59.7224 147.149 59.7343 147.165 59.7563 147.167L59.7891 147.17C59.8116 147.171 59.826 147.157 59.8277 147.136L59.855 146.797C59.8639 146.686 59.9498 146.62 60.0622 146.629C60.1737 146.638 60.2391 146.716 60.2302 146.827L60.2029 147.166C60.2012 147.188 60.2131 147.204 60.2351 147.206L60.2679 147.208C60.2904 147.21 60.3047 147.196 60.3064 147.174L60.3344 146.827C60.3468 146.673 60.253 146.556 60.0881 146.542Z" fill="#151515"/>
<path d="M69.1859 23.3041C67.5077 35.0249 95.9821 33.7664 101.695 33.4038C102.327 33.3623 102.684 33.3287 102.684 33.3287C102.684 33.3287 100.797 55.1718 103.26 60.7835C104.522 63.6589 109.447 65.4426 114.556 64.0178L114.577 64.021C119.442 62.6512 124.462 58.3642 126.621 49.3409C131.057 30.8219 126.477 13.8921 109.211 7.71215C91.9454 1.53221 71.8722 4.64507 69.1859 23.3041Z" fill="#FAD03A"/>
<path d="M101.696 33.3975C102.328 33.356 102.685 33.3224 102.685 33.3224C102.685 33.3224 100.798 55.1655 103.26 60.7772C104.523 63.6527 109.447 65.4363 114.556 64.0115C113.039 64.0429 108.937 63.7952 107.417 60.2521C105.525 55.8787 105.392 32.2593 105.392 32.2593L102.229 30.4408L101.696 33.3975Z" fill="#6D6D6D"/>
<path d="M105.458 32.7565C105.465 32.233 105.33 31.7176 105.069 31.265C104.807 30.8124 104.429 30.4397 103.973 30.1864C102.423 29.4067 87.0872 24.285 80.4687 24.1802C73.8502 24.0753 65.9178 26.3436 64.4124 28.8004C62.907 31.2572 79.2937 34.9361 89.9665 35.2458C100.639 35.5556 105.458 32.7565 105.458 32.7565Z" fill="#E0BD40"/>
<path d="M115.422 42.9836C114.658 48.0608 116.317 52.5177 119.126 52.9402C121.935 53.3627 124.832 49.5888 125.596 44.5137C126.359 39.4387 124.7 34.9796 121.891 34.5571C119.082 34.1346 116.186 37.9063 115.422 42.9836Z" fill="#E0BD40"/>
</svg>
