<svg width="92" height="139" viewBox="0 0 92 139" fill="none" xmlns="http://www.w3.org/2000/svg">
<path d="M29.8241 18.7546C30.9779 11.2966 37.6592 5.98022 45.1775 6.53071L45.9241 6.5835C53.9477 7.63923 57.5372 15.052 56.2552 23.0455L53.4575 51.4146L53.3218 57.2815L34.2054 59.016L34.6126 46.6337C34.6126 46.6337 26.951 44.8615 27.4185 37.1094C27.6447 33.3615 28.7382 25.6923 29.809 18.7546H29.8241Z" fill="#FFBF9D"/>
<path d="M34.5603 46.6186C34.5603 46.6186 39.4845 47.2747 44.9291 44.3865C44.9291 44.3865 42.237 49.9819 34.5527 48.715V46.6186H34.5603Z" fill="#FF9A6C"/>
<path d="M32.8259 26.4842C32.7655 27.0648 33.2029 27.6003 33.8137 27.6757C34.417 27.7511 34.96 27.3439 35.0278 26.7632C35.0882 26.1826 34.6508 25.6471 34.0475 25.5717C33.4367 25.4963 32.8937 25.9035 32.8334 26.4842H32.8259Z" fill="#263238"/>
<path d="M31.2117 22.6684C31.3399 22.8192 32.2222 22.2612 33.4137 22.3517C34.6052 22.4271 35.4347 23.0982 35.5704 22.9625C35.6383 22.9022 35.5176 22.6307 35.1557 22.3291C34.8013 22.0274 34.1829 21.7107 33.4363 21.6579C32.6973 21.6051 32.0488 21.8389 31.6717 22.0877C31.2872 22.3441 31.1439 22.593 31.2042 22.6609L31.2117 22.6684Z" fill="#263238"/>
<path d="M43.9777 27.5474C43.9174 28.1281 44.3548 28.6635 44.9656 28.7389C45.5689 28.8143 46.1118 28.4071 46.1797 27.8264C46.24 27.2458 45.8026 26.7104 45.1918 26.635C44.581 26.5596 44.0381 26.9668 43.9777 27.5474Z" fill="#263238"/>
<path d="M42.9 23.7468C43.0282 23.8976 43.9105 23.3396 45.102 23.4301C46.2934 23.5055 47.123 24.1766 47.2587 24.0409C47.3266 23.9805 47.2059 23.7091 46.8439 23.4074C46.4895 23.1058 45.8712 22.7891 45.1321 22.7363C44.3931 22.6835 43.7446 22.9173 43.3675 23.1661C42.983 23.4225 42.8397 23.6714 42.9 23.7392V23.7468Z" fill="#263238"/>
<path d="M37.9311 32.2606C37.9387 32.1927 37.2147 32.0117 36.0232 31.7704C35.7216 31.7176 35.4351 31.6347 35.4049 31.4235C35.3521 31.1973 35.5029 30.8806 35.6764 30.5337C36.0157 29.8173 36.3701 29.0708 36.7472 28.2865C38.2328 25.0816 39.3337 22.4347 39.2055 22.3819C39.0773 22.3216 37.7652 24.8704 36.2796 28.0754C35.9177 28.8672 35.5783 29.6213 35.2465 30.3376C35.1032 30.677 34.877 31.054 35.0052 31.5216C35.0731 31.7554 35.2842 31.9363 35.4728 32.0042C35.6613 32.0796 35.8347 32.0947 35.9855 32.1173C37.1846 32.2681 37.9387 32.3285 37.9462 32.2606H37.9311Z" fill="#263238"/>
<path d="M41.3772 33.3389C41.1811 33.3163 41.0906 34.6058 39.9142 35.4429C38.7454 36.2799 37.3729 36.0386 37.3503 36.2196C37.3277 36.3025 37.6368 36.491 38.2175 36.5514C38.7831 36.6117 39.6352 36.491 40.3516 35.9783C41.068 35.4655 41.4149 34.734 41.4978 34.2061C41.5883 33.6707 41.4677 33.3389 41.3772 33.3389V33.3389Z" fill="#263238"/>
<path d="M42.9305 19.0563C43.021 19.3881 44.2276 19.3202 45.6076 19.5917C46.9951 19.833 48.0961 20.3232 48.2997 20.0517C48.3902 19.916 48.2168 19.5993 47.7869 19.2524C47.3571 18.9055 46.6633 18.5586 45.8263 18.4002C44.9968 18.2494 44.22 18.3248 43.6922 18.4907C43.1643 18.6566 42.8853 18.8979 42.9305 19.0563V19.0563Z" fill="#263238"/>
<path d="M31.8975 19.2524C32.086 19.539 32.9306 19.3203 33.9185 19.3731C34.9064 19.3957 35.7283 19.6898 35.9395 19.4183C36.03 19.2901 35.9244 19.0036 35.5775 18.7245C35.2382 18.4455 34.65 18.1891 33.9713 18.159C33.2926 18.1288 32.6893 18.3324 32.3198 18.5888C31.9503 18.8452 31.8146 19.1091 31.8975 19.2524V19.2524Z" fill="#263238"/>
<path d="M54.4605 30.4959C54.5963 29.3045 55.6973 28.4372 56.8812 28.6333C58.314 28.8746 59.8674 29.8097 59.5507 32.7884C58.9927 38.0746 53.8045 36.4231 53.812 36.2723C53.812 36.1668 54.2117 32.6979 54.4605 30.4884V30.4959Z" fill="#FFBF9D"/>
<path d="M55.1683 34.4097C55.1683 34.4097 55.2513 34.4851 55.4021 34.5681C55.5454 34.651 55.8018 34.7264 56.0883 34.651C56.669 34.5077 57.2345 33.6707 57.3552 32.7205C57.4155 32.2379 57.3627 31.7703 57.2345 31.3782C57.1139 30.971 56.8952 30.6769 56.6162 30.6015C56.3447 30.511 56.126 30.6543 56.0431 30.7976C55.9601 30.9408 55.9827 31.0464 55.9526 31.054C55.9375 31.069 55.847 30.9559 55.9149 30.7372C55.945 30.6317 56.0204 30.5185 56.1562 30.428C56.2919 30.3376 56.488 30.3074 56.6765 30.3451C57.0837 30.413 57.408 30.8277 57.5513 31.2651C57.7172 31.7025 57.785 32.2303 57.7172 32.7733C57.5739 33.8366 56.9254 34.7717 56.1336 34.9149C55.749 34.9753 55.4549 34.8244 55.3041 34.6887C55.1532 34.5379 55.1382 34.4172 55.1608 34.4097H55.1683Z" fill="#FF9A6C"/>
<path d="M58.6993 25.1043C58.2619 26.62 58.4203 29.1387 57.0629 28.7918C54.3783 28.1131 55.0193 33.6256 53.7298 33.0827C52.4553 32.5472 51.3317 30.9787 51.2563 27.5928C51.1583 23.2869 52.8852 20.18 51.1885 15.2558C50.0498 13.28 48.0288 11.9302 45.7514 11.8774C43.474 11.8246 41.2721 12.9784 40.0429 14.9013C39.8016 13.4007 39.0701 11.1384 37.7353 10.4145C36.4006 9.69053 34.6134 9.77348 33.4596 10.7689C32.3058 11.7643 31.9891 13.6571 32.9016 14.8787C32.2908 15.0748 31.5593 14.8184 31.2124 14.2679C31.1596 14.9692 31.4085 15.6856 31.8835 16.1984C31.333 16.0627 30.8429 15.7158 30.5186 15.2482C30.6544 15.8666 30.7826 16.4925 30.9183 17.1109C28.656 17.1712 26.4389 14.9768 25.8055 13.0236C24.8553 10.0676 25.5868 7.08135 27.2383 4.44954C28.8898 1.82528 31.8534 -0.0298014 34.9603 0.000362541C38.0671 0.0305265 40.6763 1.50102 41.8753 4.36659C43.8963 2.94135 47.9835 2.44364 50.2308 3.46921C52.478 4.49479 54.1144 6.76462 54.3632 9.22298C55.7734 8.62725 57.4626 9.08725 58.6465 10.0525C58.7445 10.1354 58.8426 10.2184 58.9331 10.3013C60.5619 11.802 61.2255 14.0869 60.8108 16.2587C60.6449 17.1184 60.3508 18.0158 60.1698 18.702C59.6494 20.7607 58.6917 25.0968 58.6917 25.0968L58.6993 25.1043Z" fill="#263238"/>
<path d="M30.8576 14.1397C30.8576 14.1397 30.7897 14.0945 30.6766 13.9964C30.5635 13.8984 30.4052 13.74 30.2317 13.5063C29.8773 13.0538 29.4625 12.2922 29.3419 11.259C29.2137 10.2486 29.4474 8.90626 30.3976 7.8656C31.3025 6.84003 32.8333 6.10855 34.4396 6.34232C35.2314 6.45543 35.9629 6.77216 36.5812 7.17937C37.2071 7.59412 37.735 8.09183 38.1573 8.62724C39.0245 9.68298 39.5222 10.8443 39.7786 11.8322C40.035 12.8276 40.0652 13.6722 40.0425 14.2453C40.0199 14.5318 40.0048 14.7505 39.9747 14.9013C39.952 15.0522 39.937 15.1276 39.9294 15.1276C39.8615 15.1276 40.1556 13.8456 39.6202 11.8774C39.3488 10.9122 38.8435 9.78855 37.9914 8.76298C37.1543 7.75248 35.9176 6.79478 34.4019 6.57609C32.8861 6.3574 31.4232 7.04363 30.556 8.01642C29.6511 8.98921 29.4022 10.2636 29.5078 11.244C29.6058 12.2469 29.9829 13.001 30.3071 13.461C30.6314 13.921 30.8802 14.1246 30.8576 14.1472V14.1397Z" fill="#455A64"/>
<path d="M29.8169 16.5076C29.8169 16.5076 29.7566 16.4246 29.6586 16.2512C29.5605 16.0778 29.4173 15.8214 29.2438 15.4896C28.9045 14.8184 28.3841 13.8456 27.9996 12.541C27.811 11.8925 27.6678 11.146 27.6527 10.3466C27.6376 9.54727 27.7507 8.67251 28.1127 7.83547C28.4671 6.99842 29.1005 6.22169 29.9301 5.67874C30.7596 5.13579 31.755 4.78891 32.8032 4.72858C33.8514 4.66071 34.8769 4.86432 35.7969 5.20366C36.7169 5.55055 37.5389 6.04071 38.2478 6.59874C39.673 7.70727 40.6081 9.1476 40.9248 10.4824C41.2566 11.8171 41.0455 12.9633 40.7664 13.6646C40.6307 14.0191 40.4723 14.2755 40.3743 14.4414C40.2612 14.6073 40.1933 14.6902 40.1858 14.6827C40.1632 14.6676 40.4346 14.3358 40.6835 13.6345C40.9248 12.9407 41.1058 11.8171 40.7664 10.5276C40.4346 9.23809 39.5146 7.85055 38.1196 6.77219C36.7396 5.70137 34.8619 4.84169 32.8258 4.96235C31.8153 5.02268 30.8576 5.35448 30.0582 5.87481C29.2664 6.39514 28.6556 7.12661 28.3163 7.92596C27.9694 8.7253 27.8487 9.56989 27.8563 10.3542C27.8563 11.1384 27.992 11.8624 28.173 12.5109C28.535 13.8004 29.0251 14.7883 29.3419 15.4669L29.7189 16.2512C29.8019 16.4322 29.8471 16.5302 29.8396 16.5302L29.8169 16.5076Z" fill="#455A64"/>
<path d="M56.8291 21.6806C56.8291 21.6806 57.3193 21.2809 57.9602 20.5193C58.6012 19.7652 59.3402 18.5586 59.6494 17.0655C59.9586 15.5724 59.7625 14.1698 59.476 13.2272C59.1894 12.2695 58.8576 11.734 58.9029 11.7114C58.918 11.7114 59.0084 11.8321 59.1517 12.0734C59.295 12.3222 59.476 12.6918 59.6419 13.1744C59.9812 14.1321 60.2075 15.5724 59.8907 17.1108C59.574 18.6491 58.7822 19.8859 58.096 20.6249C57.7491 21.0019 57.4399 21.2734 57.2137 21.4393C56.9875 21.6127 56.8517 21.6881 56.8442 21.6731L56.8291 21.6806Z" fill="#455A64"/>
<path d="M52.0103 21.5298C52.0103 21.5298 52.2742 21.4092 52.6965 21.1226C53.1037 20.836 53.6693 20.3308 54.0312 19.5164L54.2575 19.0111L54.2047 19.5616C54.1368 20.3082 54.0614 21.1678 53.9785 22.0954L53.805 21.9898C54.4309 21.5675 55.0342 20.9944 55.5319 20.2931C56.1653 19.4108 56.5499 18.4305 56.7158 17.5029C56.8742 16.5754 56.8289 15.7157 56.7007 15.0144C56.4293 13.6042 55.9014 12.8501 55.9542 12.8275C55.9542 12.8275 55.9919 12.8652 56.0522 12.9557C56.1125 13.0462 56.188 13.1819 56.286 13.3629C56.4745 13.7249 56.7083 14.2678 56.8591 14.9842C57.0099 15.6931 57.0778 16.5829 56.927 17.5406C56.7686 18.4983 56.3765 19.5164 55.7204 20.4288C55.2076 21.1452 54.5742 21.741 53.9257 22.1708L53.7296 22.299L53.7522 22.0652C53.8503 21.1377 53.9407 20.278 54.0237 19.539L54.1971 19.5842C53.7975 20.4364 53.1942 20.9341 52.7493 21.2055C52.5306 21.3413 52.3421 21.4242 52.2139 21.4695C52.0857 21.5147 52.0178 21.5298 52.0103 21.5223V21.5298Z" fill="#455A64"/>
<path d="M50.5402 10.3843C50.495 10.4144 50.2687 9.63018 49.3186 8.85346C48.8435 8.47641 48.195 8.12199 47.4107 7.97117C46.634 7.81281 45.7291 7.88068 44.8619 8.20494C43.9946 8.5292 43.2632 9.04953 42.7278 9.64527C42.1848 10.2335 41.8228 10.8744 41.5815 11.4325C41.0989 12.5561 41.0537 13.3403 41.0009 13.3253C40.9858 13.3253 40.9858 13.1292 41.0386 12.7899C41.0914 12.443 41.1969 11.9528 41.4232 11.3722C41.6569 10.7915 42.0114 10.1279 42.5618 9.50199C43.1123 8.87609 43.874 8.32559 44.7714 7.98625C45.6763 7.65445 46.6264 7.58658 47.4409 7.76756C48.2628 7.941 48.934 8.33313 49.4091 8.74035C49.8841 9.1551 50.1782 9.5774 50.3366 9.88658C50.412 10.0449 50.4723 10.1656 50.495 10.2561C50.5251 10.3466 50.5402 10.3918 50.5327 10.3918L50.5402 10.3843Z" fill="#455A64"/>
<path d="M49.3041 6.34232C49.2814 6.38756 48.7913 5.99543 47.8411 5.77674C46.9136 5.55051 45.5034 5.58822 44.2063 6.28953C42.9093 6.99838 42.0798 8.12199 41.6349 8.96658C41.1749 9.81871 41.0316 10.4144 40.9863 10.4069C40.9713 10.4069 40.9939 10.2485 41.0693 9.98461C41.1447 9.72068 41.2729 9.33609 41.4916 8.89117C41.9139 8.00887 42.7509 6.82494 44.1008 6.08592C45.4581 5.34691 46.9362 5.34691 47.8863 5.61838C48.369 5.75412 48.7309 5.92756 48.9647 6.07838C49.1985 6.2292 49.3116 6.32723 49.3041 6.34232V6.34232Z" fill="#455A64"/>
<path d="M11.289 74.92C8.9136 81.8351 9.17753 81.2469 4.75097 101.902C3.93655 105.71 5.37687 111.675 8.81556 113.515C12.2543 115.355 18.3624 113.334 20.4061 110.016L23.7015 78.8338L11.2965 74.92H11.289Z" fill="#FFBF9D"/>
<path d="M68.4503 112.391L68.3598 95.9593L68.4277 94.3455L85.1008 90.4544C85.1008 90.4544 81.828 79.6708 78.8267 68.0803C77.0923 61.3914 71.3234 58.0206 69.9284 57.2967L69.6267 57.1459L53.5795 50.3514C50.3369 53.8128 45.6162 56.5803 41.069 55.2531C38.5805 54.5291 36.0316 52.6892 34.4707 50.7511L23.6493 54.4613C20.8743 55.4793 17.9333 57.4173 16.1687 60.5242C13.9064 64.5285 6.67458 82.8832 6.54639 83.298L19.9392 84.5046C19.9392 84.5046 17.5638 127.948 18.4008 135.715C18.4008 135.715 21.651 137.963 29.8631 138.355C46.5061 139.139 71.2782 137.955 71.2782 137.955C70.8936 135.444 70.4864 131.259 70.2526 129.14L68.4428 112.391H68.4503Z" fill="#E52E2E"/>
<path d="M20.3916 68.3217C20.4594 68.3217 20.105 78.683 19.5998 91.4649C19.0945 104.247 18.627 114.601 18.5591 114.601C18.4912 114.601 18.8457 104.239 19.3509 91.4574C19.8562 78.683 20.3237 68.3217 20.3916 68.3292V68.3217Z" fill="#263238"/>
<path d="M66.6171 71.2173C66.4965 71.2173 66.8358 80.4173 67.3712 91.7514C67.9066 103.085 68.4345 112.27 68.5552 112.27C68.6758 112.27 68.3365 103.07 67.8011 91.7363C67.2657 80.4022 66.7378 71.2173 66.6171 71.2248V71.2173Z" fill="#263238"/>
<g opacity="0.3">
<path opacity="0.3" d="M39.5605 98.9833C39.3946 97.6561 39.1985 96.2761 38.4293 95.1827C37.087 93.2899 34.4552 92.8902 32.1401 93.0033C29.825 93.1164 27.427 93.5689 25.2477 92.7771L18.7549 112.067C21.168 111.479 23.3172 109.91 24.6218 107.799C25.2854 106.72 25.768 105.469 26.7709 104.699C28.1509 103.636 30.0739 103.794 31.8159 103.772C33.6408 103.749 35.4582 103.485 37.2152 102.98C37.9618 102.761 38.7309 102.475 39.1909 101.849C39.7791 101.05 39.6811 99.9561 39.5529 98.9758L39.5605 98.9833Z" fill="black"/>
</g>
<path d="M19.5724 69.7906L21.5934 91.2598C21.7065 92.4513 22.1665 93.2808 22.9206 93.7333L35.9439 93.4542C36.4717 92.9716 37.0524 91.4408 36.9393 89.8044L35.4989 69.2552C35.416 68.0185 34.9485 67.1287 34.3904 67.1136L20.6734 66.7969C19.9721 66.7818 19.4291 68.2598 19.5724 69.7906V69.7906Z" fill="#263238"/>
<path d="M17.6805 74.1116C17.13 73.4782 17.2054 72.445 17.7257 71.7814C18.2461 71.1178 19.1133 70.8011 19.9579 70.786C20.8025 70.7709 21.6244 71.0349 22.4012 71.3516C23.3664 71.7437 24.2864 72.2339 25.1536 72.807C25.7644 73.2142 26.3979 73.7345 26.5034 74.4585C26.609 75.1824 25.8021 75.9893 25.1762 75.6122C25.9982 75.9818 26.8126 76.8791 26.9257 77.7916C27.0389 78.7116 26.5336 79.1942 25.6438 79.4355C26.3149 79.7145 26.7221 80.5742 26.3979 81.2152C26.0585 81.8939 25.1008 82.0598 24.3995 81.7732C23.6982 81.4867 23.1854 80.8759 22.7028 80.2801C23.1854 81.1624 23.1477 82.5726 22.9366 83.5529C20.9985 82.8365 19.0831 80.6798 19.6562 78.6286C18.7136 77.8821 18.2838 76.3513 18.8795 75.3031C18.0953 75.0391 17.228 73.8175 17.311 72.988" fill="#FFBF9D"/>
<path d="M17.4607 72.2339L17.3023 81.4113L14.9193 84.9932L4 94.7513C4 94.7513 5.62131 108.016 10.5456 106.568C15.4698 105.12 16.6689 104.177 19.5797 98.8234C21.1407 95.9578 22.0984 91.2975 23.0033 88.6204C23.5311 87.0519 23.0636 81.9995 23.0636 81.9995L17.4531 72.2339H17.4607Z" fill="#FFBF9D"/>
<path d="M25.6119 79.4506C25.6119 79.4506 25.2876 79.2018 24.7824 78.787C24.2771 78.3798 23.5381 77.8218 22.5804 77.5955C22.1053 77.4824 21.6302 77.4749 21.223 77.5654C20.8158 77.6559 20.4689 77.8444 20.2201 78.0404C19.7148 78.4401 19.5942 78.8624 19.5565 78.8398C19.5489 78.8398 19.5565 78.7342 19.6394 78.5608C19.7148 78.3873 19.8656 78.1536 20.122 77.9273C20.3784 77.7011 20.7328 77.49 21.1778 77.3768C21.6151 77.2637 22.1279 77.2713 22.6332 77.3919C23.6512 77.6332 24.3978 78.244 24.8879 78.6814C25.3781 79.1339 25.642 79.4431 25.6194 79.4657L25.6119 79.4506Z" fill="#FF9A6C"/>
<path d="M25.4844 75.7103C25.4844 75.7103 25.0772 75.5746 24.4664 75.2579C24.1572 75.1071 23.8028 74.9185 23.3805 74.7526C22.9657 74.5943 22.4831 74.4585 21.9779 74.353C21.4726 74.2549 20.9824 74.2323 20.5451 74.3077C20.1152 74.3831 19.7457 74.549 19.4742 74.7451C18.9238 75.1372 18.8031 75.5746 18.7654 75.552C18.7579 75.552 18.7654 75.4389 18.8559 75.2579C18.9388 75.0844 19.1047 74.8356 19.3838 74.6169C19.6628 74.3982 20.0474 74.1946 20.5074 74.1041C20.9674 74.0136 21.4877 74.0362 22.0156 74.1343C22.5359 74.2398 23.0185 74.3831 23.4483 74.5566C23.8782 74.7375 24.2326 74.9412 24.5342 75.1071C25.1224 75.4539 25.4919 75.6651 25.4769 75.6953L25.4844 75.7103Z" fill="#FF9A6C"/>
<path d="M5.19091 100.022C5.2814 100.015 4.70829 98.7178 5.05517 96.6063C5.22861 95.5657 5.63583 94.344 6.34468 93.1375C7.04599 91.9234 8.05648 90.7319 9.22533 89.6008C10.4017 88.4696 11.6083 87.4742 12.6866 86.5467C13.765 85.6191 14.7076 84.7368 15.4466 83.945C16.1781 83.1532 16.7135 82.4444 17.0378 81.9391C17.3696 81.4339 17.5053 81.1247 17.4903 81.1172C17.4676 81.1021 17.2791 81.3811 16.9247 81.8562C16.5627 82.3313 16.0122 83.0024 15.2657 83.764C14.5191 84.5257 13.5614 85.3778 12.4755 86.2903C11.3896 87.2027 10.168 88.1906 8.98402 89.3368C7.80009 90.4831 6.77452 91.7047 6.06566 92.964C5.35681 94.2234 4.95714 95.4827 4.81386 96.5611C4.67058 97.647 4.76107 98.5368 4.89681 99.125C4.97222 99.4191 5.03255 99.6454 5.10042 99.7962C5.16074 99.947 5.19091 100.022 5.20599 100.015L5.19091 100.022Z" fill="#FF9A6C"/>
<rect y="86" width="92" height="53" fill="#222222"/>
</svg>
