<svg width="263" height="212" viewBox="0 0 263 212" fill="none" xmlns="http://www.w3.org/2000/svg">
<path d="M7.995 187.687H2.23438V205.325H7.995C13.6541 205.325 17.3592 202 17.3592 196.569C17.3592 191.113 13.6541 187.687 7.995 187.687ZM5.12738 202.964V190.047H7.995C12.1569 190.047 14.3901 192.534 14.3901 196.569C14.3901 200.579 12.1569 202.964 7.995 202.964H5.12738Z" fill="#26BC26"/>
<path d="M30.1512 193.55C32.3083 193.55 34.0085 194.92 34.0593 197.077H26.3192C26.6238 194.869 28.1972 193.55 30.1512 193.55ZM36.6985 201.163H33.5771C33.0442 202.254 32.0545 203.117 30.2781 203.117C28.1464 203.117 26.4969 201.721 26.2939 199.412H36.9777C37.0538 198.93 37.0792 198.473 37.0792 197.991C37.0792 193.879 34.2623 191.113 30.2781 191.113C26.1416 191.113 23.2994 193.93 23.2994 198.32C23.2994 202.711 26.2685 205.553 30.2781 205.553C33.704 205.553 35.9118 203.599 36.6985 201.163Z" fill="#26BC26"/>
<path d="M43.9635 205.325H46.8565V186.545H43.9635V205.325Z" fill="#26BC26"/>
<path d="M54.692 205.325H57.585V191.342H54.692V205.325ZM56.1639 189.489C57.179 189.489 57.991 188.677 57.991 187.637C57.991 186.596 57.179 185.784 56.1639 185.784C55.1234 185.784 54.3113 186.596 54.3113 187.637C54.3113 188.677 55.1234 189.489 56.1639 189.489Z" fill="#26BC26"/>
<path d="M63.771 191.342L69.0748 205.325H72.5261L77.8553 191.342H74.7847L70.8259 202.736L66.867 191.342H63.771Z" fill="#26BC26"/>
<path d="M89.9669 193.55C92.124 193.55 93.8243 194.92 93.875 197.077H86.135C86.4395 194.869 88.0129 193.55 89.9669 193.55ZM96.5143 201.163H93.3929C92.8599 202.254 91.8702 203.117 90.0938 203.117C87.9621 203.117 86.3126 201.721 86.1096 199.412H96.7934C96.8695 198.93 96.8949 198.473 96.8949 197.991C96.8949 193.879 94.078 191.113 90.0938 191.113C85.9573 191.113 83.1151 193.93 83.1151 198.32C83.1151 202.711 86.0842 205.553 90.0938 205.553C93.5197 205.553 95.7276 203.599 96.5143 201.163Z" fill="#26BC26"/>
<path d="M106.672 197.965C106.672 194.996 107.992 194.108 110.123 194.108H110.859V191.113C108.88 191.113 107.484 191.976 106.672 193.372V191.342H103.779V205.325H106.672V197.965Z" fill="#26BC26"/>
<path d="M123.063 202L119.129 191.342H115.906L121.413 205.096L118.571 211.897H121.566L130.143 191.342H127.149L123.063 202Z" fill="#26BC26"/>
<path d="M149.886 195.808V190.047H153.083C155.342 190.047 156.357 191.113 156.357 192.94C156.357 194.717 155.342 195.808 153.083 195.808H149.886ZM159.326 192.94C159.326 190.073 157.271 187.687 153.083 187.687H146.993V205.325H149.886V198.168H153.083C157.677 198.168 159.326 195.453 159.326 192.94Z" fill="#26BC26"/>
<path d="M165.158 198.27C165.158 202.584 168.077 205.553 171.706 205.553C174.04 205.553 175.715 204.436 176.604 203.244V205.325H179.522V191.342H176.604V193.372C175.741 192.23 174.117 191.113 171.756 191.113C168.077 191.113 165.158 193.956 165.158 198.27ZM176.604 198.32C176.604 201.34 174.548 203.041 172.366 203.041C170.208 203.041 168.128 201.29 168.128 198.27C168.128 195.25 170.208 193.626 172.366 193.626C174.548 193.626 176.604 195.326 176.604 198.32Z" fill="#26BC26"/>
<path d="M190.252 197.965C190.252 194.996 191.572 194.108 193.703 194.108H194.439V191.113C192.46 191.113 191.064 191.976 190.252 193.372V191.342H187.359V205.325H190.252V197.965Z" fill="#26BC26"/>
<path d="M201.593 201.442C201.593 204.284 203.141 205.325 205.628 205.325H207.911V202.914H206.135C204.917 202.914 204.511 202.482 204.511 201.442V193.702H207.911V191.342H204.511V187.865H201.593V191.342H199.943V193.702H201.593V201.442Z" fill="#26BC26"/>
<path d="M224.538 205.325H227.405V197.077C227.405 193.169 224.944 191.113 221.67 191.113C219.995 191.113 218.447 191.799 217.508 192.94V191.342H214.615V205.325H217.508V197.508C217.508 194.945 218.904 193.626 221.036 193.626C223.142 193.626 224.538 194.945 224.538 197.508V205.325Z" fill="#26BC26"/>
<path d="M241.02 193.55C243.177 193.55 244.878 194.92 244.928 197.077H237.188C237.493 194.869 239.066 193.55 241.02 193.55ZM247.568 201.163H244.446C243.913 202.254 242.924 203.117 241.147 203.117C239.015 203.117 237.366 201.721 237.163 199.412H247.847C247.923 198.93 247.948 198.473 247.948 197.991C247.948 193.879 245.131 191.113 241.147 191.113C237.011 191.113 234.168 193.93 234.168 198.32C234.168 202.711 237.138 205.553 241.147 205.553C244.573 205.553 246.781 203.599 247.568 201.163Z" fill="#26BC26"/>
<path d="M257.726 197.965C257.726 194.996 259.045 194.108 261.177 194.108H261.913V191.113C259.933 191.113 258.538 191.976 257.726 193.372V191.342H254.833V205.325H257.726V197.965Z" fill="#26BC26"/>
<path d="M173.319 55.0438C168.906 33.1229 148.612 19.0035 127.091 21.1906C127.091 21.1906 127.091 21.0507 127.062 20.921C127.028 20.7811 127.028 20.7204 127.028 20.7204C149.368 19.8012 149.712 0.160303 149.712 0.160303C139.139 -1.11013 127.489 5.30372 125.541 14.6791C123.735 9.59889 119.128 5.08704 114.991 1.71883C113.823 0.768072 111.041 -0.0719161 109.437 1.81939C107.855 3.68447 108.657 5.89546 110.221 7.0182C117.226 12.0372 120.765 22.2288 120.608 22.2687C100.154 27.4937 85.1484 48.2311 89.6096 72.6714C93.8873 96.1109 116.822 111.132 139.885 106.408C162.947 101.685 178.026 78.3988 173.319 55.0438ZM130.966 48.833C127.23 52.6424 122.559 55.0385 117.944 57.5162C117.37 57.8256 116.83 58.1215 116.311 58.4144C105.089 64.9342 102.839 70.2229 103.19 75.5062C103.554 74.7847 104.033 74.0929 104.641 73.4458C107.182 70.7408 110.326 69.1186 113.613 67.6393C118.921 65.2485 124.448 63.4733 129.931 61.5635C130.855 61.241 131.131 61.4683 131.201 62.4774C131.592 68.1227 128.781 71.8766 124.238 74.5972C120.849 76.6289 116.99 77.4344 113.299 78.6709C111.829 79.162 110.32 79.5531 108.919 80.224C106.889 81.1937 105.911 82.5118 105.922 84.3161C108.442 88.8148 112.256 92.6902 114.978 94.6083C116.691 95.8151 118.614 96.7134 120.422 97.7885C120.786 98.0052 121.404 98.4278 121.499 98.6523C121.535 98.7422 121.451 98.8374 121.357 98.832C114.171 98.338 106.304 92.6927 103.507 89.906C100.462 86.873 97.0992 81.8331 95.4198 73.9447C95.2131 73.0601 95.0532 72.1802 94.9351 71.3033C94.9274 71.2557 94.9197 71.2134 94.9115 71.1658C94.9115 71.1605 94.9144 71.1527 94.9115 71.1449C94.3902 67.1058 94.8017 63.143 95.9912 59.1937C98.5397 50.7326 104.125 44.567 111.09 39.6034C118.053 34.6421 125.81 31.9847 134.445 32.2436C135.602 32.2776 136.153 32.505 136.331 33.8206C137.13 39.7933 135.047 44.6724 130.966 48.833Z" fill="#26BC26"/>
<path d="M238.776 118.811C225.398 118.811 214.553 129.658 214.553 143.035C214.553 156.413 225.398 167.259 238.776 167.259C252.155 167.259 263 156.413 263 143.035C263 129.658 252.155 118.811 238.776 118.811ZM238.776 155.566C232.075 155.566 226.638 150.11 226.638 143.379C226.638 136.648 232.075 131.193 238.776 131.193C245.478 131.193 250.91 136.648 250.91 143.379C250.91 150.11 245.478 155.566 238.776 155.566Z" fill="#26BC26"/>
<path d="M116.504 118.812H105.325V122.637C101.466 120.183 96.819 118.785 91.7333 118.812C79.0623 118.877 68.0571 129.627 68.0571 142.964C68.0571 156.301 78.8459 167.345 93.0001 167.258C96.5205 167.237 102.1 166.102 105.515 162.069L105.584 167.258L116.465 167.203C116.51 166.875 116.505 159.583 116.491 153.14H116.499V118.812H116.504ZM92.7836 155.852C85.9375 155.852 80.3874 150.387 80.3874 143.645C80.3874 136.902 85.9375 131.437 92.7836 131.437C99.6297 131.437 105.18 136.902 105.18 143.645C105.18 150.387 99.6297 155.852 92.7836 155.852Z" fill="#26BC26"/>
<path d="M168.412 118.812H157.23V122.637C153.376 120.183 148.726 118.785 143.64 118.812C130.97 118.877 119.965 129.627 119.965 142.964C119.965 156.301 130.753 167.345 144.907 167.258C148.428 167.237 154.007 166.102 157.424 162.069L157.492 167.258L168.373 167.203C168.417 166.875 168.412 159.583 168.398 153.14H168.407V118.812H168.412ZM144.691 155.852C137.845 155.852 132.295 150.387 132.295 143.645C132.295 136.902 137.845 131.437 144.691 131.437C151.536 131.437 157.089 136.902 157.089 143.645C157.089 150.387 151.536 155.852 144.691 155.852Z" fill="#26BC26"/>
<path d="M171.873 118.811H213.399V129.177L189.771 155.955H213.399V167.259H171.873V157.886L195.139 130.906H171.873V118.811Z" fill="#26BC26"/>
<path d="M52.5955 122.57V118.811H41.5264V152.946H41.537V167.259H54.2003C54.2003 167.259 53.8351 143.402 54.2003 141.03C54.6099 138.365 55.6582 136.581 56.8586 135.116C60.3363 130.861 65.7501 130.704 65.7501 130.704V118.814C60.3261 118.814 55.9813 120.403 52.5955 122.572V122.57Z" fill="#26BC26"/>
<path d="M0.301053 133.236C-0.0233877 134.729 0.0338677 165.871 0.0338677 165.871L0 167.259H12.7329L12.4891 150.515H32.6082V139.634H12.6346C12.6346 139.634 12.7252 138.711 12.7329 138.422C12.9042 130.933 20.2542 130.946 20.2542 130.946L36.9123 130.92V118.811L15.2444 118.837C5.4611 118.837 0.301053 126.39 0.301053 133.239V133.236Z" fill="#26BC26"/>
</svg>
