<svg width="48" height="46" viewBox="0 0 48 46" fill="none" xmlns="http://www.w3.org/2000/svg">
<path d="M24.5678 33.6758L23.7465 35.0041L23.4766 35.3843L24.9267 36.1678L25.906 34.5547L24.5678 33.6758Z" fill="#EFC79C"/>
<path d="M22.7406 19.5444C22.7406 19.5444 31.4741 22.285 32.679 23.7449C33.8838 25.2049 26.0161 34.8239 26.0161 34.8239L24.2171 33.7475C24.2171 33.7475 26.7782 27.4368 29.0019 26.3308C29.4463 25.5687 24.9001 25.0304 21.0634 24.7918C17.2266 24.5531 17.936 22.2652 19.1788 19.4588C21.4288 18.4976 22.7406 19.5444 22.7406 19.5444Z" fill="#1D3D63"/>
<path d="M21.7366 6.58977C21.7366 6.58977 22.6616 4.68703 22.79 3.59082C24.1265 5.32402 25.2112 6.15853 25.2359 6.23425C24.1743 7.36996 23.9356 9.13115 23.9356 9.13115L21.7366 6.58977Z" fill="#F7C58D"/>
<path d="M8.67104 29.3447H7.22094C7.02623 29.3448 6.83425 29.3905 6.66044 29.4783C6.48663 29.5661 6.33584 29.6934 6.2202 29.85L4.99724 31.5125C4.84854 31.7133 4.76422 31.9546 4.75541 32.2043C4.74659 32.4541 4.81369 32.7007 4.94786 32.9115L5.55194 33.8629L8.67104 29.3447Z" fill="#FF3355"/>
<path d="M4.87187 32.0794L6.09647 30.4169C6.21202 30.2602 6.36279 30.1328 6.53663 30.045C6.71046 29.9572 6.90248 29.9115 7.09722 29.9116H8.27902L8.67076 29.3438H7.22067C7.02595 29.3438 6.83398 29.3896 6.66016 29.4773C6.48635 29.5651 6.33556 29.6924 6.21992 29.8491L4.99696 31.5115C4.83461 31.7311 4.75058 31.9989 4.7583 32.2719C4.79037 32.2045 4.82837 32.14 4.87187 32.0794Z" fill="#FF7190"/>
<path d="M42.4725 45.1993C45.4796 45.1993 47.9173 42.7615 47.9173 39.7544C47.9173 36.7473 45.4796 34.3096 42.4725 34.3096C39.4653 34.3096 37.0276 36.7473 37.0276 39.7544C37.0276 42.7615 39.4653 45.1993 42.4725 45.1993Z" fill="#605C5C"/>
<path d="M42.4727 43.9561C44.7935 43.9561 46.6748 42.0747 46.6748 39.7539C46.6748 37.4331 44.7935 35.5518 42.4727 35.5518C40.1519 35.5518 38.2705 37.4331 38.2705 39.7539C38.2705 42.0747 40.1519 43.9561 42.4727 43.9561Z" fill="#FFECC5"/>
<path d="M42.4726 42.9882C44.2589 42.9882 45.7069 41.5401 45.7069 39.7539C45.7069 37.9676 44.2589 36.5195 42.4726 36.5195C40.6863 36.5195 39.2383 37.9676 39.2383 39.7539C39.2383 41.5401 40.6863 42.9882 42.4726 42.9882Z" fill="#E2E2E2"/>
<path d="M42.4726 42.5424C44.0125 42.5424 45.2609 41.294 45.2609 39.7541C45.2609 38.2142 44.0125 36.9658 42.4726 36.9658C40.9327 36.9658 39.6843 38.2142 39.6843 39.7541C39.6843 41.294 40.9327 42.5424 42.4726 42.5424Z" fill="#A5A5A5"/>
<path d="M40.904 33.6235L39.7014 34.0684L41.9553 40.1615L43.1579 39.7166L40.904 33.6235Z" fill="#E2E2E2"/>
<path d="M42.4725 40.5939C42.9361 40.5939 43.3119 40.2181 43.3119 39.7545C43.3119 39.2909 42.9361 38.915 42.4725 38.915C42.0089 38.915 41.6331 39.2909 41.6331 39.7545C41.6331 40.2181 42.0089 40.5939 42.4725 40.5939Z" fill="#333333"/>
<path d="M42.4727 40.1807C42.7081 40.1807 42.899 39.9899 42.899 39.7544C42.899 39.519 42.7081 39.3281 42.4727 39.3281C42.2373 39.3281 42.0464 39.519 42.0464 39.7544C42.0464 39.9899 42.2373 40.1807 42.4727 40.1807Z" fill="#7F7F7F"/>
<path d="M11.8938 45.1573C14.9009 45.1573 17.3387 42.7196 17.3387 39.7124C17.3387 36.7053 14.9009 34.2676 11.8938 34.2676C8.88672 34.2676 6.44897 36.7053 6.44897 39.7124C6.44897 42.7196 8.88672 45.1573 11.8938 45.1573Z" fill="#605C5C"/>
<path d="M11.8938 43.9151C14.2146 43.9151 16.096 42.0337 16.096 39.7129C16.096 37.3921 14.2146 35.5107 11.8938 35.5107C9.57302 35.5107 7.69165 37.3921 7.69165 39.7129C7.69165 42.0337 9.57302 43.9151 11.8938 43.9151Z" fill="#FFECC5"/>
<path d="M11.894 42.9472C13.6803 42.9472 15.1283 41.4991 15.1283 39.7128C15.1283 37.9266 13.6803 36.4785 11.894 36.4785C10.1077 36.4785 8.65967 37.9266 8.65967 39.7128C8.65967 41.4991 10.1077 42.9472 11.894 42.9472Z" fill="#E2E2E2"/>
<path d="M11.8937 42.5013C13.4337 42.5013 14.682 41.253 14.682 39.7131C14.682 38.1732 13.4337 36.9248 11.8937 36.9248C10.3538 36.9248 9.10547 38.1732 9.10547 39.7131C9.10547 41.253 10.3538 42.5013 11.8937 42.5013Z" fill="#A5A5A5"/>
<path d="M11.8936 40.5519C12.3573 40.5519 12.7331 40.1761 12.7331 39.7125C12.7331 39.2489 12.3573 38.873 11.8936 38.873C11.43 38.873 11.0542 39.2489 11.0542 39.7125C11.0542 40.1761 11.43 40.5519 11.8936 40.5519Z" fill="#333333"/>
<path d="M11.8938 40.1387C12.1293 40.1387 12.3201 39.9479 12.3201 39.7124C12.3201 39.477 12.1293 39.2861 11.8938 39.2861C11.6584 39.2861 11.4675 39.477 11.4675 39.7124C11.4675 39.9479 11.6584 40.1387 11.8938 40.1387Z" fill="#7F7F7F"/>
<path d="M38.1536 35.9634C38.1536 35.9634 42.6125 33.7727 47.3463 34.9907C47.3117 32.5217 45.4222 29.1919 39.7749 30.5466C34.1275 31.9012 38.1536 35.9634 38.1536 35.9634Z" fill="#DD4848"/>
<path d="M39.4539 30.831C38.4877 31.0631 37.8079 31.3758 37.3388 31.7313C37.1683 31.9056 37.0296 32.1084 36.929 32.3305C37.5294 31.9552 38.1913 31.6888 38.8844 31.5437C43.6363 30.403 45.725 32.5856 46.2912 34.7731C46.5282 34.8109 46.7669 34.8554 47.0072 34.9097C46.7949 32.4984 44.8247 29.5405 39.4539 30.831Z" fill="#BD3131"/>
<path d="M36.8432 13.9619C36.8432 13.9619 38.0432 16.0819 36.942 17.6324C35.9956 17.3987 36.8432 13.9619 36.8432 13.9619Z" fill="#EFEFEF"/>
<path d="M39.7749 30.5482L41.5179 30.0545C41.5179 30.0545 39.8967 25.1659 35.6254 17.8496C35.2468 18.0142 34.8188 18.1426 34.8188 18.1426L39.7749 30.5482Z" fill="#DD4848"/>
<path d="M33.2388 18.2099C33.2388 18.2099 37.0047 27.2084 34.7991 32.1051C34.3663 33.7742 36.4715 33.3215 36.4715 33.3215C36.4715 33.3215 38.8828 27.8898 33.8642 17.8494C33.6305 17.7112 33.2388 18.2099 33.2388 18.2099Z" fill="#DD4848"/>
<path d="M26.0935 26.1349L14.1224 26.1201C12.2032 26.1201 6.13946 28.7356 4.25977 36.865L15.9972 36.8798C17.4621 36.8798 17.7485 39.5134 17.7485 39.5134L32.4354 39.5298C34.1522 39.5298 37.1906 32.9196 35.5792 29.5339C34.8682 33.0677 33.2996 34.8849 31.5318 35.3869C30.1706 35.7737 26.184 35.7392 24.413 35.7029C24.158 35.6973 23.9123 35.6063 23.7151 35.4446C23.5178 35.2829 23.3805 35.0598 23.325 34.8108C23.1044 33.8232 22.8312 32.1872 23.1028 30.7799C23.5143 28.6072 25.8878 28.3076 26.0935 26.1349Z" fill="#DD4848"/>
<path d="M4.00635 37.3198L18.3263 37.3379C18.3263 37.3379 20.415 32.8707 18.7509 30.331C17.0868 27.7913 10.2314 28.578 7.3098 31.154C4.38821 33.7299 4.00635 37.3198 4.00635 37.3198Z" fill="#DD4848"/>
<path d="M17.8554 37.3375C18.2702 36.3351 19.4784 33.0037 18.1352 30.9693C16.6242 28.6797 10.6412 29.2344 7.63892 31.3824C10.8156 29.8517 15.5939 29.6673 16.9222 31.6803C18.0316 33.3609 17.3979 35.9302 16.9106 37.3359L17.8554 37.3375Z" fill="#BD3131"/>
<path d="M17.3403 37.9812L29.3098 37.9977C31.9236 37.9977 37.0788 33.9535 36.0468 27.74C35.0147 21.5265 33.4231 18.5687 33.4231 18.5687L35.2419 18.0156C35.2419 18.0156 38.7182 24.7888 39.472 26.81C40.2259 28.8313 41.3566 34.263 37.2598 38.0026C35.5925 39.4017 34.2971 39.9679 32.4092 39.9662L17.8621 39.9465L17.3403 37.9812Z" fill="#DD4848"/>
<path d="M39.4767 26.81C38.7229 24.7888 35.2466 18.0156 35.2466 18.0156L34.575 18.223C35.4112 19.9628 37.8209 25.0538 38.3492 26.9845C38.9171 29.0666 40.1252 34.6465 36.0301 38.3911C35.3574 38.9867 34.6017 39.4813 33.7866 39.8593C35.003 39.6288 36.0301 39.0511 37.2646 38.0158C41.3614 34.263 40.2322 28.8313 39.4767 26.81Z" fill="#BD3131"/>
<path d="M29.5747 38.5215C32.1885 38.5215 37.5116 34.2963 36.4779 28.0811C35.5463 22.4717 33.9448 19.1057 33.6419 18.5049L33.428 18.5691C33.428 18.5691 35.0147 21.5318 36.0467 27.7404C37.0787 33.949 31.9235 38.0014 29.3081 37.9981L17.3386 37.9816L17.4785 38.5067L29.5747 38.5215Z" fill="white"/>
<path d="M14.9157 23.5443C14.9157 23.5443 13.0179 26.1186 15.0062 26.1202L26.0934 26.135C26.6366 26.135 27.3773 24.0545 26.3732 23.9772C25.3692 23.8998 22.2583 24.2751 19.9161 23.7401C17.5739 23.2052 15.6366 22.7131 14.9157 23.5443Z" fill="#4C4C4C"/>
<path d="M33.275 18.7201C33.275 18.7201 35.7011 17.9284 36.004 17.8527C36.3069 17.777 36.9521 17.7029 36.9521 17.7029C36.9521 17.7029 36.557 14.7846 36.9521 13.9715C36.0995 13.1485 34.9061 13.4185 33.6601 14.592C32.4141 15.7656 31.973 15.973 32.0669 16.294C32.1607 16.6149 33.275 18.7201 33.275 18.7201Z" fill="#DD4848"/>
<path d="M33.4757 15.7925L33.3884 15.6476L35.1085 14.6321C35.1714 14.5944 35.2259 14.5441 35.2684 14.4843C35.3108 14.4245 35.3405 14.3566 35.3554 14.2848L36.0319 10.9648L36.1964 10.9978L35.52 14.3193C35.5004 14.4145 35.461 14.5044 35.4042 14.5833C35.3475 14.6621 35.2748 14.7281 35.1908 14.7769L33.4757 15.7925Z" fill="#A5A5A5"/>
<path d="M34.4224 16.4198C34.4232 15.8416 33.9832 15.3723 33.4396 15.3716C32.896 15.3708 32.4547 15.8389 32.4539 16.417C32.453 16.9952 32.8931 17.4645 33.4367 17.4652C33.9803 17.466 34.4216 16.9979 34.4224 16.4198Z" fill="#BD3131"/>
<path d="M31.1187 15.5173C31.1187 15.5173 32.2215 15.481 32.6214 15.114C33.0214 14.7469 33.4625 14.7601 33.8658 15.0992C34.269 15.4383 34.5834 16.1131 34.4106 16.49C34.3394 16.6558 34.2115 16.7909 34.0499 16.8711C33.8883 16.9513 33.7034 16.9714 33.5284 16.9279C33.6419 17.1929 33.0148 17.2324 32.7054 17.1221C32.3959 17.0118 31.6618 16.8242 31.3705 16.8867C31.1187 16.5592 31.1187 15.5173 31.1187 15.5173Z" fill="#21457A"/>
<path d="M32.8635 17.9334C33.0907 18.3712 33.275 18.7202 33.275 18.7202C33.275 18.7202 35.7012 17.9284 36.004 17.8527C36.3069 17.777 36.9521 17.703 36.9521 17.703C36.9521 17.703 36.8797 17.168 36.8287 16.4932C35.8691 17.5038 34.3498 17.8461 32.8635 17.9334Z" fill="#BD3131"/>
<path d="M33.3176 16.7518C33.6212 16.7518 33.8673 16.5057 33.8673 16.2021C33.8673 15.8985 33.6212 15.6523 33.3176 15.6523C33.0139 15.6523 32.7678 15.8985 32.7678 16.2021C32.7678 16.5057 33.0139 16.7518 33.3176 16.7518Z" fill="#353535"/>
<path d="M36.3889 10.6365C36.5353 9.77528 36.3794 9.03042 36.0406 8.97282C35.7019 8.91522 35.3086 9.56669 35.1621 10.4279C35.0157 11.2891 35.1716 12.034 35.5103 12.0916C35.8491 12.1492 36.2424 11.4977 36.3889 10.6365Z" fill="#FFCF03"/>
<path d="M36.0662 10.5809C36.1829 9.8944 36.1032 9.30825 35.8881 9.27168C35.673 9.23511 35.404 9.76197 35.2873 10.4484C35.1706 11.1349 35.2503 11.7211 35.4654 11.7576C35.6805 11.7942 35.9494 11.2674 36.0662 10.5809Z" fill="#EFEFEF"/>
<path d="M26.4934 34.0918L25.886 35.5304L25.677 35.9468L27.2291 36.4998L27.9517 34.7568L26.4934 34.0918Z" fill="#FFDAAE"/>
<path d="M22.8888 19.9762C22.8888 19.9762 31.8774 21.7094 33.2403 23.0228C34.6032 24.3363 28.0341 35.0861 28.0341 35.0861L26.1248 34.2204C26.1248 34.2204 27.7905 27.3682 29.8759 26.0169C30.2298 25.2087 25.6524 25.1939 21.8107 25.3865C17.969 25.579 16.7148 22.906 17.6217 19.9696C19.7516 18.7598 22.8888 19.9762 22.8888 19.9762Z" fill="#21457A"/>
<path d="M28.0341 35.0862C28.0341 35.0862 34.5933 24.3463 33.2321 23.0311C32.2247 22.06 27.0515 20.8601 24.4212 20.2988C23.3898 20.3422 22.4121 20.7703 21.6807 21.4987C23.7645 21.0659 30.3911 22.5884 31.6783 22.9324C32.9654 23.2764 33.0609 23.9381 32.6428 25.054C32.2379 26.1338 28.6629 33.3859 27.7181 34.943L28.0341 35.0862Z" fill="#275389"/>
<path d="M17.5148 20.6316C17.5148 20.6316 16.6342 10.978 21.7367 6.58984C22.9991 7.14783 24.0081 8.61274 24.5101 9.88178C25.0121 11.1508 24.65 19.1749 24.497 19.7806C24.4575 19.9452 24.0707 20.1246 23.4847 20.2975C21.8256 20.7814 19.0077 21.2307 17.5148 20.6316Z" fill="#439801"/>
<path d="M22.1334 11.1802C22.4165 12.8805 23.3563 16.9888 24.1217 17.7805C25.3858 19.0891 31.4709 17.3674 31.4709 17.3674L31.2718 15.519C29.3789 15.491 26.8013 15.486 26.3981 15.3083C25.9948 15.1305 25.185 11.1358 24.9595 10.3012C24.734 9.46674 24.0954 8.95979 23.0354 9.00917C21.9754 9.05855 22.0346 10.5794 22.1334 11.1802Z" fill="#56AE11"/>
<path d="M25.8863 35.5303C25.8863 35.5303 26.2006 36.3368 27.3117 36.2989C28.0425 36.9573 29.9172 36.9754 30.574 36.9573C31.2307 36.9392 31.0036 37.7145 30.0687 37.9663C29.1338 38.2181 25.2196 37.9976 24.8147 37.9976C24.4098 37.9976 25.0287 35.9961 25.8863 35.5303Z" fill="black"/>
<path d="M27.2522 4.88614C27.3312 4.63595 26.8933 4.15697 27.2522 3.40476C27.611 2.65256 26.6283 1.99252 26.6283 1.99252L26.5757 2.06659C26.1296 1.33085 25.4235 0.855162 24.6384 0.853516C23.287 0.853516 22.1908 2.23283 22.1875 3.93806C22.1842 5.64328 23.2804 6.97157 24.6301 6.97322C24.668 6.97322 24.7025 7.0226 24.7388 7.02095C25.2737 7.37155 26.0094 7.05552 26.1016 6.81192C26.2152 6.50906 26.286 6.32965 26.472 6.32965C26.658 6.32965 26.6086 6.09263 26.472 5.97412C26.5724 6.00868 26.7748 5.98893 26.7419 5.91815C26.709 5.84738 26.7748 5.69595 26.8258 5.30915C27.313 5.51325 27.3937 5.01946 27.2522 4.88614Z" fill="#F7C58D"/>
<path d="M21.8914 5.29438L21.949 6.13712C21.949 6.13712 23.376 6.56507 23.7941 5.71904C24.2122 4.87302 21.8914 5.29438 21.8914 5.29438Z" fill="#353535"/>
<path d="M26.1479 3.64784C26.1479 3.64784 26.7866 3.44703 27.0071 3.64784C27.0318 3.71697 26.9594 3.81244 26.8426 3.77952C26.7257 3.7466 26.3339 3.66924 26.1479 3.64784Z" fill="#353535"/>
<path d="M27.2968 4.54475C27.1009 4.53487 25.929 4.54475 25.4977 4.54475L24.7307 4.29785L24.6846 4.44105L25.3512 4.65667C25.3825 5.12907 24.9858 5.68211 24.7998 5.91419L24.446 5.4204L24.3225 5.50928L24.711 6.0541C24.7439 6.17919 24.9447 6.79478 25.8006 7.18159C26.8507 6.79808 27.598 5.15046 27.2968 4.54475Z" fill="#BBE0FF"/>
<path d="M25.98 3.09795C26.0606 3.10948 27.1782 3.23128 27.5815 3.78762C27.9107 3.5078 27.4564 3.04199 27.4564 3.04199L25.98 3.09795Z" fill="#353535"/>
<path d="M25.4334 3.08682C25.4334 3.08682 27.5567 3.35017 28.2003 3.59707C28.5624 1.98731 27.4465 0.634326 25.6853 0.140536C23.9241 -0.353254 22.074 0.487834 21.465 2.13545C20.856 3.78306 21.2543 4.52375 21.651 5.14099C21.972 5.63478 22.474 6.00512 23.8978 5.91953C24.836 5.86521 24.8393 4.51716 24.9709 4.01843C25.1026 3.51971 25.147 3.01769 25.4334 3.08682Z" fill="#FFCF03"/>
<path d="M25.6556 0.141852C25.1395 -0.00701844 24.5967 -0.0392049 24.0667 0.0476238C23.5366 0.134453 23.0325 0.338122 22.5908 0.643873C23.3017 0.400111 24.0699 0.378867 24.7931 0.582973C26.314 1.00763 27.3543 2.06434 27.3773 3.38934C27.6482 3.436 27.9151 3.50369 28.1756 3.5918C28.5344 1.98204 27.4168 0.633996 25.6556 0.141852Z" fill="#FFE10B"/>
<path d="M25.2179 2.86101C24.9332 2.79188 24.8888 3.28402 24.7554 3.79427C24.6221 4.30452 24.6205 5.64105 23.6839 5.69701C22.6453 5.75791 22.0972 5.5818 21.7532 5.28717C22.0824 5.71018 22.614 5.99987 23.8929 5.92251C24.8311 5.86819 24.8344 4.52015 24.9661 4.02142C25.0978 3.52269 25.1422 3.01738 25.4286 3.08651C25.4286 3.08651 27.5519 3.34986 28.1955 3.59676C28.2182 3.4997 28.2347 3.40129 28.2449 3.30213C27.5832 3.05853 25.2179 2.86101 25.2179 2.86101Z" fill="#353535"/>
<path opacity="0.49" d="M28.3961 3.01967C28.3538 4.68771 27.6939 6.2807 26.5444 7.49011C25.9732 7.76993 23.9931 7.02924 24.2878 5.05573C24.4952 3.65995 24.2878 2.64274 24.7124 2.42218C25.1371 2.20162 27.1336 3.05588 28.3961 3.01967Z" fill="#D2F0FF"/>
<path d="M18.7591 27.1491H13.1299C12.9311 27.1492 12.7357 27.0978 12.5627 27.0001C12.3896 26.9023 12.2448 26.7614 12.1423 26.5911L11.4543 25.4389C11.4201 25.382 11.3719 25.3347 11.3143 25.3015C11.2567 25.2684 11.1916 25.2505 11.1251 25.2497L1.78754 25.2381C1.73562 25.2416 1.68354 25.2343 1.63454 25.2168C1.58554 25.1992 1.54066 25.1719 1.50268 25.1363C1.46469 25.1007 1.43441 25.0577 1.41371 25.01C1.39301 24.9623 1.38232 24.9108 1.38232 24.8587C1.38232 24.8067 1.39301 24.7552 1.41371 24.7075C1.43441 24.6597 1.46469 24.6167 1.50268 24.5812C1.54066 24.5456 1.58554 24.5182 1.63454 24.5007C1.68354 24.4832 1.73562 24.4759 1.78754 24.4793L11.1251 24.4925C11.3239 24.4924 11.5193 24.5438 11.6923 24.6415C11.8654 24.7393 12.0102 24.8802 12.1127 25.0505L12.8007 26.2027C12.8348 26.2598 12.883 26.3071 12.9406 26.3403C12.9982 26.3734 13.0634 26.3912 13.1299 26.392L18.7608 26.4002C18.8612 26.4002 18.9574 26.4401 19.0284 26.5111C19.0994 26.5821 19.1393 26.6784 19.1393 26.7788C19.1393 26.8792 19.0994 26.9754 19.0284 27.0464C18.9574 27.1174 18.8612 27.1573 18.7608 27.1573L18.7591 27.1491Z" fill="#4C4C4C"/>
<path d="M11.9839 13.053L1.23743 13.0385C0.67928 13.0377 0.226175 13.4738 0.225396 14.0124L0.211661 23.5053C0.210882 24.044 0.662724 24.4812 1.22088 24.482L11.9674 24.4965C12.5255 24.4972 12.9786 24.0612 12.9794 23.5225L12.9932 14.0297C12.9939 13.491 12.5421 13.0537 11.9839 13.053Z" fill="#F8D077"/>
<path d="M12.9916 15.4861V13.6426C12.9919 13.51 12.9659 13.3786 12.9153 13.256C12.8647 13.1334 12.7904 13.022 12.6967 12.9281C12.603 12.8342 12.4917 12.7598 12.3692 12.709C12.2466 12.6582 12.1153 12.632 11.9827 12.632L1.2345 12.6172C1.10186 12.617 0.970481 12.6429 0.847876 12.6935C0.725271 12.7441 0.61385 12.8184 0.519983 12.9121C0.426117 13.0058 0.35165 13.1171 0.300841 13.2397C0.250032 13.3622 0.223877 13.4935 0.223877 13.6262V15.4697L12.9916 15.4861Z" fill="#956910"/>
<path d="M13 15V13.877C13 13.6479 12.8918 13.4281 12.699 13.266C12.5063 13.1039 12.2449 13.0126 11.9721 13.0122L1.02951 13C0.894387 12.9998 0.760551 13.022 0.635655 13.0653C0.510758 13.1086 0.397254 13.1722 0.301634 13.2524C0.206014 13.3326 0.130155 13.4278 0.0783972 13.5327C0.0266396 13.6375 -1.6755e-07 13.7499 0 13.8634V14.9864L13 15Z" fill="#F8D077"/>
</svg>
