<svg width="35" height="70" viewBox="0 0 35 70" fill="none" xmlns="http://www.w3.org/2000/svg">
<path d="M32.6789 30.1696C32.7761 29.9634 32.7566 29.7363 32.7814 29.5194C33.0025 27.6044 33.2336 25.6908 33.4259 23.7719C33.5143 22.894 33.4983 22.0074 33.4554 21.1241C33.4507 21.0361 33.436 20.9488 33.4293 20.8608C33.3877 20.3403 33.1037 20.0488 32.6072 19.9003C31.6733 19.6209 30.7159 19.4792 29.7532 19.3697C27.9577 19.1682 26.1562 19.056 24.35 19.0231C23.2198 19.0023 22.0909 18.9244 20.9594 18.9559C18.788 19.011 16.616 19.0607 14.4447 19.1252C12.6546 19.1789 10.8638 19.2253 9.07567 19.3207C7.14151 19.4228 5.20801 19.5652 3.29998 19.9299C2.79446 20.024 2.29731 20.1588 1.81334 20.3329C1.58993 20.4074 1.37999 20.5177 1.19162 20.6593C0.923641 20.8709 0.923641 21.104 1.19162 21.3122C1.39566 21.4579 1.62352 21.5668 1.86493 21.6339C2.49681 21.8281 3.1448 21.965 3.8011 22.043C5.62153 22.2757 7.45426 22.3986 9.28938 22.411C10.3171 22.4225 11.3448 22.4782 12.3712 22.4614C14.85 22.4204 17.3329 22.3707 19.8117 22.2807C21.776 22.2089 23.7383 22.0705 25.702 21.9651C25.8924 21.9503 26.0837 21.9503 26.2741 21.9651C26.5307 21.9912 26.7016 22.1666 26.7183 22.3788C26.7351 22.5911 26.5843 22.7919 26.3445 22.8617C26.2592 22.8839 26.1719 22.8967 26.0839 22.9C25.0119 22.9625 23.9447 23.0344 22.8748 23.0814C20.895 23.1714 18.916 23.2627 16.9356 23.3252C15.6299 23.3662 14.3228 23.3406 13.0157 23.3769C11.5036 23.4192 9.99217 23.3769 8.48142 23.344C6.67253 23.3071 4.87303 23.1841 3.0876 22.894C2.37744 22.7791 1.67332 22.622 1.01073 22.319C0.655657 22.1565 0.355517 21.9315 0.165249 21.5768C-0.123502 21.0395 -0.0323875 20.4605 0.427203 20.0562C0.668887 19.8405 0.94406 19.6658 1.24187 19.539C2.24077 19.1178 3.29797 18.9345 4.35985 18.79C6.25113 18.5274 8.15515 18.4105 10.0625 18.3306C12.2479 18.2393 14.4353 18.2097 16.6207 18.1291C19.3809 18.0257 22.1405 18.0203 24.8994 18.0868C27.1142 18.1405 29.3285 18.2823 31.5165 18.6732C32.1235 18.782 32.7225 18.9197 33.2993 19.1541C33.8453 19.3764 34.1997 19.7411 34.2855 20.3456C34.3493 20.7237 34.3941 21.1049 34.4195 21.4875C34.4865 23.0827 34.2962 24.6605 34.1133 26.2396C33.8855 28.1982 33.6651 30.1575 33.4393 32.1167C33.2758 33.5347 33.1238 34.9539 32.9382 36.3685C32.8169 37.2886 32.498 38.1296 31.8361 38.8207C31.3671 39.3117 31.1213 39.9068 31.0502 40.6C30.8298 42.7668 30.4908 44.9189 30.1793 47.0736C29.9073 48.9375 29.6487 50.8027 29.3754 52.6666C29.0792 54.6904 28.7724 56.7128 28.4743 58.7359C28.1915 60.643 27.9099 62.5501 27.6294 64.4572C27.6033 64.6319 27.5665 64.8058 27.5544 64.9818C27.4673 66.258 26.6969 67.0264 25.6457 67.5933C24.7165 68.095 23.7109 68.3758 22.6845 68.5639C20.3638 68.9884 18.0203 69.0898 15.666 68.9736C14.7576 68.9292 13.8484 68.8957 12.9393 68.8486C11.6775 68.7935 10.4217 68.6437 9.18219 68.4006C8.85216 68.3299 8.52806 68.2338 8.21277 68.1132C7.36728 67.7981 6.9164 67.1668 6.78978 66.303C6.30741 63.0279 5.84715 59.7488 5.36277 56.4737C5.14503 55.0034 4.94204 53.5311 4.71023 52.0628C4.40272 50.115 4.15015 48.159 3.87011 46.2078C3.59409 44.285 3.31583 42.3625 3.03534 40.4401C3.00854 40.2514 2.96835 40.0586 2.97907 39.8706C3.02596 39.1828 2.73587 38.6233 2.27494 38.1712C1.89709 37.8011 1.77381 37.3854 1.72424 36.8803C1.5333 34.9029 1.30753 32.9288 1.09314 30.9541C0.905552 29.2279 0.717516 27.5017 0.529035 25.7755C0.514868 25.6585 0.511729 25.5404 0.519657 25.4228C0.541765 25.1542 0.684465 24.9957 0.91627 24.9735C1.0264 24.9634 1.13659 24.9922 1.22782 25.0549C1.31906 25.1175 1.38563 25.2101 1.41606 25.3167C1.44392 25.4308 1.46097 25.5473 1.46697 25.6646C1.61035 26.9811 1.75349 28.2976 1.89642 29.6141C1.91384 29.7746 1.92254 29.9378 2.00294 30.0843C1.94398 30.4671 2.00294 30.8412 2.08401 31.214C2.08066 31.2729 2.08066 31.3318 2.08401 31.3907C2.2803 33.2337 2.48129 35.0761 2.6729 36.9199C2.69969 37.1711 2.81962 37.3531 2.98242 37.5331C3.57332 38.1867 3.94782 38.9302 3.91432 39.8437C3.90629 40.0613 3.95586 40.2823 3.98735 40.5006C4.0865 41.1998 4.18834 41.8977 4.29218 42.5969C4.71515 45.5236 5.13789 48.4499 5.56041 51.3757C6.01531 54.5057 6.48562 57.633 6.91908 60.7657C6.98139 61.2144 7.16428 61.4219 7.56693 61.5757C9.8287 62.4415 12.1823 62.8143 14.5847 62.9191C16.9629 63.0137 19.3445 62.862 21.6916 62.4664C23.3849 62.1848 25.0621 61.8138 26.7163 61.3548C27.0245 61.2708 27.192 61.1486 27.2194 60.8033C27.2576 60.3211 27.3534 59.8428 27.4278 59.3626C27.8231 56.6853 28.2177 54.0078 28.6116 51.33C28.9528 49.0015 29.29 46.6731 29.6232 44.3446C29.7994 43.1067 30.0098 41.8728 30.1083 40.6255C30.18 39.7114 30.466 38.896 31.1052 38.233C31.6981 37.6184 31.9426 36.8662 32.0431 36.046C32.1523 35.1259 32.2676 34.2057 32.36 33.2834C32.4324 32.5668 32.5643 31.8561 32.5777 31.1341C32.6722 30.8177 32.6782 30.494 32.6789 30.1696ZM15.9072 68.0494C17.5506 68.0762 18.855 68.0708 20.1588 67.958C21.5496 67.8371 22.9284 67.6437 24.2549 67.1782C24.8404 66.9767 25.3938 66.708 25.8788 66.3124C26.244 66.0175 26.5012 65.6555 26.5662 65.1706C26.658 64.4861 26.7639 63.803 26.8644 63.1193C26.9092 62.8136 26.9648 62.5094 26.9983 62.2024C27.0292 61.9055 26.9447 61.8243 26.6459 61.8726C26.3719 61.917 26.1019 61.9908 25.832 62.0607C22.2316 62.9883 18.587 63.5088 14.8601 63.3866C13.2318 63.3398 11.6114 63.1401 10.0203 62.7901C9.16143 62.5964 8.31614 62.3465 7.48988 62.0419C7.19778 61.9351 7.11337 61.9942 7.1549 62.2723C7.34562 63.6116 7.54348 64.9496 7.74848 66.2862C7.8195 66.7436 8.09351 67.0526 8.52966 67.2192C9.02601 67.401 9.53999 67.5302 10.0632 67.6047C12.1099 67.9271 14.1787 67.9681 15.9072 68.0494Z" fill="black"/>
<path d="M32.6787 30.1695C32.6787 30.494 32.672 30.8177 32.5762 31.1321C31.4085 31.5539 30.1918 31.75 28.9692 31.9105C25.7641 32.3317 22.5376 32.4647 19.3118 32.5251C15.5409 32.6012 11.7687 32.4853 8.00959 32.1779C7.06026 32.0993 6.10959 32.0126 5.16964 31.8467C5.03565 31.0501 4.9834 30.2454 4.92578 29.4408C5.72973 29.2715 6.55109 29.199 7.36844 29.1224C10.3953 28.8383 13.4322 28.7275 16.4718 28.714C19.4819 28.7006 22.4894 28.7684 25.4928 28.9928C27.2648 29.1271 29.0295 29.3031 30.7781 29.6255C31.4279 29.745 32.0691 29.9029 32.6787 30.1695Z" fill="#996731"/>
<path d="M4.92602 29.4405C4.98363 30.2465 5.03454 31.0525 5.16988 31.8464C5.27573 32.9728 5.38627 34.0992 5.4861 35.227C5.53031 35.724 5.63349 36.2177 5.60602 36.7194C5.58726 37.0553 5.37287 37.2776 5.06469 37.3139C4.91059 37.3395 4.7525 37.3059 4.62207 37.2197C4.49163 37.1336 4.39848 37.0012 4.36124 36.8491C4.32567 36.7066 4.30325 36.5611 4.29425 36.4145C4.24601 35.9443 4.19911 35.4782 4.15623 35.01C4.05083 33.8686 3.94699 32.7268 3.84471 31.5845C3.77771 30.939 3.74756 30.2902 3.63903 29.6494C3.68191 29.2665 3.60754 28.8897 3.57203 28.5109C3.46216 27.2978 3.34291 26.0861 3.22701 24.8731C3.22701 24.8442 3.21964 24.8147 3.21897 24.7858C3.21093 24.4096 3.42866 24.1316 3.75493 24.098C4.0812 24.0644 4.35454 24.2928 4.41149 24.6716C4.46441 25.0195 4.48853 25.3715 4.52203 25.7221C4.62319 26.7887 4.72302 27.8553 4.82552 28.922C4.8483 29.0966 4.89386 29.2679 4.92602 29.4405Z" fill="#E3CCAA"/>
<path d="M14.7123 20.9593C16.4441 20.9291 18.1759 20.8848 19.9058 20.8015C21.6644 20.7162 23.4217 20.6087 25.1716 20.4039C25.2299 20.3965 25.2882 20.3884 25.3472 20.3864C25.4972 20.3824 25.6607 20.3783 25.6868 20.5758C25.713 20.7733 25.6098 20.8713 25.4101 20.8908C24.9727 20.9331 24.5358 20.9956 24.0977 21.0332C19.5306 21.4248 14.9535 21.5034 10.3723 21.4584C9.49196 21.4503 8.61164 21.4235 7.73132 21.404C7.38629 21.3959 7.24962 21.3254 7.2389 21.1575C7.22751 20.9728 7.37289 20.8955 7.75544 20.8996C9.47254 20.9184 11.1896 20.9412 12.9067 20.9587C13.5084 20.9647 14.11 20.9593 14.7123 20.9593Z" fill="#E3CCAA"/>
<path d="M24.3047 10.6411C24.2899 11.9133 23.8705 13.0672 23.293 14.1728C23.1162 14.5086 22.9065 14.8324 22.7082 15.1588C22.6547 15.2468 22.5937 15.3299 22.5259 15.4073C22.4295 15.5182 22.3075 15.5672 22.1769 15.4698C22.0657 15.3872 22.0637 15.2683 22.1253 15.1528C22.1802 15.0493 22.2466 14.9513 22.3116 14.8532C22.8249 14.0806 23.2307 13.2413 23.5175 12.3586C23.7675 11.6019 23.8529 10.8003 23.768 10.0077C23.634 8.78328 22.9507 7.89331 21.9873 7.18671C21.4158 6.7696 20.7619 6.4922 20.169 6.11203C19.3108 5.5579 18.5283 4.92048 17.9582 4.05603C17.2212 2.93971 17.0497 1.74816 17.5147 0.480709C17.5594 0.356357 17.6183 0.237585 17.6902 0.126737C17.7572 0.0232987 17.863 -0.0405105 17.9923 0.0293437C18.0982 0.086436 18.1156 0.187859 18.0935 0.298014C18.0799 0.355195 18.0615 0.411137 18.0386 0.46526C17.439 1.94294 17.8161 3.22987 18.8345 4.37709C19.3364 4.93474 19.9246 5.40782 20.5764 5.77821C21.1478 6.10867 21.7407 6.40354 22.2807 6.78572C23.3433 7.54404 24.0541 8.53207 24.2424 9.85191C24.2819 10.1112 24.2852 10.3772 24.3047 10.6411Z" fill="#FBFBFB"/>
<path d="M7.36988 15.8558C7.21981 15.8458 7.12669 15.6886 7.20373 15.52C7.29295 15.3513 7.39159 15.1879 7.49918 15.0303C8.10214 14.0443 8.57111 13.0059 8.80158 11.8647C9.16202 10.0552 8.4599 8.40024 6.90359 7.41825C6.55655 7.19928 6.19679 6.99778 5.83702 6.80031C4.78251 6.222 3.82715 5.5201 3.12571 4.52602C2.29831 3.35126 2.09598 2.07844 2.62994 0.718966C2.75589 0.399248 2.88117 0.29581 3.04263 0.346858C3.20409 0.397905 3.21883 0.537613 3.09087 0.884198C2.46245 2.58421 3.0634 3.98599 4.3122 5.12112C4.96056 5.70002 5.68313 6.18952 6.46075 6.57664C7.16085 6.93397 7.7953 7.38265 8.30648 7.9838C9.31543 9.16528 9.56332 10.5429 9.27457 12.04C9.02869 13.3162 8.47732 14.4655 7.76449 15.5408C7.59968 15.79 7.49181 15.8639 7.36988 15.8558Z" fill="#FBFBFB"/>
<path d="M12.0666 3.89013C12.025 4.0876 11.9801 4.25888 11.9547 4.43284C11.7879 5.58275 12.1128 6.5822 12.8698 7.45538C13.0788 7.70289 13.3145 7.92637 13.5726 8.12168C14.599 8.87328 15.0646 9.91438 15.1042 11.1563C15.1437 12.3855 14.8187 13.5428 14.3283 14.6591C14.3099 14.6991 14.2888 14.738 14.2654 14.7753C14.2332 14.8263 14.1897 14.8734 14.1253 14.8586C14.1072 14.8544 14.0901 14.8464 14.0753 14.8351C14.0604 14.8237 14.0482 14.8093 14.0394 14.7928C14.0307 14.7763 14.0256 14.7581 14.0244 14.7394C14.0233 14.7207 14.0262 14.7021 14.0329 14.6846C14.0653 14.5567 14.1083 14.4318 14.1615 14.3112C14.5293 13.4906 14.7558 12.6135 14.8315 11.7172C14.9025 10.7983 14.7511 9.92915 14.185 9.16479C14.0113 8.92785 13.8049 8.71685 13.572 8.53812C12.9221 8.04175 12.366 7.46344 12.017 6.70982C11.6091 5.86629 11.5256 4.90163 11.7825 4.00028C11.792 3.95741 11.8036 3.91504 11.8173 3.87333C11.8495 3.7934 11.8716 3.67989 11.9808 3.69736C12.09 3.71482 12.0672 3.82968 12.0666 3.89013Z" fill="#FBFBFB"/>
<path d="M3.64226 29.6504C3.75079 30.2912 3.78161 30.94 3.84794 31.5848C3.23091 31.5996 2.66748 31.3564 2.08394 31.2134C2.0002 30.8406 1.94392 30.4665 2.00288 30.0836C2.53884 29.8996 3.07749 29.7249 3.64226 29.6504Z" fill="#996731"/>
<path d="M2.08392 31.2131C2.66746 31.3562 3.23089 31.5993 3.84792 31.5845C3.95109 32.7273 4.05493 33.8691 4.15945 35.0101C4.20232 35.4803 4.24922 35.9464 4.29746 36.4146C4.30646 36.5612 4.32889 36.7066 4.36445 36.8491C4.40169 37.0012 4.49485 37.1336 4.62528 37.2198C4.75572 37.306 4.91381 37.3396 5.06791 37.3139C5.37609 37.2777 5.59047 37.058 5.60923 36.7195C5.6367 36.2178 5.53353 35.7241 5.48931 35.227C5.38949 34.0993 5.27895 32.9729 5.17309 31.8465C6.11103 32.0124 7.06371 32.0991 8.01304 32.1776C11.7721 32.4851 15.5444 32.601 19.3152 32.5249C22.5417 32.4644 25.7676 32.3314 28.9726 31.9103C30.1953 31.7498 31.4119 31.5536 32.5797 31.1318C32.5663 31.8546 32.4343 32.5652 32.3619 33.2812C32.2695 34.2034 32.1542 35.1236 32.045 36.0438C31.9472 36.8639 31.7027 37.6162 31.1071 38.2308C30.468 38.8937 30.1819 39.7085 30.1102 40.6233C30.0117 41.8706 29.8014 43.1044 29.6252 44.3423C29.2942 46.6708 28.957 48.9993 28.6135 51.3278C28.2214 54.0082 27.827 56.6868 27.4304 59.3637C27.3594 59.8439 27.2602 60.3221 27.222 60.8044C27.1946 61.1497 27.0271 61.2746 26.7189 61.3559C25.0647 61.8149 23.3875 62.1859 21.6942 62.4675C19.3471 62.8631 16.9655 63.0148 14.5873 62.9202C12.1849 62.8134 9.83063 62.4406 7.56953 61.5768C7.16755 61.423 6.98398 61.2155 6.92168 60.7668C6.48822 57.6341 6.01791 54.5068 5.563 51.3768C5.13781 48.451 4.71507 45.5247 4.29478 42.598C4.19362 41.8988 4.0891 41.2009 3.98995 40.5017C3.95846 40.2834 3.90888 40.0624 3.91692 39.8448C3.95042 38.9313 3.57592 38.1878 2.98501 37.5342C2.82221 37.3542 2.70229 37.1722 2.67549 36.921C2.48389 35.0773 2.2829 33.2349 2.0866 31.3918C2.08228 31.3323 2.08139 31.2727 2.08392 31.2131ZM8.4331 42.9923C8.44382 42.2863 8.45856 41.5818 8.5001 40.8758C8.54632 40.0792 8.64883 39.3061 9.20891 38.6627C8.59188 38.578 5.45715 38.6385 5.14764 38.7392C5.21061 38.9407 5.38547 38.9851 5.54961 39.0327C5.94622 39.1489 6.19545 39.4216 6.36896 39.7803C6.52706 40.1289 6.63186 40.4993 6.67983 40.8792C6.74682 41.3285 6.81985 41.7772 6.90091 42.2964C6.98934 42.066 6.9726 41.9028 6.97729 41.743C6.99068 41.2285 6.99939 40.7139 7.01011 40.1981C7.01095 39.977 7.04807 39.7576 7.11999 39.5486C7.22182 39.2638 7.39333 39.1147 7.61374 39.116C7.7393 39.1249 7.85894 39.1729 7.95589 39.2534C8.05285 39.3338 8.12227 39.4427 8.1544 39.5647C8.20564 39.764 8.23529 39.9683 8.24283 40.1739C8.2837 41.1143 8.31452 42.0546 8.34868 42.995C8.31452 43.6962 8.36476 44.3954 8.39357 45.096C8.43109 44.3961 8.47062 43.6948 8.4331 42.9923ZM27.1028 44.6755C27.2823 43.4537 27.4786 42.2339 27.6387 41.0088C27.7654 40.0215 28.1077 39.1892 29.0456 38.7077C29.053 38.7036 29.0503 38.6821 29.053 38.6687C29.0309 38.6532 29.0088 38.6244 28.986 38.6244C23.2592 38.6185 17.5345 38.6156 11.8117 38.6156C11.6777 38.6156 11.5491 38.6284 11.4178 38.6365C11.4028 38.6383 11.389 38.6455 11.3789 38.6566C11.3712 38.6725 11.366 38.6895 11.3635 38.707C11.3839 38.7416 11.4086 38.7735 11.4372 38.8017C12.0328 39.2578 12.3235 39.8764 12.4213 40.6085C12.5024 41.213 12.5667 41.8175 12.6324 42.4281C12.6833 41.9149 12.7101 41.4011 12.7443 40.8886C12.8146 39.8253 13.3968 39.1342 14.4326 38.9092C15.1962 38.7417 15.9886 38.7583 16.7446 38.9575C17.8219 39.239 18.2855 39.8032 18.3933 40.9141C18.4208 41.2036 18.4556 41.4924 18.4871 41.7819C18.6124 41.2446 18.7096 40.7072 18.9166 40.2021C19.1879 39.5372 19.6622 39.1174 20.3798 39.0113C20.9755 38.9159 21.5824 38.9145 22.1786 39.0072C23.1105 39.1624 24.0444 39.7743 24.1215 41.072C24.1456 41.475 24.1978 41.8733 24.2367 42.2742C24.302 42.017 24.3524 41.7562 24.3874 41.4931C24.4913 40.8382 24.5884 40.1813 24.9656 39.6124C25.2812 39.1362 25.8198 38.971 26.4449 39.1536C27.015 39.3202 27.1818 39.5472 27.1704 40.2404C27.1432 41.7096 27.0735 43.1777 26.9614 44.6446C26.9083 44.9616 26.9 45.2844 26.9366 45.6037C27.0334 45.3032 27.0893 44.991 27.1028 44.6755ZM19.7333 34.593C20.9057 34.5742 22.0781 34.5762 23.2505 34.509C25.4319 34.3834 27.6043 34.133 29.7571 33.7588C29.8727 33.7396 29.9872 33.7143 30.1002 33.6829C30.2536 33.6385 30.3722 33.5485 30.3447 33.3699C30.3172 33.1912 30.1852 33.1328 30.0218 33.1455C29.8903 33.1572 29.7595 33.1756 29.6299 33.2006C26.668 33.7172 23.6699 33.9968 20.6638 34.0368C18.3175 34.0816 15.9707 33.9719 13.6387 33.7084C13.4928 33.6934 13.346 33.6918 13.1998 33.7037C13.141 33.7086 13.0857 33.7342 13.0439 33.776C13.0021 33.8179 12.9764 33.8732 12.9715 33.9322C12.9665 33.9913 12.9825 34.0501 13.0167 34.0984C13.0509 34.1467 13.1011 34.1813 13.1583 34.196C13.3567 34.2452 13.5581 34.2811 13.7613 34.3035C15.7443 34.5181 17.7382 34.6148 19.7326 34.593H19.7333ZM9.16402 60.0286C9.09033 59.4241 9.03003 58.9103 8.96705 58.3991C8.71515 56.2668 8.46414 54.1342 8.21402 52.0014C7.96391 49.8687 7.71312 47.7352 7.46166 45.6011C7.39065 45.0019 7.31963 44.4035 7.23991 43.8057C7.21914 43.6498 7.13338 43.5155 6.95384 43.5296C6.75754 43.5451 6.68585 43.6868 6.69322 43.8722C6.69322 43.9306 6.70528 43.989 6.71265 44.0475C7.01726 46.6177 7.32231 49.1882 7.62781 51.759C7.95475 54.5209 8.28035 57.2819 8.60461 60.0421C8.60881 60.1301 8.62343 60.2174 8.64816 60.302C8.6984 60.4363 8.80224 60.5189 8.95499 60.4894C9.01415 60.4804 9.06799 60.45 9.10636 60.404C9.14474 60.358 9.16501 60.2995 9.16335 60.2395C9.16804 60.1388 9.16402 60.036 9.16402 60.0286ZM13.2313 52.2211H13.2233C13.1509 49.9732 13.0781 47.7247 13.0049 45.4755C12.9901 45.0348 12.966 44.5942 12.9446 44.1536C12.9359 43.9763 12.8809 43.8238 12.6692 43.8292C12.4575 43.8345 12.4012 43.9776 12.4012 44.165C12.4086 44.5472 12.4147 44.9294 12.4281 45.3116C12.5388 48.5423 12.6489 51.7733 12.7583 55.0045C12.8155 56.6797 12.8729 58.3548 12.9305 60.03C12.9419 60.3551 13.0357 60.4954 13.2193 60.4941C13.4028 60.4928 13.4926 60.3483 13.4819 60.0239C13.4015 57.4232 13.318 54.8223 13.2313 52.2211ZM18.7397 51.7133C18.7397 49.212 18.7397 46.7109 18.7397 44.21C18.7431 44.0776 18.7397 43.9451 18.7297 43.8131C18.7136 43.6478 18.6205 43.5323 18.4469 43.537C18.2949 43.541 18.2131 43.6485 18.1977 43.7969C18.1879 43.8994 18.1834 44.0023 18.1843 44.1052C18.1843 49.1513 18.1843 54.1976 18.1843 59.2441C18.1823 59.3615 18.189 59.479 18.2044 59.5954C18.2059 59.6286 18.2141 59.6611 18.2286 59.691C18.243 59.7209 18.2634 59.7475 18.2885 59.7692C18.3136 59.7909 18.3429 59.8073 18.3745 59.8172C18.4061 59.8272 18.4394 59.8305 18.4724 59.8271C18.5322 59.828 18.5901 59.8064 18.6349 59.7666C18.6796 59.7269 18.7079 59.6718 18.7143 59.6122C18.733 59.4663 18.7404 59.3192 18.7364 59.1722C18.7395 56.6861 18.7406 54.1998 18.7397 51.7133ZM14.4955 52.6798H14.5002C14.4754 52.1217 14.4473 51.5635 14.4259 51.0047C14.3669 49.4759 14.3126 47.9472 14.2523 46.4192C14.2468 46.2871 14.2271 46.156 14.1934 46.0282C14.1639 45.9154 14.1177 45.7918 13.973 45.7871C13.8283 45.7824 13.778 45.8986 13.7365 46.0108C13.6306 46.2956 13.6594 46.5911 13.6695 46.884C13.7117 47.8686 13.7626 48.8526 13.7974 49.8393C13.8997 52.7351 13.9995 55.6312 14.0969 58.5274C14.1043 58.733 14.1157 58.9392 14.1418 59.1434C14.1548 59.2603 14.1884 59.374 14.241 59.4792C14.3307 59.6478 14.4788 59.6498 14.5866 59.4973C14.6545 59.3986 14.6907 59.2814 14.6905 59.1615C14.6972 58.9553 14.7025 58.7491 14.6952 58.5436C14.6313 56.5872 14.5648 54.6324 14.4955 52.6792V52.6798ZM25.1746 59.6471C25.1746 59.6552 25.1746 59.6847 25.1746 59.7143C25.17 59.899 25.2336 60.0441 25.4353 60.0501C25.6101 60.0575 25.6925 59.9353 25.7153 59.7707C25.732 59.6538 25.7535 59.5383 25.7655 59.4214C25.9491 57.6966 26.1318 55.9726 26.3136 54.2495C26.5659 51.8669 26.8185 49.4845 27.0713 47.1022C27.0873 46.9863 27.0914 46.8691 27.0833 46.7523C27.0783 46.6926 27.0521 46.6367 27.0094 46.5948C26.9668 46.5529 26.9105 46.5277 26.8509 46.5239C26.7922 46.5132 26.7316 46.5251 26.6813 46.5572C26.631 46.5893 26.5946 46.6394 26.5795 46.6972C26.5473 46.7949 26.526 46.8958 26.5159 46.9981C26.364 48.4154 26.2131 49.8331 26.063 51.2512C25.8678 53.0929 25.6731 54.9346 25.4788 56.7764C25.3783 57.7248 25.2778 58.6745 25.1746 59.6464V59.6471ZM24.3037 47.1734H24.2936C24.3426 46.2056 24.3928 45.2377 24.439 44.2698C24.4523 44.0946 24.4499 43.9186 24.4317 43.7439C24.4209 43.6856 24.3906 43.6328 24.3456 43.5942C24.3007 43.5557 24.2439 43.5338 24.1849 43.5323C24.1258 43.5307 24.0679 43.5495 24.021 43.5856C23.9741 43.6217 23.941 43.6728 23.9272 43.7304C23.9002 43.8598 23.8842 43.9913 23.8796 44.1234C23.8521 44.6654 23.8307 45.2088 23.8059 45.7508C23.7349 47.3058 23.6605 48.86 23.5942 50.4149C23.5801 50.7414 23.6706 50.8851 23.8535 50.8898C24.0364 50.8945 24.1215 50.7649 24.1416 50.4297C24.1972 49.343 24.2494 48.2582 24.3037 47.1728V47.1734ZM23.8568 55.1825H23.8488C23.8622 54.981 23.8783 54.7728 23.889 54.5672C23.9151 54.0971 23.9419 53.6269 23.9607 53.1608C23.9674 52.9935 23.889 52.8726 23.7061 52.8679C23.5513 52.8679 23.4629 52.9613 23.4381 53.1057C23.4222 53.207 23.413 53.3094 23.4106 53.412C23.3637 54.1145 23.3162 54.8171 23.272 55.5203C23.205 56.6038 23.1326 57.6872 23.071 58.7713C23.0475 59.185 23.1206 59.3247 23.3276 59.3281C23.5205 59.3281 23.5956 59.2226 23.6224 58.829C23.7027 57.6126 23.7785 56.3969 23.8568 55.1818V55.1825ZM22.9055 42.9909C22.9055 43.226 22.8948 43.4611 22.9055 43.6962C22.9156 43.8601 23.0154 43.9756 23.1896 43.9743C23.343 43.9743 23.4214 43.8621 23.4575 43.7237C23.4769 43.6528 23.487 43.5796 23.4877 43.5061C23.4877 43.1535 23.5004 42.7988 23.4696 42.4482C23.41 41.7658 23.2331 41.117 22.8224 40.5507C22.6422 40.2988 22.4137 40.0855 22.1503 39.9232C21.8869 39.761 21.5938 39.653 21.2882 39.6057C20.9459 39.5452 20.7657 39.6238 20.7523 39.826C20.7362 40.1202 20.9713 40.1296 21.1703 40.1726C21.983 40.3486 22.4714 40.8644 22.7172 41.6409C22.8516 42.0777 22.9151 42.5333 22.9055 42.9903V42.9909Z" fill="#C99C5C"/>
<path d="M15.907 68.0492C14.1785 67.9693 12.1097 67.927 10.061 67.6046C9.53778 67.5301 9.0238 67.4009 8.52745 67.219C8.09131 67.0525 7.8173 66.7435 7.74628 66.2861C7.53949 64.9495 7.34163 63.6115 7.1527 62.2722C7.11317 61.9941 7.19759 61.9363 7.48768 62.0418C8.31394 62.3464 9.15922 62.5963 10.0181 62.79C11.6092 63.14 13.2296 63.3397 14.8579 63.3865C18.5842 63.5087 22.2274 62.9882 25.8284 62.0619C26.0964 61.9948 26.3684 61.9182 26.6424 61.8739C26.9412 61.8255 27.0256 61.9068 26.9948 62.2036C26.9626 62.5106 26.907 62.8149 26.8608 63.1205C26.7603 63.8043 26.6545 64.4873 26.5627 65.1718C26.4957 65.6554 26.2404 66.0174 25.8753 66.3136C25.3896 66.7059 24.8369 66.9746 24.2513 67.1794C22.9248 67.6449 21.546 67.8383 20.1552 67.9592C18.8548 68.0707 17.5504 68.0761 15.907 68.0492Z" fill="#C99C5C"/>
<path d="M26.9614 44.6446C27.0736 43.1768 27.1423 41.7076 27.1678 40.2371C27.1805 39.5439 27.0124 39.3169 26.4422 39.1503C25.8172 38.9676 25.2785 39.1329 24.963 39.6091C24.5858 40.1786 24.4886 40.8355 24.3848 41.4898C24.3497 41.7529 24.2994 42.0137 24.2341 42.2709C24.1952 41.8679 24.1429 41.4703 24.1188 41.0686C24.0418 39.7709 23.1079 39.159 22.1759 39.0039C21.5798 38.9112 20.9728 38.9126 20.3771 39.0079C19.6596 39.114 19.1853 39.5338 18.9139 40.1988C18.7069 40.7052 18.6098 41.2386 18.4845 41.7786C18.453 41.4891 18.4175 41.2003 18.3907 40.9108C18.2835 39.7998 17.8192 39.2356 16.7419 38.9542C15.9859 38.7549 15.1935 38.7384 14.4299 38.9058C13.3942 39.1308 12.812 39.822 12.7416 40.8853C12.7075 41.3977 12.6807 41.9116 12.6297 42.4247C12.5627 41.8162 12.4998 41.2103 12.4187 40.6052C12.3209 39.8724 12.0301 39.2544 11.4345 38.7984C11.406 38.7701 11.3812 38.7383 11.3608 38.7037C11.3634 38.6862 11.3686 38.6692 11.3762 38.6533C11.3864 38.6421 11.4002 38.635 11.4151 38.6331C11.5491 38.6251 11.6777 38.6123 11.809 38.6123C17.5323 38.615 23.2555 38.6188 28.9787 38.6237C29.0008 38.6237 29.0229 38.6526 29.0457 38.6681C29.0457 38.6815 29.0457 38.703 29.0383 38.707C28.1037 39.1886 27.7607 40.0208 27.6314 41.0082C27.474 42.2333 27.2777 43.4531 27.0954 44.6748L26.9614 44.6446Z" fill="#646464"/>
<path d="M19.7327 34.5932C17.7389 34.6149 15.7457 34.5182 13.7633 34.3037C13.5602 34.2813 13.3588 34.2454 13.1604 34.1962C13.1032 34.1815 13.053 34.1469 13.0188 34.0986C12.9846 34.0504 12.9686 33.9915 12.9735 33.9325C12.9785 33.8735 13.0042 33.8181 13.046 33.7763C13.0878 33.7344 13.1431 33.7088 13.2019 33.7039C13.348 33.692 13.4949 33.6936 13.6407 33.7086C15.9721 33.972 18.3182 34.0817 20.6639 34.0371C23.6706 33.9971 26.6694 33.7175 29.6319 33.2008C29.7616 33.1758 29.8924 33.1574 30.0239 33.1457C30.1873 33.133 30.32 33.1907 30.3468 33.3701C30.3736 33.5494 30.2557 33.6388 30.1022 33.6831C29.9893 33.7145 29.8748 33.7398 29.7592 33.759C27.6064 34.1332 25.434 34.3837 23.2526 34.5092C22.0768 34.5764 20.9051 34.5744 19.7327 34.5932Z" fill="#E3CCAA"/>
<path d="M9.16408 60.0287C9.16408 60.0361 9.1681 60.1388 9.16408 60.2409C9.16574 60.3009 9.14547 60.3594 9.1071 60.4054C9.06872 60.4514 9.01488 60.4818 8.95573 60.4908C8.80298 60.5203 8.69913 60.4397 8.64889 60.3034C8.62383 60.2184 8.60899 60.1307 8.60467 60.0421C8.27907 57.2815 7.95347 54.5207 7.62788 51.7597C7.32372 49.1894 7.01866 46.6189 6.71272 44.0482C6.70535 43.9897 6.69597 43.9313 6.69329 43.8729C6.68659 43.6875 6.76028 43.5458 6.9539 43.5303C7.13345 43.5162 7.22188 43.6505 7.23997 43.8064C7.3197 44.4042 7.39071 45.0026 7.46173 45.6018C7.71319 47.7346 7.96397 49.8674 8.21409 52.0001C8.4642 54.1329 8.71521 56.2655 8.96712 58.3979C9.02741 58.9103 9.09039 59.4215 9.16408 60.0287Z" fill="#646464"/>
<path d="M13.2316 52.2209C13.316 54.8216 13.4002 57.4228 13.4842 60.0244C13.4949 60.3502 13.4098 60.4946 13.2216 60.4946C13.0333 60.4946 12.9442 60.3555 12.9328 60.0304C12.8734 58.3562 12.8154 56.6808 12.7586 55.0043C12.6483 51.7718 12.5382 48.539 12.4283 45.306C12.4149 44.9238 12.4089 44.5416 12.4015 44.1594C12.3975 43.9754 12.4618 43.8323 12.6695 43.8236C12.8772 43.8149 12.9375 43.9707 12.9449 44.148C12.9663 44.5886 12.9904 45.0293 13.0052 45.4699C13.0798 47.7186 13.1526 49.9672 13.2236 52.2155L13.2316 52.2209Z" fill="#646464"/>
<path d="M18.7399 51.7135C18.7399 54.2 18.7399 56.6852 18.7399 59.1691C18.744 59.3161 18.7366 59.4632 18.7178 59.609C18.7115 59.6686 18.6831 59.7237 18.6384 59.7635C18.5937 59.8032 18.5357 59.8248 18.4759 59.824C18.443 59.8274 18.4097 59.824 18.378 59.814C18.3464 59.8041 18.3172 59.7878 18.2921 59.7661C18.267 59.7444 18.2466 59.7177 18.2321 59.6879C18.2176 59.658 18.2094 59.6254 18.208 59.5922C18.1925 59.4758 18.1858 59.3584 18.1879 59.2409C18.1879 54.1944 18.1879 49.1481 18.1879 44.1021C18.187 43.9991 18.1914 43.8962 18.2013 43.7938C18.2167 43.6453 18.2984 43.5379 18.4505 43.5338C18.624 43.5291 18.7185 43.6447 18.7332 43.8099C18.7433 43.942 18.7466 44.0744 18.7433 44.2068C18.7415 46.71 18.7404 49.2122 18.7399 51.7135Z" fill="#646464"/>
<path d="M14.4956 52.679C14.5635 54.6344 14.6305 56.5897 14.6966 58.5447C14.704 58.7502 14.6966 58.9564 14.6919 59.1626C14.6921 59.2826 14.6559 59.3997 14.5881 59.4985C14.4802 59.6509 14.3322 59.6489 14.2424 59.4803C14.1898 59.3751 14.1563 59.2614 14.1432 59.1445C14.1171 58.943 14.1057 58.7341 14.0983 58.5286C13.9978 55.6323 13.898 52.7363 13.7989 49.8405C13.764 48.8551 13.7131 47.8711 13.6709 46.8851C13.6582 46.5916 13.6294 46.2961 13.7379 46.0119C13.7794 45.8998 13.8304 45.7829 13.9744 45.7883C14.1184 45.7936 14.1653 45.9166 14.1948 46.0294C14.2285 46.1572 14.2483 46.2883 14.2538 46.4203C14.3141 47.9484 14.3683 49.4771 14.4273 51.0058C14.4487 51.5647 14.4769 52.1228 14.5017 52.681L14.4956 52.679Z" fill="#E3CCAA"/>
<path d="M25.1749 59.6463C25.278 58.6744 25.3758 57.7246 25.479 56.7749C25.6737 54.9331 25.8685 53.0914 26.0632 51.2497C26.2142 49.8315 26.3651 48.4139 26.5161 46.9966C26.5262 46.8943 26.5475 46.7934 26.5798 46.6957C26.5948 46.6378 26.6312 46.5878 26.6815 46.5557C26.7318 46.5235 26.7924 46.5117 26.8511 46.5224C26.9107 46.5262 26.967 46.5514 27.0096 46.5933C27.0523 46.6352 27.0785 46.6911 27.0836 46.7508C27.0916 46.8675 27.0875 46.9848 27.0715 47.1007C26.8196 49.4829 26.567 51.8654 26.3138 54.248C26.1307 55.9729 25.948 57.6969 25.7658 59.4199C25.7537 59.5368 25.7323 59.6523 25.7155 59.7692C25.6927 59.9338 25.6103 60.056 25.4355 60.0486C25.2345 60.0399 25.1675 59.8948 25.1749 59.7128C25.1755 59.6839 25.1749 59.6543 25.1749 59.6463Z" fill="#646464"/>
<path d="M8.34802 42.997C8.31385 42.0566 8.28103 41.1163 8.24217 40.1759C8.23463 39.9703 8.20498 39.766 8.15374 39.5667C8.1216 39.4447 8.05219 39.3359 7.95523 39.2554C7.85828 39.1749 7.73864 39.1269 7.61308 39.118C7.39267 39.118 7.22116 39.2658 7.11932 39.5506C7.04741 39.7596 7.01029 39.979 7.00945 40.2001C6.99873 40.7146 6.99002 41.2291 6.97662 41.745C6.97193 41.9048 6.98868 42.068 6.90025 42.2984C6.81918 41.7792 6.74884 41.3305 6.67916 40.8812C6.6312 40.5013 6.5264 40.1309 6.3683 39.7823C6.19478 39.4237 5.94556 39.151 5.54895 39.0348C5.38481 38.9871 5.20995 38.9401 5.14697 38.7412C5.45582 38.6405 8.59122 38.58 9.20825 38.6647C8.64816 39.3081 8.54566 40.0812 8.49943 40.8778C8.45857 41.5831 8.44383 42.2883 8.43244 42.9943C8.40437 42.9968 8.37619 42.9977 8.34802 42.997Z" fill="#646464"/>
<path d="M24.3039 47.1725C24.2496 48.258 24.1974 49.3427 24.1391 50.4275C24.121 50.7633 24.0305 50.8936 23.851 50.8876C23.6714 50.8815 23.5776 50.7391 23.5917 50.4127C23.6587 48.8578 23.7324 47.3035 23.8034 45.7486C23.8282 45.2065 23.8496 44.6632 23.8771 44.1211C23.8827 43.9894 23.8995 43.8584 23.9274 43.7295C23.9412 43.6719 23.9743 43.6208 24.0212 43.5847C24.0681 43.5486 24.1259 43.5298 24.185 43.5313C24.2441 43.5329 24.3009 43.5548 24.3458 43.5933C24.3908 43.6318 24.4211 43.6847 24.4318 43.743C24.4501 43.9177 24.4525 44.0937 24.4392 44.2689C24.393 45.2368 24.3427 46.2046 24.2938 47.1725H24.3039Z" fill="#646464"/>
<path d="M23.8569 55.182C23.7785 56.3971 23.7028 57.6128 23.6191 58.8279C23.5923 59.2215 23.5172 59.3296 23.3243 59.3269C23.1173 59.3236 23.0442 59.1839 23.0677 58.7701C23.13 57.686 23.2017 56.6026 23.2687 55.5192C23.3129 54.816 23.3605 54.1134 23.4074 53.4108C23.4097 53.3083 23.4189 53.2059 23.4348 53.1046C23.4623 52.9601 23.5507 52.8634 23.7028 52.8668C23.8857 52.8715 23.9641 52.9924 23.9574 53.1596C23.9386 53.6298 23.9118 54.1 23.8857 54.5661C23.875 54.7717 23.8589 54.9765 23.8455 55.1814L23.8569 55.182Z" fill="#646464"/>
<path d="M22.9055 42.9905C22.9169 42.5336 22.8552 42.0777 22.7226 41.6404C22.4767 40.864 21.9857 40.3481 21.1757 40.1721C20.9747 40.1292 20.7415 40.1198 20.7576 39.8256C20.769 39.6241 20.9492 39.5448 21.2936 39.6052C21.5991 39.6526 21.8922 39.7605 22.1557 39.9228C22.4191 40.0851 22.6476 40.2984 22.8278 40.5503C23.2385 41.1165 23.4153 41.7653 23.475 42.4478C23.5058 42.7984 23.4917 43.153 23.4931 43.5057C23.4924 43.5792 23.4823 43.6523 23.4629 43.7233C23.4267 43.8616 23.3483 43.9731 23.1949 43.9738C23.0207 43.9738 22.9209 43.8596 22.9109 43.6957C22.8948 43.4613 22.9055 43.2256 22.9055 42.9905Z" fill="#E3CCAA"/>
<path d="M8.3479 42.9969C8.37656 42.997 8.40519 42.9954 8.43366 42.9922C8.47252 43.6948 8.43366 44.396 8.39279 45.0979C8.36399 44.3973 8.31374 43.6981 8.3479 42.9969Z" fill="#996731"/>
<path d="M26.9615 44.6445L27.1008 44.6754C27.0883 44.9898 27.034 45.301 26.9393 45.601C26.9021 45.2827 26.9095 44.9607 26.9615 44.6445Z" fill="#996731"/>
</svg>
