<svg width="66" height="66" viewBox="0 0 66 66" fill="none" xmlns="http://www.w3.org/2000/svg">
<circle cx="33" cy="33" r="33" fill="#FF8C84"/>
<path d="M34.2231 54.8619L10.2614 47.6456L24.4225 0.622932L48.3843 7.83915L34.2231 54.8619Z" fill="#1DBD67" stroke="black"/>
<path d="M29.7951 6.41138L40.6656 9.68082C40.0787 11.6249 41.3513 13.7291 43.5075 14.3754L33.7637 46.7252C31.6075 46.0764 29.3852 47.1285 28.7992 49.0725L17.9287 45.7981C18.5155 43.8506 17.2438 41.7465 15.0876 41.0968L24.8314 8.74694C26.9909 9.40669 29.2133 8.35544 29.7951 6.41138Z" fill="#4FEC91"/>
<path d="M28.8029 49.7117C28.7413 49.7113 28.6801 49.7023 28.621 49.6848L17.7514 46.4104C17.6724 46.3865 17.599 46.3473 17.5352 46.295C17.4714 46.2427 17.4185 46.1784 17.3796 46.1057C17.3407 46.033 17.3165 45.9533 17.3083 45.8713C17.3002 45.7892 17.3083 45.7063 17.3322 45.6274C17.5636 44.8578 17.4471 44.0346 17.0036 43.296C16.5261 42.5255 15.7791 41.9601 14.9078 41.7099C14.7483 41.6615 14.6146 41.5518 14.536 41.4048C14.4574 41.2578 14.4403 41.0856 14.4886 40.9261L24.2333 8.5796C24.2819 8.42042 24.3915 8.28698 24.5382 8.20843C24.685 8.12988 24.8568 8.11263 25.0162 8.16044C25.8803 8.43191 26.8144 8.37214 27.6368 7.99277C28.4123 7.62643 28.9656 7.00188 29.1969 6.23231C29.2455 6.07294 29.3553 5.93934 29.5022 5.86077C29.6492 5.78221 29.8212 5.76508 29.9808 5.81315L40.8504 9.08259C40.9293 9.10647 41.0028 9.14566 41.0666 9.19794C41.1304 9.25021 41.1832 9.31454 41.2222 9.38726C41.2611 9.45997 41.2853 9.53963 41.2934 9.6217C41.3016 9.70377 41.2935 9.78665 41.2696 9.86558C41.0382 10.6335 41.1547 11.4584 41.5982 12.1936C42.0758 12.9641 42.8228 13.5297 43.694 13.7805C43.7729 13.8044 43.8464 13.8436 43.9102 13.8959C43.974 13.9481 44.0268 14.0125 44.0658 14.0852C44.1047 14.1579 44.1289 14.2376 44.137 14.3196C44.1451 14.4017 44.137 14.4846 44.1131 14.5635L34.3694 46.9142C34.3208 47.0734 34.2111 47.2068 34.0644 47.2854C33.9176 47.3639 33.7458 47.3812 33.5864 47.3334C31.7647 46.7843 29.8902 47.6502 29.4048 49.2615C29.3664 49.3913 29.287 49.5053 29.1786 49.5864C29.0701 49.6675 28.9384 49.7114 28.8029 49.7117ZM18.6685 45.3742L28.4299 48.3159C29.2682 46.5923 31.2802 45.6332 33.3357 45.9887L42.7391 14.7664C41.82 14.3699 41.0462 13.6984 40.5243 12.8441C40.0206 12.0307 39.8133 11.0683 39.9375 10.1196L30.1727 7.17961C29.7508 8.03874 29.0452 8.72578 28.175 9.1245C27.2683 9.54699 26.2531 9.67876 25.2686 9.50175L15.8652 40.7207C16.7844 41.1175 17.5581 41.7893 18.08 42.6438C18.5854 43.4587 18.7934 44.4234 18.6685 45.3742Z" fill="black"/>
<path d="M35.023 30.2218L33.789 29.8504C33.4872 30.7088 32.9993 31.4835 32.5642 31.8917L31.1617 31.0467C31.7257 30.4953 32.1452 29.8135 32.3831 29.0616C32.6061 28.3205 32.4728 27.7278 31.953 27.571C31.4593 27.4218 31.0217 27.7437 30.4072 28.608C29.5202 29.8579 28.5847 30.6116 27.3238 30.2318C26.1804 29.8873 25.5256 28.8109 25.6715 27.338L24.4375 26.9658L24.8206 25.6932L25.9641 26.0369C26.2659 25.1785 26.6238 24.6478 26.9608 24.2815L28.3164 25.1005C28.0716 25.3956 27.5921 25.9028 27.3104 26.84C27.0589 27.6842 27.3381 28.0673 27.7019 28.1763C28.1303 28.3054 28.5402 27.9332 29.2889 26.9532C30.3007 25.5716 31.2044 25.1626 32.3739 25.5147C33.5307 25.8634 34.271 26.98 34.0815 28.5527L35.4069 28.9517L35.023 30.2218Z" fill="#1FBC61"/>
<path d="M34.2792 18.662C35.8246 17.9782 36.523 16.171 35.8391 14.6257C35.1553 13.0803 33.3481 12.3819 31.8028 13.0657C30.2574 13.7496 29.559 15.5567 30.2428 17.1021C30.9267 18.6475 32.7338 19.3459 34.2792 18.662Z" fill="#1FBC61"/>
<path d="M28.8959 40.0463C29.0761 38.366 27.86 36.8578 26.1797 36.6777C24.4994 36.4975 22.9912 37.7136 22.8111 39.3939C22.6309 41.0741 23.847 42.5823 25.5273 42.7625C27.2076 42.9427 28.7158 41.7266 28.8959 40.0463Z" fill="#1FBC61"/>
<path d="M34.0695 57.2761L13.9351 42.4154L43.0978 2.90332L63.2323 17.764L34.0695 57.2761Z" fill="#1DBD67" stroke="black"/>
<path d="M46.213 10.1536L55.3507 16.8953C54.1452 18.5284 54.6339 20.9385 56.4455 22.2756L36.382 49.4589C34.5704 48.1218 32.1234 48.3641 30.9162 50.0005L21.7785 43.2587C22.9866 41.6223 22.497 39.213 20.6887 37.8759L40.7522 10.6926C42.5604 12.0297 45.0075 11.7866 46.213 10.1536Z" fill="#4FEC91"/>
<path d="M30.9122 50.6304C30.7778 50.6305 30.647 50.5873 30.5391 50.5072L21.4056 43.7663C21.3392 43.7172 21.283 43.6556 21.2404 43.5849C21.1978 43.5141 21.1695 43.4357 21.1572 43.354C21.1449 43.2724 21.1488 43.1891 21.1687 43.1089C21.1886 43.0288 21.2241 42.9533 21.2732 42.8869C22.2725 41.5322 21.8416 39.5118 20.3125 38.3826C20.246 38.3336 20.1899 38.2721 20.1473 38.2014C20.1047 38.1307 20.0764 38.0524 20.0641 37.9708C20.0518 37.8892 20.0557 37.806 20.0756 37.7259C20.0955 37.6458 20.131 37.5704 20.18 37.504L40.2435 10.3199C40.3426 10.1859 40.4909 10.0967 40.6558 10.0719C40.8207 10.047 40.9886 10.0886 41.1229 10.1875C42.652 11.3167 44.7092 11.1348 45.7076 9.78174C45.8067 9.6476 45.9549 9.55823 46.1198 9.53324C46.2846 9.50825 46.4527 9.54967 46.587 9.64844L55.7247 16.3902C55.7911 16.4392 55.8473 16.5009 55.8899 16.5716C55.9325 16.6423 55.9608 16.7208 55.9731 16.8024C55.9854 16.8841 55.9815 16.9674 55.9616 17.0476C55.9417 17.1277 55.9062 17.2031 55.8571 17.2696C55.381 17.9142 55.2133 18.7325 55.3835 19.5725C55.5735 20.4579 56.0856 21.2412 56.8204 21.7705C56.9544 21.8697 57.0436 22.018 57.0684 22.1828C57.0933 22.3477 57.0517 22.5157 56.9528 22.6499L36.8894 49.8332C36.7902 49.9672 36.6419 50.0564 36.4771 50.0812C36.3122 50.1061 36.1442 50.0645 36.01 49.9656C34.48 48.8372 32.4228 49.0209 31.4227 50.3747C31.3638 50.4546 31.2869 50.5194 31.1981 50.5639C31.1094 50.6083 31.0114 50.6311 30.9122 50.6304ZM22.6178 43.0981L30.8208 49.1525C32.1881 47.8112 34.4046 47.5848 36.2237 48.6118L55.5889 22.3783C54.8574 21.6952 54.355 20.8028 54.1503 19.8231C53.9486 18.887 54.0759 17.9099 54.5108 17.0567L46.3087 11.0032C44.9422 12.3445 42.7266 12.5666 40.9074 11.5414L21.5423 37.7748C23.0588 39.2117 23.4972 41.3955 22.6178 43.0981Z" fill="black"/>
<path d="M43.1186 34.3349L42.0816 33.5687C41.5082 34.2771 40.7881 34.8413 40.2373 35.0777L39.202 33.806C39.9191 33.4768 40.544 32.9758 41.0211 32.3473C41.4805 31.7253 41.5543 31.1217 41.1175 30.7989C40.7025 30.493 40.182 30.6489 39.3126 31.2558C38.0551 32.1344 36.9226 32.5292 35.8629 31.7471C34.9022 31.0379 34.6482 29.8039 35.2811 28.4659L34.2441 27.7005L35.0338 26.6308L35.9945 27.34C36.568 26.6317 37.0844 26.2502 37.5245 26.0222L38.5246 27.2495C38.1951 27.444 37.5731 27.7617 36.9921 28.5481C36.4682 29.2581 36.6048 29.7133 36.9083 29.9388C37.268 30.2046 37.7802 29.9916 38.8147 29.321C40.2322 28.3611 41.2206 28.2798 42.204 29.0049C43.1873 29.7301 43.4975 31.0236 42.7908 32.442L43.9049 33.2644L43.1186 34.3349Z" fill="#1FBC61"/>
<path d="M46.0899 23.202C47.7798 23.202 49.1498 21.8321 49.1498 20.1421C49.1498 18.4522 47.7798 17.0823 46.0899 17.0823C44.4 17.0823 43.03 18.4522 43.03 20.1421C43.03 21.8321 44.4 23.202 46.0899 23.202Z" fill="#1FBC61"/>
<path d="M34.3101 40.6815C34.5762 39.0126 33.4391 37.444 31.7703 37.1779C30.1014 36.9118 28.5329 38.0489 28.2667 39.7178C28.0006 41.3866 29.1378 42.9552 30.8066 43.2213C32.4754 43.4875 34.044 42.3503 34.3101 40.6815Z" fill="#1FBC61"/>
<path d="M55.429 29.2952V29.2965V55.5644C55.429 56.5836 55.0241 57.5611 54.3034 58.2818C53.5827 59.0026 52.6052 59.4074 51.5859 59.4074H12.667C11.6477 59.4074 10.6702 59.0026 9.94949 58.2818C9.22877 57.5611 8.82388 56.5836 8.82388 55.5644L8.82388 29.2965L8.82388 29.2958C8.82276 28.3142 9.19792 27.3695 9.87217 26.6562C10.5431 25.9463 11.4594 25.5193 12.4341 25.4617C12.4829 25.4613 12.529 25.4592 12.5639 25.4576L12.5682 25.4574C12.6124 25.4554 12.6408 25.4542 12.667 25.4542H51.5859C52.4366 25.4543 53.2632 25.7365 53.9363 26.2568C54.6093 26.7771 55.0907 27.506 55.305 28.3293L55.3054 28.3308C55.3881 28.6456 55.4297 28.9697 55.429 29.2952Z" fill="#D35046" stroke="black" stroke-width="1.2"/>
<path d="M51.5865 60.2205H12.6668C11.4334 60.2192 10.2509 59.7286 9.37866 58.8566C8.50643 57.9845 8.01571 56.8021 8.01416 55.5687V29.2966C8.01356 28.1084 8.46791 26.9651 9.2839 26.1014C10.0999 25.2377 11.2156 24.7192 12.4019 24.6523C12.5008 24.6523 12.5855 24.6448 12.6668 24.6448H51.5865C52.6166 24.6444 53.6175 24.9862 54.4323 25.6163C55.2471 26.2464 55.8296 27.1293 56.0883 28.1263C56.1892 28.5093 56.2397 28.9039 56.2384 29.3V55.5678C56.2373 56.8013 55.7468 57.9839 54.8747 58.8562C54.0026 59.7285 52.82 60.2192 51.5865 60.2205ZM12.6668 25.0681C12.5914 25.0681 12.5126 25.0681 12.4371 25.0748C11.3557 25.133 10.3377 25.6036 9.5929 26.3898C8.84806 27.176 8.43304 28.2178 8.43332 29.3008V55.5687C8.43487 56.6909 8.88142 57.7667 9.67505 58.5602C10.4687 59.3536 11.5446 59.8 12.6668 59.8013H51.5865C52.7087 59.8 53.7845 59.3536 54.578 58.5601C55.3715 57.7666 55.8179 56.6908 55.8192 55.5687V29.2966C55.82 28.9376 55.774 28.58 55.6826 28.2328C55.4477 27.3253 54.9178 26.5216 54.1764 25.948C53.435 25.3744 52.5239 25.0634 51.5865 25.0639L12.6668 25.0681Z" fill="black"/>
<path d="M51.3916 29.5609H48.4139C48.2636 29.5609 48.1194 29.5012 48.0132 29.3949C47.9069 29.2886 47.8472 29.1445 47.8472 28.9942C47.8472 28.8439 47.9069 28.6998 48.0132 28.5935C48.1194 28.4872 48.2636 28.4275 48.4139 28.4275H51.3916C51.5419 28.4275 51.6861 28.4872 51.7923 28.5935C51.8986 28.6998 51.9583 28.8439 51.9583 28.9942C51.9583 29.1445 51.8986 29.2886 51.7923 29.3949C51.6861 29.5012 51.5419 29.5609 51.3916 29.5609Z" fill="black"/>
<path d="M46.384 29.5609H43.4063C43.256 29.5609 43.1119 29.5012 43.0056 29.3949C42.8993 29.2886 42.8396 29.1445 42.8396 28.9942C42.8396 28.8439 42.8993 28.6998 43.0056 28.5935C43.1119 28.4872 43.256 28.4275 43.4063 28.4275H46.384C46.5343 28.4275 46.6785 28.4872 46.7847 28.5935C46.891 28.6998 46.9507 28.8439 46.9507 28.9942C46.9507 29.1445 46.891 29.2886 46.7847 29.3949C46.6785 29.5012 46.5343 29.5609 46.384 29.5609Z" fill="black"/>
<path d="M41.5114 29.5609H38.5337C38.3834 29.5609 38.2393 29.5012 38.133 29.3949C38.0267 29.2886 37.967 29.1445 37.967 28.9942C37.967 28.8439 38.0267 28.6998 38.133 28.5935C38.2393 28.4872 38.3834 28.4275 38.5337 28.4275H41.5114C41.6617 28.4275 41.8059 28.4872 41.9122 28.5935C42.0184 28.6998 42.0782 28.8439 42.0782 28.9942C42.0782 29.1445 42.0184 29.2886 41.9122 29.3949C41.8059 29.5012 41.6617 29.5609 41.5114 29.5609Z" fill="black"/>
<path d="M36.5017 29.5609H33.524C33.3737 29.5609 33.2295 29.5012 33.1233 29.3949C33.017 29.2886 32.9573 29.1445 32.9573 28.9942C32.9573 28.8439 33.017 28.6998 33.1233 28.5935C33.2295 28.4872 33.3737 28.4275 33.524 28.4275H36.5017C36.652 28.4275 36.7961 28.4872 36.9024 28.5935C37.0087 28.6998 37.0684 28.8439 37.0684 28.9942C37.0684 29.1445 37.0087 29.2886 36.9024 29.3949C36.7961 29.5012 36.652 29.5609 36.5017 29.5609Z" fill="black"/>
<path d="M31.4973 29.5609H28.5196C28.3693 29.5609 28.2251 29.5012 28.1189 29.3949C28.0126 29.2886 27.9529 29.1445 27.9529 28.9942C27.9529 28.8439 28.0126 28.6998 28.1189 28.5935C28.2251 28.4872 28.3693 28.4275 28.5196 28.4275H31.4973C31.6476 28.4275 31.7917 28.4872 31.898 28.5935C32.0043 28.6998 32.064 28.8439 32.064 28.9942C32.064 29.1445 32.0043 29.2886 31.898 29.3949C31.7917 29.5012 31.6476 29.5609 31.4973 29.5609Z" fill="black"/>
<path d="M26.4899 29.5609H23.5123C23.362 29.5609 23.2178 29.5012 23.1115 29.3949C23.0053 29.2886 22.9456 29.1445 22.9456 28.9942C22.9456 28.8439 23.0053 28.6998 23.1115 28.5935C23.2178 28.4872 23.362 28.4275 23.5123 28.4275H26.4899C26.6402 28.4275 26.7844 28.4872 26.8907 28.5935C26.9969 28.6998 27.0566 28.8439 27.0566 28.9942C27.0566 29.1445 26.9969 29.2886 26.8907 29.3949C26.7844 29.5012 26.6402 29.5609 26.4899 29.5609Z" fill="black"/>
<path d="M21.6176 29.5609H18.6399C18.4896 29.5609 18.3455 29.5012 18.2392 29.3949C18.1329 29.2886 18.0732 29.1445 18.0732 28.9942C18.0732 28.8439 18.1329 28.6998 18.2392 28.5935C18.3455 28.4872 18.4896 28.4275 18.6399 28.4275H21.6176C21.7679 28.4275 21.9121 28.4872 22.0184 28.5935C22.1247 28.6998 22.1844 28.8439 22.1844 28.9942C22.1844 29.1445 22.1247 29.2886 22.0184 29.3949C21.9121 29.5012 21.7679 29.5609 21.6176 29.5609Z" fill="black"/>
<path d="M16.3395 29.5609H13.3643C13.214 29.5609 13.0699 29.5012 12.9636 29.3949C12.8573 29.2886 12.7976 29.1445 12.7976 28.9942C12.7976 28.8439 12.8573 28.6998 12.9636 28.5935C13.0699 28.4872 13.214 28.4275 13.3643 28.4275H16.342C16.4923 28.4275 16.6365 28.4872 16.7427 28.5935C16.849 28.6998 16.9087 28.8439 16.9087 28.9942C16.9087 29.1445 16.849 29.2886 16.7427 29.3949C16.6365 29.5012 16.4923 29.5609 16.342 29.5609H16.3395Z" fill="black"/>
<path d="M51.3916 56.7152H48.4139C48.2636 56.7152 48.1194 56.6555 48.0132 56.5492C47.9069 56.4429 47.8472 56.2988 47.8472 56.1485C47.8472 55.9982 47.9069 55.854 48.0132 55.7478C48.1194 55.6415 48.2636 55.5818 48.4139 55.5818H51.3916C51.5419 55.5818 51.6861 55.6415 51.7923 55.7478C51.8986 55.854 51.9583 55.9982 51.9583 56.1485C51.9583 56.2988 51.8986 56.4429 51.7923 56.5492C51.6861 56.6555 51.5419 56.7152 51.3916 56.7152Z" fill="black"/>
<path d="M46.384 56.7152H43.4063C43.256 56.7152 43.1119 56.6555 43.0056 56.5492C42.8993 56.4429 42.8396 56.2988 42.8396 56.1485C42.8396 55.9982 42.8993 55.854 43.0056 55.7478C43.1119 55.6415 43.256 55.5818 43.4063 55.5818H46.384C46.5343 55.5818 46.6785 55.6415 46.7847 55.7478C46.891 55.854 46.9507 55.9982 46.9507 56.1485C46.9507 56.2988 46.891 56.4429 46.7847 56.5492C46.6785 56.6555 46.5343 56.7152 46.384 56.7152Z" fill="black"/>
<path d="M41.5114 56.7152H38.5337C38.3834 56.7152 38.2393 56.6555 38.133 56.5492C38.0267 56.4429 37.967 56.2988 37.967 56.1485C37.967 55.9982 38.0267 55.854 38.133 55.7478C38.2393 55.6415 38.3834 55.5818 38.5337 55.5818H41.5114C41.6617 55.5818 41.8059 55.6415 41.9122 55.7478C42.0184 55.854 42.0782 55.9982 42.0782 56.1485C42.0782 56.2988 42.0184 56.4429 41.9122 56.5492C41.8059 56.6555 41.6617 56.7152 41.5114 56.7152Z" fill="black"/>
<path d="M36.5017 56.7152H33.524C33.3737 56.7152 33.2295 56.6555 33.1233 56.5492C33.017 56.4429 32.9573 56.2988 32.9573 56.1485C32.9573 55.9982 33.017 55.854 33.1233 55.7478C33.2295 55.6415 33.3737 55.5818 33.524 55.5818H36.5017C36.652 55.5818 36.7961 55.6415 36.9024 55.7478C37.0087 55.854 37.0684 55.9982 37.0684 56.1485C37.0684 56.2988 37.0087 56.4429 36.9024 56.5492C36.7961 56.6555 36.652 56.7152 36.5017 56.7152Z" fill="black"/>
<path d="M31.4973 56.7152H28.5196C28.3693 56.7152 28.2251 56.6555 28.1189 56.5492C28.0126 56.4429 27.9529 56.2988 27.9529 56.1485C27.9529 55.9982 28.0126 55.854 28.1189 55.7478C28.2251 55.6415 28.3693 55.5818 28.5196 55.5818H31.4973C31.6476 55.5818 31.7917 55.6415 31.898 55.7478C32.0043 55.854 32.064 55.9982 32.064 56.1485C32.064 56.2988 32.0043 56.4429 31.898 56.5492C31.7917 56.6555 31.6476 56.7152 31.4973 56.7152Z" fill="black"/>
<path d="M26.4899 56.7152H23.5123C23.362 56.7152 23.2178 56.6555 23.1115 56.5492C23.0053 56.4429 22.9456 56.2988 22.9456 56.1485C22.9456 55.9982 23.0053 55.854 23.1115 55.7478C23.2178 55.6415 23.362 55.5818 23.5123 55.5818H26.4899C26.6402 55.5818 26.7844 55.6415 26.8907 55.7478C26.9969 55.854 27.0566 55.9982 27.0566 56.1485C27.0566 56.2988 26.9969 56.4429 26.8907 56.5492C26.7844 56.6555 26.6402 56.7152 26.4899 56.7152Z" fill="black"/>
<path d="M21.6176 56.7152H18.6399C18.4896 56.7152 18.3455 56.6555 18.2392 56.5492C18.1329 56.4429 18.0732 56.2988 18.0732 56.1485C18.0732 55.9982 18.1329 55.854 18.2392 55.7478C18.3455 55.6415 18.4896 55.5818 18.6399 55.5818H21.6176C21.7679 55.5818 21.9121 55.6415 22.0184 55.7478C22.1247 55.854 22.1844 55.9982 22.1844 56.1485C22.1844 56.2988 22.1247 56.4429 22.0184 56.5492C21.9121 56.6555 21.7679 56.7152 21.6176 56.7152Z" fill="black"/>
<path d="M16.3395 56.7152H13.3643C13.214 56.7152 13.0699 56.6555 12.9636 56.5492C12.8573 56.4429 12.7976 56.2988 12.7976 56.1485C12.7976 55.9982 12.8573 55.854 12.9636 55.7478C13.0699 55.6415 13.214 55.5818 13.3643 55.5818H16.342C16.4923 55.5818 16.6365 55.6415 16.7427 55.7478C16.849 55.854 16.9087 55.9982 16.9087 56.1485C16.9087 56.2988 16.849 56.4429 16.7427 56.5492C16.6365 56.6555 16.4923 56.7152 16.342 56.7152H16.3395Z" fill="black"/>
<g opacity="0.3">
<path opacity="0.3" d="M39.2688 60.0064H12.6689C11.4905 60.0064 10.3604 59.5383 9.52719 58.705C8.69395 57.8718 8.22583 56.7417 8.22583 55.5633V29.2963C8.22453 28.1612 8.65838 27.0687 9.43809 26.2438C10.2178 25.4189 11.284 24.9242 12.4174 24.8616C13.0143 25.5532 13.3656 25.9874 13.3656 25.9874C10.9638 46.6394 18.678 58.7598 39.2688 60.0064Z" fill="black"/>
</g>
<path d="M19.6787 46.7638H19.6784H8.69646H8.69622C8.53962 46.7639 8.38454 46.7331 8.23985 46.6732C8.09516 46.6133 7.96369 46.5255 7.85295 46.4148L7.4994 46.7683L7.85295 46.4148C7.74221 46.304 7.65439 46.1726 7.59451 46.0279C7.53462 45.8832 7.50383 45.7281 7.50391 45.5715V45.5713V40.2065C7.50446 39.8907 7.6303 39.5881 7.85379 39.365C8.07735 39.1419 8.38034 39.0167 8.69622 39.0168H8.69646L19.6783 39.0168C19.6784 39.0168 19.6784 39.0168 19.6784 39.0168C20.7056 39.0171 21.6907 39.4251 22.4172 40.1513C23.1437 40.8775 23.5522 41.8625 23.5528 42.8898C23.5531 43.3986 23.4531 43.9025 23.2585 44.3727C23.0639 44.8428 22.7785 45.27 22.4187 45.6298C22.0589 45.9896 21.6317 46.275 21.1616 46.4695C20.6915 46.6641 20.1875 46.7641 19.6787 46.7638Z" fill="#F1C526" stroke="black"/>
<g opacity="0.4">
<path opacity="0.4" d="M19.2996 47.265H17.8074C18.382 47.265 18.9511 47.1518 19.482 46.9319C20.0129 46.7119 20.4953 46.3896 20.9017 45.9832C21.308 45.5769 21.6304 45.0945 21.8503 44.5636C22.0702 44.0326 22.1834 43.4636 22.1834 42.8889C22.1834 42.3143 22.0702 41.7452 21.8503 41.2143C21.6304 40.6834 21.308 40.201 20.9017 39.7946C20.4953 39.3883 20.0129 39.066 19.482 38.846C18.9511 38.6261 18.382 38.5129 17.8074 38.5129H19.2962C19.8709 38.5129 20.4399 38.6261 20.9709 38.846C21.5018 39.066 21.9842 39.3883 22.3905 39.7946C22.7969 40.201 23.1192 40.6834 23.3391 41.2143C23.5591 41.7452 23.6722 42.3143 23.6722 42.8889C23.6722 43.4636 23.5591 44.0326 23.3391 44.5636C23.1192 45.0945 22.7969 45.5769 22.3905 45.9832C21.9842 46.3896 21.5018 46.7119 20.9709 46.9319C20.4399 47.1518 19.8709 47.265 19.2962 47.265H19.2996Z" fill="white"/>
</g>
<path d="M18.6397 45.2319C19.9338 45.2319 20.9828 44.1828 20.9828 42.8888C20.9828 41.5947 19.9338 40.5457 18.6397 40.5457C17.3457 40.5457 16.2966 41.5947 16.2966 42.8888C16.2966 44.1828 17.3457 45.2319 18.6397 45.2319Z" fill="black"/>
<g opacity="0.4">
<path opacity="0.4" d="M19.344 44.0168C18.8695 44.0168 18.9743 43.5565 18.9743 42.9337C18.9743 42.3108 18.8695 41.76 19.344 41.76C19.8185 41.76 20.2041 42.263 20.2041 42.8876C20.2041 43.5121 19.8193 44.0168 19.344 44.0168Z" fill="white"/>
<path opacity="0.4" d="M19.3442 44.2267C19.2675 44.2312 19.1906 44.2197 19.1184 44.193C19.0463 44.1663 18.9805 44.125 18.9251 44.0716C18.7398 43.8805 18.7482 43.5879 18.7574 43.2174C18.7574 43.1277 18.7625 43.0329 18.7625 42.934C18.7625 42.8351 18.7625 42.7412 18.7574 42.649C18.7465 42.2533 18.7373 41.9121 18.9377 41.7059C18.9908 41.6537 19.0541 41.6131 19.1236 41.5866C19.1931 41.56 19.2674 41.5481 19.3417 41.5516C19.9286 41.5516 20.4114 42.1519 20.4114 42.8929C20.4114 43.634 19.9336 44.2267 19.3442 44.2267ZM19.3442 41.9708C19.3076 41.9664 19.2707 41.9763 19.2411 41.9984C19.164 42.0823 19.1716 42.3757 19.1791 42.6372C19.1791 42.7328 19.1841 42.8326 19.1841 42.934C19.1841 43.0355 19.1841 43.1361 19.1791 43.2299C19.1724 43.458 19.1649 43.7162 19.2269 43.7799C19.2622 43.8011 19.3032 43.8108 19.3442 43.8075C19.6972 43.8075 19.9948 43.3884 19.9948 42.8854C19.9948 42.3824 19.6972 41.9708 19.3442 41.9708Z" fill="black"/>
</g>
<g opacity="0.3">
<path opacity="0.3" d="M18.64 47.1847C18.64 47.1847 18.5302 47.2115 18.3265 47.2643H8.69257C8.47027 47.2644 8.25013 47.2207 8.04472 47.1357C7.83932 47.0507 7.65269 46.926 7.4955 46.7688C7.33831 46.6116 7.21363 46.425 7.12861 46.2196C7.04359 46.0142 6.99989 45.7941 7 45.5718V40.2065C7.00067 39.7582 7.17932 39.3284 7.49669 39.0116C7.81406 38.6949 8.24418 38.5171 8.69257 38.5173H9.76561C10.0523 38.6272 10.2191 38.695 10.2191 38.695C9.98441 44.1475 13.2446 46.592 18.64 47.1847Z" fill="black"/>
</g>
</svg>
